<?xml version="1.0" encoding="UTF-8"?>
<svg xmlns="http://www.w3.org/2000/svg" xmlns:xlink="http://www.w3.org/1999/xlink" viewBox="0 0 78.58 55.64">
  <defs>
    <style>
      .cls-1 {
        fill: #dbdfe0;
      }

      .cls-2 {
        fill: #a00000;
      }

      .cls-3 {
        fill: #d0ab3a;
      }

      .cls-4 {
        fill: #b99e4a;
        mix-blend-mode: multiply;
        opacity: .3;
      }

      .cls-5 {
        fill: #d2d2d2;
      }

      .cls-6 {
        fill: #232221;
      }

      .cls-7 {
        fill: url(#linear-gradient-5);
      }

      .cls-8 {
        fill: url(#linear-gradient-6);
      }

      .cls-9 {
        fill: url(#linear-gradient-4);
      }

      .cls-10 {
        fill: #f5fcf8;
      }

      .cls-11 {
        fill: #eec753;
      }

      .cls-12 {
        fill: #2e2711;
      }

      .cls-13 {
        isolation: isolate;
      }

      .cls-14 {
        fill: url(#linear-gradient-2);
      }

      .cls-14, .cls-15 {
        opacity: .5;
      }

      .cls-15 {
        fill: url(#linear-gradient);
      }

      .cls-16 {
        fill: #353433;
      }

      .cls-17 {
        fill: #29230f;
      }

      .cls-18 {
        fill: #34383a;
      }

      .cls-19 {
        fill: #dcc358;
      }

      .cls-20 {
        fill: #e0b83f;
      }

      .cls-21 {
        fill: #d6b855;
      }

      .cls-22 {
        fill: url(#linear-gradient-3);
        mix-blend-mode: screen;
        opacity: .8;
      }

      .cls-23 {
        fill: #595757;
      }

      .cls-24 {
        fill: #ffa836;
      }

      .cls-25 {
        fill: #202b2d;
      }
    </style>
    <linearGradient id="linear-gradient" x1="-2242.41" y1="49.82" x2="-2235.91" y2="49.82" gradientTransform="translate(2285.75)" gradientUnits="userSpaceOnUse">
      <stop offset="0" stop-color="#323232"/>
      <stop offset=".63" stop-color="#201f1d"/>
      <stop offset="1" stop-color="#12100c"/>
    </linearGradient>
    <linearGradient id="linear-gradient-2" x1="-2279.51" y1="29.35" x2="-2273.02" y2="29.35" xlink:href="#linear-gradient"/>
    <linearGradient id="linear-gradient-3" x1="-2425.13" y1="52.36" x2="-2394.56" y2="35.9" gradientTransform="translate(2475.41)" gradientUnits="userSpaceOnUse">
      <stop offset="0" stop-color="#ab9133"/>
      <stop offset="1" stop-color="#e3c15b"/>
    </linearGradient>
    <linearGradient id="linear-gradient-4" x1="-2462.53" y1="22.68" x2="-2434.11" y2="22.68" gradientTransform="translate(2475.41)" gradientUnits="userSpaceOnUse">
      <stop offset="0" stop-color="#323538"/>
      <stop offset="1" stop-color="#2b2b2d"/>
    </linearGradient>
    <linearGradient id="linear-gradient-5" x1="-2463.58" y1="6.56" x2="-2440.05" y2="6.56" xlink:href="#linear-gradient-4"/>
    <linearGradient id="linear-gradient-6" x1="-2437.53" y1="22.64" x2="-2413.85" y2="22.64" xlink:href="#linear-gradient-4"/>
  </defs>
  <g class="cls-13">
    <g id="Layer_2" data-name="Layer 2">
      <g id="car_B2">
        <g>
          <path class="cls-21" d="M61.94,18.88c.3-.4,2.2-2.14,2.43-1.94.5.41.26,2.29-.18,3.05-.41.7-2.22,2.62-2.3,2.39-.15-.43-.31-3.01.06-3.5Z"/>
          <path class="cls-17" d="M6,22.68c-.87.5-1.44,1.54-1.53,3l22.65-13.16c.1-1.47.67-2.5,1.53-3L6,22.68Z"/>
          <path class="cls-12" d="M42.14,42.72c-.89.52-.99,3.56-.43,5l5.1-2.96,17.55-11.88c.07-1.53.65-2.6,1.54-3.12l-23.76,12.97Z"/>
          <g>
            <g class="cls-13">
              <path class="cls-6" d="M52.82,47.59c-.44-1-1.04-1.95-1.75-2.75-.6-.68-1.27-1.26-1.98-1.67-1.26-.73-2.4-.79-3.22-.32l-2.49,1.45c.82-.48,1.96-.41,3.22.32.71.41,1.38.98,1.98,1.66.71.81,1.31,1.76,1.75,2.75.5,1.12.79,2.3.78,3.39,0,1.43-.51,2.43-1.32,2.9l2.49-1.45c.81-.47,1.32-1.48,1.32-2.9,0-1.09-.29-2.27-.78-3.39Z"/>
              <path class="cls-16" d="M46.6,44.62c-2.5-1.44-4.53-.28-4.54,2.58,0,2.87,2.01,6.37,4.51,7.81,2.5,1.44,4.53.28,4.54-2.59,0-2.87-2.01-6.37-4.51-7.81Z"/>
            </g>
            <path class="cls-15" d="M46.6,46.09c-1.79-1.04-3.25-.2-3.26,1.85,0,2.06,1.44,4.57,3.24,5.61,1.79,1.04,3.25.2,3.26-1.86,0-2.06-1.44-4.57-3.24-5.6Z"/>
            <path class="cls-1" d="M46.6,47.24c-1.24-.75-2.28-.2-2.31,1.24-.03,1.44.95,3.21,2.2,3.96,1.24.75,2.28.2,2.31-1.24.03-1.44-.95-3.21-2.2-3.96Z"/>
          </g>
          <g>
            <g class="cls-13">
              <path class="cls-6" d="M15.72,27.13c-.44-1-1.04-1.95-1.75-2.75-.6-.68-1.27-1.26-1.98-1.67-1.26-.73-2.4-.79-3.22-.32l-2.49,1.45c.82-.48,1.96-.41,3.22.32.71.41,1.38.98,1.98,1.66.71.81,1.31,1.76,1.75,2.75.5,1.12.79,2.3.78,3.39,0,1.43-.51,2.43-1.32,2.9l2.49-1.45c.81-.47,1.32-1.48,1.32-2.9,0-1.09-.29-2.27-.78-3.39Z"/>
              <path class="cls-16" d="M9.5,24.16c-2.5-1.44-4.53-.28-4.54,2.58,0,2.87,2.01,6.37,4.51,7.81,2.5,1.44,4.53.28,4.54-2.59,0-2.87-2.01-6.37-4.51-7.81Z"/>
            </g>
            <path class="cls-14" d="M9.5,25.62c-1.79-1.04-3.25-.2-3.26,1.85,0,2.06,1.44,4.57,3.24,5.61,1.79,1.04,3.25.2,3.26-1.86,0-2.06-1.44-4.57-3.24-5.6Z"/>
            <path class="cls-1" d="M9.49,26.77c-1.24-.75-2.28-.2-2.31,1.24-.03,1.44.95,3.21,2.2,3.96,1.24.75,2.28.2,2.31-1.24.03-1.44-.95-3.21-2.2-3.96Z"/>
          </g>
          <path class="cls-20" d="M36.82,40.43l-17.53-10.34-4.03.71s-.44,1.19-.64,1.87l26.95,15.37.17-2.24-4.91-5.37Z"/>
          <path class="cls-3" d="M78.42,36.71c0-.74-.61-.82-.72-1.18-.44-1.51-.7-4.67-2.1-6.27-.59-.67-3.75-1.1-4.45-1.63l-8.46-6.34c-.16-.2-8.09-8.19-10.65-9.67l-14.43-8.32c-3.05-1.76-9.91.34-10.99.07-1.25-.3-1.45-2.45-5.85-2.85-1.75-.16-10.09,3.75-16.47,8.2-2.42,1.68-2.27,6.66-2.27,6.66,0,0-1.65,1.22-1.83,1.46-.41.55-.12,4.36.22,4.98.99,1.79,4.1,3.81,4.1,3.81.2-3.05,3-3.94,5.7-2.38.06.03.11.07.17.1,2.67,1.65,4.81,4.53,4.96,7.7l26.42,15c.15-3.14,2.42-3.77,5.16-2.19.06.03.11.07.17.1,2.66,1.64,4.77,5.33,4.93,8.49,4.28,2.42,11.49.3,16.46-2.31,5.72-3,9.41-6.06,10.04-8.67.16-.69-.1-4.08-.11-4.75Z"/>
          <path class="cls-4" d="M11.89,24.24v-6.39s.89-1.75.89-1.75l.24.12-.87,1.72v6.57c-.09-.09-.18-.19-.27-.27ZM40.9,32.34s.54,1.99.37,2.94c-.15.9-1.13,8.2-1.3,9.51l-14.27-8.22v-9.24s1.67-3.33,1.67-3.33l-.24-.12-1.68,3.36v9.18s-10.16-5.85-10.16-5.85c.02.12.04.23.05.35l24.67,14.22.18.1.03-.2c.01-.09,1.16-8.73,1.33-9.7.17-1.01-.36-2.97-.38-3.06l-.26.07Z"/>
          <path class="cls-22" d="M78.37,36.71c.17-.45-.54-.95-.54-.97-3.24,6.55-14.59,12.08-21.49,12.28-.65.02-2.81-.13-2.81-.1,0,0,.78.48,2.79.55,9.55.32,20.49-7.79,22.04-11.76Z"/>
          <path class="cls-2" d="M2.76,11.12c.1.36.48,1.45.57,2,.11.69.45,3.61.25,3.77-.18.15-1.45-2.02-1.46-2.36-.02-.84.38-3.45.63-3.41Z"/>
          <path class="cls-9" d="M41.3,32.43L12.89,16.12c.55-.83,1.9-1.73,3.38-2.44,2.33-1.11,5.06-1,7.3.28,3.56,2.03,9.45,5.44,11.53,6.65.57.33,1.04.8,1.37,1.38,1.44,2.56,4.54,9.28,4.84,10.44Z"/>
          <path class="cls-25" d="M41.22,32.58l-14.22-8.13-14.19-8.18h0c-.08-.05-.1-.15-.06-.22h0s0-.01,0-.01c.5-.7,1.18-1.17,1.87-1.61.69-.42,1.41-.82,2.17-1.11,1.53-.59,3.24-.68,4.82-.27.79.2,1.55.53,2.24.95l2.09,1.2,4.18,2.4,4.18,2.4c.35.2.69.39,1.05.61.35.23.66.51.92.84.27.33.44.71.63,1.05l.56,1.07c.73,1.44,1.43,2.89,2.1,4.35.34.73.67,1.46.99,2.2.32.74.65,1.47.9,2.27.03.09-.02.18-.11.21-.05.01-.09,0-.13-.01h0ZM40.99,32.06c-.21-.6-.47-1.21-.72-1.8-.32-.74-.65-1.47-.98-2.2-.67-1.46-1.36-2.91-2.08-4.34l-.55-1.07c-.2-.35-.37-.72-.6-1.02-.24-.31-.52-.57-.85-.78-.33-.21-.69-.4-1.03-.61l-4.17-2.42-4.17-2.42-2.09-1.21c-.69-.41-1.42-.72-2.19-.91-1.53-.39-3.19-.28-4.66.29-.74.3-1.44.68-2.11,1.1-.66.43-1.32.92-1.74,1.54h0s-.06-.24-.06-.24l14.22,8.13,13.79,7.95Z"/>
          <path class="cls-10" d="M57.13,46.4c1.74.64,5.11-.48,6.93-1.16,1.39-.52,1.66-2.63-.57-2.45-3.49.28-6.63.25-7.04.24-2.2-.05-1.97,2.39.68,3.37Z"/>
          <path class="cls-24" d="M56.45,43.03c-2.2-.05-2,2.42.65,3.4.12.05.4.15.54.18-.81-1.3-1.11-3.58-1.19-3.59Z"/>
          <path class="cls-10" d="M77.81,35.08c-.25.4-1.33,1.63-1.87,1.92-1.31.7-2.82-.62-1.47-2.04.67-.71,1.9-2.14,2.31-3.44.94,1.66,1.18,3.32,1.03,3.57Z"/>
          <path class="cls-23" d="M73.58,36.3c-3.74,3.69-8.89,4.97-8.49,5.59.26.4,1.88,1.81,1.89,1.81,1.56-.31,6.82-3.69,6.86-4.36.08-1.42-.11-2.66-.16-3.01,0-.05-.06-.05-.09-.02Z"/>
          <path class="cls-19" d="M7.19,21.34c-2.78-2.42-4.69-4.27-5.14-4.92v-1.14s-1.04.76-1.22,1.01h0c2.53,2.92,6.37,5.05,6.37,5.05Z"/>
          <path class="cls-11" d="M75.97,30.6c-.16-.65-.02-.95-.76-1.79-.59-.67-1.31-1.03-2.01-1.56l-10.65-6.1c-.16-.2-8.09-8.19-10.65-9.67l-14.43-8.32c-3.05-1.76-9.39-1.3-9.82-1.24-.39.05-2.62-1.49-7.03-1.9-1.7-.16-10.09,4.2-16.34,8.67-.21.15-.2.48.02.62,2.48,1.68,2.49,1.98,5.47,2.03,2.77.05,8.63,0,11,.48,2.16.44,15.31,7.81,16.63,9.68,1.17,1.66,4.59,9.14,7.39,13.2,1.59,2.3,2.52,2.07,5.03,3.74,1.22.81,2.47,1.56,3.53,2.15,1.29.73,2.66,1.31,4.14,1.31,10.33-.02,16.42-6.96,18.37-9.95.26-.4.23-.86.11-1.33Z"/>
          <path class="cls-7" d="M35.36,2.51c-3.4.71-9.31,4.3-13.55,8.28-.17.16-.39.25-.62.24l-9.22-.06c-.11,0-.18-.12-.13-.21.84-1.59,12.22-7.94,16.72-8.63.11-.02.22-.02.33-.02.78,0,4.07.01,6.46.41Z"/>
          <polygon class="cls-25" points="29.85 17.67 28.37 16.84 26.08 23.6 27.54 24.47 29.85 17.67"/>
          <polygon class="cls-25" points="18.36 13.02 17.68 13.11 16.04 17.95 16.58 18.27 18.36 13.02"/>
          <path class="cls-18" d="M58.63,51.26l.05.56c.01.14.13.25.27.24,1.04-.06,3.18-.44,4.06-.76.11-.04.18-.15.17-.27l-.05-.59c-.01-.17-.18-.27-.34-.22-1.76.55-3.17.69-3.93.77-.14.01-.24.14-.23.28Z"/>
          <path class="cls-18" d="M77.93,40.53c-.05.08-.08.16-.07.25.01.4,0,.92,0,1.04.16-.17.56-.73.69-1.23.04-.42-.03-.86-.03-1.28-.16.5-.4.92-.58,1.22Z"/>
          <path class="cls-18" d="M76.46,42.1c-2.81,2.92-7.05,5.32-11.04,6.95-.07.03-.11.09-.11.17v.99c0,.11.1.21.21.18,1.72-.36,9.71-4.89,11.15-6.94.07-.11.11-.24.11-.37v-.86c0-.16-.2-.24-.31-.13Z"/>
          <path class="cls-5" d="M68.55,47.43v1c.61-.2,5.6-3.11,6.08-3.72v-.97c-1.83,1.41-3.94,2.65-6.08,3.69Z"/>
          <path class="cls-25" d="M38.36,32.85l1.36.07c.63.03,1.27-.09,1.84-.36h0c-.26-.64-.51-1.27-.78-1.91l-1.65.74-.78,1.47Z"/>
          <path class="cls-21" d="M40.4,30.52c-.52-.03-4.38,1.22-4.33,1.67.09.87,1.45,2.02,2.28,2.18.79.16,4.08-.88,4.09-1.19.03-.58-1.05-2.61-2.04-2.67Z"/>
          <path class="cls-1" d="M29.01,30.02l-1.85-1.07c-.19-.11-.35-.36-.35-.56h0c0-.19.16-.26.35-.15l1.85,1.07c.19.11.35.36.35.56h0c0,.19-.16.26-.35.15Z"/>
          <path class="cls-1" d="M15.67,22.33l-1.85-1.07c-.19-.11-.35-.36-.35-.56h0c0-.19.16-.26.35-.15l1.85,1.07c.19.11.35.36.35.56h0c0,.19-.16.26-.35.15Z"/>
          <path class="cls-8" d="M52.79,12.79c-.66.64-5.71,5.35-14.81,8.64-.08.03-.11.12-.07.19l5.54,10.16c.35.64,1.09.86,1.79.67,2.52-.68,8.71-2.83,14.69-8.14.92-.82,2.28-2.79,1.31-3.77-2.94-2.95-5.54-5.42-8.28-7.75-.05-.04-.11-.04-.16,0Z"/>
        </g>
      </g>
    </g>
  </g>
</svg>