<?xml version="1.0" encoding="UTF-8"?>
<svg xmlns="http://www.w3.org/2000/svg" xmlns:xlink="http://www.w3.org/1999/xlink" viewBox="0 0 75.52 71.75">
  <defs>
    <style>
      .cls-1, .cls-2, .cls-3, .cls-4, .cls-5, .cls-6, .cls-7, .cls-8, .cls-9, .cls-10, .cls-11, .cls-12 {
        fill-rule: evenodd;
      }

      .cls-1, .cls-13 {
        fill: #efefef;
      }

      .cls-2 {
        fill: #fff;
      }

      .cls-3 {
        fill: url(#GradientFill_215-2);
      }

      .cls-4 {
        fill: #2e3235;
      }

      .cls-5 {
        fill: #d5d0c8;
        mix-blend-mode: multiply;
      }

      .cls-6 {
        fill: url(#GradientFill_216);
      }

      .cls-7 {
        fill: url(#GradientFill_215);
      }

      .cls-14 {
        isolation: isolate;
      }

      .cls-8 {
        fill: #474c52;
      }

      .cls-9 {
        fill: #1c1d1e;
      }

      .cls-10 {
        fill: #b2b1af;
      }

      .cls-11 {
        fill: #00a29a;
      }

      .cls-12 {
        fill: #e8e5e0;
      }
    </style>
    <linearGradient id="GradientFill_215" data-name="GradientFill 215" x1="378.07" y1="22.86" x2="378.78" y2="24.79" gradientTransform="translate(-367.55)" gradientUnits="userSpaceOnUse">
      <stop offset="0" stop-color="#a6a69d"/>
      <stop offset="1" stop-color="#fff"/>
    </linearGradient>
    <linearGradient id="GradientFill_215-2" data-name="GradientFill 215" x1="390.83" y1="30.3" x2="391.61" y2="32.42" xlink:href="#GradientFill_215"/>
    <linearGradient id="GradientFill_216" data-name="GradientFill 216" x1="409.34" y1="42.61" x2="409.9" y2="44.7" gradientTransform="translate(-367.55)" gradientUnits="userSpaceOnUse">
      <stop offset="0" stop-color="#a6a69d"/>
      <stop offset="1" stop-color="#f1eee9"/>
    </linearGradient>
  </defs>
  <g class="cls-14">
    <g id="Layer_2" data-name="Layer 2">
      <g id="car_A2">
        <g>
          <path class="cls-9" d="M3.85,42.23l6.61-3.79.44-1.73-3.87-.95s-4.42.27-4.51.41c-.09.14.02.88,0,1.04-.02.16,1.34,5.02,1.34,5.02Z"/>
          <path class="cls-9" d="M37.59,61.5l6.61-3.79.44-1.73-3.87-.95s-4.42.27-4.51.41c-.09.14.02.88,0,1.04-.02.16,1.34,5.02,1.34,5.02Z"/>
          <g>
            <polygon class="cls-4" points="49.5 63.74 49.48 63.47 49.45 63.2 49.42 62.93 49.37 62.65 49.31 62.38 49.24 62.1 49.16 61.83 49.07 61.55 48.97 61.27 48.87 61 48.75 60.73 48.63 60.46 48.5 60.19 48.36 59.93 48.22 59.67 48.06 59.41 47.9 59.16 47.74 58.91 47.57 58.67 47.39 58.44 47.2 58.21 47.01 57.99 46.82 57.77 46.62 57.57 46.41 57.37 46.21 57.18 45.99 57 45.78 56.83 45.56 56.67 45.33 56.52 45.11 56.38 44.66 56.15 44.22 55.98 43.8 55.86 43.39 55.8 43.01 55.79 42.65 55.83 42.31 55.93 42 56.08 40.56 56.91 39.06 57.77 45.28 68.55 45.63 68.34 45.63 68.34 47.18 67.45 47.5 67.26 47.5 67.26 48.22 66.85 48.5 66.65 48.75 66.41 48.97 66.12 49.16 65.78 49.31 65.4 49.42 64.97 49.48 64.51 49.5 64 49.5 63.74"/>
            <path class="cls-8" d="M42.2,58.08c2.43,1.4,4.4,4.81,4.4,7.62,0,2.8-1.97,3.94-4.4,2.54-2.43-1.4-4.4-4.81-4.4-7.62,0-2.8,1.97-3.94,4.4-2.54Z"/>
            <path class="cls-1" d="M42.17,60.17c1.43.83,2.59,2.83,2.59,4.49s-1.16,2.32-2.59,1.5c-1.43-.83-2.59-2.83-2.59-4.49s1.16-2.32,2.59-1.5Z"/>
            <path class="cls-8" d="M42.17,61.76c.34.19.64.53.86.91.22.38.36.81.36,1.2s-.14.66-.36.79c-.22.13-.52.11-.86-.08-.34-.19-.64-.53-.86-.91-.22-.38-.36-.81-.36-1.2s.14-.66.36-.79c.22-.13.52-.11.86.08Z"/>
          </g>
          <g>
            <polygon class="cls-4" points="15.77 44.71 15.76 44.45 15.73 44.18 15.69 43.9 15.64 43.63 15.58 43.35 15.51 43.08 15.43 42.8 15.35 42.53 15.25 42.25 15.14 41.98 15.03 41.71 14.91 41.44 14.78 41.17 14.64 40.9 14.49 40.64 14.34 40.39 14.18 40.14 14.01 39.89 13.84 39.65 13.66 39.41 13.48 39.18 13.29 38.96 13.09 38.75 12.89 38.54 12.69 38.34 12.48 38.16 12.27 37.98 12.05 37.81 11.83 37.65 11.61 37.5 11.38 37.36 10.93 37.13 10.5 36.95 10.07 36.83 9.67 36.77 9.29 36.76 8.92 36.81 8.58 36.91 8.27 37.05 6.83 37.88 5.33 38.75 11.55 49.52 11.91 49.32 11.9 49.32 13.46 48.42 13.78 48.24 13.78 48.24 14.49 47.83 14.78 47.63 15.03 47.38 15.25 47.09 15.43 46.76 15.58 46.37 15.69 45.95 15.76 45.48 15.78 44.98 15.77 44.71"/>
            <path class="cls-8" d="M8.48,39.06c2.43,1.4,4.4,4.81,4.4,7.62,0,2.8-1.97,3.94-4.4,2.54-2.43-1.4-4.4-4.81-4.4-7.62s1.97-3.94,4.4-2.54Z"/>
            <path class="cls-1" d="M8.44,41.15c1.43.83,2.59,2.83,2.59,4.49s-1.16,2.32-2.59,1.5c-1.43-.83-2.59-2.83-2.59-4.49s1.16-2.32,2.59-1.5Z"/>
            <path class="cls-8" d="M8.44,42.74c.34.19.64.53.86.91.22.38.36.81.36,1.2s-.14.66-.36.79c-.22.13-.52.11-.86-.08-.34-.19-.64-.53-.86-.91-.22-.38-.36-.81-.36-1.2s.14-.66.36-.79c.22-.13.52-.11.86.08Z"/>
          </g>
          <g>
            <path class="cls-2" d="M73,33.19c.44-.25.84-.28,1.13-.11.29.17.47.52.47,1.03s-.18,1.07-.47,1.57c-.29.5-.69.94-1.13,1.19-.44.25-.84.28-1.13.11-.29-.17-.47-.52-.47-1.03s.18-1.07.47-1.57c.29-.5.69-.94,1.13-1.19Z"/>
            <path class="cls-10" d="M73.4,33.42c.88-.51,1.6-.1,1.6.92s-.72,2.26-1.6,2.77c-.88.51-1.6.1-1.6-.92s.71-2.26,1.6-2.77Z"/>
          </g>
          <g>
            <path class="cls-12" d="M74.52,39.52v13.98c0,.91-.37,1.78-1.47,2.42-2.65,1.53-5.3,3.06-7.95,4.59-2.65,1.53-5.3,3.06-7.95,4.59-1.1.64-2.62.91-4.19.85v-13.98c0-3.84-2.71-8-4.32-13.56-.25-.87-.82-1.83-2.09-2.56l21.56-12.45c1.27.73,1.84,1.69,2.09,2.56l4.32,13.57Z"/>
            <path class="cls-12" d="M52.96,65.95c-1.56-.06-3.17-.47-4.44-1.21,2.14-11.3-25.33-23.04-32.16-26.98-6.83-3.94-11.78-4.67-13.24.99-1.27-.73-2.09-1.65-2.09-2.56,0-4.66,0-9.32,0-13.99,0-2.87,2.38-8.3,2.97-10.43.05,0,.1,0,.16,0,1.56.06,2.05.93,3.32,1.66,6.16,3.56,7.62,4.4,13.78,7.96,6.16,3.56,21.44,12.16,27.6,15.71,1.27.73,1.84,1.69,2.09,2.56,1.61,5.56,2.01,8.45,2.01,12.3v13.98Z"/>
          </g>
          <path class="cls-11" d="M73.05,43.76c-.85.49-2.65,1.53-3.5,2.03-2.59,1.65-3.3,4.05-3.77,6.68-1.18-1.97-3.12-2.45-5.19-1.73-1.66.96-2,1.24-3.69,2.12-1.97,1.02-2.76,1.24-4.32,1.18-1.56-.06-2.78-.72-4.05-1.45-6.83-3.94-22.78-12.93-29.61-16.87-6.83-3.94-8.96-5.17-15.79-9.12-1.27-.73-2.09-1.65-2.09-2.56,0,4.66,0,10.55,0,15.22,0,.91.82,1.83,2.09,2.56l.32.18.31.18.11.06v-2.08h0c0-3.21,2.26-4.51,5.04-2.91,2.78,1.61,5.04,5.51,5.04,8.72v2.08s.83.48.83.48l.24.14.25.14.05.03,3.61,2.09,17.43,9.84.13.08,1.13.65v-2.08h0c0-3.21,2.26-4.51,5.04-2.91,2.78,1.61,5.04,5.51,5.04,8.72v2.08h0c.85.49-.01,0,.84.49,1.27.73,2.88,1.14,4.44,1.21,1.56.06,3.09-.21,4.19-.85,2.65-1.53,5.3-3.06,7.95-4.59,2.65-1.53,5.3-3.06,7.95-4.59,1.1-.64,1.47-1.51,1.47-2.42v-15.22c0,.91-.37,1.78-1.47,2.42Z"/>
          <g>
            <polygon class="cls-10" points="3.61 39.16 3.61 42.46 2.59 43.05 2.59 39.74 3.61 39.16"/>
            <polygon class="cls-12" points="2.59 39.74 2.59 43.01 2.48 42.95 2.36 42.89 2.25 42.83 2.14 42.77 2.02 42.7 1.91 42.63 1.81 42.56 1.7 42.48 1.59 42.41 1.49 42.33 1.39 42.24 1.29 42.16 1.19 42.07 1.09 41.98 1 41.88 .91 41.78 .83 41.68 .75 41.58 .67 41.47 .59 41.36 .52 41.24 .45 41.12 .39 41 .33 40.87 .27 40.74 .22 40.6 .17 40.46 .13 40.32 .1 40.17 .06 40.02 .04 39.86 .02 39.7 0 39.6 0 39.5 0 39.4 0 36.13 0 36.23 0 36.33 .02 36.43 .04 36.59 .06 36.75 .1 36.9 .13 37.05 .17 37.19 .22 37.33 .27 37.47 .33 37.6 .39 37.73 .45 37.85 .52 37.97 .59 38.09 .67 38.2 .75 38.31 .83 38.41 .91 38.51 1 38.61 1.09 38.71 1.19 38.8 1.29 38.89 1.39 38.97 1.49 39.06 1.59 39.14 1.7 39.21 1.81 39.29 1.91 39.36 2.02 39.43 2.14 39.5 2.25 39.56 2.36 39.62 2.48 39.68 2.59 39.74"/>
            <path class="cls-2" d="M3.61,39.16l-1.02.59c-1.23-.61-2.39-1.56-2.57-3.31-.11-1.08.29-2,1-2.7v2.57c0,.91.82,1.83,2.09,2.56l.5.29Z"/>
          </g>
          <g>
            <path class="cls-7" d="M7.16,17.61l1.41.81,6.18,3.57c.2.11.37.32.5.57.13.25.21.53.21.79v6.61c0,.26-.08.45-.21.55-.13.1-.31.1-.5-.01l-6.18-3.57-1.41-.81c-.19-.11-.37-.32-.5-.57-.13-.25-.21-.53-.21-.79v-6.61c0-.26.08-.45.21-.55.13-.1.31-.1.5.01Z"/>
            <path class="cls-8" d="M15.39,30.34c-.07,0-.15-.04-.23-.08l-6.18-3.57-1.41-.81c-.19-.11-.37-.32-.5-.57-.13-.25-.21-.53-.21-.79v-6.61c0-.15.03-.28.08-.38.07,0,.15.04.23.08l1.41.81,6.18,3.57c.2.11.37.32.5.57.13.25.21.53.21.79v6.61c0,.15-.03.28-.08.38Z"/>
          </g>
          <g>
            <path class="cls-3" d="M19.14,24.7l1.41.81,7.84,4.5c.2.11.37.32.5.57.13.25.21.53.21.79v3.79s0,2.82,0,2.82c0,.26-.08.45-.21.55-.13.1-.31.1-.5-.01l-7.84-4.5-1.41-.81c-.19-.11-.37-.32-.5-.57-.13-.25-.21-.53-.21-.79v-6.61c0-.26.08-.45.21-.55.13-.1.31-.1.5.01Z"/>
            <path class="cls-8" d="M29.02,38.36c-.07,0-.15-.04-.23-.08l-7.84-4.5-1.41-.81c-.19-.11-.37-.32-.5-.57-.13-.25-.21-.53-.21-.79v-6.61c0-.15.03-.28.08-.38.07,0,.15.04.23.08l1.41.81,7.84,4.5c.2.11.37.32.5.57.13.25.21.53.21.79v3.79s0,2.82,0,2.82c0,.15-.03.28-.08.38Z"/>
          </g>
          <g>
            <path class="cls-6" d="M48.18,49.79c-.66,0-1.5-.2-1.73-.26-2.7-.7-5.58-2.77-7.98-4.16h0c-.19-.12-.37-.33-.49-.57-.13-.25-.21-.53-.21-.79v-7.52c0-.53.32-.52.57-.53l5.86,3.54c.78.45,3.98,10.28,3.98,10.28Z"/>
            <path class="cls-8" d="M48.13,49.52c-.63-.02-1.37-.2-1.58-.26-2.7-.7-5.32-2.7-7.72-4.09h0c-.19-.12-.37-.33-.49-.57-.13-.25-.21-.53-.21-.79v-7.52c0-.14.02-.24.06-.32.05,0,.11,0,.16,0l6.31,3.67c.51.3.89.78,1.05,1.35l2.44,8.53Z"/>
          </g>
          <g>
            <path class="cls-4" d="M59.98,57.02c1.4-.81,2.53-.15,2.53,1.46,0,1.61-1.13,3.57-2.53,4.38-1.4.81-2.53.15-2.53-1.46s1.13-3.57,2.53-4.38Z"/>
            <polygon class="cls-8" points="58.19 63.03 57.3 62.52 57.14 62.41 56.99 62.27 56.87 62.1 56.76 61.91 56.68 61.69 56.61 61.44 56.58 61.18 56.56 60.89 56.58 60.58 56.61 60.27 56.68 59.95 56.76 59.64 56.87 59.32 56.99 59.01 57.14 58.7 57.3 58.4 57.48 58.1 57.68 57.82 57.88 57.56 58.11 57.31 58.34 57.07 58.58 56.86 58.83 56.67 59.09 56.51 59.35 56.37 59.6 56.27 59.84 56.21 60.07 56.17 60.29 56.16 60.5 56.19 60.7 56.25 60.88 56.33 61.76 56.84 61.58 56.76 61.39 56.7 61.18 56.68 60.96 56.68 60.73 56.72 60.49 56.79 60.23 56.89 59.98 57.02 59.72 57.18 59.47 57.37 59.23 57.59 58.99 57.82 58.77 58.07 58.56 58.33 58.37 58.62 58.19 58.91 58.03 59.21 57.88 59.52 57.75 59.83 57.65 60.15 57.56 60.46 57.5 60.78 57.46 61.09 57.45 61.4 57.46 61.69 57.5 61.96 57.56 62.2 57.65 62.42 57.75 62.61 57.88 62.78 58.03 62.92 58.19 63.03"/>
            <path class="cls-2" d="M59.98,57.78c1.03-.6,1.87-.11,1.87,1.08s-.84,2.64-1.87,3.24c-1.03.6-1.87.11-1.87-1.08s.84-2.64,1.87-3.24Z"/>
          </g>
          <g>
            <path class="cls-2" d="M47.21,46.95c.47-.27.89-.3,1.2-.12.14.08.28.16.42.25.31.18.5.56.5,1.1s-.19,1.14-.5,1.67c-.31.53-.73,1-1.2,1.27-.47.27-.89.3-1.2.12-.14-.08-.28-.16-.42-.25-.31-.18-.5-.56-.5-1.1s.19-1.14.5-1.67c.31-.53.73-1,1.2-1.27Z"/>
            <path class="cls-10" d="M47.63,47.19c.94-.54,1.7-.1,1.7.98s-.76,2.4-1.7,2.94c-.94.54-1.7.1-1.7-.98s.76-2.4,1.7-2.94Z"/>
            <path class="cls-10" d="M47.38,49.32c-.09-.14-.06-.32.08-.42.14-.09.32-.06.42.08,0,0,1.21,1.83,3.56,2.2.16.03.28.18.25.34-.03.16-.18.28-.34.25-2.6-.42-3.96-2.46-3.96-2.46Z"/>
          </g>
          <g>
            <path class="cls-12" d="M73.52,61.57l-15.91,9.18-.13.07-.13.07-.14.07-.14.06-.14.06-.14.06-.14.06-.14.05-.15.05-.15.05-.15.04-.15.04-.15.04-.15.04-.15.03-.15.03-.15.03-.15.03-.15.02-.15.02-.15.02-.15.02h-.15s-.15.02-.15.02h-.15s-.15.02-.15.02h-.15s-.15,0-.15,0h-.15s-.15,0-.15,0h-.15s-.15,0-.15,0h-.16s-.16-.02-.16-.02h-.16s-.16-.03-.16-.03l-.16-.02-.16-.02-.16-.02-.16-.02-.16-.02-.16-.03-.16-.03-.16-.03-.16-.03-.16-.04-.16-.04-.16-.04-.16-.04-.16-.04-.16-.05-.15-.05-.15-.05-.15-.05-.15-.06-.15-.06-.15-.06-.15-.06-.15-.07-.14-.07-.14-.07-.14-.07-.14-.08-.14-.08-.57-.33v-3.3l.57.33.14.08.14.08.14.07.14.07.14.07.15.07.15.06.15.06.15.06.15.06.15.05.15.05.15.05.16.05.16.04.16.04.16.04.16.04.16.04.16.03.16.03.16.03.16.03.16.03.16.02.16.02.16.02.16.02h.16s.16.03.16.03h.16s.16.02.16.02h.15s.15,0,.15,0h.15s.15,0,.15,0h.15s.15,0,.15,0h.15s.15-.02.15-.02h.15s.15-.02.15-.02l.15-.02.15-.02.15-.02.15-.02.15-.03.15-.03.15-.03.15-.03.15-.04.15-.04.15-.04.15-.04.15-.05.15-.05.14-.05.14-.05.14-.06.14-.06.14-.06.14-.07.13-.07.13-.07,15.91-9.18.12-.07.11-.07.11-.07.11-.08.11-.08.1-.08.1-.09.1-.09.1-.09.09-.09.09-.1.09-.1.08-.1.08-.1.07-.1.07-.11.07-.11.06-.11.06-.11.05-.12.05-.12.04-.12.04-.12.03-.12.03-.13.02-.13.02-.13v-.13s.01,3.3.01,3.3v.13s-.03.13-.03.13l-.02.13-.03.13-.03.12-.04.12-.04.12-.05.12-.05.12-.06.11-.06.11-.07.11-.07.11-.07.11-.08.1-.08.1-.09.1-.09.1-.09.09-.1.09-.1.09-.1.09-.1.08-.11.08-.11.08-.11.07-.11.07-.12.07h0ZM74.49,54.97v-2.19,2.28s0,.08,0,.08v2.07-.08s0-.09,0-.09v-2.07Z"/>
            <path class="cls-2" d="M73.52,58.27l-15.91,9.18c-1.39.8-3.16,1.05-4.74.99-1.68-.07-3.45-.5-4.91-1.34l-.57-.33,1.03-.6.06.04c1.27.73,2.88,1.14,4.44,1.21,1.56.06,3.08-.21,4.19-.85,2.65-1.53,5.3-3.06,7.95-4.59,2.65-1.53,5.3-3.06,7.95-4.59,1.1-.64,1.47-1.51,1.47-2.42v-2.19c.52.58.9,1.27,1,2.07.19,1.5-.72,2.71-1.97,3.43Z"/>
            <polygon class="cls-8" points="68.59 61.63 63.05 64.83 63.05 67.13 68.59 63.94 68.59 61.63"/>
          </g>
          <path class="cls-12" d="M39.16,50.27l-2.01-1.17c-.2-.11-.36-.42-.36-.69h0c0-.26.16-.39.36-.27l2.01,1.17c.2.11.36.42.36.69h0c0,.26-.16.39-.36.27Z"/>
          <path class="cls-12" d="M32.32,46.65l-2.01-1.17c-.2-.11-.36-.42-.36-.69h0c0-.26.16-.39.36-.27l2.01,1.17c.2.11.36.42.36.69h0c0,.26-.16.39-.36.27Z"/>
          <path class="cls-5" d="M34.74,59.66c.1.03.2.07.31.12v-28.79s-.31,0-.31,0v28.67Z"/>
          <g>
            <path class="cls-2" d="M49.02,37.37c1.35,0,2.58-.28,3.46-.78l15.57-8.99c.89-.51,1.33-1.21,1.23-1.95-.1-.78-.77-1.58-1.84-2.2l-15.78-9.17L29.25,1.55c-1.15-.66-2.62-1.06-4.16-1.13-.14,0-.28,0-.41,0-1.35,0-2.58.28-3.46.78L5.66,10.19c-.89.51-1.33,1.21-1.23,1.95.1.78.77,1.58,1.84,2.2l13.49,7.79,24.7,14.11c1.15.66,2.62,1.06,4.16,1.13.14,0,.28,0,.41,0Z"/>
            <path class="cls-13" d="M24.68.84c.13,0,.26,0,.4,0,1.47.06,2.87.44,3.96,1.07l22.42,12.73,15.77,9.17c.96.55,1.55,1.24,1.64,1.89.09.73-.51,1.24-1.03,1.54l-7.78,4.49-7.78,4.49c-.81.47-1.97.73-3.25.73-.13,0-.26,0-.4,0-1.47-.06-2.87-.44-3.96-1.07l-24.71-14.11-13.48-7.78c-.96-.55-1.55-1.24-1.63-1.89-.09-.73.51-1.24,1.03-1.54l7.78-4.49,7.78-4.49c.81-.47,1.97-.73,3.25-.73M24.68,0c-1.38,0-2.69.28-3.66.84l-7.78,4.49-7.78,4.49c-1.08.62-1.55,1.48-1.44,2.37.11.88.8,1.79,2.04,2.51l13.49,7.79,24.7,14.11c1.24.72,2.82,1.12,4.35,1.18.14,0,.29,0,.43,0,1.38,0,2.69-.28,3.66-.84l7.78-4.49,7.78-4.49c1.08-.62,1.55-1.48,1.44-2.37-.11-.88-.8-1.79-2.04-2.51l-15.78-9.17L29.46,1.19C28.22.47,26.64.07,25.11,0,24.97,0,24.83,0,24.68,0h0Z"/>
          </g>
          <path class="cls-8" d="M72.44,39.63l-2.72-8.52c-.21-.67-.98-.97-1.59-.63l-15.8,8.83c-.55.31-.8.95-.61,1.55l2.85,8.89c.22.7,1.04,1.01,1.68.64l15.59-9.17c.55-.32.8-.98.61-1.59Z"/>
          <g>
            <path class="cls-4" d="M72.57,50.03c1.4-.81,2.53-.15,2.53,1.46s-1.13,3.57-2.53,4.38c-1.4.81-2.53.15-2.53-1.46s1.13-3.57,2.53-4.38Z"/>
            <polygon class="cls-8" points="70.78 56.04 69.89 55.53 69.73 55.42 69.58 55.28 69.46 55.11 69.35 54.92 69.26 54.7 69.2 54.46 69.16 54.19 69.15 53.9 69.16 53.59 69.2 53.28 69.26 52.96 69.35 52.65 69.46 52.33 69.58 52.02 69.73 51.71 69.89 51.41 70.07 51.11 70.27 50.83 70.47 50.57 70.69 50.32 70.93 50.08 71.17 49.87 71.42 49.68 71.68 49.52 71.94 49.38 72.19 49.28 72.43 49.22 72.66 49.18 72.88 49.18 73.09 49.2 73.29 49.26 73.47 49.34 74.35 49.85 74.17 49.77 73.98 49.71 73.77 49.69 73.55 49.69 73.32 49.73 73.07 49.8 72.82 49.9 72.57 50.03 72.31 50.2 72.06 50.38 71.81 50.6 71.58 50.83 71.36 51.08 71.15 51.35 70.96 51.63 70.78 51.92 70.62 52.22 70.47 52.53 70.34 52.84 70.24 53.16 70.15 53.48 70.09 53.79 70.05 54.1 70.04 54.41 70.05 54.7 70.09 54.97 70.15 55.21 70.24 55.43 70.34 55.62 70.47 55.79 70.62 55.93 70.78 56.04"/>
            <path class="cls-2" d="M72.57,50.79c1.03-.6,1.87-.11,1.87,1.08s-.84,2.64-1.87,3.24c-1.03.6-1.87.11-1.87-1.08s.84-2.64,1.87-3.24Z"/>
          </g>
        </g>
      </g>
    </g>
  </g>
</svg>