<?xml version="1.0" encoding="UTF-8"?>
<svg xmlns="http://www.w3.org/2000/svg" xmlns:xlink="http://www.w3.org/1999/xlink" viewBox="0 0 78.64 55.68">
  <defs>
    <style>
      .cls-1 {
        fill: #dbdfe0;
      }

      .cls-2 {
        fill: #2c3847;
      }

      .cls-3 {
        fill: #a00000;
      }

      .cls-4 {
        fill: #d2d2d2;
      }

      .cls-5 {
        fill: #232221;
      }

      .cls-6 {
        fill: url(#linear-gradient-8);
      }

      .cls-7 {
        fill: url(#linear-gradient-7);
      }

      .cls-8 {
        fill: url(#linear-gradient-6);
      }

      .cls-9 {
        fill: url(#linear-gradient-4);
      }

      .cls-10 {
        fill: url(#linear-gradient-3);
      }

      .cls-11 {
        fill: #f5fcf8;
      }

      .cls-12 {
        fill: #343b42;
      }

      .cls-13 {
        fill: #434e5c;
      }

      .cls-14 {
        fill: #b8d3da;
      }

      .cls-15 {
        fill: #2e2711;
      }

      .cls-16 {
        isolation: isolate;
      }

      .cls-17 {
        fill: #2d3847;
      }

      .cls-18 {
        fill: #212a33;
      }

      .cls-19 {
        fill: #d3e8ed;
      }

      .cls-20 {
        fill: url(#linear-gradient-2);
      }

      .cls-20, .cls-21 {
        opacity: .5;
      }

      .cls-21 {
        fill: url(#linear-gradient);
      }

      .cls-22 {
        fill: #69787c;
      }

      .cls-23 {
        fill: #353433;
      }

      .cls-24 {
        fill: #29230f;
      }

      .cls-25 {
        fill: #34383a;
      }

      .cls-26 {
        fill: #4c5761;
      }

      .cls-27 {
        fill: #c32e28;
      }

      .cls-28, .cls-29 {
        mix-blend-mode: screen;
      }

      .cls-28, .cls-30 {
        fill: #3c4142;
      }

      .cls-31 {
        fill: #56626e;
      }

      .cls-29 {
        fill: url(#linear-gradient-5);
        opacity: .3;
      }

      .cls-32 {
        fill: #4e9adf;
      }

      .cls-33 {
        fill: #595757;
      }

      .cls-34 {
        fill: #dcdddd;
        mix-blend-mode: multiply;
      }

      .cls-35 {
        fill: #ffa836;
      }

      .cls-36 {
        fill: #2a6abd;
      }

      .cls-37 {
        fill: #e54327;
      }

      .cls-38 {
        fill: #202b2d;
      }

      .cls-39 {
        fill: #4e5559;
      }
    </style>
    <linearGradient id="linear-gradient" x1="-1194.93" y1="49.86" x2="-1188.43" y2="49.86" gradientTransform="translate(-1159.67) rotate(-180) scale(1 -1)" gradientUnits="userSpaceOnUse">
      <stop offset="0" stop-color="#323232"/>
      <stop offset=".63" stop-color="#201f1d"/>
      <stop offset="1" stop-color="#12100c"/>
    </linearGradient>
    <linearGradient id="linear-gradient-2" x1="-1232.07" y1="29.38" x2="-1225.57" y2="29.38" xlink:href="#linear-gradient"/>
    <linearGradient id="linear-gradient-3" x1="-1416.13" y1="6.57" x2="-1392.58" y2="6.57" gradientTransform="translate(-1349.33) rotate(-180) scale(1 -1)" gradientUnits="userSpaceOnUse">
      <stop offset="0" stop-color="#323538"/>
      <stop offset="1" stop-color="#2b2b2d"/>
    </linearGradient>
    <linearGradient id="linear-gradient-4" x1="-1390.06" y1="22.66" x2="-1366.37" y2="22.66" xlink:href="#linear-gradient-3"/>
    <linearGradient id="linear-gradient-5" x1="1159.34" y1="26.77" x2="1168.25" y2="40.45" gradientTransform="translate(1181.06) rotate(-180) scale(1 -1)" gradientUnits="userSpaceOnUse">
      <stop offset="0" stop-color="#bfe4ff"/>
      <stop offset="1" stop-color="#000"/>
    </linearGradient>
    <linearGradient id="linear-gradient-6" x1="1124.83" y1="3.3" x2="1149.08" y2="15.99" gradientTransform="translate(1181.06) rotate(-180) scale(1 -1)" gradientUnits="userSpaceOnUse">
      <stop offset="0" stop-color="#d5d5d5"/>
      <stop offset=".26" stop-color="#dce0e4"/>
      <stop offset=".7" stop-color="#e5eff7"/>
      <stop offset="1" stop-color="#e9f5ff"/>
    </linearGradient>
    <linearGradient id="linear-gradient-7" x1="1123.2" y1="33.08" x2="1134.3" y2="19.28" gradientTransform="translate(1181.06) rotate(-180) scale(1 -1)" gradientUnits="userSpaceOnUse">
      <stop offset="0" stop-color="#d3d3d3"/>
      <stop offset=".29" stop-color="#dbe0e4"/>
      <stop offset=".71" stop-color="#e5eff7"/>
      <stop offset="1" stop-color="#e9f5ff"/>
    </linearGradient>
    <linearGradient id="linear-gradient-8" x1="-1415.08" y1="22.69" x2="-1386.64" y2="22.69" xlink:href="#linear-gradient-3"/>
  </defs>
  <g class="cls-16">
    <g id="Layer_2" data-name="Layer 2">
      <g id="car_E1">
        <g>
          <path class="cls-39" d="M16.66,18.89c-.3-.4-2.2-2.14-2.43-1.95-.5.41-.26,2.29.18,3.06.41.7,2.23,2.62,2.3,2.39.15-.43.31-3.02-.06-3.5Z"/>
          <path class="cls-24" d="M72.64,22.69c.87.5,1.44,1.54,1.53,3.01l-22.67-13.17c-.1-1.47-.67-2.5-1.53-3l22.67,13.17Z"/>
          <path class="cls-15" d="M36.47,42.76c.89.52.99,3.56.43,5l-5.11-2.97-17.56-11.89c-.07-1.53-.65-2.6-1.54-3.12l23.78,12.98Z"/>
          <g>
            <g class="cls-16">
              <path class="cls-5" d="M25.78,47.63c.44-1,1.05-1.95,1.75-2.76.6-.68,1.27-1.26,1.98-1.67,1.26-.73,2.4-.79,3.22-.32l2.49,1.45c-.82-.48-1.96-.41-3.22.32-.71.41-1.38.99-1.98,1.67-.71.81-1.31,1.76-1.75,2.76-.5,1.12-.79,2.3-.78,3.39,0,1.43.51,2.43,1.32,2.91l-2.49-1.45c-.81-.47-1.32-1.48-1.32-2.91,0-1.09.29-2.27.78-3.39Z"/>
              <path class="cls-23" d="M32,44.66c2.5-1.44,4.54-.29,4.54,2.58,0,2.88-2.01,6.38-4.51,7.82-2.5,1.44-4.54.29-4.54-2.59,0-2.87,2.01-6.37,4.51-7.81Z"/>
            </g>
            <path class="cls-21" d="M32.01,46.12c1.8-1.04,3.26-.2,3.26,1.86,0,2.06-1.44,4.57-3.24,5.61-1.79,1.04-3.26.2-3.26-1.86,0-2.06,1.44-4.57,3.24-5.61Z"/>
            <path class="cls-1" d="M32.01,47.27c1.24-.75,2.28-.2,2.31,1.24.03,1.44-.95,3.21-2.2,3.96-1.25.75-2.28.2-2.31-1.24-.03-1.44.95-3.21,2.2-3.96Z"/>
          </g>
          <g>
            <g class="cls-16">
              <path class="cls-5" d="M62.91,27.15c.44-1,1.05-1.95,1.75-2.76.6-.68,1.27-1.26,1.98-1.67,1.26-.73,2.4-.79,3.22-.32l2.49,1.45c-.82-.48-1.96-.41-3.22.32-.71.41-1.38.99-1.98,1.67-.71.81-1.31,1.76-1.75,2.76-.5,1.12-.79,2.3-.78,3.39,0,1.43.51,2.43,1.32,2.91l-2.49-1.45c-.81-.47-1.32-1.48-1.32-2.91,0-1.09.29-2.27.78-3.39Z"/>
              <path class="cls-23" d="M69.13,24.17c2.5-1.44,4.54-.29,4.54,2.58,0,2.88-2.01,6.38-4.51,7.82-2.5,1.44-4.54.29-4.54-2.59,0-2.87,2.01-6.37,4.51-7.81Z"/>
            </g>
            <path class="cls-20" d="M69.14,25.64c1.8-1.04,3.26-.2,3.26,1.86,0,2.06-1.44,4.57-3.24,5.61-1.79,1.04-3.26.2-3.26-1.86,0-2.06,1.44-4.57,3.24-5.61Z"/>
            <path class="cls-1" d="M69.14,26.79c1.24-.75,2.28-.2,2.31,1.24.03,1.44-.95,3.21-2.2,3.96-1.25.75-2.28.2-2.31-1.24-.03-1.44.95-3.21,2.2-3.96Z"/>
          </g>
          <path class="cls-26" d="M41.79,40.46l17.55-10.35,4.03.71s.44,1.19.65,1.87l-26.97,15.38-.17-2.24,4.92-5.37Z"/>
          <path class="cls-12" d="M.05,41.49c.63,2.62,4.32,5.68,10.05,8.68,4.97,2.6,12.18,4.73,16.47,2.31.16-3.16,2.27-6.85,4.94-8.5.06-.04.12-.07.17-.1,2.74-1.58,5.01-.95,5.16,2.19l26.44-15.01c.15-3.17,2.29-6.05,4.96-7.7.06-.04.11-.07.17-.1,2.7-1.56,5.51-.67,5.71,2.38,0,0,3.11-2.02,4.1-3.81.34-.61.63-4.43.22-4.98-.18-.25-1.83-1.46-1.83-1.46,0,0,.15-4.98-2.27-6.66C67.96,4.27,59.61.35,57.86.52c-4.41.41-4.61,2.55-5.86,2.86-1.08.26-7.94-1.84-11-.07l-14.44,8.33c-2.56,1.48-10.5,9.48-10.66,9.68l-8.47,6.34c-.7.53-3.86.97-4.45,1.64-1.41,1.6-1.66,4.77-2.11,6.28-.11.36-.72.44-.72,1.18,0,.66-.27,4.06-.11,4.75Z"/>
          <path class="cls-28" d="M.21,36.73c-.17-.45.54-.95.54-.97,3.24,6.55,14.6,12.09,21.51,12.29.65.02,2.81-.13,2.81-.1,0,0-.78.48-2.8.55-9.56.32-20.5-7.8-22.06-11.77Z"/>
          <path class="cls-3" d="M75.88,11.13c-.1.36-.48,1.45-.57,2-.11.69-.45,3.62-.25,3.77.18.15,1.45-2.02,1.46-2.36.02-.84-.38-3.45-.63-3.41Z"/>
          <path class="cls-11" d="M21.47,46.44c-1.74.64-5.11-.48-6.93-1.16-1.39-.52-1.66-2.64.57-2.46,3.49.29,6.64.25,7.04.24,2.2-.05,1.98,2.4-.68,3.38Z"/>
          <path class="cls-35" d="M22.14,43.06c2.2-.05,2,2.42-.65,3.4-.12.05-.4.15-.54.18.81-1.3,1.11-3.59,1.19-3.59Z"/>
          <path class="cls-11" d="M.78,35.1c.25.4,1.33,1.64,1.87,1.92,1.31.7,2.82-.62,1.47-2.04-.67-.71-1.9-2.15-2.31-3.45-.94,1.66-1.18,3.32-1.03,3.57Z"/>
          <path class="cls-33" d="M5.01,36.32c3.74,3.7,8.89,4.97,8.5,5.59-.26.4-1.88,1.81-1.9,1.81-1.56-.31-6.83-3.7-6.86-4.37-.08-1.42.11-2.67.16-3.02,0-.05.06-.05.09-.02Z"/>
          <path class="cls-30" d="M71.44,21.36c2.78-2.42,4.69-4.28,5.14-4.93v-1.14s1.04.76,1.22,1.01h0c-2.53,2.92-6.37,5.06-6.37,5.06Z"/>
          <path class="cls-31" d="M2.72,31.95c1.95,2.99,8.05,9.94,18.38,9.96,1.48,0,5.59-1.8,7.85-3.18,2.58-1.57,3.27-1.73,4.86-4.03,2.8-4.06,6.22-11.55,7.4-13.21,1.32-1.86,14.47-9.24,16.64-9.68,2.37-.49,8.24-.43,11.01-.48,2.99-.05,2.99-.35,5.48-2.03.22-.15.23-.47.02-.63C68.11,4.21,59.71-.15,58.01,0c-4.41.41-6.64,1.95-7.03,1.9-.43-.05-6.77-.52-9.83,1.24l-14.44,8.33c-2.56,1.48-10.5,9.48-10.66,9.68l-10.66,6.1c-.7.53-1.43.89-2.02,1.56-.74.84-.6,1.14-.76,1.8-.12.47-.15.92.11,1.33Z"/>
          <path class="cls-10" d="M43.25,2.51c3.41.71,9.32,4.3,13.56,8.29.17.16.39.25.62.24l9.22-.06c.11,0,.18-.12.13-.21-.84-1.59-12.22-7.94-16.73-8.64-.11-.02-.22-.02-.33-.02-.78,0-4.08.01-6.47.41Z"/>
          <path class="cls-25" d="M19.97,51.29l-.05.56c-.01.14-.13.25-.27.24-1.04-.06-3.19-.44-4.07-.76-.11-.04-.18-.15-.17-.27l.05-.59c.01-.17.18-.27.34-.22,1.76.55,3.18.69,3.94.77.14.01.24.14.23.28Z"/>
          <path class="cls-25" d="M.65,40.56c.05.08.08.16.07.25-.01.41,0,.92,0,1.04-.16-.17-.56-.73-.69-1.23-.04-.42.03-.87.03-1.28.16.5.4.92.58,1.22Z"/>
          <path class="cls-25" d="M2.12,42.13c2.81,2.92,7.05,5.32,11.05,6.96.07.03.11.09.11.17v.99c0,.11-.1.21-.21.18-1.72-.36-9.72-4.9-11.16-6.94-.07-.11-.11-.24-.11-.37v-.86c0-.17.2-.24.31-.13Z"/>
          <path class="cls-4" d="M10.04,47.47v1c-.61-.2-5.6-3.11-6.09-3.72v-.97c1.83,1.41,3.94,2.65,6.09,3.69Z"/>
          <path class="cls-38" d="M40.25,32.88l-1.36.07c-.64.03-1.27-.09-1.84-.36h0c.26-.64.51-1.28.78-1.91l1.65.74.78,1.47Z"/>
          <path class="cls-9" d="M25.82,12.8c.66.64,5.71,5.35,14.83,8.65.08.03.11.12.07.19l-5.54,10.16c-.35.64-1.09.86-1.79.67-2.52-.68-8.71-2.83-14.7-8.15-.92-.82-2.28-2.8-1.31-3.77,2.94-2.96,5.54-5.42,8.29-7.75.05-.04.11-.04.16,0Z"/>
          <path class="cls-29" d="M18.33,23.98c1.77,1.75,5.1,4.48,10.57,6.93-2.75,1.13-10.92,4.97-16.37,9.19-1.88-.68-4.42-2.47-6.52-4.28,2.43-4.36,7.4-8.31,12.33-11.84Z"/>
          <path class="cls-8" d="M27.57,14.04s1.21-1.18,1.57-1.46c2.84-2.24,9.54-5.96,14.96-8.43.65-.29,2.12-.47,2.42-.46.63.27.97.48,1.83.92s1.88,1.19,2.88,1.83c1,.64,2.65,1.95,3.73,2.78,0,0-1.32-.08-2.08.27-5.43,2.46-12.12,6.19-14.96,8.43-.36.28-1.57,1.46-1.57,1.46-.87-.4-1.72-.82-2.49-1.23-2.57-1.36-4.57-2.75-5.91-3.78-.17-.13-.4-.34-.37-.32Z"/>
          <g>
            <g class="cls-16">
              <polygon class="cls-2" points="47.19 15.46 47.19 16.07 34.15 8.48 34.14 7.87 47.19 15.46"/>
              <polygon class="cls-18" points="49.76 13.98 49.76 14.59 47.19 16.07 47.19 15.46 49.76 13.98"/>
              <polygon class="cls-13" points="34.14 7.87 47.19 15.46 49.76 13.98 36.72 6.39 34.14 7.87"/>
            </g>
            <g class="cls-16">
              <g class="cls-16">
                <g class="cls-16">
                  <path class="cls-37" d="M35.58,6.44c.76-.44,1.4-.65,1.59-.54l5.03,2.9c-.19-.11-.83.1-1.59.54-.62.36-1.15.77-1.43,1.09l-5.03-2.9c.28-.32.82-.73,1.43-1.09Z"/>
                  <path class="cls-37" d="M39.18,10.43l-5.03-2.9c-.08.1-.15.18-.18.26l5.03,2.9c.03-.07.09-.16.18-.26h0Z"/>
                  <path class="cls-37" d="M39,10.69l-5.03-2.9s-.03.08-.03.11c0,.05.02.08.06.1l5.03,2.9s-.06-.06-.06-.1c0-.03.01-.07.03-.11h0Z"/>
                </g>
              </g>
              <path class="cls-27" d="M40.61,9.34c-.91.52-1.64,1.18-1.64,1.46,0,.28.74.09,1.64-.44.91-.52,1.64-1.18,1.64-1.46,0-.28-.74-.09-1.64.44Z"/>
            </g>
            <g class="cls-16">
              <polygon class="cls-14" points="42.6 10.53 40.04 9.04 39.4 10.93 41.95 12.41 42.6 10.53"/>
              <polygon class="cls-19" points="43.88 9.78 41.33 8.3 40.04 9.04 42.6 10.53 43.88 9.78"/>
              <polygon class="cls-22" points="42.6 10.53 41.95 12.41 44.54 10.92 43.88 9.78 42.6 10.53"/>
            </g>
            <g class="cls-16">
              <g class="cls-16">
                <g class="cls-16">
                  <path class="cls-32" d="M43.25,10.86c.76-.44,1.4-.65,1.59-.54l5.03,2.9c-.19-.11-.83.1-1.59.54-.62.36-1.15.77-1.43,1.09l-5.03-2.9c.28-.32.82-.73,1.43-1.09Z"/>
                  <path class="cls-32" d="M46.85,14.85l-5.03-2.9c-.08.1-.15.18-.18.26l5.03,2.9c.03-.07.09-.16.18-.26h0Z"/>
                  <path class="cls-32" d="M46.67,15.11l-5.03-2.9s-.03.08-.03.11c0,.05.02.08.06.1l5.03,2.9s-.06-.05-.06-.1c0-.03.01-.07.03-.11h0Z"/>
                </g>
              </g>
              <path class="cls-36" d="M48.28,13.76c-.91.52-1.64,1.18-1.64,1.46s.74.09,1.64-.44c.91-.52,1.64-1.18,1.64-1.46,0-.28-.74-.09-1.64.44Z"/>
            </g>
          </g>
          <path class="cls-7" d="M37.67,31.9c.39-.65,4.93-10.06,5.59-10.77.45-.47,4.99-3.19,8.78-5.42,2.29-1.34,5.33-2.89,6.12-3.05,2.31-.47,7.37-.64,10.07-.68.56,0,1.06-.06,1.54-.14l-2.38,12.07c-2.18,1.79-4.14,4.36-4.27,7.09l-24.57,14.11-1.08-9.75c-.14-.94-.12-1.89.08-2.82l.13-.64Z"/>
          <path class="cls-38" d="M37.38,32.61s-.08.03-.13.01c-.09-.03-.13-.12-.11-.21.25-.8.58-1.52.9-2.27.32-.74.65-1.47.99-2.2.68-1.46,1.37-2.91,2.1-4.35l.56-1.07c.2-.35.37-.72.63-1.05.26-.33.57-.62.92-.84.36-.22.7-.41,1.05-.61l4.19-2.4,4.19-2.4,2.09-1.2c.69-.41,1.45-.75,2.25-.95,1.58-.41,3.29-.32,4.82.27.75.29,1.48.69,2.17,1.11.68.44,1.37.91,1.87,1.61h0c.04.09.02.19-.06.23h0s-14.2,8.19-14.2,8.19l-14.23,8.13h0ZM51.43,24.12l14.23-8.13-.06.24h0c-.42-.63-1.09-1.11-1.74-1.54-.68-.43-1.37-.81-2.12-1.1-1.47-.57-3.13-.68-4.66-.29-.77.19-1.5.5-2.19.91l-2.09,1.21-4.18,2.42-4.18,2.42c-.34.2-.71.4-1.03.61-.32.21-.61.48-.85.78-.24.3-.41.66-.6,1.02l-.55,1.07c-.72,1.43-1.41,2.89-2.08,4.35-.34.73-.66,1.46-.98,2.2-.25.59-.51,1.2-.72,1.8l13.8-7.96Z"/>
          <path class="cls-31" d="M49.61,30.05l1.85-1.07c.19-.11.35-.36.35-.56h0c0-.19-.16-.26-.35-.15l-1.85,1.07c-.19.11-.35.36-.35.56h0c0,.19.16.26.35.15Z"/>
          <path class="cls-31" d="M62.95,22.35l1.85-1.07c.19-.11.35-.36.35-.56h0c0-.19-.16-.26-.35-.15l-1.85,1.07c-.19.11-.35.36-.35.56h0c0,.19.16.26.35.15Z"/>
          <path class="cls-6" d="M37.31,32.46l28.43-16.32c-.55-.83-1.9-1.73-3.38-2.44-2.33-1.12-5.06-1-7.3.28-3.56,2.04-9.45,5.45-11.54,6.65-.57.33-1.04.8-1.37,1.38-1.44,2.56-4.55,9.29-4.84,10.45Z"/>
          <polygon class="cls-38" points="48.77 17.68 50.25 16.85 52.55 23.62 51.08 24.49 48.77 17.68"/>
          <polygon class="cls-38" points="60.27 13.03 60.95 13.12 62.59 17.96 62.05 18.28 60.27 13.03"/>
          <path class="cls-34" d="M66.48,24.53v-6.58l-.87-1.72.24-.12.88,1.75v6.4c-.08.09-.17.18-.26.27ZM37.45,32.3c-.02.08-.55,2.05-.38,3.06.17.97,1.32,9.62,1.33,9.71l.03.2.18-.1,24.69-14.23c.02-.12.03-.23.05-.35l-10.15,5.85v-9.19s-1.7-3.36-1.7-3.36l-.24.12,1.67,3.33v9.25l-14.28,8.23c-.18-1.31-1.15-8.62-1.3-9.52-.16-.95.37-2.92.37-2.94l-.26-.07Z"/>
          <path class="cls-39" d="M38.21,30.55c.52-.03,4.38,1.22,4.33,1.67-.09.87-1.46,2.02-2.28,2.19-.79.16-4.08-.89-4.1-1.19-.03-.58,1.05-2.61,2.04-2.67Z"/>
          <g>
            <path class="cls-17" d="M43.97,35.77c.21.11.31.37.31.79s-.11.84-.34,1.21c-.23.38-.57.7-1.04.97l-.63.37v1.59s-1.15.67-1.15.67v-4.29s1.9-1.1,1.9-1.1c.42-.24.73-.3.94-.2ZM43.02,37.67c.09-.14.13-.28.13-.42s-.04-.23-.12-.27c-.08-.05-.22-.02-.44.11l-.33.19v.96s.29-.16.29-.16c.22-.13.38-.26.47-.4"/>
            <path class="cls-17" d="M48.1,33.55c.34.19.5.63.51,1.32,0,.5-.07.95-.21,1.36-.15.41-.36.78-.64,1.12-.28.34-.62.63-1.04.87s-.77.37-1.04.37-.5-.11-.67-.34c-.17-.24-.26-.6-.26-1.1,0-.7.17-1.34.5-1.93.34-.59.81-1.05,1.42-1.4s1.1-.44,1.44-.25ZM47.25,36.62c.13-.26.2-.63.2-1.12,0-.4-.07-.65-.22-.76-.15-.1-.33-.09-.58.06-.23.13-.41.33-.56.61-.14.27-.21.62-.21,1.06s.07.7.21.81c.14.11.33.09.57-.05.25-.14.44-.34.58-.61"/>
            <polygon class="cls-17" points="50.37 31.73 50.38 34.96 52.18 33.92 52.18 34.98 49.23 36.68 49.22 32.39 50.37 31.73"/>
            <polygon class="cls-17" points="53.9 29.69 53.91 33.98 52.75 34.65 52.74 30.36 53.9 29.69"/>
            <path class="cls-17" d="M56.47,28.13c.47-.27.84-.37,1.11-.31.27.06.47.28.6.66l-1.02.85c-.03-.11-.07-.19-.11-.22-.06-.07-.15-.1-.24-.1-.09,0-.2.04-.31.1-.26.15-.46.38-.6.71-.11.24-.16.55-.16.94,0,.48.07.76.19.87.13.11.3.09.53-.04s.39-.3.5-.5c.12-.21.2-.46.24-.76l1.01-.23c-.07.36-.17.69-.32,1-.14.3-.33.57-.54.81-.21.23-.49.45-.83.64-.41.23-.73.36-.99.37-.26.02-.48-.09-.67-.33-.19-.24-.28-.62-.28-1.15,0-.71.16-1.35.49-1.92.33-.57.79-1.03,1.39-1.37Z"/>
            <polygon class="cls-17" points="61.86 25.09 61.87 26.01 59.93 27.12 59.94 27.81 61.73 26.77 61.73 27.64 59.94 28.68 59.94 29.53 61.93 28.38 61.93 29.35 58.79 31.16 58.78 26.87 61.86 25.09"/>
          </g>
        </g>
      </g>
    </g>
  </g>
</svg>