<?xml version="1.0" encoding="UTF-8"?>
<svg xmlns="http://www.w3.org/2000/svg" xmlns:xlink="http://www.w3.org/1999/xlink" viewBox="0 0 77.98 51.97">
  <defs>
    <style>
      .cls-1 {
        fill: #dbdfe0;
      }

      .cls-2 {
        fill: #a00000;
      }

      .cls-3 {
        fill: #727171;
      }

      .cls-4 {
        fill: #d0ab3a;
      }

      .cls-5 {
        fill: #b99e4a;
        mix-blend-mode: multiply;
        opacity: .4;
      }

      .cls-6 {
        fill: #232221;
      }

      .cls-7 {
        fill: url(#linear-gradient-8);
      }

      .cls-8 {
        fill: url(#linear-gradient-7);
      }

      .cls-9 {
        fill: url(#linear-gradient-5);
      }

      .cls-10 {
        fill: url(#linear-gradient-6);
      }

      .cls-11 {
        fill: url(#linear-gradient-4);
      }

      .cls-12 {
        fill: #cde8e8;
      }

      .cls-13 {
        fill: #9fa0a0;
      }

      .cls-14 {
        fill: url(#linear-gradient);
      }

      .cls-15 {
        fill: #eec753;
      }

      .cls-16 {
        isolation: isolate;
      }

      .cls-17 {
        fill: #b79c43;
        opacity: .6;
      }

      .cls-18 {
        fill: url(#linear-gradient-2);
      }

      .cls-18, .cls-19 {
        opacity: .5;
      }

      .cls-19 {
        fill: url(#linear-gradient-3);
      }

      .cls-20 {
        fill: #353433;
      }

      .cls-21 {
        fill: #597139;
      }

      .cls-22 {
        opacity: .3;
      }

      .cls-23 {
        fill: #262523;
      }

      .cls-24 {
        fill: #151b1c;
      }

      .cls-25 {
        fill: #ffa836;
      }

      .cls-26 {
        fill: #b5e9ff;
      }
    </style>
    <linearGradient id="linear-gradient" x1="-2105.59" y1="129.18" x2="-2105.59" y2="133.24" gradientTransform="translate(-2064.55 185.92) rotate(171.52) scale(1 -1)" gradientUnits="userSpaceOnUse">
      <stop offset="0" stop-color="#e4c75d"/>
      <stop offset="1" stop-color="#d6b855"/>
    </linearGradient>
    <linearGradient id="linear-gradient-2" x1="-1460.72" y1="45.15" x2="-1453.99" y2="45.15" gradientTransform="translate(-1424.58) rotate(-180) scale(1 -1)" gradientUnits="userSpaceOnUse">
      <stop offset="0" stop-color="#323232"/>
      <stop offset=".63" stop-color="#201f1d"/>
      <stop offset="1" stop-color="#12100c"/>
    </linearGradient>
    <linearGradient id="linear-gradient-3" x1="-1498.19" y1="24.22" x2="-1491.46" y2="24.22" xlink:href="#linear-gradient-2"/>
    <linearGradient id="linear-gradient-4" x1="-1928.81" y1="34.05" x2="-1929.67" y2="35.56" gradientTransform="translate(-1878.28) rotate(-180) scale(1 -1)" gradientUnits="userSpaceOnUse">
      <stop offset=".13" stop-color="#d0ab3a"/>
      <stop offset=".17" stop-color="#d9b74f"/>
    </linearGradient>
    <linearGradient id="linear-gradient-5" x1="-1936.5" y1="23.49" x2="-1908.96" y2="23.49" gradientTransform="translate(-1878.28) rotate(-180) scale(1 -1)" gradientUnits="userSpaceOnUse">
      <stop offset="0" stop-color="#323538"/>
      <stop offset="1" stop-color="#2b2b2d"/>
    </linearGradient>
    <linearGradient id="linear-gradient-6" x1="-1935.95" y1="9.58" x2="-1910.58" y2="9.58" xlink:href="#linear-gradient-5"/>
    <linearGradient id="linear-gradient-7" x1="-1909.17" y1="23.14" x2="-1888.38" y2="23.14" xlink:href="#linear-gradient-5"/>
    <linearGradient id="linear-gradient-8" x1="-1828.34" y1="-37.86" x2="-1828.34" y2="-32.28" gradientTransform="translate(-1764.69 -92.38) rotate(-175.4) scale(1 -1)" xlink:href="#linear-gradient"/>
  </defs>
  <g class="cls-16">
    <g id="Layer_2" data-name="Layer 2">
      <g id="car_B4">
        <g>
          <g>
            <path class="cls-14" d="M35.2,2.64c.36-.24,4.34.93,4.35,1.33.02.76-1.25,1.66-1.53,1.7-.7.11-2.17-.77-2.35-.93-.26-.22-.91-1.12-.87-1.66,0-.14.33-.4.41-.45Z"/>
            <path class="cls-13" d="M34.9,2.91c.35-.23,4.24.95,4.25,1.35.02.74-.89,1.39-1.17,1.43-.7.1-2.44-.55-2.61-.7-.33-.28-.82-1.84-.46-2.08Z"/>
            <path class="cls-26" d="M37.95,5.52c.17-.03,1.01-.59.99-1.24-.23-.32-3.52-1.34-3.96-1.22,0,0-.03.04-.04.18-.02.53.34,1.46.54,1.63.15.12,1.84.75,2.48.65Z"/>
          </g>
          <g>
            <path class="cls-23" d="M73.78,15.8l1.09.98c.88.51,1.43,4.82.73,5.99l-12.21-8.93c-.09-1.47-8.62-7.75-9.5-8.26l19.89,10.22Z"/>
            <path class="cls-23" d="M38.63,36.75s-.18,6.95-.82,7.87l-5.89-3.44-12.97-7.93c-.08-1.48-1.27-2.85-2.15-3.36l21.81,6.86Z"/>
          </g>
          <g>
            <g class="cls-16">
              <path class="cls-6" d="M26.31,42.85c.46-1.03,1.08-2.02,1.82-2.85.62-.7,1.31-1.3,2.05-1.72,1.3-.75,2.49-.82,3.34-.33l2.58,1.5c-.85-.5-2.03-.43-3.34.33-.74.43-1.43,1.02-2.05,1.73-.73.84-1.36,1.82-1.81,2.85-.51,1.16-.81,2.38-.81,3.51,0,1.48.53,2.52,1.37,3.01l-2.58-1.5c-.84-.49-1.36-1.53-1.37-3.01,0-1.13.3-2.35.81-3.51Z"/>
              <path class="cls-20" d="M32.75,39.77c2.59-1.5,4.7-.3,4.71,2.68,0,2.98-2.08,6.6-4.67,8.1-2.59,1.5-4.7.3-4.71-2.68,0-2.97,2.08-6.6,4.67-8.09Z"/>
            </g>
            <path class="cls-18" d="M32.76,41.29c1.86-1.07,3.37-.21,3.38,1.92,0,2.14-1.5,4.74-3.35,5.81-1.86,1.07-3.37.21-3.38-1.92,0-2.13,1.5-4.73,3.35-5.81Z"/>
            <path class="cls-1" d="M30.34,46.27c.03,1.45,1.08,2.01,2.34,1.25s2.25-2.55,2.22-4c-.03-1.45-1.08-2.01-2.34-1.25-1.26.76-2.25,2.55-2.22,4Z"/>
          </g>
          <g>
            <g class="cls-16">
              <path class="cls-6" d="M63.78,21.92c.46-1.03,1.08-2.02,1.82-2.85.62-.7,1.31-1.3,2.05-1.72,1.3-.75,2.49-.82,3.34-.33l2.58,1.5c-.85-.5-2.03-.43-3.34.33-.74.43-1.43,1.02-2.05,1.73-.73.84-1.36,1.82-1.81,2.85-.51,1.16-.81,2.38-.81,3.51,0,1.48.53,2.52,1.37,3.01l-2.58-1.5c-.84-.49-1.36-1.53-1.37-3.01,0-1.13.3-2.35.81-3.51Z"/>
              <path class="cls-20" d="M70.22,18.84c2.59-1.5,4.7-.3,4.71,2.68,0,2.98-2.08,6.6-4.67,8.1-2.59,1.5-4.7.3-4.71-2.68,0-2.97,2.08-6.6,4.67-8.09Z"/>
            </g>
            <path class="cls-19" d="M70.23,20.36c1.86-1.07,3.37-.21,3.38,1.92,0,2.14-1.5,4.74-3.35,5.81-1.86,1.07-3.37.21-3.38-1.92,0-2.13,1.5-4.73,3.35-5.81Z"/>
            <path class="cls-1" d="M67.81,25.34c.03,1.45,1.08,2.01,2.34,1.25s2.25-2.55,2.22-4c-.03-1.45-1.08-2.01-2.34-1.25-1.26.76-2.25,2.55-2.22,4Z"/>
          </g>
          <path class="cls-11" d="M42.35,35.69l16.73-9.86,5.52.03s.1,2.47.29,3.12l-27.08,15.67v-3.39l4.54-5.56Z"/>
          <path class="cls-4" d="M0,36.57l.06,3.15c-.19,1.58,12.96,10,18.52,11.94.66.23,2.19.45,2.84.18,2.6-.46,5.42-2.2,5.42-2.2,0-6.03,3.13-9.49,5.83-11.05.06-.03.11-.06.17-.09,2.68-1.44,4.81-.18,4.98,2.8l26.81-15.42c.13-3.31,2.39-7.15,5.13-8.73.06-.03.11-.07.17-.1,5.69-2.63,5.69,5.7,5.69,5.7,0,0,.55-.38,1.14-.91.79-.71,1.25-1.72,1.23-2.78-.03-1.96-.41-5.23-.41-5.23,0,0-1.16-1.18-1.21-1.18-.62-2.12-1.9-4.02-3.69-5.38-5.01-3.81-13.4-6.8-13.4-6.8-5.79-1.98-17.23,2.7-19.22,3.56-.21.09-4.85.38-6.86.68-.77.11-1.5.38-2.17.76l-12.52,7.22c-.49.28-.93.62-1.32,1.01-2.29,2.29-8.64,9.13-8.64,9.13l-5.05,3.75c-.55.4-.9,1.02-.98,1.7-.22,2.14-1.2,6.57-1.2,6.57,0,0-1.3.85-1.3,1.7Z"/>
          <g class="cls-22">
            <path class="cls-5" d="M44.75,24.27l.24-.16,1.21,3.27v9.04l13.86-8.05c.05-.42-.27-6.7-.35-8.1-.06-1.14-1.09-3.94-1.09-3.94l.34-.09c.02.06,1.04,3.09,1.09,3.86.1,1.48.38,8.45.38,8.45l-14.5,8.36v-9.32s-1.18-3.32-1.18-3.32Z"/>
          </g>
          <path class="cls-17" d="M30.96,22.43c2.77-1.92,14.01-8.1,15.84-9.23.18-.11.43-.13.71-.14.08.09.19.16.3.22-.38,0-.72.02-.96.18-1.44.94-15.08,8.48-15.68,9.12-.16.17-.3.36-.42.53-.06-.05-.11-.1-.18-.13.13-.24.24-.45.39-.55ZM17,15.09c.56-1.4,12.82-8.52,14.86-9.38.18-.08,1.09-.31,1.97-.51-.04-.04-.06-.1-.09-.15-.85.19-1.85.43-2.12.56-3,1.5-13.85,7.73-14.78,9.41-.12.22.14.12.17.06Z"/>
          <path class="cls-15" d="M72.67,7.29h-.01c-5.01-3.82-13.4-6.81-13.4-6.81-5.79-1.98-17.23,2.7-19.22,3.56-.21.09-4.85.38-6.86.68-.77.11-1.5.38-2.17.76l-12.52,7.22c-.48.27-.91.61-1.3.99-2.27,2.27-8.66,9.15-8.66,9.15l-5.08,3.72c-.35.26-.61.61-.78,1,.98,2.26,9.69,8.43,15.36,10.57.95.36,2.01.36,2.95-.05,2.55-1.11,2.9-2.24,4.22-4.32.8-1.09,4.04-6.63,5.75-9.58.38-.65.9-1.19,1.54-1.59,3.01-1.89,12.22-7.26,14.54-8.57.24-.13.51-.19.78-.17,1.54.14,7.07.66,11.3,1.18,2.32.28,5.11.71,8.48-1.04,2.16-1.12,6.96-4.41,5.1-6.72Z"/>
          <path class="cls-9" d="M58.21,16.3l-27.54,15.86c0-2.89,1.94-8.56,4.3-10.07,2.99-1.92,9.41-5.67,11.8-7.06.29-.17.61-.23.94-.19,2.09.26,10.01,1.26,10.49,1.46Z"/>
          <path class="cls-10" d="M40.35,4.6c2.13.42,10.1,2.49,17.31,9.97l-11.13-1.2c-8.47-6.69-14.24-8.16-14.24-8.16,1.78-.29,7.79-.66,8.06-.61Z"/>
          <path class="cls-8" d="M23.98,31.46c-4.13-1.13-10.87-4.15-13.72-8.13-.24-.34-.23-.82.02-1.15,2.21-3,3.96-4.69,6.64-7.41,2.61,2.94,9.9,6.61,13.95,8.03l-4.93,7.91c-.42.66-1.21.96-1.97.76Z"/>
          <path class="cls-24" d="M55.94,16.09l-2.26-.32-4.53-.6-1.13-.15c-.39-.06-.71-.08-1.03.07-.63.36-1.3.77-1.95,1.15l-3.93,2.34-3.93,2.34-1.96,1.17c-.64.38-1.13.95-1.56,1.56-.86,1.23-1.46,2.64-1.94,4.07-.24.72-.43,1.45-.58,2.19-.15.74-.26,1.49-.26,2.23h0s-.27-.16-.27-.16l27.1-15.61c-.56-.11-1.18-.2-1.75-.29ZM58.39,16.21c.05.08.02.19-.06.23h-.02s-27.54,15.87-27.54,15.87h0s-.06.03-.1.03c-.1,0-.18-.09-.17-.19h0c0-.79.13-1.55.29-2.3.16-.75.36-1.49.61-2.22.5-1.45,1.12-2.87,2.01-4.13.45-.63.98-1.22,1.66-1.63l1.96-1.18,3.92-2.35,3.92-2.35c.66-.39,1.29-.78,1.98-1.18.37-.2.85-.16,1.21-.1l1.13.14,4.53.58,2.27.31c.77.12,1.48.19,2.3.39.04.01.08.04.11.08Z"/>
          <path class="cls-15" d="M17.21,47.2c-4.5-1.52-13.93-7.89-17.17-10.87.19-.71,1.1-1.35,1.23-1.44,2.82,4.2,15.75,11.61,18.68,11.61.83,0,6.24-1.16,6.24-1.16,0,0-4.47,1.49-5.73,1.88-1.06.33-2.2.33-3.25-.03Z"/>
          <path class="cls-12" d="M74.4,8.95c0,.07-.06.89-1.47,2.22-.36.34,1.23,2.32,1.68,2.22.44-.1,1.33-1.09,1.42-1.67.12-.78-.92-2.66-1.63-2.78Z"/>
          <path class="cls-25" d="M72.93,11.18c.42-.4.72-.75.93-1.05.29.72,1.2,1.81,1.86,2.27-.32.48-.82.94-1.11,1.01-.45.1-2.03-1.89-1.68-2.22Z"/>
          <path class="cls-1" d="M47.31,27.06l1.77-1.02c.19-.11.34-.34.34-.53h0c0-.19-.15-.25-.34-.14l-1.77,1.02c-.19.11-.34.34-.34.53h0c0,.19.15.25.34.14Z"/>
          <path class="cls-1" d="M33.34,34.3l1.77-1.02c.19-.11.34-.34.34-.53h0c0-.19-.15-.25-.34-.14l-1.77,1.02c-.19.11-.34.34-.34.53h0c0,.19.15.25.34.14Z"/>
          <polygon class="cls-24" points="41.59 18.17 42.95 17.29 45.42 23.67 44.02 24.5 41.59 18.17"/>
          <polygon class="cls-24" points="32.28 25.83 32.66 25.09 34.6 30 34.09 30.3 32.28 25.83"/>
          <g>
            <polygon class="cls-21" points="58.62 .72 58.61 .72 58.61 .72 58.62 .72"/>
            <path class="cls-21" d="M58.62.72h0s-.03,0-.03,0h.04Z"/>
          </g>
          <path class="cls-24" d="M58.53,17.57l-1.1-.59c-.19-.36-.76-.97-1.38-1.22l2.62.21-.13,1.6Z"/>
          <g>
            <path class="cls-7" d="M58.93,15.03c.53-.14,4.56,2.81,4.47,3.29-.17.9-1.74,1.65-2.06,1.63-.84-.07-2.35-1.7-2.52-1.97-.26-.4-.79-1.86-.56-2.55.06-.18.56-.37.68-.4Z"/>
            <path class="cls-3" d="M58.45,15.24c.53-.14,4.56,2.81,4.47,3.29-.17.9-1.31,1.44-1.64,1.41-.84-.07-2.77-1.49-2.95-1.76-.33-.5-.43-2.8.12-2.94Z"/>
            <path class="cls-26" d="M61.3,19.72c.2.02,1.25-.44,1.4-1.23-.15-.45-3.6-2.98-4.2-3.03,0,0-.05.04-.11.22-.21.68-.07,2.08.13,2.38.15.21,2.02,1.6,2.78,1.66Z"/>
          </g>
          <g>
            <path class="cls-2" d="M5.24,32.9c.33.28.58,3.29.03,3.2-.74-.11-2.74-1.81-3.04-2.22-.38-.52-.38-3.73.08-3.76,0,.48,1.96,1.95,2.94,2.78Z"/>
            <path class="cls-2" d="M14.65,39.17c-.22-.1-.49-.05-.65.13-.66.69-1.36,2.23-1,2.54,1.7,1.47,3.92,2.48,5.47,2.64.85.09,2.49-.09,2.71-.94.21-.8.08-1.66-.34-2.54-.15-.32-.42-.55-.77-.51-2.56.3-4.44-.88-5.42-1.31Z"/>
          </g>
          <path class="cls-15" d="M74.62,15.61c1.12-.97,2.06-1.73,1.73-2.94,0,0,1.04.61,1.21,1.18-.9.93-2.94,1.76-2.94,1.76Z"/>
        </g>
      </g>
    </g>
  </g>
</svg>