<?xml version="1.0" encoding="UTF-8"?>
<svg id="Layer_2" data-name="Layer 2" xmlns="http://www.w3.org/2000/svg" viewBox="0 0 96.57 90.6">
  <defs>
    <style>
      .cls-1, .cls-2, .cls-3, .cls-4, .cls-5, .cls-6, .cls-7, .cls-8, .cls-9, .cls-10 {
        fill-rule: evenodd;
      }

      .cls-1, .cls-11 {
        fill: #fff;
      }

      .cls-2, .cls-12 {
        fill: #2e3235;
      }

      .cls-13 {
        fill: #0283c4;
      }

      .cls-3 {
        fill: #61676b;
      }

      .cls-14 {
        isolation: isolate;
      }

      .cls-15, .cls-5 {
        fill: #474c52;
      }

      .cls-4 {
        fill: #5a5f63;
      }

      .cls-16 {
        fill: #231815;
      }

      .cls-17 {
        fill: #dcdddd;
      }

      .cls-18 {
        fill: #005a8e;
      }

      .cls-19 {
        fill: #0071b5;
      }

      .cls-6 {
        fill: #adb1b6;
      }

      .cls-7 {
        fill: #0088db;
      }

      .cls-20 {
        fill: #494949;
      }

      .cls-8 {
        fill: #898989;
      }

      .cls-21 {
        fill: #1c1d1e;
      }

      .cls-9 {
        fill: #d6d9dd;
      }

      .cls-10 {
        fill: #e8e5e0;
      }

      .cls-22 {
        fill: #02a9eb;
      }
    </style>
  </defs>
  <g id="car_D2">
    <g>
      <g>
        <path class="cls-1" d="M95.06,48.76l-.67-.38-.09-.04-.1-.02h-.11s-.11,0-.11,0l-.12.03-.12.04-.12.06-1.49.86-.12.08-.12.09c-.23.21-.36.38-.53.64l-.09.15-.08.16-.07.16-.06.17-.05.17-.04.17-.03.17-.02.17v.17s0,4.01,0,4.01v.16s.02.15.02.15l.03.14.04.12.05.11.06.1.07.08.08.07.09.05.67.38-.09-.05,3.02-8.24.09.04Z"/>
        <path class="cls-7" d="M94.29,48.83l-1.49.86c-.67.39-1.21,1.43-1.21,2.32v4.01c0,.89.55,1.3,1.21.92l1.49-.86c.67-.39,1.21-1.43,1.21-2.32v-4.01c0-.89-.55-1.3-1.21-.92Z"/>
      </g>
      <g>
        <polygon class="cls-2" points="27.97 37.3 2.86 51.8 2.86 54.29 27.97 39.79 27.97 37.3"/>
        <polygon class="cls-5" points="1.71 51.13 2.86 51.8 2.86 54.29 1.71 53.62 1.71 51.13"/>
        <polygon class="cls-4" points="1.71 51.13 2.86 51.8 27.97 37.3 26.82 36.63 1.71 51.13"/>
      </g>
      <polygon class="cls-8" points="8.9 51.87 19.49 51 19.49 51.83 57.21 63.79 57.21 62.96 56.3 79.34 56.3 83.51 8.9 56.05 8.9 51.87"/>
      <g>
        <polygon class="cls-2" points="10.02 51.2 12.17 49.96 12.54 49.79 12.94 49.67 13.37 49.62 13.82 49.63 14.3 49.7 14.8 49.84 15.31 50.05 15.85 50.32 16.11 50.49 16.38 50.66 16.64 50.85 16.89 51.05 17.14 51.26 17.39 51.49 17.63 51.72 17.87 51.96 18.1 52.22 18.32 52.48 18.54 52.75 18.75 53.03 18.95 53.31 19.15 53.6 19.34 53.9 19.52 54.2 19.69 54.51 19.85 54.82 20.01 55.14 20.15 55.46 20.29 55.78 20.41 56.1 20.53 56.43 20.63 56.75 20.73 57.08 20.81 57.4 20.88 57.73 20.94 58.05 20.98 58.38 21.01 58.69 21.03 59.01 21.04 59.32 21.01 59.92 20.94 60.47 20.81 60.97 20.63 61.42 20.41 61.82 20.15 62.17 19.85 62.46 19.52 62.69 18.63 63.2 18.63 63.2 16.01 64.72 8.66 51.99 10.02 51.2"/>
        <path class="cls-5" d="M12.33,52.35c2.87,1.66,5.2,5.69,5.2,9,0,3.31-2.33,4.66-5.2,3-2.87-1.66-5.2-5.69-5.2-9s2.33-4.66,5.2-3Z"/>
        <path class="cls-1" d="M12.33,55.86c-1.19-.69-2.15-.13-2.15,1.24,0,1.37.96,3.04,2.15,3.73,1.19.69,2.15.13,2.15-1.24,0-1.37-.96-3.04-2.15-3.73Z"/>
        <path class="cls-2" d="M12.33,57.14c-.58-.34-1.05-.06-1.05.61,0,.67.47,1.49,1.05,1.82.58.34,1.05.06,1.05-.61,0-.67-.47-1.49-1.05-1.82Z"/>
      </g>
      <polygon class="cls-3" points="46.96 41.15 72.07 26.65 72.07 58.54 46.96 73.04 46.96 41.15"/>
      <polygon class="cls-6" points="46.96 41.15 .98 14.5 .98 48.65 46.96 75.29 46.96 41.15"/>
      <g>
        <g>
          <polygon class="cls-10" points="0 46.95 45.98 73.6 45.98 75.86 0 49.21 0 46.95"/>
          <polygon class="cls-1" points="0 46.95 45.98 73.6 46.96 73.04 .98 46.39 0 46.95"/>
        </g>
        <polygon class="cls-10" points="45.98 75.86 45.98 73.6 46.96 73.04 46.96 75.29 45.98 75.86"/>
      </g>
      <polygon class="cls-9" points=".98 14.5 46.96 41.15 72.07 26.65 26.09 0 .98 14.5"/>
      <polygon class="cls-21" points="77.03 57.44 74.02 61.68 50.26 75.49 53.27 71.25 77.03 57.44"/>
      <g>
        <polygon class="cls-2" points="53.94 74.45 56.08 73.21 56.45 73.04 56.85 72.92 57.28 72.87 57.74 72.88 58.21 72.95 58.71 73.09 59.23 73.3 59.76 73.58 60.03 73.74 60.29 73.91 60.55 74.1 60.81 74.3 61.06 74.51 61.3 74.74 61.55 74.97 61.78 75.22 62.01 75.47 62.24 75.73 62.45 76 62.66 76.28 62.87 76.56 63.06 76.85 63.25 77.15 63.43 77.45 63.61 77.76 63.77 78.07 63.92 78.39 64.07 78.71 64.2 79.03 64.33 79.35 64.44 79.68 64.55 80 64.64 80.33 64.72 80.66 64.79 80.98 64.85 81.31 64.9 81.63 64.93 81.95 64.95 82.26 64.96 82.58 64.93 83.17 64.85 83.72 64.72 84.23 64.55 84.68 64.33 85.07 64.07 85.42 63.77 85.71 63.43 85.94 62.55 86.45 62.55 86.45 59.92 87.97 52.57 75.24 53.94 74.45"/>
        <path class="cls-5" d="M56.25,75.6c2.87,1.66,5.2,5.69,5.2,9,0,3.31-2.33,4.66-5.2,3-2.87-1.66-5.2-5.69-5.2-9s2.33-4.66,5.2-3Z"/>
        <path class="cls-1" d="M56.25,79.12c-1.19-.69-2.15-.13-2.15,1.24,0,1.37.96,3.04,2.15,3.73,1.19.69,2.15.13,2.15-1.24,0-1.37-.96-3.04-2.15-3.73Z"/>
        <path class="cls-2" d="M56.25,80.39c-.58-.34-1.05-.06-1.05.61,0,.67.47,1.49,1.05,1.82.58.34,1.05.06,1.05-.61,0-.67-.47-1.49-1.05-1.82Z"/>
      </g>
      <polygon class="cls-19" points="94.7 56.55 94.65 73.6 70.89 87.41 70.94 70.36 94.7 56.55"/>
      <polygon class="cls-19" points="94.7 56.55 70.94 70.36 62.27 53.84 86.03 40.03 94.7 56.55"/>
      <path class="cls-15" d="M66.02,53.84l18.09-10.51c.74-.43,1.68-.16,2.08.6l6.15,11.73c.37.71.12,1.59-.57,1.99l-18.09,10.51c-.74.43-1.68.16-2.08-.6l-6.15-11.73c-.37-.71-.12-1.59.57-1.99Z"/>
      <polygon class="cls-13" points="86.03 40.03 62.27 53.84 48.31 45.74 72.07 31.93 86.03 40.03"/>
      <polygon class="cls-18" points="62.27 53.84 70.94 70.36 70.89 87.41 64.12 83.5 61.14 75.79 53.27 71.25 50.26 75.49 48.23 74.28 48.31 45.74 62.27 53.84"/>
      <path class="cls-13" d="M54.54,52.5l5.09,2.75c.07.04.12.09.16.16l7.62,14.34c.18.34-.2.71-.53.51l-12.7-7.48c-.12-.07-.19-.19-.19-.33v-9.62c0-.29.31-.48.57-.34Z"/>
      <path class="cls-15" d="M67.42,69.8l-12.6-7.41c-.12-.07-.19-.19-.19-.33v-9.51s5,2.7,5,2.7c.07.04.12.09.16.16l7.62,14.34s0,.03.02.05Z"/>
      <g>
        <polygon class="cls-15" points="38.5 76.45 22.74 67.25 22.74 62.4 38.5 71.6 38.5 76.45"/>
        <polygon class="cls-12" points="38.5 76.45 38.5 71.6 42.82 74.09 38.5 76.45"/>
      </g>
      <g class="cls-14">
        <polygon class="cls-22" points="81.59 41.65 65.75 50.85 54.56 39.66 70.41 30.45 81.59 41.65"/>
        <polygon class="cls-18" points="65.75 50.85 54.55 44.39 54.56 39.66 65.75 50.85"/>
      </g>
      <g>
        <path class="cls-1" d="M67.78,64.5l-.67-.38-.09-.04-.1-.02h-.11s-.11,0-.11,0l-.12.03-.12.04-.12.06-1.49.86-.12.08-.12.09c-.23.21-.36.38-.53.64l-.09.15-.08.16-.07.17-.06.17-.05.17-.04.17-.03.17-.02.17v.17s0,4.01,0,4.01v.16s.02.15.02.15l.03.14.04.12.05.11.06.1.07.08.08.07.09.05.67.38-.09-.05,3.02-8.24.09.04Z"/>
        <path class="cls-7" d="M67.01,64.57l-1.49.86c-.67.39-1.21,1.43-1.21,2.32v4.01c0,.89.55,1.3,1.21.92l1.49-.86c.67-.39,1.21-1.43,1.21-2.32v-4.01c0-.89-.55-1.3-1.21-.92Z"/>
      </g>
      <path class="cls-10" d="M52.44,65.41l-1.91-1.11c-.19-.11-.34-.4-.34-.65h0c0-.25.15-.37.34-.26l1.91,1.11c.19.11.34.4.34.65h0c0,.25-.15.37-.34.26Z"/>
      <path class="cls-2" d="M67.28,84.52v3.81c0,.34.17.66.46.84l1.67,1.05c.79.49,1.78.51,2.59.05l24.01-13.89c.32-.19.53-.53.53-.91l.02-3.96-25.68,14.62-3.61-1.6Z"/>
      <path class="cls-5" d="M67.95,83.61l2.99,1.72,23.8-13.7h-.02s0-.01,0-.01v-1.62s1.41.81,1.41.81c.67.39.58,1.07-.19,1.51l-1.19.69h0s-21.83,12.57-21.83,12.57h0l-.77.45c-.77.44-1.95.49-2.62.11l-1.75-1.01c-.67-.39-.58-1.07.19-1.51Z"/>
      <path class="cls-20" d="M80.4,74.4v2.68c0,.3.33.48.59.34l5.56-3.21c.2-.11.32-.33.32-.55v-2.79c0-.25-.28-.41-.5-.28l-5.64,3.25c-.2.12-.33.34-.33.57Z"/>
      <g class="cls-14">
        <path class="cls-16" d="M93.45,70.1l-.84-.49c0,.19-.13.42-.3.52l.84.49c.17-.1.3-.33.3-.52Z"/>
        <polygon class="cls-16" points="93.44 67.14 92.6 66.66 92.61 69.62 93.45 70.1 93.44 67.14"/>
        <path class="cls-16" d="M93.35,66.95l-.84-.49c.05.03.09.1.09.19l.84.49c0-.1-.03-.16-.09-.19Z"/>
        <path class="cls-11" d="M93.35,66.95l-.84-.49c-.05-.03-.13-.03-.21.02l.84.49c.08-.05.16-.05.21-.02Z"/>
        <path class="cls-15" d="M93.75,66.27l-.84-.49c-.16-.09-.37-.08-.61.06l.84.49c.24-.14.46-.15.61-.06Z"/>
        <polygon class="cls-16" points="93.15 70.62 92.31 70.13 88.51 72.33 89.35 72.82 93.15 70.62"/>
        <path class="cls-16" d="M88.29,72.35l.84.49c.05.03.13.03.22-.02l-.84-.49c-.08.05-.16.05-.22.02Z"/>
        <path class="cls-11" d="M88.29,72.35l.84.49c-.05-.03-.09-.1-.09-.19l-.84-.49c0,.09.03.16.09.19Z"/>
        <path class="cls-15" d="M87.9,73.04l.84.49c-.16-.09-.25-.28-.25-.55l-.84-.49c0,.27.1.46.25.55Z"/>
        <polygon class="cls-11" points="89.04 69.69 88.2 69.2 88.21 72.16 89.05 72.65 89.04 69.69"/>
        <polygon class="cls-11" points="93.14 66.97 92.3 66.49 88.5 68.68 89.34 69.17 93.14 66.97"/>
        <path class="cls-17" d="M89.34,69.17c-.17.1-.3.33-.3.52v2.96c0,.19.14.27.31.17l3.8-2.19c.17-.1.3-.33.3-.52v-2.96c0-.19-.14-.27-.31-.17l-3.8,2.19Z"/>
        <path class="cls-11" d="M89.34,69.17l-.84-.49c-.17.1-.3.33-.3.52l.84.49c0-.19.13-.42.3-.52Z"/>
        <polygon class="cls-15" points="88.48 70.01 87.64 69.52 87.65 72.48 88.48 72.97 88.48 70.01"/>
        <polygon class="cls-15" points="93.14 66.33 92.3 65.84 88.5 68.03 89.34 68.52 93.14 66.33"/>
        <path class="cls-15" d="M89.34,68.52l-.84-.49c-.48.27-.86.94-.86,1.49l.84.49c0-.55.38-1.22.86-1.49Z"/>
        <path class="cls-12" d="M93.14,66.33c.48-.27.86-.05.87.49v2.96c0,.55-.38,1.22-.85,1.49l-3.8,2.19c-.48.27-.86.05-.87-.49v-2.96c0-.55.38-1.22.85-1.49l3.8-2.19ZM89.05,72.65c0,.19.14.27.3.17l3.8-2.19c.17-.1.3-.33.3-.52v-2.96c0-.19-.14-.27-.31-.17l-3.8,2.19c-.17.1-.3.33-.3.52v2.96"/>
      </g>
      <g class="cls-14">
        <path class="cls-16" d="M78.84,78.5l-.84-.49c0,.19-.13.42-.3.52l.84.49c.17-.1.3-.33.3-.52Z"/>
        <polygon class="cls-16" points="78.83 75.54 77.99 75.06 78 78.02 78.84 78.5 78.83 75.54"/>
        <path class="cls-16" d="M78.74,75.35l-.84-.49c.05.03.09.1.09.19l.84.49c0-.1-.03-.16-.09-.19Z"/>
        <path class="cls-11" d="M78.74,75.35l-.84-.49c-.05-.03-.13-.03-.21.02l.84.49c.08-.05.16-.05.21-.02Z"/>
        <path class="cls-15" d="M79.14,74.67l-.84-.49c-.16-.09-.37-.08-.61.06l.84.49c.24-.14.46-.15.61-.06Z"/>
        <polygon class="cls-16" points="78.53 79.02 77.7 78.53 73.89 80.73 74.73 81.22 78.53 79.02"/>
        <path class="cls-16" d="M73.68,80.75l.84.49c.05.03.13.03.22-.02l-.84-.49c-.08.05-.16.05-.22.02Z"/>
        <path class="cls-11" d="M73.68,80.75l.84.49c-.05-.03-.09-.1-.09-.19l-.84-.49c0,.09.03.16.09.19Z"/>
        <path class="cls-15" d="M73.28,81.44l.84.49c-.16-.09-.25-.28-.25-.55l-.84-.49c0,.27.1.46.25.55Z"/>
        <polygon class="cls-11" points="74.42 78.09 73.58 77.6 73.59 80.56 74.43 81.05 74.42 78.09"/>
        <polygon class="cls-11" points="78.52 75.37 77.69 74.88 73.88 77.08 74.72 77.57 78.52 75.37"/>
        <path class="cls-17" d="M74.72,77.57c-.17.1-.3.33-.3.52v2.96c0,.19.14.27.31.17l3.8-2.19c.17-.1.3-.33.3-.52v-2.96c0-.19-.14-.27-.31-.17l-3.8,2.19Z"/>
        <path class="cls-11" d="M74.72,77.57l-.84-.49c-.17.1-.3.33-.3.52l.84.49c0-.19.13-.42.3-.52Z"/>
        <polygon class="cls-15" points="73.86 78.41 73.02 77.92 73.03 80.88 73.87 81.37 73.86 78.41"/>
        <polygon class="cls-15" points="78.52 74.73 77.68 74.24 73.88 76.43 74.72 76.92 78.52 74.73"/>
        <path class="cls-15" d="M74.72,76.92l-.84-.49c-.48.27-.86.94-.86,1.49l.84.49c0-.55.38-1.22.86-1.49Z"/>
        <path class="cls-12" d="M78.52,74.73c.48-.27.86-.05.87.49v2.96c0,.55-.38,1.22-.85,1.49l-3.8,2.19c-.48.27-.86.05-.87-.49v-2.96c0-.55.38-1.22.85-1.49l3.8-2.19ZM74.43,81.05c0,.19.14.27.3.17l3.8-2.19c.17-.1.3-.33.3-.52v-2.96c0-.19-.14-.27-.31-.17l-3.8,2.19c-.17.1-.3.33-.3.52v2.96"/>
      </g>
    </g>
  </g>
</svg>