<?xml version="1.0" encoding="UTF-8"?>
<svg xmlns="http://www.w3.org/2000/svg" xmlns:xlink="http://www.w3.org/1999/xlink" viewBox="0 0 78.64 55.68">
  <defs>
    <style>
      .cls-1 {
        fill: #dbdfe0;
      }

      .cls-2 {
        fill: #2c3847;
      }

      .cls-3 {
        fill: #a00000;
      }

      .cls-4 {
        fill: #d2d2d2;
      }

      .cls-5 {
        fill: #232221;
      }

      .cls-6 {
        fill: url(#linear-gradient-8);
      }

      .cls-7 {
        fill: url(#linear-gradient-7);
      }

      .cls-8 {
        fill: url(#linear-gradient-6);
      }

      .cls-9 {
        fill: url(#linear-gradient-4);
      }

      .cls-10 {
        fill: url(#linear-gradient-3);
      }

      .cls-11 {
        fill: #f5fcf8;
      }

      .cls-12 {
        fill: #343b42;
      }

      .cls-13 {
        fill: #434e5c;
      }

      .cls-14 {
        fill: #b8d3da;
      }

      .cls-15 {
        fill: #2e2711;
      }

      .cls-16 {
        isolation: isolate;
      }

      .cls-17 {
        fill: #2d3847;
      }

      .cls-18 {
        fill: #212a33;
      }

      .cls-19 {
        fill: #d3e8ed;
      }

      .cls-20 {
        fill: url(#linear-gradient-2);
      }

      .cls-20, .cls-21 {
        opacity: .5;
      }

      .cls-21 {
        fill: url(#linear-gradient);
      }

      .cls-22 {
        fill: #69787c;
      }

      .cls-23 {
        fill: #353433;
      }

      .cls-24 {
        fill: #29230f;
      }

      .cls-25 {
        fill: #34383a;
      }

      .cls-26 {
        fill: #4c5761;
      }

      .cls-27 {
        fill: #c32e28;
      }

      .cls-28, .cls-29 {
        mix-blend-mode: screen;
      }

      .cls-28, .cls-30 {
        fill: #3c4142;
      }

      .cls-31 {
        fill: #56626e;
      }

      .cls-29 {
        fill: url(#linear-gradient-5);
        opacity: .3;
      }

      .cls-32 {
        fill: #4e9adf;
      }

      .cls-33 {
        fill: #595757;
      }

      .cls-34 {
        fill: #dcdddd;
        mix-blend-mode: multiply;
      }

      .cls-35 {
        fill: #ffa836;
      }

      .cls-36 {
        fill: #2a6abd;
      }

      .cls-37 {
        fill: #e54327;
      }

      .cls-38 {
        fill: #202b2d;
      }

      .cls-39 {
        fill: #4e5559;
      }
    </style>
    <linearGradient id="linear-gradient" x1="-2360.96" y1="49.86" x2="-2354.46" y2="49.86" gradientTransform="translate(2404.34)" gradientUnits="userSpaceOnUse">
      <stop offset="0" stop-color="#323232"/>
      <stop offset=".63" stop-color="#201f1d"/>
      <stop offset="1" stop-color="#12100c"/>
    </linearGradient>
    <linearGradient id="linear-gradient-2" x1="-2398.09" y1="29.38" x2="-2391.59" y2="29.38" xlink:href="#linear-gradient"/>
    <linearGradient id="linear-gradient-3" x1="-2582.16" y1="6.57" x2="-2558.61" y2="6.57" gradientTransform="translate(2594)" gradientUnits="userSpaceOnUse">
      <stop offset="0" stop-color="#323538"/>
      <stop offset="1" stop-color="#2b2b2d"/>
    </linearGradient>
    <linearGradient id="linear-gradient-4" x1="-2556.09" y1="22.66" x2="-2532.4" y2="22.66" xlink:href="#linear-gradient-3"/>
    <linearGradient id="linear-gradient-5" x1="-6.69" y1="26.77" x2="2.22" y2="40.45" gradientTransform="translate(63.61)" gradientUnits="userSpaceOnUse">
      <stop offset="0" stop-color="#bfe4ff"/>
      <stop offset="1" stop-color="#000"/>
    </linearGradient>
    <linearGradient id="linear-gradient-6" x1="-41.2" y1="3.3" x2="-16.95" y2="15.99" gradientTransform="translate(63.61)" gradientUnits="userSpaceOnUse">
      <stop offset="0" stop-color="#d5d5d5"/>
      <stop offset=".26" stop-color="#dce0e4"/>
      <stop offset=".7" stop-color="#e5eff7"/>
      <stop offset="1" stop-color="#e9f5ff"/>
    </linearGradient>
    <linearGradient id="linear-gradient-7" x1="-42.83" y1="33.08" x2="-31.73" y2="19.28" gradientTransform="translate(63.61)" gradientUnits="userSpaceOnUse">
      <stop offset="0" stop-color="#d3d3d3"/>
      <stop offset=".29" stop-color="#dbe0e4"/>
      <stop offset=".71" stop-color="#e5eff7"/>
      <stop offset="1" stop-color="#e9f5ff"/>
    </linearGradient>
    <linearGradient id="linear-gradient-8" x1="-2581.1" y1="22.69" x2="-2552.67" y2="22.69" xlink:href="#linear-gradient-3"/>
  </defs>
  <g class="cls-16">
    <g id="Layer_2" data-name="Layer 2">
      <g id="car_E2">
        <g>
          <path class="cls-39" d="M61.98,18.89c.3-.4,2.2-2.14,2.43-1.95.5.41.26,2.29-.18,3.06-.41.7-2.23,2.62-2.3,2.39-.15-.43-.31-3.02.06-3.5Z"/>
          <path class="cls-24" d="M6.01,22.69c-.87.5-1.44,1.54-1.53,3.01l22.67-13.17c.1-1.47.67-2.5,1.53-3L6.01,22.69Z"/>
          <path class="cls-15" d="M42.17,42.76c-.89.52-.99,3.56-.43,5l5.11-2.97,17.56-11.89c.07-1.53.65-2.6,1.54-3.12l-23.78,12.98Z"/>
          <g>
            <g class="cls-16">
              <path class="cls-5" d="M52.86,47.63c-.44-1-1.05-1.95-1.75-2.76-.6-.68-1.27-1.26-1.98-1.67-1.26-.73-2.4-.79-3.22-.32l-2.49,1.45c.82-.48,1.96-.41,3.22.32.71.41,1.38.99,1.98,1.67.71.81,1.31,1.76,1.75,2.76.5,1.12.79,2.3.78,3.39,0,1.43-.51,2.43-1.32,2.91l2.49-1.45c.81-.47,1.32-1.48,1.32-2.91,0-1.09-.29-2.27-.78-3.39Z"/>
              <path class="cls-23" d="M46.64,44.66c-2.5-1.44-4.54-.29-4.54,2.58,0,2.88,2.01,6.38,4.51,7.82,2.5,1.44,4.54.29,4.54-2.59,0-2.87-2.01-6.37-4.51-7.81Z"/>
            </g>
            <path class="cls-21" d="M46.64,46.12c-1.8-1.04-3.26-.2-3.26,1.86,0,2.06,1.44,4.57,3.24,5.61,1.79,1.04,3.26.2,3.26-1.86,0-2.06-1.44-4.57-3.24-5.61Z"/>
            <path class="cls-1" d="M46.63,47.27c-1.24-.75-2.28-.2-2.31,1.24-.03,1.44.95,3.21,2.2,3.96,1.25.75,2.28.2,2.31-1.24.03-1.44-.95-3.21-2.2-3.96Z"/>
          </g>
          <g>
            <g class="cls-16">
              <path class="cls-5" d="M15.73,27.15c-.44-1-1.05-1.95-1.75-2.76-.6-.68-1.27-1.26-1.98-1.67-1.26-.73-2.4-.79-3.22-.32l-2.49,1.45c.82-.48,1.96-.41,3.22.32.71.41,1.38.99,1.98,1.67.71.81,1.31,1.76,1.75,2.76.5,1.12.79,2.3.78,3.39,0,1.43-.51,2.43-1.32,2.91l2.49-1.45c.81-.47,1.32-1.48,1.32-2.91,0-1.09-.29-2.27-.78-3.39Z"/>
              <path class="cls-23" d="M9.51,24.17c-2.5-1.44-4.54-.29-4.54,2.58,0,2.88,2.01,6.38,4.51,7.82,2.5,1.44,4.54.29,4.54-2.59,0-2.87-2.01-6.37-4.51-7.81Z"/>
            </g>
            <path class="cls-20" d="M9.5,25.64c-1.8-1.04-3.26-.2-3.26,1.86,0,2.06,1.44,4.57,3.24,5.61,1.79,1.04,3.26.2,3.26-1.86,0-2.06-1.44-4.57-3.24-5.61Z"/>
            <path class="cls-1" d="M9.5,26.79c-1.24-.75-2.28-.2-2.31,1.24-.03,1.44.95,3.21,2.2,3.96,1.25.75,2.28.2,2.31-1.24.03-1.44-.95-3.21-2.2-3.96Z"/>
          </g>
          <path class="cls-26" d="M36.85,40.46l-17.55-10.35-4.03.71s-.44,1.19-.65,1.87l26.97,15.38.17-2.24-4.92-5.37Z"/>
          <path class="cls-12" d="M78.48,36.74c0-.74-.61-.82-.72-1.18-.44-1.51-.7-4.67-2.11-6.28-.59-.67-3.75-1.1-4.45-1.64l-8.47-6.34c-.16-.2-8.1-8.2-10.66-9.68l-14.44-8.33c-3.06-1.76-9.91.34-11,.07-1.25-.3-1.45-2.45-5.86-2.86-1.75-.16-10.1,3.76-16.48,8.2-2.42,1.68-2.27,6.66-2.27,6.66,0,0-1.65,1.22-1.83,1.46-.41.55-.12,4.37.22,4.98.99,1.79,4.1,3.81,4.1,3.81.2-3.05,3-3.95,5.71-2.38.06.03.11.07.17.1,2.67,1.65,4.81,4.54,4.96,7.7l26.44,15.01c.15-3.14,2.42-3.77,5.16-2.19.06.03.11.07.17.1,2.67,1.64,4.77,5.33,4.94,8.5,4.29,2.42,11.5.3,16.47-2.31,5.73-3,9.42-6.06,10.05-8.68.17-.69-.1-4.09-.11-4.75Z"/>
          <path class="cls-28" d="M78.43,36.73c.17-.45-.54-.95-.54-.97-3.24,6.55-14.6,12.09-21.51,12.29-.65.02-2.81-.13-2.81-.1,0,0,.78.48,2.8.55,9.56.32,20.5-7.8,22.06-11.77Z"/>
          <path class="cls-3" d="M2.76,11.13c.1.36.48,1.45.57,2,.11.69.45,3.62.25,3.77-.18.15-1.45-2.02-1.46-2.36-.02-.84.38-3.45.63-3.41Z"/>
          <path class="cls-11" d="M57.17,46.44c1.74.64,5.11-.48,6.93-1.16,1.39-.52,1.66-2.64-.57-2.46-3.49.29-6.64.25-7.04.24-2.2-.05-1.98,2.4.68,3.38Z"/>
          <path class="cls-35" d="M56.5,43.06c-2.2-.05-2,2.42.65,3.4.12.05.4.15.54.18-.81-1.3-1.11-3.59-1.19-3.59Z"/>
          <path class="cls-11" d="M77.87,35.1c-.25.4-1.33,1.64-1.87,1.92-1.31.7-2.82-.62-1.47-2.04.67-.71,1.9-2.15,2.31-3.45.94,1.66,1.18,3.32,1.03,3.57Z"/>
          <path class="cls-33" d="M73.63,36.32c-3.74,3.7-8.89,4.97-8.5,5.59.26.4,1.88,1.81,1.9,1.81,1.56-.31,6.83-3.7,6.86-4.37.08-1.42-.11-2.67-.16-3.02,0-.05-.06-.05-.09-.02Z"/>
          <path class="cls-30" d="M7.2,21.36c-2.78-2.42-4.69-4.28-5.14-4.93v-1.14s-1.04.76-1.22,1.01h0c2.53,2.92,6.37,5.06,6.37,5.06Z"/>
          <path class="cls-31" d="M76.03,30.62c-.16-.65-.02-.95-.76-1.8-.59-.67-1.32-1.03-2.02-1.56l-10.66-6.1c-.16-.2-8.1-8.2-10.66-9.68l-14.44-8.33c-3.06-1.76-9.4-1.3-9.83-1.24-.39.05-2.62-1.5-7.03-1.9-1.7-.16-10.1,4.2-16.35,8.68-.21.15-.2.48.02.63,2.49,1.68,2.49,1.98,5.48,2.03,2.77.05,8.64,0,11.01.48,2.16.44,15.32,7.82,16.64,9.68,1.17,1.66,4.6,9.15,7.4,13.21,1.59,2.3,2.27,2.46,4.86,4.03,2.26,1.37,6.37,3.18,7.85,3.18,10.33-.02,16.43-6.97,18.38-9.96.26-.4.23-.86.11-1.33Z"/>
          <path class="cls-10" d="M35.39,2.51c-3.41.71-9.32,4.3-13.56,8.29-.17.16-.39.25-.62.24l-9.22-.06c-.11,0-.18-.12-.13-.21.84-1.59,12.22-7.94,16.73-8.64.11-.02.22-.02.33-.02.78,0,4.08.01,6.47.41Z"/>
          <path class="cls-25" d="M58.67,51.29l.05.56c.01.14.13.25.27.24,1.04-.06,3.19-.44,4.07-.76.11-.04.18-.15.17-.27l-.05-.59c-.01-.17-.18-.27-.34-.22-1.76.55-3.18.69-3.94.77-.14.01-.24.14-.23.28Z"/>
          <path class="cls-25" d="M77.99,40.56c-.05.08-.08.16-.07.25.01.41,0,.92,0,1.04.16-.17.56-.73.69-1.23.04-.42-.03-.87-.03-1.28-.16.5-.4.92-.58,1.22Z"/>
          <path class="cls-25" d="M76.52,42.13c-2.81,2.92-7.05,5.32-11.05,6.96-.07.03-.11.09-.11.17v.99c0,.11.1.21.21.18,1.72-.36,9.72-4.9,11.16-6.94.07-.11.11-.24.11-.37v-.86c0-.17-.2-.24-.31-.13Z"/>
          <path class="cls-4" d="M68.6,47.47v1c.61-.2,5.6-3.11,6.09-3.72v-.97c-1.83,1.41-3.94,2.65-6.09,3.69Z"/>
          <path class="cls-38" d="M38.39,32.88l1.36.07c.64.03,1.27-.09,1.84-.36h0c-.26-.64-.51-1.28-.78-1.91l-1.65.74-.78,1.47Z"/>
          <path class="cls-9" d="M52.82,12.8c-.66.64-5.71,5.35-14.83,8.65-.08.03-.11.12-.07.19l5.54,10.16c.35.64,1.09.86,1.79.67,2.52-.68,8.71-2.83,14.7-8.15.92-.82,2.28-2.8,1.31-3.77-2.94-2.96-5.54-5.42-8.29-7.75-.05-.04-.11-.04-.16,0Z"/>
          <path class="cls-29" d="M60.31,23.98c-1.77,1.75-5.1,4.48-10.57,6.93,2.75,1.13,10.92,4.97,16.37,9.19,1.88-.68,4.42-2.47,6.52-4.28-2.43-4.36-7.4-8.31-12.33-11.84Z"/>
          <path class="cls-8" d="M51.07,14.04s-1.21-1.18-1.57-1.46c-2.84-2.24-9.54-5.96-14.96-8.43-.65-.29-2.12-.47-2.42-.46-.63.27-.97.48-1.83.92s-1.88,1.19-2.88,1.83c-1,.64-2.65,1.95-3.73,2.78,0,0,1.32-.08,2.08.27,5.43,2.46,12.12,6.19,14.96,8.43.36.28,1.57,1.46,1.57,1.46.87-.4,1.72-.82,2.49-1.23,2.57-1.36,4.57-2.75,5.91-3.78.17-.13.4-.34.37-.32Z"/>
          <g>
            <g class="cls-16">
              <polygon class="cls-2" points="31.45 15.46 31.45 16.07 44.49 8.48 44.5 7.87 31.45 15.46"/>
              <polygon class="cls-18" points="28.88 13.98 28.88 14.59 31.45 16.07 31.45 15.46 28.88 13.98"/>
              <polygon class="cls-13" points="44.5 7.87 31.45 15.46 28.88 13.98 41.93 6.39 44.5 7.87"/>
            </g>
            <g class="cls-16">
              <g class="cls-16">
                <g class="cls-16">
                  <path class="cls-37" d="M43.06,6.44c-.76-.44-1.4-.65-1.59-.54l-5.03,2.9c.19-.11.83.1,1.59.54.62.36,1.15.77,1.43,1.09l5.03-2.9c-.28-.32-.82-.73-1.43-1.09Z"/>
                  <path class="cls-37" d="M39.46,10.43l5.03-2.9c.08.1.15.18.18.26l-5.03,2.9c-.03-.07-.09-.16-.18-.26h0Z"/>
                  <path class="cls-37" d="M39.64,10.69l5.03-2.9s.03.08.03.11c0,.05-.02.08-.06.1l-5.03,2.9s.06-.06.06-.1c0-.03-.01-.07-.03-.11h0Z"/>
                </g>
              </g>
              <path class="cls-27" d="M38.03,9.34c.91.52,1.64,1.18,1.64,1.46,0,.28-.74.09-1.64-.44-.91-.52-1.64-1.18-1.64-1.46,0-.28.74-.09,1.64.44Z"/>
            </g>
            <g class="cls-16">
              <polygon class="cls-14" points="36.05 10.53 38.6 9.04 39.25 10.93 36.69 12.41 36.05 10.53"/>
              <polygon class="cls-19" points="34.76 9.78 37.31 8.3 38.6 9.04 36.05 10.53 34.76 9.78"/>
              <polygon class="cls-22" points="36.05 10.53 36.69 12.41 34.1 10.92 34.76 9.78 36.05 10.53"/>
            </g>
            <g class="cls-16">
              <g class="cls-16">
                <g class="cls-16">
                  <path class="cls-32" d="M35.39,10.86c-.76-.44-1.4-.65-1.59-.54l-5.03,2.9c.19-.11.83.1,1.59.54.62.36,1.15.77,1.43,1.09l5.03-2.9c-.28-.32-.82-.73-1.43-1.09Z"/>
                  <path class="cls-32" d="M31.79,14.85l5.03-2.9c.08.1.15.18.18.26l-5.03,2.9c-.03-.07-.09-.16-.18-.26h0Z"/>
                  <path class="cls-32" d="M31.97,15.11l5.03-2.9s.03.08.03.11c0,.05-.02.08-.06.1l-5.03,2.9s.06-.05.06-.1-.01-.07-.03-.11h0Z"/>
                </g>
              </g>
              <path class="cls-36" d="M30.36,13.76c.91.52,1.64,1.18,1.64,1.46s-.74.09-1.64-.44c-.91-.52-1.64-1.18-1.64-1.46,0-.28.74-.09,1.64.44Z"/>
            </g>
          </g>
          <path class="cls-7" d="M40.97,31.9c-.39-.65-4.93-10.06-5.59-10.77-.45-.47-4.99-3.19-8.78-5.42-2.29-1.34-5.33-2.89-6.12-3.05-2.31-.47-7.37-.64-10.07-.68-.56,0-1.06-.06-1.54-.14l2.38,12.07c2.18,1.79,4.14,4.36,4.27,7.09l24.57,14.11,1.08-9.75c.14-.94.12-1.89-.08-2.82l-.13-.64Z"/>
          <path class="cls-38" d="M41.25,32.6l-14.23-8.13-14.2-8.19h0c-.08-.05-.1-.15-.06-.22h0s0-.01,0-.01c.5-.7,1.18-1.17,1.87-1.61.69-.42,1.42-.82,2.17-1.11,1.53-.59,3.24-.68,4.82-.27.79.2,1.55.53,2.25.95l2.09,1.2,4.19,2.4,4.19,2.4c.35.2.69.39,1.05.61.35.23.66.51.92.84.27.33.44.71.63,1.05l.56,1.07c.73,1.44,1.43,2.89,2.1,4.35.34.73.67,1.47.99,2.2.32.75.65,1.47.9,2.27.03.09-.02.18-.11.21-.05.01-.09,0-.13-.01h0ZM41.02,32.08c-.21-.6-.47-1.21-.72-1.8-.32-.74-.65-1.47-.98-2.2-.67-1.46-1.36-2.91-2.08-4.35l-.55-1.07c-.2-.35-.37-.72-.6-1.02-.24-.31-.53-.57-.85-.78-.33-.21-.69-.4-1.03-.61l-4.18-2.42-4.18-2.42-2.09-1.21c-.69-.41-1.42-.73-2.19-.91-1.54-.39-3.19-.28-4.66.29-.74.3-1.44.68-2.12,1.1-.66.43-1.32.92-1.74,1.54h0s-.06-.24-.06-.24l14.23,8.13,13.8,7.96Z"/>
          <path class="cls-31" d="M29.03,30.05l-1.85-1.07c-.19-.11-.35-.36-.35-.56h0c0-.19.16-.26.35-.15l1.85,1.07c.19.11.35.36.35.56h0c0,.19-.16.26-.35.15Z"/>
          <path class="cls-31" d="M15.69,22.35l-1.85-1.07c-.19-.11-.35-.36-.35-.56h0c0-.19.16-.26.35-.15l1.85,1.07c.19.11.35.36.35.56h0c0,.19-.16.26-.35.15Z"/>
          <path class="cls-6" d="M41.33,32.46L12.9,16.14c.55-.83,1.9-1.73,3.38-2.44,2.33-1.12,5.06-1,7.3.28,3.56,2.04,9.45,5.45,11.54,6.65.57.33,1.04.8,1.37,1.38,1.44,2.56,4.55,9.29,4.84,10.45Z"/>
          <polygon class="cls-38" points="29.87 17.68 28.39 16.85 26.1 23.62 27.56 24.49 29.87 17.68"/>
          <polygon class="cls-38" points="18.37 13.03 17.69 13.12 16.05 17.96 16.59 18.28 18.37 13.03"/>
          <path class="cls-34" d="M11.9,24.26v-6.4s.89-1.75.89-1.75l.24.12-.87,1.72v6.58c-.09-.09-.18-.19-.27-.27ZM40.93,32.37s.54,1.99.37,2.94c-.15.9-1.13,8.2-1.3,9.52l-14.28-8.23v-9.25s1.67-3.33,1.67-3.33l-.24-.12-1.68,3.36v9.19s-10.17-5.85-10.17-5.85c.02.12.04.23.05.35l24.69,14.23.18.1.03-.2c.01-.09,1.16-8.74,1.33-9.71.17-1.01-.36-2.98-.38-3.06l-.26.07Z"/>
          <path class="cls-39" d="M40.43,30.55c-.52-.03-4.38,1.22-4.33,1.67.09.87,1.46,2.02,2.28,2.19.79.16,4.08-.89,4.1-1.19.03-.58-1.05-2.61-2.04-2.67Z"/>
          <g>
            <path class="cls-17" d="M19.17,26.69c.22.37.33.78.33,1.23s-.12.74-.36.86c-.24.12-.61.03-1.11-.25l-.67-.39v1.69s-1.23-.71-1.23-.71v-4.55s2.04,1.17,2.04,1.17c.45.26.78.57.99.94ZM18.16,27.54c.1-.03.15-.13.15-.27s-.04-.29-.13-.43c-.08-.15-.24-.29-.47-.42l-.35-.2v1.02s.3.17.3.17c.24.14.4.18.5.14"/>
            <path class="cls-17" d="M23.56,29.39c.35.61.53,1.28.53,2.02,0,.53-.08.92-.23,1.17-.16.25-.38.38-.68.4-.29.02-.66-.09-1.1-.35s-.82-.55-1.11-.89c-.29-.33-.53-.72-.71-1.18-.18-.47-.27-.96-.27-1.49,0-.74.18-1.22.55-1.43.36-.2.86-.12,1.5.25s1.17.88,1.52,1.49ZM22.64,31.61c.15-.11.22-.42.22-.93,0-.43-.07-.79-.22-1.07-.15-.29-.36-.5-.61-.65s-.45-.16-.59-.04c-.15.11-.22.4-.23.87s.07.83.22,1.11c.15.29.34.5.61.65s.46.17.61.06"/>
            <polygon class="cls-17" points="25.97 30.25 25.96 33.68 27.87 34.78 27.87 35.9 24.73 34.09 24.75 29.54 25.97 30.25"/>
            <polygon class="cls-17" points="29.71 32.41 29.7 36.96 28.47 36.25 28.49 31.7 29.71 32.41"/>
            <path class="cls-17" d="M32.45,33.91c.5.29.89.63,1.17,1.02.29.4.5.87.64,1.44l-1.09-.36c-.04-.16-.08-.28-.11-.37-.07-.15-.15-.28-.25-.4-.1-.11-.2-.21-.33-.28-.27-.16-.49-.15-.63.02-.12.12-.17.39-.18.8,0,.5.07.88.2,1.15.13.26.32.46.56.6.23.13.41.16.53.08.12-.08.21-.25.26-.51l1.07.99c-.07.3-.19.53-.34.67-.15.15-.35.21-.58.2-.23-.02-.52-.13-.88-.33-.43-.25-.79-.53-1.05-.83-.27-.3-.51-.69-.71-1.16-.2-.47-.29-.99-.29-1.56,0-.76.18-1.24.52-1.44.35-.2.84-.12,1.48.25Z"/>
            <polygon class="cls-17" points="38.16 37.29 38.16 38.26 36.11 37.08 36.11 37.8 38.01 38.9 38.01 39.83 36.1 38.73 36.1 39.62 38.21 40.84 38.2 41.87 34.87 39.94 34.88 35.39 38.16 37.29"/>
          </g>
        </g>
      </g>
    </g>
  </g>
</svg>