<?xml version="1.0" encoding="UTF-8"?>
<svg xmlns="http://www.w3.org/2000/svg" xmlns:xlink="http://www.w3.org/1999/xlink" viewBox="0 0 77.35 54.77">
  <defs>
    <style>
      .cls-1 {
        fill: #dbdfe0;
      }

      .cls-2 {
        fill: #a00000;
      }

      .cls-3 {
        fill: #b99e4a;
        mix-blend-mode: multiply;
        opacity: .3;
      }

      .cls-4 {
        fill: #3a88d1;
      }

      .cls-5 {
        fill: #d2d2d2;
      }

      .cls-6 {
        fill: #232221;
      }

      .cls-7 {
        fill: url(#linear-gradient-5);
      }

      .cls-8 {
        fill: url(#linear-gradient-4);
      }

      .cls-9 {
        fill: url(#linear-gradient-3);
      }

      .cls-10 {
        fill: #f5fcf8;
      }

      .cls-11 {
        fill: #2e2711;
      }

      .cls-12 {
        isolation: isolate;
      }

      .cls-13 {
        fill: #048ceb;
      }

      .cls-14 {
        fill: url(#linear-gradient-2);
      }

      .cls-14, .cls-15 {
        opacity: .5;
      }

      .cls-15 {
        fill: url(#linear-gradient);
      }

      .cls-16 {
        fill: #353433;
      }

      .cls-17 {
        fill: #4ba9eb;
      }

      .cls-18 {
        fill: #29230f;
      }

      .cls-19 {
        fill: #34383a;
      }

      .cls-20 {
        fill: #595757;
      }

      .cls-21 {
        fill: #40a6ed;
      }

      .cls-22 {
        fill: #ffa836;
      }

      .cls-23 {
        fill: #3276b5;
      }

      .cls-24 {
        fill: #202b2d;
      }
    </style>
    <linearGradient id="linear-gradient" x1="-1315.17" y1="49.04" x2="-1308.78" y2="49.04" gradientTransform="translate(-1280.48) rotate(-180) scale(1 -1)" gradientUnits="userSpaceOnUse">
      <stop offset="0" stop-color="#323232"/>
      <stop offset=".63" stop-color="#201f1d"/>
      <stop offset="1" stop-color="#12100c"/>
    </linearGradient>
    <linearGradient id="linear-gradient-2" x1="-1351.69" y1="28.89" x2="-1345.3" y2="28.89" xlink:href="#linear-gradient"/>
    <linearGradient id="linear-gradient-3" x1="-1534.81" y1="22.32" x2="-1506.84" y2="22.32" gradientTransform="translate(-1470.15) rotate(-180) scale(1 -1)" gradientUnits="userSpaceOnUse">
      <stop offset="0" stop-color="#323538"/>
      <stop offset="1" stop-color="#2b2b2d"/>
    </linearGradient>
    <linearGradient id="linear-gradient-4" x1="-1535.85" y1="6.46" x2="-1512.69" y2="6.46" xlink:href="#linear-gradient-3"/>
    <linearGradient id="linear-gradient-5" x1="-1510.21" y1="22.28" x2="-1486.9" y2="22.28" xlink:href="#linear-gradient-3"/>
  </defs>
  <g class="cls-12">
    <g id="Layer_2" data-name="Layer 2">
      <g id="car_C1">
        <g>
          <path class="cls-17" d="M16.38,18.58c-.3-.39-2.16-2.1-2.39-1.91-.49.4-.26,2.26.18,3.01.4.69,2.19,2.58,2.27,2.35.15-.42.31-2.97-.06-3.44Z"/>
          <path class="cls-18" d="M71.44,22.32c.85.5,1.41,1.51,1.51,2.96l-22.29-12.96c-.09-1.44-.65-2.46-1.51-2.95l22.29,12.95Z"/>
          <path class="cls-11" d="M35.87,42.05c.87.51.98,3.5.42,4.92l-5.02-2.92-17.28-11.7c-.07-1.51-.64-2.56-1.51-3.07l23.39,12.77Z"/>
          <g>
            <g class="cls-12">
              <path class="cls-6" d="M25.35,46.85c.43-.98,1.03-1.92,1.72-2.71.59-.67,1.25-1.24,1.95-1.64,1.24-.72,2.36-.78,3.17-.31l2.45,1.42c-.81-.47-1.93-.4-3.17.31-.7.4-1.36.97-1.95,1.64-.7.79-1.29,1.73-1.72,2.71-.49,1.11-.77,2.27-.77,3.34,0,1.41.5,2.39,1.3,2.86l-2.45-1.42c-.8-.46-1.3-1.45-1.3-2.86,0-1.07.28-2.23.77-3.34Z"/>
              <path class="cls-16" d="M31.48,43.92c2.46-1.42,4.46-.28,4.47,2.54,0,2.83-1.98,6.27-4.44,7.69-2.46,1.42-4.46.28-4.47-2.55,0-2.82,1.98-6.27,4.44-7.69Z"/>
            </g>
            <path class="cls-15" d="M31.48,45.37c1.77-1.02,3.2-.2,3.21,1.82,0,2.03-1.42,4.5-3.19,5.52-1.77,1.02-3.2.2-3.21-1.83,0-2.03,1.42-4.5,3.19-5.52Z"/>
            <path class="cls-1" d="M31.48,46.5c1.22-.74,2.24-.19,2.27,1.22.03,1.41-.94,3.16-2.16,3.9-1.23.74-2.24.19-2.27-1.22-.03-1.41.94-3.16,2.16-3.9Z"/>
          </g>
          <g>
            <g class="cls-12">
              <path class="cls-6" d="M61.87,26.7c.43-.98,1.03-1.92,1.72-2.71.59-.67,1.25-1.24,1.95-1.64,1.24-.72,2.36-.78,3.17-.31l2.45,1.42c-.81-.47-1.93-.4-3.17.31-.7.4-1.36.97-1.95,1.64-.7.79-1.29,1.73-1.72,2.71-.49,1.11-.77,2.27-.77,3.34,0,1.41.5,2.39,1.3,2.86l-2.45-1.42c-.8-.46-1.3-1.45-1.3-2.86,0-1.07.28-2.23.77-3.34Z"/>
              <path class="cls-16" d="M68,23.78c2.46-1.42,4.46-.28,4.47,2.54,0,2.83-1.98,6.27-4.44,7.69-2.46,1.42-4.46.28-4.47-2.55,0-2.82,1.98-6.27,4.44-7.69Z"/>
            </g>
            <path class="cls-14" d="M68,25.22c1.77-1.02,3.2-.2,3.21,1.82,0,2.03-1.42,4.5-3.19,5.52-1.77,1.02-3.2.2-3.21-1.83,0-2.03,1.42-4.5,3.19-5.52Z"/>
            <path class="cls-1" d="M68,26.35c1.22-.74,2.24-.19,2.27,1.22.03,1.41-.94,3.16-2.16,3.9-1.23.74-2.24.19-2.27-1.22-.03-1.41.94-3.16,2.16-3.9Z"/>
          </g>
          <path class="cls-4" d="M41.1,39.79l17.26-10.18,3.96.7s.43,1.17.63,1.84l-26.52,15.13-.17-2.2,4.84-5.29Z"/>
          <path class="cls-23" d="M.05,40.81c.62,2.57,4.25,5.59,9.88,8.54,4.89,2.56,11.98,4.65,16.2,2.27.16-3.11,2.23-6.74,4.85-8.36.06-.03.11-.07.17-.1,2.69-1.55,4.93-.93,5.08,2.16l26-14.77c.15-3.11,2.25-5.95,4.88-7.58.06-.03.11-.07.17-.1,2.66-1.54,5.42-.66,5.61,2.35,0,0,3.06-1.99,4.03-3.75.34-.6.62-4.35.22-4.9-.18-.24-1.8-1.44-1.8-1.44,0,0,.14-4.9-2.23-6.56C66.84,4.2,58.63.35,56.91.51c-4.34.4-4.53,2.51-5.76,2.81-1.06.26-7.81-1.81-10.82-.07l-14.2,8.19c-2.52,1.46-10.32,9.32-10.48,9.52l-8.33,6.24c-.69.53-3.8.95-4.38,1.61-1.38,1.58-1.64,4.69-2.07,6.17-.1.36-.71.43-.71,1.16,0,.65-.27,4-.1,4.67Z"/>
          <path class="cls-3" d="M65.38,24.13v-6.47l-.85-1.69.24-.12.87,1.72v6.29c-.08.09-.17.18-.25.27ZM36.83,31.76c-.02.08-.54,2.02-.37,3.01.17.96,1.3,9.47,1.31,9.55l.03.2.17-.1,24.29-13.99c.02-.11.03-.23.05-.34l-9.99,5.75v-9.04s-1.67-3.31-1.67-3.31l-.24.12,1.64,3.28v9.1l-14.04,8.09c-.17-1.29-1.13-8.48-1.28-9.36-.16-.93.36-2.87.37-2.89l-.26-.07Z"/>
          <path class="cls-21" d="M.21,36.13c-.17-.44.53-.93.53-.95,3.19,6.44,14.36,11.89,21.15,12.09.64.02,2.76-.13,2.76-.1,0,0-.77.47-2.75.54-9.4.32-20.17-7.67-21.7-11.57Z"/>
          <path class="cls-2" d="M74.63,10.95c-.1.36-.48,1.42-.56,1.97-.11.68-.44,3.56-.25,3.71.18.14,1.43-1.99,1.43-2.33.02-.83-.38-3.4-.62-3.35Z"/>
          <path class="cls-9" d="M36.7,31.92l27.97-16.05c-.54-.82-1.87-1.71-3.33-2.4-2.29-1.1-4.98-.98-7.18.28-3.5,2-9.3,5.36-11.35,6.54-.56.33-1.03.79-1.35,1.36-1.42,2.52-4.47,9.14-4.76,10.28Z"/>
          <path class="cls-24" d="M36.77,32.07s-.08.03-.13.01c-.08-.03-.13-.12-.11-.2.25-.79.57-1.5.88-2.23.32-.73.64-1.45.98-2.17.67-1.44,1.35-2.87,2.07-4.28l.55-1.06c.19-.34.36-.71.62-1.03.25-.32.56-.61.9-.83.35-.22.69-.4,1.03-.6l4.12-2.36,4.12-2.36,2.06-1.18c.68-.41,1.43-.74,2.21-.93,1.56-.41,3.24-.31,4.74.27.74.29,1.45.68,2.13,1.09.67.43,1.35.89,1.84,1.58h0c.04.09.02.19-.06.23h0s-13.97,8.06-13.97,8.06l-14,8h0ZM50.58,23.73l14-8-.06.23h0c-.42-.62-1.07-1.09-1.72-1.52-.66-.42-1.35-.79-2.08-1.08-1.44-.56-3.08-.67-4.58-.28-.76.18-1.48.49-2.15.9l-2.05,1.19-4.11,2.38-4.11,2.38c-.34.2-.69.39-1.02.6-.32.21-.6.47-.83.77-.23.29-.4.65-.59,1l-.54,1.05c-.71,1.41-1.39,2.84-2.05,4.28-.33.72-.65,1.44-.97,2.17-.25.58-.5,1.18-.71,1.77l13.58-7.83Z"/>
          <path class="cls-10" d="M21.11,45.67c-1.71.63-5.03-.47-6.82-1.14-1.36-.51-1.63-2.59.56-2.42,3.43.28,6.53.25,6.93.24,2.17-.05,1.94,2.36-.67,3.32Z"/>
          <path class="cls-22" d="M21.78,42.35c2.17-.05,1.97,2.38-.64,3.35-.12.05-.39.15-.53.18.8-1.28,1.09-3.53,1.17-3.53Z"/>
          <path class="cls-10" d="M.76,34.52c.24.4,1.31,1.61,1.84,1.89,1.28.69,2.78-.61,1.45-2.01-.66-.7-1.87-2.11-2.27-3.39-.93,1.63-1.16,3.27-1.01,3.51Z"/>
          <path class="cls-20" d="M4.93,35.73c3.68,3.63,8.75,4.89,8.36,5.5-.25.4-1.85,1.79-1.86,1.78-1.54-.3-6.71-3.64-6.75-4.29-.08-1.4.1-2.62.16-2.97,0-.05.06-.05.09-.02Z"/>
          <path class="cls-21" d="M70.27,21c2.73-2.38,4.61-4.21,5.06-4.85v-1.12s1.02.75,1.2.99h0c-2.49,2.87-6.27,4.97-6.27,4.97Z"/>
          <path class="cls-13" d="M2.68,31.42c1.92,2.94,7.92,9.78,18.08,9.8,1.45,0,2.81-.57,4.07-1.29,1.04-.59,2.27-1.33,3.47-2.12,2.48-1.64,3.39-1.42,4.96-3.68,2.75-3.99,6.12-11.36,7.28-12.99,1.3-1.83,14.24-9.09,16.36-9.52,2.33-.48,8.1-.42,10.83-.47,2.94-.05,2.94-.34,5.39-1.99.22-.15.23-.46.02-.62C66.99,4.14,58.73-.15,57.05,0c-4.34.4-6.54,1.92-6.92,1.87-.42-.05-6.66-.51-9.66,1.22l-14.2,8.19c-2.52,1.46-10.32,9.32-10.48,9.52l-10.48,6c-.69.53-1.4.88-1.98,1.54-.73.83-.59,1.12-.75,1.77-.11.46-.15.91.11,1.31Z"/>
          <path class="cls-8" d="M42.54,2.47c3.35.7,9.17,4.23,13.34,8.15.17.16.38.24.61.24l9.07-.06c.11,0,.18-.11.13-.21-.82-1.57-12.02-7.81-16.46-8.5-.11-.02-.22-.02-.33-.02-.77,0-4.01.01-6.36.4Z"/>
          <polygon class="cls-24" points="47.97 17.39 49.42 16.57 51.68 23.23 50.24 24.09 47.97 17.39"/>
          <polygon class="cls-24" points="59.28 12.82 59.95 12.9 61.56 17.67 61.03 17.98 59.28 12.82"/>
          <path class="cls-19" d="M19.64,50.45l-.05.55c-.01.14-.13.24-.27.23-1.02-.06-3.13-.44-4-.75-.11-.04-.18-.15-.17-.27l.05-.58c.01-.16.18-.27.34-.22,1.74.55,3.12.68,3.87.75.14.01.24.14.23.28Z"/>
          <path class="cls-19" d="M.64,39.89c.05.08.08.16.07.25-.01.4,0,.91,0,1.02-.15-.17-.55-.72-.67-1.21-.04-.41.03-.85.03-1.26.15.49.39.91.57,1.2Z"/>
          <path class="cls-19" d="M2.09,41.44c2.76,2.87,6.94,5.23,10.86,6.84.07.03.11.09.11.16v.98c0,.11-.09.2-.2.18-1.69-.36-9.56-4.82-10.97-6.83-.07-.11-.1-.24-.1-.36v-.85c0-.16.19-.24.31-.12Z"/>
          <path class="cls-5" d="M9.88,46.69v.98c-.6-.2-5.51-3.06-5.98-3.66v-.95c1.8,1.39,3.87,2.61,5.98,3.63Z"/>
          <path class="cls-24" d="M39.59,32.34l-1.34.07c-.62.03-1.25-.09-1.81-.36h0c.25-.63.5-1.25.77-1.88l1.62.73.77,1.44Z"/>
          <path class="cls-17" d="M37.58,30.04c.51-.03,4.31,1.2,4.26,1.65-.09.86-1.43,1.98-2.24,2.15-.77.16-4.01-.87-4.03-1.17-.03-.57,1.03-2.57,2.01-2.62Z"/>
          <path class="cls-1" d="M48.8,29.55l1.82-1.05c.19-.11.35-.35.35-.55h0c0-.19-.15-.26-.35-.15l-1.82,1.05c-.19.11-.35.36-.35.55h0c0,.19.15.26.35.15Z"/>
          <path class="cls-1" d="M61.92,21.98l1.82-1.05c.19-.11.35-.36.35-.55h0c0-.19-.16-.26-.35-.15l-1.82,1.05c-.19.11-.35.35-.35.55h0c0,.19.16.26.35.15Z"/>
          <path class="cls-7" d="M25.39,12.59c.65.63,5.62,5.26,14.58,8.51.07.03.11.11.07.18l-5.45,10c-.34.63-1.07.85-1.76.66-2.48-.67-8.57-2.78-14.45-8.02-.91-.8-2.25-2.75-1.29-3.71,2.9-2.91,5.45-5.33,8.15-7.63.05-.04.11-.04.15,0Z"/>
        </g>
      </g>
    </g>
  </g>
</svg>