<?xml version="1.0" encoding="UTF-8"?>
<svg id="Layer_2" data-name="Layer 2" xmlns="http://www.w3.org/2000/svg" viewBox="0 0 254.16 192.91">
  <defs>
    <style>
      .cls-1 {
        fill: #727171;
      }

      .cls-2 {
        fill: #8a7e78;
      }

      .cls-3 {
        fill: #dcdddd;
      }

      .cls-4 {
        fill: #b5b5b6;
      }

      .cls-5 {
        fill: #595757;
      }

      .cls-6 {
        fill: #898989;
      }
    </style>
  </defs>
  <g id="layer3">
    <g>
      <polygon class="cls-6" points="187.04 139.76 184.9 140.68 186.22 121.68 188.28 120.44 187.04 139.76"/>
      <polygon class="cls-6" points="227.33 115.78 225.18 116.7 226.51 97.7 228.56 96.46 227.33 115.78"/>
      <g>
        <path class="cls-3" d="M123.51,2.92s9.13-2.92,12.06-2.92,6.21.37,10.6,2.56,37.27,21.56,37.27,21.56c0,0,10.96,7.31,14.98,14.25s30.15,58.1,30.15,58.1l-2.06,1.23L123.51,2.92Z"/>
        <path class="cls-1" d="M192.11,49.05c-4.21-7.33-10.28-13.42-17.61-17.64l-26.51-16.07c-9.87-6.58-20.01-6.03-30.97-1.1l-70.16,30.03c-.17.07-.37.05-.52-.05-.63-.44-1.25-.86-1.88-1.3L0,70.89c.11.07.23.15.34.22.13.09.3.11.46.06l88.38-37.13c.14-.04,8.72,6.33,8.85,6.4l40.16,26.9c.09.05.16.12.21.2l73.46,125.31s.04.03.05.05l42.25-26.57-62.04-117.28Z"/>
        <path class="cls-4" d="M226.51,97.83l-26.58-52.89c-4.79-9.29-12.48-16.26-21.51-21.51l-31.38-18.5c-8.4-4.75-20.87-3.97-30.01.41l-40.28,17.4-.55,9.73,42.39-18.18s15.02-5.98,25.05.85l30.12,18.15s12.12,7.07,18.67,20.16c6.55,13.09,32.86,63.15,32.86,63.15l1.23-18.77Z"/>
        <path class="cls-2" d="M115.19,64.88c18.26,10.54,32.52,35.25,32.46,56.25l-.47,34.45,64.22,36.99-59.35-115.03c-4.79-9.29-12.14-17.01-21.18-22.27l-27.61-16.05c-4.18-2.43-8.91-3.57-13.62-3.41l.53,25.81c7.28-3.03,16.06-1.92,25.03,3.26Z"/>
        <path class="cls-5" d="M115.19,64.88c-8.97-5.18-17.74-6.29-25.03-3.26l.1,4.87.06,2.71c.25-.17.51-.34.78-.49,5.3-3.05,12.62-2.6,20.7,2.06,16,9.24,28.94,31.55,29.05,49.99,0,.12,0,.24,0,.36v1.39s-.1,29.38-.1,29.38l6.41,3.7.47-34.45c.06-21-14.2-45.7-32.46-56.25Z"/>
        <path class="cls-3" d="M83.32,28.14s9.13-2.92,12.06-2.92,6.21.37,10.6,2.56,38.73,22.29,38.73,22.29c0,0,11.33,8.04,16.44,16.81,4.04,6.93,27.22,54.81,27.22,54.81l-2.06,1.23-25.23-38.04-10.92-20.71-38.59-24.09-28.26-11.94Z"/>
        <path class="cls-4" d="M186.22,121.68l-24.39-49.88c-4.79-9.29-14.26-18.32-23.29-23.57l-32.34-18.5c-8.4-4.75-19.23-4.52-28.36-.14l-40.92,17.26-.18,9.32,41.52-17.4s14.98-6.39,25.01.44l30.12,18.15s12.12,7.07,18.67,20.16c6.55,13.09,32.86,63.15,32.86,63.15l1.32-19Z"/>
      </g>
    </g>
  </g>
</svg>