<?xml version="1.0" encoding="UTF-8"?>
<svg xmlns="http://www.w3.org/2000/svg" xmlns:xlink="http://www.w3.org/1999/xlink" viewBox="0 0 75.52 71.75">
  <defs>
    <style>
      .cls-1, .cls-2, .cls-3, .cls-4, .cls-5, .cls-6, .cls-7, .cls-8, .cls-9, .cls-10, .cls-11, .cls-12 {
        fill-rule: evenodd;
      }

      .cls-1, .cls-13 {
        fill: #efefef;
      }

      .cls-2 {
        fill: #fff;
      }

      .cls-3 {
        fill: url(#GradientFill_215-2);
      }

      .cls-4 {
        fill: #2e3235;
      }

      .cls-5 {
        fill: #d5d0c8;
        mix-blend-mode: multiply;
      }

      .cls-6 {
        fill: url(#GradientFill_216);
      }

      .cls-7 {
        fill: url(#GradientFill_215);
      }

      .cls-14 {
        isolation: isolate;
      }

      .cls-8 {
        fill: #474c52;
      }

      .cls-9 {
        fill: #1c1d1e;
      }

      .cls-10 {
        fill: #b2b1af;
      }

      .cls-11 {
        fill: #00a29a;
      }

      .cls-12 {
        fill: #e8e5e0;
      }
    </style>
    <linearGradient id="GradientFill_215" data-name="GradientFill 215" x1="477.49" y1="22.86" x2="478.19" y2="24.79" gradientTransform="translate(542.48) rotate(-180) scale(1 -1)" gradientUnits="userSpaceOnUse">
      <stop offset="0" stop-color="#a6a69d"/>
      <stop offset="1" stop-color="#fff"/>
    </linearGradient>
    <linearGradient id="GradientFill_215-2" data-name="GradientFill 215" x1="490.25" y1="30.3" x2="491.02" y2="32.42" xlink:href="#GradientFill_215"/>
    <linearGradient id="GradientFill_216" data-name="GradientFill 216" x1="508.75" y1="42.61" x2="509.31" y2="44.7" gradientTransform="translate(542.48) rotate(-180) scale(1 -1)" gradientUnits="userSpaceOnUse">
      <stop offset="0" stop-color="#a6a69d"/>
      <stop offset="1" stop-color="#f1eee9"/>
    </linearGradient>
  </defs>
  <g class="cls-14">
    <g id="Layer_2" data-name="Layer 2">
      <g id="car_A1">
        <g>
          <path class="cls-9" d="M71.67,42.23l-6.61-3.79-.44-1.73,3.87-.95s4.42.27,4.51.41c.09.14-.02.88,0,1.04.02.16-1.34,5.02-1.34,5.02Z"/>
          <path class="cls-9" d="M37.92,61.5l-6.61-3.79-.44-1.73,3.87-.95s4.42.27,4.51.41c.09.14-.02.88,0,1.04.02.16-1.34,5.02-1.34,5.02Z"/>
          <g>
            <polygon class="cls-4" points="26.02 63.74 26.04 63.47 26.06 63.2 26.1 62.93 26.15 62.65 26.21 62.38 26.28 62.1 26.36 61.83 26.45 61.55 26.54 61.27 26.65 61 26.76 60.73 26.89 60.46 27.02 60.19 27.16 59.93 27.3 59.67 27.45 59.41 27.61 59.16 27.78 58.91 27.95 58.67 28.13 58.44 28.32 58.21 28.51 57.99 28.7 57.77 28.9 57.57 29.1 57.37 29.31 57.18 29.53 57 29.74 56.83 29.96 56.67 30.19 56.52 30.41 56.38 30.86 56.15 31.3 55.98 31.72 55.86 32.12 55.8 32.51 55.79 32.87 55.83 33.21 55.93 33.52 56.08 34.96 56.91 36.46 57.77 30.24 68.55 29.89 68.34 29.89 68.34 28.33 67.45 28.02 67.26 28.02 67.26 27.3 66.85 27.02 66.65 26.76 66.41 26.54 66.12 26.36 65.78 26.21 65.4 26.1 64.97 26.04 64.51 26.01 64 26.02 63.74"/>
            <path class="cls-8" d="M33.32,58.08c-2.43,1.4-4.4,4.81-4.4,7.62,0,2.8,1.97,3.94,4.4,2.54,2.43-1.4,4.4-4.81,4.4-7.62,0-2.8-1.97-3.94-4.4-2.54Z"/>
            <path class="cls-1" d="M33.35,60.17c-1.43.83-2.59,2.83-2.59,4.49s1.16,2.32,2.59,1.5c1.43-.83,2.59-2.83,2.59-4.49,0-1.65-1.16-2.32-2.59-1.5Z"/>
            <path class="cls-8" d="M33.35,61.76c-.34.19-.64.53-.86.91-.22.38-.36.81-.36,1.2,0,.39.14.66.36.79.22.13.52.11.86-.08.34-.19.64-.53.86-.91.22-.38.36-.81.36-1.2,0-.39-.14-.66-.36-.79-.22-.13-.52-.11-.86.08Z"/>
          </g>
          <g>
            <polygon class="cls-4" points="59.74 44.71 59.76 44.45 59.79 44.18 59.83 43.9 59.88 43.63 59.94 43.35 60.01 43.08 60.08 42.8 60.17 42.53 60.27 42.25 60.37 41.98 60.49 41.71 60.61 41.44 60.74 41.17 60.88 40.9 61.03 40.64 61.18 40.39 61.34 40.14 61.5 39.89 61.68 39.65 61.86 39.41 62.04 39.18 62.23 38.96 62.42 38.75 62.62 38.54 62.83 38.34 63.04 38.16 63.25 37.98 63.47 37.81 63.69 37.65 63.91 37.5 64.14 37.36 64.59 37.13 65.02 36.95 65.44 36.83 65.85 36.77 66.23 36.76 66.6 36.81 66.93 36.91 67.25 37.05 68.68 37.88 70.19 38.75 63.97 49.52 63.61 49.32 63.61 49.32 62.06 48.42 61.74 48.24 61.74 48.24 61.03 47.83 60.74 47.63 60.49 47.38 60.27 47.09 60.08 46.76 59.94 46.37 59.83 45.95 59.76 45.48 59.74 44.98 59.74 44.71"/>
            <path class="cls-8" d="M67.04,39.06c-2.43,1.4-4.4,4.81-4.4,7.62,0,2.8,1.97,3.94,4.4,2.54,2.43-1.4,4.4-4.81,4.4-7.62s-1.97-3.94-4.4-2.54Z"/>
            <path class="cls-1" d="M67.08,41.15c-1.43.83-2.59,2.83-2.59,4.49,0,1.65,1.16,2.32,2.59,1.5,1.43-.83,2.59-2.83,2.59-4.49,0-1.65-1.16-2.32-2.59-1.5Z"/>
            <path class="cls-8" d="M67.08,42.74c-.34.19-.64.53-.86.91-.22.38-.36.81-.36,1.2s.14.66.36.79c.22.13.52.11.86-.08.34-.19.64-.53.86-.91.22-.38.36-.81.36-1.2s-.14-.66-.36-.79c-.22-.13-.52-.11-.86.08Z"/>
          </g>
          <g>
            <path class="cls-2" d="M2.52,33.19c-.44-.25-.84-.28-1.13-.11-.29.17-.47.52-.47,1.03,0,.51.18,1.07.47,1.57.29.5.69.94,1.13,1.19.44.25.84.28,1.13.11.29-.17.47-.52.47-1.03s-.18-1.07-.47-1.57c-.29-.5-.69-.94-1.13-1.19Z"/>
            <path class="cls-10" d="M2.12,33.42c-.88-.51-1.6-.1-1.6.92,0,1.02.72,2.26,1.6,2.77.88.51,1.6.1,1.6-.92,0-1.02-.71-2.26-1.6-2.77Z"/>
          </g>
          <g>
            <path class="cls-12" d="M1,39.52v13.98c0,.91.37,1.78,1.47,2.42,2.65,1.53,5.3,3.06,7.95,4.59,2.65,1.53,5.3,3.06,7.95,4.59,1.1.64,2.62.91,4.19.85,0-4.66,0-9.32,0-13.98,0-3.84,2.71-8,4.32-13.56.25-.87.82-1.83,2.09-2.56L7.41,23.39c-1.27.73-1.84,1.69-2.09,2.56L1,39.52Z"/>
            <path class="cls-12" d="M22.56,65.95c1.56-.06,3.17-.47,4.44-1.21-2.14-11.3,25.33-23.04,32.16-26.98,6.83-3.94,11.78-4.67,13.24.99,1.27-.73,2.09-1.65,2.09-2.56,0-4.66,0-9.32,0-13.99,0-2.87-2.38-8.3-2.97-10.43-.05,0-.1,0-.16,0-1.56.06-2.05.93-3.32,1.66-6.16,3.56-7.62,4.4-13.78,7.96-6.16,3.56-21.44,12.16-27.6,15.71-1.27.73-1.84,1.69-2.09,2.56-1.61,5.56-2.01,8.45-2.01,12.3,0,4.66,0,9.32,0,13.98Z"/>
          </g>
          <path class="cls-11" d="M2.47,43.76c.85.49,2.65,1.53,3.5,2.03,2.59,1.65,3.3,4.05,3.77,6.68,1.18-1.97,3.12-2.45,5.19-1.73,1.66.96,2,1.24,3.69,2.12,1.97,1.02,2.76,1.24,4.32,1.18,1.56-.06,2.78-.72,4.05-1.45,6.83-3.94,22.78-12.93,29.61-16.87,6.83-3.94,8.96-5.17,15.79-9.12,1.27-.73,2.09-1.65,2.09-2.56,0,4.66,0,10.55,0,15.22,0,.91-.82,1.83-2.09,2.56l-.32.18-.31.18-.11.06v-2.08s0,0,0,0c0-3.21-2.26-4.51-5.04-2.91-2.78,1.61-5.04,5.51-5.04,8.72v2.08s-.83.48-.83.48l-.24.14-.25.14-.05.03-3.61,2.09-17.43,9.84-.13.08-1.13.65v-2.08s0,0,0,0c0-3.21-2.26-4.51-5.04-2.91-2.78,1.61-5.04,5.51-5.04,8.72v2.08h0c-.85.49.01,0-.84.49-1.27.73-2.88,1.14-4.44,1.21-1.56.06-3.09-.21-4.19-.85-2.65-1.53-5.3-3.06-7.95-4.59-2.65-1.53-5.3-3.06-7.95-4.59-1.1-.64-1.47-1.51-1.47-2.42,0-4.66,0-10.55,0-15.22,0,.91.37,1.78,1.47,2.42Z"/>
          <g>
            <polygon class="cls-10" points="71.91 39.16 71.91 42.46 72.93 43.05 72.93 39.74 71.91 39.16"/>
            <polygon class="cls-12" points="72.93 39.74 72.93 43.01 73.04 42.95 73.16 42.89 73.27 42.83 73.38 42.77 73.49 42.7 73.6 42.63 73.71 42.56 73.82 42.48 73.93 42.41 74.03 42.33 74.13 42.24 74.23 42.16 74.33 42.07 74.42 41.98 74.52 41.88 74.6 41.78 74.69 41.68 74.77 41.58 74.85 41.47 74.93 41.36 75 41.24 75.07 41.12 75.13 41 75.19 40.87 75.25 40.74 75.3 40.6 75.35 40.46 75.39 40.32 75.42 40.17 75.45 40.02 75.48 39.86 75.5 39.7 75.51 39.6 75.51 39.5 75.52 39.4 75.52 36.13 75.51 36.23 75.51 36.33 75.5 36.43 75.48 36.59 75.45 36.75 75.42 36.9 75.39 37.05 75.35 37.19 75.3 37.33 75.25 37.47 75.19 37.6 75.13 37.73 75.07 37.85 75 37.97 74.93 38.09 74.85 38.2 74.77 38.31 74.69 38.41 74.6 38.51 74.52 38.61 74.42 38.71 74.33 38.8 74.23 38.89 74.13 38.97 74.03 39.06 73.93 39.14 73.82 39.21 73.71 39.29 73.6 39.36 73.49 39.43 73.38 39.5 73.27 39.56 73.16 39.62 73.04 39.68 72.93 39.74"/>
            <path class="cls-2" d="M71.91,39.16l1.02.59c1.23-.61,2.39-1.56,2.57-3.31.11-1.08-.29-2-1-2.7v2.32s0,.25,0,.25c0,.91-.82,1.83-2.09,2.56l-.5.29Z"/>
          </g>
          <g>
            <path class="cls-7" d="M68.35,17.61l-1.41.81-6.18,3.57c-.2.11-.37.32-.5.57-.13.25-.21.53-.21.79v3.79s0,2.82,0,2.82c0,.26.08.45.21.55.13.1.31.1.5-.01l6.18-3.57,1.41-.81c.19-.11.37-.32.5-.57.13-.25.21-.53.21-.79v-2.82s0-3.78,0-3.78c0-.26-.08-.45-.21-.55-.13-.1-.31-.1-.5.01Z"/>
            <path class="cls-8" d="M60.13,30.34c.07,0,.15-.04.23-.08l6.18-3.57,1.41-.81c.19-.11.37-.32.5-.57.13-.25.21-.53.21-.79v-2.82s0-3.78,0-3.78c0-.15-.03-.28-.08-.38-.07,0-.15.04-.23.08l-1.41.81-6.18,3.57c-.2.11-.37.32-.5.57-.13.25-.21.53-.21.79v3.79s0,2.82,0,2.82c0,.15.03.28.08.38Z"/>
          </g>
          <g>
            <path class="cls-3" d="M56.38,24.7l-1.41.81-7.84,4.5c-.2.11-.37.32-.5.57-.13.25-.21.53-.21.79v3.79s0,2.82,0,2.82c0,.26.08.45.21.55.13.1.31.1.5-.01l7.84-4.5,1.41-.81c.19-.11.37-.32.5-.57.13-.25.21-.53.21-.79v-2.82s0-3.78,0-3.78c0-.26-.08-.45-.21-.55-.13-.1-.31-.1-.5.01Z"/>
            <path class="cls-8" d="M46.5,38.36c.07,0,.15-.04.23-.08l7.84-4.5,1.41-.81c.19-.11.37-.32.5-.57.13-.25.21-.53.21-.79v-2.82s0-3.78,0-3.78c0-.15-.03-.28-.08-.38-.07,0-.15.04-.23.08l-1.41.81-7.84,4.5c-.2.11-.37.32-.5.57-.13.25-.21.53-.21.79v3.79s0,2.82,0,2.82c0,.15.03.28.08.38Z"/>
          </g>
          <g>
            <path class="cls-6" d="M27.34,49.79c.66,0,1.5-.2,1.73-.26,2.7-.7,5.58-2.77,7.98-4.16h0c.19-.12.37-.33.49-.57.13-.25.21-.53.21-.79v-2.82s0-4.7,0-4.7c0-.53-.32-.52-.57-.53l-5.86,3.54c-.78.45-3.98,10.28-3.98,10.28Z"/>
            <path class="cls-8" d="M27.39,49.52c.63-.02,1.37-.2,1.58-.26,2.7-.7,5.32-2.7,7.72-4.09h0c.19-.12.37-.33.49-.57.13-.25.21-.53.21-.79v-2.82s0-4.7,0-4.7c0-.14-.02-.24-.06-.32-.05,0-.11,0-.16,0l-6.31,3.67c-.51.3-.89.78-1.05,1.35l-2.44,8.53Z"/>
          </g>
          <g>
            <path class="cls-4" d="M15.54,57.02c-1.4-.81-2.53-.15-2.53,1.46,0,1.61,1.13,3.57,2.53,4.38,1.4.81,2.53.15,2.53-1.46,0-1.61-1.13-3.57-2.53-4.38Z"/>
            <polygon class="cls-8" points="17.33 63.03 18.22 62.52 18.38 62.41 18.52 62.27 18.65 62.1 18.76 61.91 18.84 61.69 18.9 61.44 18.94 61.18 18.96 60.89 18.94 60.58 18.9 60.27 18.84 59.95 18.76 59.64 18.65 59.32 18.52 59.01 18.38 58.7 18.22 58.4 18.04 58.1 17.84 57.82 17.63 57.56 17.41 57.31 17.18 57.07 16.94 56.86 16.69 56.67 16.43 56.51 16.17 56.37 15.92 56.27 15.68 56.21 15.44 56.17 15.22 56.16 15.02 56.19 14.82 56.25 14.64 56.33 13.75 56.84 13.93 56.76 14.13 56.7 14.34 56.68 14.56 56.68 14.79 56.72 15.03 56.79 15.28 56.89 15.54 57.02 15.8 57.18 16.05 57.37 16.29 57.59 16.53 57.82 16.75 58.07 16.96 58.33 17.15 58.62 17.33 58.91 17.49 59.21 17.64 59.52 17.76 59.83 17.87 60.15 17.96 60.46 18.02 60.78 18.06 61.09 18.07 61.4 18.06 61.69 18.02 61.96 17.96 62.2 17.87 62.42 17.76 62.61 17.64 62.78 17.49 62.92 17.33 63.03"/>
            <path class="cls-2" d="M15.54,57.78c-1.03-.6-1.87-.11-1.87,1.08,0,1.19.84,2.64,1.87,3.24,1.03.6,1.87.11,1.87-1.08s-.84-2.64-1.87-3.24Z"/>
          </g>
          <g>
            <path class="cls-2" d="M28.31,46.95c-.47-.27-.89-.3-1.2-.12-.14.08-.28.16-.42.25-.31.18-.5.56-.5,1.1,0,.54.19,1.14.5,1.67.31.53.73,1,1.2,1.27.47.27.89.3,1.2.12.14-.08.28-.16.42-.25.31-.18.5-.56.5-1.1,0-.54-.19-1.14-.5-1.67-.31-.53-.73-1-1.2-1.27Z"/>
            <path class="cls-10" d="M27.89,47.19c-.94-.54-1.7-.1-1.7.98s.76,2.4,1.7,2.94c.94.54,1.7.1,1.7-.98s-.76-2.4-1.7-2.94Z"/>
            <path class="cls-10" d="M28.14,49.32c.09-.14.06-.32-.08-.42-.14-.09-.32-.06-.42.08,0,0-1.21,1.83-3.56,2.2-.16.03-.28.18-.25.34.03.16.18.28.34.25,2.6-.42,3.96-2.46,3.96-2.46Z"/>
          </g>
          <g>
            <path class="cls-12" d="M2,61.57l-.12-.07-.11-.07-.11-.07-.11-.08-.11-.08-.1-.08-.1-.09-.1-.09-.1-.09-.09-.09-.09-.1-.09-.1-.08-.1-.08-.1-.07-.11-.07-.11-.07-.11-.06-.11-.06-.11-.05-.12-.05-.12-.04-.12-.04-.12-.03-.12-.03-.13-.02-.13-.02-.13v-.13s-.01-3.3-.01-3.3v.13s.03.13.03.13l.02.13.03.13.03.12.04.12.04.12.05.12.05.12.06.11.06.11.07.11.07.11.07.1.08.1.08.1.09.1.09.1.09.09.1.09.1.09.1.09.1.08.11.08.11.08.11.07.11.07.12.07,15.91,9.18.13.07.13.07.14.07.14.06.14.06.14.06.14.05.14.05.15.05.15.05.15.04.15.04.15.04.15.04.15.03.15.03.15.03.15.03.15.02.15.02.15.02.15.02h.15s.15.02.15.02h.15s.15.02.15.02h.15s.15,0,.15,0h.15s.15,0,.15,0h.15s.15,0,.15,0h.16s.16-.02.16-.02h.16s.16-.03.16-.03l.16-.02.16-.02.16-.02.16-.02.16-.03.16-.03.16-.03.16-.03.16-.03.16-.04.16-.04.16-.04.16-.04.16-.04.16-.05.15-.05.15-.05.15-.05.15-.06.15-.06.15-.06.15-.06.15-.07.14-.07.14-.07.14-.07.14-.08.14-.08.57-.33v3.3s-.57.33-.57.33l-.14.08-.14.08-.14.07-.14.07-.14.07-.15.07-.15.06-.15.06-.15.06-.15.06-.15.05-.15.05-.15.05-.16.05-.16.04-.16.04-.16.04-.16.04-.16.04-.16.03-.16.03-.16.03-.16.03-.16.02-.16.02-.16.02-.16.02-.16.02h-.16s-.16.03-.16.03h-.16s-.16.02-.16.02h-.15s-.15,0-.15,0h-.15s-.15,0-.15,0h-.15s-.15,0-.15,0h-.15s-.15-.02-.15-.02h-.15s-.15-.02-.15-.02l-.15-.02-.15-.02-.15-.02-.15-.02-.15-.03-.15-.03-.15-.03-.15-.03-.15-.04-.15-.04-.15-.04-.15-.04-.15-.05-.15-.05-.14-.05-.14-.06-.14-.06-.14-.06-.14-.06-.14-.07-.13-.07-.13-.07L2,61.57h0ZM1.03,57.04v.09s0,.08,0,.08v-2.07s0-.08,0-.08v-.09s0-2.19,0-2.19v2.07s0,.13,0,.13v2.07Z"/>
            <path class="cls-2" d="M2,58.27l15.91,9.18c1.39.8,3.16,1.05,4.74.99,1.68-.07,3.45-.5,4.91-1.34l.57-.33-1.03-.6-.06.04c-1.27.73-2.88,1.14-4.44,1.21-1.56.06-3.08-.21-4.19-.85-2.65-1.53-5.3-3.06-7.95-4.59-2.65-1.53-5.3-3.06-7.95-4.59-1.1-.64-1.47-1.51-1.47-2.42v-2.19c-.52.58-.9,1.27-1,2.07-.19,1.5.72,2.71,1.97,3.43Z"/>
            <polygon class="cls-8" points="6.93 61.63 12.47 64.83 12.47 67.13 6.93 63.94 6.93 61.63"/>
          </g>
          <path class="cls-12" d="M36.36,50.27l2.01-1.17c.2-.11.36-.42.36-.69h0c0-.26-.16-.39-.36-.27l-2.01,1.17c-.2.11-.36.42-.36.69h0c0,.26.16.39.36.27Z"/>
          <path class="cls-12" d="M43.2,46.65l2.01-1.17c.2-.11.36-.42.36-.69h0c0-.26-.16-.39-.36-.27l-2.01,1.17c-.2.11-.36.42-.36.69h0c0,.26.16.39.36.27Z"/>
          <path class="cls-5" d="M40.78,59.66c-.1.03-.2.07-.31.12v-28.79h.31v28.67Z"/>
          <g>
            <path class="cls-2" d="M26.5,37.37c-1.35,0-2.58-.28-3.46-.78l-15.57-8.99c-.89-.51-1.33-1.21-1.23-1.95.1-.78.77-1.58,1.84-2.2l15.78-9.17L46.26,1.55c1.15-.66,2.62-1.06,4.16-1.13.14,0,.28,0,.41,0,1.35,0,2.58.28,3.46.78l15.57,8.99c.89.51,1.33,1.21,1.23,1.95-.1.78-.77,1.58-1.84,2.2l-13.49,7.79-24.7,14.11c-1.15.66-2.62,1.06-4.16,1.13-.14,0-.28,0-.41,0Z"/>
            <path class="cls-13" d="M50.84.84c1.28,0,2.43.26,3.25.73l7.78,4.49,7.78,4.49c.52.3,1.12.81,1.03,1.54-.08.65-.68,1.34-1.63,1.89l-13.48,7.78-24.71,14.11c-1.09.63-2.5,1.01-3.96,1.07-.13,0-.27,0-.4,0-1.28,0-2.43-.26-3.25-.73l-7.78-4.49-7.78-4.49c-.52-.3-1.12-.81-1.03-1.54.08-.65.68-1.34,1.64-1.89l15.77-9.17L46.48,1.91c1.09-.63,2.5-1.01,3.96-1.07.13,0,.27,0,.4,0M50.84,0c-.14,0-.29,0-.43,0-1.53.06-3.1.46-4.35,1.18l-22.41,12.72-15.78,9.17c-1.24.72-1.93,1.63-2.04,2.51-.11.88.36,1.74,1.44,2.37l7.78,4.49,7.78,4.49c.98.56,2.29.84,3.66.84.14,0,.29,0,.43,0,1.53-.06,3.1-.46,4.35-1.18l24.7-14.11,13.49-7.79c1.24-.72,1.93-1.63,2.04-2.51.11-.88-.36-1.74-1.44-2.37l-7.78-4.49-7.78-4.49c-.98-.56-2.29-.84-3.66-.84h0Z"/>
          </g>
          <path class="cls-8" d="M3.08,39.63l2.72-8.52c.21-.67.98-.97,1.59-.63l15.8,8.83c.55.31.8.95.61,1.55l-2.85,8.89c-.22.7-1.04,1.01-1.68.64l-15.59-9.17c-.55-.32-.8-.98-.61-1.59Z"/>
          <g>
            <path class="cls-4" d="M2.95,50.03c-1.4-.81-2.53-.15-2.53,1.46,0,1.61,1.13,3.57,2.53,4.38,1.4.81,2.53.15,2.53-1.46,0-1.61-1.13-3.57-2.53-4.38Z"/>
            <polygon class="cls-8" points="4.74 56.04 5.63 55.53 5.79 55.42 5.94 55.28 6.06 55.11 6.17 54.92 6.25 54.7 6.32 54.46 6.35 54.19 6.37 53.9 6.35 53.59 6.32 53.28 6.25 52.96 6.17 52.65 6.06 52.33 5.94 52.02 5.79 51.71 5.63 51.41 5.45 51.11 5.25 50.83 5.04 50.57 4.82 50.32 4.59 50.08 4.35 49.87 4.1 49.68 3.84 49.52 3.58 49.38 3.33 49.28 3.09 49.22 2.86 49.18 2.64 49.18 2.43 49.2 2.23 49.26 2.05 49.34 1.17 49.85 1.35 49.77 1.54 49.71 1.75 49.69 1.97 49.69 2.2 49.73 2.44 49.8 2.69 49.9 2.95 50.03 3.21 50.2 3.46 50.38 3.7 50.6 3.94 50.83 4.16 51.08 4.37 51.35 4.56 51.63 4.74 51.92 4.9 52.22 5.05 52.53 5.18 52.84 5.28 53.16 5.37 53.48 5.43 53.79 5.47 54.1 5.48 54.41 5.47 54.7 5.43 54.97 5.37 55.21 5.28 55.43 5.18 55.62 5.05 55.79 4.9 55.93 4.74 56.04"/>
            <path class="cls-2" d="M2.95,50.79c-1.03-.6-1.87-.11-1.87,1.08s.84,2.64,1.87,3.24c1.03.6,1.87.11,1.87-1.08s-.84-2.64-1.87-3.24Z"/>
          </g>
        </g>
      </g>
    </g>
  </g>
</svg>