<?xml version="1.0" encoding="UTF-8"?>
<svg xmlns="http://www.w3.org/2000/svg" viewBox="0 0 77.47 70.86">
  <defs>
    <style>
      .cls-1, .cls-2, .cls-3, .cls-4, .cls-5, .cls-6, .cls-7, .cls-8, .cls-9, .cls-10, .cls-11, .cls-12 {
        fill-rule: evenodd;
      }

      .cls-1, .cls-13 {
        fill: #efefef;
      }

      .cls-2 {
        fill: #fff;
      }

      .cls-3 {
        fill: #2e3235;
      }

      .cls-4 {
        fill: #d5d0c8;
        mix-blend-mode: multiply;
      }

      .cls-5 {
        fill: #ed1c24;
      }

      .cls-6 {
        fill: #d1ceca;
      }

      .cls-14 {
        isolation: isolate;
      }

      .cls-7 {
        fill: #474c52;
      }

      .cls-8 {
        fill: #1c1d1e;
      }

      .cls-15 {
        fill: #dcdddd;
      }

      .cls-9 {
        fill: #ffc60b;
      }

      .cls-10 {
        fill: #b2b1af;
      }

      .cls-11 {
        fill: #00a29a;
      }

      .cls-12 {
        fill: #e8e5e0;
      }
    </style>
  </defs>
  <g class="cls-14">
    <g id="Layer_2" data-name="Layer 2">
      <g id="car_A3">
        <g>
          <g>
            <path class="cls-3" d="M4.81,27.88c.89-.54,1.61-.1,1.61.98,0,1.08-.72,2.4-1.61,2.94-.89.54-1.61.1-1.61-.98,0-1.08.72-2.4,1.61-2.94Z"/>
            <polygon class="cls-7" points="3.68 31.92 3.11 31.58 3.01 31.5 2.92 31.41 2.83 31.3 2.77 31.17 2.71 31.02 2.67 30.85 2.65 30.67 2.64 30.48 2.65 30.27 2.67 30.06 2.71 29.85 2.77 29.64 2.83 29.43 2.92 29.22 3.01 29.01 3.11 28.81 3.23 28.61 3.35 28.42 3.48 28.24 3.62 28.08 3.77 27.92 3.93 27.78 4.08 27.65 4.25 27.54 4.41 27.45 4.57 27.38 4.73 27.34 4.88 27.31 5.02 27.31 5.15 27.33 5.27 27.36 5.39 27.42 5.95 27.77 5.84 27.71 5.71 27.67 5.58 27.65 5.44 27.66 5.29 27.68 5.14 27.73 4.98 27.79 4.81 27.88 4.65 27.99 4.49 28.12 4.34 28.26 4.19 28.42 4.05 28.59 3.91 28.77 3.79 28.95 3.68 29.15 3.57 29.35 3.48 29.56 3.4 29.77 3.33 29.98 3.28 30.2 3.24 30.41 3.21 30.62 3.21 30.82 3.21 31.02 3.24 31.2 3.28 31.36 3.33 31.51 3.4 31.64 3.48 31.75 3.57 31.85 3.68 31.92"/>
            <path class="cls-2" d="M4.81,28.39c.66-.4,1.19-.08,1.19.73,0,.8-.53,1.78-1.19,2.18-.66.4-1.19.08-1.19-.73s.53-1.78,1.19-2.18Z"/>
          </g>
          <path class="cls-8" d="M6.1,42.08l6.58-3.98.44-1.81-3.86-1s-4.4.29-4.49.43c-.09.14.02.93,0,1.09-.02.17,1.33,5.27,1.33,5.27Z"/>
          <path class="cls-8" d="M39.69,62.3l6.58-3.98.44-1.81-3.86-1s-4.4.29-4.49.43.02.93,0,1.09c-.02.17,1.33,5.27,1.33,5.27Z"/>
          <g>
            <polygon class="cls-3" points="51.61 65.03 51.59 64.75 51.57 64.47 51.53 64.18 51.48 63.89 51.42 63.6 51.35 63.31 51.27 63.02 51.18 62.73 51.09 62.45 50.98 62.16 50.87 61.87 50.75 61.59 50.62 61.31 50.48 61.03 50.33 60.76 50.18 60.49 50.02 60.22 49.86 59.97 49.69 59.71 49.51 59.47 49.33 59.23 49.14 58.99 48.94 58.77 48.74 58.55 48.54 58.34 48.33 58.15 48.12 57.96 47.91 57.78 47.69 57.61 47.46 57.46 47.24 57.31 46.79 57.07 46.36 56.88 45.94 56.76 45.54 56.69 45.15 56.68 44.79 56.73 44.45 56.83 44.14 56.99 42.71 57.86 41.22 58.77 47.41 70.08 47.76 69.87 47.76 69.87 49.31 68.92 49.62 68.73 49.62 68.73 50.33 68.3 50.62 68.09 50.87 67.83 51.09 67.53 51.27 67.17 51.42 66.77 51.53 66.33 51.59 65.84 51.62 65.31 51.61 65.03"/>
            <path class="cls-7" d="M44.35,59.09c2.42,1.47,4.38,5.05,4.38,8,0,2.94-1.96,4.14-4.38,2.67-2.42-1.47-4.38-5.05-4.38-8,0-2.94,1.96-4.14,4.38-2.67Z"/>
            <path class="cls-1" d="M44.31,61.29c1.42.87,2.58,2.98,2.58,4.71,0,1.73-1.15,2.44-2.58,1.57-1.42-.87-2.58-2.98-2.58-4.71,0-1.73,1.15-2.44,2.58-1.57Z"/>
            <path class="cls-7" d="M44.31,62.95c.33.2.64.55.85.95.22.4.35.85.35,1.26s-.14.69-.35.82c-.22.13-.52.11-.85-.09-.33-.2-.64-.55-.85-.95-.22-.4-.35-.85-.35-1.26s.14-.69.35-.82c.22-.13.52-.11.85.09Z"/>
          </g>
          <g>
            <polygon class="cls-3" points="18.05 44.66 18.03 44.38 18 44.1 17.96 43.81 17.91 43.52 17.86 43.24 17.79 42.95 17.71 42.66 17.62 42.37 17.52 42.08 17.42 41.79 17.31 41.5 17.18 41.22 17.05 40.94 16.92 40.66 16.77 40.39 16.62 40.12 16.46 39.86 16.29 39.6 16.12 39.34 15.95 39.1 15.76 38.86 15.57 38.62 15.38 38.4 15.18 38.18 14.98 37.98 14.77 37.78 14.56 37.59 14.34 37.41 14.12 37.24 13.9 37.09 13.68 36.94 13.23 36.7 12.79 36.51 12.37 36.39 11.97 36.32 11.59 36.32 11.23 36.36 10.89 36.46 10.58 36.62 9.15 37.49 7.65 38.4 13.84 49.71 14.2 49.5 14.19 49.5 15.74 48.56 16.06 48.36 16.06 48.36 16.77 47.93 17.05 47.72 17.31 47.47 17.52 47.16 17.71 46.81 17.86 46.41 17.96 45.96 18.03 45.47 18.05 44.94 18.05 44.66"/>
            <path class="cls-7" d="M10.78,38.72c2.42,1.47,4.38,5.05,4.38,8s-1.96,4.14-4.38,2.67c-2.42-1.47-4.38-5.05-4.38-8,0-2.94,1.96-4.14,4.38-2.67Z"/>
            <path class="cls-1" d="M10.75,40.92c1.42.87,2.58,2.98,2.58,4.71s-1.15,2.44-2.58,1.57c-1.42-.87-2.58-2.98-2.58-4.71,0-1.73,1.15-2.44,2.58-1.57Z"/>
            <path class="cls-7" d="M10.75,42.59c.33.2.64.55.85.95.22.4.35.85.35,1.26s-.14.69-.35.82c-.22.13-.52.11-.85-.09-.33-.2-.64-.55-.85-.95-.22-.4-.35-.85-.35-1.26s.14-.69.35-.82c.22-.13.52-.11.85.09Z"/>
          </g>
          <g>
            <path class="cls-12" d="M76.44,39.23c0,4.89,0,9.79,0,14.68,0,.96-.37,1.87-1.46,2.54-2.64,1.61-5.28,3.21-7.92,4.82-2.64,1.61-5.28,3.21-7.92,4.82-1.1.67-2.61.96-4.17.89v-14.68c0-4.03.63-6.13-.98-11.98-.25-.92-.81-1.92-2.08-2.69l21.46-13.07c1.27.77,1.83,1.78,2.08,2.69l.98,11.98Z"/>
            <path class="cls-12" d="M54.98,66.98c-1.56-.07-3.16-.5-4.42-1.27,2.13-11.87-25.21-24.19-32.01-28.33-6.8-4.14-11.73-4.91-13.18,1.04-1.27-.77-2.08-1.74-2.08-2.69,0-4.89,0-7.88,0-12.77,0-3.01,4.64-10.31,6.4-11.23.05,0,1.24.43,1.29.43,1.41.74,3.43,2.39,4.69,3.16,6.13,3.73,1.62,1.15,7.75,4.88,6.13,3.73,21.34,12.76,27.47,16.5,1.27.77,4.19,1.68,4.44,2.59,1.61,5.84-.36,8.97-.36,13.01v14.68Z"/>
          </g>
          <path class="cls-11" d="M74.97,43.68c-.85.52-2.5,1.92-3.35,2.44-2.06,1.75-2.76,3.52-3.23,6.28-.48-2.18-3.11-2.66-5.08-1.64-1.65,1.01-2.53,1.56-4.18,2.56-1.1.67-2.61.96-4.17.89-1.56-.07-3.16-.5-4.42-1.27-6.8-4.14-22.67-13.58-29.47-17.72-6.8-4.14-8.92-5.43-15.72-9.57-1.27-.77-2.08-1.74-2.08-2.69,0,4.89,0,11.08,0,15.98,0,.95.81,1.92,2.08,2.69l.32.19.31.19.11.07v-2.18h0c0-3.37,2.24-4.74,5.01-3.05,2.77,1.69,5.01,5.79,5.01,9.16v2.18l.83.51.24.15.25.15.05.03,3.6,2.19,17.35,10.33.13.08,1.12.68v-2.18h0c0-3.37,2.24-4.74,5.01-3.05,2.77,1.69,5.01,5.79,5.01,9.16v2.18h0c.85.52-.01,0,.84.51,1.27.77,2.86,1.2,4.42,1.27,1.56.07,3.07-.22,4.17-.89,2.64-1.61,5.28-3.21,7.92-4.82,2.64-1.61,5.28-3.21,7.92-4.82,1.1-.67,1.46-1.58,1.46-2.54,0-4.89,0-11.08,0-15.98,0,.96-.37,1.87-1.46,2.54Z"/>
          <g>
            <path class="cls-2" d="M39.83,35.11l1.4.86,7.1,4.3c.19.12.37.34.5.6.13.26.21.56.21.83v3.97s0,2.96,0,2.96c0,.27-.08.47-.21.58-.13.1-.31.11-.5-.01l-7.1-4.3-1.4-.86c-.19-.12-.37-.34-.5-.6-.13-.26-.21-.56-.21-.83v-6.94c0-.27.08-.47.21-.58.13-.1.3-.11.5.01Z"/>
            <path class="cls-7" d="M48.96,48.93c-.07,0-.15-.04-.23-.08l-7.1-4.2-1.4-.86c-.19-.12-.37-.34-.5-.6-.13-.26-.21-.56-.21-.83v-2.96s0-3.97,0-3.97c0-.16.03-.3.08-.4.07,0,.15.04.23.09l1.4.86,7.1,4.2c.19.12.37.34.5.6.13.26.21.56.21.83v3.97s0,2.96,0,2.96c0,.16-.03.3-.08.4Z"/>
          </g>
          <g>
            <path class="cls-2" d="M26.76,27.09l1.4.86,7.8,4.72c.19.12.37.34.5.6.13.26.21.56.21.83v3.97s0,2.96,0,2.96c0,.27-.08.47-.21.58-.13.1-.31.11-.5-.01l-7.8-4.72-1.4-.86c-.19-.12-.37-.34-.5-.6-.13-.26-.21-.56-.21-.83v-6.94c0-.27.08-.47.21-.58.13-.1.3-.11.5.01Z"/>
            <path class="cls-7" d="M36.6,41.43c-.07,0-.15-.04-.23-.08l-7.8-4.72-1.4-.86c-.19-.12-.37-.34-.5-.6-.13-.26-.21-.56-.21-.83v-6.94c0-.16.03-.3.08-.4.07,0,.15.04.23.09l1.4.86,7.8,4.72c.19.12.37.34.5.6.13.26.21.56.21.83v3.97s0,2.96,0,2.96c0,.16-.03.3-.08.4Z"/>
          </g>
          <g>
            <path class="cls-2" d="M73.34,32.33l-1.4.86-13.72,8.3c-.19.12-.37.34-.5.6-.13.26-.21.56-.21.83v3.97s0,2.96,0,2.96c0,.27.08.47.21.58.13.1.31.11.5-.01l13.72-8.3,1.4-.86c.19-.12.37-.34.5-.6.13-.26.21-.56.21-.83v-2.96s0-3.97,0-3.97c0-.27-.08-.47-.21-.58-.13-.1-.3-.11-.5.01Z"/>
            <path class="cls-7" d="M57.59,50.25c.07,0,.15-.04.23-.08l13.72-8.3,1.4-.86c.19-.12.37-.34.5-.6.13-.26.21-.56.21-.83v-2.96s0-3.97,0-3.97c0-.16-.03-.3-.08-.4-.07,0-.15.04-.23.09l-1.4.86-13.72,8.3c-.19.12-.37.34-.5.6-.13.26-.21.56-.21.83v3.97s0,2.96,0,2.96c0,.16.03.3.08.4Z"/>
          </g>
          <g>
            <path class="cls-6" d="M1.59,19.08c.44-.27.84-.29,1.12-.12.13.08.27.16.4.24.29.18.47.55.47,1.09s-.18,1.13-.47,1.65c-.29.53-.69.99-1.12,1.25-.44.27-.84.29-1.12.12-.13-.08-.26-.16-.4-.24C.18,22.9,0,22.52,0,21.99s.18-1.13.47-1.65c.29-.53.69-.99,1.12-1.25Z"/>
            <path class="cls-10" d="M1.76,21.43c-.09-.14-.05-.32.08-.41.13-.09.3-.06.39.08,0,0,1.14,1.81,3.34,2.18.15.03.26.18.23.34-.02.16-.17.27-.32.25-2.44-.42-3.71-2.43-3.71-2.44Z"/>
            <g>
              <path class="cls-2" d="M1.28,22.93c-.35,0-.38-.53-.38-.7,0-.9.62-2.03,1.35-2.48.21-.13.36-.16.45-.16.35,0,.38.53.38.7,0,.9-.62,2.03-1.35,2.48-.21.13-.36.16-.45.16Z"/>
              <path class="cls-15" d="M2.57,20.14s0,.09,0,.15c0,.72-.53,1.7-1.11,2.05-.02.01-.04.03-.06.03,0-.04,0-.09,0-.15,0-.72.53-1.7,1.11-2.05.02-.01.04-.02.06-.03M2.7,19.09c-.21,0-.46.07-.71.23-.88.54-1.59,1.84-1.59,2.91,0,.76.36,1.2.88,1.2.21,0,.46-.07.71-.23.88-.54,1.59-1.84,1.59-2.91,0-.76-.36-1.2-.88-1.2h0Z"/>
            </g>
          </g>
          <g>
            <path class="cls-2" d="M54.38,39.23c1.35,0,2.57-.29,3.44-.82l15.49-9.44c.88-.54,1.32-1.27,1.23-2.05-.1-.82-.76-1.66-1.83-2.31l-19.02-11.9L34.71,1.63c-1.15-.7-2.62-1.12-4.14-1.19-.14,0-.28,0-.41,0-1.35,0-2.57.29-3.44.82l-15.49,9.44c-.88.54-1.32,1.27-1.23,2.05.1.82.76,1.66,1.83,2.31l10.1,5.9,27.91,17.08c1.14.69,2.61,1.11,4.13,1.18.14,0,.28,0,.41,0Z"/>
            <path class="cls-13" d="M30.16.88c.13,0,.26,0,.4,0,1.46.06,2.86.46,3.94,1.12l18.99,11.09,19.01,11.89c.96.59,1.55,1.31,1.63,1.99.09.77-.51,1.3-1.02,1.62l-7.75,4.72-7.75,4.72c-.81.49-1.96.76-3.23.76-.13,0-.26,0-.4,0-1.46-.06-2.86-.46-3.94-1.12l-27.9-17.08-10.12-5.92c-.94-.57-1.53-1.3-1.61-1.98-.09-.77.51-1.3,1.02-1.62l7.75-4.72,7.75-4.72c.81-.49,1.96-.76,3.23-.76M30.16,0c-1.37,0-2.68.29-3.65.88l-7.75,4.72-7.75,4.72c-1.07.65-1.54,1.56-1.43,2.48.11.93.8,1.88,2.03,2.63l10.1,5.91,27.9,17.08c1.24.75,2.8,1.17,4.33,1.24.14,0,.29,0,.43,0,1.37,0,2.68-.29,3.65-.88l7.75-4.72,7.75-4.72c1.07-.65,1.54-1.56,1.43-2.48-.11-.93-.8-1.88-2.03-2.64l-19.02-11.89L34.91,1.25C33.67.49,32.11.08,30.59,0,30.44,0,30.3,0,30.16,0h0Z"/>
          </g>
          <g>
            <polygon class="cls-10" points="6.11 38.31 6.11 42.13 5 42.81 5 38.99 6.11 38.31"/>
            <polygon class="cls-12" points="5 38.99 5 42.77 4.87 42.7 4.75 42.63 4.62 42.56 4.5 42.48 4.38 42.41 4.26 42.33 4.14 42.24 4.02 42.16 3.9 42.07 3.79 41.97 3.68 41.88 3.57 41.78 3.46 41.68 3.36 41.57 3.26 41.46 3.16 41.35 3.06 41.23 2.97 41.11 2.89 40.98 2.8 40.85 2.72 40.72 2.65 40.58 2.58 40.44 2.51 40.29 2.45 40.14 2.4 39.98 2.35 39.82 2.3 39.65 2.26 39.48 2.23 39.31 2.2 39.12 2.18 38.94 2.17 38.82 2.16 38.7 2.16 38.59 2.16 34.81 2.16 34.92 2.17 35.04 2.18 35.15 2.2 35.34 2.23 35.52 2.26 35.7 2.3 35.87 2.35 36.04 2.4 36.2 2.45 36.36 2.51 36.51 2.58 36.66 2.65 36.8 2.72 36.94 2.8 37.07 2.89 37.2 2.97 37.33 3.06 37.45 3.16 37.56 3.26 37.68 3.36 37.79 3.46 37.89 3.57 38 3.68 38.1 3.79 38.19 3.9 38.29 4.02 38.37 4.14 38.46 4.26 38.54 4.38 38.62 4.5 38.7 4.62 38.78 4.75 38.85 4.87 38.92 5 38.99"/>
            <path class="cls-2" d="M6.11,38.31l-1.12.68c-1.34-.71-2.62-1.81-2.82-3.83-.12-1.25.32-2.31,1.1-3.12v2.68s0,.29,0,.29c0,1.05.9,2.12,2.29,2.97l.55.33Z"/>
          </g>
          <g>
            <path class="cls-3" d="M60.2,60.2c.71-.43,1.29-.08,1.29.78s-.58,1.92-1.29,2.35c-.71.43-1.29.08-1.29-.78s.58-1.92,1.29-2.35Z"/>
            <polygon class="cls-7" points="59.29 63.43 58.84 63.15 58.75 63.09 58.68 63.02 58.62 62.93 58.56 62.82 58.52 62.71 58.49 62.58 58.47 62.43 58.46 62.28 58.47 62.11 58.49 61.94 58.52 61.77 58.56 61.6 58.62 61.43 58.68 61.26 58.75 61.1 58.84 60.94 58.93 60.78 59.03 60.63 59.13 60.49 59.25 60.35 59.37 60.23 59.49 60.11 59.62 60.01 59.75 59.92 59.88 59.85 60.01 59.8 60.13 59.76 60.25 59.74 60.36 59.74 60.47 59.75 60.57 59.78 60.66 59.83 61.11 60.1 61.02 60.06 60.92 60.03 60.81 60.01 60.7 60.02 60.58 60.03 60.46 60.07 60.33 60.13 60.2 60.2 60.07 60.29 59.94 60.39 59.82 60.5 59.7 60.63 59.59 60.76 59.48 60.9 59.38 61.05 59.29 61.21 59.21 61.37 59.13 61.54 59.07 61.71 59.01 61.88 58.97 62.05 58.94 62.22 58.92 62.39 58.91 62.55 58.92 62.71 58.94 62.85 58.97 62.98 59.01 63.1 59.07 63.2 59.13 63.29 59.21 63.37 59.29 63.43"/>
            <path class="cls-5" d="M60.2,60.6c.53-.32.95-.06.95.58,0,.64-.43,1.42-.95,1.74-.53.32-.95.06-.95-.58s.43-1.42.95-1.74Z"/>
          </g>
          <g>
            <path class="cls-3" d="M60.12,57.26c.46-.28.83-.05.83.51s-.37,1.24-.83,1.52c-.46.28-.83.05-.83-.51s.37-1.24.83-1.52Z"/>
            <polygon class="cls-7" points="59.53 59.35 59.24 59.17 59.19 59.13 59.14 59.08 59.1 59.02 59.06 58.96 59.04 58.88 59.02 58.8 59 58.7 59 58.6 59 58.5 59.02 58.39 59.04 58.28 59.06 58.17 59.1 58.06 59.14 57.95 59.19 57.84 59.24 57.74 59.3 57.64 59.36 57.54 59.43 57.45 59.51 57.36 59.58 57.28 59.66 57.21 59.74 57.14 59.83 57.09 59.91 57.04 60 57.01 60.08 56.98 60.15 56.97 60.22 56.97 60.29 56.98 60.36 57 60.42 57.03 60.71 57.2 60.65 57.17 60.58 57.15 60.52 57.14 60.44 57.15 60.37 57.16 60.29 57.18 60.2 57.22 60.12 57.26 60.03 57.32 59.95 57.39 59.87 57.46 59.8 57.54 59.72 57.63 59.66 57.72 59.59 57.82 59.53 57.92 59.48 58.02 59.43 58.13 59.39 58.24 59.36 58.35 59.33 58.46 59.31 58.57 59.29 58.67 59.29 58.78 59.29 58.88 59.31 58.97 59.33 59.06 59.36 59.13 59.39 59.2 59.43 59.26 59.48 59.31 59.53 59.35"/>
            <path class="cls-9" d="M60.12,57.53c.34-.21.61-.04.61.37s-.28.92-.61,1.12c-.34.21-.61.04-.61-.37s.28-.92.61-1.12Z"/>
          </g>
          <g>
            <path class="cls-12" d="M75.48,60.17l-15.83,9.64-.13.08-.13.07-.13.07-.14.07-.14.06-.14.06-.14.06-.14.05-.14.05-.15.05-.15.05-.15.04-.15.04-.15.04-.15.03-.15.03-.15.03-.15.03-.15.02-.15.02-.15.02-.15.02h-.15s-.15.03-.15.03h-.15s-.15.02-.15.02h-.15s-.15,0-.15,0h-.15s-.15,0-.15,0h-.15s-.15,0-.15,0h-.16s-.16-.02-.16-.02h-.16s-.16-.03-.16-.03l-.16-.02-.16-.02-.16-.02-.16-.02-.16-.03-.16-.03-.16-.03-.16-.03-.16-.04-.16-.04-.16-.04-.16-.04-.16-.04-.15-.05-.15-.05-.15-.05-.15-.05-.15-.06-.15-.06-.15-.06-.15-.06-.15-.07-.15-.07-.14-.07-.14-.07-.14-.08-.14-.08-.14-.08-.57-.35v-3.46l.57.34.14.08.14.08.14.08.14.07.14.07.15.07.15.07.15.06.15.06.15.06.15.06.15.05.15.05.15.05.15.05.16.04.16.04.16.04.16.04.16.04.16.03.16.03.16.03.16.03.16.02.16.02.16.02.16.02h.16s.16.03.16.03h.16s.16.02.16.02h.15s.15,0,.15,0h.15s.15,0,.15,0h.15s.15,0,.15,0h.15s.15-.02.15-.02h.15s.15-.03.15-.03l.15-.02.15-.02.15-.02.15-.02.15-.03.15-.03.15-.03.15-.03.15-.04.15-.04.15-.04.15-.05.15-.05.14-.05.14-.05.14-.06.14-.06.14-.06.14-.07.13-.07.13-.07.13-.08,15.83-9.64.12-.07.11-.08.11-.08.11-.08.11-.08.1-.09.1-.09.1-.09.09-.1.09-.1.09-.1.08-.1.08-.11.08-.11.07-.11.07-.11.07-.12.06-.12.06-.12.05-.12.05-.12.04-.13.04-.13.03-.13.03-.13.02-.14.02-.14v-.14s0,3.46,0,3.46v.14s-.03.14-.03.14l-.02.14-.03.13-.03.13-.04.13-.04.13-.05.12-.05.12-.06.12-.06.12-.07.12-.07.11-.07.11-.08.11-.08.11-.08.1-.09.1-.09.1-.09.1-.1.09-.1.09-.1.09-.11.08-.11.08-.11.08-.11.08-.12.07h0ZM76.45,53.24v-2.3s0,2.3,0,2.3v.09s0,.09,0,.09v2.17-.09s0-.09,0-.09v-2.17Z"/>
            <path class="cls-2" d="M75.48,56.71l-15.83,9.64c-1.38.84-3.14,1.1-4.72,1.03-1.67-.07-3.44-.53-4.89-1.41l-.57-.34,1.03-.63.06.04c1.27.77,2.86,1.2,4.42,1.27,1.56.07,3.07-.22,4.17-.89,2.64-1.61,5.28-3.21,7.92-4.82,2.64-1.61,5.28-3.21,7.92-4.82,1.1-.67,1.46-1.58,1.46-2.54v-2.3c.52.61.9,1.34,1,2.17.19,1.58-.72,2.84-1.97,3.6Z"/>
            <polygon class="cls-7" points="71.94 59.37 66.43 62.73 66.43 65.14 71.94 61.79 71.94 59.37"/>
          </g>
          <path class="cls-12" d="M17.56,36.62l-1.98-1.21c-.19-.12-.35-.44-.35-.72h0c0-.27.16-.4.35-.28l1.98,1.21c.19.12.35.44.35.71h0c0,.27-.16.4-.35.28Z"/>
          <path class="cls-12" d="M25.64,41.54l-1.98-1.21c-.19-.12-.35-.44-.35-.72h0c0-.27.16-.4.35-.28l1.98,1.21c.19.12.35.44.35.71h0c0,.27-.16.4-.35.28Z"/>
          <path class="cls-4" d="M19.97,50.01c.1.03.2.06.31.1v-29.65s-.31,0-.31,0v29.55Z"/>
          <g>
            <path class="cls-3" d="M74.59,51.63c.71-.43,1.29-.08,1.29.78s-.58,1.92-1.29,2.35c-.71.43-1.29.08-1.29-.78s.58-1.92,1.29-2.35Z"/>
            <polygon class="cls-7" points="73.68 54.86 73.23 54.59 73.15 54.53 73.07 54.45 73.01 54.36 72.96 54.26 72.91 54.14 72.88 54.01 72.86 53.87 72.85 53.71 72.86 53.55 72.88 53.38 72.91 53.21 72.96 53.04 73.01 52.87 73.07 52.7 73.15 52.53 73.23 52.37 73.32 52.21 73.42 52.06 73.53 51.92 73.64 51.79 73.76 51.66 73.88 51.55 74.01 51.45 74.14 51.36 74.27 51.29 74.4 51.23 74.52 51.19 74.64 51.18 74.76 51.17 74.86 51.19 74.96 51.22 75.05 51.26 75.5 51.54 75.41 51.49 75.31 51.46 75.21 51.45 75.1 51.45 74.98 51.47 74.85 51.51 74.73 51.56 74.59 51.63 74.46 51.72 74.33 51.82 74.21 51.94 74.09 52.06 73.98 52.2 73.87 52.34 73.77 52.49 73.68 52.65 73.6 52.81 73.53 52.97 73.46 53.14 73.41 53.31 73.36 53.48 73.33 53.65 73.31 53.82 73.31 53.99 73.31 54.14 73.33 54.29 73.36 54.42 73.41 54.53 73.46 54.64 73.53 54.73 73.6 54.8 73.68 54.86"/>
            <path class="cls-5" d="M74.59,52.04c.53-.32.95-.06.95.58,0,.64-.43,1.42-.95,1.74-.53.32-.95.06-.95-.58s.43-1.42.95-1.74Z"/>
          </g>
          <g>
            <path class="cls-3" d="M74.51,48.7c.46-.28.83-.05.83.51s-.37,1.24-.83,1.52c-.46.28-.83.05-.83-.51s.37-1.24.83-1.52Z"/>
            <polygon class="cls-7" points="73.93 50.78 73.64 50.6 73.58 50.57 73.53 50.52 73.49 50.46 73.46 50.39 73.43 50.32 73.41 50.23 73.4 50.14 73.39 50.04 73.4 49.93 73.41 49.82 73.43 49.71 73.46 49.6 73.49 49.49 73.53 49.39 73.58 49.28 73.64 49.18 73.69 49.07 73.76 48.98 73.83 48.88 73.9 48.8 73.98 48.72 74.06 48.64 74.14 48.58 74.22 48.52 74.31 48.48 74.39 48.44 74.47 48.42 74.55 48.4 74.62 48.4 74.69 48.41 74.75 48.43 74.81 48.46 75.1 48.64 75.04 48.61 74.98 48.59 74.91 48.58 74.84 48.58 74.76 48.59 74.68 48.62 74.6 48.65 74.51 48.7 74.43 48.76 74.35 48.82 74.27 48.89 74.19 48.97 74.12 49.06 74.05 49.15 73.99 49.25 73.93 49.35 73.87 49.46 73.83 49.56 73.78 49.67 73.75 49.78 73.72 49.89 73.7 50 73.69 50.11 73.68 50.22 73.69 50.32 73.7 50.41 73.72 50.49 73.75 50.57 73.78 50.64 73.83 50.69 73.87 50.74 73.93 50.78"/>
            <path class="cls-9" d="M74.51,48.96c.34-.21.61-.04.61.37s-.28.92-.61,1.12c-.34.21-.61.04-.61-.37s.28-.92.61-1.12Z"/>
          </g>
          <path class="cls-2" d="M16.79,28.44c0,.49-.57.61-.97.36l-9.38-5.68c-.5-.31-.61-1.02-.23-1.48l3.57-4.35c.24-.3.64-.37.97-.18l3.58,3.75c.44.26,2.46,7.58,2.46,7.58Z"/>
          <path class="cls-7" d="M16.94,21.36l-.11,7.05c0,.29-.3.47-.53.32l-9.71-6c-.26-.17-.25-.63-.02-.92l3.64-4.57c.16-.2.44-.25.65-.12l5.49,3.19c.36.21.58.61.58,1.05Z"/>
        </g>
      </g>
    </g>
  </g>
</svg>