<?xml version="1.0" encoding="UTF-8"?>
<svg xmlns="http://www.w3.org/2000/svg" xmlns:xlink="http://www.w3.org/1999/xlink" viewBox="0 0 77.98 51.97">
  <defs>
    <style>
      .cls-1 {
        fill: #dbdfe0;
      }

      .cls-2 {
        fill: #a00000;
      }

      .cls-3 {
        fill: #727171;
      }

      .cls-4 {
        fill: #b99e4a;
        mix-blend-mode: multiply;
        opacity: .4;
      }

      .cls-5 {
        fill: #3a88d1;
      }

      .cls-6 {
        fill: #232221;
      }

      .cls-7 {
        fill: url(#linear-gradient-5);
      }

      .cls-8 {
        fill: url(#linear-gradient-4);
      }

      .cls-9 {
        fill: url(#linear-gradient-3);
      }

      .cls-10 {
        fill: #cde8e8;
      }

      .cls-11 {
        fill: #9fa0a0;
      }

      .cls-12 {
        isolation: isolate;
      }

      .cls-13 {
        fill: #b79c43;
        opacity: .6;
      }

      .cls-14 {
        fill: #048ceb;
      }

      .cls-15 {
        fill: url(#linear-gradient-2);
      }

      .cls-15, .cls-16 {
        opacity: .5;
      }

      .cls-16 {
        fill: url(#linear-gradient);
      }

      .cls-17 {
        fill: #353433;
      }

      .cls-18 {
        fill: #597139;
      }

      .cls-19 {
        opacity: .3;
      }

      .cls-20 {
        fill: #262523;
      }

      .cls-21 {
        fill: #40a6ed;
      }

      .cls-22 {
        fill: #3baeff;
      }

      .cls-23 {
        fill: #151b1c;
      }

      .cls-24 {
        fill: #ffa836;
      }

      .cls-25 {
        fill: #3276b5;
      }

      .cls-26 {
        fill: #b5e9ff;
      }
    </style>
    <linearGradient id="linear-gradient" x1="-1499.41" y1="45.15" x2="-1492.68" y2="45.15" gradientTransform="translate(1541.25)" gradientUnits="userSpaceOnUse">
      <stop offset="0" stop-color="#323232"/>
      <stop offset=".63" stop-color="#201f1d"/>
      <stop offset="1" stop-color="#12100c"/>
    </linearGradient>
    <linearGradient id="linear-gradient-2" x1="-1536.88" y1="24.22" x2="-1530.15" y2="24.22" xlink:href="#linear-gradient"/>
    <linearGradient id="linear-gradient-3" x1="-1975.19" y1="23.49" x2="-1947.65" y2="23.49" gradientTransform="translate(1994.95)" gradientUnits="userSpaceOnUse">
      <stop offset="0" stop-color="#323538"/>
      <stop offset="1" stop-color="#2b2b2d"/>
    </linearGradient>
    <linearGradient id="linear-gradient-4" x1="-1974.64" y1="9.58" x2="-1949.27" y2="9.58" xlink:href="#linear-gradient-3"/>
    <linearGradient id="linear-gradient-5" x1="-1947.86" y1="23.14" x2="-1927.07" y2="23.14" xlink:href="#linear-gradient-3"/>
  </defs>
  <g class="cls-12">
    <g id="Layer_2" data-name="Layer 2">
      <g id="car_C3">
        <g>
          <g>
            <path class="cls-22" d="M42.78,2.64c-.36-.24-4.34.93-4.35,1.33-.02.76,1.25,1.66,1.53,1.7.7.11,2.17-.77,2.35-.93.26-.22.91-1.12.87-1.66,0-.14-.33-.4-.41-.45Z"/>
            <path class="cls-11" d="M43.08,2.91c-.35-.23-4.24.95-4.25,1.35-.02.74.89,1.39,1.17,1.43.7.1,2.44-.55,2.61-.7.33-.28.82-1.84.46-2.08Z"/>
            <path class="cls-26" d="M40.03,5.52c-.17-.03-1.01-.59-.99-1.24.23-.32,3.52-1.34,3.96-1.22,0,0,.03.04.04.18.02.53-.34,1.46-.54,1.63-.15.12-1.84.75-2.48.65Z"/>
          </g>
          <g>
            <path class="cls-20" d="M4.19,14.83l-1.09.98c-.88.51-1.43,4.82-.73,5.99l12.21-8.93c.09-1.47,8.62-7.75,9.5-8.26L4.19,14.83Z"/>
            <path class="cls-20" d="M39.34,35.78s.18,6.95.82,7.87l5.89-3.44,12.97-7.93c.08-1.48,1.27-2.85,2.15-3.36l-21.81,6.86Z"/>
          </g>
          <g>
            <g class="cls-12">
              <path class="cls-6" d="M51.67,42.85c-.46-1.03-1.08-2.02-1.82-2.85-.62-.7-1.31-1.3-2.05-1.72-1.3-.75-2.49-.82-3.34-.33l-2.58,1.5c.85-.5,2.03-.43,3.34.33.74.43,1.43,1.02,2.05,1.73.73.84,1.36,1.82,1.81,2.85.51,1.16.81,2.38.81,3.51,0,1.48-.53,2.52-1.37,3.01l2.58-1.5c.84-.49,1.36-1.53,1.37-3.01,0-1.13-.3-2.35-.81-3.51Z"/>
              <path class="cls-17" d="M45.22,39.77c-2.59-1.5-4.7-.3-4.71,2.68,0,2.98,2.08,6.6,4.67,8.1,2.59,1.5,4.7.3,4.71-2.68,0-2.97-2.08-6.6-4.67-8.09Z"/>
            </g>
            <path class="cls-16" d="M45.22,41.29c-1.86-1.07-3.37-.21-3.38,1.92,0,2.14,1.5,4.74,3.35,5.81,1.86,1.07,3.37.21,3.38-1.92,0-2.13-1.5-4.73-3.35-5.81Z"/>
            <path class="cls-1" d="M45.41,42.27c-1.26-.76-2.3-.2-2.34,1.25-.03,1.45.96,3.24,2.22,4s2.3.2,2.34-1.25c.03-1.45-.96-3.24-2.22-4Z"/>
          </g>
          <g>
            <g class="cls-12">
              <path class="cls-6" d="M14.2,21.92c-.46-1.03-1.08-2.02-1.82-2.85-.62-.7-1.31-1.3-2.05-1.72-1.3-.75-2.49-.82-3.34-.33l-2.58,1.5c.85-.5,2.03-.43,3.34.33.74.43,1.43,1.02,2.05,1.73.73.84,1.36,1.82,1.81,2.85.51,1.16.81,2.38.81,3.51,0,1.48-.53,2.52-1.37,3.01l2.58-1.5c.84-.49,1.36-1.53,1.37-3.01,0-1.13-.3-2.35-.81-3.51Z"/>
              <path class="cls-17" d="M7.75,18.84c-2.59-1.5-4.7-.3-4.71,2.68,0,2.98,2.08,6.6,4.67,8.1,2.59,1.5,4.7.3,4.71-2.68,0-2.97-2.08-6.6-4.67-8.09Z"/>
            </g>
            <path class="cls-15" d="M7.75,20.36c-1.86-1.07-3.37-.21-3.38,1.92,0,2.14,1.5,4.74,3.35,5.81,1.86,1.07,3.37.21,3.38-1.92,0-2.13-1.5-4.73-3.35-5.81Z"/>
            <path class="cls-1" d="M7.94,21.34c-1.26-.76-2.3-.2-2.34,1.25-.03,1.45.96,3.24,2.22,4,1.26.76,2.3.2,2.34-1.25.03-1.45-.96-3.24-2.22-4Z"/>
          </g>
          <path class="cls-5" d="M35.62,34.71l-16.73-9.86-5.52.03s-.1,2.47-.29,3.12l27.08,15.67v-3.39s-4.54-5.56-4.54-5.56Z"/>
          <path class="cls-25" d="M76.67,34.87s-.98-4.42-1.2-6.57c-.07-.68-.42-1.3-.98-1.7l-5.05-3.75s-6.35-6.84-8.64-9.13c-.4-.4-.84-.74-1.32-1.01l-12.52-7.22c-.67-.39-1.4-.65-2.17-.76-2.01-.3-6.65-.59-6.86-.68-1.99-.86-13.43-5.54-19.22-3.56,0,0-8.4,2.99-13.4,6.8-1.79,1.36-3.07,3.26-3.69,5.38-.05,0-1.21,1.18-1.21,1.18C.41,13.85.03,17.12,0,19.08c-.02,1.06.44,2.07,1.23,2.78.59.53,1.14.91,1.14.91,0,0,0-8.33,5.69-5.7.06.03.11.06.17.1,2.74,1.58,5,5.42,5.13,8.73l26.81,15.42c.17-2.98,2.3-4.24,4.98-2.8.06.03.11.06.17.09,2.7,1.56,5.83,5.02,5.83,11.05,0,0,2.82,1.73,5.42,2.2.65.26,2.17.05,2.84-.18,5.55-1.94,18.71-10.36,18.52-11.94l.06-3.15c0-.85-1.3-1.7-1.3-1.7Z"/>
          <g class="cls-19">
            <path class="cls-4" d="M33.22,24.27l-.24-.16-1.21,3.27v9.04s-13.86-8.05-13.86-8.05c-.05-.42.27-6.7.35-8.1.06-1.14,1.09-3.94,1.09-3.94l-.34-.09c-.02.06-1.04,3.09-1.09,3.86-.1,1.48-.38,8.45-.38,8.45l14.5,8.36v-9.32s1.18-3.32,1.18-3.32Z"/>
          </g>
          <path class="cls-13" d="M47.41,22.98c-.07.03-.13.08-.18.13-.12-.17-.26-.36-.42-.53-.6-.64-14.25-8.18-15.68-9.12-.24-.15-.58-.17-.96-.18.12-.05.22-.13.3-.22.27.01.52.03.71.14,1.84,1.12,13.07,7.3,15.84,9.23.15.1.26.31.39.55ZM61.14,15.03c-.93-1.68-11.78-7.91-14.78-9.41-.27-.13-1.27-.37-2.12-.56-.03.05-.05.1-.09.15.88.2,1.79.44,1.97.51,2.03.86,14.29,7.98,14.86,9.38.02.05.29.15.17-.06Z"/>
          <path class="cls-14" d="M10.4,14.01c3.36,1.75,6.16,1.33,8.48,1.04,4.23-.52,9.76-1.04,11.3-1.18.27-.03.54.03.78.17,2.32,1.31,11.53,6.68,14.54,8.57.64.4,1.16.94,1.54,1.59,1.7,2.95,4.95,8.48,5.75,9.58,1.33,2.08,1.68,3.21,4.22,4.32.93.41,1.99.41,2.95.05,5.67-2.15,14.38-8.31,15.36-10.57-.17-.39-.43-.74-.78-1l-5.08-3.72s-6.39-6.88-8.66-9.15c-.39-.39-.83-.72-1.3-.99l-12.52-7.22c-.67-.39-1.4-.65-2.17-.76-2.01-.3-6.65-.59-6.86-.68-1.99-.86-13.43-5.54-19.22-3.56,0,0-8.4,2.99-13.4,6.8h-.01c-1.86,2.32,2.95,5.6,5.1,6.73Z"/>
          <path class="cls-9" d="M19.76,16.3l27.54,15.86c0-2.89-1.94-8.56-4.3-10.07-2.99-1.92-9.41-5.67-11.8-7.06-.29-.17-.61-.23-.94-.19-2.09.26-10.01,1.26-10.49,1.46Z"/>
          <path class="cls-8" d="M37.62,4.6c-2.13.42-10.1,2.49-17.31,9.97l11.13-1.2c8.47-6.69,14.24-8.16,14.24-8.16-1.78-.29-7.79-.66-8.06-.61Z"/>
          <path class="cls-7" d="M53.99,31.46c4.13-1.13,10.87-4.15,13.72-8.13.24-.34.23-.82-.02-1.15-2.21-3-3.96-4.69-6.64-7.41-2.61,2.94-9.9,6.61-13.95,8.03l4.93,7.91c.42.66,1.21.96,1.97.76Z"/>
          <path class="cls-23" d="M20.29,16.39l27.1,15.61-.27.16h0c0-.74-.11-1.49-.26-2.23-.15-.74-.34-1.47-.58-2.19-.47-1.43-1.08-2.84-1.94-4.07-.43-.61-.93-1.18-1.56-1.56l-1.96-1.17-3.93-2.34-3.93-2.34c-.65-.38-1.32-.8-1.95-1.15-.32-.15-.64-.14-1.03-.07l-1.13.15-4.53.6-2.26.32c-.58.09-1.19.19-1.75.29ZM19.69,16.13c.82-.2,1.53-.27,2.3-.39l2.27-.31,4.53-.58,1.13-.14c.35-.06.83-.09,1.21.1.69.39,1.32.79,1.98,1.18l3.92,2.35,3.92,2.35,1.96,1.18c.68.41,1.21,1,1.66,1.63.89,1.26,1.52,2.68,2.01,4.13.25.73.45,1.47.61,2.22.16.75.28,1.52.29,2.3h0c0,.1-.07.18-.17.19-.03,0-.07,0-.1-.02h0s-27.54-15.86-27.54-15.86h-.02c-.08-.06-.11-.16-.06-.25.02-.04.06-.07.11-.08Z"/>
          <path class="cls-21" d="M60.77,47.2c4.5-1.52,13.93-7.89,17.17-10.87-.19-.71-1.1-1.35-1.23-1.44-2.82,4.2-15.75,11.61-18.68,11.61-.83,0-6.24-1.16-6.24-1.16,0,0,4.47,1.49,5.73,1.88,1.06.33,2.2.33,3.25-.03Z"/>
          <path class="cls-10" d="M3.58,8.95c0,.07.06.89,1.47,2.22.36.34-1.23,2.32-1.68,2.22-.44-.1-1.33-1.09-1.42-1.67-.12-.78.92-2.66,1.63-2.78Z"/>
          <path class="cls-24" d="M5.05,11.18c-.42-.4-.72-.75-.93-1.05-.29.72-1.2,1.81-1.86,2.27.32.48.82.94,1.11,1.01.45.1,2.03-1.89,1.68-2.22Z"/>
          <path class="cls-1" d="M30.67,27.06l-1.77-1.02c-.19-.11-.34-.34-.34-.53h0c0-.19.15-.25.34-.14l1.77,1.02c.19.11.34.34.34.53h0c0,.19-.15.25-.34.14Z"/>
          <path class="cls-1" d="M44.63,34.3l-1.77-1.02c-.19-.11-.34-.34-.34-.53h0c0-.19.15-.25.34-.14l1.77,1.02c.19.11.34.34.34.53h0c0,.19-.15.25-.34.14Z"/>
          <polygon class="cls-23" points="36.38 18.17 35.03 17.29 32.55 23.67 33.95 24.5 36.38 18.17"/>
          <polygon class="cls-23" points="45.69 25.83 45.31 25.09 43.37 30 43.89 30.3 45.69 25.83"/>
          <g>
            <polygon class="cls-18" points="19.35 .72 19.36 .72 19.36 .72 19.35 .72"/>
            <path class="cls-18" d="M19.35.72h0s.03,0,.03,0h-.04Z"/>
          </g>
          <path class="cls-23" d="M19.45,17.57l1.1-.59c.19-.36.76-.97,1.38-1.22l-2.62.21.13,1.6Z"/>
          <g>
            <path class="cls-22" d="M19.05,15.03c-.53-.14-4.56,2.81-4.47,3.29.17.9,1.74,1.65,2.06,1.63.84-.07,2.35-1.7,2.52-1.97.26-.4.79-1.86.56-2.55-.06-.18-.56-.37-.68-.4Z"/>
            <path class="cls-3" d="M19.52,15.24c-.53-.14-4.56,2.81-4.47,3.29.17.9,1.31,1.44,1.64,1.41.84-.07,2.77-1.49,2.95-1.76.33-.5.43-2.8-.12-2.94Z"/>
            <path class="cls-26" d="M16.67,19.72c-.2.02-1.25-.44-1.4-1.23.15-.45,3.6-2.98,4.2-3.03,0,0,.05.04.11.22.21.68.07,2.08-.13,2.38-.15.21-2.02,1.6-2.78,1.66Z"/>
          </g>
          <g>
            <path class="cls-2" d="M72.73,32.9c-.33.28-.58,3.29-.03,3.2.74-.11,2.74-1.81,3.04-2.22.38-.52.38-3.73-.08-3.76,0,.48-1.96,1.95-2.94,2.78Z"/>
            <path class="cls-2" d="M63.33,39.17c.22-.1.49-.05.65.13.66.69,1.36,2.23,1,2.54-1.7,1.47-3.92,2.48-5.47,2.64-.85.09-2.49-.09-2.71-.94-.21-.8-.08-1.66.34-2.54.15-.32.42-.55.77-.51,2.56.3,4.44-.88,5.42-1.31Z"/>
          </g>
          <path class="cls-21" d="M3.35,15.61c-1.12-.97-2.06-1.73-1.73-2.94,0,0-1.04.61-1.21,1.18.9.93,2.94,1.76,2.94,1.76Z"/>
        </g>
      </g>
    </g>
  </g>
</svg>