<?xml version="1.0" encoding="UTF-8"?>
<svg xmlns="http://www.w3.org/2000/svg" xmlns:xlink="http://www.w3.org/1999/xlink" viewBox="0 0 77.56 54.91">
  <defs>
    <style>
      .cls-1 {
        fill: #dbdfe0;
      }

      .cls-2 {
        fill: #a00000;
      }

      .cls-3 {
        fill: #b99e4a;
        mix-blend-mode: multiply;
        opacity: .3;
      }

      .cls-4 {
        fill: #3a88d1;
      }

      .cls-5 {
        fill: #d2d2d2;
      }

      .cls-6 {
        fill: #232221;
      }

      .cls-7 {
        fill: url(#linear-gradient-5);
      }

      .cls-8 {
        fill: url(#linear-gradient-4);
      }

      .cls-9 {
        fill: url(#linear-gradient-3);
      }

      .cls-10 {
        fill: #f5fcf8;
      }

      .cls-11 {
        fill: #2e2711;
      }

      .cls-12 {
        isolation: isolate;
      }

      .cls-13 {
        fill: #048ceb;
      }

      .cls-14 {
        fill: url(#linear-gradient-2);
      }

      .cls-14, .cls-15 {
        opacity: .5;
      }

      .cls-15 {
        fill: url(#linear-gradient);
      }

      .cls-16 {
        fill: #353433;
      }

      .cls-17 {
        fill: #4ba9eb;
      }

      .cls-18 {
        fill: #29230f;
      }

      .cls-19 {
        fill: #34383a;
      }

      .cls-20 {
        fill: #595757;
      }

      .cls-21 {
        fill: #40a6ed;
      }

      .cls-22 {
        fill: #ffa836;
      }

      .cls-23 {
        fill: #3276b5;
      }

      .cls-24 {
        fill: #202b2d;
      }
    </style>
    <linearGradient id="linear-gradient" x1="-2794.82" y1="49.17" x2="-2788.41" y2="49.17" gradientTransform="translate(2837.59)" gradientUnits="userSpaceOnUse">
      <stop offset="0" stop-color="#323232"/>
      <stop offset=".63" stop-color="#201f1d"/>
      <stop offset="1" stop-color="#12100c"/>
    </linearGradient>
    <linearGradient id="linear-gradient-2" x1="-2831.44" y1="28.97" x2="-2825.03" y2="28.97" xlink:href="#linear-gradient"/>
    <linearGradient id="linear-gradient-3" x1="-3014.54" y1="22.38" x2="-2986.5" y2="22.38" gradientTransform="translate(3027.26)" gradientUnits="userSpaceOnUse">
      <stop offset="0" stop-color="#323538"/>
      <stop offset="1" stop-color="#2b2b2d"/>
    </linearGradient>
    <linearGradient id="linear-gradient-4" x1="-3015.58" y1="6.48" x2="-2992.36" y2="6.48" xlink:href="#linear-gradient-3"/>
    <linearGradient id="linear-gradient-5" x1="-2989.87" y1="22.34" x2="-2966.5" y2="22.34" xlink:href="#linear-gradient-3"/>
  </defs>
  <g class="cls-12">
    <g id="Layer_2" data-name="Layer 2">
      <g id="car_C2">
        <g>
          <path class="cls-17" d="M61.13,18.63c.3-.39,2.17-2.11,2.4-1.92.49.4.26,2.26-.18,3.01-.4.69-2.19,2.58-2.27,2.36-.15-.43-.31-2.97.06-3.45Z"/>
          <path class="cls-18" d="M5.92,22.38c-.85.5-1.42,1.52-1.51,2.96l22.35-12.99c.09-1.45.66-2.47,1.51-2.96L5.92,22.38Z"/>
          <path class="cls-11" d="M41.59,42.17c-.88.51-.98,3.51-.42,4.93l5.03-2.93,17.32-11.73c.07-1.51.64-2.57,1.52-3.08l-23.45,12.8Z"/>
          <g>
            <g class="cls-12">
              <path class="cls-6" d="M52.13,46.97c-.44-.98-1.03-1.92-1.73-2.72-.59-.67-1.25-1.24-1.95-1.64-1.24-.72-2.37-.78-3.18-.31l-2.46,1.43c.81-.47,1.94-.41,3.18.31.7.4,1.36.97,1.95,1.64.7.8,1.29,1.73,1.73,2.72.49,1.11.78,2.27.77,3.35,0,1.41-.5,2.4-1.3,2.87l2.46-1.43c.8-.47,1.3-1.46,1.3-2.87,0-1.07-.28-2.24-.77-3.35Z"/>
              <path class="cls-16" d="M46,44.04c-2.47-1.42-4.47-.28-4.48,2.55,0,2.84,1.99,6.29,4.45,7.71,2.47,1.42,4.47.28,4.48-2.55,0-2.83-1.99-6.28-4.45-7.71Z"/>
            </g>
            <path class="cls-15" d="M45.99,45.49c-1.77-1.02-3.21-.2-3.22,1.83,0,2.03,1.42,4.51,3.2,5.53,1.77,1.02,3.21.2,3.22-1.83,0-2.03-1.42-4.51-3.19-5.53Z"/>
            <path class="cls-1" d="M45.99,46.62c-1.23-.74-2.25-.19-2.28,1.22-.03,1.42.94,3.16,2.17,3.91,1.23.74,2.25.19,2.28-1.22.03-1.42-.94-3.16-2.17-3.91Z"/>
          </g>
          <g>
            <g class="cls-12">
              <path class="cls-6" d="M15.52,26.77c-.44-.98-1.03-1.92-1.73-2.72-.59-.67-1.25-1.24-1.95-1.64-1.24-.72-2.37-.78-3.18-.31l-2.46,1.43c.81-.47,1.94-.41,3.18.31.7.4,1.36.97,1.95,1.64.7.8,1.29,1.73,1.73,2.72.49,1.11.78,2.27.77,3.35,0,1.41-.5,2.4-1.3,2.87l2.46-1.43c.8-.47,1.3-1.46,1.3-2.87,0-1.07-.28-2.24-.77-3.35Z"/>
              <path class="cls-16" d="M9.38,23.84c-2.47-1.42-4.47-.28-4.48,2.55,0,2.84,1.99,6.29,4.45,7.71,2.47,1.42,4.47.28,4.48-2.55,0-2.83-1.99-6.28-4.45-7.71Z"/>
            </g>
            <path class="cls-14" d="M9.37,25.29c-1.77-1.02-3.21-.2-3.22,1.83,0,2.03,1.42,4.51,3.2,5.53,1.77,1.02,3.21.2,3.22-1.83,0-2.03-1.42-4.51-3.19-5.53Z"/>
            <path class="cls-1" d="M9.37,26.42c-1.23-.74-2.25-.19-2.28,1.22-.03,1.42.94,3.16,2.17,3.91,1.23.74,2.25.19,2.28-1.22.03-1.42-.94-3.16-2.17-3.91Z"/>
          </g>
          <path class="cls-4" d="M36.34,39.9l-17.31-10.2-3.97.7s-.43,1.17-.64,1.85l26.6,15.17.17-2.21-4.85-5.3Z"/>
          <path class="cls-23" d="M77.4,36.23c0-.73-.61-.8-.71-1.16-.44-1.49-.69-4.61-2.08-6.19-.58-.66-3.7-1.09-4.39-1.61l-8.35-6.25c-.16-.2-7.99-8.08-10.51-9.55l-14.24-8.21c-3.01-1.74-9.78.33-10.85.07-1.23-.3-1.43-2.41-5.78-2.82-1.72-.16-9.96,3.71-16.25,8.09-2.38,1.66-2.24,6.57-2.24,6.57,0,0-1.62,1.2-1.81,1.44-.4.55-.12,4.31.22,4.91.98,1.76,4.04,3.76,4.04,3.76.2-3.01,2.96-3.89,5.63-2.35.06.03.11.07.17.1,2.63,1.63,4.74,4.47,4.89,7.6l26.07,14.81c.15-3.1,2.39-3.72,5.09-2.16.06.03.11.07.17.1,2.63,1.62,4.71,5.26,4.87,8.38,4.23,2.39,11.34.29,16.24-2.28,5.65-2.96,9.29-5.98,9.91-8.56.16-.68-.1-4.03-.1-4.68Z"/>
          <path class="cls-3" d="M11.73,23.92v-6.31s.88-1.73.88-1.73l.24.12-.85,1.7v6.49c-.09-.09-.17-.18-.26-.27ZM40.36,31.92s.53,1.97.37,2.9c-.15.88-1.11,8.09-1.29,9.39l-14.08-8.11v-9.12s1.64-3.29,1.64-3.29l-.24-.12-1.66,3.32v9.06s-10.03-5.77-10.03-5.77c.02.11.04.23.05.34l24.35,14.03.17.1.03-.2c.01-.09,1.14-8.62,1.31-9.58.17-.99-.35-2.93-.37-3.02l-.26.07Z"/>
          <path class="cls-21" d="M77.35,36.23c.17-.44-.53-.93-.53-.96-3.2,6.46-14.4,11.92-21.21,12.12-.64.02-2.77-.13-2.77-.1,0,0,.77.47,2.76.54,9.43.32,20.22-7.69,21.76-11.61Z"/>
          <path class="cls-2" d="M2.73,10.98c.1.36.48,1.43.57,1.97.11.68.44,3.57.25,3.72-.18.14-1.43-1.99-1.44-2.33-.02-.83.38-3.41.63-3.36Z"/>
          <path class="cls-9" d="M40.76,32.01L12.72,15.91c.54-.82,1.88-1.71,3.34-2.41,2.3-1.1,4.99-.99,7.2.28,3.51,2.01,9.32,5.37,11.38,6.56.56.33,1.03.79,1.35,1.36,1.42,2.53,4.49,9.16,4.78,10.31Z"/>
          <path class="cls-24" d="M40.68,32.15l-14.04-8.02-14.01-8.08h0c-.08-.05-.1-.14-.06-.22h0s0-.01,0-.01c.49-.69,1.17-1.15,1.84-1.59.68-.41,1.4-.8,2.14-1.09,1.51-.58,3.2-.67,4.76-.27.78.19,1.53.53,2.22.93l2.06,1.19,4.13,2.37,4.13,2.37c.35.2.69.39,1.04.6.35.23.65.51.91.83.26.33.43.7.63,1.04l.55,1.06c.72,1.42,1.41,2.85,2.08,4.29.34.72.66,1.45.98,2.17.31.74.64,1.45.89,2.24.03.09-.02.18-.11.2-.04.01-.09,0-.13-.01h0ZM40.45,31.64c-.21-.59-.46-1.19-.71-1.78-.32-.73-.64-1.45-.97-2.17-.66-1.44-1.34-2.87-2.05-4.29l-.54-1.05c-.2-.35-.36-.71-.6-1-.23-.3-.52-.56-.84-.77-.32-.2-.68-.4-1.02-.6l-4.12-2.39-4.12-2.39-2.06-1.19c-.68-.4-1.4-.72-2.16-.9-1.51-.39-3.15-.28-4.6.28-.73.29-1.42.67-2.09,1.09-.65.43-1.3.9-1.72,1.52h0s-.06-.23-.06-.23l14.04,8.02,13.61,7.85Z"/>
          <path class="cls-10" d="M56.39,45.8c1.72.63,5.04-.47,6.84-1.15,1.37-.52,1.64-2.6-.56-2.42-3.44.28-6.54.25-6.95.24-2.17-.05-1.95,2.36.67,3.33Z"/>
          <path class="cls-22" d="M55.72,42.47c-2.17-.05-1.98,2.39.64,3.36.12.05.39.15.53.18-.8-1.29-1.09-3.54-1.18-3.54Z"/>
          <path class="cls-10" d="M76.79,34.62c-.24.4-1.31,1.61-1.84,1.9-1.29.69-2.79-.61-1.45-2.02.66-.7,1.88-2.12,2.28-3.4.93,1.63,1.16,3.28,1.01,3.52Z"/>
          <path class="cls-20" d="M72.62,35.82c-3.69,3.64-8.77,4.9-8.38,5.51.25.4,1.86,1.79,1.87,1.79,1.54-.3,6.73-3.65,6.77-4.31.08-1.4-.1-2.63-.16-2.97,0-.05-.06-.05-.09-.02Z"/>
          <path class="cls-21" d="M7.1,21.06c-2.74-2.39-4.63-4.22-5.07-4.86v-1.13s-1.02.75-1.2,1h0c2.49,2.88,6.28,4.99,6.28,4.99Z"/>
          <path class="cls-13" d="M74.98,30.2c-.16-.64-.02-.94-.75-1.77-.58-.66-1.3-1.02-1.99-1.54l-10.51-6.02c-.16-.2-7.99-8.08-10.51-9.55l-14.24-8.21c-3.01-1.74-9.27-1.28-9.69-1.23-.38.05-2.59-1.47-6.93-1.88-1.68-.16-9.96,4.15-16.12,8.56-.21.15-.2.47.02.62,2.45,1.66,2.46,1.95,5.4,2,2.73.04,8.52,0,10.86.47,2.13.44,15.11,7.71,16.41,9.55,1.16,1.64,4.53,9.03,7.29,13.03,1.57,2.27,2.48,2.04,4.97,3.69,1.2.8,2.43,1.54,3.48,2.13,1.27.72,2.63,1.29,4.08,1.29,10.19-.02,16.2-6.87,18.13-9.82.26-.4.22-.85.11-1.31Z"/>
          <path class="cls-8" d="M34.9,2.47c-3.36.7-9.19,4.24-13.37,8.17-.17.16-.38.24-.61.24l-9.1-.06c-.11,0-.18-.11-.13-.21.82-1.57,12.06-7.83,16.5-8.52.11-.02.22-.02.33-.02.77,0,4.02.01,6.38.4Z"/>
          <polygon class="cls-24" points="29.46 17.44 28 16.62 25.74 23.3 27.18 24.15 29.46 17.44"/>
          <polygon class="cls-24" points="18.12 12.85 17.45 12.94 15.83 17.72 16.36 18.03 18.12 12.85"/>
          <path class="cls-19" d="M57.86,50.59l.05.55c.01.14.13.24.27.23,1.03-.06,3.14-.44,4.01-.75.11-.04.18-.15.17-.27l-.05-.59c-.01-.16-.18-.27-.34-.22-1.74.55-3.13.68-3.88.76-.14.01-.24.14-.23.28Z"/>
          <path class="cls-19" d="M76.92,40c-.05.08-.08.16-.07.25.01.4,0,.91,0,1.02.15-.17.55-.72.68-1.21.04-.41-.03-.85-.03-1.26-.16.49-.39.91-.58,1.2Z"/>
          <path class="cls-19" d="M75.46,41.55c-2.77,2.88-6.95,5.25-10.89,6.86-.07.03-.11.09-.11.17v.98c0,.11.09.2.2.18,1.69-.36,9.59-4.83,11-6.85.07-.11.1-.24.1-.36v-.85c0-.16-.19-.24-.31-.12Z"/>
          <path class="cls-5" d="M67.65,46.81v.99c.6-.2,5.53-3.07,6-3.67v-.96c-1.8,1.39-3.88,2.62-6,3.64Z"/>
          <path class="cls-24" d="M37.86,32.42l1.34.07c.63.03,1.25-.09,1.82-.36h0c-.25-.63-.5-1.26-.77-1.88l-1.62.73-.77,1.45Z"/>
          <path class="cls-17" d="M39.88,30.12c-.51-.03-4.32,1.2-4.28,1.65.09.86,1.44,1.99,2.25,2.16.78.16,4.03-.87,4.04-1.18.03-.57-1.03-2.57-2.01-2.63Z"/>
          <path class="cls-1" d="M28.63,29.63l-1.83-1.05c-.19-.11-.35-.36-.35-.55h0c0-.19.16-.26.35-.15l1.83,1.05c.19.11.35.36.35.55h0c0,.19-.16.26-.35.15Z"/>
          <path class="cls-1" d="M15.47,22.04l-1.83-1.05c-.19-.11-.35-.36-.35-.55h0c0-.19.16-.26.35-.15l1.83,1.05c.19.11.35.36.35.55h0c0,.19-.16.26-.35.15Z"/>
          <path class="cls-7" d="M52.1,12.63c-.65.63-5.63,5.28-14.62,8.53-.07.03-.11.11-.07.18l5.46,10.02c.34.63,1.08.85,1.77.66,2.49-.67,8.59-2.79,14.49-8.04.91-.81,2.25-2.76,1.3-3.72-2.9-2.91-5.47-5.35-8.18-7.65-.05-.04-.11-.04-.15,0Z"/>
        </g>
      </g>
    </g>
  </g>
</svg>