<?xml version="1.0" encoding="UTF-8"?>
<svg xmlns="http://www.w3.org/2000/svg" viewBox="0 0 96.48 77.16">
  <defs>
    <style>
      .cls-1 {
        fill: #fff;
      }

      .cls-1, .cls-2, .cls-3, .cls-4, .cls-5, .cls-6, .cls-7, .cls-8, .cls-9, .cls-10, .cls-11, .cls-12, .cls-13, .cls-14, .cls-15 {
        fill-rule: evenodd;
      }

      .cls-16 {
        fill: #0297d1;
      }

      .cls-2 {
        fill: #0071b5;
      }

      .cls-3 {
        fill: #f7f8f8;
      }

      .cls-4, .cls-17 {
        fill: #2e3235;
      }

      .cls-18 {
        fill: #0283c4;
      }

      .cls-5 {
        fill: #ed1c24;
      }

      .cls-6 {
        fill: #939393;
      }

      .cls-19 {
        isolation: isolate;
      }

      .cls-20, .cls-8 {
        fill: #474c52;
      }

      .cls-7 {
        fill: #5a5f63;
      }

      .cls-9 {
        fill: #ffc60b;
      }

      .cls-10 {
        fill: #adb1b6;
      }

      .cls-11 {
        fill: #b2b1af;
      }

      .cls-12 {
        fill: #bbbdbf;
        mix-blend-mode: multiply;
      }

      .cls-21 {
        fill: #005f8e;
      }

      .cls-13 {
        fill: #83868a;
      }

      .cls-22 {
        fill: #1c1d1e;
      }

      .cls-14 {
        fill: #d6d9dd;
      }

      .cls-15 {
        fill: #e8e5e0;
      }
    </style>
  </defs>
  <g class="cls-19">
    <g id="Layer_2" data-name="Layer 2">
      <g id="car_D4">
        <g>
          <g>
            <polygon class="cls-11" points="73.12 36.58 67.39 43.37 67.39 44.19 30.16 56 30.16 55.18 31.07 71.34 31.07 75.46 73.12 51.01 73.12 36.58"/>
            <polygon class="cls-6" points="4.55 57.52 31.07 72.83 31.07 75.46 4.55 60.15 4.55 57.52"/>
          </g>
          <g>
            <polygon class="cls-22" points="62.45 21.71 65.42 25.89 88.87 39.52 85.9 35.34 62.45 21.71"/>
            <g>
              <polygon class="cls-4" points="85.24 38.49 83.12 37.27 82.76 37.1 82.36 36.99 81.94 36.93 81.49 36.94 81.02 37.02 80.53 37.15 80.02 37.36 79.49 37.63 79.23 37.79 78.97 37.96 78.71 38.15 78.46 38.35 78.21 38.56 77.97 38.78 77.73 39.01 77.5 39.25 77.27 39.5 77.05 39.76 76.84 40.02 76.63 40.3 76.43 40.58 76.23 40.87 76.05 41.16 75.87 41.46 75.7 41.76 75.54 42.07 75.39 42.38 75.24 42.7 75.11 43.01 74.99 43.33 74.87 43.65 74.77 43.98 74.68 44.3 74.6 44.62 74.53 44.94 74.47 45.26 74.43 45.58 74.39 45.89 74.37 46.2 74.37 46.51 74.39 47.1 74.47 47.65 74.6 48.14 74.77 48.59 74.99 48.98 75.24 49.32 75.54 49.6 75.87 49.83 76.74 50.34 76.74 50.34 79.34 51.83 86.59 39.27 85.24 38.49"/>
              <path class="cls-8" d="M82.96,39.63c-2.83,1.64-5.13,5.61-5.13,8.88s2.3,4.6,5.13,2.96c2.83-1.64,5.13-5.61,5.13-8.88s-2.3-4.6-5.13-2.96Z"/>
              <path class="cls-1" d="M82.96,43.1c1.17-.68,2.13-.13,2.13,1.23s-.95,3-2.13,3.68c-1.17.68-2.13.13-2.13-1.23s.95-3,2.13-3.68Z"/>
              <path class="cls-15" d="M82.96,43.55c.96-.55,1.74-.1,1.74,1s-.78,2.46-1.74,3.01c-.96.55-1.74.1-1.74-1s.78-2.46,1.74-3.01Z"/>
              <path class="cls-4" d="M82.96,44.35c.57-.33,1.04-.06,1.04.6s-.46,1.47-1.04,1.8c-.57.33-1.04.06-1.04-.6s.47-1.47,1.04-1.8Z"/>
            </g>
            <polygon class="cls-21" points="71 21.62 71.05 49.82 75.19 47.42 78.13 39.82 85.9 35.34 88.87 39.52 93.42 36.87 93.36 20.06 84.78 13.63 71 21.62"/>
            <polygon class="cls-18" points="47.55 7.99 71 21.62 84.78 13.63 61.33 0 47.55 7.99"/>
            <g>
              <path class="cls-18" d="M76.19,31.29l15.35-9.03c.12-.07.19-.19.19-.33l-7.53-5.35-7.85,4.38c-.07.04-.12.09-.15.16,0,0,0,10.16,0,10.17Z"/>
              <path class="cls-20" d="M76.27,20.87c-.07.04-.12.09-.15.16v9.66s14.57-8.42,14.57-8.42c.12-.07.19-.19.19-.33l-7.17-5.09-7.44,4.02Z"/>
            </g>
            <g>
              <polygon class="cls-16" points="54.16 6.41 69.61 15.39 78.69 12.64 63.24 3.66 54.16 6.41"/>
              <polygon class="cls-21" points="69.61 15.39 69.61 17.96 78.69 12.64 69.61 15.39"/>
              <polygon class="cls-2" points="54.16 6.41 54.16 9.06 69.61 17.96 69.61 15.39 54.16 6.41"/>
            </g>
          </g>
          <g>
            <g>
              <polygon class="cls-15" points="47.55 31.64 2.18 57.94 2.18 60.17 47.55 33.87 47.55 31.64"/>
              <polygon class="cls-1" points="47.55 31.64 2.18 57.94 1.21 57.39 46.59 31.09 47.55 31.64"/>
            </g>
            <polygon class="cls-15" points="2.18 60.17 2.18 57.94 1.21 57.39 1.21 59.61 2.18 60.17"/>
          </g>
          <g>
            <polygon class="cls-4" points="44.8 63.48 42.68 62.25 42.32 62.08 41.92 61.97 41.5 61.92 41.05 61.93 40.58 62 40.09 62.14 39.58 62.34 39.05 62.61 38.79 62.77 38.53 62.95 38.27 63.13 38.02 63.33 37.77 63.54 37.53 63.76 37.29 63.99 37.06 64.23 36.83 64.48 36.61 64.74 36.39 65 36.19 65.28 35.99 65.56 35.79 65.85 35.61 66.14 35.43 66.44 35.26 66.74 35.1 67.05 34.94 67.36 34.8 67.68 34.67 68 34.54 68.31 34.43 68.64 34.33 68.96 34.24 69.28 34.16 69.6 34.09 69.92 34.03 70.24 33.98 70.56 33.95 70.87 33.93 71.19 33.93 71.49 33.95 72.08 34.03 72.63 34.16 73.12 34.33 73.57 34.54 73.96 34.8 74.3 35.1 74.58 35.43 74.81 36.3 75.32 36.3 75.32 38.89 76.82 46.15 64.25 44.8 63.48"/>
            <path class="cls-8" d="M42.52,64.61c-2.83,1.64-5.13,5.61-5.13,8.88s2.3,4.6,5.13,2.96c2.83-1.64,5.13-5.61,5.13-8.88s-2.3-4.6-5.13-2.96Z"/>
            <path class="cls-1" d="M42.52,68.08c1.17-.68,2.13-.13,2.13,1.23s-.95,3-2.13,3.68c-1.17.68-2.13.13-2.13-1.23s.95-3,2.13-3.68Z"/>
            <path class="cls-15" d="M42.52,68.53c.96-.55,1.74-.1,1.74,1s-.78,2.46-1.74,3.01c-.96.55-1.74.1-1.74-1s.78-2.46,1.74-3.01Z"/>
            <path class="cls-4" d="M42.52,69.34c.57-.33,1.04-.06,1.04.6s-.46,1.47-1.04,1.8c-.57.33-1.04.06-1.04-.6s.47-1.47,1.04-1.8Z"/>
          </g>
          <polygon class="cls-13" points="26.78 40.67 2 26.36 2 57.83 26.78 72.13 26.78 40.67"/>
          <polygon class="cls-10" points="26.78 40.67 72.16 14.37 72.16 48.06 26.78 74.36 26.78 40.67"/>
          <g>
            <g>
              <polygon class="cls-15" points="73.12 46.39 27.74 72.69 27.74 74.92 73.12 48.62 73.12 46.39"/>
              <polygon class="cls-1" points="73.12 46.39 27.74 72.69 26.78 72.13 72.16 45.83 73.12 46.39"/>
            </g>
            <polygon class="cls-15" points="27.74 74.92 27.74 72.69 26.78 72.13 26.78 74.36 27.74 74.92"/>
          </g>
          <polygon class="cls-14" points="72.16 14.37 26.78 40.67 2 26.36 47.37 .06 72.16 14.37"/>
          <g>
            <polygon class="cls-20" points="51.97 65.67 67.52 56.59 67.52 51.8 51.97 60.88 51.97 65.67"/>
            <polygon class="cls-17" points="51.97 65.67 51.97 60.88 47.71 63.34 51.97 65.67"/>
          </g>
          <g>
            <path class="cls-1" d="M92.4,17.95l.66-.38.09-.04.1-.02h.1s.11,0,.11,0l.11.03.12.04.12.06,1.47.85.12.08.12.09c.23.21.35.37.52.63l.09.15.08.16.07.16.06.17.05.17.04.17.03.17.02.17v.17s0,3.95,0,3.95v.16s-.02.15-.02.15l-.03.14-.04.12-.05.11-.06.1-.07.08-.08.07-.09.05-.66.38.09-.05-2.98-8.13-.09.04Z"/>
            <path class="cls-15" d="M93.16,18.03l1.47.85c.66.38,1.2,1.41,1.2,2.29v3.95c0,.88-.54,1.29-1.2.91l-1.47-.85c-.66-.38-1.2-1.41-1.2-2.29v-3.95c0-.88.54-1.29,1.2-.91Z"/>
          </g>
          <g>
            <polygon class="cls-4" points="0 58.08 26.52 73.4 26.52 76.03 0 60.71 0 58.08"/>
            <polygon class="cls-8" points="27.74 72.69 26.52 73.4 26.52 76.03 27.74 75.32 27.74 72.69"/>
            <polygon class="cls-7" points="27.74 72.69 26.52 73.4 0 58.08 1.22 57.38 27.74 72.69"/>
          </g>
          <path class="cls-3" d="M75.52,34.73l1.78-1.03c.18-.1.32-.38.32-.61h0c0-.23-.14-.34-.32-.24l-1.78,1.03c-.18.1-.32.38-.32.61h0c0,.23.14.34.32.24Z"/>
          <polygon class="cls-12" points="13.87 64.71 13.26 64.35 13.26 32.86 13.87 33.21 13.87 64.71"/>
          <g>
            <path class="cls-4" d="M4.23,60.9c-.67-.39-1.21-.07-1.21.7s.54,1.71,1.21,2.1c.67.39,1.21.07,1.21-.7s-.54-1.71-1.21-2.1Z"/>
            <polygon class="cls-8" points="5.09 63.79 5.52 63.54 5.59 63.49 5.66 63.42 5.73 63.34 5.78 63.25 5.82 63.14 5.85 63.02 5.87 62.9 5.87 62.76 5.87 62.61 5.85 62.46 5.82 62.31 5.78 62.16 5.73 62 5.66 61.85 5.59 61.71 5.52 61.56 5.43 61.42 5.34 61.29 5.24 61.16 5.13 61.04 5.02 60.93 4.9 60.82 4.78 60.73 4.66 60.66 4.53 60.59 4.41 60.54 4.3 60.51 4.19 60.49 4.08 60.49 3.98 60.5 3.89 60.53 3.8 60.57 3.38 60.82 3.46 60.78 3.56 60.75 3.66 60.74 3.76 60.74 3.87 60.76 3.99 60.79 4.11 60.84 4.23 60.9 4.36 60.98 4.48 61.07 4.59 61.17 4.71 61.28 4.81 61.4 4.91 61.53 5 61.67 5.09 61.81 5.17 61.95 5.24 62.1 5.3 62.25 5.35 62.4 5.39 62.55 5.42 62.71 5.44 62.85 5.45 63 5.44 63.14 5.42 63.27 5.39 63.39 5.35 63.49 5.3 63.58 5.24 63.66 5.17 63.73 5.09 63.79"/>
            <path class="cls-5" d="M4.23,61.26c-.5-.29-.9-.05-.9.52s.4,1.27.9,1.56c.5.29.9.05.9-.52s-.4-1.27-.9-1.56Z"/>
          </g>
          <g>
            <path class="cls-4" d="M1.89,59.88c-.43-.25-.78-.05-.78.45s.35,1.1.78,1.35c.43.25.78.05.78-.45s-.35-1.1-.78-1.35Z"/>
            <polygon class="cls-8" points="2.44 61.74 2.72 61.58 2.77 61.55 2.81 61.51 2.85 61.45 2.89 61.39 2.91 61.33 2.93 61.25 2.94 61.17 2.95 61.08 2.94 60.98 2.93 60.89 2.91 60.79 2.89 60.69 2.85 60.59 2.81 60.5 2.77 60.4 2.72 60.31 2.66 60.22 2.6 60.13 2.54 60.05 2.47 59.97 2.4 59.9 2.32 59.83 2.25 59.77 2.17 59.72 2.09 59.68 2.01 59.65 1.93 59.63 1.86 59.62 1.79 59.62 1.73 59.63 1.67 59.64 1.61 59.67 1.34 59.83 1.39 59.8 1.46 59.78 1.52 59.78 1.59 59.78 1.66 59.79 1.73 59.81 1.81 59.84 1.89 59.88 1.97 59.93 2.05 59.99 2.12 60.06 2.2 60.13 2.26 60.21 2.33 60.29 2.39 60.38 2.44 60.47 2.5 60.56 2.54 60.65 2.58 60.75 2.61 60.85 2.64 60.95 2.66 61.05 2.67 61.14 2.67 61.24 2.67 61.33 2.66 61.41 2.64 61.48 2.61 61.55 2.58 61.61 2.54 61.66 2.5 61.71 2.44 61.74"/>
            <path class="cls-9" d="M1.89,60.12c-.32-.18-.58-.03-.58.33s.26.82.58,1c.32.18.58.03.58-.33s-.26-.82-.58-1Z"/>
          </g>
          <g>
            <path class="cls-4" d="M21.35,70.79c-.67-.39-1.21-.07-1.21.7s.54,1.71,1.21,2.1c.67.39,1.21.07,1.21-.7s-.54-1.71-1.21-2.1Z"/>
            <polygon class="cls-8" points="22.2 73.68 22.63 73.43 22.71 73.38 22.78 73.31 22.84 73.23 22.89 73.14 22.93 73.03 22.96 72.92 22.98 72.79 22.99 72.65 22.98 72.5 22.96 72.35 22.93 72.2 22.89 72.05 22.84 71.9 22.78 71.75 22.71 71.6 22.63 71.45 22.54 71.31 22.45 71.18 22.35 71.05 22.24 70.93 22.13 70.82 22.02 70.72 21.9 70.63 21.77 70.55 21.65 70.48 21.53 70.44 21.41 70.4 21.3 70.39 21.19 70.38 21.09 70.4 21 70.42 20.92 70.46 20.49 70.71 20.58 70.67 20.67 70.64 20.77 70.63 20.88 70.63 20.99 70.65 21.1 70.68 21.22 70.73 21.35 70.79 21.47 70.87 21.59 70.96 21.71 71.07 21.82 71.18 21.93 71.3 22.03 71.42 22.12 71.56 22.2 71.7 22.28 71.84 22.35 71.99 22.41 72.14 22.46 72.29 22.51 72.45 22.54 72.6 22.55 72.75 22.56 72.89 22.55 73.03 22.54 73.16 22.51 73.28 22.46 73.38 22.41 73.48 22.35 73.56 22.28 73.63 22.2 73.68"/>
            <path class="cls-5" d="M21.35,71.16c-.5-.29-.9-.05-.9.52s.4,1.27.9,1.56c.5.29.9.05.9-.52s-.4-1.27-.9-1.56Z"/>
          </g>
          <g>
            <path class="cls-4" d="M23.93,72.86c-.43-.25-.78-.05-.78.45s.35,1.1.78,1.35c.43.25.78.05.78-.45s-.35-1.1-.78-1.35Z"/>
            <polygon class="cls-8" points="24.48 74.72 24.76 74.56 24.81 74.52 24.85 74.48 24.89 74.43 24.93 74.37 24.95 74.3 24.97 74.22 24.98 74.14 24.99 74.05 24.98 73.96 24.97 73.86 24.95 73.76 24.93 73.66 24.89 73.57 24.85 73.47 24.81 73.37 24.76 73.28 24.7 73.19 24.64 73.1 24.58 73.02 24.51 72.94 24.44 72.87 24.36 72.81 24.29 72.75 24.21 72.7 24.13 72.66 24.05 72.63 23.97 72.6 23.9 72.59 23.83 72.59 23.77 72.6 23.71 72.62 23.65 72.64 23.38 72.8 23.43 72.78 23.49 72.76 23.56 72.75 23.63 72.75 23.7 72.76 23.77 72.78 23.85 72.81 23.93 72.86 24.01 72.91 24.09 72.97 24.16 73.03 24.24 73.1 24.3 73.18 24.37 73.26 24.43 73.35 24.48 73.44 24.54 73.53 24.58 73.63 24.62 73.73 24.65 73.82 24.68 73.92 24.7 74.02 24.71 74.12 24.71 74.21 24.71 74.3 24.7 74.38 24.68 74.46 24.65 74.53 24.62 74.59 24.58 74.64 24.54 74.68 24.48 74.72"/>
            <path class="cls-9" d="M23.93,73.09c-.32-.18-.58-.03-.58.33s.26.82.58,1c.32.18.58.03.58-.33s-.26-.82-.58-1Z"/>
          </g>
        </g>
      </g>
    </g>
  </g>
</svg>