<?xml version="1.0" encoding="UTF-8"?>
<svg xmlns="http://www.w3.org/2000/svg" viewBox="0 0 96.48 77.16">
  <defs>
    <style>
      .cls-1 {
        fill: #fff;
      }

      .cls-1, .cls-2, .cls-3, .cls-4, .cls-5, .cls-6, .cls-7, .cls-8, .cls-9, .cls-10, .cls-11, .cls-12, .cls-13, .cls-14, .cls-15 {
        fill-rule: evenodd;
      }

      .cls-16 {
        fill: #0297d1;
      }

      .cls-2 {
        fill: #0071b5;
      }

      .cls-3 {
        fill: #f7f8f8;
      }

      .cls-4, .cls-17 {
        fill: #2e3235;
      }

      .cls-18 {
        fill: #0283c4;
      }

      .cls-5 {
        fill: #ed1c24;
      }

      .cls-6 {
        fill: #939393;
      }

      .cls-19 {
        isolation: isolate;
      }

      .cls-20, .cls-8 {
        fill: #474c52;
      }

      .cls-7 {
        fill: #5a5f63;
      }

      .cls-9 {
        fill: #ffc60b;
      }

      .cls-10 {
        fill: #adb1b6;
      }

      .cls-11 {
        fill: #b2b1af;
      }

      .cls-12 {
        fill: #bbbdbf;
        mix-blend-mode: multiply;
      }

      .cls-21 {
        fill: #005f8e;
      }

      .cls-13 {
        fill: #83868a;
      }

      .cls-22 {
        fill: #1c1d1e;
      }

      .cls-14 {
        fill: #d6d9dd;
      }

      .cls-15 {
        fill: #e8e5e0;
      }
    </style>
  </defs>
  <g class="cls-19">
    <g id="Layer_2" data-name="Layer 2">
      <g id="car_D3">
        <g>
          <g>
            <polygon class="cls-11" points="23.36 36.58 29.09 43.37 29.09 44.19 66.32 56 66.32 55.18 65.41 71.34 65.41 75.46 23.36 51.01 23.36 36.58"/>
            <polygon class="cls-6" points="91.94 57.52 65.41 72.83 65.41 75.46 91.94 60.15 91.94 57.52"/>
          </g>
          <g>
            <polygon class="cls-22" points="34.03 21.71 31.06 25.89 7.61 39.52 10.58 35.34 34.03 21.71"/>
            <g>
              <polygon class="cls-4" points="11.24 38.49 13.36 37.27 13.73 37.1 14.12 36.99 14.54 36.93 14.99 36.94 15.46 37.02 15.95 37.15 16.46 37.36 16.99 37.63 17.25 37.79 17.51 37.96 17.77 38.15 18.02 38.35 18.27 38.56 18.51 38.78 18.75 39.01 18.98 39.25 19.21 39.5 19.43 39.76 19.65 40.02 19.85 40.3 20.05 40.58 20.25 40.87 20.43 41.16 20.61 41.46 20.78 41.76 20.94 42.07 21.1 42.38 21.24 42.7 21.37 43.01 21.5 43.33 21.61 43.65 21.71 43.98 21.8 44.3 21.88 44.62 21.95 44.94 22.01 45.26 22.06 45.58 22.09 45.89 22.11 46.2 22.11 46.51 22.09 47.1 22.01 47.65 21.88 48.14 21.71 48.59 21.5 48.98 21.24 49.32 20.94 49.6 20.61 49.83 19.74 50.34 19.74 50.34 17.15 51.83 9.89 39.27 11.24 38.49"/>
              <path class="cls-8" d="M13.52,39.63c2.83,1.64,5.13,5.61,5.13,8.88,0,3.27-2.3,4.6-5.13,2.96-2.83-1.64-5.13-5.61-5.13-8.88s2.3-4.6,5.13-2.96Z"/>
              <path class="cls-1" d="M13.52,43.1c-1.17-.68-2.13-.13-2.13,1.23,0,1.36.95,3,2.13,3.68,1.17.68,2.13.13,2.13-1.23s-.95-3-2.13-3.68Z"/>
              <path class="cls-15" d="M13.52,43.55c-.96-.55-1.74-.1-1.74,1s.78,2.46,1.74,3.01c.96.55,1.74.1,1.74-1s-.78-2.46-1.74-3.01Z"/>
              <path class="cls-4" d="M13.52,44.35c-.57-.33-1.04-.06-1.04.6,0,.66.46,1.47,1.04,1.8.57.33,1.04.06,1.04-.6,0-.66-.47-1.47-1.04-1.8Z"/>
            </g>
            <polygon class="cls-21" points="25.48 21.62 25.43 49.82 21.29 47.42 18.35 39.82 10.58 35.34 7.61 39.52 3.06 36.87 3.12 20.06 11.7 13.63 25.48 21.62"/>
            <polygon class="cls-18" points="48.93 7.99 25.48 21.62 11.7 13.63 35.15 0 48.93 7.99"/>
            <g>
              <path class="cls-18" d="M20.29,31.29l-15.35-9.03c-.12-.07-.19-.19-.19-.33l7.53-5.35,7.85,4.38c.07.04.12.09.15.16,0,0,0,10.16,0,10.17Z"/>
              <path class="cls-20" d="M20.21,20.87c.07.04.12.09.15.16v9.66s-14.57-8.42-14.57-8.42c-.12-.07-.19-.19-.19-.33l7.17-5.09,7.44,4.02Z"/>
            </g>
            <g>
              <polygon class="cls-16" points="42.32 6.41 26.87 15.39 17.8 12.64 33.24 3.66 42.32 6.41"/>
              <polygon class="cls-21" points="26.87 15.39 26.87 17.96 17.8 12.64 26.87 15.39"/>
              <polygon class="cls-2" points="42.32 6.41 42.32 9.06 26.87 17.96 26.87 15.39 42.32 6.41"/>
            </g>
          </g>
          <g>
            <g>
              <polygon class="cls-15" points="48.93 31.64 94.31 57.94 94.31 60.17 48.93 33.87 48.93 31.64"/>
              <polygon class="cls-1" points="48.93 31.64 94.31 57.94 95.27 57.39 49.89 31.09 48.93 31.64"/>
            </g>
            <polygon class="cls-15" points="94.31 60.17 94.31 57.94 95.27 57.39 95.27 59.61 94.31 60.17"/>
          </g>
          <g>
            <polygon class="cls-4" points="51.68 63.48 53.8 62.25 54.17 62.08 54.56 61.97 54.98 61.92 55.43 61.93 55.9 62 56.39 62.14 56.9 62.34 57.43 62.61 57.69 62.77 57.95 62.95 58.21 63.13 58.46 63.33 58.71 63.54 58.95 63.76 59.19 63.99 59.42 64.23 59.65 64.48 59.87 64.74 60.09 65 60.29 65.28 60.5 65.56 60.69 65.85 60.88 66.14 61.05 66.44 61.22 66.74 61.38 67.05 61.54 67.36 61.68 67.68 61.81 68 61.94 68.31 62.05 68.64 62.15 68.96 62.24 69.28 62.32 69.6 62.39 69.92 62.45 70.24 62.5 70.56 62.53 70.87 62.55 71.19 62.56 71.49 62.53 72.08 62.45 72.63 62.32 73.12 62.15 73.57 61.94 73.96 61.68 74.3 61.38 74.58 61.05 74.81 60.18 75.32 60.18 75.32 57.59 76.82 50.33 64.25 51.68 63.48"/>
            <path class="cls-8" d="M53.96,64.61c2.83,1.64,5.13,5.61,5.13,8.88,0,3.27-2.3,4.6-5.13,2.96-2.83-1.64-5.13-5.61-5.13-8.88,0-3.27,2.3-4.6,5.13-2.96Z"/>
            <path class="cls-1" d="M53.96,68.08c-1.17-.68-2.13-.13-2.13,1.23s.95,3,2.13,3.68c1.17.68,2.13.13,2.13-1.23,0-1.36-.95-3-2.13-3.68Z"/>
            <path class="cls-15" d="M53.96,68.53c-.96-.55-1.74-.1-1.74,1s.78,2.46,1.74,3.01c.96.55,1.74.1,1.74-1s-.78-2.46-1.74-3.01Z"/>
            <path class="cls-4" d="M53.96,69.34c-.57-.33-1.04-.06-1.04.6,0,.66.46,1.47,1.04,1.8.57.33,1.04.06,1.04-.6,0-.66-.47-1.47-1.04-1.8Z"/>
          </g>
          <polygon class="cls-13" points="69.7 40.67 94.48 26.36 94.48 57.83 69.7 72.13 69.7 40.67"/>
          <polygon class="cls-10" points="69.7 40.67 24.32 14.37 24.32 48.06 69.7 74.36 69.7 40.67"/>
          <g>
            <g>
              <polygon class="cls-15" points="23.36 46.39 68.74 72.69 68.74 74.92 23.36 48.62 23.36 46.39"/>
              <polygon class="cls-1" points="23.36 46.39 68.74 72.69 69.7 72.13 24.32 45.83 23.36 46.39"/>
            </g>
            <polygon class="cls-15" points="68.74 74.92 68.74 72.69 69.7 72.13 69.7 74.36 68.74 74.92"/>
          </g>
          <polygon class="cls-14" points="24.32 14.37 69.7 40.67 94.48 26.36 49.11 .06 24.32 14.37"/>
          <g>
            <polygon class="cls-20" points="44.51 65.67 28.96 56.59 28.96 51.8 44.51 60.88 44.51 65.67"/>
            <polygon class="cls-17" points="44.51 65.67 44.51 60.88 48.77 63.34 44.51 65.67"/>
          </g>
          <g>
            <path class="cls-1" d="M4.08,17.95l-.66-.38-.09-.04-.1-.02h-.1s-.11,0-.11,0l-.11.03-.12.04-.12.06-1.47.85-.12.08-.12.09c-.23.21-.35.37-.52.63l-.09.15-.08.16-.07.16-.06.17-.05.17-.04.17-.03.17-.02.17v.17s0,3.95,0,3.95v.16s.02.15.02.15l.03.14.04.12.05.11.06.1.07.08.08.07.09.05.66.38-.09-.05,2.98-8.13.09.04Z"/>
            <path class="cls-15" d="M3.32,18.03l-1.47.85c-.66.38-1.2,1.41-1.2,2.29v3.95c0,.88.54,1.29,1.2.91l1.47-.85c.66-.38,1.2-1.41,1.2-2.29v-3.95c0-.88-.54-1.29-1.2-.91Z"/>
          </g>
          <g>
            <polygon class="cls-4" points="96.48 58.08 69.96 73.4 69.96 76.03 96.48 60.71 96.48 58.08"/>
            <polygon class="cls-8" points="68.74 72.69 69.96 73.4 69.96 76.03 68.74 75.32 68.74 72.69"/>
            <polygon class="cls-7" points="68.74 72.69 69.96 73.4 96.48 58.08 95.26 57.38 68.74 72.69"/>
          </g>
          <path class="cls-3" d="M20.96,34.73l-1.78-1.03c-.18-.1-.32-.38-.32-.61h0c0-.23.14-.34.32-.24l1.78,1.03c.18.1.32.38.32.61h0c0,.23-.14.34-.32.24Z"/>
          <polygon class="cls-12" points="82.61 64.71 83.22 64.35 83.22 32.86 82.61 33.21 82.61 64.71"/>
          <g>
            <path class="cls-4" d="M92.25,60.9c.67-.39,1.21-.07,1.21.7,0,.77-.54,1.71-1.21,2.1-.67.39-1.21.07-1.21-.7,0-.77.54-1.71,1.21-2.1Z"/>
            <polygon class="cls-8" points="91.39 63.79 90.96 63.54 90.89 63.49 90.82 63.42 90.76 63.34 90.7 63.25 90.66 63.14 90.63 63.02 90.62 62.9 90.61 62.76 90.62 62.61 90.63 62.46 90.66 62.31 90.7 62.16 90.76 62 90.82 61.85 90.89 61.71 90.96 61.56 91.05 61.42 91.14 61.29 91.24 61.16 91.35 61.04 91.46 60.93 91.58 60.82 91.7 60.73 91.82 60.66 91.95 60.59 92.07 60.54 92.18 60.51 92.29 60.49 92.4 60.49 92.5 60.5 92.59 60.53 92.68 60.57 93.11 60.82 93.02 60.78 92.93 60.75 92.83 60.74 92.72 60.74 92.61 60.76 92.49 60.79 92.37 60.84 92.25 60.9 92.12 60.98 92 61.07 91.89 61.17 91.78 61.28 91.67 61.4 91.57 61.53 91.48 61.67 91.39 61.81 91.31 61.95 91.24 62.1 91.18 62.25 91.13 62.4 91.09 62.55 91.06 62.71 91.04 62.85 91.03 63 91.04 63.14 91.06 63.27 91.09 63.39 91.13 63.49 91.18 63.58 91.24 63.66 91.31 63.73 91.39 63.79"/>
            <path class="cls-5" d="M92.25,61.26c.5-.29.9-.05.9.52,0,.57-.4,1.27-.9,1.56-.5.29-.9.05-.9-.52,0-.57.4-1.27.9-1.56Z"/>
          </g>
          <g>
            <path class="cls-4" d="M94.59,59.88c.43-.25.78-.05.78.45,0,.5-.35,1.1-.78,1.35-.43.25-.78.05-.78-.45,0-.5.35-1.1.78-1.35Z"/>
            <polygon class="cls-8" points="94.04 61.74 93.76 61.58 93.71 61.55 93.67 61.51 93.63 61.45 93.59 61.39 93.57 61.33 93.55 61.25 93.54 61.17 93.53 61.08 93.54 60.98 93.55 60.89 93.57 60.79 93.59 60.69 93.63 60.59 93.67 60.5 93.71 60.4 93.76 60.31 93.82 60.22 93.88 60.13 93.94 60.05 94.01 59.97 94.08 59.9 94.16 59.83 94.23 59.77 94.31 59.72 94.39 59.68 94.47 59.65 94.55 59.63 94.62 59.62 94.69 59.62 94.75 59.63 94.81 59.64 94.87 59.67 95.14 59.83 95.09 59.8 95.03 59.78 94.96 59.78 94.89 59.78 94.82 59.79 94.75 59.81 94.67 59.84 94.59 59.88 94.51 59.93 94.43 59.99 94.36 60.06 94.28 60.13 94.22 60.21 94.15 60.29 94.09 60.38 94.04 60.47 93.99 60.56 93.94 60.65 93.9 60.75 93.87 60.85 93.84 60.95 93.82 61.05 93.81 61.14 93.81 61.24 93.81 61.33 93.82 61.41 93.84 61.48 93.87 61.55 93.9 61.61 93.94 61.66 93.99 61.71 94.04 61.74"/>
            <path class="cls-9" d="M94.59,60.12c.32-.18.58-.03.58.33,0,.37-.26.82-.58,1-.32.18-.58.03-.58-.33,0-.37.26-.82.58-1Z"/>
          </g>
          <g>
            <path class="cls-4" d="M75.13,70.79c.67-.39,1.21-.07,1.21.7,0,.77-.54,1.71-1.21,2.1-.67.39-1.21.07-1.21-.7,0-.77.54-1.71,1.21-2.1Z"/>
            <polygon class="cls-8" points="74.28 73.68 73.85 73.43 73.77 73.38 73.7 73.31 73.64 73.23 73.59 73.14 73.55 73.03 73.52 72.92 73.5 72.79 73.5 72.65 73.5 72.5 73.52 72.35 73.55 72.2 73.59 72.05 73.64 71.9 73.7 71.75 73.77 71.6 73.85 71.45 73.94 71.31 74.03 71.18 74.13 71.05 74.24 70.93 74.35 70.82 74.46 70.72 74.58 70.63 74.71 70.55 74.83 70.48 74.95 70.44 75.07 70.4 75.18 70.39 75.29 70.38 75.39 70.4 75.48 70.42 75.57 70.46 75.99 70.71 75.91 70.67 75.81 70.64 75.71 70.63 75.61 70.63 75.49 70.65 75.38 70.68 75.26 70.73 75.13 70.79 75.01 70.87 74.89 70.96 74.77 71.07 74.66 71.18 74.56 71.3 74.46 71.42 74.36 71.56 74.28 71.7 74.2 71.84 74.13 71.99 74.07 72.14 74.02 72.29 73.98 72.45 73.95 72.6 73.93 72.75 73.92 72.89 73.93 73.03 73.95 73.16 73.98 73.28 74.02 73.38 74.07 73.48 74.13 73.56 74.2 73.63 74.28 73.68"/>
            <path class="cls-5" d="M75.13,71.16c.5-.29.9-.05.9.52,0,.57-.4,1.27-.9,1.56-.5.29-.9.05-.9-.52,0-.57.4-1.27.9-1.56Z"/>
          </g>
          <g>
            <path class="cls-4" d="M72.55,72.86c.43-.25.78-.05.78.45,0,.5-.35,1.1-.78,1.35-.43.25-.78.05-.78-.45s.35-1.1.78-1.35Z"/>
            <polygon class="cls-8" points="72 74.72 71.72 74.56 71.67 74.52 71.63 74.48 71.59 74.43 71.55 74.37 71.53 74.3 71.51 74.22 71.5 74.14 71.49 74.05 71.5 73.96 71.51 73.86 71.53 73.76 71.55 73.66 71.59 73.57 71.63 73.47 71.67 73.37 71.72 73.28 71.78 73.19 71.84 73.1 71.9 73.02 71.97 72.94 72.04 72.87 72.12 72.81 72.2 72.75 72.27 72.7 72.35 72.66 72.43 72.63 72.51 72.6 72.58 72.59 72.65 72.59 72.71 72.6 72.77 72.62 72.83 72.64 73.1 72.8 73.05 72.78 72.99 72.76 72.92 72.75 72.85 72.75 72.78 72.76 72.71 72.78 72.63 72.81 72.55 72.86 72.47 72.91 72.39 72.97 72.32 73.03 72.24 73.1 72.18 73.18 72.11 73.26 72.05 73.35 72 73.44 71.95 73.53 71.9 73.63 71.86 73.73 71.83 73.82 71.8 73.92 71.78 74.02 71.77 74.12 71.77 74.21 71.77 74.3 71.78 74.38 71.8 74.46 71.83 74.53 71.86 74.59 71.9 74.64 71.95 74.68 72 74.72"/>
            <path class="cls-9" d="M72.55,73.09c.32-.18.58-.03.58.33,0,.37-.26.82-.58,1-.32.18-.58.03-.58-.33,0-.37.26-.82.58-1Z"/>
          </g>
        </g>
      </g>
    </g>
  </g>
</svg>