<svg width="61" height="68" viewBox="0 0 61 68" fill="none" xmlns="http://www.w3.org/2000/svg">
<path d="M11.2784 55.4375H8.78977C8.74432 55.1155 8.65152 54.8295 8.51136 54.5795C8.37121 54.3258 8.19129 54.1098 7.97159 53.9318C7.75189 53.7538 7.49811 53.6174 7.21023 53.5227C6.92614 53.428 6.61742 53.3807 6.28409 53.3807C5.68182 53.3807 5.1572 53.5303 4.71023 53.8295C4.26326 54.125 3.91667 54.5568 3.67045 55.125C3.42424 55.6894 3.30114 56.375 3.30114 57.1818C3.30114 58.0114 3.42424 58.7083 3.67045 59.2727C3.92045 59.8371 4.26894 60.2633 4.71591 60.5511C5.16288 60.839 5.67992 60.983 6.26705 60.983C6.59659 60.983 6.90152 60.9394 7.18182 60.8523C7.46591 60.7652 7.7178 60.6383 7.9375 60.4716C8.1572 60.3011 8.33902 60.0947 8.48295 59.8523C8.63068 59.6098 8.73295 59.3333 8.78977 59.0227L11.2784 59.0341C11.214 59.5682 11.053 60.0833 10.7955 60.5795C10.5417 61.072 10.1989 61.5133 9.76705 61.9034C9.33902 62.2898 8.82765 62.5966 8.23295 62.8239C7.64205 63.0473 6.97348 63.1591 6.22727 63.1591C5.18939 63.1591 4.26136 62.9242 3.44318 62.4545C2.62879 61.9848 1.98485 61.3049 1.51136 60.4148C1.04167 59.5246 0.806818 58.447 0.806818 57.1818C0.806818 55.9129 1.04545 54.8333 1.52273 53.9432C2 53.053 2.64773 52.375 3.46591 51.9091C4.28409 51.4394 5.20455 51.2045 6.22727 51.2045C6.90152 51.2045 7.52652 51.2992 8.10227 51.4886C8.68182 51.678 9.19508 51.9545 9.64205 52.3182C10.089 52.678 10.4527 53.1193 10.733 53.642C11.017 54.1648 11.1989 54.7633 11.2784 55.4375ZM13.8426 63V51.3636H16.3028V60.9716H21.2915V63H13.8426ZM33.9608 57.1818C33.9608 58.4508 33.7203 59.5303 33.2392 60.4205C32.7619 61.3106 32.1104 61.9905 31.2847 62.4602C30.4627 62.9261 29.5384 63.1591 28.5119 63.1591C27.4778 63.1591 26.5498 62.9242 25.7278 62.4545C24.9059 61.9848 24.2563 61.3049 23.779 60.4148C23.3017 59.5246 23.0631 58.447 23.0631 57.1818C23.0631 55.9129 23.3017 54.8333 23.779 53.9432C24.2563 53.053 24.9059 52.375 25.7278 51.9091C26.5498 51.4394 27.4778 51.2045 28.5119 51.2045C29.5384 51.2045 30.4627 51.4394 31.2847 51.9091C32.1104 52.375 32.7619 53.053 33.2392 53.9432C33.7203 54.8333 33.9608 55.9129 33.9608 57.1818ZM31.4665 57.1818C31.4665 56.3598 31.3434 55.6667 31.0972 55.1023C30.8547 54.5379 30.5119 54.1098 30.0688 53.8182C29.6256 53.5265 29.1066 53.3807 28.5119 53.3807C27.9172 53.3807 27.3983 53.5265 26.9551 53.8182C26.5119 54.1098 26.1672 54.5379 25.921 55.1023C25.6786 55.6667 25.5574 56.3598 25.5574 57.1818C25.5574 58.0038 25.6786 58.697 25.921 59.2614C26.1672 59.8258 26.5119 60.2538 26.9551 60.5455C27.3983 60.8371 27.9172 60.983 28.5119 60.983C29.1066 60.983 29.6256 60.8371 30.0688 60.5455C30.5119 60.2538 30.8547 59.8258 31.0972 59.2614C31.3434 58.697 31.4665 58.0038 31.4665 57.1818ZM42.8957 54.7102C42.8503 54.2519 42.6552 53.8958 42.3105 53.642C41.9658 53.3883 41.498 53.2614 40.9071 53.2614C40.5056 53.2614 40.1666 53.3182 39.8901 53.4318C39.6135 53.5417 39.4014 53.6951 39.2537 53.892C39.1098 54.089 39.0378 54.3125 39.0378 54.5625C39.0302 54.7708 39.0738 54.9527 39.1685 55.108C39.267 55.2633 39.4014 55.3977 39.5719 55.5114C39.7423 55.6212 39.9393 55.7178 40.1628 55.8011C40.3863 55.8807 40.6249 55.9489 40.8787 56.0057L41.9241 56.2557C42.4317 56.3693 42.8976 56.5208 43.3219 56.7102C43.7461 56.8996 44.1135 57.1326 44.4241 57.4091C44.7348 57.6856 44.9753 58.0114 45.1457 58.3864C45.32 58.7614 45.409 59.1913 45.4128 59.6761C45.409 60.3883 45.2272 61.0057 44.8673 61.5284C44.5113 62.0473 43.9961 62.4508 43.3219 62.7386C42.6514 63.0227 41.8427 63.1648 40.8957 63.1648C39.9563 63.1648 39.1382 63.0208 38.4412 62.733C37.748 62.4451 37.2063 62.0189 36.8162 61.4545C36.4298 60.8864 36.2272 60.1837 36.2082 59.3466H38.5889C38.6154 59.7367 38.7272 60.0625 38.9241 60.3239C39.1249 60.5814 39.392 60.7765 39.7253 60.9091C40.0624 61.0379 40.4431 61.1023 40.8673 61.1023C41.284 61.1023 41.6457 61.0417 41.9526 60.9205C42.2632 60.7992 42.5037 60.6307 42.6741 60.4148C42.8446 60.1989 42.9298 59.9508 42.9298 59.6705C42.9298 59.4091 42.8522 59.1894 42.6969 59.0114C42.5454 58.8333 42.3219 58.6818 42.0264 58.5568C41.7348 58.4318 41.3768 58.3182 40.9526 58.2159L39.6855 57.8977C38.7045 57.6591 37.9298 57.286 37.3616 56.7784C36.7935 56.2708 36.5113 55.5871 36.5151 54.7273C36.5113 54.0227 36.6988 53.4072 37.0776 52.8807C37.4601 52.3542 37.9848 51.9432 38.6514 51.6477C39.3181 51.3523 40.0757 51.2045 40.9241 51.2045C41.7878 51.2045 42.5416 51.3523 43.1855 51.6477C43.8332 51.9432 44.337 52.3542 44.6969 52.8807C45.0567 53.4072 45.2423 54.017 45.2537 54.7102H42.8957ZM47.8676 63V51.3636H55.7085V53.392H50.3278V56.1648H55.3051V58.1932H50.3278V60.9716H55.7313V63H47.8676Z" fill="#312624"/>
<line x1="4.12232" y1="2.34458" x2="59.1223" y2="39.6327" stroke="#312624" stroke-width="4"/>
<line x1="1.87768" y1="39.6327" x2="56.8777" y2="2.34453" stroke="#312624" stroke-width="4"/>
</svg>
