<svg width="397" height="100" viewBox="0 0 397 100" fill="none" xmlns="http://www.w3.org/2000/svg">
<rect width="398" height="100" fill="url(#paint0_radial_2963_18)" fill-opacity="0.9"/>
<path d="M65.5293 71.09H72.7953V72.602H65.5293V71.09ZM62.9253 73.61H75.4693V75.192H62.9253V73.61ZM66.3133 74.87H68.1333C67.8673 77.474 67.1953 79.322 63.4993 80.302C63.3313 79.854 62.8973 79.154 62.5193 78.804C65.7253 78.09 66.1033 76.788 66.3133 74.87ZM69.9253 74.604H71.6193V78.02C71.6193 78.468 71.7033 78.538 72.1933 78.538C72.4173 78.538 73.3273 78.538 73.5933 78.538C74.0553 78.538 74.1393 78.3 74.1953 76.83C74.5313 77.096 75.2593 77.362 75.6933 77.474C75.5253 79.518 75.0773 80.05 73.7473 80.05C73.4253 80.05 72.2773 80.05 71.9553 80.05C70.3173 80.05 69.9253 79.56 69.9253 78.048V74.604ZM68.2593 67.128H70.0513V69.662H68.2593V67.128ZM63.1773 68.472H75.2033V71.804H73.3973V70.054H64.8853V71.804H63.1773V68.472ZM78.7313 72.378H81.9653V73.918H78.7313V72.378ZM81.3213 72.378H82.9593C82.9593 72.378 82.9453 72.798 82.9453 72.994C82.8893 75.962 82.8193 77.208 82.4973 77.642C82.2173 77.992 81.9373 78.118 81.5313 78.188C81.1533 78.244 80.5513 78.244 79.8933 78.23C79.8653 77.74 79.6833 77.082 79.4313 76.662C79.9353 76.718 80.4113 76.718 80.6353 76.718C80.8313 76.718 80.9573 76.69 81.0693 76.55C81.2373 76.326 81.2933 75.346 81.3213 72.63V72.378ZM85.5353 67.996L86.5433 66.974C87.3133 67.38 88.3493 68.024 88.8533 68.486L87.7753 69.62C87.3133 69.13 86.3193 68.444 85.5353 67.996ZM87.1873 71.594L88.8813 72C87.7053 75.654 85.6473 78.496 82.8753 80.204C82.6233 79.854 82.0073 79.154 81.6573 78.818C84.3453 77.376 86.2213 74.842 87.1873 71.594ZM78.8293 69.214H89.6233V70.866H78.8293V69.214ZM77.7093 69.214H79.4733V73.33C79.4733 75.43 79.2353 78.538 77.9613 80.428C77.6813 80.092 76.9253 79.476 76.5333 79.28C77.6113 77.6 77.7093 75.15 77.7093 73.316V69.214ZM83.3933 67.128H85.1573C85.0593 72.84 86.3473 78.454 87.7613 78.454C88.0833 78.454 88.2513 77.74 88.3353 75.976C88.7133 76.368 89.3153 76.76 89.7633 76.928C89.4973 79.532 88.9373 80.162 87.6213 80.162C84.5693 80.162 83.4353 73.512 83.3933 67.128ZM97.6453 67.716H103.427V69.228H97.6453V67.716ZM92.1013 70.81H96.4273V72.28H92.1013V70.81ZM97.7013 71.314H102.335V72.84H97.7013V71.314ZM93.9353 67.114H95.4473V71.664H93.9353V67.114ZM96.8753 67.716H98.4433V71.818C98.4433 74.226 98.2473 77.88 97.0433 80.218C96.7493 79.966 96.0493 79.56 95.6573 79.42C96.8053 77.222 96.8753 74.044 96.8753 71.818V67.716ZM92.1853 73.848H95.7133V80.218H94.1873V75.332H92.1853V73.848ZM91.4433 67.478H92.9273V72.882C92.9273 75.36 92.7873 78.356 91.5413 80.288C91.3033 79.98 90.7573 79.49 90.4073 79.266C91.3313 77.572 91.4433 74.898 91.4433 72.882V67.478ZM101.831 71.314H102.125L102.405 71.272L103.441 71.58C102.867 75.794 101.243 78.636 98.7373 80.246C98.5133 79.826 98.0373 79.196 97.6733 78.874C99.8573 77.67 101.383 74.926 101.831 71.622V71.314ZM99.4373 72.322C100.137 75.234 101.593 77.74 103.959 78.902C103.595 79.224 103.077 79.854 102.811 80.288C100.305 78.832 98.9053 76.074 98.0793 72.644L99.4373 72.322ZM107.179 71.93H113.759V73.54H107.179V71.93ZM113.591 71.93H113.857L114.221 71.874L115.439 72.77C115.369 72.84 115.243 72.938 115.117 73.008C108.467 76.494 108.005 77.152 108.005 77.67C108.005 78.076 108.481 78.23 109.251 78.23H114.823C115.537 78.23 115.845 78.006 115.915 76.382C116.391 76.662 117.007 76.872 117.525 76.97C117.315 79.42 116.573 79.924 114.655 79.924H109.405C107.235 79.924 106.199 79.126 106.199 77.838C106.199 76.774 106.521 75.794 113.591 71.93ZM108.131 67.114L109.895 67.66C108.957 69.69 107.473 71.734 106.073 72.994C105.751 72.658 105.037 72.042 104.617 71.762C106.017 70.684 107.361 68.906 108.131 67.114ZM107.977 68.836H117.329V70.474H107.151L107.977 68.836ZM127.773 74.422C127.773 73.498 127.059 72.756 125.743 72.756C124.203 72.756 122.803 73.218 122.103 73.428C121.697 73.554 121.137 73.764 120.745 73.932L120.213 71.916C120.689 71.888 121.277 71.776 121.739 71.678C122.761 71.454 124.329 71.048 125.981 71.048C128.193 71.048 129.747 72.308 129.747 74.492C129.747 77.502 126.961 79.35 123.069 79.896L122.075 78.146C125.547 77.754 127.773 76.62 127.773 74.422ZM122.271 67.702C123.909 68.052 127.087 68.332 128.557 68.332L128.291 70.054C126.653 69.942 123.615 69.662 122.005 69.382L122.271 67.702ZM134.927 68.976C135.963 69.088 137.279 69.144 138.749 69.144C140.121 69.144 141.731 69.06 142.809 68.948V70.81C141.829 70.894 140.093 70.978 138.763 70.978C137.293 70.978 136.075 70.908 134.927 70.824V68.976ZM136.117 74.898C135.977 75.402 135.879 75.85 135.879 76.326C135.879 77.222 136.719 77.866 138.749 77.866C140.639 77.866 142.417 77.656 143.663 77.32L143.677 79.28C142.459 79.574 140.779 79.756 138.805 79.756C135.599 79.756 133.989 78.678 133.989 76.76C133.989 75.948 134.157 75.262 134.269 74.744L136.117 74.898ZM143.173 67.52C143.523 68.038 144.013 68.934 144.279 69.452L143.159 69.928C142.865 69.354 142.431 68.514 142.053 67.982L143.173 67.52ZM144.825 66.89C145.189 67.422 145.707 68.304 145.959 68.794L144.839 69.284C144.559 68.696 144.097 67.884 143.719 67.352L144.825 66.89ZM154.793 67.744H158.419V69.256H154.793V67.744ZM154.793 70.908H158.419V72.378H154.793V70.908ZM154.793 74.1H158.433V75.598H154.793V74.1ZM157.691 67.744H159.315V78.412C159.315 79.224 159.161 79.686 158.657 79.938C158.167 80.204 157.453 80.246 156.403 80.246C156.361 79.798 156.137 79.07 155.927 78.65C156.529 78.678 157.215 78.678 157.411 78.664C157.621 78.664 157.691 78.594 157.691 78.384V67.744ZM154.107 67.744H155.675V72.882C155.675 75.094 155.493 78.3 154.303 80.288C154.023 79.994 153.337 79.504 152.973 79.336C154.023 77.544 154.107 74.884 154.107 72.882V67.744ZM146.771 68.766H153.631V70.222H146.771V68.766ZM148.605 71.048H151.937V72.336H148.605V71.048ZM148.605 73.232H151.951V74.506H148.605V73.232ZM146.603 75.444H153.533V76.914H146.603V75.444ZM147.877 67.268H149.389V75.976H147.877V67.268ZM151.139 67.268H152.679V75.976H151.139V67.268ZM148.353 77.012L149.935 77.474C149.417 78.51 148.591 79.602 147.849 80.288C147.527 80.008 146.883 79.532 146.491 79.308C147.247 78.734 147.961 77.866 148.353 77.012ZM150.425 77.642L151.699 76.942C152.259 77.558 152.973 78.412 153.295 78.986L151.937 79.784C151.657 79.224 150.985 78.3 150.425 77.642ZM165.559 68.71H173.133V70.222H165.559V68.71ZM164.915 74.086H173.679V75.612H164.915V74.086ZM164.775 71.454H173.791V72.98H164.775V71.454ZM168.429 67.17H170.109V72.238H168.429V67.17ZM170.347 72.714H172.027V78.496C172.027 79.322 171.873 79.742 171.313 79.994C170.739 80.246 169.969 80.26 168.905 80.26C168.835 79.798 168.597 79.126 168.387 78.678C169.073 78.72 169.843 78.72 170.067 78.706C170.277 78.706 170.347 78.65 170.347 78.468V72.714ZM165.685 76.41L167.071 75.696C167.687 76.41 168.415 77.404 168.709 78.09L167.239 78.888C166.987 78.216 166.301 77.166 165.685 76.41ZM163.823 70.208L165.279 70.824C164.285 72.546 162.675 74.394 161.233 75.556C161.121 75.178 160.701 74.226 160.449 73.82C161.667 72.952 163.025 71.566 163.823 70.208ZM163.487 67.128L165.041 67.772C164.131 69.074 162.717 70.446 161.415 71.3C161.247 70.922 160.841 70.236 160.603 69.886C161.667 69.214 162.899 68.066 163.487 67.128ZM162.507 73.33L164.047 71.776L164.117 71.818V80.26H162.507V73.33ZM180.645 81.828C179.315 79.672 178.545 77.39 178.545 74.59C178.545 71.804 179.315 69.508 180.645 67.352L181.919 67.898C180.743 69.942 180.211 72.308 180.211 74.59C180.211 76.886 180.743 79.252 181.919 81.296L180.645 81.828ZM193.888 68.136C193.86 68.528 193.846 68.976 193.846 69.55C193.846 70.264 193.846 71.622 193.846 72.308C193.846 75.332 193.258 76.62 192.208 77.768C191.284 78.79 189.842 79.462 188.82 79.798L187.35 78.244C188.75 77.922 189.87 77.39 190.724 76.48C191.676 75.43 191.872 74.38 191.872 72.196C191.872 71.496 191.872 70.152 191.872 69.55C191.872 68.976 191.83 68.528 191.774 68.136H193.888ZM187.406 68.262C187.378 68.584 187.35 68.892 187.35 69.326C187.35 69.942 187.35 73.274 187.35 74.058C187.35 74.408 187.378 74.954 187.406 75.276H185.362C185.39 75.024 185.432 74.478 185.432 74.044C185.432 73.246 185.432 69.942 185.432 69.326C185.432 69.074 185.418 68.584 185.376 68.262H187.406ZM207.888 68.136C207.86 68.528 207.846 68.976 207.846 69.55C207.846 70.264 207.846 71.622 207.846 72.308C207.846 75.332 207.258 76.62 206.208 77.768C205.284 78.79 203.842 79.462 202.82 79.798L201.35 78.244C202.75 77.922 203.87 77.39 204.724 76.48C205.676 75.43 205.872 74.38 205.872 72.196C205.872 71.496 205.872 70.152 205.872 69.55C205.872 68.976 205.83 68.528 205.774 68.136H207.888ZM201.406 68.262C201.378 68.584 201.35 68.892 201.35 69.326C201.35 69.942 201.35 73.274 201.35 74.058C201.35 74.408 201.378 74.954 201.406 75.276H199.362C199.39 75.024 199.432 74.478 199.432 74.044C199.432 73.246 199.432 69.942 199.432 69.326C199.432 69.074 199.418 68.584 199.376 68.262H201.406ZM211.934 72.518C212.452 72.56 213.46 72.616 214.188 72.616C215.84 72.616 220.46 72.616 221.706 72.616C222.364 72.616 222.98 72.546 223.358 72.518V74.73C223.022 74.716 222.308 74.646 221.72 74.646C220.446 74.646 215.84 74.646 214.188 74.646C213.404 74.646 212.466 74.688 211.934 74.73V72.518ZM235.625 69.522C235.513 69.676 235.261 70.096 235.135 70.39C234.561 71.72 233.525 73.624 232.321 75.024C230.753 76.83 228.639 78.566 226.469 79.588L225.013 78.076C227.281 77.236 229.437 75.528 230.753 74.072C231.677 73.022 232.531 71.636 232.853 70.642C232.265 70.642 228.695 70.642 228.093 70.642C227.519 70.642 226.749 70.712 226.441 70.74V68.738C226.819 68.794 227.687 68.836 228.093 68.836C228.835 68.836 232.419 68.836 233.035 68.836C233.651 68.836 234.197 68.766 234.491 68.668L235.625 69.522ZM232.503 73.862C233.945 75.038 235.933 77.124 236.843 78.244L235.247 79.63C234.211 78.188 232.685 76.522 231.187 75.164L232.503 73.862ZM244.179 73.736H245.929V78.44C245.929 79.308 245.719 79.756 245.061 79.98C244.403 80.218 243.493 80.246 242.289 80.246C242.191 79.77 241.911 79.07 241.673 78.622C242.499 78.664 243.549 78.664 243.829 78.65C244.095 78.636 244.179 78.594 244.179 78.384V73.736ZM239.965 67.898H248.561V69.438H239.965V67.898ZM247.931 67.898H248.379L248.757 67.8L249.961 68.752C248.771 69.928 247.119 71.258 245.621 72.084C245.397 71.748 244.893 71.23 244.613 70.964C245.831 70.278 247.301 69.06 247.931 68.262V67.898ZM238.607 72.462H250.045V74.058H238.607V72.462ZM241.925 71.23L242.765 69.97C244.291 70.488 246.699 71.37 247.917 71.916L247.021 73.358C245.887 72.798 243.535 71.832 241.925 71.23ZM249.485 72.462H249.807L250.101 72.35L251.473 72.938C250.857 74.254 250.017 75.668 249.219 76.606L247.791 75.78C248.379 74.996 249.093 73.764 249.485 72.742V72.462ZM255.085 71.342H262.827V72.938H255.085V71.342ZM258.949 74.702H263.681V76.27H258.949V74.702ZM258.067 72.266H259.831V79.028L258.067 78.818V72.266ZM254.721 73.722L256.485 73.904C256.121 76.746 255.253 78.972 253.657 80.344C253.377 80.05 252.663 79.448 252.271 79.196C253.783 78.076 254.483 76.13 254.721 73.722ZM256.079 75.472C256.975 78.048 258.935 78.44 261.427 78.44C262.169 78.44 264.507 78.44 265.445 78.412C265.207 78.804 264.927 79.616 264.857 80.12H261.329C258.095 80.12 255.911 79.462 254.707 75.934L256.079 75.472ZM258.039 67.128H259.831V69.69H258.039V67.128ZM252.943 68.542H264.983V72.056H263.247V70.138H254.595V72.056H252.943V68.542ZM271.403 73.89C270.661 73.89 270.129 73.316 270.129 72.546C270.129 71.79 270.661 71.216 271.403 71.216C272.131 71.216 272.691 71.79 272.691 72.546C272.691 73.316 272.131 73.89 271.403 73.89ZM271.403 79.196C270.661 79.196 270.129 78.622 270.129 77.852C270.129 77.082 270.661 76.522 271.403 76.522C272.131 76.522 272.691 77.082 272.691 77.852C272.691 78.622 272.131 79.196 271.403 79.196ZM277.447 79V77.824C280.275 75.29 281.927 73.344 281.927 71.748C281.927 70.712 281.381 70.068 280.387 70.068C279.617 70.068 279.015 70.558 278.483 71.146L277.349 70.026C278.301 69.004 279.239 68.458 280.653 68.458C282.599 68.458 283.915 69.704 283.915 71.636C283.915 73.526 282.347 75.542 280.457 77.39C280.975 77.334 281.661 77.264 282.151 77.264H284.391V79H277.447ZM289.247 79.196C287.133 79.196 285.733 77.362 285.733 73.778C285.733 70.208 287.133 68.458 289.247 68.458C291.347 68.458 292.747 70.208 292.747 73.778C292.747 77.362 291.347 79.196 289.247 79.196ZM289.247 77.586C290.143 77.586 290.801 76.69 290.801 73.778C290.801 70.88 290.143 70.04 289.247 70.04C288.351 70.04 287.679 70.88 287.679 73.778C287.679 76.69 288.351 77.586 289.247 77.586ZM293.963 79V77.824C296.791 75.29 298.443 73.344 298.443 71.748C298.443 70.712 297.897 70.068 296.903 70.068C296.133 70.068 295.531 70.558 294.999 71.146L293.865 70.026C294.817 69.004 295.755 68.458 297.169 68.458C299.115 68.458 300.431 69.704 300.431 71.636C300.431 73.526 298.863 75.542 296.973 77.39C297.491 77.334 298.177 77.264 298.667 77.264H300.907V79H293.963ZM305.497 79.196C303.859 79.196 302.767 78.552 301.983 77.782L302.949 76.48C303.523 77.054 304.265 77.53 305.217 77.53C306.309 77.53 307.051 76.844 307.051 75.612C307.051 74.408 306.351 73.736 305.315 73.736C304.699 73.736 304.363 73.89 303.761 74.282L302.809 73.666L303.103 68.64H308.647V70.362H304.881L304.685 72.56C305.091 72.378 305.455 72.28 305.931 72.28C307.667 72.28 309.123 73.302 309.123 75.57C309.123 77.866 307.401 79.196 305.497 79.196ZM312.159 79.196C311.417 79.196 310.885 78.622 310.885 77.852C310.885 77.082 311.417 76.522 312.159 76.522C312.887 76.522 313.447 77.082 313.447 77.852C313.447 78.622 312.887 79.196 312.159 79.196ZM315.577 79V77.334H317.817V70.782H315.927V69.508C316.977 69.312 317.677 69.046 318.349 68.64H319.875V77.334H321.821V79H315.577ZM324.969 79.196C324.227 79.196 323.695 78.622 323.695 77.852C323.695 77.082 324.227 76.522 324.969 76.522C325.697 76.522 326.257 77.082 326.257 77.852C326.257 78.622 325.697 79.196 324.969 79.196ZM331.664 79.196C329.704 79.196 327.94 77.614 327.94 73.96C327.94 70.11 329.858 68.458 331.958 68.458C333.218 68.458 334.142 68.976 334.772 69.634L333.666 70.852C333.316 70.446 332.672 70.11 332.084 70.11C330.824 70.11 329.83 71.076 329.83 73.96C329.83 76.648 330.614 77.642 331.636 77.642C332.406 77.642 333.036 76.998 333.036 75.738C333.036 74.506 332.448 73.946 331.566 73.946C330.992 73.946 330.334 74.254 329.816 75.108L329.732 73.708C330.278 72.938 331.244 72.49 331.944 72.49C333.68 72.49 334.926 73.512 334.926 75.738C334.926 77.866 333.428 79.196 331.664 79.196ZM337.514 81.828L336.226 81.296C337.402 79.252 337.948 76.886 337.948 74.59C337.948 72.308 337.402 69.942 336.226 67.898L337.514 67.352C338.83 69.508 339.6 71.804 339.6 74.59C339.6 77.39 338.83 79.672 337.514 81.828Z" fill="#2F3B53"/>
<path d="M157.83 23.7719L157.046 26.6403C154.983 34.1974 152.888 41.7608 150.88 49.333C150.556 50.5189 150.217 51.2711 148.77 51.0391C147.251 50.802 145.131 51.7346 144.313 50.6075C143.617 49.632 144.915 47.808 145.297 46.3563C146.666 41.2325 148.091 36.1238 149.307 31.6695C147.529 35.1998 145.438 39.3857 143.334 43.5679C142.428 45.3656 141.427 47.137 140.679 49.0075C140.038 50.5958 139.088 51.0922 137.399 50.9868C134.503 50.8035 134.514 50.9251 134.67 48.078C134.945 42.7887 135.219 37.4993 135.48 32.2063C135.5 31.9154 135.677 31.5932 135.391 31.3964C134.468 34.775 133.514 38.1599 132.615 41.5599C132.044 43.7601 131.569 45.9866 131.026 48.1943C130.338 50.985 130.324 50.9812 127.341 50.9521C124.979 50.9294 124.102 49.801 124.712 47.567C126.742 40.134 128.803 32.6947 130.777 25.2466C131.116 24.0055 131.544 23.4702 132.938 23.5694C135.073 23.7225 137.222 23.6575 139.365 23.62C140.54 23.6 141.004 23.9047 140.906 25.2412C140.588 29.3332 140.447 33.429 140.247 37.5236C140.214 38.0777 140.24 38.6331 140.23 39.6975C142.831 34.5099 145.263 29.7799 147.57 25.016C148.071 23.9968 148.644 23.6345 149.727 23.6785C152.369 23.7627 155.006 23.7566 157.836 23.8033L157.83 23.7719Z" fill="#AA3542"/>
<path d="M174.576 36.6726C173.417 40.92 172.202 45.1524 171.138 49.4262C170.831 50.661 170.47 51.333 169.081 51.1611C167.491 50.9642 165.289 51.8152 164.453 50.7571C163.864 49.9885 165.012 47.8423 165.426 46.3253C167.324 39.375 169.263 32.4359 171.079 25.463C171.415 24.1768 171.943 23.654 173.249 23.8033C174.988 23.9965 177.222 23.0802 178.37 24.1347C179.518 25.1891 178.911 27.4683 179.074 29.2022C179.367 32.3051 179.569 35.413 179.732 37.6358C180.715 34.0366 181.962 29.739 183.031 25.3925C183.338 24.1576 183.785 23.7164 185.02 23.8017C186.587 23.9184 188.942 23.3168 189.528 24.0992C190.353 25.1988 189.074 27.1168 188.653 28.6613C186.781 35.6781 184.809 42.6824 182.965 49.7067C182.634 50.9202 182.136 51.3326 180.919 51.2373C179.179 51.103 176.934 51.7347 175.792 50.8745C174.606 49.958 175.257 47.5723 175.063 45.8447C174.744 42.8383 174.546 39.8206 174.286 36.8155C174.285 36.7114 174.158 36.6324 174.084 36.5234L174.58 36.6588L174.576 36.6726Z" fill="#AA3542"/>
<path d="M288.843 37.8074C287.774 41.7238 286.564 45.8835 285.533 50.0921C285.207 51.3959 284.724 51.9161 283.398 51.7317C281.899 51.5298 279.805 52.3658 279.05 51.3891C278.281 50.4087 279.496 48.5621 279.892 47.1141C281.781 40.0873 283.752 33.083 285.586 26.0412C285.933 24.7724 286.433 24.2422 287.751 24.3501C289.072 24.4442 290.399 24.4656 291.718 24.3517C292.916 24.2489 293.21 24.7442 293.283 25.8311C293.544 29.9182 293.878 34.0103 294.197 38.0986C294.21 38.3243 294.117 38.6101 294.117 38.6101C295.277 34.3627 296.495 30.1165 297.573 25.8465C297.854 24.7082 298.32 24.302 299.455 24.3748C301.022 24.4916 302.596 24.4766 304.272 24.5194C304.159 25.0961 304.082 25.5938 303.954 26.0627C301.755 34.1162 299.528 42.1623 297.398 50.2347C297.067 51.4482 296.579 51.8782 295.358 51.7966C293.604 51.6586 291.31 52.3065 290.234 51.4201C289.135 50.5123 289.717 48.1078 289.558 46.3601C289.304 43.3863 289.068 40.4025 288.865 37.7835L288.843 37.8074Z" fill="#AA3542"/>
<path d="M258.2 37.7385C257.299 40.4414 256.83 43.1883 255.714 45.7582C253.817 50.1009 250.386 52.0388 245.865 52.1676C238.418 52.3864 236.268 49.5767 238.204 42.3255C239.11 38.898 240.026 35.488 241.002 32.0793C242.981 25.2104 250.029 21.6818 256.78 24.1772C259.052 25.0199 260.236 26.8102 260.126 29.3289C260.003 32.2738 258.749 34.9692 258.2 37.7385ZM251.188 37.8245C251.188 37.8245 251.174 37.8207 251.161 37.817C251.759 35.6243 252.358 33.4316 252.961 31.2252C253.22 30.2737 253.309 29.2456 252.302 28.704C251.23 28.1297 250.206 28.517 249.354 29.3067C248.639 29.9711 248.271 30.8337 248.015 31.7714C247.333 34.2675 246.648 36.7773 245.966 39.2734C245.484 41.0385 244.957 42.8062 244.599 44.6052C244.413 45.5029 244.372 46.5735 245.506 47.0312C246.626 47.4851 247.603 47.1592 248.385 46.2466C249.018 45.5007 249.322 44.6056 249.584 43.6992C250.133 41.7447 250.65 39.7965 251.184 37.8383L251.188 37.8245Z" fill="#AA3542"/>
<path d="M105.863 36.8928C106.311 35.2517 106.763 33.5969 107.211 31.9558C108.955 25.5709 113.15 22.5674 119.798 22.9453C120.806 22.998 121.822 23.1272 122.782 23.4044C125.375 24.1568 126.911 26.1766 126.455 28.8231C125.461 34.6866 124.015 40.471 121.647 45.9445C119.917 49.9474 116.335 51.355 112.229 51.4788C104.754 51.6901 102.601 48.8942 104.55 41.6467C104.983 40.0608 105.416 38.4749 105.849 36.889L105.863 36.8928ZM117.592 37.0429C117.592 37.0429 117.579 37.0391 117.565 37.0354C118.164 34.8427 118.762 32.6501 119.365 30.4436C119.587 29.63 119.655 28.7298 118.87 28.1894C118.01 27.5989 117.05 27.7517 116.173 28.2531C115.366 28.7144 114.892 29.4741 114.655 30.3429C113.425 34.7935 112.194 39.244 111.006 43.7058C110.735 44.6987 110.645 45.7856 111.811 46.3411C113.028 46.9254 114.017 46.3952 114.824 45.445C115.397 44.7567 115.723 43.9419 115.961 43.0731C116.497 41.0559 117.06 39.0463 117.61 37.0329L117.592 37.0429Z" fill="#AA3542"/>
<path d="M199.502 49.0509C196.627 51.8816 193.545 52.4329 190.121 51.5275C187.999 50.9481 186.918 49.6455 186.807 47.4515C186.752 46.4586 186.844 45.4167 187.094 44.4477C188.303 39.858 189.443 35.2495 190.854 30.73C192.885 24.216 201.399 21.0134 207.348 24.3864C208.781 25.2076 209.456 26.5329 209.535 28.1401C209.567 28.8898 209.492 29.6546 209.361 30.4043C208.859 33.2752 208.845 33.2714 205.955 33.2825C205.702 33.2875 205.452 33.2787 205.193 33.2523C204.135 33.1707 202.795 33.7386 202.09 33.0126C201.419 32.3255 202.359 31.1597 202.45 30.1768C202.587 28.8065 202.072 28.147 200.646 28.2171C199.13 28.2922 198.091 29.0607 197.693 30.4635C196.339 35.2061 195.054 39.9676 193.768 44.729C193.531 45.5978 193.626 46.498 194.587 46.7751C195.919 47.1538 197.252 47.0436 198.15 45.7624C198.897 44.7068 199.139 43.4394 199.443 42.2183C199.738 41.0837 198.86 41.3181 198.301 41.3582C197.347 41.4383 197.185 41.0534 197.476 40.2586C197.491 40.2035 197.51 40.1345 197.525 40.0793C198.075 37.6313 199.602 36.4133 202.106 36.4252C203.554 36.4353 205.001 36.5044 206.464 36.4594C207.435 36.4281 207.847 36.5999 207.525 37.7269C206.336 41.8628 205.216 46.0175 204.128 50.1658C203.898 51.0071 203.517 51.318 202.694 51.2414C202.189 51.1925 201.683 51.2025 201.187 51.23C199.803 51.3114 198.397 51.4166 199.496 49.0196L199.502 49.0509Z" fill="#AA3542"/>
<path d="M279.178 38.8284C278.514 40.8255 277.967 43.8619 276.681 46.7265C273.867 52.9671 264.808 53.1758 260.972 51.1207C259.746 50.4599 259.141 49.2575 258.961 47.8596C258.78 46.4618 258.917 45.0915 259.286 43.74C260.352 39.8374 261.39 35.9272 262.483 32.032C264.347 25.3688 271.72 21.7361 278.147 24.2766C280.765 25.3174 281.943 27.5654 281.406 30.5604C281.366 30.8162 281.316 31.0544 281.248 31.3026C280.649 33.4953 280.05 35.6879 279.188 38.8459L279.178 38.8284ZM272.657 37.8776C272.657 37.8776 272.616 37.8663 272.602 37.8625C273.216 35.6147 273.888 33.3681 274.419 31.0977C274.614 30.2765 274.688 29.2448 273.698 28.752C272.755 28.3018 271.824 28.5663 271.024 29.163C269.947 29.9653 269.542 31.1738 269.194 32.3974C268.197 35.9929 267.228 39.5959 266.249 43.1814C266.098 43.733 266.02 44.2897 265.956 44.8501C265.843 45.7527 265.829 46.7269 266.789 47.167C267.791 47.6184 268.8 47.2862 269.582 46.5366C270.368 45.7731 270.778 44.7589 271.06 43.7247C271.605 41.784 272.126 39.822 272.657 37.8776Z" fill="#AA3542"/>
<path d="M84.5301 37.054C85.4412 34.0427 85.7812 30.8458 87.3323 28.0389C90.0195 23.1861 98.3062 21.0329 103.01 23.9769C105.085 25.2697 105.328 27.3069 105.014 29.4884C104.505 32.9799 104.469 32.9999 100.977 32.9946C100.918 32.9934 100.845 32.9883 100.786 32.9871C99.7304 32.9506 98.3748 33.3066 97.6723 32.7888C96.9222 32.2283 97.885 30.9797 97.9306 29.9993C98.0318 28.0561 97.1265 27.305 95.2634 27.8929C93.8989 28.3353 93.3484 29.4298 92.9882 30.6947C91.8246 34.9559 90.6435 39.2272 89.4662 43.4846C89.18 44.5327 88.7698 45.7099 90.1437 46.2629C91.4388 46.7795 92.6604 46.3722 93.5366 45.2777C94.463 44.1081 94.7958 42.6727 95.1247 41.251C95.3131 40.3985 95.624 39.9647 96.6336 40.0626C98.1343 40.2057 99.6627 40.1932 101.171 40.1457C102.146 40.1007 102.13 40.4818 101.978 41.2553C100.441 49.0005 93.7817 53.1096 86.1174 51.0316C83.1138 50.2115 81.7933 47.9986 82.5055 44.5773C83.0355 42.0399 83.841 39.5777 84.5226 37.0816L84.5301 37.054Z" fill="#AA3542"/>
<path d="M217.57 44.0553C217.481 42.4305 218.602 42.0107 220.229 42.2327C220.544 42.2741 220.859 42.2566 221.171 42.2528C222.113 42.273 223.285 41.9408 223.947 42.3884C224.821 42.9827 223.813 44.0709 223.808 44.9585C223.805 46.5432 224.711 47.3983 226.344 47.0586C227.726 46.7691 228.474 45.8176 228.849 44.4975C229.198 43.274 228.964 42.2321 227.949 41.451C226.991 40.73 225.983 40.0843 225.021 39.3771C220.368 36.0319 219.883 31.2465 223.73 26.9178C226.785 23.4842 233.185 22.3275 236.782 24.5544C238.964 25.891 239.916 29.7224 238.671 31.8423C238.373 32.3387 238.009 32.3136 237.552 32.3073C236.728 32.2897 235.916 32.3347 235.088 32.3309C233.595 32.3233 231.743 32.8697 232.552 30.0678C232.845 29.0511 231.993 28.374 230.795 28.3727C229.464 28.365 228.668 29.1109 228.177 30.2066C227.645 31.3951 227.961 32.4595 228.994 33.2306C230.362 34.2412 231.779 35.1765 233.189 36.1395C235.47 37.7105 236.214 39.8106 235.731 42.5536C234.395 49.9979 228.485 53.2596 221.191 51.6681C217.588 50.8767 216.413 48.3479 217.552 44.0654L217.57 44.0553Z" fill="#AA3542"/>
<path d="M164.534 37.6647C163.434 41.6915 162.307 45.7107 161.263 49.7526C160.981 50.7868 160.593 51.2294 159.456 51.1114C158.014 50.9696 156.557 51.046 155.109 51.0359C154.371 51.027 153.936 50.938 154.2 49.9726C156.524 41.5681 158.825 33.1421 161.095 24.7225C161.298 23.9778 161.649 23.7773 162.402 23.7309C168.456 23.354 168.46 23.3403 166.88 29.0733C166.097 31.9417 165.313 34.8101 164.53 37.6785L164.534 37.6647Z" fill="#AA3542"/>
<defs>
<radialGradient id="paint0_radial_2963_18" cx="0" cy="0" r="1" gradientUnits="userSpaceOnUse" gradientTransform="translate(169.876 50) scale(228.124 57.3177)">
<stop stop-color="white"/>
<stop offset="1" stop-color="#D1D1D1"/>
</radialGradient>
</defs>
</svg>
