<svg width="397" height="100" fill="none" xmlns="http://www.w3.org/2000/svg"><path fill="url(#a)" fill-opacity=".9" d="M0 0h398v100H0z"/><path d="M52.958 71.076h7.266v1.526h-7.266v-1.526Zm-2.604 2.534h12.544v1.568H50.354V73.61Zm3.388 1.26h1.82a11.533 11.533 0 0 1-.322 1.806 4.695 4.695 0 0 1-.714 1.512c-.317.448-.765.85-1.344 1.204-.579.355-1.325.653-2.24.896a3.16 3.16 0 0 0-.252-.504 6.147 6.147 0 0 0-.35-.56 3.075 3.075 0 0 0-.378-.434c.803-.177 1.442-.392 1.918-.644.485-.252.85-.537 1.092-.854.252-.327.43-.69.532-1.092.112-.41.191-.854.238-1.33Zm3.612-.28h1.694v3.416c0 .224.033.369.098.434.075.056.238.084.49.084H61.036c.15 0 .261-.037.336-.112.084-.075.14-.233.168-.476.037-.252.065-.62.084-1.106.121.084.27.168.448.252.177.084.36.159.546.224.196.065.369.121.518.168-.056.672-.154 1.195-.294 1.568-.14.383-.34.644-.602.784-.252.15-.602.224-1.05.224h-1.806c-.541 0-.961-.06-1.26-.182a1.056 1.056 0 0 1-.602-.63c-.112-.299-.168-.7-.168-1.204V74.59Zm-1.666-7.476h1.792v2.548h-1.792v-2.548Zm-5.082 1.344h12.026v3.332H60.84v-1.736h-8.526v1.736h-1.708v-3.332Zm15.568 3.92h3.234v1.526h-3.234v-1.526Zm2.59 0h1.624v.616c-.019.99-.042 1.801-.07 2.436-.028.625-.075 1.115-.14 1.47-.056.345-.135.588-.238.728-.14.177-.29.303-.448.378a1.98 1.98 0 0 1-.532.168c-.187.037-.425.06-.714.07-.28 0-.588-.005-.924-.014a3.535 3.535 0 0 0-.14-.812 3.182 3.182 0 0 0-.308-.756c.252.019.485.033.7.042.224.01.392.014.504.014.093 0 .173-.01.238-.028a.386.386 0 0 0 .182-.14c.065-.084.112-.257.14-.518.037-.27.065-.677.084-1.218.019-.55.033-1.279.042-2.184v-.252Zm4.2-4.396 1.022-1.008c.261.13.537.285.826.462.29.177.565.355.826.532.27.177.49.35.658.518l-1.078 1.12a6.697 6.697 0 0 0-.616-.532 11.318 11.318 0 0 0-.812-.574 12.85 12.85 0 0 0-.826-.518Zm1.652 3.612 1.708.406c-.588 1.82-1.39 3.43-2.408 4.83-1.017 1.39-2.221 2.515-3.612 3.374a3.956 3.956 0 0 0-.336-.448l-.462-.518a8.882 8.882 0 0 0-.42-.42 10.541 10.541 0 0 0 3.416-2.94c.933-1.241 1.638-2.67 2.114-4.284ZM66.258 69.2h10.808v1.652H66.258V69.2Zm-1.12 0h1.764v4.13c0 .523-.019 1.097-.056 1.722a20.15 20.15 0 0 1-.21 1.904 11.09 11.09 0 0 1-.462 1.862 6.59 6.59 0 0 1-.77 1.61 2.525 2.525 0 0 0-.42-.406c-.177-.15-.36-.299-.546-.448a2.165 2.165 0 0 0-.462-.294 5.98 5.98 0 0 0 .77-1.876c.168-.7.275-1.405.322-2.114.047-.71.07-1.367.07-1.974V69.2Zm5.684-2.086h1.764a36.53 36.53 0 0 0 .098 3.374 35.71 35.71 0 0 0 .364 3.094c.168.952.364 1.797.588 2.534.224.728.471 1.297.742 1.708.27.41.546.616.826.616.159 0 .28-.191.364-.574.093-.383.159-1.013.196-1.89.196.187.425.369.686.546.27.177.518.308.742.392-.084.868-.21 1.54-.378 2.016-.168.467-.392.789-.672.966-.28.177-.64.266-1.078.266-.504 0-.961-.173-1.372-.518-.401-.345-.76-.826-1.078-1.442a11.643 11.643 0 0 1-.798-2.17c-.224-.83-.41-1.731-.56-2.702-.14-.97-.247-1.979-.322-3.024a59.964 59.964 0 0 1-.112-3.192Zm14.252.588h5.782v1.526h-5.782v-1.526Zm-5.53 3.108h4.312v1.47h-4.312v-1.47Zm5.586.49h4.634v1.526H85.13V71.3Zm-3.752-4.2h1.512v4.564h-1.512V67.1Zm2.94.602h1.554v4.102c0 .607-.019 1.274-.056 2.002-.028.719-.089 1.46-.182 2.226a17.084 17.084 0 0 1-.42 2.226 9.708 9.708 0 0 1-.728 1.96 3.498 3.498 0 0 0-.406-.308c-.168-.103-.34-.2-.518-.294a3.697 3.697 0 0 0-.462-.21c.28-.55.504-1.148.672-1.792.168-.644.29-1.307.364-1.988.084-.69.135-1.358.154-2.002.019-.653.028-1.26.028-1.82v-4.102Zm-4.704 6.146h3.542v6.37H81.63v-4.9h-2.016v-1.47Zm-.728-6.37h1.484v5.404c0 .616-.014 1.255-.042 1.918a17.931 17.931 0 0 1-.196 1.988 13.1 13.1 0 0 1-.406 1.876 5.921 5.921 0 0 1-.742 1.61 3.708 3.708 0 0 0-.336-.35 7.763 7.763 0 0 0-.406-.378c-.14-.121-.27-.22-.392-.294a5.79 5.79 0 0 0 .546-1.414c.14-.532.243-1.083.308-1.652.075-.57.121-1.139.14-1.708.028-.57.042-1.106.042-1.61v-5.39ZM89.274 71.3h.28l.28-.042 1.05.322c-.196 1.4-.504 2.655-.924 3.766-.42 1.101-.947 2.058-1.582 2.87a8.712 8.712 0 0 1-2.212 2.016 3.455 3.455 0 0 0-.28-.476 6.459 6.459 0 0 0-.392-.49 2.592 2.592 0 0 0-.392-.392c.737-.41 1.39-.97 1.96-1.68a9.787 9.787 0 0 0 1.414-2.492c.383-.952.649-1.979.798-3.08V71.3Zm-2.394 1.022c.233.961.55 1.871.952 2.73.41.85.91 1.605 1.498 2.268a6.958 6.958 0 0 0 2.072 1.582 5.05 5.05 0 0 0-.406.392 6.16 6.16 0 0 0-.742.98 7.958 7.958 0 0 1-2.17-1.862 11.246 11.246 0 0 1-1.54-2.59c-.41-.98-.756-2.044-1.036-3.192l1.372-.308Zm7.742-.392h6.566v1.596h-6.566V71.93Zm6.398 0h.266l.364-.07 1.232.896a1.25 1.25 0 0 1-.154.126 3.226 3.226 0 0 1-.182.112 154.172 154.172 0 0 0-2.842 1.526c-.784.439-1.437.817-1.96 1.134-.513.308-.929.574-1.246.798a6.408 6.408 0 0 0-.7.546 1.43 1.43 0 0 0-.294.378.71.71 0 0 0-.07.294c0 .196.112.34.336.434.224.084.532.126.924.126h5.572c.233 0 .425-.042.574-.126.149-.084.266-.257.35-.518.084-.27.135-.672.154-1.204.243.14.509.261.798.364.289.093.565.163.826.21-.075.821-.215 1.442-.42 1.862-.205.42-.509.705-.91.854-.392.159-.905.238-1.54.238h-5.264c-1.073 0-1.876-.187-2.408-.56-.523-.373-.784-.882-.784-1.526 0-.177.019-.355.056-.532.047-.187.145-.387.294-.602.15-.224.378-.476.686-.756.317-.29.747-.62 1.288-.994a40.363 40.363 0 0 1 2.044-1.302 69.875 69.875 0 0 1 3.01-1.708Zm-5.446-4.816 1.764.546c-.308.672-.677 1.34-1.106 2.002-.42.653-.863 1.265-1.33 1.834a13.55 13.55 0 0 1-1.4 1.484 4.61 4.61 0 0 0-.42-.392 13 13 0 0 0-.546-.462 5.446 5.446 0 0 0-.49-.378c.476-.364.933-.789 1.372-1.274.439-.495.845-1.027 1.218-1.596.373-.579.686-1.167.938-1.764Zm-.154 1.708h9.352v1.652H94.594l.826-1.652Zm19.796 5.6c0-.308-.079-.588-.238-.84a1.557 1.557 0 0 0-.686-.602c-.299-.159-.672-.238-1.12-.238-.504 0-.994.042-1.47.126-.467.084-.887.182-1.26.294-.364.103-.667.191-.91.266a6.103 6.103 0 0 0-.686.238c-.243.093-.467.177-.672.252l-.532-2.002c.243-.019.504-.051.784-.098.28-.047.532-.093.756-.14.345-.084.737-.173 1.176-.266.448-.103.933-.191 1.456-.266a11.274 11.274 0 0 1 1.596-.112c.747 0 1.4.14 1.96.42.569.27 1.013.663 1.33 1.176.317.513.476 1.134.476 1.862 0 .747-.163 1.423-.49 2.03a4.989 4.989 0 0 1-1.386 1.596c-.597.448-1.302.821-2.114 1.12-.812.299-1.703.513-2.674.644l-1.008-1.736a15.515 15.515 0 0 0 2.352-.448c.709-.196 1.311-.443 1.806-.742.504-.308.887-.667 1.148-1.078.271-.42.406-.905.406-1.456Zm-5.502-6.72c.401.084.882.163 1.442.238.569.075 1.153.14 1.75.196.607.056 1.181.103 1.722.14.551.028 1.008.047 1.372.056l-.28 1.722a88.89 88.89 0 0 1-1.442-.112c-.551-.047-1.12-.098-1.708-.154-.588-.065-1.157-.13-1.708-.196a71.901 71.901 0 0 1-1.428-.21l.28-1.68Zm12.656 1.26c.513.065 1.092.112 1.736.14.644.028 1.335.042 2.072.042.467 0 .943-.01 1.428-.028.485-.019.957-.042 1.414-.07l1.218-.098v1.862l-1.19.07c-.457.028-.938.051-1.442.07-.495.019-.966.028-1.414.028-.728 0-1.405-.014-2.03-.042-.625-.037-1.223-.075-1.792-.112v-1.862Zm1.176 5.936c-.065.243-.121.48-.168.714-.047.233-.07.467-.07.7 0 .457.224.83.672 1.12.457.28 1.19.42 2.198.42.635 0 1.246-.023 1.834-.07a26.563 26.563 0 0 0 1.68-.182c.523-.084.989-.182 1.4-.294l.014 1.96c-.401.093-.859.177-1.372.252-.504.075-1.05.13-1.638.168-.579.047-1.195.07-1.848.07-1.073 0-1.965-.121-2.674-.364-.709-.233-1.246-.57-1.61-1.008-.355-.448-.532-.994-.532-1.638 0-.401.033-.77.098-1.106.065-.345.121-.649.168-.91l1.848.168Zm7.056-7.378c.121.168.247.369.378.602a28.038 28.038 0 0 1 .742 1.316l-1.134.49c-.14-.29-.313-.62-.518-.994a9.393 9.393 0 0 0-.574-.966l1.106-.448Zm1.666-.63c.121.177.252.383.392.616.14.233.275.467.406.7.14.224.252.42.336.588l-1.12.476c-.149-.29-.327-.616-.532-.98a8.068 8.068 0 0 0-.602-.952l1.12-.448Zm9.968.84h3.612v1.526h-3.612V67.73Zm0 3.164h3.612v1.484h-3.612v-1.484Zm-.014 3.206h3.64v1.498h-3.64V74.1Zm2.912-6.37h1.61v10.668c0 .41-.047.733-.14.966a1.111 1.111 0 0 1-.504.574c-.243.13-.551.215-.924.252a11.36 11.36 0 0 1-1.33.042 5.325 5.325 0 0 0-.182-.812 5.525 5.525 0 0 0-.294-.784c.299.019.593.028.882.028h.602c.103 0 .173-.019.21-.056.047-.047.07-.121.07-.224V67.73Zm-3.598 0h1.582v5.152c0 .55-.019 1.153-.056 1.806a18.283 18.283 0 0 1-.196 1.988 14.468 14.468 0 0 1-.406 1.932 6.52 6.52 0 0 1-.728 1.68 2.396 2.396 0 0 0-.378-.35 16.43 16.43 0 0 0-.504-.35 2.856 2.856 0 0 0-.448-.252 6.787 6.787 0 0 0 .77-2.03c.159-.747.257-1.503.294-2.268.047-.775.07-1.493.07-2.156V67.73Zm-7.322 1.022h6.86v1.47h-6.86v-1.47Zm1.82 2.296h3.346v1.274h-3.346v-1.274Zm0 2.17h3.346v1.288h-3.346v-1.288Zm-1.988 2.226h6.93v1.47h-6.93v-1.47Zm1.26-8.176h1.512v8.708h-1.512v-8.708Zm3.262 0h1.54v8.708h-1.54v-8.708Zm-2.786 9.744 1.596.462a10.077 10.077 0 0 1-.966 1.526 9.471 9.471 0 0 1-1.134 1.288 2.542 2.542 0 0 0-.392-.336 12.223 12.223 0 0 0-.504-.364 5.1 5.1 0 0 0-.448-.294c.373-.28.723-.625 1.05-1.036.336-.41.602-.826.798-1.246Zm2.086.63 1.274-.7c.187.196.378.42.574.672.205.243.397.485.574.728.187.233.336.448.448.644l-1.358.784a5.314 5.314 0 0 0-.406-.658 24.534 24.534 0 0 0-1.106-1.47Zm15.134-8.946h7.574v1.526h-7.574v-1.526Zm-.658 5.39h8.764v1.512h-8.764v-1.512Zm-.14-2.646h9.03v1.526h-9.03V71.44Zm3.668-4.27h1.666v5.068h-1.666V67.17Zm1.918 5.544h1.68v5.782c0 .41-.051.728-.154.952-.103.233-.294.415-.574.546-.28.121-.621.196-1.022.224a19.78 19.78 0 0 1-1.386.042 4.183 4.183 0 0 0-.196-.812 4.684 4.684 0 0 0-.308-.77l.686.028h.616c.177-.01.299-.014.364-.014.112 0 .187-.014.224-.042.047-.037.07-.103.07-.196v-5.74Zm-4.662 3.696 1.386-.728a13.769 13.769 0 0 1 1.218 1.638c.187.27.327.523.42.756l-1.47.812a5.232 5.232 0 0 0-.378-.77 13.888 13.888 0 0 0-1.176-1.708Zm-1.862-6.216 1.456.616a15.815 15.815 0 0 1-1.176 1.736c-.448.579-.919 1.13-1.414 1.652-.495.513-.98.961-1.456 1.344a4.439 4.439 0 0 0-.196-.518 10.548 10.548 0 0 0-.308-.672 11.074 11.074 0 0 0-.28-.532c.411-.299.821-.64 1.232-1.022.42-.392.817-.807 1.19-1.246.373-.448.691-.9.952-1.358Zm-.35-3.066 1.568.644c-.299.43-.649.863-1.05 1.302-.401.43-.826.835-1.274 1.218-.439.383-.877.719-1.316 1.008a4.372 4.372 0 0 0-.238-.462 14.072 14.072 0 0 0-.294-.532 4.538 4.538 0 0 0-.28-.434c.364-.224.728-.49 1.092-.798.373-.308.719-.63 1.036-.966.317-.345.569-.672.756-.98Zm-.966 6.202 1.526-1.554.084.028v8.442h-1.61V73.33Zm20.958.35c0-.999.126-1.913.378-2.744a9.09 9.09 0 0 1 1.008-2.24c.42-.663.877-1.241 1.372-1.736l1.33.588c-.467.495-.891 1.05-1.274 1.666a8.607 8.607 0 0 0-.896 2.016c-.224.737-.336 1.554-.336 2.45 0 .887.112 1.703.336 2.45.224.737.523 1.41.896 2.016.383.607.807 1.162 1.274 1.666l-1.33.588a10.034 10.034 0 0 1-1.372-1.736 9.09 9.09 0 0 1-1.008-2.24c-.252-.83-.378-1.745-.378-2.744Zm8.708-3.458v.574h5.964v-.574h-5.964Zm0-1.582v.56h5.964v-.56h-5.964Zm-1.61-1.092h9.254v4.34h-9.254v-4.34Zm-1.652 4.844h12.516v1.33h-12.516v-1.33Zm6.426 1.848h4.578v1.288h-4.578V74.24Zm-4.27.042h3.178v1.162h-3.178v-1.162Zm0 1.764h3.178v1.162h-3.178v-1.162Zm5.978-.644c.392.859.989 1.596 1.792 2.212.812.616 1.778 1.055 2.898 1.316a7.913 7.913 0 0 0-.35.378 5.975 5.975 0 0 0-.364.49 7.975 7.975 0 0 0-.28.448c-1.204-.364-2.226-.924-3.066-1.68-.831-.756-1.489-1.685-1.974-2.786l1.344-.378Zm2.366-1.162h.308l.28-.042 1.036.392c-.28.97-.677 1.825-1.19 2.562a7.776 7.776 0 0 1-1.82 1.848 9.393 9.393 0 0 1-2.296 1.246 4.872 4.872 0 0 0-.406-.7 4.656 4.656 0 0 0-.504-.616 7.549 7.549 0 0 0 1.54-.672c.495-.28.943-.611 1.344-.994a6.451 6.451 0 0 0 1.036-1.274c.299-.467.523-.966.672-1.498v-.252Zm-10.626 3.836c.476-.028 1.008-.06 1.596-.098.588-.047 1.209-.093 1.862-.14l1.974-.168v1.372l-2.814.252c-.924.093-1.755.173-2.492.238l-.126-1.456Zm4.606-5.25h1.596v7.434h-1.596v-7.434Zm-3.374.028h1.526v5.726h-1.526v-5.726Zm19.992 2.786.952-1.05c.336.121.686.27 1.05.448.364.177.705.36 1.022.546.327.187.607.364.84.532l-.966 1.162a7.811 7.811 0 0 0-.826-.56 11.717 11.717 0 0 0-1.022-.588 9.453 9.453 0 0 0-1.05-.49Zm-1.512 2.506.966-1.176c.457.121.929.266 1.414.434a32.517 32.517 0 0 1 2.772 1.106c.42.196.793.383 1.12.56l-.98 1.316a13.662 13.662 0 0 0-1.512-.812 21.76 21.76 0 0 0-1.876-.784 25.484 25.484 0 0 0-1.904-.644Zm1.722-11.046 1.638.28a16.618 16.618 0 0 1-1.428 2.548c-.56.83-1.265 1.596-2.114 2.296a2.606 2.606 0 0 0-.322-.378 5.928 5.928 0 0 0-.42-.406 1.95 1.95 0 0 0-.392-.294 8.884 8.884 0 0 0 1.358-1.274 9.758 9.758 0 0 0 1.008-1.4c.28-.476.504-.933.672-1.372Zm.266 1.344h3.472v1.428h-4.186l.714-1.428Zm3.024 0h.322l.266-.07 1.036.588a10.707 10.707 0 0 1-1.638 2.814 12.288 12.288 0 0 1-2.282 2.184 12.81 12.81 0 0 1-2.618 1.47 3.336 3.336 0 0 0-.28-.448 6.361 6.361 0 0 0-.392-.49 2.568 2.568 0 0 0-.364-.392 11.97 11.97 0 0 0 2.492-1.246 9.843 9.843 0 0 0 2.086-1.834 7.426 7.426 0 0 0 1.372-2.296v-.28Zm-3.192 1.092a9.244 9.244 0 0 0 1.4 1.918c.579.597 1.232 1.13 1.96 1.596.737.457 1.512.826 2.324 1.106a4.243 4.243 0 0 0-.378.406c-.131.159-.261.322-.392.49a4.19 4.19 0 0 0-.294.462 11.36 11.36 0 0 1-4.41-3.206 12.656 12.656 0 0 1-1.54-2.296l1.33-.476Zm-5.614-2.422 1.456.546c-.187.355-.383.723-.588 1.106-.205.383-.406.747-.602 1.092-.196.345-.383.644-.56.896l-1.12-.476c.168-.29.341-.616.518-.98s.345-.737.504-1.12c.159-.383.289-.737.392-1.064Zm1.61 1.666 1.372.616a57.34 57.34 0 0 1-1.106 1.68 65.359 65.359 0 0 1-1.204 1.68c-.401.532-.779.999-1.134 1.4l-.98-.546c.261-.317.532-.672.812-1.064.28-.401.555-.817.826-1.246a21.889 21.889 0 0 0 1.414-2.52Zm-3.766 1.652.812-1.148c.243.215.49.453.742.714.261.252.499.509.714.77.224.252.392.48.504.686l-.854 1.302a4.36 4.36 0 0 0-.49-.742 12.716 12.716 0 0 0-1.428-1.582Zm3.36 1.68 1.106-.462c.177.317.35.653.518 1.008.168.355.313.705.434 1.05.131.336.219.64.266.91l-1.19.532a4.768 4.768 0 0 0-.238-.938c-.121-.345-.261-.7-.42-1.064a10.66 10.66 0 0 0-.476-1.036Zm-3.374 1.162c.644-.019 1.414-.047 2.31-.084l2.73-.112-.014 1.33c-.868.065-1.731.126-2.59.182-.849.056-1.615.107-2.296.154l-.14-1.47Zm3.668 2.324 1.176-.378c.177.401.345.84.504 1.316.168.467.294.877.378 1.232l-1.246.448a9.85 9.85 0 0 0-.336-1.26 24.804 24.804 0 0 0-.476-1.358Zm-3.052-.266 1.386.252a17.824 17.824 0 0 1-.336 1.988 9.364 9.364 0 0 1-.518 1.652 3.621 3.621 0 0 0-.378-.224c-.159-.075-.322-.15-.49-.224a3.291 3.291 0 0 0-.42-.168c.205-.42.369-.92.49-1.498.121-.588.21-1.18.266-1.778Zm1.568-1.316h1.47v6.244h-1.47v-6.244Zm18.914-6.314h5.782v1.526h-5.782v-1.526Zm-5.53 3.108h4.312v1.47h-4.312v-1.47Zm5.586.49h4.634v1.526h-4.634V71.3Zm-3.752-4.2h1.512v4.564h-1.512V67.1Zm2.94.602h1.554v4.102c0 .607-.019 1.274-.056 2.002-.028.719-.089 1.46-.182 2.226a16.951 16.951 0 0 1-.42 2.226 9.702 9.702 0 0 1-.728 1.96 3.524 3.524 0 0 0-.406-.308 9.374 9.374 0 0 0-.518-.294 3.645 3.645 0 0 0-.462-.21c.28-.55.504-1.148.672-1.792.168-.644.289-1.307.364-1.988.084-.69.135-1.358.154-2.002.019-.653.028-1.26.028-1.82v-4.102Zm-4.704 6.146h3.542v6.37h-1.526v-4.9h-2.016v-1.47Zm-.728-6.37h1.484v5.404c0 .616-.014 1.255-.042 1.918a17.836 17.836 0 0 1-.196 1.988 13.087 13.087 0 0 1-.406 1.876 5.918 5.918 0 0 1-.742 1.61 3.708 3.708 0 0 0-.336-.35 7.885 7.885 0 0 0-.406-.378 3.084 3.084 0 0 0-.392-.294c.233-.42.415-.891.546-1.414.14-.532.243-1.083.308-1.652.075-.57.121-1.139.14-1.708.028-.57.042-1.106.042-1.61v-5.39Zm10.388 3.822h.28l.28-.042 1.05.322c-.196 1.4-.504 2.655-.924 3.766-.42 1.101-.947 2.058-1.582 2.87a8.717 8.717 0 0 1-2.212 2.016 3.445 3.445 0 0 0-.28-.476 6.361 6.361 0 0 0-.392-.49 2.587 2.587 0 0 0-.392-.392 6.67 6.67 0 0 0 1.96-1.68 9.784 9.784 0 0 0 1.414-2.492c.383-.952.649-1.979.798-3.08V71.3Zm-2.394 1.022c.233.961.551 1.871.952 2.73.411.85.91 1.605 1.498 2.268a6.954 6.954 0 0 0 2.072 1.582 5.58 5.58 0 0 0-.826.896 6.075 6.075 0 0 0-.322.476 7.954 7.954 0 0 1-2.17-1.862 11.236 11.236 0 0 1-1.54-2.59 21.292 21.292 0 0 1-1.036-3.192l1.372-.308Zm15.988-4.186c-.009.196-.023.41-.042.644-.009.224-.014.476-.014.756V72.308c0 .747-.037 1.4-.112 1.96a7.356 7.356 0 0 1-.308 1.47c-.14.42-.313.793-.518 1.12-.196.317-.425.62-.686.91-.308.336-.663.64-1.064.91-.401.261-.807.48-1.218.658a9.973 9.973 0 0 1-1.12.448l-1.47-1.54c.7-.159 1.33-.378 1.89-.658a5.32 5.32 0 0 0 1.484-1.106c.243-.27.439-.541.588-.812.149-.27.261-.57.336-.896.084-.336.14-.714.168-1.134.037-.42.056-.9.056-1.442v-2.66c0-.28-.009-.532-.028-.756a6.28 6.28 0 0 0-.056-.644h2.114Zm-6.496.112-.028.504c-.009.159-.014.35-.014.574v4.732c0 .177.005.383.014.616.009.233.019.434.028.602h-2.03a64.4 64.4 0 0 1 .042-.56 8.64 8.64 0 0 0 .028-.672v-4.718a12.086 12.086 0 0 0-.056-1.078h2.016Zm20.496-.112c-.009.196-.023.41-.042.644-.009.224-.014.476-.014.756V72.308c0 .747-.037 1.4-.112 1.96a7.356 7.356 0 0 1-.308 1.47c-.14.42-.313.793-.518 1.12-.196.317-.425.62-.686.91-.308.336-.663.64-1.064.91-.401.261-.807.48-1.218.658a9.973 9.973 0 0 1-1.12.448l-1.47-1.54c.7-.159 1.33-.378 1.89-.658a5.32 5.32 0 0 0 1.484-1.106c.243-.27.439-.541.588-.812.149-.27.261-.57.336-.896.084-.336.14-.714.168-1.134.037-.42.056-.9.056-1.442v-2.66c0-.28-.009-.532-.028-.756a6.28 6.28 0 0 0-.056-.644h2.114Zm-6.496.112-.028.504c-.009.159-.014.35-.014.574v4.732c0 .177.005.383.014.616.009.233.019.434.028.602h-2.03a64.4 64.4 0 0 1 .042-.56 8.64 8.64 0 0 0 .028-.672v-4.718a12.086 12.086 0 0 0-.056-1.078h2.016Zm10.542 4.27c.168.01.383.023.644.042l.812.028c.289.01.555.014.798.014H256.686c.327 0 .635-.01.924-.028.289-.028.527-.047.714-.056v2.198l-.714-.042a15.698 15.698 0 0 0-.924-.028H249.168c-.401 0-.812.01-1.232.028-.42.01-.761.023-1.022.042v-2.198Zm23.691-3.01c-.056.084-.14.215-.252.392-.103.177-.182.34-.238.49-.196.439-.439.929-.728 1.47-.28.541-.602 1.087-.966 1.638-.355.541-.733 1.05-1.134 1.526a23.734 23.734 0 0 1-1.736 1.75 19.265 19.265 0 0 1-1.988 1.582c-.691.476-1.4.887-2.128 1.232l-1.442-1.512c.756-.29 1.488-.653 2.198-1.092a16.478 16.478 0 0 0 1.974-1.428 16.46 16.46 0 0 0 1.568-1.498c.308-.355.597-.733.868-1.134.28-.401.527-.798.742-1.19.214-.401.373-.77.476-1.106H263.073c-.196 0-.402.01-.616.028-.215.01-.42.023-.616.042-.187.01-.332.019-.434.028v-1.988c.14.01.312.023.518.042a13.454 13.454 0 0 0 1.148.056h4.942c.308 0 .588-.019.84-.056.261-.037.462-.08.602-.126l1.148.854Zm-3.136 4.354c.364.29.751.625 1.162 1.008.41.383.816.78 1.218 1.19.401.41.77.807 1.106 1.19.345.373.634.7.868.98l-1.596 1.386c-.346-.476-.742-.97-1.19-1.484a30.541 30.541 0 0 0-1.4-1.526c-.486-.513-.98-.999-1.484-1.456l1.316-1.288Zm7.616-5.908h9.772v12.11h-1.806V69.648h-6.244v10.444h-1.722V67.954Zm1.176 4.704h7.532v1.652h-7.532v-1.652Zm0 4.816h7.546v1.694h-7.546v-1.694Zm17.668-5.698a1.32 1.32 0 0 1-.952-.378 1.257 1.257 0 0 1-.378-.924c0-.392.126-.71.378-.952a1.32 1.32 0 0 1 .952-.378c.373 0 .686.126.938.378.261.243.392.56.392.952 0 .364-.131.672-.392.924a1.274 1.274 0 0 1-.938.378Zm0 6.678a1.32 1.32 0 0 1-.952-.378 1.257 1.257 0 0 1-.378-.924c0-.392.126-.71.378-.952a1.32 1.32 0 0 1 .952-.378c.373 0 .686.126.938.378.261.243.392.56.392.952 0 .364-.131.672-.392.924a1.274 1.274 0 0 1-.938.378Zm8.148.546v-1.68h2.24v-6.538h-1.89v-1.288a8.83 8.83 0 0 0 1.344-.336c.382-.14.737-.317 1.064-.532h1.526v8.694h1.946V79h-6.23Zm7.712 0v-1.19c.942-.84 1.745-1.62 2.408-2.338.672-.719 1.185-1.386 1.54-2.002.354-.625.532-1.204.532-1.736 0-.336-.061-.63-.182-.882a1.276 1.276 0 0 0-.532-.574c-.224-.14-.504-.21-.84-.21a1.81 1.81 0 0 0-1.036.322 4.544 4.544 0 0 0-.854.742l-1.148-1.106c.485-.523.98-.915 1.484-1.176.513-.27 1.12-.406 1.82-.406.653 0 1.222.135 1.708.406.494.261.877.63 1.148 1.106.27.476.406 1.036.406 1.68 0 .625-.159 1.265-.476 1.918a9.816 9.816 0 0 1-1.246 1.932 23.398 23.398 0 0 1-1.736 1.904c.27-.037.56-.065.868-.084.317-.028.597-.042.84-.042h2.24V79h-6.944Zm7.851 2.534 3.486-13.818h1.358l-3.472 13.818h-1.372Zm9.04-2.338a5 5 0 0 1-1.456-.196 4.283 4.283 0 0 1-1.148-.504 4.771 4.771 0 0 1-.854-.742l.966-1.302c.318.29.663.541 1.036.756.383.205.808.308 1.274.308.355 0 .663-.056.924-.168.271-.112.476-.275.616-.49.15-.215.224-.476.224-.784 0-.345-.084-.64-.252-.882-.158-.252-.443-.443-.854-.574-.41-.13-.989-.196-1.736-.196v-1.484c.635 0 1.134-.065 1.498-.196.364-.14.621-.327.77-.56.159-.243.238-.518.238-.826 0-.401-.121-.714-.364-.938-.242-.233-.583-.35-1.022-.35-.364 0-.704.084-1.022.252a4.35 4.35 0 0 0-.924.658l-1.064-1.274a6.132 6.132 0 0 1 1.442-.91 3.92 3.92 0 0 1 1.666-.35c.663 0 1.246.107 1.75.322.514.215.91.527 1.19.938.28.41.42.91.42 1.498 0 .56-.149 1.04-.448 1.442-.298.401-.723.71-1.274.924v.07c.383.103.728.27 1.036.504.318.224.565.509.742.854.187.345.28.747.28 1.204 0 .625-.168 1.162-.504 1.61-.326.448-.77.793-1.33 1.036-.55.233-1.157.35-1.82.35Zm5.584-.196v-1.68h2.24v-6.538h-1.89v-1.288a8.77 8.77 0 0 0 1.344-.336c.383-.14.738-.317 1.064-.532h1.526v8.694h1.946V79h-6.23Zm11.828-5.32c0 .999-.126 1.913-.378 2.744a9.09 9.09 0 0 1-1.008 2.24 9.241 9.241 0 0 1-1.372 1.736l-1.33-.588c.467-.504.887-1.06 1.26-1.666a8.244 8.244 0 0 0 .91-2.016 8.496 8.496 0 0 0 .336-2.45c0-.896-.112-1.713-.336-2.45a8.244 8.244 0 0 0-.91-2.016 9.843 9.843 0 0 0-1.26-1.666l1.33-.588a9.241 9.241 0 0 1 1.372 1.736 9.09 9.09 0 0 1 1.008 2.24c.252.83.378 1.745.378 2.744Z" fill="#2F3B53"/><path d="m157.83 23.772-.784 2.868c-2.063 7.557-4.158 15.12-6.166 22.693-.324 1.186-.663 1.938-2.11 1.706-1.519-.237-3.639.696-4.457-.431-.696-.976.602-2.8.984-4.252 1.369-5.123 2.794-10.232 4.01-14.687-1.778 3.53-3.869 7.717-5.973 11.899-.906 1.798-1.907 3.569-2.655 5.44-.641 1.588-1.591 2.084-3.28 1.979-2.896-.184-2.885-.062-2.729-2.909.275-5.29.549-10.579.81-15.872.02-.29.197-.613-.089-.81-.923 3.379-1.877 6.764-2.776 10.164-.571 2.2-1.046 4.427-1.589 6.634-.688 2.791-.702 2.787-3.685 2.758-2.362-.023-3.239-1.151-2.629-3.385 2.03-7.433 4.091-14.872 6.065-22.32.339-1.241.767-1.777 2.161-1.678 2.135.154 4.284.088 6.427.051 1.175-.02 1.639.285 1.541 1.621-.318 4.092-.459 8.188-.659 12.283-.033.554-.007 1.11-.017 2.173 2.601-5.187 5.033-9.917 7.34-14.681.501-1.02 1.074-1.381 2.157-1.337 2.642.084 5.279.078 8.109.124l-.006-.031ZM174.576 36.673c-1.159 4.247-2.374 8.48-3.438 12.753-.307 1.235-.668 1.907-2.057 1.735-1.59-.197-3.792.654-4.628-.404-.589-.768.559-2.915.973-4.432 1.898-6.95 3.837-13.89 5.653-20.862.336-1.286.864-1.809 2.17-1.66 1.739.194 3.973-.723 5.121.332 1.148 1.054.541 3.333.704 5.067.293 3.103.495 6.211.658 8.434.983-3.6 2.23-7.897 3.299-12.244.307-1.234.754-1.676 1.989-1.59 1.567.116 3.922-.485 4.508.297.825 1.1-.454 3.018-.875 4.562-1.872 7.017-3.844 14.021-5.688 21.046-.331 1.213-.829 1.626-2.046 1.53-1.74-.134-3.985.498-5.127-.363-1.186-.916-.535-3.302-.729-5.03-.319-3.006-.517-6.023-.777-9.029-.001-.104-.128-.183-.202-.292l.496.136-.004.014ZM288.843 37.807c-1.069 3.917-2.279 8.076-3.31 12.285-.326 1.304-.809 1.824-2.135 1.64-1.499-.202-3.593.634-4.348-.343-.769-.98.446-2.827.842-4.275 1.889-7.027 3.86-14.031 5.694-21.073.347-1.269.847-1.799 2.165-1.69 1.321.093 2.648.115 3.967 0 1.198-.102 1.492.393 1.565 1.48.261 4.087.595 8.18.914 12.268.013.225-.08.511-.08.511 1.16-4.247 2.378-8.494 3.456-12.764.281-1.138.747-1.544 1.882-1.471 1.567.117 3.141.102 4.817.144-.113.577-.19 1.075-.318 1.544-2.199 8.053-4.426 16.1-6.556 24.172-.331 1.213-.819 1.643-2.04 1.562-1.754-.138-4.048.51-5.124-.377-1.099-.908-.517-3.312-.676-5.06-.254-2.974-.49-5.957-.693-8.577l-.022.024ZM258.2 37.739c-.901 2.702-1.37 5.45-2.486 8.02-1.897 4.342-5.328 6.28-9.849 6.409-7.447.218-9.597-2.591-7.661-9.843a518.84 518.84 0 0 1 2.798-10.246c1.979-6.869 9.027-10.397 15.778-7.902 2.272.843 3.456 2.633 3.346 5.152-.123 2.945-1.377 5.64-1.926 8.41Zm-7.012.086-.027-.008 1.8-6.592c.259-.951.348-1.98-.659-2.521-1.072-.574-2.096-.187-2.948.603-.715.664-1.083 1.527-1.339 2.464l-2.049 7.502c-.482 1.765-1.009 3.533-1.367 5.332-.186.898-.227 1.969.907 2.426 1.12.454 2.097.128 2.879-.784.633-.746.937-1.641 1.199-2.548.549-1.954 1.066-3.902 1.6-5.86l.004-.014ZM105.863 36.893l1.348-4.937c1.744-6.385 5.939-9.389 12.587-9.01 1.008.052 2.024.181 2.984.458 2.593.753 4.129 2.773 3.673 5.42-.994 5.863-2.44 11.647-4.808 17.12-1.73 4.003-5.312 5.411-9.418 5.535-7.475.211-9.628-2.585-7.679-9.832l1.299-4.758.014.004Zm11.729.15-.027-.008 1.8-6.591c.222-.814.29-1.714-.495-2.255-.86-.59-1.82-.437-2.697.064-.807.461-1.281 1.221-1.518 2.09-1.23 4.45-2.461 8.901-3.649 13.363-.271.993-.361 2.08.805 2.635 1.217.584 2.206.054 3.013-.896.573-.688.899-1.503 1.137-2.372.536-2.017 1.099-4.027 1.649-6.04l-.018.01ZM199.502 49.05c-2.875 2.832-5.957 3.383-9.381 2.478-2.122-.58-3.203-1.883-3.314-4.076a9.98 9.98 0 0 1 .287-3.004c1.209-4.59 2.349-9.199 3.76-13.718 2.031-6.514 10.545-9.717 16.494-6.344 1.433.822 2.108 2.147 2.187 3.754.032.75-.043 1.515-.174 2.264-.502 2.871-.516 2.867-3.406 2.878a6.231 6.231 0 0 1-.762-.03c-1.058-.081-2.398.487-3.103-.24-.671-.687.269-1.852.36-2.835.137-1.37-.378-2.03-1.804-1.96-1.516.075-2.555.844-2.953 2.247-1.354 4.742-2.639 9.504-3.925 14.265-.237.869-.142 1.769.819 2.046 1.332.379 2.665.269 3.563-1.013.747-1.055.989-2.323 1.293-3.544.295-1.134-.583-.9-1.142-.86-.954.08-1.116-.305-.825-1.1l.049-.179c.55-2.448 2.077-3.666 4.581-3.654 1.448.01 2.895.08 4.358.034.971-.03 1.383.14 1.061 1.268a550.392 550.392 0 0 0-3.397 12.439c-.23.841-.611 1.152-1.434 1.075a9.932 9.932 0 0 0-1.507-.011c-1.384.081-2.79.187-1.691-2.21l.006.03ZM279.178 38.828c-.664 1.997-1.211 5.034-2.497 7.898-2.814 6.241-11.873 6.45-15.709 4.395-1.226-.661-1.831-1.864-2.011-3.261-.181-1.398-.044-2.768.325-4.12 1.066-3.903 2.104-7.813 3.197-11.708 1.864-6.663 9.237-10.296 15.664-7.755 2.618 1.04 3.796 3.288 3.259 6.283-.04.256-.09.494-.158.743l-2.06 7.543-.01-.018Zm-6.521-.95-.055-.016c.614-2.247 1.286-4.494 1.817-6.764.195-.822.269-1.853-.721-2.346-.943-.45-1.874-.186-2.674.411-1.077.802-1.482 2.01-1.83 3.234-.997 3.596-1.966 7.199-2.945 10.784-.151.552-.229 1.109-.293 1.67-.113.902-.127 1.876.833 2.316 1.002.451 2.011.12 2.793-.63.786-.764 1.196-1.778 1.478-2.812.545-1.941 1.066-3.903 1.597-5.847ZM84.53 37.054c.911-3.011 1.251-6.208 2.802-9.015 2.688-4.853 10.974-7.006 15.678-4.062 2.075 1.293 2.318 3.33 2.004 5.511-.509 3.492-.545 3.512-4.037 3.507-.059-.002-.132-.007-.191-.008-1.056-.036-2.411.32-3.114-.198-.75-.56.213-1.81.259-2.79.1-1.943-.805-2.694-2.668-2.106-1.364.442-1.915 1.537-2.275 2.802a4126.127 4126.127 0 0 1-3.522 12.79c-.286 1.048-.696 2.225.678 2.778 1.295.517 2.516.11 3.393-.985.926-1.17 1.259-2.605 1.588-4.027.188-.852.499-1.286 1.509-1.188 1.5.143 3.029.13 4.537.083.975-.045.959.336.807 1.11-1.537 7.745-8.196 11.854-15.86 9.776-3.004-.82-4.325-3.033-3.612-6.455.53-2.537 1.335-5 2.017-7.495l.007-.028ZM217.57 44.055c-.089-1.624 1.032-2.044 2.659-1.822.315.041.63.024.942.02.942.02 2.114-.312 2.776.135.874.595-.134 1.683-.139 2.57-.003 1.585.903 2.44 2.536 2.1 1.382-.289 2.13-1.24 2.505-2.56.349-1.224.115-2.266-.9-3.047-.958-.721-1.966-1.367-2.928-2.074-4.653-3.345-5.138-8.13-1.291-12.46 3.055-3.433 9.455-4.59 13.052-2.363 2.182 1.337 3.134 5.168 1.889 7.288-.298.497-.662.472-1.119.465-.824-.017-1.636.028-2.464.024-1.493-.008-3.345.539-2.536-2.263.293-1.017-.559-1.694-1.757-1.695-1.331-.008-2.127.738-2.618 1.834-.532 1.188-.216 2.252.817 3.024 1.368 1.01 2.785 1.945 4.195 2.908 2.281 1.572 3.025 3.672 2.542 6.415-1.336 7.444-7.246 10.706-14.54 9.114-3.603-.791-4.778-3.32-3.639-7.603l.018-.01ZM164.534 37.665c-1.1 4.026-2.227 8.046-3.271 12.088-.282 1.034-.67 1.476-1.807 1.358-1.442-.141-2.899-.065-4.347-.075-.738-.009-1.173-.098-.909-1.063 2.324-8.405 4.625-16.83 6.895-25.25.203-.745.554-.946 1.307-.992 6.054-.377 6.058-.39 4.478 5.342l-2.35 8.605.004-.013Z" fill="#AA3542"/><defs><radialGradient id="a" cx="0" cy="0" r="1" gradientUnits="userSpaceOnUse" gradientTransform="matrix(228.124 0 0 57.3177 169.876 50)"><stop stop-color="#fff"/><stop offset="1" stop-color="#D1D1D1"/></radialGradient></defs></svg>