<svg width="1920" height="137" fill="none" xmlns="http://www.w3.org/2000/svg"><path fill="url(#a)" fill-opacity=".9" d="M0 0h1920v137H0z"/><path d="M693.183 97.053v3.125h-3.025v-5.9h9.025v-2.4h3.15v2.4h9.175v5.9h-3.175v-3.125h-15.15Zm14.025 4.55h-12.875v-2.7h12.875v2.7Zm-1.025 10.525h2.475c.825 0 .95-.4 1.05-3 .6.45 1.9.925 2.675 1.125-.325 3.625-1.075 4.575-3.45 4.575h-3.2c-2.9 0-3.6-.85-3.6-3.55v-5.075h-3.25c-.5 4.3-1.875 7.4-8.15 9.05-.3-.775-1.075-2-1.725-2.65 5.35-1.15 6.25-3.3 6.625-6.4h-5.925v-2.8h22.275v2.8h-6.85v5.025c0 .8.15.9 1.05.9Zm26.775-12.3 2.975.725c-1.025 3.25-2.5 6.15-4.3 8.575.725 1.8 1.525 2.85 2.325 2.85.6 0 .9-1.25 1.025-4.375.675.7 1.725 1.35 2.525 1.675-.475 4.625-1.475 5.725-3.8 5.725-1.75 0-3.125-1.25-4.225-3.3a21.19 21.19 0 0 1-4.225 3.4c-.45-.65-1.525-1.875-2.15-2.45a19.099 19.099 0 0 0 5.1-4.05c-.85-2.825-1.4-6.325-1.725-10.075h-7.25v2.675h6.175s-.025.775-.025 1.125c-.075 5.25-.225 7.475-.8 8.2-.475.65-.975.875-1.725 1-.65.1-1.725.1-2.875.075-.05-.875-.375-2.025-.825-2.775.9.075 1.75.1 2.15.1.35 0 .55-.05.75-.3.25-.35.35-1.55.425-4.7h-3.25c-.1 3.65-.625 8.525-2.675 11.575-.525-.575-1.85-1.675-2.525-2.025 1.9-3 2.075-7.35 2.075-10.6v-7.3h10.2c-.05-1.225-.1-2.45-.1-3.7h3.125a60.6 60.6 0 0 0 .05 3.7h3.825c-.925-.75-2.175-1.55-3.2-2.175l1.8-1.775c1.375.7 3.2 1.85 4.075 2.675l-1.2 1.275h2.6v2.95h-7.725c.225 2.5.575 4.85 1 6.85a25.304 25.304 0 0 0 2.4-5.55Zm25.725 2.175h-3.65c.5 1.75 1.125 3.375 1.95 4.875a21.173 21.173 0 0 0 1.7-4.875Zm1.4-2.775 1.85.55c-.55 3.925-1.6 7.175-3.125 9.8 1.15 1.35 2.475 2.45 4.05 3.225-.675.55-1.575 1.675-2.025 2.425-1.45-.825-2.675-1.9-3.75-3.175a15.401 15.401 0 0 1-3.525 3.1c-.375-.725-1.25-1.85-1.875-2.4 1.375-.775 2.6-1.875 3.65-3.25-.975-1.7-1.75-3.625-2.375-5.725-.2 3.8-.8 8.225-2.4 11.35-.5-.45-1.65-1.1-2.35-1.4v1.4h-2.7v-8.675h-2.375c-.225 3.2-.825 6.425-2.325 8.775-.45-.55-1.4-1.4-2-1.8 1.625-3 1.825-7.75 1.825-11.35v-9.575h2.625v5.925h1.8v-6.575h2.675v6.575h1.75v2.625h-6.225v1.05c0 .55 0 1.15-.025 1.725h4.975v9.675c1.925-3.9 2.075-9.4 2.075-13.3v-7.275h11.625v2.675h-8.875v3.7h6.55l.5-.075Zm26.65-1.4h-16.125c-1.225 1.725-2.575 3.275-3.9 4.45-.575-.575-1.825-1.675-2.575-2.175 2.5-1.9 4.9-5.075 6.275-8.25l3.125.975c-.325.7-.675 1.375-1.075 2.075h14.275v2.925Zm-14.35 13.8h9.9c1.275 0 1.8-.425 1.925-3.3.85.5 1.95.85 2.875 1.05-.4 4.325-1.7 5.225-5.1 5.225h-9.325c-3.875 0-5.7-1.425-5.7-3.7 0-1.575.4-3.075 8.125-7.65h-6.4v-2.85h11.875l.65-.1 2.175 1.575c-.125.125-.35.3-.575.425-11.825 6.225-12.65 7.4-12.65 8.3 0 .725.85 1.025 2.225 1.025Zm33.075-6.775c0-1.65-1.3-3-3.65-3-2.75 0-5.225.85-6.5 1.225-.725.2-1.7.6-2.425.875l-.95-3.575c.85-.075 1.925-.25 2.75-.425 1.825-.425 4.625-1.15 7.55-1.15 3.95 0 6.725 2.25 6.725 6.175 0 5.35-4.95 8.675-11.9 9.625l-1.8-3.1c6.2-.7 10.2-2.75 10.2-6.65Zm-9.825-12c2.9.625 8.575 1.1 11.225 1.125l-.5 3.075c-2.925-.2-8.35-.7-11.225-1.2l.5-3Zm24.7 12.85c-.25.9-.425 1.7-.425 2.525 0 1.625 1.525 2.75 5.125 2.75 3.375 0 6.575-.375 8.775-.975l.025 3.5c-2.175.525-5.175.875-8.675.875-5.725 0-8.6-1.925-8.6-5.375 0-1.45.3-2.65.475-3.6l3.3.3Zm12.6-13.175c.625.9 1.525 2.5 2 3.425l-2.025.875c-.175-.375-.4-.8-.625-1.225v2.8c-1.75.125-4.85.3-7.225.3-2.625 0-4.8-.125-6.825-.275v-3.325c1.85.225 4.175.325 6.8.325 2.375 0 5.075-.15 7-.325-.35-.65-.725-1.275-1.075-1.775l1.975-.8Zm2.975-1.125c.65.925 1.575 2.525 2.025 3.4l-2 .85c-.525-1.05-1.325-2.5-2.025-3.45l2-.8Zm8.175 13.575v1.7h3.1v-1.7h-3.1Zm3.1-7.575h-3.1v1.45h3.1v-1.45Zm-3.1 3.725v1.575h3.1v-1.575h-3.1Zm7.35 5.55v2.6h-12.275v-2.6h2.25v-9.275h-1.95v-2.6h1.95v-2.65h2.675v2.65h3.1v-2.65h2.725v2.65h1.7v2.6h-1.7v9.275h1.525Zm-9.175 2.775 2.775.825c-.875 1.825-2.35 3.775-3.7 5-.55-.525-1.7-1.375-2.375-1.775 1.3-.975 2.6-2.55 3.3-4.05Zm12.95-5.175h3.625v-3.075h-3.6v.925c0 .65 0 1.375-.025 2.15Zm3.625-8.625h-3.6v2.925h3.6v-2.925Zm2.875-2.7v18.95c0 1.475-.275 2.25-1.15 2.725-.875.475-2.15.55-4 .525-.1-.775-.475-2.075-.85-2.825 1.075.075 2.275.05 2.625.05.375 0 .5-.125.5-.525v-4.925h-3.8c-.275 2.95-.9 6.075-2.25 8.325-.475-.525-1.7-1.425-2.35-1.675.075-.15.175-.275.25-.425l-2.075 1.175c-.5-.975-1.7-2.625-2.675-3.775l2.25-1.225c.9 1 2.075 2.375 2.7 3.4 1.45-3.125 1.575-7.35 1.575-10.6v-9.175h9.25Zm7.525-1.05 2.8 1.15c-1.625 2.3-4.15 4.75-6.475 6.25-.275-.675-1-1.875-1.45-2.525 1.925-1.175 4.1-3.225 5.125-4.875Zm3.95 16.475 2.425-1.275c1.125 1.275 2.4 3.025 2.925 4.25l-2.6 1.4c-.45-1.2-1.675-3.05-2.75-4.375Zm14.4-6.1h-3.15v1.975h2.925v2.7h-2.925v5.1c0 1.5-.3 2.225-1.3 2.675-.975.425-2.375.475-4.25.475-.125-.825-.55-2-.925-2.8 1.225.05 2.6.05 3 .025.375 0 .5-.075.5-.425v-5.05h-9.675v-2.7h9.675v-1.975h-9.925v-2.35c-.375.525-.75 1.075-1.175 1.6v13.65h-2.85v-10.375c-.75.775-1.5 1.45-2.25 2.05-.225-.675-.975-2.35-1.4-3.075 2.175-1.55 4.6-4 6-6.425l2.6 1.125c-.225.35-.45.725-.7 1.1h6.3v-2.175h-5.125v-2.7h5.125v-2.725h2.95v2.725h5.4v2.7h-5.4v2.175h6.575v2.7Zm17.325 1.25c0-5.35 2.225-9.35 4.925-12l2.375 1.05c-2.5 2.7-4.475 6.15-4.475 10.95 0 4.8 1.975 8.25 4.475 10.95l-2.375 1.05c-2.7-2.65-4.925-6.65-4.925-12Zm26.175-7.95v-1.025h-10.6v1.025h10.6Zm0 2.85v-1.05h-10.6v1.05h10.6Zm2.975-5.775v7.675h-16.425v-7.675h16.425Zm-1.425 14.15h-3.375c.425.9 1 1.725 1.675 2.45.675-.725 1.25-1.55 1.7-2.45Zm-13.25 2.975v1.225c1.05-.075 2.15-.15 3.25-.25v-.975h-3.25Zm0-3.1v1.05h3.25v-1.05h-3.25Zm3.25-3.075h-3.25v1h3.25v-1Zm11.75.825 1.825.7c-.675 2.35-1.75 4.3-3.15 5.875 1.25.825 2.75 1.45 4.4 1.85-.575.55-1.35 1.625-1.75 2.325-1.775-.525-3.325-1.3-4.65-2.325-1.275.975-2.7 1.75-4.25 2.325-.275-.575-.825-1.4-1.325-2v2.025h-2.85v-2.025c-2.875.275-5.725.525-7.925.725l-.225-2.55c.65-.05 1.4-.075 2.175-.15v-7.6h-1.95v-2.35h22.225v2.35h-11.45v9.15c1.275-.425 2.5-1.025 3.55-1.8a15.311 15.311 0 0 1-2.275-3.7l1.65-.45h-2.3v-2.275h7.775l.5-.1Zm5.725 2.05 2.45.425c-.25 2.35-.775 4.85-1.5 6.45-.525-.325-1.625-.85-2.275-1.075.725-1.475 1.125-3.7 1.325-5.8Zm5.425.45 2.1-.65c.625 1.425 1.275 3.25 1.55 4.5l-2.2.8c-.225-1.25-.875-3.175-1.45-4.65Zm4.075 4.525 1.725-2.1c3.225.875 7.1 2.5 9.4 3.75l-1.725 2.325c-2.175-1.375-6.15-3.05-9.4-3.975Zm2.7-4.45 1.675-1.875c1.8.7 3.95 1.825 5.175 2.725l-1.725 2.075c-1.175-.95-3.35-2.225-5.125-2.925Zm5.225-10.225h-4.35c.6.975 1.325 1.925 2.175 2.825a15.494 15.494 0 0 0 2.175-2.825Zm2.025-2.65 1.85 1.025c-.95 2.4-2.35 4.475-4.025 6.25 1.65 1.275 3.55 2.3 5.55 2.95-.625.6-1.475 1.7-1.875 2.425-2.075-.825-3.975-2.025-5.675-3.525a22.672 22.672 0 0 1-5.625 3.4c-.175-.375-.5-.875-.875-1.35l-1.825.825c-.075-.35-.175-.775-.3-1.225l-1.275.1v10.225h-2.575v-10.05l-3.625.225-.25-2.575 1.8-.075c.375-.475.775-1.025 1.175-1.6-.725-1.075-1.925-2.4-2.95-3.4l1.425-2.025c.175.15.375.325.575.5.7-1.375 1.4-3.025 1.825-4.35l2.575.95c-.9 1.7-1.9 3.625-2.8 5.025.325.35.6.7.85 1 .85-1.4 1.65-2.825 2.225-4.05l2.425 1.125c-1.375 2.175-3.1 4.7-4.675 6.725l2.4-.1a24.156 24.156 0 0 0-.875-1.8l1.975-.825c.7 1.25 1.4 2.75 1.825 4.025a20.182 20.182 0 0 0 4.625-2.65 20.57 20.57 0 0 1-1.9-2.5c-.675.75-1.4 1.475-2.225 2.15-.45-.625-1.4-1.55-2.05-1.925 2.725-2.075 4.5-4.825 5.425-7.175l2.9.475a22.084 22.084 0 0 1-.925 1.9h4.45l.45-.1Zm24.125 7.875h-3.65c.5 1.75 1.125 3.375 1.95 4.875a21.173 21.173 0 0 0 1.7-4.875Zm1.4-2.775 1.85.55c-.55 3.925-1.6 7.175-3.125 9.8 1.15 1.35 2.475 2.45 4.05 3.225-.675.55-1.575 1.675-2.025 2.425-1.45-.825-2.675-1.9-3.75-3.175a15.401 15.401 0 0 1-3.525 3.1c-.375-.725-1.25-1.85-1.875-2.4 1.375-.775 2.6-1.875 3.65-3.25-.975-1.7-1.75-3.625-2.375-5.725-.2 3.8-.8 8.225-2.4 11.35-.5-.45-1.65-1.1-2.35-1.4v1.4h-2.7v-8.675h-2.375c-.225 3.2-.825 6.425-2.325 8.775-.45-.55-1.4-1.4-2-1.8 1.625-3 1.825-7.75 1.825-11.35v-9.575h2.625v5.925h1.8v-6.575h2.675v6.575h1.75v2.625h-6.225v1.05c0 .55 0 1.15-.025 1.725h4.975v9.675c1.925-3.9 2.075-9.4 2.075-13.3v-7.275h11.625v2.675h-8.875v3.7h6.55l.5-.075Zm23.327-5.6c-.05.7-.1 1.5-.1 2.5v4.95c0 5.375-1.05 7.7-2.9 9.75-1.65 1.8-4.25 3.025-6.077 3.6l-2.6-2.75c2.475-.575 4.497-1.525 5.997-3.15 1.73-1.875 2.05-3.75 2.05-7.65v-4.75c0-1-.05-1.8-.15-2.5h3.78Zm-11.602.2a20.92 20.92 0 0 0-.075 1.925v8.45c0 .625.025 1.6.075 2.175h-3.625c.025-.475.125-1.45.125-2.2v-8.425c0-.475-.025-1.35-.1-1.925h3.6Zm36.602-.2c-.05.7-.1 1.5-.1 2.5v4.95c0 5.375-1.05 7.7-2.9 9.75-1.65 1.8-4.25 3.025-6.08 3.6l-2.6-2.75c2.48-.575 4.5-1.525 6-3.15 1.73-1.875 2.05-3.75 2.05-7.65v-4.75c0-1-.05-1.8-.15-2.5h3.78Zm-11.6.2a20.72 20.72 0 0 0-.08 1.925v8.45c0 .625.03 1.6.08 2.175h-3.63c.03-.475.13-1.45.13-2.2v-8.425c0-.475-.03-1.35-.1-1.925h3.6Zm18.82 7.625c.9.075 2.73.15 4.03.15h13.42c1.18 0 2.28-.1 2.93-.15v3.925c-.6-.025-1.88-.125-2.93-.125h-13.42c-1.43 0-3.1.05-4.03.125v-3.925Zm42.31-5.375c-.2.275-.65 1.05-.88 1.55-.85 1.95-2.25 4.625-3.92 6.875 2.47 2.15 5.5 5.35 6.97 7.15l-2.85 2.475c-1.62-2.25-3.95-4.8-6.3-7.075-2.65 2.8-5.97 5.4-9.4 7.025l-2.57-2.7c4.02-1.5 7.9-4.55 10.25-7.175 1.65-1.875 3.17-4.35 3.72-6.125h-8.47c-1.05 0-2.43.15-2.95.175v-3.55c.67.1 2.2.175 2.95.175h8.82c1.08 0 2.08-.15 2.58-.325l2.05 1.525Zm11.1 14.2h11.1v-5.6h-11.1v5.6Zm11.1-13.925h-11.1v5.375h11.1v-5.375Zm-14.18-3h17.38v21.5h-3.2v-1.575h-11.1v1.625h-3.08v-21.55Zm33.63 6.775c-1.33 0-2.38-1-2.38-2.325 0-1.375 1.05-2.375 2.38-2.375 1.32 0 2.37 1 2.37 2.375 0 1.325-1.05 2.325-2.37 2.325Zm0 11.925c-1.33 0-2.38-1-2.38-2.325 0-1.375 1.05-2.375 2.38-2.375 1.32 0 2.37 1 2.37 2.375 0 1.325-1.05 2.325-2.37 2.325Zm14.55.975v-2.975h3.97v-11.7h-3.35v-2.275c1.85-.35 3.13-.825 4.3-1.575h2.73v15.55h3.47v2.975h-11.12Zm13.74 0v-2.125c5.03-4.5 8-7.975 8-10.825 0-1.875-1-3-2.77-3-1.35 0-2.45.875-3.4 1.9l-2-2c1.7-1.825 3.35-2.8 5.87-2.8 3.5 0 5.83 2.25 5.83 5.7 0 3.35-2.78 6.95-6.15 10.25.92-.1 2.15-.2 3.02-.2h4v3.1h-12.4Zm14 4.55 6.23-24.7h2.42l-6.2 24.7h-2.45Zm16.19-4.2c-2.92 0-4.9-1.1-6.2-2.575l1.73-2.325c1.1 1.075 2.45 1.9 4.12 1.9 1.88 0 3.15-.925 3.15-2.6 0-1.8-1.07-2.95-5.1-2.95v-2.625c3.4 0 4.5-1.175 4.5-2.825 0-1.45-.9-2.3-2.47-2.3-1.33 0-2.4.6-3.5 1.625l-1.88-2.25c1.6-1.4 3.38-2.275 5.55-2.275 3.58 0 6 1.775 6 4.925 0 2-1.12 3.45-3.07 4.225v.125c2.07.575 3.67 2.125 3.67 4.55 0 3.4-2.97 5.375-6.5 5.375Zm9.93-.35v-2.975h3.97v-11.7h-3.35v-2.275c1.85-.35 3.13-.825 4.3-1.575h2.73v15.55h3.47v2.975H1193Zm21.09-9.5c0 5.35-2.22 9.35-4.92 12l-2.38-1.05c2.5-2.7 4.48-6.15 4.48-10.95 0-4.8-1.98-8.25-4.48-10.95l2.38-1.05c2.7 2.65 4.92 6.65 4.92 12Z" fill="#2F3B53"/><path d="m907.241 30.157-1.175 4.303c-3.095 11.335-6.237 22.68-9.25 34.037-.486 1.779-.993 2.907-3.163 2.56-2.28-.356-5.46 1.042-6.686-.648-1.044-1.463.903-4.2 1.475-6.377 2.054-7.685 4.191-15.348 6.015-22.029-2.667 5.295-5.803 11.574-8.959 17.847-1.358 2.696-2.861 5.353-3.982 8.159-.962 2.382-2.386 3.127-4.919 2.969-4.344-.275-4.327-.093-4.094-4.363.412-7.934.824-15.867 1.215-23.807.03-.436.296-.92-.134-1.215-1.384 5.068-2.815 10.145-4.163 15.245-.857 3.3-1.569 6.64-2.384 9.951-1.032 4.186-1.053 4.18-5.527 4.137-3.543-.034-4.858-1.727-3.943-5.078 3.044-11.149 6.136-22.307 9.097-33.479.509-1.861 1.15-2.664 3.241-2.515 3.202.23 6.426.132 9.639.076 1.763-.03 2.46.427 2.312 2.431-.477 6.138-.689 12.281-.989 18.423-.049.831-.01 1.664-.024 3.26 3.901-7.78 7.548-14.875 11.01-22.02.75-1.53 1.609-2.073 3.234-2.007 3.963.127 7.918.117 12.163.187l-.009-.047ZM932.358 49.508c-1.739 6.37-3.562 12.719-5.156 19.129-.462 1.852-1.004 2.86-3.087 2.602-2.385-.295-5.687.981-6.941-.606-.884-1.153.839-4.372 1.46-6.647 2.846-10.425 5.755-20.833 8.478-31.292.504-1.93 1.296-2.714 3.255-2.49 2.608.29 5.959-1.084 7.682.497 1.722 1.582.811 5 1.055 7.601.439 4.654.743 9.316.988 12.65 1.474-5.398 3.345-11.844 4.947-18.364.462-1.852 1.131-2.514 2.984-2.386 2.35.175 5.883-.727 6.762.446 1.237 1.65-.681 4.527-1.313 6.843-2.808 10.525-5.765 21.03-8.531 31.567-.497 1.82-1.243 2.438-3.07 2.295-2.61-.2-5.977.747-7.69-.544-1.779-1.374-.802-4.953-1.093-7.544-.479-4.51-.775-9.036-1.166-13.543-.002-.156-.191-.275-.302-.438l.744.203-.006.02ZM1103.75 51.21c-1.6 5.874-3.42 12.113-4.96 18.426-.49 1.955-1.22 2.736-3.21 2.46-2.24-.304-5.38.95-6.52-.515-1.15-1.47.67-4.24 1.27-6.412 2.83-10.54 5.79-21.046 8.54-31.608.52-1.903 1.27-2.698 3.24-2.536 1.99.14 3.98.173 5.95.002 1.8-.154 2.24.589 2.35 2.22.39 6.13.89 12.267 1.37 18.4.02.338-.12.767-.12.767 1.74-6.371 3.57-12.74 5.19-19.145.42-1.707 1.12-2.316 2.82-2.207 2.35.175 4.71.152 7.22.216-.17.866-.28 1.612-.47 2.315-3.3 12.08-6.64 24.149-9.84 36.257-.49 1.82-1.22 2.465-3.06 2.342-2.63-.207-6.07.765-7.68-.564-1.65-1.362-.78-4.969-1.02-7.59-.38-4.46-.73-8.936-1.04-12.864l-.03.035ZM1057.79 51.106c-1.35 4.054-2.05 8.175-3.73 12.03-2.84 6.513-7.99 9.42-14.77 9.613-11.17.328-14.4-3.886-11.49-14.762 1.36-5.142 2.73-10.256 4.19-15.37 2.97-10.302 13.55-15.595 23.67-11.852 3.41 1.264 5.19 3.95 5.02 7.727-.19 4.418-2.07 8.46-2.89 12.614Zm-10.52.13-.04-.012c.9-3.289 1.8-6.578 2.7-9.887.39-1.428.52-2.97-.99-3.782-1.6-.861-3.14-.28-4.42.904-1.07.997-1.62 2.29-2.01 3.697-1.02 3.744-2.05 7.508-3.07 11.252-.72 2.648-1.51 5.3-2.05 7.998-.28 1.346-.34 2.952 1.36 3.639 1.68.68 3.15.192 4.32-1.177.95-1.119 1.4-2.462 1.8-3.821.82-2.932 1.6-5.854 2.4-8.791v-.02ZM829.295 49.838l2.022-7.405c2.615-9.577 8.908-14.082 18.88-13.515 1.51.079 3.034.272 4.475.688 3.889 1.129 6.193 4.158 5.509 8.128-1.491 8.795-3.66 17.47-7.212 25.68-2.595 6.005-7.968 8.116-14.126 8.302-11.212.317-14.441-3.877-11.517-14.748l1.948-7.136.021.006Zm17.593.225-.042-.011 2.7-9.888c.333-1.22.436-2.57-.742-3.38-1.291-.886-2.73-.657-4.046.095-1.21.692-1.921 1.831-2.277 3.135-1.845 6.675-3.69 13.35-5.473 20.043-.406 1.49-.541 3.12 1.208 3.953 1.826.876 3.309.08 4.52-1.345.859-1.032 1.348-2.254 1.704-3.557.804-3.026 1.649-6.04 2.474-9.06l-.026.015ZM969.748 68.074c-4.313 4.246-8.935 5.073-14.072 3.715-3.182-.87-4.803-2.823-4.97-6.114-.082-1.49.056-3.052.431-4.505 1.813-6.885 3.522-13.797 5.64-20.576 3.045-9.77 15.816-14.574 24.738-9.515 2.151 1.232 3.163 3.22 3.282 5.63.048 1.125-.065 2.272-.261 3.396-.754 4.307-.775 4.301-5.11 4.318a9.338 9.338 0 0 1-1.142-.046c-1.588-.122-3.597.73-4.654-.36-1.007-1.03.403-2.779.54-4.253.205-2.055-.568-3.044-2.707-2.94-2.273.114-3.832 1.266-4.428 3.37-2.032 7.114-3.959 14.256-5.887 21.398-.356 1.303-.214 2.653 1.227 3.069 1.999.568 3.998.402 5.345-1.52 1.12-1.583 1.484-3.484 1.94-5.315.442-1.702-.875-1.35-1.713-1.29-1.432.12-1.674-.458-1.238-1.65l.074-.269c.825-3.671 3.115-5.498 6.87-5.48 2.173.015 4.343.118 6.537.05 1.457-.046 2.075.212 1.591 1.902-1.783 6.203-3.462 12.435-5.095 18.657-.344 1.262-.916 1.729-2.15 1.614-.757-.074-1.516-.059-2.26-.017-2.077.122-4.185.28-2.537-3.316l.009.047ZM1089.26 52.741c-1 2.995-1.82 7.55-3.75 11.847-4.22 9.36-17.81 9.673-23.56 6.59-1.84-.99-2.75-2.794-3.02-4.89-.27-2.097-.06-4.153.49-6.18 1.6-5.854 3.15-11.719 4.79-17.561 2.8-9.994 13.86-15.443 23.5-11.633 3.93 1.561 5.69 4.933 4.89 9.426-.06.383-.14.74-.24 1.113-.9 3.289-1.8 6.578-3.09 11.314l-.01-.026Zm-9.79-1.426-.08-.023c.92-3.371 1.93-6.741 2.73-10.147.29-1.231.4-2.779-1.08-3.518-1.42-.675-2.82-.278-4.01.617-1.62 1.203-2.23 3.016-2.75 4.85-1.5 5.394-2.95 10.798-4.42 16.176-.22.828-.34 1.663-.44 2.503-.17 1.354-.19 2.815 1.25 3.475 1.51.677 3.02.18 4.19-.945 1.18-1.145 1.8-2.667 2.22-4.218.82-2.91 1.6-5.854 2.39-8.77ZM797.295 50.08c1.367-4.517 1.877-9.312 4.203-13.522 4.031-7.28 16.46-10.509 23.515-6.093 3.113 1.939 3.478 4.995 3.006 8.267-.764 5.237-.816 5.267-6.055 5.259-.088-.002-.197-.01-.285-.011-1.584-.055-3.618.479-4.672-.298-1.125-.84.319-2.714.388-4.184.152-2.915-1.206-4.041-4.001-3.16-2.046.664-2.872 2.306-3.412 4.203a6354.597 6354.597 0 0 1-5.283 19.184c-.429 1.572-1.045 3.338 1.016 4.167 1.943.775 3.775.164 5.089-1.477 1.39-1.755 1.889-3.908 2.382-6.04.283-1.279.749-1.93 2.264-1.783 2.251.215 4.543.196 6.805.125 1.462-.068 1.439.504 1.211 1.664-2.306 11.618-12.294 17.78-23.79 14.664-4.505-1.23-6.486-4.55-5.418-9.681.795-3.806 2.004-7.5 3.026-11.243l.011-.041ZM996.844 60.581c-.134-2.437 1.548-3.067 3.986-2.734.47.062.95.036 1.42.03 1.41.03 3.17-.468 4.16.204 1.31.891-.2 2.523-.21 3.855 0 2.377 1.36 3.66 3.8 3.15 2.08-.434 3.2-1.862 3.76-3.842.53-1.835.17-3.398-1.35-4.57-1.44-1.08-2.95-2.05-4.39-3.11-6.98-5.017-7.71-12.195-1.94-18.688 4.59-5.15 14.19-6.885 19.58-3.545 3.27 2.005 4.7 7.752 2.83 10.931-.44.745-.99.707-1.67.698-1.24-.027-2.46.041-3.7.035-2.24-.011-5.02.809-3.8-3.394.44-1.525-.84-2.54-2.64-2.543-2-.011-3.19 1.108-3.93 2.75-.79 1.784-.32 3.38 1.23 4.537 2.05 1.516 4.18 2.919 6.29 4.363 3.42 2.356 4.54 5.506 3.81 9.62-2 11.167-10.86 16.059-21.8 13.672-5.41-1.187-7.172-4.98-5.463-11.404l.027-.015ZM917.295 50.996c-1.649 6.04-3.339 12.068-4.906 18.13-.423 1.552-1.004 2.216-2.711 2.039-2.162-.213-4.347-.098-6.52-.114-1.106-.013-1.758-.146-1.363-1.594a5972.73 5972.73 0 0 0 10.342-37.874c.305-1.117.831-1.418 1.96-1.487 9.082-.565 9.087-.586 6.717 8.013l-3.524 12.907.005-.02Z" fill="#AA3542"/><defs><radialGradient id="a" cx="0" cy="0" r="1" gradientUnits="userSpaceOnUse" gradientTransform="matrix(1100.5 0 0 78.5253 819.5 68.5)"><stop stop-color="#fff"/><stop offset="1" stop-color="#D1D1D1"/></radialGradient></defs></svg>