<svg width="1920" height="137" viewBox="0 0 1920 137" fill="none" xmlns="http://www.w3.org/2000/svg">
<rect width="1920" height="137" fill="url(#paint0_radial_2859_2277)" fill-opacity="0.9"/>
<path d="M715.668 97.0528V100.178H712.643V94.2778H721.668V91.8778H724.818V94.2778H733.993V100.178H730.818V97.0528H715.668ZM729.693 101.603H716.818V98.9028H729.693V101.603ZM728.668 112.128H731.143C731.968 112.128 732.093 111.728 732.193 109.128C732.793 109.578 734.093 110.053 734.868 110.253C734.543 113.878 733.793 114.828 731.418 114.828H728.218C725.318 114.828 724.618 113.978 724.618 111.278V106.203H721.368C720.868 110.503 719.493 113.603 713.218 115.253C712.918 114.478 712.143 113.253 711.493 112.603C716.843 111.453 717.743 109.303 718.118 106.203H712.193V103.403H734.468V106.203H727.618V111.228C727.618 112.028 727.768 112.128 728.668 112.128ZM755.443 99.8278L758.418 100.553C757.393 103.803 755.918 106.703 754.118 109.128C754.843 110.928 755.643 111.978 756.443 111.978C757.043 111.978 757.343 110.728 757.468 107.603C758.143 108.303 759.193 108.953 759.993 109.278C759.518 113.903 758.518 115.003 756.193 115.003C754.443 115.003 753.068 113.753 751.968 111.703C750.693 113.028 749.293 114.153 747.743 115.103C747.293 114.453 746.218 113.228 745.593 112.653C747.518 111.603 749.243 110.228 750.693 108.603C749.843 105.778 749.293 102.278 748.968 98.5278H741.718V101.203H747.893C747.893 101.203 747.868 101.978 747.868 102.328C747.793 107.578 747.643 109.803 747.068 110.528C746.593 111.178 746.093 111.403 745.343 111.528C744.693 111.628 743.618 111.628 742.468 111.603C742.418 110.728 742.093 109.578 741.643 108.828C742.543 108.903 743.393 108.928 743.793 108.928C744.143 108.928 744.343 108.878 744.543 108.628C744.793 108.278 744.893 107.078 744.968 103.928H741.718C741.618 107.578 741.093 112.453 739.043 115.503C738.518 114.928 737.193 113.828 736.518 113.478C738.418 110.478 738.593 106.128 738.593 102.878V95.5778H748.793C748.743 94.3528 748.693 93.1278 748.693 91.8778H751.818C751.793 93.1278 751.818 94.3528 751.868 95.5778H755.693C754.768 94.8278 753.518 94.0278 752.493 93.4028L754.293 91.6278C755.668 92.3278 757.493 93.4778 758.368 94.3028L757.168 95.5778H759.768V98.5278H752.043C752.268 101.028 752.618 103.378 753.043 105.378C754.018 103.703 754.843 101.853 755.443 99.8278ZM781.168 102.003H777.518C778.018 103.753 778.643 105.378 779.468 106.878C780.193 105.403 780.793 103.753 781.168 102.003ZM782.568 99.2278L784.418 99.7778C783.868 103.703 782.818 106.953 781.293 109.578C782.443 110.928 783.768 112.028 785.343 112.803C784.668 113.353 783.768 114.478 783.318 115.228C781.868 114.403 780.643 113.328 779.568 112.053C778.543 113.278 777.368 114.303 776.043 115.153C775.668 114.428 774.793 113.303 774.168 112.753C775.543 111.978 776.768 110.878 777.818 109.503C776.843 107.803 776.068 105.878 775.443 103.778C775.243 107.578 774.643 112.003 773.043 115.128C772.543 114.678 771.393 114.028 770.693 113.728V115.128H767.993V106.453H765.618C765.393 109.653 764.793 112.878 763.293 115.228C762.843 114.678 761.893 113.828 761.293 113.428C762.918 110.428 763.118 105.678 763.118 102.078V92.5028H765.743V98.4278H767.543V91.8528H770.218V98.4278H771.968V101.053H765.743V102.103C765.743 102.653 765.743 103.253 765.718 103.828H770.693V113.503C772.618 109.603 772.768 104.103 772.768 100.203V92.9278H784.393V95.6028H775.518V99.3028H782.068L782.568 99.2278ZM809.218 97.8278H793.093C791.868 99.5528 790.518 101.103 789.193 102.278C788.618 101.703 787.368 100.603 786.618 100.103C789.118 98.2028 791.518 95.0278 792.893 91.8528L796.018 92.8278C795.693 93.5278 795.343 94.2028 794.943 94.9028H809.218V97.8278ZM794.868 111.628H804.768C806.043 111.628 806.568 111.203 806.693 108.328C807.543 108.828 808.643 109.178 809.568 109.378C809.168 113.703 807.868 114.603 804.468 114.603H795.143C791.268 114.603 789.443 113.178 789.443 110.903C789.443 109.328 789.843 107.828 797.568 103.253H791.168V100.403H803.043L803.693 100.303L805.868 101.878C805.743 102.003 805.518 102.178 805.293 102.303C793.468 108.528 792.643 109.703 792.643 110.603C792.643 111.328 793.493 111.628 794.868 111.628ZM827.943 104.853C827.943 103.203 826.643 101.853 824.293 101.853C821.543 101.853 819.068 102.703 817.793 103.078C817.068 103.278 816.093 103.678 815.368 103.953L814.418 100.378C815.268 100.303 816.343 100.128 817.168 99.9528C818.993 99.5278 821.793 98.8028 824.718 98.8028C828.668 98.8028 831.443 101.053 831.443 104.978C831.443 110.328 826.493 113.653 819.543 114.603L817.743 111.503C823.943 110.803 827.943 108.753 827.943 104.853ZM818.118 92.8528C821.018 93.4778 826.693 93.9528 829.343 93.9778L828.843 97.0528C825.918 96.8528 820.493 96.3528 817.618 95.8528L818.118 92.8528ZM842.818 105.703C842.568 106.603 842.393 107.403 842.393 108.228C842.393 109.853 843.918 110.978 847.518 110.978C850.893 110.978 854.093 110.603 856.293 110.003L856.318 113.503C854.143 114.028 851.143 114.378 847.643 114.378C841.918 114.378 839.043 112.453 839.043 109.003C839.043 107.553 839.343 106.353 839.518 105.403L842.818 105.703ZM855.418 92.5278C856.043 93.4278 856.943 95.0278 857.418 95.9528L855.393 96.8278C855.218 96.4528 854.993 96.0278 854.768 95.6028V98.4028C853.018 98.5278 849.918 98.7028 847.543 98.7028C844.918 98.7028 842.743 98.5778 840.718 98.4278V95.1028C842.568 95.3278 844.893 95.4278 847.518 95.4278C849.893 95.4278 852.593 95.2778 854.518 95.1028C854.168 94.4528 853.793 93.8278 853.443 93.3278L855.418 92.5278ZM858.393 91.4028C859.043 92.3278 859.968 93.9278 860.418 94.8028L858.418 95.6528C857.893 94.6028 857.093 93.1528 856.393 92.2028L858.393 91.4028ZM866.568 104.978V106.678H869.668V104.978H866.568ZM869.668 97.4028H866.568V98.8528H869.668V97.4028ZM866.568 101.128V102.703H869.668V101.128H866.568ZM873.918 106.678V109.278H861.643V106.678H863.893V97.4028H861.943V94.8028H863.893V92.1528H866.568V94.8028H869.668V92.1528H872.393V94.8028H874.093V97.4028H872.393V106.678H873.918ZM864.743 109.453L867.518 110.278C866.643 112.103 865.168 114.053 863.818 115.278C863.268 114.753 862.118 113.903 861.443 113.503C862.743 112.528 864.043 110.953 864.743 109.453ZM877.693 104.278H881.318V101.203H877.718V102.128C877.718 102.778 877.718 103.503 877.693 104.278ZM881.318 95.6528H877.718V98.5778H881.318V95.6528ZM884.193 92.9528V111.903C884.193 113.378 883.918 114.153 883.043 114.628C882.168 115.103 880.893 115.178 879.043 115.153C878.943 114.378 878.568 113.078 878.193 112.328C879.268 112.403 880.468 112.378 880.818 112.378C881.193 112.378 881.318 112.253 881.318 111.853V106.928H877.518C877.243 109.878 876.618 113.003 875.268 115.253C874.793 114.728 873.568 113.828 872.918 113.578C872.993 113.428 873.093 113.303 873.168 113.153L871.093 114.328C870.593 113.353 869.393 111.703 868.418 110.553L870.668 109.328C871.568 110.328 872.743 111.703 873.368 112.728C874.818 109.603 874.943 105.378 874.943 102.128V92.9528H884.193ZM891.718 91.9028L894.518 93.0528C892.893 95.3528 890.368 97.8028 888.043 99.3028C887.768 98.6278 887.043 97.4278 886.593 96.7778C888.518 95.6028 890.693 93.5528 891.718 91.9028ZM895.668 108.378L898.093 107.103C899.218 108.378 900.493 110.128 901.018 111.353L898.418 112.753C897.968 111.553 896.743 109.703 895.668 108.378ZM910.068 102.278H906.918V104.253H909.843V106.953H906.918V112.053C906.918 113.553 906.618 114.278 905.618 114.728C904.643 115.153 903.243 115.203 901.368 115.203C901.243 114.378 900.818 113.203 900.443 112.403C901.668 112.453 903.043 112.453 903.443 112.428C903.818 112.428 903.943 112.353 903.943 112.003V106.953H894.268V104.253H903.943V102.278H894.018V99.9278C893.643 100.453 893.268 101.003 892.843 101.528V115.178H889.993V104.803C889.243 105.578 888.493 106.253 887.743 106.853C887.518 106.178 886.768 104.503 886.343 103.778C888.518 102.228 890.943 99.7778 892.343 97.3528L894.943 98.4778C894.718 98.8278 894.493 99.2028 894.243 99.5778H900.543V97.4028H895.418V94.7028H900.543V91.9778H903.493V94.7028H908.893V97.4028H903.493V99.5778H910.068V102.278ZM922.332 118.078C919.982 114.203 918.607 110.153 918.607 105.128C918.607 100.153 919.982 96.0528 922.332 92.2028L924.632 93.1778C922.532 96.8278 921.582 101.053 921.582 105.128C921.582 109.253 922.532 113.453 924.632 117.103L922.332 118.078ZM946.006 93.6278C945.956 94.3278 945.906 95.1278 945.906 96.1278V101.078C945.906 106.453 944.856 108.778 943.006 110.828C941.356 112.628 938.756 113.853 936.931 114.428L934.331 111.678C936.806 111.103 938.831 110.153 940.331 108.528C942.056 106.653 942.381 104.778 942.381 100.878V96.1278C942.381 95.1278 942.331 94.3278 942.231 93.6278H946.006ZM934.406 93.8278C934.356 94.4028 934.331 94.9528 934.331 95.7528V104.203C934.331 104.828 934.356 105.803 934.406 106.378H930.781C930.806 105.903 930.906 104.928 930.906 104.178V95.7528C930.906 95.2778 930.881 94.4028 930.806 93.8278H934.406ZM971.006 93.6278C970.956 94.3278 970.906 95.1278 970.906 96.1278V101.078C970.906 106.453 969.856 108.778 968.006 110.828C966.356 112.628 963.756 113.853 961.931 114.428L959.331 111.678C961.806 111.103 963.831 110.153 965.331 108.528C967.056 106.653 967.381 104.778 967.381 100.878V96.1278C967.381 95.1278 967.331 94.3278 967.231 93.6278H971.006ZM959.406 93.8278C959.356 94.4028 959.331 94.9528 959.331 95.7528V104.203C959.331 104.828 959.356 105.803 959.406 106.378H955.781C955.806 105.903 955.906 104.928 955.906 104.178V95.7528C955.906 95.2778 955.881 94.4028 955.806 93.8278H959.406ZM978.231 101.453C979.131 101.528 980.956 101.603 982.256 101.603H995.681C996.856 101.603 997.956 101.503 998.606 101.453V105.378C998.006 105.353 996.731 105.253 995.681 105.253H982.256C980.831 105.253 979.156 105.303 978.231 105.378V101.453ZM1020.54 96.0778C1020.34 96.3528 1019.89 97.1278 1019.66 97.6278C1018.81 99.5778 1017.41 102.253 1015.74 104.503C1018.21 106.653 1021.24 109.853 1022.71 111.653L1019.86 114.128C1018.24 111.878 1015.91 109.328 1013.56 107.053C1010.91 109.853 1007.59 112.453 1004.16 114.078L1001.59 111.378C1005.61 109.878 1009.49 106.828 1011.84 104.203C1013.49 102.328 1015.01 99.8528 1015.56 98.0778H1007.09C1006.04 98.0778 1004.66 98.2278 1004.14 98.2528V94.7028C1004.81 94.8028 1006.34 94.8778 1007.09 94.8778H1015.91C1016.99 94.8778 1017.99 94.7278 1018.49 94.5528L1020.54 96.0778ZM1046.34 101.153L1048.76 102.203C1047.64 104.553 1046.16 107.053 1044.76 108.728L1042.21 107.253C1042.81 106.428 1043.54 105.303 1044.16 104.178H1038.89V111.953C1038.89 113.528 1038.54 114.278 1037.34 114.703C1036.19 115.128 1034.56 115.153 1032.41 115.153C1032.26 114.303 1031.79 113.078 1031.34 112.303C1032.81 112.353 1034.66 112.353 1035.16 112.353C1035.64 112.328 1035.79 112.228 1035.79 111.853V104.178H1025.91V101.353H1037.29C1035.44 100.578 1033.41 99.7778 1031.81 99.1778L1033.29 96.9278C1034.41 97.3278 1035.81 97.8028 1037.21 98.3278C1038.29 97.6528 1039.41 96.8278 1040.39 95.9778H1028.31V93.2528H1043.26L1043.94 93.0778L1046.06 94.7528C1044.46 96.3528 1042.39 98.0778 1040.29 99.5028C1041.11 99.8278 1041.86 100.103 1042.44 100.378L1041.84 101.353H1045.79L1046.34 101.153ZM1054.44 97.2028V100.628H1051.51V94.3778H1060.59V91.8778H1063.74V94.3778H1072.89V100.628H1069.81V97.2028H1054.44ZM1063.71 108.103V111.828C1064.61 111.928 1065.56 111.978 1066.56 111.978C1067.91 111.978 1072.04 111.978 1073.71 111.903C1073.29 112.628 1072.81 114.053 1072.66 114.928H1066.41C1061.81 114.928 1058.39 114.178 1056.09 110.628C1055.29 112.528 1054.19 114.128 1052.76 115.353C1052.26 114.828 1051.01 113.778 1050.31 113.328C1053.01 111.328 1054.24 107.878 1054.69 103.603L1057.79 103.903C1057.64 105.028 1057.46 106.078 1057.24 107.078C1057.99 109.078 1059.16 110.278 1060.64 111.003V102.178H1055.31V99.3528H1069.06V102.178H1063.71V105.303H1070.59V108.103H1063.71ZM1084.4 103.878C1083.1 103.878 1082.12 102.853 1082.12 101.503C1082.12 100.128 1083.1 99.1028 1084.4 99.1028C1085.72 99.1028 1086.7 100.128 1086.7 101.503C1086.7 102.853 1085.72 103.878 1084.4 103.878ZM1084.4 113.378C1083.1 113.378 1082.12 112.328 1082.12 110.978C1082.12 109.603 1083.1 108.578 1084.4 108.578C1085.72 108.578 1086.7 109.603 1086.7 110.978C1086.7 112.328 1085.72 113.378 1084.4 113.378ZM1095.22 113.028V110.903C1100.24 106.403 1103.22 102.928 1103.22 100.078C1103.22 98.2028 1102.22 97.0778 1100.44 97.0778C1099.09 97.0778 1097.99 97.9528 1097.04 98.9778L1095.04 96.9778C1096.74 95.1528 1098.39 94.1778 1100.92 94.1778C1104.42 94.1778 1106.74 96.4278 1106.74 99.8778C1106.74 103.228 1103.97 106.828 1100.59 110.128C1101.52 110.028 1102.74 109.928 1103.62 109.928H1107.62V113.028H1095.22ZM1116.24 113.378C1112.47 113.378 1109.97 110.078 1109.97 103.703C1109.97 97.3028 1112.47 94.1778 1116.24 94.1778C1120.02 94.1778 1122.49 97.3278 1122.49 103.703C1122.49 110.078 1120.02 113.378 1116.24 113.378ZM1116.24 110.503C1117.84 110.503 1119.02 108.903 1119.02 103.703C1119.02 98.5278 1117.84 97.0278 1116.24 97.0278C1114.64 97.0278 1113.44 98.5278 1113.44 103.703C1113.44 108.903 1114.64 110.503 1116.24 110.503ZM1124.66 113.028V110.903C1129.69 106.403 1132.66 102.928 1132.66 100.078C1132.66 98.2028 1131.66 97.0778 1129.89 97.0778C1128.54 97.0778 1127.44 97.9528 1126.49 98.9778L1124.49 96.9778C1126.19 95.1528 1127.84 94.1778 1130.36 94.1778C1133.86 94.1778 1136.19 96.4278 1136.19 99.8778C1136.19 103.228 1133.41 106.828 1130.04 110.128C1130.96 110.028 1132.19 109.928 1133.06 109.928H1137.06V113.028H1124.66ZM1145.21 113.378C1142.28 113.378 1140.33 112.228 1138.96 110.853L1140.66 108.503C1141.71 109.528 1143.01 110.378 1144.73 110.378C1146.66 110.378 1148.01 109.153 1148.01 106.978C1148.01 104.828 1146.76 103.628 1144.88 103.628C1143.78 103.628 1143.18 103.903 1142.11 104.603L1140.43 103.503L1140.93 94.5028H1150.83V97.6028H1144.11L1143.76 101.528C1144.51 101.178 1145.13 101.003 1145.98 101.003C1149.08 101.003 1151.68 102.853 1151.68 106.878C1151.68 111.003 1148.63 113.378 1145.21 113.378ZM1157.08 113.378C1155.78 113.378 1154.81 112.328 1154.81 110.978C1154.81 109.603 1155.78 108.578 1157.08 108.578C1158.41 108.578 1159.38 109.603 1159.38 110.978C1159.38 112.328 1158.41 113.378 1157.08 113.378ZM1163.21 113.028V110.053H1167.19V98.3528H1163.84V96.0778C1165.69 95.7278 1166.96 95.2528 1168.14 94.5028H1170.86V110.053H1174.34V113.028H1163.21ZM1179.93 113.378C1178.63 113.378 1177.66 112.328 1177.66 110.978C1177.66 109.603 1178.63 108.578 1179.93 108.578C1181.26 108.578 1182.23 109.603 1182.23 110.978C1182.23 112.328 1181.26 113.378 1179.93 113.378ZM1191.71 103.978C1190.71 103.978 1189.54 104.528 1188.69 105.928C1189.04 109.303 1190.29 110.603 1191.84 110.603C1193.21 110.603 1194.36 109.453 1194.36 107.178C1194.36 105.003 1193.31 103.978 1191.71 103.978ZM1191.91 113.378C1188.39 113.378 1185.26 110.553 1185.26 104.028C1185.26 97.1278 1188.69 94.1778 1192.41 94.1778C1194.69 94.1778 1196.31 95.1278 1197.44 96.2778L1195.49 98.4778C1194.84 97.7278 1193.71 97.1278 1192.64 97.1278C1190.51 97.1278 1188.76 98.7278 1188.61 103.378C1189.61 102.128 1191.21 101.378 1192.41 101.378C1195.51 101.378 1197.71 103.228 1197.71 107.178C1197.71 110.978 1195.06 113.378 1191.91 113.378ZM1202.31 118.078L1200.03 117.103C1202.13 113.453 1203.08 109.253 1203.08 105.128C1203.08 101.053 1202.13 96.8278 1200.03 93.1778L1202.31 92.2028C1204.68 96.0528 1206.06 100.153 1206.06 105.128C1206.06 110.153 1204.68 114.203 1202.31 118.078Z" fill="#2F3B53"/>
<path d="M907.241 30.1574L906.066 34.4598C902.971 45.7949 899.829 57.1395 896.816 68.4972C896.33 70.276 895.823 71.4043 893.653 71.0562C891.373 70.7006 888.193 72.0994 886.967 70.4088C885.923 68.9457 887.87 66.2098 888.442 64.0323C890.496 56.347 892.633 48.6844 894.457 42.0032C891.79 47.2984 888.654 53.577 885.498 59.8499C884.14 62.5464 882.637 65.2034 881.516 68.0089C880.554 70.3914 879.13 71.1359 876.597 70.9778C872.253 70.7029 872.27 70.8853 872.503 66.6148C872.915 58.6812 873.327 50.7476 873.718 42.8083C873.748 42.3721 874.014 41.8888 873.584 41.5935C872.2 46.6613 870.769 51.7384 869.421 56.8381C868.564 60.1382 867.852 63.4778 867.037 66.7892C866.005 70.9751 865.984 70.9694 861.51 70.9258C857.967 70.8917 856.652 69.1992 857.567 65.8483C860.611 54.6993 863.703 43.5409 866.664 32.3694C867.173 30.5078 867.814 29.7049 869.905 29.8536C873.107 30.0832 876.331 29.9857 879.544 29.9296C881.307 29.8996 882.004 30.3566 881.856 32.3612C881.379 38.4989 881.167 44.6424 880.867 50.7839C880.818 51.6151 880.857 52.4481 880.843 54.0446C884.744 46.2636 888.391 39.1689 891.853 32.0235C892.603 30.4947 893.462 29.9513 895.087 30.0173C899.05 30.1436 903.005 30.1345 907.25 30.2044L907.241 30.1574Z" fill="#AA3542"/>
<path d="M932.358 49.5075C930.619 55.8783 928.796 62.2266 927.202 68.6369C926.74 70.4892 926.198 71.497 924.115 71.2392C921.73 70.9438 918.428 72.2204 917.174 70.6332C916.29 69.4804 918.013 66.2612 918.634 63.9859C921.48 53.5609 924.389 43.1528 927.112 32.6939C927.616 30.7646 928.408 29.9805 930.367 30.2044C932.975 30.4942 936.326 29.1199 938.049 30.7015C939.771 32.2831 938.86 35.7017 939.104 38.3024C939.543 42.9565 939.847 47.6182 940.092 50.9523C941.566 45.5536 943.437 39.1076 945.039 32.5881C945.501 30.7359 946.17 30.0741 948.023 30.2021C950.373 30.3771 953.906 29.4748 954.785 30.6483C956.022 32.2975 954.104 35.1745 953.472 37.4911C950.664 48.0158 947.707 58.5217 944.941 69.0577C944.444 70.8779 943.698 71.4965 941.871 71.3535C939.261 71.1521 935.894 72.0995 934.181 70.8094C932.402 69.4347 933.379 65.8562 933.088 63.2649C932.609 58.7556 932.313 54.2293 931.922 49.7218C931.92 49.5657 931.731 49.4473 931.62 49.2836L932.364 49.4868L932.358 49.5075Z" fill="#AA3542"/>
<path d="M1103.75 51.2095C1102.15 57.084 1100.33 63.3232 1098.79 69.6357C1098.3 71.5914 1097.57 72.3717 1095.58 72.0951C1093.34 71.7922 1090.2 73.0462 1089.06 71.5812C1087.91 70.1106 1089.73 67.3409 1090.33 65.169C1093.16 54.6293 1096.12 44.1234 1098.87 33.5611C1099.39 31.6581 1100.14 30.8627 1102.11 31.0246C1104.1 31.1658 1106.09 31.1979 1108.06 31.027C1109.86 30.8729 1110.3 31.6157 1110.41 33.2461C1110.8 39.3764 1111.3 45.5142 1111.78 51.6464C1111.8 51.9849 1111.66 52.4137 1111.66 52.4137C1113.4 46.0428 1115.23 39.6739 1116.85 33.2692C1117.27 31.5617 1117.97 30.9525 1119.67 31.0617C1122.02 31.2368 1124.38 31.2144 1126.89 31.2785C1126.72 32.1435 1126.61 32.8901 1126.42 33.5933C1123.12 45.6731 1119.78 57.7416 1116.58 69.8496C1116.09 71.6699 1115.36 72.3148 1113.52 72.1924C1110.89 71.9854 1107.45 72.9573 1105.84 71.6277C1104.19 70.2661 1105.06 66.6595 1104.82 64.0381C1104.44 59.5776 1104.09 55.1021 1103.78 51.1738L1103.75 51.2095Z" fill="#AA3542"/>
<path d="M1057.79 51.1063C1056.44 55.1605 1055.74 59.2805 1054.06 63.1353C1051.22 69.649 1046.07 72.5558 1039.29 72.7489C1028.12 73.0771 1024.89 68.8628 1027.8 57.9865C1029.16 52.8454 1030.53 47.7307 1031.99 42.6178C1034.96 32.315 1045.54 27.0224 1055.66 30.7653C1059.07 32.0292 1060.85 34.7147 1060.68 38.4925C1060.49 42.9097 1058.61 46.9525 1057.79 51.1063ZM1047.27 51.2353C1047.27 51.2353 1047.25 51.2296 1047.23 51.224C1048.13 47.9351 1049.03 44.6463 1049.93 41.3368C1050.32 39.9095 1050.45 38.3676 1048.94 37.5551C1047.34 36.6937 1045.8 37.2747 1044.52 38.4592C1043.45 39.4558 1042.9 40.7495 1042.51 42.1561C1041.49 45.9 1040.46 49.6645 1039.44 53.4085C1038.72 56.0561 1037.93 58.7075 1037.39 61.4059C1037.11 62.7523 1037.05 64.3582 1038.75 65.0447C1040.43 65.7255 1041.9 65.2367 1043.07 63.8678C1044.02 62.749 1044.47 61.4064 1044.87 60.0469C1045.69 57.1153 1046.47 54.1932 1047.27 51.256L1047.27 51.2353Z" fill="#AA3542"/>
<path d="M829.295 49.8378C829.967 47.3763 830.645 44.8942 831.317 42.4327C833.932 32.8558 840.225 28.3507 850.197 28.9175C851.707 28.9966 853.231 29.1904 854.672 29.6061C858.561 30.7347 860.865 33.7643 860.181 37.7339C858.69 46.5286 856.521 55.2049 852.969 63.4147C850.374 69.4188 845.001 71.5301 838.843 71.7158C827.631 72.0327 824.402 67.839 827.326 56.9683C827.975 54.5896 828.625 52.2109 829.274 49.8322L829.295 49.8378ZM846.888 50.063C846.888 50.063 846.867 50.0573 846.846 50.0517C847.744 46.7628 848.642 43.474 849.546 40.1645C849.879 38.9441 849.982 37.5939 848.804 36.7833C847.513 35.8975 846.074 36.1268 844.758 36.8789C843.548 37.5708 842.837 38.7103 842.481 40.0135C840.636 46.6889 838.791 53.3644 837.008 60.0568C836.602 61.5461 836.467 63.1764 838.216 64.0096C840.042 64.8861 841.525 64.0907 842.736 62.6654C843.595 61.6331 844.084 60.4109 844.44 59.1078C845.244 56.0822 846.089 53.0679 846.914 50.0479L846.888 50.063Z" fill="#AA3542"/>
<path d="M969.748 68.0742C965.435 72.3199 960.813 73.1469 955.676 71.7888C952.494 70.9198 950.873 68.9659 950.706 65.6751C950.624 64.1858 950.762 62.6231 951.137 61.1695C952.95 54.2853 954.659 47.3729 956.777 40.594C959.822 30.8234 972.593 26.0199 981.515 31.079C983.666 32.3109 984.678 34.2986 984.797 36.7094C984.845 37.8339 984.732 38.9809 984.536 40.1054C983.782 44.4116 983.761 44.406 979.426 44.4226C979.047 44.4301 978.673 44.4169 978.284 44.3773C976.696 44.255 974.687 45.1067 973.63 44.0178C972.623 42.9872 974.033 41.2385 974.17 39.7643C974.375 37.7089 973.602 36.7198 971.463 36.8249C969.19 36.9375 967.631 38.0901 967.035 40.1943C965.003 47.3079 963.076 54.4497 961.148 61.5916C960.792 62.8947 960.934 64.2449 962.375 64.6606C964.374 65.2286 966.373 65.0633 967.72 63.1416C968.84 61.5583 969.204 59.6572 969.66 57.8257C970.102 56.1239 968.785 56.4754 967.947 56.5355C966.515 56.6558 966.273 56.0785 966.709 54.8863C966.732 54.8036 966.76 54.7001 966.783 54.6174C967.608 50.9456 969.898 49.1186 973.653 49.1364C975.826 49.1516 977.996 49.2552 980.19 49.1877C981.647 49.1408 982.265 49.3985 981.781 51.089C979.998 57.2924 978.319 63.5241 976.686 69.7464C976.342 71.0082 975.77 71.4745 974.536 71.3597C973.779 71.2863 973.02 71.3013 972.276 71.3426C970.199 71.4647 968.091 71.6225 969.739 68.0272L969.748 68.0742Z" fill="#AA3542"/>
<path d="M1089.26 52.741C1088.26 55.7365 1087.44 60.2909 1085.51 64.5876C1081.29 73.9481 1067.7 74.2611 1061.95 71.1786C1060.11 70.1874 1059.2 68.384 1058.93 66.2873C1058.66 64.1905 1058.87 62.1352 1059.42 60.1081C1061.02 54.2544 1062.57 48.3894 1064.21 42.5469C1067.01 32.5525 1078.07 27.1039 1087.71 30.9144C1091.64 32.4755 1093.4 35.8473 1092.6 40.3397C1092.54 40.7233 1092.46 41.0805 1092.36 41.4529C1091.46 44.7417 1090.56 48.0306 1089.27 52.7673L1089.26 52.741ZM1079.47 51.3148C1079.47 51.3148 1079.41 51.2979 1079.39 51.2923C1080.31 47.9207 1081.32 44.551 1082.12 41.1455C1082.41 39.9139 1082.52 38.3663 1081.04 37.6271C1079.62 36.9519 1078.22 37.3486 1077.03 38.2436C1075.41 39.447 1074.8 41.2597 1074.28 43.0949C1072.78 48.488 1071.33 53.8923 1069.86 59.2703C1069.64 60.0977 1069.52 60.9326 1069.42 61.7731C1069.25 63.127 1069.23 64.5882 1070.67 65.2483C1072.18 65.9254 1073.69 65.4272 1074.86 64.3028C1076.04 63.1577 1076.66 61.6364 1077.08 60.0851C1077.9 57.1742 1078.68 54.2314 1079.47 51.3148Z" fill="#AA3542"/>
<path d="M797.295 50.0796C798.662 45.5629 799.172 40.7678 801.498 36.5576C805.529 29.2787 817.958 26.0491 825.013 30.4649C828.126 32.4039 828.491 35.4597 828.019 38.7316C827.255 43.9686 827.203 43.9987 821.964 43.9908C821.876 43.9889 821.767 43.9814 821.679 43.9795C820.095 43.9248 818.061 44.4587 817.007 43.682C815.882 42.8414 817.326 40.9685 817.395 39.498C817.547 36.5833 816.189 35.4568 813.394 36.3385C811.348 37.0022 810.522 38.6438 809.982 40.5411C808.236 46.9326 806.465 53.3392 804.699 59.7251C804.27 61.2971 803.654 63.0628 805.715 63.8923C807.658 64.6672 809.49 64.0561 810.804 62.4146C812.194 60.6603 812.693 58.5072 813.186 56.3748C813.469 55.0961 813.935 54.4455 815.45 54.5923C817.701 54.8068 819.993 54.7882 822.255 54.7169C823.717 54.6494 823.694 55.221 823.466 56.3812C821.16 67.9985 811.172 74.1618 799.676 71.045C795.171 69.8149 793.19 66.4957 794.258 61.364C795.053 57.558 796.262 53.8649 797.284 50.121L797.295 50.0796Z" fill="#AA3542"/>
<path d="M996.844 60.5811C996.71 58.144 998.392 57.5142 1000.83 57.8472C1001.3 57.9093 1001.78 57.883 1002.25 57.8774C1003.66 57.9076 1005.42 57.4094 1006.41 58.0808C1007.72 58.9723 1006.21 60.6044 1006.2 61.9358C1006.2 64.3126 1007.56 65.5952 1010 65.0858C1012.08 64.6516 1013.2 63.2244 1013.76 61.2443C1014.29 59.4091 1013.93 57.8464 1012.41 56.6747C1010.97 55.5933 1009.46 54.6248 1008.02 53.5641C1001.04 48.5465 1000.31 41.3687 1006.08 34.876C1010.67 29.7258 1020.27 27.9909 1025.66 31.331C1028.93 33.3358 1030.36 39.0826 1028.49 42.2623C1028.05 43.0069 1027.5 42.9693 1026.82 42.9598C1025.58 42.9334 1024.36 43.001 1023.12 42.9953C1020.88 42.9838 1018.1 43.8035 1019.32 39.6007C1019.76 38.0757 1018.48 37.0602 1016.68 37.0582C1014.68 37.0467 1013.49 38.1655 1012.75 39.8089C1011.96 41.5916 1012.43 43.1881 1013.98 44.3447C1016.03 45.8605 1018.16 47.2635 1020.27 48.7079C1023.69 51.0643 1024.81 54.2142 1024.08 58.3286C1022.08 69.4946 1013.22 74.3868 1002.28 71.9996C996.87 70.8126 995.108 67.0196 996.817 60.5961L996.844 60.5811Z" fill="#AA3542"/>
<path d="M917.295 50.9956C915.646 57.0355 913.956 63.0641 912.389 69.1265C911.966 70.6779 911.385 71.3416 909.678 71.1647C907.516 70.9521 905.331 71.0666 903.158 71.0514C902.052 71.0381 901.4 70.9046 901.795 69.4566C905.282 56.8503 908.733 44.2121 912.137 31.5832C912.442 30.4663 912.968 30.1654 914.097 30.0959C923.179 29.5306 923.184 29.5099 920.814 38.1091C919.639 42.4115 918.465 46.7139 917.29 51.0162L917.295 50.9956Z" fill="#AA3542"/>
<defs>
<radialGradient id="paint0_radial_2859_2277" cx="0" cy="0" r="1" gradientUnits="userSpaceOnUse" gradientTransform="translate(819.5 68.5) scale(1100.5 78.5253)">
<stop stop-color="white"/>
<stop offset="1" stop-color="#D1D1D1"/>
</radialGradient>
</defs>
</svg>
