<svg width="337" height="146" viewBox="0 0 337 146" fill="none" xmlns="http://www.w3.org/2000/svg">
<rect x="5.5" y="5" width="326" height="136" rx="35" fill="white"/>
<rect x="5.5" y="5" width="326" height="136" rx="35" stroke="#3562BC" stroke-width="10"/>
<path d="M102.638 42.314C102.542 42.434 102.422 42.59 102.278 42.782C102.134 42.962 102.02 43.118 101.936 43.25C101.66 43.718 101.294 44.258 100.838 44.87C100.382 45.47 99.8782 46.07 99.3262 46.67C98.7742 47.258 98.2042 47.762 97.6162 48.182L95.7442 46.688C96.1042 46.472 96.4582 46.22 96.8062 45.932C97.1542 45.644 97.4722 45.344 97.7602 45.032C98.0602 44.708 98.3182 44.402 98.5342 44.114C98.7622 43.826 98.9362 43.568 99.0562 43.34C98.9002 43.34 98.6362 43.34 98.2642 43.34C97.8922 43.34 97.4482 43.34 96.9322 43.34C96.4162 43.34 95.8582 43.34 95.2582 43.34C94.6702 43.34 94.0822 43.34 93.4942 43.34C92.9062 43.34 92.3482 43.34 91.8202 43.34C91.3042 43.34 90.8542 43.34 90.4702 43.34C90.0982 43.34 89.8342 43.34 89.6782 43.34C89.3062 43.34 88.9522 43.352 88.6162 43.376C88.2802 43.4 87.9022 43.43 87.4822 43.466V40.964C87.8302 41.012 88.1902 41.054 88.5622 41.09C88.9342 41.126 89.3062 41.144 89.6782 41.144C89.8342 41.144 90.1102 41.144 90.5062 41.144C90.9022 41.144 91.3702 41.144 91.9102 41.144C92.4622 41.144 93.0442 41.144 93.6562 41.144C94.2802 41.144 94.8982 41.144 95.5102 41.144C96.1342 41.144 96.7102 41.144 97.2382 41.144C97.7782 41.144 98.2342 41.144 98.6062 41.144C98.9902 41.144 99.2482 41.144 99.3802 41.144C99.5482 41.144 99.7522 41.138 99.9922 41.126C100.232 41.114 100.466 41.096 100.694 41.072C100.934 41.048 101.108 41.018 101.216 40.982L102.638 42.314ZM95.2942 44.744C95.2942 45.632 95.2762 46.49 95.2402 47.318C95.2042 48.146 95.1022 48.944 94.9342 49.712C94.7782 50.468 94.5202 51.188 94.1602 51.872C93.8122 52.556 93.3262 53.204 92.7022 53.816C92.0782 54.428 91.2802 54.992 90.3082 55.508L88.2022 53.798C88.4902 53.702 88.7962 53.576 89.1202 53.42C89.4442 53.252 89.7682 53.048 90.0922 52.808C90.6682 52.412 91.1302 51.992 91.4782 51.548C91.8382 51.104 92.1142 50.624 92.3062 50.108C92.4982 49.58 92.6302 49.01 92.7022 48.398C92.7742 47.774 92.8102 47.096 92.8102 46.364C92.8102 46.088 92.8042 45.824 92.7922 45.572C92.7802 45.308 92.7442 45.032 92.6842 44.744H95.2942ZM103.668 47.498C105.288 47.078 106.752 46.592 108.06 46.04C109.38 45.476 110.538 44.888 111.534 44.276C112.158 43.892 112.782 43.454 113.406 42.962C114.042 42.458 114.636 41.942 115.188 41.414C115.752 40.886 116.226 40.382 116.61 39.902L118.554 41.756C118.002 42.296 117.396 42.842 116.736 43.394C116.088 43.946 115.41 44.474 114.702 44.978C113.994 45.482 113.292 45.944 112.596 46.364C111.912 46.76 111.144 47.168 110.292 47.588C109.452 48.008 108.564 48.404 107.628 48.776C106.692 49.148 105.75 49.478 104.802 49.766L103.668 47.498ZM111.156 45.428L113.712 44.834V52.934C113.712 53.198 113.718 53.486 113.73 53.798C113.742 54.11 113.76 54.398 113.784 54.662C113.808 54.938 113.838 55.148 113.874 55.292H111.03C111.054 55.148 111.072 54.938 111.084 54.662C111.108 54.398 111.126 54.11 111.138 53.798C111.15 53.486 111.156 53.198 111.156 52.934V45.428ZM123.378 41.72C123.714 41.756 124.092 41.786 124.512 41.81C124.932 41.822 125.292 41.828 125.592 41.828H134.664C134.928 41.828 135.216 41.828 135.528 41.828C135.852 41.816 136.092 41.804 136.248 41.792C136.236 41.996 136.224 42.26 136.212 42.584C136.2 42.896 136.194 43.184 136.194 43.448V52.772C136.194 53.084 136.2 53.45 136.212 53.87C136.236 54.29 136.254 54.632 136.266 54.896H133.656C133.668 54.632 133.674 54.344 133.674 54.032C133.686 53.708 133.692 53.384 133.692 53.06V44.15H125.61C125.226 44.15 124.818 44.156 124.386 44.168C123.966 44.18 123.63 44.198 123.378 44.222V41.72ZM123.144 51.494C123.456 51.518 123.804 51.542 124.188 51.566C124.584 51.59 124.986 51.602 125.394 51.602H135.114V53.96H125.466C125.118 53.96 124.716 53.972 124.26 53.996C123.816 54.02 123.444 54.044 123.144 54.068V51.494ZM142.89 40.82C143.202 41.036 143.568 41.3 143.988 41.612C144.408 41.924 144.84 42.266 145.284 42.638C145.74 42.998 146.166 43.352 146.562 43.7C146.958 44.048 147.282 44.36 147.534 44.636L145.698 46.508C145.47 46.256 145.17 45.956 144.798 45.608C144.426 45.26 144.024 44.9 143.592 44.528C143.16 44.156 142.734 43.802 142.314 43.466C141.894 43.13 141.522 42.848 141.198 42.62L142.89 40.82ZM140.64 52.808C141.576 52.676 142.458 52.49 143.286 52.25C144.114 52.01 144.882 51.734 145.59 51.422C146.298 51.11 146.946 50.786 147.534 50.45C148.554 49.838 149.49 49.142 150.342 48.362C151.194 47.582 151.938 46.772 152.574 45.932C153.21 45.08 153.714 44.252 154.086 43.448L155.49 45.986C155.034 46.79 154.47 47.594 153.798 48.398C153.138 49.202 152.388 49.97 151.548 50.702C150.708 51.422 149.802 52.07 148.83 52.646C148.218 53.018 147.558 53.372 146.85 53.708C146.142 54.032 145.392 54.32 144.6 54.572C143.82 54.836 143.004 55.04 142.152 55.184L140.64 52.808ZM165.3 40.064C165.24 40.388 165.144 40.808 165.012 41.324C164.88 41.84 164.688 42.422 164.436 43.07C164.244 43.514 164.022 43.976 163.77 44.456C163.53 44.924 163.284 45.344 163.032 45.716C163.188 45.644 163.386 45.584 163.626 45.536C163.866 45.476 164.112 45.434 164.364 45.41C164.628 45.374 164.862 45.356 165.066 45.356C165.822 45.356 166.446 45.572 166.938 46.004C167.442 46.436 167.694 47.078 167.694 47.93C167.694 48.17 167.694 48.464 167.694 48.812C167.706 49.16 167.718 49.526 167.73 49.91C167.742 50.282 167.754 50.648 167.766 51.008C167.778 51.368 167.784 51.692 167.784 51.98H165.624C165.648 51.776 165.66 51.536 165.66 51.26C165.672 50.972 165.678 50.672 165.678 50.36C165.69 50.048 165.696 49.748 165.696 49.46C165.708 49.16 165.714 48.89 165.714 48.65C165.714 48.074 165.558 47.678 165.246 47.462C164.946 47.234 164.61 47.12 164.238 47.12C163.734 47.12 163.224 47.246 162.708 47.498C162.204 47.738 161.778 48.026 161.43 48.362C161.166 48.626 160.896 48.92 160.62 49.244C160.356 49.568 160.068 49.934 159.756 50.342L157.83 48.902C158.61 48.182 159.282 47.486 159.846 46.814C160.422 46.142 160.908 45.476 161.304 44.816C161.7 44.156 162.024 43.496 162.276 42.836C162.456 42.356 162.6 41.858 162.708 41.342C162.828 40.814 162.9 40.322 162.924 39.866L165.3 40.064ZM158.532 41.72C158.988 41.792 159.516 41.846 160.116 41.882C160.716 41.918 161.244 41.936 161.7 41.936C162.492 41.936 163.356 41.918 164.292 41.882C165.24 41.846 166.2 41.786 167.172 41.702C168.144 41.606 169.068 41.486 169.944 41.342L169.926 43.43C169.29 43.514 168.6 43.592 167.856 43.664C167.124 43.724 166.374 43.778 165.606 43.826C164.85 43.862 164.124 43.892 163.428 43.916C162.732 43.928 162.114 43.934 161.574 43.934C161.334 43.934 161.034 43.934 160.674 43.934C160.326 43.922 159.966 43.91 159.594 43.898C159.222 43.874 158.868 43.85 158.532 43.826V41.72ZM172.788 46.832C172.596 46.892 172.368 46.97 172.104 47.066C171.852 47.15 171.594 47.24 171.33 47.336C171.078 47.42 170.85 47.504 170.646 47.588C170.07 47.816 169.386 48.092 168.594 48.416C167.814 48.74 166.998 49.118 166.146 49.55C165.606 49.838 165.15 50.12 164.778 50.396C164.406 50.672 164.124 50.954 163.932 51.242C163.74 51.518 163.644 51.824 163.644 52.16C163.644 52.412 163.698 52.622 163.806 52.79C163.914 52.946 164.076 53.072 164.292 53.168C164.508 53.264 164.778 53.33 165.102 53.366C165.426 53.402 165.81 53.42 166.254 53.42C167.022 53.42 167.868 53.378 168.792 53.294C169.716 53.198 170.574 53.072 171.366 52.916L171.294 55.238C170.91 55.286 170.424 55.334 169.836 55.382C169.248 55.442 168.636 55.484 168 55.508C167.376 55.532 166.776 55.544 166.2 55.544C165.264 55.544 164.424 55.454 163.68 55.274C162.936 55.094 162.348 54.788 161.916 54.356C161.496 53.912 161.286 53.306 161.286 52.538C161.286 51.914 161.424 51.35 161.7 50.846C161.988 50.342 162.366 49.886 162.834 49.478C163.302 49.07 163.812 48.704 164.364 48.38C164.928 48.044 165.48 47.738 166.02 47.462C166.572 47.174 167.07 46.928 167.514 46.724C167.958 46.52 168.372 46.34 168.756 46.184C169.152 46.016 169.53 45.848 169.89 45.68C170.238 45.524 170.574 45.374 170.898 45.23C171.222 45.074 171.552 44.912 171.888 44.744L172.788 46.832ZM43.5485 67.108C43.7165 67.348 43.9025 67.63 44.1065 67.954C44.3105 68.278 44.5025 68.602 44.6825 68.926C44.8745 69.25 45.0425 69.55 45.1865 69.826L43.6205 70.528C43.4525 70.144 43.2845 69.802 43.1165 69.502C42.9605 69.202 42.7985 68.914 42.6305 68.638C42.4625 68.35 42.2645 68.05 42.0365 67.738L43.5485 67.108ZM45.9065 66.118C46.0865 66.358 46.2785 66.634 46.4825 66.946C46.6985 67.258 46.9025 67.576 47.0945 67.9C47.2985 68.212 47.4665 68.506 47.5985 68.782L46.0865 69.52C45.8945 69.136 45.7085 68.8 45.5285 68.512C45.3605 68.212 45.1865 67.93 45.0065 67.666C44.8385 67.39 44.6405 67.108 44.4125 66.82L45.9065 66.118ZM36.3665 79.042C36.3665 78.802 36.3665 78.424 36.3665 77.908C36.3665 77.38 36.3665 76.774 36.3665 76.09C36.3665 75.394 36.3665 74.674 36.3665 73.93C36.3665 73.174 36.3665 72.448 36.3665 71.752C36.3665 71.044 36.3665 70.42 36.3665 69.88C36.3665 69.34 36.3665 68.944 36.3665 68.692C36.3665 68.368 36.3485 68.002 36.3125 67.594C36.2885 67.186 36.2465 66.826 36.1865 66.514H38.9945C38.9585 66.826 38.9225 67.174 38.8865 67.558C38.8505 67.942 38.8325 68.32 38.8325 68.692C38.8325 69.016 38.8325 69.466 38.8325 70.042C38.8325 70.618 38.8325 71.26 38.8325 71.968C38.8325 72.664 38.8325 73.378 38.8325 74.11C38.8325 74.842 38.8325 75.544 38.8325 76.216C38.8325 76.876 38.8325 77.458 38.8325 77.962C38.8325 78.454 38.8325 78.814 38.8325 79.042C38.8325 79.198 38.8385 79.432 38.8505 79.744C38.8745 80.044 38.8985 80.356 38.9225 80.68C38.9585 81.004 38.9885 81.292 39.0125 81.544H36.1865C36.2465 81.196 36.2885 80.782 36.3125 80.302C36.3485 79.81 36.3665 79.39 36.3665 79.042ZM38.3105 71.176C38.9105 71.332 39.5765 71.536 40.3085 71.788C41.0525 72.028 41.8025 72.292 42.5585 72.58C43.3145 72.856 44.0285 73.132 44.7005 73.408C45.3725 73.672 45.9245 73.912 46.3565 74.128L45.3485 76.63C44.8325 76.354 44.2685 76.084 43.6565 75.82C43.0445 75.556 42.4205 75.298 41.7845 75.046C41.1605 74.782 40.5485 74.542 39.9485 74.326C39.3485 74.11 38.8025 73.924 38.3105 73.768V71.176ZM53.2865 66.694C53.5385 66.73 53.8385 66.754 54.1865 66.766C54.5345 66.778 54.8585 66.784 55.1585 66.784C55.3865 66.784 55.7345 66.784 56.2025 66.784C56.6825 66.784 57.2105 66.784 57.7865 66.784C58.3745 66.784 58.9565 66.784 59.5325 66.784C60.1085 66.784 60.6245 66.784 61.0805 66.784C61.5365 66.784 61.8725 66.784 62.0885 66.784C62.3645 66.784 62.6945 66.778 63.0785 66.766C63.4625 66.754 63.7805 66.73 64.0325 66.694V69.016C63.7925 68.992 63.4805 68.98 63.0965 68.98C62.7245 68.968 62.3765 68.962 62.0525 68.962C61.8605 68.962 61.5305 68.962 61.0625 68.962C60.6065 68.962 60.0845 68.962 59.4965 68.962C58.9205 68.962 58.3385 68.962 57.7505 68.962C57.1745 68.962 56.6525 68.962 56.1845 68.962C55.7165 68.962 55.3745 68.962 55.1585 68.962C54.8705 68.962 54.5525 68.968 54.2045 68.98C53.8685 68.992 53.5625 69.004 53.2865 69.016V66.694ZM65.5445 71.914C65.4845 72.034 65.4185 72.166 65.3465 72.31C65.2865 72.454 65.2385 72.574 65.2025 72.67C64.9265 73.534 64.5785 74.398 64.1585 75.262C63.7505 76.114 63.2105 76.912 62.5385 77.656C61.6385 78.664 60.6305 79.486 59.5145 80.122C58.3985 80.746 57.2645 81.22 56.1125 81.544L54.3305 79.51C55.6865 79.222 56.8925 78.802 57.9485 78.25C59.0045 77.698 59.8745 77.068 60.5585 76.36C61.0385 75.868 61.4225 75.352 61.7105 74.812C62.0105 74.26 62.2445 73.738 62.4125 73.246C62.2805 73.246 62.0525 73.246 61.7285 73.246C61.4045 73.246 61.0145 73.246 60.5585 73.246C60.1145 73.246 59.6345 73.246 59.1185 73.246C58.6025 73.246 58.0745 73.246 57.5345 73.246C56.9945 73.246 56.4785 73.246 55.9865 73.246C55.4945 73.246 55.0505 73.246 54.6545 73.246C54.2705 73.246 53.9585 73.246 53.7185 73.246C53.5025 73.246 53.1965 73.252 52.8005 73.264C52.4045 73.276 52.0145 73.3 51.6305 73.336V70.996C52.0145 71.02 52.3865 71.044 52.7465 71.068C53.1185 71.092 53.4425 71.104 53.7185 71.104C53.8985 71.104 54.1685 71.104 54.5285 71.104C54.9005 71.104 55.3265 71.104 55.8065 71.104C56.2865 71.104 56.7965 71.104 57.3365 71.104C57.8885 71.104 58.4345 71.104 58.9745 71.104C59.5265 71.104 60.0485 71.104 60.5405 71.104C61.0325 71.104 61.4585 71.104 61.8185 71.104C62.1785 71.104 62.4485 71.104 62.6285 71.104C62.9165 71.104 63.1745 71.086 63.4025 71.05C63.6425 71.014 63.8225 70.972 63.9425 70.924L65.5445 71.914ZM76.3625 69.808C76.4465 70 76.5545 70.276 76.6865 70.636C76.8305 70.984 76.9805 71.362 77.1365 71.77C77.2925 72.166 77.4305 72.544 77.5505 72.904C77.6705 73.264 77.7665 73.546 77.8385 73.75L75.6785 74.506C75.6305 74.278 75.5465 73.99 75.4265 73.642C75.3065 73.294 75.1745 72.928 75.0305 72.544C74.8865 72.148 74.7425 71.77 74.5985 71.41C74.4545 71.05 74.3285 70.75 74.2205 70.51L76.3625 69.808ZM83.0045 71.122C82.9085 71.41 82.8245 71.656 82.7525 71.86C82.6925 72.064 82.6325 72.256 82.5725 72.436C82.3445 73.348 82.0325 74.26 81.6365 75.172C81.2405 76.072 80.7365 76.918 80.1245 77.71C79.2845 78.79 78.3305 79.708 77.2625 80.464C76.2065 81.208 75.1505 81.778 74.0945 82.174L72.2045 80.248C72.8645 80.068 73.5605 79.804 74.2925 79.456C75.0245 79.096 75.7325 78.664 76.4165 78.16C77.1005 77.656 77.6885 77.098 78.1805 76.486C78.5885 75.97 78.9485 75.382 79.2605 74.722C79.5845 74.05 79.8485 73.336 80.0525 72.58C80.2685 71.812 80.4125 71.056 80.4845 70.312L83.0045 71.122ZM72.1865 70.762C72.3065 70.99 72.4385 71.284 72.5825 71.644C72.7385 72.004 72.8945 72.382 73.0505 72.778C73.2065 73.174 73.3565 73.558 73.5005 73.93C73.6565 74.302 73.7765 74.614 73.8605 74.866L71.6645 75.694C71.5925 75.454 71.4845 75.142 71.3405 74.758C71.2085 74.374 71.0585 73.972 70.8905 73.552C70.7225 73.12 70.5605 72.724 70.4045 72.364C70.2605 72.004 70.1345 71.728 70.0265 71.536L72.1865 70.762ZM101.454 69.304C101.358 69.472 101.256 69.676 101.148 69.916C101.04 70.144 100.944 70.372 100.86 70.6C100.704 71.128 100.482 71.734 100.194 72.418C99.9185 73.09 99.5705 73.792 99.1505 74.524C98.7425 75.244 98.2685 75.94 97.7285 76.612C96.8645 77.644 95.8565 78.58 94.7045 79.42C93.5645 80.26 92.1485 81.016 90.4565 81.688L88.3325 79.78C89.5565 79.42 90.6125 79.006 91.5005 78.538C92.3885 78.07 93.1625 77.572 93.8225 77.044C94.4825 76.504 95.0705 75.934 95.5865 75.334C96.0065 74.866 96.3905 74.338 96.7385 73.75C97.0865 73.15 97.3865 72.556 97.6385 71.968C97.8905 71.38 98.0585 70.864 98.1425 70.42H92.0765L92.9045 68.386C93.0725 68.386 93.3305 68.386 93.6785 68.386C94.0385 68.386 94.4405 68.386 94.8845 68.386C95.3405 68.386 95.7845 68.386 96.2165 68.386C96.6605 68.386 97.0445 68.386 97.3685 68.386C97.7045 68.386 97.9325 68.386 98.0525 68.386C98.3285 68.386 98.6045 68.368 98.8805 68.332C99.1685 68.296 99.4145 68.242 99.6185 68.17L101.454 69.304ZM95.5865 66.46C95.3705 66.772 95.1605 67.108 94.9565 67.468C94.7525 67.828 94.5965 68.104 94.4885 68.296C94.0805 69.016 93.5765 69.766 92.9765 70.546C92.3885 71.314 91.7165 72.064 90.9605 72.796C90.2045 73.516 89.4005 74.176 88.5485 74.776L86.5145 73.282C87.3065 72.79 88.0025 72.286 88.6025 71.77C89.2145 71.254 89.7425 70.744 90.1865 70.24C90.6305 69.724 91.0085 69.232 91.3205 68.764C91.6445 68.284 91.9205 67.858 92.1485 67.486C92.2925 67.258 92.4425 66.964 92.5985 66.604C92.7545 66.232 92.8745 65.896 92.9585 65.596L95.5865 66.46ZM111.03 80.716C110.034 80.716 109.188 80.56 108.492 80.248C107.808 79.936 107.292 79.498 106.944 78.934C106.596 78.37 106.422 77.728 106.422 77.008C106.422 76.348 106.572 75.778 106.872 75.298C107.184 74.818 107.574 74.392 108.042 74.02C108.522 73.648 109.032 73.312 109.572 73.012C110.112 72.712 110.616 72.418 111.084 72.13C111.564 71.83 111.954 71.506 112.254 71.158C112.566 70.81 112.722 70.414 112.722 69.97C112.722 69.574 112.608 69.256 112.38 69.016C112.164 68.776 111.864 68.656 111.48 68.656C111.048 68.656 110.706 68.794 110.454 69.07C110.202 69.334 110.076 69.718 110.076 70.222C110.076 70.63 110.202 71.062 110.454 71.518C110.706 71.974 111.048 72.442 111.48 72.922C111.912 73.39 112.392 73.858 112.92 74.326C113.448 74.782 113.982 75.232 114.522 75.676C115.074 76.108 115.59 76.51 116.07 76.882C116.598 77.302 117.102 77.668 117.582 77.98C118.062 78.28 118.446 78.508 118.734 78.664L117.564 80.716C117.084 80.44 116.598 80.146 116.106 79.834C115.626 79.522 115.062 79.09 114.414 78.538C113.67 77.914 112.914 77.272 112.146 76.612C111.39 75.94 110.694 75.262 110.058 74.578C109.422 73.882 108.912 73.18 108.528 72.472C108.144 71.752 107.952 71.032 107.952 70.312C107.952 69.604 108.102 68.998 108.402 68.494C108.702 67.99 109.11 67.6 109.626 67.324C110.154 67.048 110.748 66.91 111.408 66.91C112.428 66.91 113.238 67.174 113.838 67.702C114.438 68.23 114.738 68.956 114.738 69.88C114.738 70.504 114.594 71.05 114.306 71.518C114.03 71.986 113.664 72.4 113.208 72.76C112.752 73.12 112.266 73.456 111.75 73.768C111.246 74.08 110.766 74.392 110.31 74.704C109.866 75.004 109.5 75.334 109.212 75.694C108.924 76.054 108.78 76.468 108.78 76.936C108.78 77.512 109.014 77.95 109.482 78.25C109.95 78.55 110.544 78.7 111.264 78.7C111.828 78.7 112.374 78.52 112.902 78.16C113.442 77.788 113.934 77.308 114.378 76.72C114.774 76.216 115.098 75.67 115.35 75.082C115.614 74.482 115.794 73.81 115.89 73.066H118.23C118.05 73.978 117.786 74.83 117.438 75.622C117.09 76.414 116.652 77.188 116.124 77.944C115.512 78.796 114.81 79.474 114.018 79.978C113.226 80.47 112.23 80.716 111.03 80.716ZM133.548 67.108C133.716 67.348 133.902 67.63 134.106 67.954C134.31 68.278 134.502 68.602 134.682 68.926C134.874 69.25 135.042 69.55 135.186 69.826L133.62 70.528C133.452 70.144 133.284 69.802 133.116 69.502C132.96 69.202 132.798 68.914 132.63 68.638C132.462 68.35 132.264 68.05 132.036 67.738L133.548 67.108ZM135.906 66.118C136.086 66.358 136.278 66.634 136.482 66.946C136.698 67.258 136.902 67.576 137.094 67.9C137.298 68.212 137.466 68.506 137.598 68.782L136.086 69.52C135.894 69.136 135.708 68.8 135.528 68.512C135.36 68.212 135.186 67.93 135.006 67.666C134.838 67.39 134.64 67.108 134.412 66.82L135.906 66.118ZM126.366 79.042C126.366 78.802 126.366 78.424 126.366 77.908C126.366 77.38 126.366 76.774 126.366 76.09C126.366 75.394 126.366 74.674 126.366 73.93C126.366 73.174 126.366 72.448 126.366 71.752C126.366 71.044 126.366 70.42 126.366 69.88C126.366 69.34 126.366 68.944 126.366 68.692C126.366 68.368 126.348 68.002 126.312 67.594C126.288 67.186 126.246 66.826 126.186 66.514H128.994C128.958 66.826 128.922 67.174 128.886 67.558C128.85 67.942 128.832 68.32 128.832 68.692C128.832 69.016 128.832 69.466 128.832 70.042C128.832 70.618 128.832 71.26 128.832 71.968C128.832 72.664 128.832 73.378 128.832 74.11C128.832 74.842 128.832 75.544 128.832 76.216C128.832 76.876 128.832 77.458 128.832 77.962C128.832 78.454 128.832 78.814 128.832 79.042C128.832 79.198 128.838 79.432 128.85 79.744C128.874 80.044 128.898 80.356 128.922 80.68C128.958 81.004 128.988 81.292 129.012 81.544H126.186C126.246 81.196 126.288 80.782 126.312 80.302C126.348 79.81 126.366 79.39 126.366 79.042ZM128.31 71.176C128.91 71.332 129.576 71.536 130.308 71.788C131.052 72.028 131.802 72.292 132.558 72.58C133.314 72.856 134.028 73.132 134.7 73.408C135.372 73.672 135.924 73.912 136.356 74.128L135.348 76.63C134.832 76.354 134.268 76.084 133.656 75.82C133.044 75.556 132.42 75.298 131.784 75.046C131.16 74.782 130.548 74.542 129.948 74.326C129.348 74.11 128.802 73.924 128.31 73.768V71.176ZM141.54 67.738C141.912 67.75 142.26 67.762 142.584 67.774C142.92 67.774 143.208 67.774 143.448 67.774C143.64 67.774 143.934 67.774 144.33 67.774C144.738 67.774 145.212 67.774 145.752 67.774C146.292 67.774 146.868 67.774 147.48 67.774C148.092 67.774 148.704 67.774 149.316 67.774C149.94 67.774 150.522 67.774 151.062 67.774C151.602 67.774 152.07 67.774 152.466 67.774C152.874 67.774 153.168 67.774 153.348 67.774C153.576 67.774 153.846 67.774 154.158 67.774C154.482 67.762 154.806 67.75 155.13 67.738C155.118 68.014 155.106 68.308 155.094 68.62C155.094 68.92 155.094 69.208 155.094 69.484C155.094 69.652 155.094 69.916 155.094 70.276C155.094 70.624 155.094 71.044 155.094 71.536C155.094 72.016 155.094 72.532 155.094 73.084C155.094 73.624 155.094 74.17 155.094 74.722C155.094 75.274 155.094 75.796 155.094 76.288C155.094 76.768 155.094 77.188 155.094 77.548C155.094 77.896 155.094 78.148 155.094 78.304C155.094 78.484 155.094 78.712 155.094 78.988C155.106 79.252 155.112 79.522 155.112 79.798C155.112 80.062 155.112 80.296 155.112 80.5C155.124 80.692 155.13 80.794 155.13 80.806H152.646C152.646 80.782 152.646 80.638 152.646 80.374C152.658 80.098 152.664 79.774 152.664 79.402C152.676 79.03 152.682 78.682 152.682 78.358C152.682 78.202 152.682 77.938 152.682 77.566C152.682 77.194 152.682 76.756 152.682 76.252C152.682 75.748 152.682 75.214 152.682 74.65C152.682 74.086 152.682 73.534 152.682 72.994C152.682 72.454 152.682 71.962 152.682 71.518C152.682 71.074 152.682 70.72 152.682 70.456C152.682 70.192 152.682 70.06 152.682 70.06H143.988C143.988 70.06 143.988 70.192 143.988 70.456C143.988 70.72 143.988 71.074 143.988 71.518C143.988 71.95 143.988 72.442 143.988 72.994C143.988 73.534 143.988 74.086 143.988 74.65C143.988 75.202 143.988 75.736 143.988 76.252C143.988 76.756 143.988 77.194 143.988 77.566C143.988 77.938 143.988 78.202 143.988 78.358C143.988 78.574 143.988 78.82 143.988 79.096C143.988 79.36 143.988 79.618 143.988 79.87C144 80.122 144.006 80.332 144.006 80.5C144.006 80.68 144.006 80.782 144.006 80.806H141.522C141.522 80.782 141.522 80.68 141.522 80.5C141.534 80.32 141.54 80.098 141.54 79.834C141.552 79.57 141.558 79.3 141.558 79.024C141.57 78.748 141.576 78.502 141.576 78.286C141.576 78.13 141.576 77.878 141.576 77.53C141.576 77.17 141.576 76.744 141.576 76.252C141.576 75.76 141.576 75.244 141.576 74.704C141.576 74.152 141.576 73.6 141.576 73.048C141.576 72.496 141.576 71.98 141.576 71.5C141.576 71.008 141.576 70.588 141.576 70.24C141.576 69.892 141.576 69.64 141.576 69.484C141.576 69.232 141.576 68.944 141.576 68.62C141.576 68.284 141.564 67.99 141.54 67.738ZM153.582 77.53V79.834H142.764V77.53H153.582ZM166.362 69.808C166.446 70 166.554 70.276 166.686 70.636C166.83 70.984 166.98 71.362 167.136 71.77C167.292 72.166 167.43 72.544 167.55 72.904C167.67 73.264 167.766 73.546 167.838 73.75L165.678 74.506C165.63 74.278 165.546 73.99 165.426 73.642C165.306 73.294 165.174 72.928 165.03 72.544C164.886 72.148 164.742 71.77 164.598 71.41C164.454 71.05 164.328 70.75 164.22 70.51L166.362 69.808ZM173.004 71.122C172.908 71.41 172.824 71.656 172.752 71.86C172.692 72.064 172.632 72.256 172.572 72.436C172.344 73.348 172.032 74.26 171.636 75.172C171.24 76.072 170.736 76.918 170.124 77.71C169.284 78.79 168.33 79.708 167.262 80.464C166.206 81.208 165.15 81.778 164.094 82.174L162.204 80.248C162.864 80.068 163.56 79.804 164.292 79.456C165.024 79.096 165.732 78.664 166.416 78.16C167.1 77.656 167.688 77.098 168.18 76.486C168.588 75.97 168.948 75.382 169.26 74.722C169.584 74.05 169.848 73.336 170.052 72.58C170.268 71.812 170.412 71.056 170.484 70.312L173.004 71.122ZM162.186 70.762C162.306 70.99 162.438 71.284 162.582 71.644C162.738 72.004 162.894 72.382 163.05 72.778C163.206 73.174 163.356 73.558 163.5 73.93C163.656 74.302 163.776 74.614 163.86 74.866L161.664 75.694C161.592 75.454 161.484 75.142 161.34 74.758C161.208 74.374 161.058 73.972 160.89 73.552C160.722 73.12 160.56 72.724 160.404 72.364C160.26 72.004 160.134 71.728 160.026 71.536L162.186 70.762ZM189.744 67.306C189.744 67.594 189.846 67.84 190.05 68.044C190.254 68.236 190.494 68.332 190.77 68.332C191.058 68.332 191.304 68.236 191.508 68.044C191.712 67.84 191.814 67.594 191.814 67.306C191.814 67.018 191.712 66.772 191.508 66.568C191.304 66.364 191.058 66.262 190.77 66.262C190.494 66.262 190.254 66.364 190.05 66.568C189.846 66.772 189.744 67.018 189.744 67.306ZM188.628 67.306C188.628 66.91 188.724 66.55 188.916 66.226C189.12 65.89 189.384 65.626 189.708 65.434C190.032 65.242 190.386 65.146 190.77 65.146C191.166 65.146 191.526 65.242 191.85 65.434C192.186 65.626 192.45 65.89 192.642 66.226C192.834 66.55 192.93 66.91 192.93 67.306C192.93 67.69 192.834 68.044 192.642 68.368C192.45 68.692 192.186 68.956 191.85 69.16C191.526 69.352 191.166 69.448 190.77 69.448C190.386 69.448 190.032 69.352 189.708 69.16C189.384 68.956 189.12 68.692 188.916 68.368C188.724 68.044 188.628 67.69 188.628 67.306ZM190.806 68.728C190.722 68.896 190.65 69.1 190.59 69.34C190.53 69.568 190.47 69.778 190.41 69.97C190.314 70.414 190.188 70.912 190.032 71.464C189.876 72.004 189.69 72.568 189.474 73.156C189.258 73.744 189 74.326 188.7 74.902C188.412 75.478 188.082 76.018 187.71 76.522C187.17 77.242 186.54 77.914 185.82 78.538C185.1 79.162 184.296 79.726 183.408 80.23C182.52 80.734 181.542 81.16 180.474 81.508L178.512 79.348C179.712 79.06 180.744 78.706 181.608 78.286C182.472 77.866 183.222 77.386 183.858 76.846C184.506 76.306 185.076 75.73 185.568 75.118C185.964 74.614 186.3 74.068 186.576 73.48C186.864 72.892 187.098 72.304 187.278 71.716C187.47 71.116 187.602 70.558 187.674 70.042C187.494 70.042 187.194 70.042 186.774 70.042C186.366 70.042 185.88 70.042 185.316 70.042C184.764 70.042 184.182 70.042 183.57 70.042C182.97 70.042 182.388 70.042 181.824 70.042C181.26 70.042 180.75 70.042 180.294 70.042C179.85 70.042 179.52 70.042 179.304 70.042C178.884 70.042 178.476 70.048 178.08 70.06C177.696 70.072 177.39 70.09 177.162 70.114V67.576C177.342 67.6 177.558 67.624 177.81 67.648C178.074 67.672 178.338 67.69 178.602 67.702C178.878 67.714 179.112 67.72 179.304 67.72C179.496 67.72 179.766 67.72 180.114 67.72C180.474 67.72 180.888 67.72 181.356 67.72C181.824 67.72 182.31 67.72 182.814 67.72C183.33 67.72 183.84 67.72 184.344 67.72C184.86 67.72 185.34 67.72 185.784 67.72C186.228 67.72 186.612 67.72 186.936 67.72C187.26 67.72 187.494 67.72 187.638 67.72C187.818 67.72 188.034 67.714 188.286 67.702C188.55 67.69 188.802 67.648 189.042 67.576L190.806 68.728ZM199.95 66.226C199.902 66.598 199.854 67 199.806 67.432C199.77 67.864 199.74 68.26 199.716 68.62C199.704 69.112 199.68 69.712 199.644 70.42C199.62 71.116 199.596 71.848 199.572 72.616C199.56 73.384 199.542 74.14 199.518 74.884C199.506 75.628 199.5 76.276 199.5 76.828C199.5 77.428 199.608 77.908 199.824 78.268C200.052 78.616 200.352 78.868 200.724 79.024C201.096 79.168 201.516 79.24 201.984 79.24C202.728 79.24 203.406 79.144 204.018 78.952C204.63 78.748 205.188 78.478 205.692 78.142C206.196 77.806 206.646 77.416 207.042 76.972C207.45 76.528 207.816 76.06 208.14 75.568L209.778 77.548C209.49 77.98 209.112 78.436 208.644 78.916C208.176 79.396 207.618 79.846 206.97 80.266C206.334 80.686 205.596 81.028 204.756 81.292C203.916 81.556 202.986 81.688 201.966 81.688C200.982 81.688 200.124 81.532 199.392 81.22C198.672 80.92 198.108 80.452 197.7 79.816C197.304 79.168 197.106 78.334 197.106 77.314C197.106 76.822 197.112 76.264 197.124 75.64C197.136 75.004 197.154 74.344 197.178 73.66C197.202 72.976 197.22 72.31 197.232 71.662C197.244 71.002 197.256 70.408 197.268 69.88C197.28 69.352 197.286 68.932 197.286 68.62C197.286 68.188 197.268 67.768 197.232 67.36C197.196 66.94 197.136 66.55 197.052 66.19L199.95 66.226ZM212.006 68.116C212.366 68.104 212.708 68.092 213.032 68.08C213.356 68.056 213.608 68.038 213.788 68.026C214.16 67.99 214.616 67.948 215.156 67.9C215.696 67.852 216.302 67.798 216.974 67.738C217.658 67.678 218.384 67.618 219.152 67.558C219.92 67.486 220.718 67.414 221.546 67.342C222.17 67.294 222.794 67.252 223.418 67.216C224.042 67.168 224.63 67.132 225.182 67.108C225.746 67.072 226.232 67.048 226.64 67.036L226.658 69.34C226.334 69.34 225.962 69.346 225.542 69.358C225.122 69.37 224.702 69.394 224.282 69.43C223.874 69.454 223.508 69.502 223.184 69.574C222.644 69.718 222.14 69.964 221.672 70.312C221.216 70.648 220.814 71.05 220.466 71.518C220.118 71.986 219.848 72.49 219.656 73.03C219.476 73.558 219.386 74.092 219.386 74.632C219.386 75.22 219.488 75.742 219.692 76.198C219.896 76.642 220.178 77.026 220.538 77.35C220.91 77.662 221.342 77.926 221.834 78.142C222.326 78.346 222.854 78.502 223.418 78.61C223.994 78.718 224.588 78.79 225.2 78.826L224.354 81.292C223.598 81.244 222.86 81.124 222.14 80.932C221.432 80.74 220.766 80.476 220.142 80.14C219.53 79.804 218.99 79.396 218.522 78.916C218.054 78.424 217.688 77.866 217.424 77.242C217.16 76.606 217.028 75.898 217.028 75.118C217.028 74.242 217.166 73.444 217.442 72.724C217.718 72.004 218.06 71.374 218.468 70.834C218.876 70.282 219.284 69.856 219.692 69.556C219.356 69.592 218.948 69.64 218.468 69.7C218 69.748 217.49 69.808 216.938 69.88C216.398 69.94 215.846 70.006 215.282 70.078C214.718 70.15 214.172 70.234 213.644 70.33C213.128 70.414 212.66 70.498 212.24 70.582L212.006 68.116ZM54.634 94.728H66.406V96.384H54.634V94.728ZM55.678 99.552H65.182V101.118H55.678V99.552ZM54.886 101.946H66.01V103.638H54.886V101.946ZM59.188 91.344H61.276V105.096H59.188V91.344ZM55.858 92.37H65.038V98.76H55.768V97.122H62.932V93.99H55.858V92.37ZM49.594 92.208H53.392V94.098H49.594V92.208ZM52.636 92.208H52.906L53.23 92.118L54.706 92.532C54.442 93.228 54.13 93.996 53.77 94.836C53.422 95.664 53.056 96.498 52.672 97.338C52.3 98.166 51.934 98.958 51.574 99.714L49.63 99.21C49.894 98.646 50.17 98.058 50.458 97.446C50.758 96.822 51.04 96.204 51.304 95.592C51.58 94.968 51.832 94.386 52.06 93.846C52.288 93.294 52.48 92.82 52.636 92.424V92.208ZM51.412 97.302H54.04V99.192H51.358L51.412 97.302ZM53.194 97.302H53.59L53.968 97.248L55.228 97.536C55 100.248 54.538 102.48 53.842 104.232C53.146 105.984 52.216 107.298 51.052 108.174C50.944 108.042 50.788 107.874 50.584 107.67C50.392 107.478 50.188 107.292 49.972 107.112C49.768 106.944 49.588 106.818 49.432 106.734C50.548 105.954 51.412 104.826 52.024 103.35C52.636 101.862 53.026 99.972 53.194 97.68V97.302ZM51.52 100.2C51.88 101.376 52.354 102.324 52.942 103.044C53.53 103.752 54.208 104.292 54.976 104.664C55.756 105.036 56.608 105.288 57.532 105.42C58.468 105.552 59.47 105.618 60.538 105.618C60.754 105.618 61.06 105.618 61.456 105.618C61.852 105.618 62.29 105.618 62.77 105.618C63.25 105.618 63.73 105.618 64.21 105.618C64.702 105.606 65.158 105.6 65.578 105.6C66.01 105.588 66.358 105.576 66.622 105.564C66.502 105.72 66.388 105.924 66.28 106.176C66.172 106.428 66.076 106.686 65.992 106.95C65.908 107.226 65.836 107.466 65.776 107.67H64.822H60.484C59.176 107.67 57.976 107.58 56.884 107.4C55.792 107.232 54.802 106.908 53.914 106.428C53.026 105.936 52.24 105.24 51.556 104.34C50.884 103.428 50.308 102.246 49.828 100.794L51.52 100.2ZM76.288 91.2L78.25 91.578C78.022 92.574 77.746 93.546 77.422 94.494C77.098 95.43 76.726 96.306 76.306 97.122C75.886 97.926 75.43 98.634 74.938 99.246C74.83 99.126 74.674 98.994 74.47 98.85C74.266 98.694 74.056 98.544 73.84 98.4C73.636 98.244 73.462 98.118 73.318 98.022C73.798 97.494 74.224 96.87 74.596 96.15C74.98 95.43 75.31 94.65 75.586 93.81C75.874 92.958 76.108 92.088 76.288 91.2ZM82.336 94.008H84.388C84.388 94.008 84.382 94.074 84.37 94.206C84.37 94.326 84.37 94.464 84.37 94.62C84.37 94.776 84.364 94.896 84.352 94.98C84.268 97.008 84.178 98.73 84.082 100.146C83.998 101.562 83.902 102.732 83.794 103.656C83.698 104.568 83.584 105.288 83.452 105.816C83.32 106.332 83.17 106.704 83.002 106.932C82.786 107.232 82.57 107.448 82.354 107.58C82.138 107.712 81.88 107.808 81.58 107.868C81.328 107.916 81.022 107.94 80.662 107.94C80.302 107.952 79.924 107.946 79.528 107.922C79.504 107.61 79.438 107.256 79.33 106.86C79.234 106.464 79.102 106.116 78.934 105.816C79.27 105.852 79.582 105.876 79.87 105.888C80.158 105.888 80.386 105.888 80.554 105.888C80.698 105.888 80.812 105.864 80.896 105.816C80.992 105.768 81.094 105.678 81.202 105.546C81.322 105.402 81.436 105.102 81.544 104.646C81.652 104.178 81.754 103.512 81.85 102.648C81.946 101.784 82.03 100.686 82.102 99.354C82.186 98.01 82.264 96.384 82.336 94.476V94.008ZM76.828 94.008H83.254V96.006H75.856L76.828 94.008ZM78.106 94.656L79.672 95.43C79.432 96.462 79.102 97.518 78.682 98.598C78.262 99.666 77.77 100.668 77.206 101.604C76.654 102.54 76.054 103.314 75.406 103.926C75.202 103.734 74.944 103.524 74.632 103.296C74.32 103.056 74.02 102.864 73.732 102.72C74.26 102.312 74.752 101.808 75.208 101.208C75.664 100.596 76.078 99.93 76.45 99.21C76.822 98.478 77.146 97.728 77.422 96.96C77.698 96.18 77.926 95.412 78.106 94.656ZM80.608 94.872L82.282 95.646C82.054 96.81 81.766 97.974 81.418 99.138C81.082 100.302 80.674 101.418 80.194 102.486C79.726 103.554 79.186 104.538 78.574 105.438C77.962 106.326 77.278 107.076 76.522 107.688C76.318 107.484 76.048 107.262 75.712 107.022C75.388 106.782 75.076 106.584 74.776 106.428C75.556 105.864 76.258 105.168 76.882 104.34C77.518 103.5 78.076 102.57 78.556 101.55C79.036 100.518 79.444 99.438 79.78 98.31C80.116 97.17 80.392 96.024 80.608 94.872ZM67.486 101.028C68.074 100.884 68.74 100.716 69.484 100.524C70.24 100.332 71.032 100.122 71.86 99.894C72.7 99.654 73.534 99.42 74.362 99.192L74.632 101.082C73.504 101.442 72.352 101.802 71.176 102.162C70.012 102.51 68.956 102.822 68.008 103.098L67.486 101.028ZM70.708 91.218H72.688V108.12H70.708V91.218ZM68.332 92.244L70.15 92.532C70.066 93.324 69.964 94.122 69.844 94.926C69.724 95.718 69.58 96.468 69.412 97.176C69.244 97.884 69.052 98.508 68.836 99.048C68.728 98.964 68.578 98.862 68.386 98.742C68.194 98.61 68.002 98.484 67.81 98.364C67.618 98.232 67.45 98.136 67.306 98.076C67.498 97.584 67.66 97.026 67.792 96.402C67.936 95.766 68.05 95.094 68.134 94.386C68.23 93.666 68.296 92.952 68.332 92.244ZM68.836 94.692H74.2V96.744H68.422L68.836 94.692ZM93.748 92.064C93.688 92.388 93.592 92.808 93.46 93.324C93.328 93.84 93.136 94.422 92.884 95.07C92.692 95.514 92.47 95.976 92.218 96.456C91.978 96.924 91.732 97.344 91.48 97.716C91.636 97.644 91.834 97.584 92.074 97.536C92.314 97.476 92.56 97.434 92.812 97.41C93.076 97.374 93.31 97.356 93.514 97.356C94.27 97.356 94.894 97.572 95.386 98.004C95.89 98.436 96.142 99.078 96.142 99.93C96.142 100.17 96.142 100.464 96.142 100.812C96.154 101.16 96.166 101.526 96.178 101.91C96.19 102.282 96.202 102.648 96.214 103.008C96.226 103.368 96.232 103.692 96.232 103.98H94.072C94.096 103.776 94.108 103.536 94.108 103.26C94.12 102.972 94.126 102.672 94.126 102.36C94.138 102.048 94.144 101.748 94.144 101.46C94.156 101.16 94.162 100.89 94.162 100.65C94.162 100.074 94.006 99.678 93.694 99.462C93.394 99.234 93.058 99.12 92.686 99.12C92.182 99.12 91.672 99.246 91.156 99.498C90.652 99.738 90.226 100.026 89.878 100.362C89.614 100.626 89.344 100.92 89.068 101.244C88.804 101.568 88.516 101.934 88.204 102.342L86.278 100.902C87.058 100.182 87.73 99.486 88.294 98.814C88.87 98.142 89.356 97.476 89.752 96.816C90.148 96.156 90.472 95.496 90.724 94.836C90.904 94.356 91.048 93.858 91.156 93.342C91.276 92.814 91.348 92.322 91.372 91.866L93.748 92.064ZM86.98 93.72C87.436 93.792 87.964 93.846 88.564 93.882C89.164 93.918 89.692 93.936 90.148 93.936C90.94 93.936 91.804 93.918 92.74 93.882C93.688 93.846 94.648 93.786 95.62 93.702C96.592 93.606 97.516 93.486 98.392 93.342L98.374 95.43C97.738 95.514 97.048 95.592 96.304 95.664C95.572 95.724 94.822 95.778 94.054 95.826C93.298 95.862 92.572 95.892 91.876 95.916C91.18 95.928 90.562 95.934 90.022 95.934C89.782 95.934 89.482 95.934 89.122 95.934C88.774 95.922 88.414 95.91 88.042 95.898C87.67 95.874 87.316 95.85 86.98 95.826V93.72ZM101.236 98.832C101.044 98.892 100.816 98.97 100.552 99.066C100.3 99.15 100.042 99.24 99.778 99.336C99.526 99.42 99.298 99.504 99.094 99.588C98.518 99.816 97.834 100.092 97.042 100.416C96.262 100.74 95.446 101.118 94.594 101.55C94.054 101.838 93.598 102.12 93.226 102.396C92.854 102.672 92.572 102.954 92.38 103.242C92.188 103.518 92.092 103.824 92.092 104.16C92.092 104.412 92.146 104.622 92.254 104.79C92.362 104.946 92.524 105.072 92.74 105.168C92.956 105.264 93.226 105.33 93.55 105.366C93.874 105.402 94.258 105.42 94.702 105.42C95.47 105.42 96.316 105.378 97.24 105.294C98.164 105.198 99.022 105.072 99.814 104.916L99.742 107.238C99.358 107.286 98.872 107.334 98.284 107.382C97.696 107.442 97.084 107.484 96.448 107.508C95.824 107.532 95.224 107.544 94.648 107.544C93.712 107.544 92.872 107.454 92.128 107.274C91.384 107.094 90.796 106.788 90.364 106.356C89.944 105.912 89.734 105.306 89.734 104.538C89.734 103.914 89.872 103.35 90.148 102.846C90.436 102.342 90.814 101.886 91.282 101.478C91.75 101.07 92.26 100.704 92.812 100.38C93.376 100.044 93.928 99.738 94.468 99.462C95.02 99.174 95.518 98.928 95.962 98.724C96.406 98.52 96.82 98.34 97.204 98.184C97.6 98.016 97.978 97.848 98.338 97.68C98.686 97.524 99.022 97.374 99.346 97.23C99.67 97.074 100 96.912 100.336 96.744L101.236 98.832ZM115.456 99.516L117.022 100.164C116.65 100.536 116.212 100.884 115.708 101.208C115.204 101.532 114.67 101.814 114.106 102.054C113.554 102.294 112.996 102.51 112.432 102.702C112.3 102.498 112.126 102.282 111.91 102.054C111.694 101.826 111.484 101.628 111.28 101.46C111.796 101.328 112.312 101.166 112.828 100.974C113.356 100.77 113.848 100.548 114.304 100.308C114.772 100.056 115.156 99.792 115.456 99.516ZM117.202 101.154L118.768 101.802C118.288 102.318 117.712 102.786 117.04 103.206C116.38 103.614 115.654 103.974 114.862 104.286C114.082 104.598 113.278 104.862 112.45 105.078C112.33 104.874 112.174 104.64 111.982 104.376C111.79 104.112 111.598 103.89 111.406 103.71C112.162 103.554 112.906 103.356 113.638 103.116C114.382 102.876 115.066 102.588 115.69 102.252C116.314 101.916 116.818 101.55 117.202 101.154ZM118.516 103.206L120.37 103.962C119.746 104.694 118.984 105.324 118.084 105.852C117.184 106.368 116.182 106.806 115.078 107.166C113.986 107.526 112.822 107.82 111.586 108.048C111.478 107.784 111.322 107.49 111.118 107.166C110.914 106.842 110.704 106.566 110.488 106.338C111.604 106.182 112.678 105.972 113.71 105.708C114.742 105.432 115.672 105.09 116.5 104.682C117.328 104.262 118 103.77 118.516 103.206ZM112.99 91.182L114.952 91.668C114.556 92.736 114.034 93.756 113.386 94.728C112.75 95.688 112.072 96.492 111.352 97.14C111.244 97.02 111.088 96.882 110.884 96.726C110.692 96.558 110.494 96.402 110.29 96.258C110.086 96.102 109.906 95.976 109.75 95.88C110.446 95.328 111.076 94.638 111.64 93.81C112.216 92.982 112.666 92.106 112.99 91.182ZM112.972 93.036H120.244V94.746H111.946L112.972 93.036ZM117.256 93.468L119.272 93.9C118.804 95.064 118.174 96.066 117.382 96.906C116.59 97.746 115.672 98.46 114.628 99.048C113.596 99.636 112.468 100.116 111.244 100.488C111.16 100.344 111.04 100.17 110.884 99.966C110.74 99.762 110.584 99.558 110.416 99.354C110.248 99.138 110.098 98.97 109.966 98.85C111.154 98.574 112.228 98.202 113.188 97.734C114.16 97.254 114.994 96.666 115.69 95.97C116.386 95.262 116.908 94.428 117.256 93.468ZM112.972 94.026C113.344 94.686 113.89 95.328 114.61 95.952C115.33 96.576 116.206 97.128 117.238 97.608C118.282 98.076 119.476 98.418 120.82 98.634C120.688 98.766 120.55 98.934 120.406 99.138C120.262 99.342 120.118 99.552 119.974 99.768C119.842 99.984 119.734 100.182 119.65 100.362C118.294 100.05 117.088 99.612 116.032 99.048C114.988 98.472 114.094 97.824 113.35 97.104C112.618 96.372 112.042 95.622 111.622 94.854L112.972 94.026ZM108.4 93.522H110.272V105.096H108.4V93.522ZM106.762 91.272L108.742 91.848C108.406 92.904 107.998 93.966 107.518 95.034C107.05 96.102 106.534 97.116 105.97 98.076C105.418 99.024 104.836 99.858 104.224 100.578C104.176 100.398 104.086 100.164 103.954 99.876C103.834 99.576 103.702 99.276 103.558 98.976C103.426 98.664 103.3 98.418 103.18 98.238C103.672 97.662 104.14 97.002 104.584 96.258C105.028 95.514 105.436 94.716 105.808 93.864C106.18 93.012 106.498 92.148 106.762 91.272ZM105.358 96.186L107.338 94.188L107.41 94.224V108.102H105.358V96.186ZM132.286 93.63H134.266V101.748H132.286V93.63ZM134.95 91.182L137.002 91.704C136.762 92.064 136.522 92.412 136.282 92.748C136.054 93.072 135.85 93.354 135.67 93.594L134.14 93.126C134.284 92.838 134.434 92.514 134.59 92.154C134.746 91.782 134.866 91.458 134.95 91.182ZM135.634 98.796L137.434 99.336C137.218 99.684 137.002 100.02 136.786 100.344C136.582 100.656 136.396 100.926 136.228 101.154L134.842 100.65C134.974 100.386 135.118 100.08 135.274 99.732C135.43 99.372 135.55 99.06 135.634 98.796ZM129.82 91.776L131.44 91.218C131.644 91.494 131.824 91.8 131.98 92.136C132.148 92.472 132.274 92.772 132.358 93.036L130.648 93.702C130.588 93.426 130.48 93.108 130.324 92.748C130.168 92.388 130 92.064 129.82 91.776ZM129.334 99.408L130.918 98.94C131.074 99.192 131.218 99.48 131.35 99.804C131.494 100.128 131.59 100.404 131.638 100.632L129.964 101.172C129.928 100.932 129.85 100.65 129.73 100.326C129.61 99.99 129.478 99.684 129.334 99.408ZM128.578 93.198H138.118V94.764H128.578V93.198ZM128.308 97.572H138.208V99.12H128.308V97.572ZM128.02 100.776H138.424V102.342H128.02V100.776ZM130.216 105.96H136.39V107.526H130.216V105.96ZM129.19 95.394H137.506V96.906H129.19V95.394ZM129.226 103.008H137.524V108.066H135.508V104.574H131.152V108.102H129.226V103.008ZM124.222 91.218L126.058 91.866C125.818 92.334 125.566 92.814 125.302 93.306C125.05 93.786 124.798 94.248 124.546 94.692C124.306 95.136 124.072 95.532 123.844 95.88L122.422 95.304C122.638 94.932 122.854 94.512 123.07 94.044C123.298 93.576 123.514 93.09 123.718 92.586C123.934 92.082 124.102 91.626 124.222 91.218ZM126.166 93.36L127.858 94.116C127.438 94.8 126.982 95.514 126.49 96.258C126.01 97.002 125.524 97.716 125.032 98.4C124.552 99.072 124.096 99.672 123.664 100.2L122.44 99.534C122.764 99.126 123.094 98.67 123.43 98.166C123.778 97.65 124.114 97.116 124.438 96.564C124.774 96 125.086 95.442 125.374 94.89C125.674 94.338 125.938 93.828 126.166 93.36ZM121.45 95.358L122.494 93.954C122.806 94.23 123.118 94.542 123.43 94.89C123.754 95.226 124.048 95.562 124.312 95.898C124.588 96.234 124.798 96.54 124.942 96.816L123.808 98.418C123.676 98.13 123.478 97.806 123.214 97.446C122.962 97.086 122.68 96.726 122.368 96.366C122.056 95.994 121.75 95.658 121.45 95.358ZM125.626 97.572L127.03 96.996C127.258 97.416 127.468 97.866 127.66 98.346C127.852 98.814 128.02 99.276 128.164 99.732C128.32 100.176 128.428 100.584 128.488 100.956L126.958 101.604C126.922 101.244 126.832 100.836 126.688 100.38C126.556 99.912 126.394 99.432 126.202 98.94C126.022 98.448 125.83 97.992 125.626 97.572ZM121.396 99.102C122.164 99.066 123.064 99.018 124.096 98.958C125.14 98.886 126.202 98.82 127.282 98.76L127.318 100.524C126.322 100.608 125.32 100.686 124.312 100.758C123.316 100.83 122.416 100.902 121.612 100.974L121.396 99.102ZM125.914 102.162L127.336 101.712C127.552 102.228 127.744 102.792 127.912 103.404C128.08 104.004 128.194 104.532 128.254 104.988L126.742 105.474C126.694 105.018 126.592 104.484 126.436 103.872C126.292 103.248 126.118 102.678 125.914 102.162ZM122.17 101.784L123.826 102.072C123.742 102.936 123.604 103.782 123.412 104.61C123.232 105.438 123.01 106.14 122.746 106.716C122.638 106.644 122.488 106.566 122.296 106.482C122.116 106.386 121.93 106.296 121.738 106.212C121.546 106.116 121.378 106.044 121.234 105.996C121.498 105.456 121.702 104.808 121.846 104.052C121.99 103.296 122.098 102.54 122.17 101.784ZM124.006 100.074H125.824V108.12H124.006V100.074ZM145.678 92.226C145.63 92.598 145.582 93 145.534 93.432C145.498 93.864 145.468 94.26 145.444 94.62C145.432 95.112 145.408 95.712 145.372 96.42C145.348 97.116 145.324 97.848 145.3 98.616C145.288 99.384 145.27 100.14 145.246 100.884C145.234 101.628 145.228 102.276 145.228 102.828C145.228 103.428 145.336 103.908 145.552 104.268C145.78 104.616 146.08 104.868 146.452 105.024C146.824 105.168 147.244 105.24 147.712 105.24C148.456 105.24 149.134 105.144 149.746 104.952C150.358 104.748 150.916 104.478 151.42 104.142C151.924 103.806 152.374 103.416 152.77 102.972C153.178 102.528 153.544 102.06 153.868 101.568L155.506 103.548C155.218 103.98 154.84 104.436 154.372 104.916C153.904 105.396 153.346 105.846 152.698 106.266C152.062 106.686 151.324 107.028 150.484 107.292C149.644 107.556 148.714 107.688 147.694 107.688C146.71 107.688 145.852 107.532 145.12 107.22C144.4 106.92 143.836 106.452 143.428 105.816C143.032 105.168 142.834 104.334 142.834 103.314C142.834 102.822 142.84 102.264 142.852 101.64C142.864 101.004 142.882 100.344 142.906 99.66C142.93 98.976 142.948 98.31 142.96 97.662C142.972 97.002 142.984 96.408 142.996 95.88C143.008 95.352 143.014 94.932 143.014 94.62C143.014 94.188 142.996 93.768 142.96 93.36C142.924 92.94 142.864 92.55 142.78 92.19L145.678 92.226ZM167.26 92.064C167.236 92.232 167.212 92.442 167.188 92.694C167.164 92.934 167.146 93.186 167.134 93.45C167.122 93.702 167.11 93.942 167.098 94.17C167.086 94.602 167.08 95.07 167.08 95.574C167.092 96.078 167.098 96.588 167.098 97.104C167.098 97.608 167.11 98.202 167.134 98.886C167.17 99.558 167.212 100.254 167.26 100.974C167.308 101.694 167.344 102.366 167.368 102.99C167.404 103.602 167.422 104.1 167.422 104.484C167.422 104.88 167.362 105.264 167.242 105.636C167.122 106.008 166.918 106.338 166.63 106.626C166.342 106.926 165.952 107.16 165.46 107.328C164.968 107.508 164.344 107.598 163.588 107.598C162.736 107.598 161.95 107.49 161.23 107.274C160.522 107.07 159.958 106.728 159.538 106.248C159.118 105.768 158.908 105.12 158.908 104.304C158.908 103.68 159.088 103.116 159.448 102.612C159.808 102.096 160.348 101.688 161.068 101.388C161.8 101.088 162.718 100.938 163.822 100.938C164.758 100.938 165.664 101.046 166.54 101.262C167.428 101.478 168.256 101.76 169.024 102.108C169.804 102.444 170.506 102.828 171.13 103.26C171.766 103.68 172.312 104.106 172.768 104.538L171.382 106.68C170.938 106.236 170.428 105.792 169.852 105.348C169.288 104.904 168.67 104.502 167.998 104.142C167.326 103.782 166.606 103.494 165.838 103.278C165.082 103.05 164.296 102.936 163.48 102.936C162.784 102.936 162.232 103.05 161.824 103.278C161.428 103.494 161.23 103.8 161.23 104.196C161.23 104.64 161.434 104.952 161.842 105.132C162.25 105.312 162.772 105.402 163.408 105.402C163.972 105.402 164.374 105.27 164.614 105.006C164.854 104.73 164.974 104.292 164.974 103.692C164.974 103.38 164.962 102.948 164.938 102.396C164.914 101.832 164.89 101.226 164.866 100.578C164.842 99.918 164.818 99.282 164.794 98.67C164.77 98.058 164.758 97.536 164.758 97.104C164.758 96.744 164.758 96.39 164.758 96.042C164.758 95.694 164.758 95.358 164.758 95.034C164.758 94.71 164.752 94.422 164.74 94.17C164.728 93.87 164.71 93.588 164.686 93.324C164.674 93.06 164.656 92.82 164.632 92.604C164.62 92.388 164.59 92.208 164.542 92.064H167.26ZM165.874 95.502C166.138 95.502 166.516 95.502 167.008 95.502C167.5 95.49 168.04 95.472 168.628 95.448C169.228 95.424 169.828 95.394 170.428 95.358C171.04 95.31 171.604 95.262 172.12 95.214L172.192 97.356C171.688 97.404 171.13 97.446 170.518 97.482C169.906 97.518 169.3 97.548 168.7 97.572C168.1 97.584 167.548 97.596 167.044 97.608C166.552 97.62 166.168 97.626 165.892 97.626L165.874 95.502ZM187.33 100.614C187.33 100.218 187.228 99.858 187.024 99.534C186.832 99.21 186.538 98.952 186.142 98.76C185.758 98.556 185.278 98.454 184.702 98.454C184.054 98.454 183.424 98.508 182.812 98.616C182.212 98.724 181.672 98.85 181.192 98.994C180.724 99.126 180.334 99.24 180.022 99.336C179.758 99.408 179.464 99.51 179.14 99.642C178.828 99.762 178.54 99.87 178.276 99.966L177.592 97.392C177.904 97.368 178.24 97.326 178.6 97.266C178.96 97.206 179.284 97.146 179.572 97.086C180.016 96.978 180.52 96.864 181.084 96.744C181.66 96.612 182.284 96.498 182.956 96.402C183.628 96.306 184.312 96.258 185.008 96.258C185.968 96.258 186.808 96.438 187.528 96.798C188.26 97.146 188.83 97.65 189.238 98.31C189.646 98.97 189.85 99.768 189.85 100.704C189.85 101.664 189.64 102.534 189.22 103.314C188.8 104.094 188.206 104.778 187.438 105.366C186.67 105.942 185.764 106.422 184.72 106.806C183.676 107.19 182.53 107.466 181.282 107.634L179.986 105.402C181.102 105.27 182.11 105.078 183.01 104.826C183.922 104.574 184.696 104.256 185.332 103.872C185.98 103.476 186.472 103.014 186.808 102.486C187.156 101.946 187.33 101.322 187.33 100.614ZM180.256 91.974C180.772 92.082 181.39 92.184 182.11 92.28C182.842 92.376 183.592 92.46 184.36 92.532C185.14 92.604 185.878 92.664 186.574 92.712C187.282 92.748 187.87 92.772 188.338 92.784L187.978 94.998C187.45 94.962 186.832 94.914 186.124 94.854C185.416 94.794 184.684 94.728 183.928 94.656C183.172 94.572 182.44 94.488 181.732 94.404C181.036 94.308 180.424 94.218 179.896 94.134L180.256 91.974ZM201.082 101.874L200.596 95.718L200.506 93.036H203.494L203.404 95.718L202.918 101.874H201.082ZM202 106.662C201.544 106.662 201.166 106.512 200.866 106.212C200.566 105.912 200.416 105.534 200.416 105.078C200.416 104.61 200.566 104.226 200.866 103.926C201.166 103.626 201.544 103.476 202 103.476C202.456 103.476 202.834 103.626 203.134 103.926C203.434 104.226 203.584 104.61 203.584 105.078C203.584 105.534 203.434 105.912 203.134 106.212C202.834 106.512 202.456 106.662 202 106.662Z" fill="#2F3B53"/>
<g clip-path="url(#clip0_4338_2242)">
<path d="M265.08 49.3101H251.73C245.804 49.3101 241 54.114 241 60.0401V73.3901C241 79.3161 245.804 84.1201 251.73 84.1201H265.08C271.006 84.1201 275.81 79.3161 275.81 73.3901V60.0401C275.81 54.114 271.006 49.3101 265.08 49.3101Z" stroke="#2F3B53" stroke-width="2" stroke-miterlimit="10" stroke-dasharray="3.02 3.02"/>
<path d="M290.68 37.5601H277.33C271.404 37.5601 266.6 42.364 266.6 48.2901V61.6401C266.6 67.5661 271.404 72.3701 277.33 72.3701H290.68C296.606 72.3701 301.41 67.5661 301.41 61.6401V48.2901C301.41 42.364 296.606 37.5601 290.68 37.5601Z" stroke="#2F3B53" stroke-width="2" stroke-miterlimit="10"/>
<path d="M272.253 97.1409C272.172 95.5792 271.229 94.7797 270.612 93.8429C266.414 87.4817 262.148 81.1639 257.958 74.7967C256.689 72.8674 256.606 71.0324 258.687 69.4677C260.855 67.8386 262.734 68.3568 264.207 70.3138C266.076 72.7944 267.711 75.4577 269.438 78.0473C270.135 79.0916 270.638 80.4629 272.155 78.7847C272.769 78.1044 273.883 77.8609 274.84 78.2199C275.982 78.6475 276.746 78.4705 277.561 77.489C278.244 76.6672 279.394 76.2759 280.46 76.6012C281.721 76.9861 282.471 76.6622 283.499 75.8052C285.452 74.1739 287.578 74.6209 289.015 76.698C291.64 80.4876 294.319 84.274 296.534 88.31C299.361 93.458 297.825 99.8653 293.501 103.778C286.961 109.696 279.91 111.625 271.692 107.239C269.074 105.841 266.194 104.963 263.488 103.723C260.478 102.344 260.266 99.858 262.867 97.8184C264.466 96.5642 266.232 96.1018 268.226 96.4569C269.531 96.6892 270.84 96.9027 272.252 97.1438L272.253 97.1409ZM266.799 84.5268C269.124 88.0107 271.447 91.4929 273.771 94.9767C274.512 96.0863 275.154 97.2626 274.232 98.5251C273.38 99.688 272.143 99.2634 271.002 99.0613C269.851 98.8575 268.708 98.6124 267.555 98.434C266.225 98.229 265.053 98.6175 264.006 99.4569C262.873 100.362 262.789 101.277 264.208 101.837C269.146 103.78 273.828 106.484 279.069 107.528C285.21 108.752 294.368 102.478 295.672 96.3214C296.102 94.2908 296.165 92.1822 295.292 90.3059C293.196 85.804 290.04 81.9579 287.321 77.8447C286.718 76.9321 285.78 76.6781 284.823 77.3203C284.024 77.8571 283.833 78.6234 284.209 79.5681C284.531 80.3779 285.579 81.4189 284.184 81.9876C283.233 82.3766 282.857 81.1573 282.364 80.4997C281.6 79.4836 280.962 78.0965 279.379 78.7727C277.743 79.4722 278.128 80.7209 278.823 81.9795C279.161 82.5932 279.193 83.2772 278.432 83.5883C277.847 83.828 277.46 83.3397 277.139 82.9089C276.757 82.3923 276.415 81.8424 276.032 81.3258C275.322 80.3677 274.415 79.8083 273.305 80.5081C272.19 81.2115 272.264 82.2029 272.919 83.2912C273.422 84.1288 274.645 85.2378 273.262 85.973C272.039 86.6215 271.581 85.0274 271.025 84.213C268.424 80.399 265.9 76.5326 263.31 72.7115C262.501 71.5179 261.715 69.6695 259.909 70.9905C258.149 72.2776 259.595 73.671 260.378 74.8718C262.49 78.1102 264.657 81.3087 266.801 84.5256L266.799 84.5268Z" fill="#2F3B53"/>
</g>
<defs>
<clipPath id="clip0_4338_2242">
<rect width="62.41" height="72.88" fill="white" transform="translate(240 36.5601)"/>
</clipPath>
</defs>
</svg>
