<svg width="277" height="79" viewBox="0 0 277 79" fill="none" xmlns="http://www.w3.org/2000/svg">
<path d="M72.6202 8.832C72.4402 9.066 72.0982 9.498 71.9362 9.75C71.0902 11.154 69.3802 13.44 67.5982 14.7L65.7262 13.206C67.1842 12.324 68.5882 10.74 69.0562 9.858C67.9582 9.858 60.7942 9.858 59.6602 9.858C58.9222 9.858 58.3102 9.894 57.4642 9.984V7.464C58.1662 7.572 58.9222 7.662 59.6602 7.662C60.7942 7.662 68.4262 7.662 69.3622 7.662C69.8662 7.662 70.8562 7.59 71.1982 7.5L72.6202 8.832ZM65.2942 11.244C65.2942 15.708 65.1862 19.38 60.2902 22.026L58.1842 20.316C58.7782 20.118 59.4262 19.812 60.0922 19.308C62.3602 17.724 62.7922 15.834 62.7922 12.882C62.7922 12.306 62.7742 11.838 62.6842 11.244H65.2942ZM73.6678 14.016C76.8898 13.188 79.5178 12.018 81.5338 10.776C83.3698 9.642 85.4218 7.842 86.5918 6.42L88.5358 8.256C86.8978 9.912 84.7018 11.604 82.5778 12.882C80.5438 14.088 77.6278 15.438 74.7838 16.284L73.6678 14.016ZM81.1558 11.946L83.7118 11.334V19.452C83.7118 20.244 83.7478 21.36 83.8738 21.81H81.0118C81.0838 21.378 81.1558 20.244 81.1558 19.452V11.946ZM93.3598 8.22C94.0438 8.292 94.9618 8.346 95.5918 8.346H104.664C105.186 8.346 105.924 8.31 106.23 8.292C106.212 8.724 106.176 9.426 106.176 9.966V19.29C106.176 19.92 106.23 20.856 106.266 21.414H103.656C103.674 20.874 103.692 20.226 103.692 19.56V10.668H95.5918C94.8358 10.668 93.8638 10.704 93.3598 10.74V8.22ZM93.1438 17.994C93.7558 18.048 94.5658 18.102 95.3758 18.102H105.114V20.478H95.4478C94.7458 20.478 93.7378 20.514 93.1438 20.586V17.994ZM112.89 7.32C114.132 8.166 116.472 10.038 117.534 11.136L115.698 13.008C114.762 12 112.494 10.038 111.18 9.138L112.89 7.32ZM110.622 19.308C113.448 18.912 115.77 17.994 117.516 16.968C120.594 15.132 122.934 12.396 124.086 9.966L125.472 12.486C124.122 14.934 121.728 17.418 118.83 19.164C116.994 20.262 114.672 21.252 112.152 21.684L110.622 19.308ZM135.3 6.564C135.156 7.23 134.922 8.292 134.418 9.588C134.04 10.47 133.518 11.496 133.014 12.216C133.5 12 134.454 11.874 135.066 11.874C136.56 11.874 137.694 12.756 137.694 14.43C137.694 15.402 137.748 17.364 137.766 18.498H135.606C135.678 17.652 135.714 16.122 135.696 15.15C135.696 13.998 134.976 13.62 134.22 13.62C133.23 13.62 132.096 14.214 131.412 14.862C130.872 15.402 130.368 16.05 129.756 16.842L127.83 15.402C130.134 13.278 131.52 11.334 132.276 9.354C132.636 8.382 132.87 7.284 132.924 6.366L135.3 6.564ZM128.514 8.238C129.432 8.364 130.764 8.436 131.682 8.436C134.058 8.436 137.316 8.31 139.926 7.842L139.908 9.93C137.37 10.29 133.752 10.452 131.556 10.452C130.818 10.452 129.504 10.416 128.514 10.326V8.238ZM142.77 13.35C142.212 13.512 141.24 13.872 140.628 14.106C139.458 14.556 137.838 15.204 136.146 16.068C134.508 16.914 133.626 17.688 133.626 18.678C133.626 19.668 134.49 19.938 136.236 19.938C137.766 19.938 139.782 19.74 141.366 19.416L141.294 21.738C140.088 21.9 137.892 22.062 136.182 22.062C133.374 22.062 131.268 21.36 131.268 19.038C131.268 16.536 133.842 15.06 136.002 13.98C137.658 13.116 138.792 12.684 139.872 12.18C140.574 11.874 141.204 11.586 141.888 11.244L142.77 13.35ZM13.5305 33.608C14.0345 34.364 14.7725 35.516 15.1685 36.344L13.6205 37.028C13.0805 35.894 12.6845 35.174 12.0185 34.256L13.5305 33.608ZM15.8885 32.636C16.4285 33.356 17.1845 34.472 17.5805 35.282L16.0685 36.038C15.4925 34.886 15.0605 34.22 14.3945 33.338L15.8885 32.636ZM6.36646 45.542C6.36646 44.174 6.36646 36.722 6.36646 35.192C6.36646 34.544 6.29446 33.662 6.16846 33.032H8.99446C8.92246 33.662 8.83246 34.454 8.83246 35.192C8.83246 37.19 8.83246 44.21 8.83246 45.542C8.83246 46.064 8.92246 47.324 8.99446 48.044H6.18646C6.29446 47.342 6.36646 46.262 6.36646 45.542ZM8.29246 37.676C10.7045 38.342 14.5745 39.764 16.3565 40.646L15.3305 43.13C13.2965 42.068 10.2545 40.916 8.29246 40.268V37.676ZM23.2865 33.194C23.7725 33.266 24.5465 33.302 25.1585 33.302C26.2925 33.302 31.0265 33.302 32.0705 33.302C32.6465 33.302 33.5285 33.266 34.0145 33.194V35.534C33.5465 35.498 32.7005 35.462 32.0345 35.462C31.0445 35.462 26.2205 35.462 25.1585 35.462C24.5645 35.462 23.8085 35.48 23.2865 35.534V33.194ZM35.5445 38.432C35.4185 38.666 35.2565 38.99 35.2025 39.17C34.6445 40.916 33.8705 42.68 32.5385 44.156C30.7205 46.19 28.4165 47.396 26.1125 48.062L24.3125 46.028C27.0305 45.452 29.1725 44.282 30.5585 42.86C31.5125 41.888 32.0885 40.754 32.3945 39.764C31.4945 39.764 25.3205 39.764 23.7185 39.764C23.2685 39.764 22.3685 39.782 21.6125 39.836V37.496C22.3865 37.568 23.1425 37.622 23.7185 37.622C24.9425 37.622 31.3865 37.622 32.6105 37.622C33.2045 37.622 33.6905 37.55 33.9425 37.424L35.5445 38.432ZM46.3445 36.326C46.6865 37.082 47.5685 39.44 47.8205 40.268L45.6785 41.006C45.4445 40.142 44.6525 37.964 44.2205 37.028L46.3445 36.326ZM52.9865 37.622C52.7885 38.216 52.6805 38.594 52.5725 38.954C52.1045 40.772 51.3305 42.644 50.1065 44.21C48.4325 46.388 46.2005 47.882 44.0945 48.692L42.2045 46.766C44.1665 46.226 46.6865 44.858 48.1625 42.986C49.3865 41.474 50.2685 39.08 50.4665 36.812L52.9865 37.622ZM42.1685 37.262C42.6185 38.18 43.5005 40.376 43.8425 41.384L41.6465 42.194C41.3585 41.24 40.4405 38.828 40.0085 38.054L42.1685 37.262ZM71.4545 35.822C71.2565 36.164 71.0045 36.65 70.8605 37.1C70.3745 38.72 69.3485 41.114 67.7105 43.112C66.0005 45.2 63.8405 46.856 60.4565 48.188L58.3325 46.298C62.0045 45.182 64.0025 43.616 65.5865 41.834C66.8105 40.43 67.8545 38.27 68.1425 36.938H62.0765L62.9045 34.886C63.6965 34.886 67.4765 34.886 68.0345 34.886C68.5925 34.886 69.2045 34.814 69.6005 34.67L71.4545 35.822ZM65.5865 32.96C65.1545 33.59 64.6865 34.418 64.4885 34.796C63.2645 36.974 61.1225 39.512 58.5305 41.276L56.5145 39.782C59.6645 37.856 61.2485 35.534 62.1305 33.986C62.4005 33.554 62.7785 32.726 62.9405 32.096L65.5865 32.96ZM81.0125 47.216C78.0065 47.216 76.4045 45.704 76.4045 43.508C76.4045 39.566 82.7225 39.17 82.7225 36.47C82.7225 35.696 82.2545 35.174 81.4625 35.174C80.6165 35.174 80.0585 35.714 80.0585 36.722C80.0585 38.792 83.6585 41.51 86.0525 43.4C87.1145 44.228 88.1585 44.858 88.7345 45.164L87.5645 47.234C86.5925 46.676 85.7105 46.136 84.4145 45.056C81.4085 42.5 77.9525 39.71 77.9525 36.812C77.9525 34.724 79.4285 33.41 81.4085 33.41C83.4245 33.41 84.7385 34.526 84.7385 36.38C84.7385 40.142 78.7625 40.664 78.7625 43.436C78.7625 44.606 79.8065 45.2 81.2465 45.2C82.3805 45.2 83.4785 44.408 84.3785 43.22C85.1525 42.23 85.6745 41.078 85.8905 39.566H88.2305C87.8525 41.384 87.1685 42.95 86.1065 44.462C84.9005 46.154 83.4065 47.216 81.0125 47.216ZM103.53 33.608C104.034 34.364 104.772 35.516 105.168 36.344L103.62 37.028C103.08 35.894 102.684 35.174 102.018 34.256L103.53 33.608ZM105.888 32.636C106.428 33.356 107.184 34.472 107.58 35.282L106.068 36.038C105.492 34.886 105.06 34.22 104.394 33.338L105.888 32.636ZM96.3665 45.542C96.3665 44.174 96.3665 36.722 96.3665 35.192C96.3665 34.544 96.2945 33.662 96.1685 33.032H98.9945C98.9225 33.662 98.8325 34.454 98.8325 35.192C98.8325 37.19 98.8325 44.21 98.8325 45.542C98.8325 46.064 98.9225 47.324 98.9945 48.044H96.1865C96.2945 47.342 96.3665 46.262 96.3665 45.542ZM98.2925 37.676C100.704 38.342 104.574 39.764 106.356 40.646L105.33 43.13C103.296 42.068 100.254 40.916 98.2925 40.268V37.676ZM111.54 34.238C112.26 34.256 112.944 34.274 113.43 34.274C114.744 34.274 122.052 34.274 123.348 34.274C123.798 34.274 124.464 34.274 125.13 34.256C125.094 34.796 125.094 35.444 125.094 36.002C125.094 37.1 125.094 43.724 125.094 44.822C125.094 45.524 125.112 47.252 125.13 47.324H122.628C122.628 47.252 122.682 45.848 122.682 44.858C122.682 43.814 122.682 36.578 122.682 36.578H113.97C113.97 36.578 113.97 43.796 113.97 44.858C113.97 45.722 113.988 47.234 113.988 47.324H111.522C111.522 47.234 111.558 45.65 111.558 44.786C111.558 43.706 111.558 37.046 111.558 36.002C111.558 35.48 111.558 34.76 111.54 34.238ZM123.564 44.048V46.334H112.746V44.048H123.564ZM136.344 36.326C136.686 37.082 137.568 39.44 137.82 40.268L135.678 41.006C135.444 40.142 134.652 37.964 134.22 37.028L136.344 36.326ZM142.986 37.622C142.788 38.216 142.68 38.594 142.572 38.954C142.104 40.772 141.33 42.644 140.106 44.21C138.432 46.388 136.2 47.882 134.094 48.692L132.204 46.766C134.166 46.226 136.686 44.858 138.162 42.986C139.386 41.474 140.268 39.08 140.466 36.812L142.986 37.622ZM132.168 37.262C132.618 38.18 133.5 40.376 133.842 41.384L131.646 42.194C131.358 41.24 130.44 38.828 130.008 38.054L132.168 37.262ZM159.726 33.806C159.726 34.382 160.194 34.85 160.77 34.85C161.346 34.85 161.814 34.382 161.814 33.806C161.814 33.23 161.346 32.762 160.77 32.762C160.194 32.762 159.726 33.23 159.726 33.806ZM158.61 33.806C158.61 32.618 159.582 31.646 160.77 31.646C161.958 31.646 162.93 32.618 162.93 33.806C162.93 34.994 161.958 35.966 160.77 35.966C159.582 35.966 158.61 34.994 158.61 33.806ZM160.806 35.228C160.626 35.57 160.5 36.092 160.41 36.47C159.996 38.234 159.204 41.042 157.692 43.04C156.072 45.2 153.678 46.982 150.456 48.008L148.494 45.848C152.076 45.02 154.11 43.454 155.55 41.636C156.756 40.142 157.44 38.09 157.674 36.542C156.576 36.542 150.636 36.542 149.286 36.542C148.458 36.542 147.612 36.596 147.144 36.632V34.076C147.684 34.148 148.692 34.238 149.286 34.238C150.636 34.238 156.612 34.238 157.62 34.238C157.98 34.238 158.556 34.22 159.024 34.094L160.806 35.228ZM169.95 32.726C169.842 33.482 169.752 34.418 169.716 35.138C169.626 37.082 169.5 41.096 169.5 43.328C169.5 45.146 170.58 45.74 171.984 45.74C174.954 45.74 176.826 44.03 178.14 42.068L179.778 44.066C178.608 45.794 176.052 48.188 171.948 48.188C168.996 48.188 167.106 46.892 167.106 43.814C167.106 41.402 167.268 36.686 167.268 35.138C167.268 34.274 167.196 33.41 167.052 32.708L169.95 32.726ZM182.006 34.634C182.708 34.616 183.428 34.58 183.77 34.544C185.282 34.4 188.234 34.148 191.546 33.86C193.4 33.698 195.362 33.59 196.64 33.536L196.658 35.858C195.686 35.858 194.138 35.876 193.166 36.092C191.006 36.668 189.368 39.008 189.368 41.132C189.368 44.102 192.14 45.164 195.182 45.326L194.354 47.792C190.574 47.558 187.01 45.524 187.01 41.618C187.01 39.026 188.468 36.992 189.692 36.074C188 36.254 184.328 36.632 182.24 37.1L182.006 34.634ZM24.616 61.228H36.388V62.884H24.616V61.228ZM25.66 66.07H35.182V67.618H25.66V66.07ZM24.868 68.446H35.992V70.156H24.868V68.446ZM29.17 57.862H31.276V71.614H29.17V57.862ZM25.858 58.87H35.038V65.278H25.768V63.64H32.914V60.508H25.858V58.87ZM19.576 58.708H23.374V60.598H19.576V58.708ZM22.636 58.708H22.906L23.23 58.636L24.688 59.032C23.878 61.156 22.618 63.964 21.574 66.214L19.612 65.71C20.71 63.496 22.006 60.526 22.636 58.942V58.708ZM21.412 63.802H24.04V65.692H21.34L21.412 63.802ZM23.176 63.802H23.59L23.95 63.766L25.21 64.036C24.76 69.472 23.374 72.928 21.034 74.692C20.71 74.278 19.882 73.504 19.414 73.234C21.646 71.686 22.834 68.77 23.176 64.198V63.802ZM21.52 66.718C22.978 71.38 26.272 72.118 30.52 72.136C31.618 72.136 35.29 72.136 36.604 72.082C36.28 72.568 35.902 73.558 35.776 74.188H30.466C25.246 74.188 21.7 73.126 19.828 67.312L21.52 66.718ZM46.288 57.718L48.232 58.096C47.584 61.084 46.396 63.946 44.938 65.746C44.596 65.422 43.75 64.81 43.3 64.54C44.74 62.956 45.748 60.382 46.288 57.718ZM52.336 60.526H54.37C54.37 60.526 54.352 61.228 54.334 61.498C53.992 69.58 53.668 72.532 52.984 73.432C52.57 74.044 52.174 74.26 51.58 74.368C51.076 74.476 50.32 74.476 49.528 74.44C49.474 73.828 49.258 72.91 48.934 72.316C49.6 72.388 50.212 72.406 50.554 72.406C50.824 72.406 50.986 72.316 51.202 72.064C51.706 71.434 52.048 68.644 52.336 60.994V60.526ZM46.828 60.526H53.254V62.524H45.838L46.828 60.526ZM48.088 61.174L49.654 61.948C48.934 65.044 47.35 68.608 45.388 70.444C44.974 70.03 44.29 69.526 43.732 69.22C45.82 67.582 47.404 64.198 48.088 61.174ZM50.59 61.372L52.264 62.146C51.4 66.826 49.492 71.722 46.522 74.206C46.108 73.774 45.352 73.234 44.758 72.946C47.908 70.696 49.762 65.998 50.59 61.372ZM37.468 67.528C39.232 67.132 41.86 66.394 44.344 65.692L44.632 67.6C42.364 68.302 39.898 69.04 37.99 69.598L37.468 67.528ZM40.708 57.718H42.688V74.62H40.708V57.718ZM38.332 58.744L40.132 59.05C39.898 61.426 39.466 63.946 38.818 65.548C38.494 65.296 37.72 64.792 37.288 64.576C37.864 63.136 38.17 60.886 38.332 58.744ZM38.818 61.192H44.182V63.262H38.422L38.818 61.192ZM63.748 58.564C63.604 59.23 63.37 60.292 62.866 61.588C62.488 62.47 61.966 63.496 61.462 64.216C61.948 64 62.902 63.874 63.514 63.874C65.008 63.874 66.142 64.756 66.142 66.43C66.142 67.402 66.196 69.364 66.214 70.498H64.054C64.126 69.652 64.162 68.122 64.144 67.15C64.144 65.998 63.424 65.62 62.668 65.62C61.678 65.62 60.544 66.214 59.86 66.862C59.32 67.402 58.816 68.05 58.204 68.842L56.278 67.402C58.582 65.278 59.968 63.334 60.724 61.354C61.084 60.382 61.318 59.284 61.372 58.366L63.748 58.564ZM56.962 60.238C57.88 60.364 59.212 60.436 60.13 60.436C62.506 60.436 65.764 60.31 68.374 59.842L68.356 61.93C65.818 62.29 62.2 62.452 60.004 62.452C59.266 62.452 57.952 62.416 56.962 62.326V60.238ZM71.218 65.35C70.66 65.512 69.688 65.872 69.076 66.106C67.906 66.556 66.286 67.204 64.594 68.068C62.956 68.914 62.074 69.688 62.074 70.678C62.074 71.668 62.938 71.938 64.684 71.938C66.214 71.938 68.23 71.74 69.814 71.416L69.742 73.738C68.536 73.9 66.34 74.062 64.63 74.062C61.822 74.062 59.716 73.36 59.716 71.038C59.716 68.536 62.29 67.06 64.45 65.98C66.106 65.116 67.24 64.684 68.32 64.18C69.022 63.874 69.652 63.586 70.336 63.244L71.218 65.35ZM85.438 66.034L87.022 66.682C85.888 67.816 84.106 68.662 82.414 69.202C82.162 68.806 81.676 68.302 81.28 67.978C82.792 67.582 84.538 66.844 85.438 66.034ZM87.202 67.672L88.75 68.302C87.31 69.868 84.916 70.948 82.432 71.578C82.198 71.182 81.784 70.588 81.406 70.228C83.656 69.778 86.014 68.878 87.202 67.672ZM88.516 69.706L90.352 70.462C88.48 72.676 85.258 73.864 81.568 74.548C81.352 74.026 80.902 73.306 80.488 72.856C83.818 72.406 86.968 71.416 88.516 69.706ZM82.99 57.7L84.952 58.186C84.142 60.328 82.774 62.362 81.352 63.64C80.992 63.298 80.2 62.668 79.732 62.398C81.136 61.3 82.342 59.536 82.99 57.7ZM82.972 59.536H90.226V61.264H81.928L82.972 59.536ZM87.256 59.968L89.272 60.4C87.85 63.892 84.916 65.872 81.226 67.006C80.992 66.574 80.344 65.746 79.966 65.368C83.494 64.522 86.194 62.866 87.256 59.968ZM82.954 60.526C84.088 62.524 86.788 64.486 90.82 65.134C90.424 65.548 89.884 66.34 89.632 66.862C85.582 65.962 82.864 63.64 81.604 61.372L82.954 60.526ZM78.4 60.022H80.272V71.614H78.4V60.022ZM76.744 57.772L78.742 58.366C77.716 61.516 76.06 64.918 74.206 67.078C74.044 66.556 73.504 65.314 73.18 64.738C74.62 63.046 75.952 60.418 76.744 57.772ZM75.34 62.686L77.338 60.706L77.392 60.742V74.602H75.34V62.686ZM102.268 60.13H104.248V68.266H102.268V60.13ZM104.932 57.682L107.002 58.204C106.498 58.924 106.012 59.626 105.652 60.112L104.122 59.626C104.428 59.068 104.77 58.24 104.932 57.682ZM105.634 65.314L107.416 65.854C106.966 66.556 106.552 67.204 106.228 67.654L104.842 67.168C105.094 66.628 105.472 65.836 105.634 65.314ZM99.82 58.294L101.44 57.736C101.818 58.276 102.196 59.032 102.34 59.536L100.63 60.202C100.522 59.662 100.18 58.87 99.82 58.294ZM99.316 65.908L100.918 65.44C101.224 65.962 101.53 66.682 101.638 67.132L99.964 67.69C99.874 67.204 99.622 66.466 99.316 65.908ZM98.578 59.698H108.1V61.264H98.578V59.698ZM98.308 64.072H108.208V65.638H98.308V64.072ZM98.002 67.294H108.406V68.86H98.002V67.294ZM100.216 72.478H106.39V74.026H100.216V72.478ZM99.172 61.912H107.488V63.424H99.172V61.912ZM99.208 69.526H107.506V74.566H105.508V71.074H101.134V74.602H99.208V69.526ZM94.222 57.736L96.04 58.366C95.32 59.77 94.492 61.372 93.826 62.38L92.422 61.804C93.052 60.724 93.826 58.978 94.222 57.736ZM96.148 59.86L97.858 60.634C96.598 62.668 94.96 65.17 93.646 66.7L92.44 66.034C93.718 64.414 95.266 61.786 96.148 59.86ZM91.432 61.876L92.494 60.454C93.412 61.318 94.492 62.506 94.924 63.316L93.79 64.936C93.394 64.054 92.332 62.776 91.432 61.876ZM95.608 64.09L97.03 63.514C97.678 64.756 98.308 66.394 98.47 67.456L96.958 68.104C96.814 67.06 96.238 65.368 95.608 64.09ZM91.378 65.62C92.926 65.548 95.122 65.404 97.282 65.26L97.3 67.042C95.302 67.204 93.214 67.348 91.612 67.474L91.378 65.62ZM95.896 68.662L97.336 68.23C97.768 69.256 98.128 70.606 98.236 71.488L96.724 71.974C96.652 71.074 96.31 69.706 95.896 68.662ZM92.152 68.302L93.826 68.59C93.646 70.3 93.25 72.082 92.746 73.234C92.404 73 91.648 72.658 91.234 72.496C91.738 71.434 92.008 69.814 92.152 68.302ZM94.006 66.574H95.824V74.62H94.006V66.574ZM115.678 58.726C115.57 59.482 115.48 60.418 115.444 61.138C115.354 63.082 115.228 67.096 115.228 69.328C115.228 71.146 116.308 71.74 117.712 71.74C120.682 71.74 122.554 70.03 123.868 68.068L125.506 70.066C124.336 71.794 121.78 74.188 117.676 74.188C114.724 74.188 112.834 72.892 112.834 69.814C112.834 67.402 112.996 62.686 112.996 61.138C112.996 60.274 112.924 59.41 112.78 58.708L115.678 58.726ZM137.242 58.582C137.17 59.104 137.116 59.986 137.08 60.688C137.062 61.552 137.08 62.578 137.08 63.604C137.08 65.602 137.422 69.472 137.422 70.984C137.422 72.586 136.594 74.098 133.588 74.098C130.996 74.098 128.89 73.252 128.89 70.822C128.89 68.932 130.51 67.456 133.804 67.456C137.566 67.456 140.932 69.346 142.768 71.038L141.382 73.198C139.6 71.398 136.738 69.454 133.48 69.454C132.076 69.454 131.23 69.922 131.23 70.714C131.23 71.578 132.13 71.92 133.39 71.92C134.542 71.92 134.974 71.398 134.974 70.21C134.974 68.95 134.758 65.314 134.758 63.604C134.758 62.524 134.74 61.462 134.722 60.688C134.704 59.788 134.65 59.014 134.542 58.582H137.242ZM135.874 62.02C136.936 62.02 140.086 61.948 142.102 61.732L142.192 63.874C140.158 64.054 136.99 64.144 135.874 64.144V62.02ZM157.312 67.114C157.312 65.926 156.394 64.972 154.702 64.972C152.722 64.972 150.922 65.566 150.022 65.836C149.5 65.998 148.78 66.268 148.276 66.484L147.592 63.892C148.204 63.856 148.96 63.712 149.554 63.586C150.868 63.298 152.884 62.776 155.008 62.776C157.852 62.776 159.85 64.396 159.85 67.204C159.85 71.074 156.268 73.45 151.264 74.152L149.986 71.902C154.45 71.398 157.312 69.94 157.312 67.114ZM150.238 58.474C152.344 58.924 156.43 59.284 158.32 59.284L157.978 61.498C155.872 61.354 151.966 60.994 149.896 60.634L150.238 58.474ZM171.064 68.374L170.596 62.218L170.506 59.536H173.476L173.386 62.218L172.918 68.374H171.064ZM172 73.18C171.064 73.18 170.398 72.514 170.398 71.578C170.398 70.642 171.082 69.994 172 69.994C172.9 69.994 173.584 70.642 173.584 71.578C173.584 72.514 172.9 73.18 172 73.18Z" fill="#2F3B53"/>
<g clip-path="url(#clip0_1977_2857)">
<path d="M235.08 15.8101H221.73C215.804 15.8101 211 20.614 211 26.5401V39.8901C211 45.8161 215.804 50.6201 221.73 50.6201H235.08C241.006 50.6201 245.81 45.8161 245.81 39.8901V26.5401C245.81 20.614 241.006 15.8101 235.08 15.8101Z" stroke="#2F3B53" stroke-width="2" stroke-miterlimit="10" stroke-dasharray="3.02 3.02"/>
<path d="M260.68 4.06006H247.33C241.404 4.06006 236.6 8.86404 236.6 14.7901V28.1401C236.6 34.0661 241.404 38.8701 247.33 38.8701H260.68C266.606 38.8701 271.41 34.0661 271.41 28.1401V14.7901C271.41 8.86404 266.606 4.06006 260.68 4.06006Z" stroke="#2F3B53" stroke-width="2" stroke-miterlimit="10"/>
<path d="M242.253 63.6409C242.172 62.0792 241.229 61.2797 240.612 60.3429C236.414 53.9817 232.148 47.6639 227.958 41.2967C226.689 39.3674 226.606 37.5324 228.687 35.9677C230.855 34.3386 232.734 34.8568 234.207 36.8138C236.076 39.2944 237.711 41.9577 239.438 44.5473C240.135 45.5916 240.638 46.9629 242.155 45.2847C242.769 44.6044 243.883 44.3609 244.84 44.7199C245.982 45.1475 246.746 44.9705 247.561 43.989C248.244 43.1672 249.394 42.7759 250.46 43.1012C251.721 43.4861 252.471 43.1622 253.499 42.3052C255.452 40.6739 257.578 41.1209 259.015 43.198C261.64 46.9876 264.319 50.774 266.534 54.81C269.361 59.958 267.825 66.3653 263.501 70.2775C256.961 76.1957 249.91 78.1248 241.692 73.7386C239.074 72.3412 236.194 71.4631 233.488 70.2232C230.478 68.844 230.266 66.358 232.867 64.3184C234.466 63.0642 236.232 62.6018 238.226 62.9569C239.531 63.1892 240.84 63.4027 242.252 63.6438L242.253 63.6409ZM236.799 51.0268C239.124 54.5107 241.447 57.9929 243.771 61.4767C244.512 62.5863 245.154 63.7626 244.232 65.0251C243.38 66.188 242.143 65.7634 241.002 65.5613C239.851 65.3575 238.708 65.1124 237.555 64.934C236.225 64.729 235.053 65.1175 234.006 65.9569C232.873 66.8623 232.789 67.7767 234.208 68.3367C239.146 70.2803 243.828 72.9836 249.069 74.028C255.21 75.2517 264.368 68.9781 265.672 62.8214C266.102 60.7908 266.165 58.6822 265.292 56.8059C263.196 52.304 260.04 48.4579 257.321 44.3447C256.718 43.4321 255.78 43.1781 254.823 43.8203C254.024 44.3571 253.833 45.1234 254.209 46.0681C254.531 46.8779 255.579 47.9189 254.184 48.4876C253.233 48.8766 252.857 47.6573 252.364 46.9997C251.6 45.9836 250.962 44.5965 249.379 45.2727C247.743 45.9722 248.128 47.2209 248.823 48.4795C249.161 49.0932 249.193 49.7772 248.432 50.0883C247.847 50.328 247.46 49.8397 247.139 49.4089C246.757 48.8923 246.415 48.3424 246.032 47.8258C245.322 46.8677 244.415 46.3083 243.305 47.0081C242.19 47.7115 242.264 48.7029 242.919 49.7912C243.422 50.6288 244.645 51.7378 243.262 52.473C242.039 53.1215 241.581 51.5274 241.025 50.713C238.424 46.899 235.9 43.0326 233.31 39.2115C232.501 38.0179 231.715 36.1695 229.909 37.4905C228.149 38.7776 229.595 40.171 230.378 41.3718C232.49 44.6102 234.657 47.8087 236.801 51.0256L236.799 51.0268Z" fill="#2F3B53"/>
</g>
<defs>
<clipPath id="clip0_1977_2857">
<rect width="62.41" height="72.88" fill="white" transform="translate(210 3.06006)"/>
</clipPath>
</defs>
</svg>
