<svg width="450" height="200" viewBox="0 0 450 200" fill="none" xmlns="http://www.w3.org/2000/svg">
<rect x="5" y="5" width="440" height="190" rx="35" fill="white"/>
<rect x="5" y="5" width="440" height="190" rx="35" stroke="#3562BC" stroke-width="10"/>
<g clip-path="url(#clip0_1081_25)">
<path d="M347.888 78.2114H336.123C330.901 78.2114 326.667 82.3642 326.667 87.4868V99.027C326.667 104.15 330.901 108.302 336.123 108.302H347.888C353.111 108.302 357.344 104.15 357.344 99.027V87.4868C357.344 82.3642 353.111 78.2114 347.888 78.2114Z" stroke="#2F3B53" stroke-width="2" stroke-miterlimit="10" stroke-dasharray="3.02 3.02"/>
<path d="M370.448 68.0542H358.684C353.461 68.0542 349.228 72.2069 349.228 77.3296V88.8698C349.228 93.9924 353.461 98.1452 358.684 98.1452H370.448C375.671 98.1452 379.905 93.9924 379.905 88.8698V77.3296C379.905 72.2069 375.671 68.0542 370.448 68.0542Z" stroke="#2F3B53" stroke-width="2" stroke-miterlimit="10"/>
<path d="M354.209 119.558C354.138 118.208 353.307 117.517 352.763 116.707C349.063 111.209 345.304 105.747 341.612 100.243C340.493 98.5755 340.42 96.9892 342.254 95.6366C344.165 94.2284 345.82 94.6763 347.119 96.368C348.766 98.5124 350.206 100.815 351.729 103.053C352.343 103.956 352.786 105.141 354.123 103.691C354.664 103.102 355.646 102.892 356.489 103.202C357.496 103.572 358.169 103.419 358.887 102.571C359.489 101.86 360.502 101.522 361.442 101.803C362.554 102.136 363.215 101.856 364.12 101.115C365.841 99.7048 367.715 100.091 368.981 101.887C371.295 105.163 373.655 108.436 375.607 111.925C378.098 116.375 376.745 121.913 372.935 125.295C367.171 130.411 360.957 132.079 353.715 128.287C351.408 127.079 348.87 126.32 346.485 125.248C343.832 124.056 343.646 121.907 345.938 120.144C347.347 119.06 348.904 118.66 350.661 118.967C351.81 119.168 352.964 119.352 354.209 119.561L354.209 119.558ZM349.403 108.654C351.452 111.666 353.499 114.676 355.547 117.688C356.2 118.647 356.766 119.663 355.953 120.755C355.203 121.76 354.113 121.393 353.106 121.218C352.093 121.042 351.086 120.83 350.069 120.676C348.897 120.499 347.864 120.835 346.941 121.56C345.943 122.343 345.869 123.133 347.119 123.617C351.471 125.298 355.597 127.634 360.216 128.537C365.628 129.595 373.699 124.172 374.848 118.85C375.227 117.095 375.282 115.272 374.513 113.65C372.666 109.758 369.885 106.434 367.489 102.878C366.956 102.089 366.13 101.87 365.287 102.425C364.583 102.889 364.415 103.551 364.746 104.368C365.03 105.068 365.953 105.968 364.723 106.459C363.885 106.796 363.554 105.742 363.12 105.173C362.447 104.295 361.884 103.096 360.489 103.68C359.047 104.285 359.387 105.364 359.999 106.452C360.297 106.983 360.325 107.574 359.655 107.843C359.139 108.05 358.798 107.628 358.516 107.256C358.178 106.809 357.877 106.334 357.54 105.887C356.914 105.059 356.114 104.575 355.137 105.18C354.154 105.788 354.219 106.645 354.796 107.586C355.24 108.31 356.317 109.269 355.098 109.904C354.021 110.465 353.617 109.087 353.127 108.383C350.835 105.086 348.611 101.744 346.328 98.4406C345.615 97.4089 344.923 95.811 343.331 96.953C341.78 98.0656 343.054 99.2701 343.744 100.308C345.606 103.107 347.515 105.872 349.405 108.653L349.403 108.654Z" fill="#2F3B53"/>
</g>
<path d="M160.292 65.98C160.092 66.24 159.712 66.72 159.532 67C158.592 68.56 156.692 71.1 154.712 72.5L152.632 70.84C154.252 69.86 155.812 68.1 156.332 67.12C155.112 67.12 147.152 67.12 145.892 67.12C145.072 67.12 144.392 67.16 143.452 67.26V64.46C144.232 64.58 145.072 64.68 145.892 64.68C147.152 64.68 155.632 64.68 156.672 64.68C157.232 64.68 158.332 64.6 158.712 64.5L160.292 65.98ZM152.152 68.66C152.152 73.62 152.032 77.7 146.592 80.64L144.252 78.74C144.912 78.52 145.632 78.18 146.372 77.62C148.892 75.86 149.372 73.76 149.372 70.48C149.372 69.84 149.352 69.32 149.252 68.66H152.152ZM161.456 71.74C165.036 70.82 167.956 69.52 170.196 68.14C172.236 66.88 174.516 64.88 175.816 63.3L177.976 65.34C176.156 67.18 173.716 69.06 171.356 70.48C169.096 71.82 165.856 73.32 162.696 74.26L161.456 71.74ZM169.776 69.44L172.616 68.76V77.78C172.616 78.66 172.656 79.9 172.796 80.4H169.616C169.696 79.92 169.776 78.66 169.776 77.78V69.44ZM183.336 65.3C184.096 65.38 185.116 65.44 185.816 65.44H195.896C196.476 65.44 197.296 65.4 197.636 65.38C197.616 65.86 197.576 66.64 197.576 67.24V77.6C197.576 78.3 197.636 79.34 197.676 79.96H194.776C194.796 79.36 194.816 78.64 194.816 77.9V68.02H185.816C184.976 68.02 183.896 68.06 183.336 68.1V65.3ZM183.096 76.16C183.776 76.22 184.676 76.28 185.576 76.28H196.396V78.92H185.656C184.876 78.92 183.756 78.96 183.096 79.04V76.16ZM205.036 64.3C206.416 65.24 209.016 67.32 210.196 68.54L208.156 70.62C207.116 69.5 204.596 67.32 203.136 66.32L205.036 64.3ZM202.516 77.62C205.656 77.18 208.236 76.16 210.176 75.02C213.596 72.98 216.196 69.94 217.476 67.24L219.016 70.04C217.516 72.76 214.856 75.52 211.636 77.46C209.596 78.68 207.016 79.78 204.216 80.26L202.516 77.62ZM229.936 63.46C229.776 64.2 229.516 65.38 228.956 66.82C228.536 67.8 227.956 68.94 227.396 69.74C227.936 69.5 228.996 69.36 229.676 69.36C231.336 69.36 232.596 70.34 232.596 72.2C232.596 73.28 232.656 75.46 232.676 76.72H230.276C230.356 75.78 230.396 74.08 230.376 73C230.376 71.72 229.576 71.3 228.736 71.3C227.636 71.3 226.376 71.96 225.616 72.68C225.016 73.28 224.456 74 223.776 74.88L221.636 73.28C224.196 70.92 225.736 68.76 226.576 66.56C226.976 65.48 227.236 64.26 227.296 63.24L229.936 63.46ZM222.396 65.32C223.416 65.46 224.896 65.54 225.916 65.54C228.556 65.54 232.176 65.4 235.076 64.88L235.056 67.2C232.236 67.6 228.216 67.78 225.776 67.78C224.956 67.78 223.496 67.74 222.396 67.64V65.32ZM238.236 71C237.616 71.18 236.536 71.58 235.856 71.84C234.556 72.34 232.756 73.06 230.876 74.02C229.056 74.96 228.076 75.82 228.076 76.92C228.076 78.02 229.036 78.32 230.976 78.32C232.676 78.32 234.916 78.1 236.676 77.74L236.596 80.32C235.256 80.5 232.816 80.68 230.916 80.68C227.796 80.68 225.456 79.9 225.456 77.32C225.456 74.54 228.316 72.9 230.716 71.7C232.556 70.74 233.816 70.26 235.016 69.7C235.796 69.36 236.496 69.04 237.256 68.66L238.236 71ZM94.6366 93.62C95.1966 94.46 96.0166 95.74 96.4566 96.66L94.7366 97.42C94.1366 96.16 93.6966 95.36 92.9566 94.34L94.6366 93.62ZM97.2566 92.54C97.8566 93.34 98.6966 94.58 99.1366 95.48L97.4566 96.32C96.8166 95.04 96.3366 94.3 95.5966 93.32L97.2566 92.54ZM86.6766 106.88C86.6766 105.36 86.6766 97.08 86.6766 95.38C86.6766 94.66 86.5966 93.68 86.4566 92.98H89.5966C89.5166 93.68 89.4166 94.56 89.4166 95.38C89.4166 97.6 89.4166 105.4 89.4166 106.88C89.4166 107.46 89.5166 108.86 89.5966 109.66H86.4766C86.5966 108.88 86.6766 107.68 86.6766 106.88ZM88.8166 98.14C91.4966 98.88 95.7966 100.46 97.7766 101.44L96.6366 104.2C94.3766 103.02 90.9966 101.74 88.8166 101.02V98.14ZM105.477 93.16C106.017 93.24 106.877 93.28 107.557 93.28C108.817 93.28 114.077 93.28 115.237 93.28C115.877 93.28 116.857 93.24 117.397 93.16V95.76C116.877 95.72 115.937 95.68 115.197 95.68C114.097 95.68 108.737 95.68 107.557 95.68C106.897 95.68 106.057 95.7 105.477 95.76V93.16ZM119.097 98.98C118.957 99.24 118.777 99.6 118.717 99.8C118.097 101.74 117.237 103.7 115.757 105.34C113.737 107.6 111.177 108.94 108.617 109.68L106.617 107.42C109.637 106.78 112.017 105.48 113.557 103.9C114.617 102.82 115.257 101.56 115.597 100.46C114.597 100.46 107.737 100.46 105.957 100.46C105.457 100.46 104.457 100.48 103.617 100.54V97.94C104.477 98.02 105.317 98.08 105.957 98.08C107.317 98.08 114.477 98.08 115.837 98.08C116.497 98.08 117.037 98 117.317 97.86L119.097 98.98ZM131.097 96.64C131.477 97.48 132.457 100.1 132.737 101.02L130.357 101.84C130.097 100.88 129.217 98.46 128.737 97.42L131.097 96.64ZM138.477 98.08C138.257 98.74 138.137 99.16 138.017 99.56C137.497 101.58 136.637 103.66 135.277 105.4C133.417 107.82 130.937 109.48 128.597 110.38L126.497 108.24C128.677 107.64 131.477 106.12 133.117 104.04C134.477 102.36 135.457 99.7 135.677 97.18L138.477 98.08ZM126.457 97.68C126.957 98.7 127.937 101.14 128.317 102.26L125.877 103.16C125.557 102.1 124.537 99.42 124.057 98.56L126.457 97.68ZM158.997 96.08C158.777 96.46 158.497 97 158.337 97.5C157.797 99.3 156.657 101.96 154.837 104.18C152.937 106.5 150.537 108.34 146.777 109.82L144.417 107.72C148.497 106.48 150.717 104.74 152.477 102.76C153.837 101.2 154.997 98.8 155.317 97.32H148.577L149.497 95.04C150.377 95.04 154.577 95.04 155.197 95.04C155.817 95.04 156.497 94.96 156.937 94.8L158.997 96.08ZM152.477 92.9C151.997 93.6 151.477 94.52 151.257 94.94C149.897 97.36 147.517 100.18 144.637 102.14L142.397 100.48C145.897 98.34 147.657 95.76 148.637 94.04C148.937 93.56 149.357 92.64 149.537 91.94L152.477 92.9ZM169.617 108.74C166.277 108.74 164.497 107.06 164.497 104.62C164.497 100.24 171.517 99.8 171.517 96.8C171.517 95.94 170.997 95.36 170.117 95.36C169.177 95.36 168.557 95.96 168.557 97.08C168.557 99.38 172.557 102.4 175.217 104.5C176.397 105.42 177.557 106.12 178.197 106.46L176.897 108.76C175.817 108.14 174.837 107.54 173.397 106.34C170.057 103.5 166.217 100.4 166.217 97.18C166.217 94.86 167.857 93.4 170.057 93.4C172.297 93.4 173.757 94.64 173.757 96.7C173.757 100.88 167.117 101.46 167.117 104.54C167.117 105.84 168.277 106.5 169.877 106.5C171.137 106.5 172.357 105.62 173.357 104.3C174.217 103.2 174.797 101.92 175.037 100.24H177.637C177.217 102.26 176.457 104 175.277 105.68C173.937 107.56 172.277 108.74 169.617 108.74ZM194.637 93.62C195.197 94.46 196.017 95.74 196.457 96.66L194.737 97.42C194.137 96.16 193.697 95.36 192.957 94.34L194.637 93.62ZM197.257 92.54C197.857 93.34 198.697 94.58 199.137 95.48L197.457 96.32C196.817 95.04 196.337 94.3 195.597 93.32L197.257 92.54ZM186.677 106.88C186.677 105.36 186.677 97.08 186.677 95.38C186.677 94.66 186.597 93.68 186.457 92.98H189.597C189.517 93.68 189.417 94.56 189.417 95.38C189.417 97.6 189.417 105.4 189.417 106.88C189.417 107.46 189.517 108.86 189.597 109.66H186.477C186.597 108.88 186.677 107.68 186.677 106.88ZM188.817 98.14C191.497 98.88 195.797 100.46 197.777 101.44L196.637 104.2C194.377 103.02 190.997 101.74 188.817 101.02V98.14ZM203.537 94.32C204.337 94.34 205.097 94.36 205.637 94.36C207.097 94.36 215.217 94.36 216.657 94.36C217.157 94.36 217.897 94.36 218.637 94.34C218.597 94.94 218.597 95.66 218.597 96.28C218.597 97.5 218.597 104.86 218.597 106.08C218.597 106.86 218.617 108.78 218.637 108.86H215.857C215.857 108.78 215.917 107.22 215.917 106.12C215.917 104.96 215.917 96.92 215.917 96.92H206.237C206.237 96.92 206.237 104.94 206.237 106.12C206.237 107.08 206.257 108.76 206.257 108.86H203.517C203.517 108.76 203.557 107 203.557 106.04C203.557 104.84 203.557 97.44 203.557 96.28C203.557 95.7 203.557 94.9 203.537 94.32ZM216.897 105.22V107.76H204.877V105.22H216.897ZM231.097 96.64C231.477 97.48 232.457 100.1 232.737 101.02L230.357 101.84C230.097 100.88 229.217 98.46 228.737 97.42L231.097 96.64ZM238.477 98.08C238.257 98.74 238.137 99.16 238.017 99.56C237.497 101.58 236.637 103.66 235.277 105.4C233.417 107.82 230.937 109.48 228.597 110.38L226.497 108.24C228.677 107.64 231.477 106.12 233.117 104.04C234.477 102.36 235.457 99.7 235.677 97.18L238.477 98.08ZM226.457 97.68C226.957 98.7 227.937 101.14 228.317 102.26L225.877 103.16C225.557 102.1 224.537 99.42 224.057 98.56L226.457 97.68ZM257.077 93.84C257.077 94.48 257.597 95 258.237 95C258.877 95 259.397 94.48 259.397 93.84C259.397 93.2 258.877 92.68 258.237 92.68C257.597 92.68 257.077 93.2 257.077 93.84ZM255.837 93.84C255.837 92.52 256.917 91.44 258.237 91.44C259.557 91.44 260.637 92.52 260.637 93.84C260.637 95.16 259.557 96.24 258.237 96.24C256.917 96.24 255.837 95.16 255.837 93.84ZM258.277 95.42C258.077 95.8 257.937 96.38 257.837 96.8C257.377 98.76 256.497 101.88 254.817 104.1C253.017 106.5 250.357 108.48 246.777 109.62L244.597 107.22C248.577 106.3 250.837 104.56 252.437 102.54C253.777 100.88 254.537 98.6 254.797 96.88C253.577 96.88 246.977 96.88 245.477 96.88C244.557 96.88 243.617 96.94 243.097 96.98V94.14C243.697 94.22 244.817 94.32 245.477 94.32C246.977 94.32 253.617 94.32 254.737 94.32C255.137 94.32 255.777 94.3 256.297 94.16L258.277 95.42ZM268.437 92.64C268.317 93.48 268.217 94.52 268.177 95.32C268.077 97.48 267.937 101.94 267.937 104.42C267.937 106.44 269.137 107.1 270.697 107.1C273.997 107.1 276.077 105.2 277.537 103.02L279.357 105.24C278.057 107.16 275.217 109.82 270.657 109.82C267.377 109.82 265.277 108.38 265.277 104.96C265.277 102.28 265.457 97.04 265.457 95.32C265.457 94.36 265.377 93.4 265.217 92.62L268.437 92.64ZM281.831 94.76C282.611 94.74 283.411 94.7 283.791 94.66C285.471 94.5 288.751 94.22 292.431 93.9C294.491 93.72 296.671 93.6 298.091 93.54L298.111 96.12C297.031 96.12 295.311 96.14 294.231 96.38C291.831 97.02 290.011 99.62 290.011 101.98C290.011 105.28 293.091 106.46 296.471 106.64L295.551 109.38C291.351 109.12 287.391 106.86 287.391 102.52C287.391 99.64 289.011 97.38 290.371 96.36C288.491 96.56 284.411 96.98 282.091 97.5L281.831 94.76ZM106.954 124.42H120.034V126.26H106.954V124.42ZM108.114 129.8H118.694V131.52H108.114V129.8ZM107.234 132.44H119.594V134.34H107.234V132.44ZM112.014 120.68H114.354V135.96H112.014V120.68ZM108.334 121.8H118.534V128.92H108.234V127.1H116.174V123.62H108.334V121.8ZM101.354 121.62H105.574V123.72H101.354V121.62ZM104.754 121.62H105.054L105.414 121.54L107.034 121.98C106.134 124.34 104.734 127.46 103.574 129.96L101.394 129.4C102.614 126.94 104.054 123.64 104.754 121.88V121.62ZM103.394 127.28H106.314V129.38H103.314L103.394 127.28ZM105.354 127.28H105.814L106.214 127.24L107.614 127.54C107.114 133.58 105.574 137.42 102.974 139.38C102.614 138.92 101.694 138.06 101.174 137.76C103.654 136.04 104.974 132.8 105.354 127.72V127.28ZM103.514 130.52C105.134 135.7 108.794 136.52 113.514 136.54C114.734 136.54 118.814 136.54 120.274 136.48C119.914 137.02 119.494 138.12 119.354 138.82H113.454C107.654 138.82 103.714 137.64 101.634 131.18L103.514 130.52ZM131.034 120.52L133.194 120.94C132.474 124.26 131.154 127.44 129.534 129.44C129.154 129.08 128.214 128.4 127.714 128.1C129.314 126.34 130.434 123.48 131.034 120.52ZM137.754 123.64H140.014C140.014 123.64 139.994 124.42 139.974 124.72C139.594 133.7 139.234 136.98 138.474 137.98C138.014 138.66 137.574 138.9 136.914 139.02C136.354 139.14 135.514 139.14 134.634 139.1C134.574 138.42 134.334 137.4 133.974 136.74C134.714 136.82 135.394 136.84 135.774 136.84C136.074 136.84 136.254 136.74 136.494 136.46C137.054 135.76 137.434 132.66 137.754 124.16V123.64ZM131.634 123.64H138.774V125.86H130.534L131.634 123.64ZM133.034 124.36L134.774 125.22C133.974 128.66 132.214 132.62 130.034 134.66C129.574 134.2 128.814 133.64 128.194 133.3C130.514 131.48 132.274 127.72 133.034 124.36ZM135.814 124.58L137.674 125.44C136.714 130.64 134.594 136.08 131.294 138.84C130.834 138.36 129.994 137.76 129.334 137.44C132.834 134.94 134.894 129.72 135.814 124.58ZM121.234 131.42C123.194 130.98 126.114 130.16 128.874 129.38L129.194 131.5C126.674 132.28 123.934 133.1 121.814 133.72L121.234 131.42ZM124.834 120.52H127.034V139.3H124.834V120.52ZM122.194 121.66L124.194 122C123.934 124.64 123.454 127.44 122.734 129.22C122.374 128.94 121.514 128.38 121.034 128.14C121.674 126.54 122.014 124.04 122.194 121.66ZM122.734 124.38H128.694V126.68H122.294L122.734 124.38ZM150.434 121.46C150.274 122.2 150.014 123.38 149.454 124.82C149.034 125.8 148.454 126.94 147.894 127.74C148.434 127.5 149.494 127.36 150.174 127.36C151.834 127.36 153.094 128.34 153.094 130.2C153.094 131.28 153.154 133.46 153.174 134.72H150.774C150.854 133.78 150.894 132.08 150.874 131C150.874 129.72 150.074 129.3 149.234 129.3C148.134 129.3 146.874 129.96 146.114 130.68C145.514 131.28 144.954 132 144.274 132.88L142.134 131.28C144.694 128.92 146.234 126.76 147.074 124.56C147.474 123.48 147.734 122.26 147.794 121.24L150.434 121.46ZM142.894 123.32C143.914 123.46 145.394 123.54 146.414 123.54C149.054 123.54 152.674 123.4 155.574 122.88L155.554 125.2C152.734 125.6 148.714 125.78 146.274 125.78C145.454 125.78 143.994 125.74 142.894 125.64V123.32ZM158.734 129C158.114 129.18 157.034 129.58 156.354 129.84C155.054 130.34 153.254 131.06 151.374 132.02C149.554 132.96 148.574 133.82 148.574 134.92C148.574 136.02 149.534 136.32 151.474 136.32C153.174 136.32 155.414 136.1 157.174 135.74L157.094 138.32C155.754 138.5 153.314 138.68 151.414 138.68C148.294 138.68 145.954 137.9 145.954 135.32C145.954 132.54 148.814 130.9 151.214 129.7C153.054 128.74 154.314 128.26 155.514 127.7C156.294 127.36 156.994 127.04 157.754 126.66L158.734 129ZM174.534 129.76L176.294 130.48C175.034 131.74 173.054 132.68 171.174 133.28C170.894 132.84 170.354 132.28 169.914 131.92C171.594 131.48 173.534 130.66 174.534 129.76ZM176.494 131.58L178.214 132.28C176.614 134.02 173.954 135.22 171.194 135.92C170.934 135.48 170.474 134.82 170.054 134.42C172.554 133.92 175.174 132.92 176.494 131.58ZM177.954 133.84L179.994 134.68C177.914 137.14 174.334 138.46 170.234 139.22C169.994 138.64 169.494 137.84 169.034 137.34C172.734 136.84 176.234 135.74 177.954 133.84ZM171.814 120.5L173.994 121.04C173.094 123.42 171.574 125.68 169.994 127.1C169.594 126.72 168.714 126.02 168.194 125.72C169.754 124.5 171.094 122.54 171.814 120.5ZM171.794 122.54H179.854V124.46H170.634L171.794 122.54ZM176.554 123.02L178.794 123.5C177.214 127.38 173.954 129.58 169.854 130.84C169.594 130.36 168.874 129.44 168.454 129.02C172.374 128.08 175.374 126.24 176.554 123.02ZM171.774 123.64C173.034 125.86 176.034 128.04 180.514 128.76C180.074 129.22 179.474 130.1 179.194 130.68C174.694 129.68 171.674 127.1 170.274 124.58L171.774 123.64ZM166.714 123.08H168.794V135.96H166.714V123.08ZM164.874 120.58L167.094 121.24C165.954 124.74 164.114 128.52 162.054 130.92C161.874 130.34 161.274 128.96 160.914 128.32C162.514 126.44 163.994 123.52 164.874 120.58ZM163.314 126.04L165.534 123.84L165.594 123.88V139.28H163.314V126.04ZM193.234 123.2H195.434V132.24H193.234V123.2ZM196.194 120.48L198.494 121.06C197.934 121.86 197.394 122.64 196.994 123.18L195.294 122.64C195.634 122.02 196.014 121.1 196.194 120.48ZM196.974 128.96L198.954 129.56C198.454 130.34 197.994 131.06 197.634 131.56L196.094 131.02C196.374 130.42 196.794 129.54 196.974 128.96ZM190.514 121.16L192.314 120.54C192.734 121.14 193.154 121.98 193.314 122.54L191.414 123.28C191.294 122.68 190.914 121.8 190.514 121.16ZM189.954 129.62L191.734 129.1C192.074 129.68 192.414 130.48 192.534 130.98L190.674 131.6C190.574 131.06 190.294 130.24 189.954 129.62ZM189.134 122.72H199.714V124.46H189.134V122.72ZM188.834 127.58H199.834V129.32H188.834V127.58ZM188.494 131.16H200.054V132.9H188.494V131.16ZM190.954 136.92H197.814V138.64H190.954V136.92ZM189.794 125.18H199.034V126.86H189.794V125.18ZM189.834 133.64H199.054V139.24H196.834V135.36H191.974V139.28H189.834V133.64ZM184.294 120.54L186.314 121.24C185.514 122.8 184.594 124.58 183.854 125.7L182.294 125.06C182.994 123.86 183.854 121.92 184.294 120.54ZM186.434 122.9L188.334 123.76C186.934 126.02 185.114 128.8 183.654 130.5L182.314 129.76C183.734 127.96 185.454 125.04 186.434 122.9ZM181.194 125.14L182.374 123.56C183.394 124.52 184.594 125.84 185.074 126.74L183.814 128.54C183.374 127.56 182.194 126.14 181.194 125.14ZM185.834 127.6L187.414 126.96C188.134 128.34 188.834 130.16 189.014 131.34L187.334 132.06C187.174 130.9 186.534 129.02 185.834 127.6ZM181.134 129.3C182.854 129.22 185.294 129.06 187.694 128.9L187.714 130.88C185.494 131.06 183.174 131.22 181.394 131.36L181.134 129.3ZM186.154 132.68L187.754 132.2C188.234 133.34 188.634 134.84 188.754 135.82L187.074 136.36C186.994 135.36 186.614 133.84 186.154 132.68ZM181.994 132.28L183.854 132.6C183.654 134.5 183.214 136.48 182.654 137.76C182.274 137.5 181.434 137.12 180.974 136.94C181.534 135.76 181.834 133.96 181.994 132.28ZM184.054 130.36H186.074V139.3H184.054V130.36ZM208.134 121.64C208.014 122.48 207.914 123.52 207.874 124.32C207.774 126.48 207.634 130.94 207.634 133.42C207.634 135.44 208.834 136.1 210.394 136.1C213.694 136.1 215.774 134.2 217.234 132.02L219.054 134.24C217.754 136.16 214.914 138.82 210.354 138.82C207.074 138.82 204.974 137.38 204.974 133.96C204.974 131.28 205.154 126.04 205.154 124.32C205.154 123.36 205.074 122.4 204.914 121.62L208.134 121.64ZM232.094 121.48C232.014 122.06 231.954 123.04 231.914 123.82C231.894 124.78 231.914 125.92 231.914 127.06C231.914 129.28 232.294 133.58 232.294 135.26C232.294 137.04 231.374 138.72 228.034 138.72C225.154 138.72 222.814 137.78 222.814 135.08C222.814 132.98 224.614 131.34 228.274 131.34C232.454 131.34 236.194 133.44 238.234 135.32L236.694 137.72C234.714 135.72 231.534 133.56 227.914 133.56C226.354 133.56 225.414 134.08 225.414 134.96C225.414 135.92 226.414 136.3 227.814 136.3C229.094 136.3 229.574 135.72 229.574 134.4C229.574 133 229.334 128.96 229.334 127.06C229.334 125.86 229.314 124.68 229.294 123.82C229.274 122.82 229.214 121.96 229.094 121.48H232.094ZM230.574 125.3C231.754 125.3 235.254 125.22 237.494 124.98L237.594 127.36C235.334 127.56 231.814 127.66 230.574 127.66V125.3ZM254.394 130.96C254.394 129.64 253.374 128.58 251.494 128.58C249.294 128.58 247.294 129.24 246.294 129.54C245.714 129.72 244.914 130.02 244.354 130.26L243.594 127.38C244.274 127.34 245.114 127.18 245.774 127.04C247.234 126.72 249.474 126.14 251.834 126.14C254.994 126.14 257.214 127.94 257.214 131.06C257.214 135.36 253.234 138 247.674 138.78L246.254 136.28C251.214 135.72 254.394 134.1 254.394 130.96ZM246.534 121.36C248.874 121.86 253.414 122.26 255.514 122.26L255.134 124.72C252.794 124.56 248.454 124.16 246.154 123.76L246.534 121.36ZM269.674 132.36L269.154 125.52L269.054 122.54H272.354L272.254 125.52L271.734 132.36H269.674ZM270.714 137.7C269.674 137.7 268.934 136.96 268.934 135.92C268.934 134.88 269.694 134.16 270.714 134.16C271.714 134.16 272.474 134.88 272.474 135.92C272.474 136.96 271.714 137.7 270.714 137.7Z" fill="#2F3B53"/>
<defs>
<clipPath id="clip0_1081_25">
<rect width="55" height="63" fill="white" transform="translate(325.786 67.1899)"/>
</clipPath>
</defs>
</svg>
