<svg width="246" height="35" viewBox="0 0 246 35" fill="none" xmlns="http://www.w3.org/2000/svg">
<path d="M14.2787 5.212C14.1617 5.355 13.9537 5.602 13.8497 5.758C13.2907 6.707 12.0557 8.358 10.6647 9.346L9.5857 8.475C10.7297 7.812 11.8607 6.525 12.2377 5.784H5.1137C4.5937 5.784 4.1387 5.823 3.5797 5.862V4.419C4.0607 4.484 4.5937 4.536 5.1137 4.536H12.3807C12.6667 4.536 13.2517 4.497 13.4597 4.445L14.2787 5.212ZM9.0267 6.941C9.0267 10.334 8.8317 12.83 5.4127 14.585L4.2167 13.61C4.5937 13.48 5.0487 13.272 5.4647 12.973C7.3237 11.777 7.6227 10.139 7.6227 7.981C7.6227 7.63 7.6097 7.318 7.5447 6.941H9.0267ZM15.3732 9.151C17.6482 8.54 19.5982 7.656 21.0412 6.759C22.3932 5.927 23.7712 4.718 24.6552 3.665L25.7472 4.705C24.7592 5.706 23.5372 6.707 22.2502 7.552V12.947C22.2502 13.48 22.2762 14.195 22.3412 14.481H20.7292C20.7682 14.195 20.8072 13.48 20.8072 12.947V8.423C19.4422 9.164 17.7262 9.918 16.0102 10.438L15.3732 9.151ZM29.5302 4.952C29.9852 4.991 30.6092 5.03 31.0382 5.03H37.4992C37.8502 5.03 38.3052 5.017 38.5392 5.004C38.5262 5.29 38.5132 5.758 38.5132 6.096V12.817C38.5132 13.272 38.5392 13.909 38.5652 14.195H37.0832C37.0832 14.013 37.0962 13.766 37.0962 13.493H30.9342C30.4012 13.493 29.7512 13.519 29.3742 13.545V12.076C29.7512 12.102 30.3232 12.141 30.8822 12.141H37.1092V6.343H31.0382C30.5312 6.343 29.8682 6.369 29.5302 6.395V4.952ZM43.4142 4.315C44.3242 4.926 46.0142 6.278 46.7422 7.032L45.7152 8.085C45.0392 7.396 43.4272 5.979 42.4652 5.329L43.4142 4.315ZM42.0752 13.012C44.2462 12.687 45.9362 11.959 47.1842 11.192C49.2772 9.905 50.9022 7.955 51.6952 6.291L52.4882 7.708C51.5522 9.398 49.9532 11.166 47.9252 12.414C46.6122 13.22 44.9612 13.987 42.9462 14.351L42.0752 13.012ZM59.5212 3.652C59.4432 4.016 59.3392 4.497 59.1702 5.056C60.4442 5.004 61.8092 4.887 62.9922 4.679V5.888C61.7182 6.07 60.1192 6.187 58.7152 6.226C58.4292 6.837 58.0782 7.448 57.7142 7.942C58.1432 7.695 58.8712 7.552 59.3782 7.552C60.1972 7.552 60.8732 7.929 61.1202 8.657C61.9262 8.28 62.5892 8.007 63.2002 7.721C63.6422 7.526 64.0192 7.357 64.4352 7.149L64.9682 8.345C64.5912 8.462 64.0322 8.67 63.6422 8.826C62.9792 9.086 62.1342 9.424 61.2242 9.84C61.2372 10.581 61.2502 11.621 61.2632 12.245H60.0282C60.0542 11.79 60.0672 11.049 60.0802 10.412C58.9622 11.023 58.2602 11.621 58.2602 12.388C58.2602 13.272 59.1052 13.454 60.4182 13.454C61.4712 13.454 62.8882 13.324 64.0322 13.116L63.9932 14.429C63.0572 14.546 61.5492 14.663 60.3792 14.663C58.4422 14.663 56.9342 14.208 56.9342 12.596C56.9342 10.997 58.4942 9.983 60.0022 9.216C59.8332 8.761 59.4172 8.566 58.9362 8.566C58.1432 8.566 57.3242 8.982 56.7782 9.502C56.4012 9.866 56.0242 10.347 55.5952 10.893L54.4772 10.061C55.9982 8.631 56.8822 7.37 57.4152 6.265C57.2852 6.265 57.1552 6.265 57.0382 6.265C56.4922 6.265 55.5952 6.239 54.8672 6.187V4.965C55.5562 5.069 56.4792 5.108 57.1032 5.108C57.3502 5.108 57.6102 5.108 57.8702 5.095C58.0392 4.562 58.1432 4.016 58.1692 3.548L59.5212 3.652ZM75.0562 4.51C75.4072 5.017 75.9532 5.862 76.2392 6.473L75.3292 6.876C74.9912 6.135 74.6272 5.511 74.1852 4.887L75.0562 4.51ZM76.6942 3.834C77.0452 4.315 77.6042 5.16 77.9162 5.745L77.0192 6.187C76.6422 5.446 76.2782 4.848 75.8232 4.237L76.6942 3.834ZM70.2332 12.986V5.472C70.2332 5.056 70.1942 4.445 70.1162 4.016H71.7152C71.6762 4.445 71.6112 5.004 71.6112 5.472C71.6112 5.953 71.6112 6.681 71.6112 7.5C73.3272 8.007 75.8232 8.943 77.1102 9.58L76.5382 10.984C75.1602 10.256 73.0412 9.437 71.6112 8.969C71.6242 10.763 71.6242 12.557 71.6242 12.986C71.6242 13.389 71.6632 14.182 71.7152 14.65H70.1292C70.1942 14.195 70.2332 13.48 70.2332 12.986ZM82.3492 4.198C82.6872 4.237 83.1682 4.263 83.5972 4.263H88.6542C89.0702 4.263 89.6032 4.237 89.9282 4.198V5.537C89.6032 5.511 89.0832 5.498 88.6412 5.498H83.5972C83.1812 5.498 82.7132 5.511 82.3492 5.537V4.198ZM90.9552 7.773C90.8772 7.916 90.7732 8.111 90.7472 8.228C90.3832 9.489 89.7982 10.802 88.8362 11.868C87.4972 13.35 85.8462 14.169 84.1822 14.637L83.1682 13.467C85.0662 13.077 86.6522 12.232 87.7182 11.127C88.4592 10.36 88.9272 9.385 89.1612 8.527H82.5442C82.2322 8.527 81.6602 8.54 81.1662 8.579V7.227C81.6732 7.279 82.1672 7.318 82.5442 7.318H89.2002C89.5512 7.318 89.8632 7.266 90.0322 7.201L90.9552 7.773ZM98.7942 6.408C99.0282 6.954 99.6652 8.657 99.8342 9.229L98.6122 9.671C98.4562 9.06 97.8712 7.435 97.5722 6.811L98.7942 6.408ZM103.539 7.24C103.422 7.565 103.344 7.799 103.292 8.007C102.941 9.398 102.382 10.776 101.472 11.933C100.276 13.467 98.6642 14.52 97.1952 15.079L96.1162 13.974C97.5852 13.558 99.3012 12.57 100.38 11.231C101.277 10.113 101.927 8.423 102.109 6.785L103.539 7.24ZM95.7652 7.084C96.0642 7.682 96.7142 9.32 96.9612 10.035L95.7262 10.49C95.5052 9.801 94.8292 8.033 94.5432 7.526L95.7652 7.084ZM112.574 3.886C112.314 4.276 112.041 4.783 111.898 5.043C111.846 5.147 111.781 5.264 111.716 5.368H114.836C115.2 5.368 115.564 5.329 115.811 5.238L116.877 5.888C116.747 6.096 116.604 6.421 116.513 6.681C116.162 7.929 115.395 9.671 114.225 11.101C113.029 12.583 111.456 13.766 109.025 14.702L107.816 13.623C110.325 12.869 111.872 11.725 113.029 10.373C113.991 9.268 114.771 7.63 115.005 6.538H110.949C110.117 7.656 109.012 8.813 107.647 9.723L106.503 8.865C108.765 7.513 109.974 5.706 110.585 4.562C110.741 4.302 110.962 3.769 111.066 3.392L112.574 3.886ZM122.142 11.465C122.142 12.453 122.974 12.986 124.118 12.986C124.781 12.986 125.405 12.661 125.977 12.128C125.08 11.348 124.17 10.516 123.429 9.671C122.714 10.178 122.142 10.711 122.142 11.465ZM123.182 6.551C123.182 7.058 123.442 7.604 123.845 8.176C124.69 7.656 125.366 7.123 125.366 6.317C125.366 5.732 124.989 5.277 124.365 5.277C123.65 5.277 123.182 5.758 123.182 6.551ZM129.37 12.973L128.681 14.169C128.161 13.857 127.615 13.506 126.926 12.947C126.172 13.701 125.249 14.156 123.988 14.156C121.986 14.156 120.79 13.09 120.79 11.517C120.79 10.23 121.739 9.476 122.779 8.826C122.272 8.098 121.96 7.357 121.96 6.616C121.96 5.16 122.974 4.25 124.326 4.25C125.678 4.25 126.536 5.03 126.536 6.265C126.536 7.539 125.548 8.306 124.508 8.982C125.197 9.723 126.042 10.464 126.835 11.114C127.277 10.451 127.576 9.697 127.719 8.761H129.071C128.837 9.931 128.408 10.945 127.784 11.894C128.421 12.388 129.006 12.765 129.37 12.973ZM140.056 4.51C140.407 5.017 140.953 5.862 141.239 6.473L140.329 6.876C139.991 6.135 139.627 5.511 139.185 4.887L140.056 4.51ZM141.694 3.834C142.045 4.315 142.604 5.16 142.916 5.745L142.019 6.187C141.642 5.446 141.278 4.848 140.823 4.237L141.694 3.834ZM135.233 12.986V5.472C135.233 5.056 135.194 4.445 135.116 4.016H136.715C136.676 4.445 136.611 5.004 136.611 5.472C136.611 5.953 136.611 6.681 136.611 7.5C138.327 8.007 140.823 8.943 142.11 9.58L141.538 10.984C140.16 10.256 138.041 9.437 136.611 8.969C136.624 10.763 136.624 12.557 136.624 12.986C136.624 13.389 136.663 14.182 136.715 14.65H135.129C135.194 14.195 135.233 13.48 135.233 12.986ZM146.166 4.952C146.686 4.978 147.102 4.978 147.427 4.978H154.486C154.785 4.978 155.253 4.978 155.682 4.965C155.656 5.316 155.656 5.719 155.656 6.083V12.466C155.656 12.921 155.682 14.039 155.682 14.143H154.265C154.278 14.078 154.278 13.779 154.291 13.415H147.557C147.557 13.766 147.557 14.078 147.57 14.143H146.153C146.166 14.026 146.192 12.986 146.192 12.466V6.083C146.192 5.745 146.192 5.29 146.166 4.952ZM147.544 6.278V12.115H154.291V6.278H147.544ZM163.794 6.408C164.028 6.954 164.665 8.657 164.834 9.229L163.612 9.671C163.456 9.06 162.871 7.435 162.572 6.811L163.794 6.408ZM168.539 7.24C168.422 7.565 168.344 7.799 168.292 8.007C167.941 9.398 167.382 10.776 166.472 11.933C165.276 13.467 163.664 14.52 162.195 15.079L161.116 13.974C162.585 13.558 164.301 12.57 165.38 11.231C166.277 10.113 166.927 8.423 167.109 6.785L168.539 7.24ZM160.765 7.084C161.064 7.682 161.714 9.32 161.961 10.035L160.726 10.49C160.505 9.801 159.829 8.033 159.543 7.526L160.765 7.084ZM180.85 4.575C180.85 5.017 181.214 5.381 181.656 5.381C182.098 5.381 182.475 5.017 182.475 4.575C182.475 4.133 182.098 3.756 181.656 3.756C181.214 3.756 180.85 4.133 180.85 4.575ZM180.161 4.575C180.161 3.756 180.824 3.08 181.656 3.08C182.488 3.08 183.164 3.756 183.164 4.575C183.164 5.407 182.488 6.07 181.656 6.07C181.539 6.07 181.422 6.057 181.305 6.031C181.292 6.109 181.266 6.2 181.253 6.278C180.954 7.604 180.356 9.658 179.303 11.049C178.12 12.583 176.495 13.831 174.142 14.572L173.024 13.35C175.559 12.726 177.028 11.608 178.107 10.256C178.991 9.112 179.55 7.448 179.732 6.265H173.336C172.79 6.265 172.27 6.291 171.932 6.317V4.861C172.296 4.9 172.907 4.952 173.336 4.952H179.641C179.797 4.952 179.992 4.952 180.2 4.926C180.174 4.809 180.161 4.692 180.161 4.575ZM187.987 3.795C187.909 4.276 187.857 4.822 187.844 5.29C187.779 6.733 187.688 9.736 187.688 11.53C187.688 12.908 188.533 13.376 189.664 13.376C191.939 13.376 193.304 12.089 194.24 10.698L195.163 11.829C194.305 13.064 192.55 14.741 189.638 14.741C187.662 14.741 186.336 13.896 186.336 11.738C186.336 9.892 186.466 6.538 186.466 5.29C186.466 4.744 186.414 4.211 186.323 3.782L187.987 3.795ZM197.019 5.225C197.526 5.212 197.981 5.186 198.228 5.16C199.177 5.069 201.491 4.848 203.883 4.653C205.274 4.536 206.574 4.458 207.471 4.419V5.732C206.756 5.732 205.625 5.745 204.949 5.927C203.22 6.447 202.063 8.293 202.063 9.84C202.063 12.206 204.273 12.999 206.431 13.09L205.95 14.468C203.402 14.351 200.737 12.986 200.737 10.113C200.737 8.163 201.894 6.577 202.947 5.888C201.634 6.031 198.605 6.343 197.162 6.655L197.019 5.225ZM55.7222 23.978V24.719H57.3082V23.978H55.7222ZM57.3082 26.448V25.668H55.7222V26.448H57.3082ZM54.5392 26.448V25.668H51.1202V24.719H54.5392V23.978H52.0172V23.029H54.5392V22.197H55.7222V23.029H58.4912V24.719H59.4662V25.668H58.4912V27.397H55.7222V28.177H58.6082V29.087H55.7222V29.919H59.1802V30.894H55.7222V32.116H54.5392V30.894H51.2892V29.919H54.5392V29.087H51.8612V28.177H54.5392V27.397H51.9392V26.448H54.5392ZM50.7562 26.487L51.4712 26.656C51.3022 28.502 50.9642 30.01 50.4572 31.206C51.7052 32.298 53.4082 32.532 55.4362 32.545C56.0732 32.545 58.7902 32.545 59.5702 32.519C59.3882 32.792 59.1802 33.338 59.1022 33.689H55.4102C53.1352 33.689 51.3152 33.403 49.9502 32.246C49.5082 33.013 48.9882 33.611 48.3772 34.053C48.1822 33.819 47.7272 33.39 47.4542 33.221C48.1172 32.766 48.6762 32.155 49.1182 31.349C48.6372 30.699 48.2212 29.867 47.8962 28.827L48.8452 28.489C49.0532 29.178 49.3132 29.75 49.6252 30.231C49.8982 29.464 50.1062 28.58 50.2362 27.579H48.9882L48.7672 28.034L47.6752 27.735C48.2862 26.565 48.9882 25.057 49.4952 23.926H47.5712V22.873H50.0542L50.2362 22.821L51.0682 23.042C50.6652 24.043 50.0802 25.317 49.5082 26.526H50.5612L50.7562 26.487ZM65.3422 27.813L65.4982 28.879C64.9912 29.048 64.4842 29.204 63.9772 29.36V34.014H62.8592V29.711L60.8182 30.335L60.5062 29.178C61.1562 29.009 61.9752 28.788 62.8592 28.541V25.811H61.8192C61.6632 26.5 61.4812 27.124 61.2862 27.618C61.0912 27.462 60.6492 27.202 60.4022 27.072C60.8572 26.019 61.0912 24.381 61.2212 22.834L62.2482 23.003C62.1832 23.562 62.1182 24.121 62.0402 24.667H62.8592V22.093H63.9772V24.667H65.1862V25.811H63.9772V28.203L65.3422 27.813ZM67.4222 24.186H72.3882C72.3882 24.186 72.3882 24.602 72.3752 24.758C72.0892 30.595 71.8422 32.649 71.3352 33.286C71.0622 33.676 70.8022 33.793 70.3862 33.858C70.0352 33.923 69.4892 33.91 68.9172 33.884C68.9042 33.533 68.7742 33.039 68.5792 32.701C69.1252 32.753 69.6062 32.753 69.8532 32.753C70.0612 32.753 70.1912 32.701 70.3212 32.519C70.6982 32.09 70.9712 30.244 71.2052 25.304H70.8412C70.1782 28.658 68.7872 32.077 66.6812 33.767C66.4472 33.546 66.0182 33.234 65.6802 33.052C67.7732 31.557 69.1382 28.45 69.7882 25.304H68.9172C68.3452 27.488 67.2142 29.867 65.8362 31.089C65.6152 30.868 65.2252 30.569 64.9002 30.4C66.2392 29.36 67.3052 27.306 67.9032 25.304H66.9802C66.5772 26.24 66.1092 27.059 65.5762 27.696C65.3812 27.527 64.9002 27.163 64.6402 27.007C65.6932 25.863 66.4342 24.017 66.8632 22.093L67.9552 22.301C67.8122 22.951 67.6172 23.588 67.4222 24.186ZM79.1482 22.652C79.0702 23.016 78.9662 23.497 78.7972 24.056C80.0712 24.004 81.4362 23.887 82.6192 23.679V24.888C81.3452 25.07 79.7462 25.187 78.3422 25.226C78.0562 25.837 77.7052 26.448 77.3412 26.942C77.7702 26.695 78.4982 26.552 79.0052 26.552C79.8242 26.552 80.5002 26.929 80.7472 27.657C81.5532 27.28 82.2162 27.007 82.8272 26.721C83.2692 26.526 83.6462 26.357 84.0622 26.149L84.5952 27.345C84.2182 27.462 83.6592 27.67 83.2692 27.826C82.6062 28.086 81.7612 28.424 80.8512 28.84C80.8642 29.581 80.8772 30.621 80.8902 31.245H79.6552C79.6812 30.79 79.6942 30.049 79.7072 29.412C78.5892 30.023 77.8872 30.621 77.8872 31.388C77.8872 32.272 78.7322 32.454 80.0452 32.454C81.0982 32.454 82.5152 32.324 83.6592 32.116L83.6202 33.429C82.6842 33.546 81.1762 33.663 80.0062 33.663C78.0692 33.663 76.5612 33.208 76.5612 31.596C76.5612 29.997 78.1212 28.983 79.6292 28.216C79.4602 27.761 79.0442 27.566 78.5632 27.566C77.7702 27.566 76.9512 27.982 76.4052 28.502C76.0282 28.866 75.6512 29.347 75.2222 29.893L74.1042 29.061C75.6252 27.631 76.5092 26.37 77.0422 25.265C76.9122 25.265 76.7822 25.265 76.6652 25.265C76.1192 25.265 75.2222 25.239 74.4942 25.187V23.965C75.1832 24.069 76.1062 24.108 76.7302 24.108C76.9772 24.108 77.2372 24.108 77.4972 24.095C77.6662 23.562 77.7702 23.016 77.7962 22.548L79.1482 22.652ZM88.9502 22.158L90.0682 22.47C89.7822 23.315 89.4442 24.173 89.0672 25.005V34.014H87.9232V27.124C87.5852 27.657 87.2472 28.138 86.8832 28.567C86.7792 28.268 86.4542 27.592 86.2722 27.293C87.3512 26.032 88.3522 24.108 88.9502 22.158ZM91.0692 25.694V27.657C92.1352 27.397 93.1102 27.02 93.9422 26.513C93.4612 26.11 93.0712 25.681 92.7462 25.239C92.4342 25.629 92.1092 25.967 91.7842 26.266C91.6282 26.123 91.3162 25.876 91.0692 25.694ZM96.0612 24.433H93.3312L93.3182 24.446C93.6692 24.966 94.1502 25.473 94.7742 25.928C95.2942 25.499 95.7232 25.005 96.0612 24.433ZM98.3362 24.433H97.3222C96.9062 25.239 96.3602 25.928 95.7102 26.513C96.5552 26.968 97.5692 27.319 98.7522 27.527C98.5442 27.774 98.2322 28.216 98.0892 28.515C96.8152 28.229 95.7362 27.748 94.8392 27.176C93.9292 27.8 92.8632 28.268 91.7062 28.619C91.5892 28.398 91.2902 28.008 91.0692 27.761V31.882H90.0162V23.666H91.0692V25.395C92.0052 24.563 92.8242 23.354 93.2922 22.08L94.3972 22.353C94.2542 22.73 94.0852 23.094 93.8902 23.458H98.3362V24.433ZM96.2562 29.178L97.1532 29.542C96.1522 30.647 94.4362 31.427 92.6942 31.895C92.5512 31.661 92.3042 31.323 92.0962 31.115C93.7082 30.751 95.3982 30.075 96.2562 29.178ZM95.0212 27.969L95.9312 28.346C95.1252 29.152 93.8252 29.802 92.6162 30.192C92.4602 29.984 92.1872 29.672 91.9532 29.49C93.0712 29.178 94.3452 28.619 95.0212 27.969ZM97.3482 30.621L98.3882 31.05C97.0882 32.584 94.7222 33.481 92.0312 33.962C91.9012 33.676 91.6412 33.26 91.4072 33.013C93.9162 32.649 96.2172 31.895 97.3482 30.621ZM100.091 29.529L101.053 29.698C100.897 30.92 100.611 32.168 100.221 32.987C100.039 32.857 99.5842 32.649 99.3632 32.571C99.7402 31.791 99.9742 30.634 100.091 29.529ZM102.665 29.737L103.497 29.477C103.809 30.218 104.069 31.18 104.147 31.817L103.276 32.09C103.211 31.44 102.964 30.478 102.665 29.737ZM109.646 31.336H106.058V32.675H109.646V31.336ZM104.966 34.014V30.439H110.79V34.001H109.646V33.572H106.058V34.014H104.966ZM107.241 27.527H106.071C106.292 27.93 106.5 28.45 106.591 28.775L106.175 28.918H107.241V27.527ZM109.555 27.527H108.359V28.918H109.269L108.944 28.801C109.126 28.45 109.399 27.917 109.555 27.527ZM109.854 28.918H111.453V29.828H104.069V29.087L103.445 29.347C103.406 29.126 103.341 28.853 103.25 28.567L102.431 28.619V34.014H101.391V28.697C100.728 28.736 100.091 28.788 99.5452 28.814L99.4282 27.761L100.403 27.709C100.611 27.423 100.845 27.111 101.066 26.76C100.689 26.175 100.052 25.447 99.4932 24.888L100.091 24.108C100.221 24.225 100.338 24.342 100.468 24.472C100.871 23.744 101.274 22.795 101.508 22.093L102.548 22.47C102.093 23.367 101.547 24.42 101.105 25.135C101.313 25.369 101.508 25.603 101.664 25.824C102.132 25.057 102.574 24.251 102.886 23.588L103.861 24.03C103.159 25.187 102.275 26.578 101.469 27.644L102.899 27.566C102.769 27.215 102.6 26.851 102.444 26.539L103.263 26.214C103.731 27.059 104.173 28.177 104.329 28.918H105.603C105.512 28.567 105.317 28.112 105.148 27.774L105.928 27.527H104.29V26.643H107.241V25.967H104.888V25.083H107.241V24.42H104.472V23.536H105.98C105.863 23.185 105.681 22.756 105.46 22.431L106.383 22.119C106.656 22.509 106.929 23.042 107.033 23.419L106.721 23.536H108.71L108.515 23.471C108.736 23.068 109.009 22.47 109.139 22.08L110.296 22.392C110.036 22.795 109.776 23.211 109.542 23.536H111.245V24.42H108.359V25.083H110.803V25.967H108.359V26.643H111.297V27.527H109.958L110.608 27.735C110.348 28.151 110.075 28.593 109.854 28.918ZM116.614 22.795C116.536 23.276 116.484 23.822 116.471 24.29C116.406 25.733 116.315 28.736 116.315 30.53C116.315 31.908 117.16 32.376 118.291 32.376C120.566 32.376 121.931 31.089 122.867 29.698L123.79 30.829C122.932 32.064 121.177 33.741 118.265 33.741C116.289 33.741 114.963 32.896 114.963 30.738C114.963 28.892 115.093 25.538 115.093 24.29C115.093 23.744 115.041 23.211 114.95 22.782L116.614 22.795ZM127.859 31.44C127.859 32.116 128.548 32.441 129.653 32.441C130.55 32.441 130.953 32.025 130.953 31.141C130.953 30.972 130.953 30.751 130.94 30.491C130.55 30.413 130.16 30.374 129.757 30.374C128.548 30.374 127.859 30.777 127.859 31.44ZM132.214 22.691C132.162 23.016 132.123 23.653 132.11 24.095C132.097 24.42 132.11 24.823 132.11 25.239C133.15 25.226 134.736 25.161 135.854 25.031L135.906 26.253C134.775 26.37 133.163 26.435 132.11 26.461C132.11 27.293 132.188 28.489 132.24 29.555C133.904 30.023 135.334 30.933 136.244 31.778L135.464 33C134.671 32.207 133.566 31.388 132.305 30.894C132.318 31.154 132.318 31.388 132.318 31.583C132.318 32.688 131.694 33.676 129.77 33.676C127.95 33.676 126.533 33.091 126.533 31.492C126.533 30.231 127.625 29.23 129.926 29.23C130.251 29.23 130.576 29.256 130.888 29.282C130.849 28.255 130.797 27.098 130.797 26.357C130.797 25.59 130.784 24.654 130.784 24.095C130.771 23.549 130.732 22.977 130.654 22.691H132.214ZM147.177 28.71C147.177 27.709 146.384 26.968 145.097 26.968C143.615 26.968 142.341 27.41 141.613 27.618C141.223 27.735 140.794 27.904 140.456 28.034L140.053 26.552C140.443 26.513 140.937 26.435 141.34 26.344C142.276 26.123 143.745 25.733 145.253 25.733C147.19 25.733 148.594 26.825 148.594 28.762C148.594 31.557 146.046 33.208 142.562 33.715L141.821 32.454C145.006 32.064 147.177 30.907 147.177 28.71ZM141.86 22.678C143.329 23.003 146.215 23.263 147.528 23.276L147.32 24.537C145.851 24.446 143.147 24.186 141.665 23.926L141.86 22.678ZM156.979 29.776L156.68 24.992L156.641 23.276H158.383L158.344 24.992L158.045 29.776H156.979ZM157.512 33.091C156.966 33.091 156.537 32.688 156.537 32.103C156.537 31.518 156.966 31.115 157.512 31.115C158.058 31.115 158.487 31.518 158.487 32.103C158.487 32.688 158.058 33.091 157.512 33.091Z" fill="#2F3B53"/>
<g clip-path="url(#clip0_2624_578)">
<path d="M228.056 6.12311H221.638C218.79 6.12311 216.48 8.43018 216.48 11.2761V17.6873C216.48 20.5332 218.79 22.8403 221.638 22.8403H228.056C230.904 22.8403 233.213 20.5332 233.213 17.6873V11.2761C233.213 8.43018 230.904 6.12311 228.056 6.12311Z" stroke="#2F3B53" stroke-width="2" stroke-miterlimit="10" stroke-dasharray="3.02 3.02"/>
<path d="M240.195 1.16669H233.803C230.966 1.16669 228.666 3.37478 228.666 6.0986V12.2348C228.666 14.9586 230.966 17.1667 233.803 17.1667H240.195C243.033 17.1667 245.333 14.9586 245.333 12.2348V6.0986C245.333 3.37478 243.033 1.16669 240.195 1.16669Z" stroke="#2F3B53" stroke-width="2" stroke-miterlimit="10"/>
<path d="M232.138 28.221C232.099 27.4711 231.646 27.0871 231.349 26.6372C229.331 23.5823 227.28 20.5483 225.266 17.4905C224.656 16.5639 224.616 15.6827 225.617 14.9312C226.659 14.1489 227.562 14.3977 228.27 15.3376C229.169 16.5289 229.954 17.8079 230.785 19.0515C231.12 19.553 231.362 20.2116 232.091 19.4057C232.386 19.0789 232.922 18.962 233.381 19.1344C233.93 19.3398 234.298 19.2547 234.689 18.7834C235.018 18.3887 235.57 18.2008 236.083 18.357C236.689 18.5419 237.05 18.3863 237.544 17.9748C238.482 17.1913 239.505 17.406 240.195 18.4035C241.457 20.2235 242.745 22.0418 243.809 23.9801C245.168 26.4524 244.43 29.5295 242.352 31.4082C239.208 34.2504 235.819 35.1768 231.868 33.0704C230.61 32.3993 229.226 31.9776 227.925 31.3821C226.478 30.7198 226.376 29.5259 227.626 28.5464C228.395 27.9441 229.244 27.722 230.202 27.8926C230.829 28.0042 231.459 28.1067 232.137 28.2225L232.138 28.221ZM229.516 22.1633C230.634 23.8364 231.75 25.5086 232.868 27.1817C233.224 27.7146 233.532 28.2795 233.089 28.8858C232.68 29.4443 232.085 29.2404 231.536 29.1433C230.983 29.0455 230.434 28.9277 229.879 28.8421C229.24 28.7436 228.677 28.9302 228.173 29.3333C227.629 29.7681 227.589 30.2073 228.271 30.4762C230.644 31.4096 232.895 32.7078 235.414 33.2094C238.366 33.7971 242.769 30.7842 243.395 27.8275C243.602 26.8523 243.632 25.8397 243.212 24.9386C242.205 22.7766 240.688 20.9296 239.381 18.9542C239.091 18.516 238.64 18.394 238.18 18.7024C237.796 18.9602 237.704 19.3282 237.885 19.7819C238.04 20.1708 238.544 20.6707 237.873 20.9438C237.416 21.1306 237.235 20.5451 236.998 20.2293C236.631 19.7413 236.324 19.0752 235.563 19.3999C234.777 19.7358 234.962 20.3355 235.296 20.9399C235.459 21.2346 235.474 21.5632 235.108 21.7125C234.827 21.8276 234.641 21.5932 234.487 21.3863C234.303 21.1382 234.139 20.8741 233.955 20.626C233.613 20.1659 233.177 19.8972 232.644 20.2333C232.108 20.5711 232.143 21.0472 232.458 21.5698C232.7 21.9721 233.288 22.5047 232.623 22.8578C232.035 23.1692 231.815 22.4036 231.547 22.0126C230.297 20.1809 229.084 18.3241 227.839 16.489C227.45 15.9158 227.072 15.0281 226.204 15.6626C225.358 16.2807 226.053 16.9498 226.43 17.5265C227.445 19.0817 228.487 20.6178 229.517 22.1627L229.516 22.1633Z" fill="#2F3B53"/>
</g>
<defs>
<clipPath id="clip0_2624_578">
<rect width="30" height="35" fill="white" transform="translate(216)"/>
</clipPath>
</defs>
</svg>
