<?xml version="1.0" encoding="UTF-8"?>
<svg id="Layer_2" data-name="Layer 2" xmlns="http://www.w3.org/2000/svg" viewBox="0 0 28.58 27.04">
  <defs>
    <style>
      .cls-1 {
        fill: #ffad2f;
      }

      .cls-2 {
        fill: #e25928;
      }

      .cls-3 {
        isolation: isolate;
      }

      .cls-4 {
        fill: #3e3a39;
      }

      .cls-5 {
        fill: #fbe9c5;
      }

      .cls-6 {
        fill: #c30d23;
      }

      .cls-7 {
        fill: #6a3906;
      }

      .cls-8 {
        fill: #40220f;
      }

      .cls-9 {
        fill: #595757;
      }
      .flame {
        animation: flicker 1s infinite;
      }

      @keyframes flicker {
        0% { opacity: 0.8; }
        50% { opacity: 1; }
        100% { opacity: 0.8; }
      }
    </style>
     <filter id="flame">
      <feTurbulence baseFrequency="0.035" numOctaves="2" seed="0">
        <animate attributeName="seed" dur="10s" values="0;100" repeatCount="indefinite"/>
      </feTurbulence>
      <feDisplacementMap in="SourceGraphic" scale="1.5"/>
    </filter>
    <filter id="flame-02">
      <feTurbulence baseFrequency="0.015" numOctaves="2" seed="0">
        <animate attributeName="seed" dur="15s" values="0;100" repeatCount="indefinite"/>
      </feTurbulence>
      <feDisplacementMap in="SourceGraphic" scale="1.5"/>
    </filter>
  </defs>
  <g id="layer2_building">
    <g id="_12_campsite" data-name="12_campsite">
      <g>
        <ellipse class="cls-5" cx="14.29" cy="17.33" rx="14.29" ry="9.72"/>
        <path class="cls-1" d="M14.1,18.79c.46-.51-2.54-1.68-2.54-1.68l6.53-.08-4,1.76Z"/>
        <path class="cls-2" d="M13.25,12.93s-.02-.4.04-.95c.07.36.08.69-.04.95Z"/>
        <path class="cls-2" d="M16.53,8.13c.13-.1.23-.15.23-.15l-.23.15Z"/>
        <g class="cls-3">
          <path class="cls-9" d="M6.36,17.89l13.23-7.69c.32-.18.76-.16,1.24.12l-13.23,7.69c-.48-.28-.92-.3-1.24-.12Z"/>
          <path class="cls-7" d="M7.6,18.01c.97.56,1.75,1.92,1.75,3.03s-.79,1.57-1.76,1-1.75-1.91-1.74-3.03.79-1.57,1.75-1.01Z"/>
          <path class="cls-8" d="M22.07,14.48l-13.23,7.69c.31-.18.51-.57.51-1.13,0-1.11-.78-2.47-1.75-3.03l13.23-7.69c.97.56,1.75,1.92,1.75,3.03,0,.56-.2.95-.51,1.13Z"/>
        </g>
        <g class="cls-3">
          <path class="cls-9" d="M22.81,17.81l-13.23-7.69c-.32-.18-.76-.16-1.24.12l13.23,7.69c.48-.28.92-.3,1.24-.12Z"/>
          <path class="cls-7" d="M21.57,17.93c-.97.56-1.75,1.92-1.75,3.03s.79,1.57,1.76,1,1.75-1.91,1.74-3.03-.79-1.57-1.75-1.01Z"/>
          <path class="cls-8" d="M7.1,14.4l13.23,7.69c-.31-.18-.51-.57-.51-1.13,0-1.11.78-2.47,1.75-3.03l-13.23-7.69c-.97.56-1.75,1.92-1.75,3.03,0,.56.2.95.51,1.13Z"/>
        </g>
        <path class="cls-1 flame" d="M10.85,0c5.26,3.16,3.58,6.27,3.58,6.27.78-3.47,3.94-3.16,3.94-3.16-1.04,1.89-.68,4.02.06,5.04.95,1.31,2.43,1.9,2.48,5.21.05,3.72-4.22,4.75-4.22,4.75,0,0-4.05.72-6.47-1.29-2.42-2.01-1.41-5.17,1.01-10.21,1.97-4.08-.39-6.62-.39-6.62Z" fill="orange"
    filter="url(#flame)"/>
        <path class="cls-2" d="M13.5,7.13c.9.47,2.29,2.63,1.95,3.66-.05.56-1.52-.39.7-2.26,0,0-.05,1,1.05,3,.34.62.43.78,1.36,1.95,1.24,1.55.3,3.55-.55,4.25-.58.48-2.25.5-3.16.7-.69.15-2.13-.18-3.58-.82,0,0-1.16-1.08-.94-3.38s3.11-5.32,3.16-7.11Z" filter="url(#flame-02)"/>
        <path class="cls-6" d="M16.73,15.55c-.51-.75-1.4-1.48-2.65-2.49,0,0-2.96,3.35-1.75,4.64.84.89,2.14.94,3.39.55s1.55-1.9,1.01-2.69Z"/>
        <g>
          <path class="cls-4" d="M20.88,18.47l.8,1.17-.11-1.71s-.65.4-.69.54Z"/>
          <path class="cls-4" d="M21.48,20.24l-1.58.1s-.23,1.17.16,1.58l1.42-1.68Z"/>
          <path class="cls-4" d="M20.22,19.5l1.21.37-.94-.95s-.27.49-.27.58Z"/>
          <path class="cls-4" d="M22.94,17.92s.29.31.33.6l-1.27,1.15.94-1.75Z"/>
          <path class="cls-4" d="M22.03,20.03l1.11-.12s-.04.16-.35.78l-.76-.66Z"/>
          <path class="cls-4" d="M20.74,22.21s.47-.04.66-.16l-.08-.58-.58.74Z"/>
          <path class="cls-4" d="M22.05,21.61s.29-.29.37-.39l-.37-.33v.72Z"/>
        </g>
        <g>
          <path class="cls-4" d="M8.31,18.56l-.8,1.17.11-1.71s.65.4.69.54Z"/>
          <path class="cls-4" d="M7.71,20.33l1.58.1s.23,1.17-.16,1.58l-1.42-1.68Z"/>
          <path class="cls-4" d="M8.97,19.59l-1.21.37.94-.95s.27.49.27.58Z"/>
          <path class="cls-4" d="M6.25,18.01s-.29.31-.33.6l1.27,1.15-.94-1.75Z"/>
          <path class="cls-4" d="M7.16,20.12l-1.11-.12s.04.16.35.78l.76-.66Z"/>
          <path class="cls-4" d="M8.45,22.3s-.47-.04-.66-.16l.08-.58.58.74Z"/>
          <path class="cls-4" d="M7.14,21.69s-.29-.29-.37-.39l.37-.33v.72Z"/>
        </g>
      </g>
    </g>
  </g>
</svg>
