<?xml version="1.0" encoding="UTF-8"?>
<svg id="Layer_2" data-name="Layer 2" xmlns="http://www.w3.org/2000/svg" xmlns:xlink="http://www.w3.org/1999/xlink" viewBox="0 0 91.77 94.11">
  <defs>
    <style>
      .cls-1 {
        fill: none;
      }

      .cls-2 {
        fill: #3f3f3f;
      }

      .cls-3 {
        fill: #292929;
      }

      .cls-4 {
        fill: #414141;
      }

      .cls-5 {
        fill: #393939;
      }

      .cls-6 {
        fill: #8f8f8f;
      }

      .cls-7 {
        fill: #474747;
      }

      .cls-8 {
        fill: gray;
      }

      .cls-9 {
        fill: #545454;
      }

      .cls-10 {
        fill: #828282;
      }

      .cls-11 {
        fill: #454545;
      }

      .cls-12 {
        fill: #3b3b3b;
      }

      .cls-13 {
        fill: #525252;
      }

      .cls-14 {
        isolation: isolate;
      }

      .cls-15 {
        fill: #373737;
      }

      .cls-16 {
        fill: #696969;
      }

      .cls-17 {
        fill: #3d3d3d;
      }

      .cls-18 {
        fill: #ed5c62;
      }

      .cls-19 {
        clip-path: url(#clippath-1);
      }

      .cls-20 {
        fill: #4e4e4e;
      }

      .cls-21 {
        fill: #505050;
      }

      .cls-22 {
        fill: #7d3b3d;
      }

      .cls-23 {
        fill: #515151;
      }

      .cls-24 {
        fill: url(#_名称未設定グラデーション_394);
      }

      .cls-25 {
        fill: #ed5157;
      }

      .cls-26 {
        fill: #858585;
      }

      .cls-27 {
        fill: #4a4a4a;
      }

      .cls-28 {
        fill: #5e5e5e;
      }

      .cls-29 {
        fill: #6b6b6b;
      }

      .cls-30 {
        fill: #424242;
      }

      .cls-31 {
        fill: #bfbfbf;
      }

      .cls-32 {
        fill: #ed6f74;
      }

      .cls-33 {
        fill: #787878;
      }

      .cls-34 {
        clip-path: url(#clippath);
      }

      .cls-35 {
        fill: #4c4c4c;
      }

      .cls-36 {
        fill: #434343;
      }
    </style>
    <linearGradient id="_名称未設定グラデーション_394" data-name="名称未設定グラデーション 394" x1="4.48" y1="68.21" x2="50.44" y2="68.21" gradientUnits="userSpaceOnUse">
      <stop offset="0" stop-color="#a3a3a3"/>
      <stop offset=".14" stop-color="#c2c2c2"/>
      <stop offset=".2" stop-color="#c7c7c7"/>
      <stop offset=".45" stop-color="#d9d9d9"/>
      <stop offset=".71" stop-color="#e4e4e4"/>
      <stop offset="1" stop-color="#e8e8e8"/>
    </linearGradient>
    <clipPath id="clippath">
      <path class="cls-1" d="M72.2,34.81l18.99,11.04c-.36-.21-.86-.18-1.41.14l-18.99-11.04c.55-.32,1.05-.35,1.41-.14Z"/>
    </clipPath>
    <clipPath id="clippath-1">
      <path class="cls-1" d="M88.39,50.67l-18.99-11.04c-.36-.21-.58-.65-.58-1.27,0-1.26.88-2.78,1.97-3.42l18.99,11.04c-1.09.63-1.98,2.16-1.97,3.42,0,.62.22,1.06.58,1.27Z"/>
    </clipPath>
  </defs>
  <g id="base">
    <g>
      <g>
        <path class="cls-33" d="M4.57,58.66l.03-2.47s-5.75,6.26-3.64,13.12l1.42-.65c-.48-2.13-.56-5.7,2.19-10Z"/>
        <path class="cls-24" d="M50.44,42.45l-.11,38.44c0,3.38-2.23,6.75-6.66,9.33-8.92,5.18-23.44,5.18-32.42,0-4.52-2.61-6.78-6.03-6.77-9.45l.11-38.44c0,3.42,2.25,6.84,6.77,9.45,8.98,5.19,23.5,5.19,32.42,0,4.43-2.58,6.65-5.95,6.66-9.33Z"/>
        <g>
          <path class="cls-26" d="M3.01,40.75s.07,4.02.32,5.33c.57,3.04,2.91,5.45,7.8,8.08,9.64,5.19,23.83,5.06,33.38-.19,4.91-2.7,6.75-5.04,7.23-8.08.2-1.25.38-5.14.38-5.14H3.01Z"/>
          <path class="cls-32" d="M44.9,31.47c-9.64-5.57-25.22-5.57-34.79,0-9.58,5.57-9.53,14.59.11,20.15,9.64,5.56,25.21,5.56,34.79,0,9.57-5.56,9.52-14.59-.11-20.15ZM42.63,50.01c-8.27,4.68-21.71,4.68-30.03,0-8.32-4.68-8.37-12.25-.1-16.93,8.26-4.67,21.71-4.67,30.03,0,8.32,4.67,8.36,12.25.1,16.93Z"/>
          <path class="cls-22" d="M12.6,40.65c8.26-4.67,21.71-4.67,30.03,0,2.39,1.34,4.1,2.93,5.12,4.61,2.41-4.16.67-8.92-5.21-12.22-8.32-4.68-21.77-4.68-30.03,0-5.89,3.33-7.56,8.14-5.02,12.31,1-1.72,2.7-3.34,5.12-4.71Z"/>
          <path class="cls-25" d="M12.6,50.06c8.32,4.7,21.76,4.7,30.03,0,2.42-1.38,4.12-3,5.12-4.74-1.02-1.7-2.73-3.29-5.12-4.65-8.32-4.71-21.77-4.71-30.03,0-2.42,1.38-4.12,3.01-5.12,4.74,1.02,1.7,2.73,3.29,5.12,4.65Z"/>
        </g>
        <path class="cls-18" d="M25.47,53.29s1.88.85,2.45,1.22c1.34.88,1.95,3.28,1.97,4.88.02,2.08.04,4.94.01,6.9-.02,1.4,1.31,2.43,2.66,2.06h0c1.32-.36,2.25-1.56,2.25-2.93v-5.99c0-.72.45-1.36,1.12-1.6l.29-.11c.84-.3,1.72.32,1.72,1.21v11.74c0,1.22,1.3,2.01,2.38,1.44h0c1.11-.58,1.81-1.72,1.82-2.98l.14-13.54c.02-1.78.02-3.06.79-4.66.3-.63,1.51-2.35,1.51-2.35,0,0-3.51,2.06-9.13,3.39-5.18,1.22-9.98,1.32-9.98,1.32Z"/>
        <path class="cls-32" d="M50.33,68.17l-.02,6.04c0,3.37-2.23,6.74-6.65,9.31-8.91,5.18-23.41,5.18-32.38,0-4.51-2.61-6.77-6.03-6.76-9.44l.02-6.04c0,3.42,2.25,6.84,6.76,9.44,8.97,5.18,23.47,5.18,32.38,0,4.43-2.57,6.64-5.94,6.65-9.31Z"/>
        <g class="cls-14">
          <path class="cls-10" d="M49.16,53.4l.95.55c-.45-.26-1.06-.22-1.74.17l-.95-.55c.68-.39,1.3-.43,1.74-.17Z"/>
          <path class="cls-29" d="M46.64,59.92l-.95-.55c-.44-.26-.71-.8-.71-1.58,0-1.55,1.08-3.44,2.44-4.22l.95.55c-1.35.78-2.44,2.67-2.44,4.22,0,.77.27,1.32.71,1.58Z"/>
          <path class="cls-31" d="M48.37,54.12c1.35-.78,2.45-.15,2.46,1.4s-1.09,3.45-2.44,4.23-2.45.15-2.46-1.4c0-1.55,1.08-3.44,2.44-4.22Z"/>
        </g>
        <path class="cls-3" d="M3.05,66.38l10.11,7.53c-.27-.2-.62-.29-1.03-.24l-10.11-7.53c.4-.06.76.04,1.03.24Z"/>
        <path class="cls-11" d="M10.65,77.29l-10.11-7.53c-.39-.29-.6-.81-.53-1.44.12-1.06,1.02-2.03,2.01-2.17l10.11,7.53c-.99.14-1.89,1.11-2.01,2.17-.07.63.14,1.15.53,1.44Z"/>
        <path class="cls-28" d="M12.14,73.68c.98-.14,1.68.61,1.55,1.67s-1.02,2.04-2.01,2.17-1.68-.61-1.56-1.67,1.02-2.03,2.01-2.17Z"/>
        <path class="cls-30" d="M12.12,74.61c.53-.07.91.33.84.9s-.55,1.1-1.08,1.17-.91-.33-.84-.9.55-1.1,1.09-1.17Z"/>
        <path class="cls-6" d="M51.21,58.43l-2.2-1.94s-.38-.47-1.04,0-.28,1.22-.28,1.22l2.26,1.79s-13.56,15.44-29.19,16.57c-2.7.2-4.71.35-6.6-.13-.72-.18-1.81-1.09-2.14-1.31,0,0-.27,0-.63.36-.44.44-.37.9-.37.9,0,0,.52.46.8.67.45.34,1.34.8,2,.94,3.02.65,5.97.1,6.84.06,2.03-.09,14.94-.55,30.63-17.28.5-.54.46-1.39-.09-1.87Z"/>
      </g>
      <g>
        <path class="cls-8" d="M72.39,39.41l-14.97-9.56c-2.09-1.33-2.85-4.02-1.76-6.25l5.83-11.91c.67-1.37.45-3-.56-4.15l-1.4-1.59c-.94-1.07-2.5-1.3-3.72-.54l-.23.14-1.07-1.71.23-.14c2.05-1.28,4.7-.9,6.3.92l1.4,1.59c1.55,1.76,1.89,4.26.86,6.37l-5.83,11.91c-.64,1.3-.2,2.88,1.03,3.66l14.97,9.56-1.09,1.7Z"/>
        <g class="cls-14">
          <path class="cls-32" d="M20.43,17.76L50.34.38c1.03-.6,2.46-.52,4.04.39l-29.91,17.38c-1.58-.91-3-.99-4.04-.39Z"/>
          <path class="cls-31" d="M24.47,18.16c3.14,1.81,5.66,6.2,5.65,9.79-.01,3.6-2.56,5.06-5.69,3.25-3.13-1.81-5.66-6.2-5.65-9.8.01-3.6,2.56-5.05,5.69-3.24Z"/>
          <path class="cls-16" d="M24.28,20.65c1.95,1.13,3.52,3.85,3.52,6.09s-1.59,3.15-3.54,2.02-3.52-3.85-3.52-6.09,1.59-3.14,3.54-2.02Z"/>
          <path class="cls-25" d="M58.38,14.21l-29.91,17.38c1.02-.59,1.65-1.85,1.66-3.64.01-3.6-2.52-7.98-5.65-9.79L54.38.78c3.14,1.81,5.66,6.2,5.65,9.79,0,1.79-.64,3.05-1.66,3.64Z"/>
        </g>
        <g class="cls-14">
          <g class="cls-14">
            <g class="cls-34">
              <g class="cls-14">
                <path class="cls-9" d="M89.78,45.99l-18.99-11.04c.09-.05.19-.1.28-.14l18.99,11.04c-.09.04-.18.08-.28.14"/>
                <path class="cls-13" d="M90.06,45.85l-18.99-11.04c.08-.03.16-.06.23-.08l18.99,11.04c-.08.02-.15.05-.23.08"/>
                <path class="cls-21" d="M90.29,45.77l-18.99-11.04c.06-.02.12-.03.17-.04l18.99,11.04c-.06,0-.11.02-.17.04"/>
                <path class="cls-20" d="M90.47,45.73l-18.99-11.04c.05,0,.1-.01.15-.01l18.99,11.04s-.1,0-.15.01"/>
                <path class="cls-35" d="M90.61,45.72l-18.99-11.04s.09,0,.13,0l18.99,11.04s-.09,0-.13,0"/>
                <path class="cls-27" d="M90.74,45.72l-18.99-11.04s.08,0,.12.01l18.99,11.04s-.08-.01-.12-.01"/>
                <path class="cls-7" d="M90.86,45.73l-18.99-11.04s.08.02.11.03l18.99,11.04s-.07-.02-.11-.03"/>
                <path class="cls-11" d="M90.98,45.76l-18.99-11.04s.07.02.1.04l18.99,11.04s-.07-.03-.1-.04"/>
                <path class="cls-36" d="M91.08,45.8l-18.99-11.04s.07.03.1.05l18.99,11.04s-.07-.03-.1-.05"/>
                <polyline class="cls-4" points="91.18 45.84 72.19 34.81 72.2 34.81 91.19 45.85 91.18 45.84"/>
              </g>
            </g>
          </g>
          <g class="cls-14">
            <g class="cls-19">
              <g class="cls-14">
                <path class="cls-15" d="M88.39,50.67l-18.99-11.04c-.36-.21-.58-.65-.58-1.27,0-.13,0-.26.03-.39l18.99,11.04c-.02.13-.03.26-.03.39,0,.62.22,1.06.58,1.27"/>
                <path class="cls-5" d="M87.84,49.02l-18.99-11.04c.01-.09.03-.18.05-.27l18.99,11.04c-.02.09-.04.18-.05.27"/>
                <path class="cls-12" d="M87.88,48.74l-18.99-11.04c.02-.08.03-.15.06-.23l18.99,11.04c-.02.08-.04.15-.06.23"/>
                <path class="cls-17" d="M87.94,48.52l-18.99-11.04c.02-.07.04-.13.06-.2l18.99,11.04c-.02.07-.04.13-.06.2"/>
                <path class="cls-2" d="M88,48.31l-18.99-11.04c.02-.06.04-.12.07-.19l18.99,11.04c-.02.06-.05.12-.07.19"/>
                <path class="cls-4" d="M88.07,48.13l-18.99-11.04c.02-.06.05-.12.07-.18l18.99,11.04c-.03.06-.05.12-.07.18"/>
                <path class="cls-36" d="M88.14,47.95l-18.99-11.04c.02-.06.05-.11.08-.17l18.99,11.04c-.03.06-.05.11-.08.17"/>
                <path class="cls-11" d="M88.22,47.78l-18.99-11.04c.03-.06.06-.11.09-.17l18.99,11.04c-.03.06-.06.11-.09.17"/>
                <path class="cls-7" d="M88.3,47.61l-18.99-11.04c.03-.06.06-.11.09-.17l18.99,11.04c-.03.05-.06.11-.09.17"/>
                <path class="cls-27" d="M88.4,47.44l-18.99-11.04c.03-.06.07-.11.1-.17l18.99,11.04c-.04.06-.07.11-.1.17"/>
                <path class="cls-35" d="M88.5,47.28l-18.99-11.04c.04-.06.08-.11.11-.17l18.99,11.04c-.04.06-.08.11-.11.17"/>
                <path class="cls-20" d="M88.61,47.1l-18.99-11.04c.04-.06.09-.12.13-.18l18.99,11.04c-.05.06-.09.12-.13.18"/>
                <path class="cls-21" d="M88.75,46.93l-18.99-11.04c.05-.07.11-.13.16-.2l18.99,11.04c-.06.06-.11.13-.16.2"/>
                <path class="cls-13" d="M88.91,46.73l-18.99-11.04c.07-.08.14-.16.22-.23l18.99,11.04c-.07.07-.15.15-.22.23"/>
                <path class="cls-9" d="M89.12,46.5l-18.99-11.04c.21-.2.43-.38.66-.51l18.99,11.04c-.23.13-.45.31-.66.51"/>
              </g>
            </g>
          </g>
          <path class="cls-23" d="M89.78,45.99c1.09-.63,1.98-.12,1.98,1.13s-.88,2.78-1.97,3.42-1.98.12-1.98-1.13.88-2.78,1.97-3.42Z"/>
        </g>
      </g>
    </g>
  </g>
</svg>