<svg id="Layer_2" data-name="Layer 2" xmlns="http://www.w3.org/2000/svg" viewBox="0 0 110 105.17"><defs><style>.cls-1{fill:#e4e6f0}.cls-2{fill:#c2c6d7}.cls-3{fill:#3a3e46}.cls-4,.cls-5,.cls-6,.cls-7{fill-rule:evenodd}.cls-10,.cls-4{fill:#fff}.cls-13{fill:#24272b}.cls-14,.cls-7{fill:#b1b4c2}.cls-16{fill:#eff0f5}.cls-17,.cls-5{fill:#2e3235}.cls-18{fill:#ffa71e}.cls-20{fill:#95969e}.cls-21{fill:#a1a4b5}.cls-22{fill:#2e2e37}.cls-23{fill:#35353f}.cls-24{fill:#d76600}.cls-26{isolation:isolate}.cls-27{fill:#34383e}.cls-28,.cls-6{fill:#474c52}.cls-31{fill:#52535c}.cls-32{fill:#434851}.cls-34{fill:#231815}.cls-35{fill:#ff9c00}.cls-36{fill:#dcdddd}.cls-37{fill:#222229}.cls-39{fill:#d1d3db}.cls-40{fill:#858a99}.cls-43{fill:#0f0f18}.cls-44{fill:#373b3d}.cls-45{fill:#9a9dab}.cls-50{fill:#1248a5}.cls-51{fill:#4072c7}</style></defs><g id="base"><g class="cls-26"><path style="fill:#cacddf" d="m107.15 23.1 1.3-.76-6.72 24.64-1.31.76 6.73-24.64z"/><path class="cls-16" d="m94.23 15.64 1.3-.76 12.92 7.46-1.3.76-12.92-7.46z"/><path class="cls-31" d="m107.15 23.1-6.73 24.64-12.92-7.46 6.73-24.64 12.92 7.46z"/></g><g class="cls-26"><path class="cls-2" d="m85.58 10.11.01 2.72 22.87 13.28-.01-2.71-22.87-13.29z"/><path class="cls-21" d="m108.45 23.4.01 2.71 1.37-.79-.01-2.72-1.37.8z"/><path class="cls-1" d="m85.58 10.11 22.87 13.29 1.37-.8L86.96 9.32l-1.38.79z"/></g><path d="m101.54 22 5.26-11.95c.33.85.4 1.48.25 1.89l-5.07 13.43c.27-.72.15-1.86-.44-3.37Z" style="fill:#83899e" class="cls-26"/><g class="cls-26"><path class="cls-45" d="M82.22 4.11 95.99.05c.62-.18 1.68.16 3.07 1.07L87.7 6.03c-2.48-1.62-4.38-2.24-5.48-1.91Z"/><path class="cls-2" d="m87.71 6.03 11.36-4.91c.09.06.18.12.28.19 1.54 1.06 3.16 2.59 4.52 4.19l-7.58 8.35c-2.43-2.86-5.32-5.59-8.08-7.49-.17-.12-.33-.23-.5-.33Z"/><path class="cls-45" d="m96.28 13.85 7.58-8.35c1.33 1.57 2.42 3.21 2.94 4.56l-5.26 11.95c-.94-2.41-2.88-5.35-5.26-8.15Z"/></g><g class="cls-26"><path class="cls-43" d="m83.3 67.73-.01 4-14.98 8.71.01-4 14.98-8.71z"/><path class="cls-50" d="m68.32 76.44-.01 4-5.79-3.34.02-4 5.78 3.34z"/><path style="fill:#098fd2" d="m83.3 67.73-14.98 8.71-5.78-3.34 14.98-8.7 5.78 3.33z"/></g><g class="cls-26"><path style="fill:#292931" d="M109.07 51.32v2.72L40.3 93.8l.01-2.72 68.76-39.76z"/><path style="fill:#1c1c22" d="m48.81 86.34-.01 2.72-23.01-13.29.01-2.72 23.01 13.29z"/><path class="cls-32" d="M109.07 51.32 40.08 91.46 17.07 78.17l68.99-40.14 23.01 13.29z"/></g><path d="m96.45 35.63 8.22-18.66c.52 1.33.63 2.32.39 2.95L97.15 40.9c.43-1.13.23-2.9-.69-5.27Z" style="fill:#838591"/><path class="cls-40" d="M96.45 35.63 71.03 59.12 45.44 69.97c.71 1.83.52 2.91-.37 3.18l25.19-7.43c.36-.1.66-.27.9-.5v.01l25.42-23.46c1.05-.96 1.08-3.03-.12-6.13ZM71.46 64.85s.04-.05.05-.08c-.02.03-.04.05-.05.08Zm.27-.52.03-.09-.03.09Zm.15-.61s0-.04.01-.06c0 .02 0 .04-.01.06Zm.05-.68v-.14.14Zm-.55-2.93.06.2c-.02-.06-.04-.13-.06-.2Zm.31 1.08.03.15-.03-.15Zm.16.89s.01.07.02.1c0-.03-.01-.07-.02-.1Z"/><g class="cls-26"><path d="M93.01 3.31c-.15-.1-.29-.2-.43-.29-2.16-1.42-3.83-1.96-4.79-1.67L66.28 7.7c1.72-.51 4.69.45 8.56 2.99.25.17.51.34.77.52.96.66 1.94 1.4 2.91 2.18l16.18-8.8c-.57-.46-1.13-.88-1.69-1.27Z" style="fill:#dbdde6"/><path class="cls-1" d="m94.71 4.58-16.18 8.8c3.38 2.71 6.76 6.05 9.7 9.52l11.84-13.05c-1.63-1.92-3.49-3.76-5.36-5.27Z"/><path d="m88.23 22.9 11.84-13.05c2.08 2.45 3.77 5.02 4.59 7.12l-8.22 18.66c-1.47-3.77-4.49-8.35-8.21-12.74Z" style="fill:#c8cbd7"/></g><g class="cls-26"><path class="cls-39" d="M52.13 36.13c-.61-.46-1.22-.91-1.82-1.32-2.31-1.59-4.33-2.65-5.99-3.19-2.53-.83-4.2-.45-4.76 1.05l-9.27 24.58c.27-.72 1.08-.9 2.29-.51.8.26 1.77.77 2.88 1.54.29.2.58.41.88.64.22.17.45.35.67.53L53.2 36.98c-.36-.29-.72-.57-1.08-.84Z"/><path class="cls-1" d="M37.01 59.44c.48.39.96.8 1.43 1.24l18.05-20.87c-1.09-1-2.19-1.95-3.29-2.84L37.01 59.44Z"/><path class="cls-1" d="m38.44 60.68 18.05-20.87c1.03.95 2.05 1.95 3.04 2.98L39.9 62.12c-.48-.49-.97-.97-1.47-1.43Z"/><path class="cls-1" d="m39.9 62.11 19.63-19.33c1.18 1.23 2.33 2.49 3.42 3.78L41.54 63.93a34.97 34.97 0 0 0-1.64-1.82Z"/><path class="cls-14" d="M67.82 53.07c-1.38-2.13-3.04-4.34-4.87-6.51L41.54 63.93c.88 1.04 1.68 2.11 2.34 3.13.66 1.03 1.2 2.02 1.54 2.91l25.59-10.85c-.72-1.86-1.83-3.92-3.21-6.05Z"/></g><g class="cls-26"><path d="M75.62 11.2c-2.07-1.43-3.9-2.42-5.45-3.01-2.25-.85-3.89-.83-4.79 0L40.11 31.81c.89-.83 2.53-.85 4.77 0 1.54.58 3.37 1.58 5.43 3 .96.66 1.93 1.39 2.9 2.17l25.33-23.59c-.97-.78-1.95-1.51-2.91-2.18Z" style="fill:#e6e8f0"/><path class="cls-16" d="m53.2 36.97 25.33-23.59c3.01 2.42 6.03 5.34 8.73 8.4L61.89 45.33c-2.69-3.05-5.69-5.95-8.69-8.36Z"/><path class="cls-16" d="M87.26 21.78 61.89 45.33c.36.41.71.82 1.06 1.23l25.44-23.48c-.37-.44-.74-.87-1.13-1.31Z"/><path d="M92.7 28.76a65.894 65.894 0 0 0-4.31-5.67L62.95 46.57c1.6 1.9 3.08 3.83 4.35 5.72 1.62 2.41 2.92 4.75 3.73 6.84l25.42-23.49c-.82-2.1-2.11-4.45-3.75-6.87Z" style="fill:#d2d4df"/></g><g class="cls-26"><path style="fill:#a0a6c0" d="m45.73 72.95.02 8.07 3.57 2.04-.03-8.07-3.56-2.04z"/><path class="cls-2" d="m49.29 74.99.03 8.07 6.4-3.69-.03-8.08-6.4 3.7z"/><path class="cls-16" d="m45.73 72.95 3.56 2.04 6.4-3.7-3.57-2.03-6.39 3.69z"/></g><path class="cls-50" d="M93.79 44.33c1.04-.96 1.13-3.08-.07-6.17l2.73-2.53c1.21 3.1 1.18 5.23.13 6.2-.91.84-2.79 2.5-2.79 2.5ZM82.42 54.9c1.04-.96 1.08-3.03-.12-6.12L85.31 46c1.2 3.09 1.17 5.16.12 6.12-.76.7-1.78 1.64-2.54 2.35-.14.13-.33.3-.47.44ZM71.12 65.25c1.04-.96 1.12-2.98-.08-6.07l2.85-2.63c1.2 3.09 1.16 5.15.12 6.11-.76.7-1.67 1.47-2.43 2.17-.09.09-.37.34-.46.42Z"/><path class="cls-50" d="M93.71 38.16c-2.96-7.6-12.28-18.53-20.82-24.42-5.07-3.49-8.72-4.42-10.24-3l2.53-2.36c.06-.05.13-.12.19-.18 1.51-1.42 5.17-.49 10.24 3.01 8.54 5.88 17.87 16.82 20.83 24.43l-2.73 2.53Z"/><path d="M82.3 48.78c-2.95-7.59-12.25-18.5-20.77-24.36-5.06-3.48-8.7-4.41-10.21-3l2.53-2.36.47-.44c1.51-1.41 5.16-.49 10.22 3C73.06 27.49 82.37 38.41 85.32 46l-3.01 2.78Z" style="fill:#2856a5"/><path class="cls-50" d="M71.04 59.19c-2.95-7.57-12.23-18.46-20.73-24.31-5.05-3.48-8.79-4.41-10.3-3 .76-.71 1.84-1.69 2.6-2.39.09-.09.21-.2.31-.29 1.51-1.41 5.18-.45 10.23 3.03 8.51 5.86 17.79 16.75 20.74 24.33l-2.85 2.63Z"/><path class="cls-51" d="m67.39 23.75-3 2.8c3.42 2.74 6.84 6.12 9.81 9.63l3.02-2.78c-2.97-3.52-6.39-6.91-9.82-9.65ZM78.53 13.38l-2.72 2.54c3.44 2.76 6.87 6.16 9.85 9.69l2.73-2.52c.08.09-4.94-6-9.86-9.71ZM65.78 43.95c-2.96-3.5-6.37-6.87-9.77-9.6L53.17 37c4.59 3.92 10.03 9.9 9.76 9.58l2.85-2.63Z"/><path class="cls-16" d="m105.52 21.78-11.01 9.16-8.5 17.71-6.31 5.39-1.88 3.67.56.33 7.63-6.62 8.5-15.98 11.58-13.34-.57-.32z"/><path class="cls-20" d="m78.38 58.04 1.71.97 7.1-5.72V51.2l.57-2.23-9.38 9.07z"/><path class="cls-31" d="m95.07 31.26-8.49 17.72-6.31 5.39-1.89 3.67 8.87-8.27 7.82-14.01 11.02-9.15V22.1l-11.02 9.16z"/><path class="cls-20" d="m95.98 31.84-9.34 19.01-.06 2 2.43-2.9 7.77-17.33 10.36-8.71-.15-1.1-.9-.71v1.17l-10.11 8.57z"/><path class="cls-16" d="m96.68 35 11.68-11.59-.57-.33-11.01 9.16-.1 2.76zM80.09 59.01l.56.33 7.63-6.61v-2.78l-6.31 5.4-1.88 3.66z"/><path class="cls-16" d="m88.28 52.73 8.33-16.7.17-3.79-8.5 17.71v2.78z"/><path class="cls-21" d="m97.71 34.68 10.65-8.43v-2.84l-11.02 9.15.37 2.12zM80.65 59.34l8.2-6.29v-2.77l-6.31 5.39-1.89 3.67z"/><path class="cls-21" d="m88.85 53.05 8.86-18.37-.37-2.12-8.49 17.72v2.77z"/><path class="cls-43" d="M59.04 77.83s.05.04.07.06c.04.03.07.06.11.1l.07.07.1.1c.02.03.05.05.07.08.03.04.06.07.09.11.02.03.04.05.06.08l.09.12.06.09c.03.04.06.09.08.14.02.03.03.06.05.08.03.06.06.11.09.17.01.02.02.04.03.07.04.08.07.16.11.25 0 .02.01.04.02.05.03.07.05.14.08.21l.03.1c.02.06.04.12.05.18l.03.12c.01.06.03.12.04.18 0 .04.02.08.02.13l.03.18c0 .04.01.09.02.13 0 .06.02.13.02.19 0 .05 0 .09.01.14 0 .07.01.15.02.22V81.62l3.26 1.9V82.86c0-.05 0-.09-.01-.14 0-.06-.01-.13-.02-.19 0-.04-.01-.09-.02-.13 0-.06-.02-.12-.03-.18 0-.04-.02-.08-.02-.13-.01-.06-.03-.12-.04-.18 0-.04-.02-.08-.03-.12-.02-.06-.03-.12-.05-.18l-.03-.1c-.02-.07-.05-.14-.08-.21 0-.02-.01-.04-.02-.05-.03-.09-.07-.17-.11-.25a.488.488 0 0 1-.03-.07c-.03-.06-.06-.11-.09-.17-.02-.03-.03-.06-.05-.08-.03-.05-.05-.09-.08-.14l-.06-.09-.09-.12a.555.555 0 0 0-.06-.08c-.03-.04-.06-.08-.09-.11a.5.5 0 0 0-.07-.08c-.03-.04-.07-.07-.1-.1l-.07-.07c-.04-.03-.07-.07-.11-.1-.02-.02-.05-.04-.07-.06-.04-.03-.08-.06-.13-.1-.02-.02-.04-.03-.06-.05-.06-.04-.13-.09-.2-.13l-3.26-1.9c.07.04.13.08.2.13.02.01.04.03.06.05.04.03.09.06.13.1Z"/><path class="cls-5" d="m60.65 79.3-2.4-1.39-.41-.19-.45-.13-.48-.06-.51.01-.53.09-.56.15-.57.23-.6.31-.3.18-.29.2-.29.21-.29.22-.28.24-.28.25-.27.26-.26.28-.26.28-.25.29-.24.3-.24.31-.23.32-.22.33-.21.33-.2.34-.19.35-.18.34-.18.36-.16.35-.15.36-.14.37-.13.36-.12.36-.1.37-.09.36-.08.37-.06.36-.06.36-.03.36-.03.35v.35l.03.67.09.62.14.56.19.5.25.45.29.38.34.32.37.26.99.58 2.94 1.69 8.22-14.24-1.53-.88z"/><path class="cls-6" d="M58.07 80.59c-3.21 1.85-5.81 6.36-5.81 10.07s2.6 5.21 5.81 3.36c3.21-1.85 5.81-6.36 5.81-10.07s-2.6-5.21-5.81-3.36Z"/><path class="cls-4" d="M58.07 84.52c1.33-.77 2.41-.15 2.41 1.39s-1.08 3.41-2.41 4.17c-1.33.77-2.41.15-2.41-1.39s1.08-3.41 2.41-4.17Z"/><path class="cls-5" d="M58.07 85.94c.65-.38 1.18-.07 1.18.68s-.53 1.66-1.18 2.04c-.65.38-1.18.07-1.18-.68s.53-1.66 1.18-2.04Z"/><g class="cls-26"><path class="cls-37" d="M57.43 79.44c3.7-2.14 6.72-.41 6.74 3.84l-.4.23c-.01-4-2.85-5.62-6.34-3.61-3.48 2.01-6.31 6.91-6.3 10.91l-.39.23c-.01-4.25 2.99-9.45 6.69-11.59Z"/></g><g class="cls-26"><path class="cls-22" d="m57.43 79.44-3.26-1.9c.56-.32 1.11-.56 1.63-.71l3.26 1.9c-.52.15-1.07.39-1.63.71Z"/><path class="cls-22" d="m59.06 78.73-3.26-1.9c1.21-.35 2.29-.25 3.15.25l3.26 1.9c-.85-.5-1.94-.6-3.15-.25Z"/></g><g class="cls-26"><path class="cls-22" d="m50.74 91.03-3.26-1.9c0-.69.07-1.4.22-2.12l3.26 1.9c-.15.72-.22 1.43-.22 2.12Z"/><path class="cls-23" d="m50.96 88.91-3.26-1.9c.21-1.02.55-2.06 1.01-3.06l3.26 1.9c-.46 1-.8 2.04-1.01 3.06Z"/><path class="cls-23" d="m51.96 85.85-3.26-1.9c.6-1.32 1.39-2.58 2.3-3.67l3.26 1.9c-.92 1.1-1.7 2.36-2.3 3.67ZM54.27 82.18l-3.26-1.9c.75-.9 1.59-1.69 2.48-2.31l3.26 1.9c-.89.62-1.73 1.41-2.48 2.31Z"/><path class="cls-22" d="m56.75 79.87-3.26-1.9c.22-.15.45-.3.68-.43l3.26 1.9c-.23.13-.46.28-.68.43Z"/></g><path class="cls-43" d="M43.37 87.54s.05.04.07.06c.04.03.07.06.11.1l.07.07.1.1c.02.03.05.05.07.08.03.04.06.07.09.11.02.03.04.05.06.08l.09.12.06.09c.03.04.06.09.08.14.02.03.03.06.05.08.03.06.06.11.09.17.01.02.02.04.03.07.04.08.07.16.11.25 0 .02.01.04.02.05.03.07.05.14.08.21l.03.1c.02.06.04.12.05.18l.03.12c.01.06.03.12.04.18 0 .04.02.08.02.13l.03.18c0 .04.01.09.02.13 0 .06.02.13.02.19 0 .05 0 .09.01.14 0 .07.01.15.02.22V91.33l3.26 1.9V92.57c0-.05 0-.09-.01-.14 0-.06-.01-.13-.02-.19 0-.04-.01-.09-.02-.13 0-.06-.02-.12-.03-.18 0-.04-.02-.08-.02-.13-.01-.06-.03-.12-.04-.18 0-.04-.02-.08-.03-.12-.02-.06-.03-.12-.05-.18l-.03-.1c-.02-.07-.05-.14-.08-.21 0-.02-.01-.04-.02-.05-.03-.09-.07-.17-.11-.25a.488.488 0 0 1-.03-.07c-.03-.06-.06-.11-.09-.17-.02-.03-.03-.06-.05-.08-.03-.05-.05-.09-.08-.14l-.06-.09-.09-.12a.555.555 0 0 0-.06-.08c-.03-.04-.06-.08-.09-.11a.5.5 0 0 0-.07-.08c-.03-.04-.07-.07-.1-.1l-.07-.07c-.04-.03-.07-.07-.11-.1-.02-.02-.05-.04-.07-.06-.04-.03-.08-.06-.13-.1-.02-.02-.04-.03-.06-.05-.06-.04-.13-.09-.2-.13L43 87.26c.07.04.13.08.2.13.02.01.04.03.06.05.04.03.09.06.13.1Z"/><path class="cls-5" d="m44.98 89.01-2.41-1.39-.41-.19-.45-.13-.48-.06-.5.01-.54.08-.56.16-.57.23-.6.31-.3.18-.29.2-.29.21-.29.22-.28.24-.28.25-.27.26-.26.27-.26.28-.25.3-.24.3-.24.31-.22.32-.22.33-.22.33-.2.34-.19.34-.18.35-.18.35-.16.36-.15.36-.14.36-.13.37-.11.36-.11.36-.09.37-.08.36-.06.37-.05.36-.04.35-.02.36-.01.35.03.67.09.61.14.56.2.51.24.44.29.39.34.32.37.26.99.57 2.94 1.7 8.22-14.24-1.52-.88z"/><path class="cls-6" d="M42.39 90.3c-3.21 1.85-5.81 6.36-5.81 10.07s2.6 5.21 5.81 3.36c3.21-1.85 5.81-6.36 5.81-10.07s-2.6-5.21-5.81-3.36Z"/><path class="cls-4" d="M42.39 94.23c1.33-.77 2.41-.15 2.41 1.39s-1.08 3.41-2.41 4.17c-1.33.77-2.41.15-2.41-1.39s1.08-3.41 2.41-4.17Z"/><path class="cls-5" d="M42.39 95.65c.65-.38 1.18-.07 1.18.68s-.53 1.66-1.18 2.04c-.65.38-1.18.07-1.18-.68s.53-1.66 1.18-2.04Z"/><g class="cls-26"><path class="cls-37" d="M41.75 89.15c3.7-2.14 6.72-.41 6.74 3.84l-.4.23c-.01-4-2.85-5.62-6.34-3.61-3.48 2.01-6.31 6.91-6.3 10.91l-.39.23c-.01-4.25 2.99-9.45 6.69-11.59Z"/></g><g class="cls-26"><path class="cls-22" d="m41.75 89.15-3.26-1.9c.56-.32 1.11-.56 1.63-.71l3.26 1.9c-.52.15-1.07.39-1.63.71ZM43.38 88.44l-3.26-1.9c1.21-.35 2.29-.25 3.15.25l3.26 1.9c-.85-.5-1.94-.6-3.15-.25Z"/></g><g class="cls-26"><path class="cls-22" d="m35.06 100.74-3.26-1.9c0-.69.07-1.4.22-2.12l3.26 1.9c-.15.72-.22 1.43-.22 2.12Z"/><path class="cls-23" d="m35.28 98.62-3.26-1.9c.21-1.02.55-2.06 1.01-3.06l3.26 1.9c-.46 1-.8 2.04-1.01 3.06Z"/><path class="cls-23" d="m36.29 95.56-3.26-1.9c.6-1.32 1.39-2.58 2.3-3.67l3.26 1.9c-.92 1.1-1.7 2.36-2.3 3.67ZM38.59 91.89l-3.26-1.9c.75-.9 1.59-1.69 2.48-2.31l3.26 1.9c-.89.62-1.73 1.41-2.48 2.31Z"/><path class="cls-22" d="m41.07 89.58-3.26-1.9c.22-.15.45-.3.68-.43l3.26 1.9c-.23.13-.46.28-.68.43Z"/></g><path class="cls-5" d="m106.77 49.63-2.4-1.38-.42-.2-.44-.13-.48-.06-.51.01-.54.09-.55.15-.58.24-.59.3-.3.19-.3.19-.29.21-.29.23-.28.23-.27.25-.27.27-.27.27-.25.28-.26.29-.24.31-.23.31-.23.32-.22.32-.21.33-.2.34-.2.35-.18.35-.17.35-.16.36-.16.36-.14.36-.12.36-.12.37-.11.36-.09.37-.07.36-.07.36-.05.36-.04.36-.02.35-.01.35.03.67.09.62.14.56.2.5.24.45.3.38.33.33.38.26.99.57 2.94 1.7 8.22-14.24-1.53-.89z"/><path class="cls-6" d="M104.19 50.92c-3.21 1.85-5.81 6.36-5.81 10.07s2.6 5.21 5.81 3.36c3.21-1.85 5.81-6.36 5.81-10.07s-2.6-5.21-5.81-3.36Z"/><path class="cls-4" d="M104.19 54.85c1.33-.77 2.41-.15 2.41 1.39s-1.08 3.41-2.41 4.17c-1.33.77-2.41.15-2.41-1.39s1.08-3.41 2.41-4.17Z"/><path class="cls-5" d="M104.19 56.28c.65-.38 1.18-.07 1.18.68s-.53 1.66-1.18 2.04c-.65.38-1.18.07-1.18-.68s.53-1.66 1.18-2.04ZM92.39 57.62l-2.4-1.39-.41-.19-.45-.13-.48-.06-.51.01-.53.08-.56.16-.58.23-.59.31-.3.18-.3.2-.29.21-.28.22-.28.24-.28.25-.27.26-.26.28-.26.28-.25.29-.25.3-.23.31-.23.32-.22.33-.21.33-.2.34-.19.34-.19.35-.17.36-.16.35-.15.36-.14.37-.13.36-.12.36-.1.37-.09.36-.08.37-.07.36-.05.36-.03.36-.03.35v.35l.03.67.08.62.15.56.19.5.25.45.29.38.33.32.38.26.99.58 2.94 1.69 8.22-14.24-1.53-.88z"/><path class="cls-6" d="M89.81 58.91C86.6 60.76 84 65.27 84 68.98s2.6 5.21 5.81 3.36c3.21-1.85 5.81-6.36 5.81-10.07s-2.6-5.21-5.81-3.36Z"/><path class="cls-4" d="M89.81 62.84c1.33-.77 2.41-.15 2.41 1.39s-1.08 3.41-2.41 4.17c-1.33.77-2.41.15-2.41-1.39s1.08-3.41 2.41-4.17Z"/><path class="cls-5" d="M89.81 64.26c.65-.38 1.18-.07 1.18.68s-.53 1.66-1.18 2.04c-.65.38-1.18.07-1.18-.68s.53-1.66 1.18-2.04Z"/><g class="cls-26"><path class="cls-43" d="m109.68 51.46-4.02-2.33-3.02-2.8 4.02 2.33 3.02 2.8z"/><path class="cls-22" d="m79.07 68.85-4.02-2.33L78.16 60l4.02 2.33-3.11 6.52z"/><path class="cls-23" d="M82.18 62.33 78.16 60l24.68-14.26 4.02 2.34-24.68 14.25z"/><path class="cls-37" d="M106.86 48.08 110 51l-.32.46-3.02-2.8-24.28 14.02-2.99 6.27-.32-.1 3.11-6.52 24.68-14.25z"/></g><path d="m1.52 63.15.67-.39.09-.04.1-.02h.22l.12.03.12.04.12.06 1.49.86.12.08.12.09c.23.21.36.38.53.64l.09.16.08.16.07.17.06.17.05.17.04.17.03.17.02.17v4.35l-.03.15-.03.14-.04.13-.05.11-.06.1-.07.08-.08.07-.09.06-.67.39.09-.06-3.03-8.27-.09.04Z" style="fill:#dcdddd;fill-rule:evenodd"/><path class="cls-7" d="m2.3 63.23 1.49.86c.67.39 1.22 1.44 1.22 2.33v4.02c0 .89-.55 1.31-1.22.92L2.3 70.5c-.67-.39-1.22-1.44-1.22-2.33v-4.02c0-.89.55-1.31 1.22-.92Z"/><path class="cls-14" d="m1.88 70.98.05 17.12 23.86 13.86.87-18.24L1.88 70.98z"/><path class="cls-1" d="m10.59 54.39 23.86 13.86 12.6-6.89-23.87-13.87-12.59 6.9z"/><path class="cls-40" d="m34.45 68.25-5.34 13.88-3.31 1.93-.01 17.9L33 98.08l4.06-7.38 7.38-4.41 3.84 2.41 1.77-1.03-.33.2.09-32.54-1.39.83-1.71 4.98-12.26 7.11z"/><path d="m44.84 65.3-5.11 2.76a.41.41 0 0 0-.16.16l-7.65 14.4c-.18.34.2.71.54.51l12.76-7.51c.12-.07.19-.2.19-.33v-9.66c0-.29-.31-.48-.57-.34Z" style="fill:#efefef"/><path class="cls-28" d="m31.91 82.68 12.65-7.44c.12-.07.19-.2.19-.33v-9.55l-5.02 2.71a.41.41 0 0 0-.16.16l-7.65 14.4s0 .03-.02.05Z"/><path class="cls-4" d="m32.99 77.46.67-.39.09-.04.1-.02h.22l.12.03.12.05.12.06 1.49.86.12.08.12.09c.23.21.36.38.53.64l.09.16.08.16.07.17.06.17.05.17.04.17.03.17.02.17v4.35l-.02.15-.03.14-.04.13-.05.11-.06.1-.07.08-.08.07-.09.06-.67.39.09-.06-3.03-8.27-.09.04Z"/><path class="cls-7" d="m33.76 77.53 1.49.86c.67.39 1.22 1.44 1.22 2.33v4.02c0 .89-.55 1.31-1.22.92l-1.49-.86c-.67-.39-1.22-1.44-1.22-2.33v-4.02c0-.89.55-1.31 1.22-.92Z"/><path d="m42.12 80.75 1.91-1.11c.19-.11.34-.4.34-.66 0-.25-.15-.37-.34-.26l-1.91 1.11c-.19.11-.34.4-.34.66 0 .25.15.37.34.26Z" style="fill:#e8e5e0;fill-rule:evenodd"/><path class="cls-5" d="M29.41 99.07v3.83c0 .34-.18.66-.46.84l-1.68 1.05c-.79.5-1.79.51-2.6.05L.56 90.88c-.33-.19-.53-.54-.53-.91L.01 86l25.78 14.68 3.63-1.6Z"/><path class="cls-6" d="m28.74 98.15-3 1.73-23.9-13.76h.02v-1.64l-1.42.82c-.67.39-.59 1.07.19 1.52l1.2.69 21.92 12.62.78.45c.77.45 1.96.5 2.63.11l1.76-1.02c.67-.39.59-1.07-.19-1.52Z"/><path d="M17.73 88.75v4.12c-.01.46-.51.74-.91.52l-8.55-4.93c-.3-.18-.49-.5-.49-.85v-4.3c.01-.39.43-.63.77-.44l8.67 5c.31.18.51.52.51.88Z" style="fill:#494949"/><g class="cls-26"><path class="cls-34" d="m1.3 84.02.84-.49c0 .19.13.42.3.52l-.84.49c-.17-.1-.3-.33-.3-.52Z"/><path class="cls-34" d="m1.31 81.05.84-.49v2.97l-.85.49.01-2.97zM1.4 80.85l.84-.49c-.05.03-.09.1-.09.19l-.84.49c0-.1.03-.16.09-.19Z"/><path class="cls-10" d="m1.4 80.85.84-.49c.05-.03.13-.03.22.02l-.84.49c-.08-.05-.16-.05-.22-.02Z"/><path class="cls-28" d="m1 80.16.84-.49c.16-.09.38-.08.62.06l-.84.49c-.24-.14-.46-.15-.62-.06Z"/><path class="cls-34" d="m1.6 84.54.85-.49 3.81 2.2-.84.49-3.82-2.2z"/><path class="cls-34" d="m6.48 86.27-.84.49c-.05.03-.13.03-.22-.02l.84-.49c.08.05.16.05.22.02Z"/><path class="cls-10" d="m6.48 86.27-.84.49c.05-.03.09-.1.09-.19l.84-.49c0 .09-.03.16-.09.19Z"/><path class="cls-28" d="m6.88 86.96-.84.49c.16-.09.25-.28.25-.56l.84-.49c0 .27-.1.47-.25.56Z"/><path class="cls-10" d="m5.73 83.6.85-.49-.01 2.97-.84.49V83.6zM1.62 80.87l.84-.49 3.81 2.21-.84.49-3.81-2.21z"/><path class="cls-36" d="M5.43 83.08c.17.1.3.33.3.52v2.97c0 .19-.14.27-.31.17l-3.82-2.2c-.17-.1-.3-.33-.3-.52v-2.97c0-.19.14-.27.31-.17l3.82 2.2Z"/><path class="cls-10" d="m5.43 83.08.84-.49c.17.1.3.33.3.52l-.84.49c0-.19-.13-.43-.3-.52Z"/><path class="cls-28" d="m6.3 83.92.84-.48-.01 2.97-.84.49.01-2.98zM1.62 80.22l.84-.49 3.82 2.21-.85.49-3.81-2.21z"/><path class="cls-28" d="m5.43 82.43.84-.49c.48.28.87.95.86 1.5l-.84.49c0-.55-.39-1.22-.86-1.5Z"/><path class="cls-17" d="M5.43 82.43c.48.28.87.95.86 1.5v2.97c0 .55-.4.77-.88.5l-3.82-2.2c-.48-.28-.87-.95-.86-1.5v-2.97c0-.55.4-.77.88-.5l3.82 2.2Zm.3 4.14V83.6c0-.19-.13-.43-.29-.52l-3.82-2.2c-.17-.1-.3-.02-.3.17v2.97c0 .19.13.42.29.52l3.82 2.2c.17.1.3.02.3-.17"/></g><g class="cls-26"><path class="cls-34" d="m19.3 93.94.84-.49c0 .19.13.42.3.52l-.84.49c-.17-.1-.3-.33-.3-.52ZM19.31 90.97l.84-.49-.01 2.97-.84.49.01-2.97zM19.4 90.77l.84-.49c-.05.03-.09.1-.09.19l-.84.49c0-.1.03-.16.09-.19Z"/><path class="cls-10" d="m19.4 90.77.84-.49c.05-.03.13-.03.22.02l-.84.49c-.08-.05-.16-.05-.22-.02Z"/><path class="cls-28" d="m19 90.09.84-.49c.16-.09.38-.08.62.06l-.84.49c-.24-.14-.46-.15-.62-.06Z"/><path class="cls-34" d="m19.6 94.46.84-.49 3.82 2.2-.84.49-3.82-2.2zM24.48 96.2l-.84.49c-.05.03-.13.03-.22-.02l.84-.49c.08.05.16.05.22.02Z"/><path class="cls-10" d="m24.48 96.2-.84.49c.05-.03.09-.1.09-.19l.84-.49c0 .09-.03.16-.09.19Z"/><path class="cls-28" d="m24.87 96.89-.84.49c.16-.09.25-.28.25-.56l.84-.49c0 .27-.1.47-.25.56Z"/><path class="cls-10" d="m23.73 93.52.84-.49-.01 2.97-.84.49.01-2.97zM19.61 90.8l.84-.49 3.82 2.2-.84.49-3.82-2.2z"/><path class="cls-36" d="M23.43 93c.17.1.3.33.3.52v2.97c0 .19-.14.27-.31.17l-3.82-2.2c-.17-.1-.3-.33-.3-.52v-2.97c0-.19.14-.27.31-.17l3.82 2.2Z"/><path class="cls-10" d="m23.43 93 .84-.49c.17.1.3.33.3.52l-.84.49c0-.19-.13-.43-.3-.52Z"/><path class="cls-28" d="m24.29 93.85.85-.49-.01 2.97-.84.49v-2.97zM19.61 90.15l.85-.49 3.81 2.2-.84.49-3.82-2.2z"/><path class="cls-28" d="m23.43 92.35.84-.49c.48.28.87.95.86 1.5l-.84.49c0-.55-.39-1.22-.86-1.5Z"/><path class="cls-17" d="M23.43 92.35c.48.28.87.95.86 1.5v2.97c0 .55-.4.77-.88.5l-3.82-2.2c-.48-.28-.87-.95-.86-1.5v-2.97c0-.55.4-.77.88-.5l3.82 2.2Zm.29 4.14v-2.97c0-.19-.13-.43-.29-.52l-3.82-2.2c-.17-.1-.3-.02-.3.17v2.97c0 .19.13.42.29.52l3.82 2.2c.17.1.3.02.3-.17"/></g><path class="cls-39" d="m2.32 71.78 22.13 12.36c.76.45 1.72.39 2.43-.13l2.31-1.71 5.25-14.05-23.86-13.87-4.91 14.39-3.35 1.52a.854.854 0 0 0 0 1.48Z"/><path style="stroke:#f7f8f8;stroke-linejoin:round;stroke-width:.5px;fill:#474c52" d="m32.37 68.87-4.64 11.67L7.22 69.12l4.2-12.44 20.95 12.19z"/><path class="cls-14" d="m23.18 47.49 23.53 13.65 1.97-5.32-24.02-13.54-1.48 5.21z"/><path class="cls-1" d="m24.66 42.28 23.87 13.87 1.28-.82-23.86-13.86-1.29.81z"/><g class="cls-26"><path class="cls-44" d="m30.06 91.68-.56-.32c-.24-.14-.58-.12-.94.09l.56.32c.37-.21.7-.23.94-.09Z"/><path class="cls-44" d="m27.63 94.58.56.32c-.24-.14-.38-.43-.39-.85 0-.84.59-1.87 1.32-2.29l-.56-.32c-.73.42-1.32 1.45-1.32 2.29 0 .42.15.71.39.85Z"/><path class="cls-44" d="M29.12 91.77c-.73.42-1.32 1.45-1.32 2.29s.6 1.18 1.33.76 1.33-1.45 1.32-2.29-.6-1.18-1.33-.76Z"/></g><path d="M28.33 93.85c0 .56.39.78.87.5s.87-.95.87-1.51-.39-.78-.87-.5-.87.95-.87 1.51Z" style="fill:#bc5705"/><g class="cls-26"><path class="cls-13" d="m104.1 27.92-.05 20.86-.67-.38.06-20.86.66.38z"/><path class="cls-27" d="m104.1 27.92.55-.32-.06 20.86-.54.32.05-20.86z"/><path class="cls-3" d="m103.44 27.54.55-.32.66.38-.55.32-.66-.38z"/></g><g class="cls-26"><path class="cls-3" d="m104.08 48.34-5.54 3.22-.64-.37 5.54-3.22.64.37z"/><path class="cls-27" d="M104.08 48.34v.42l-5.54 3.22v-.42l5.54-3.22z"/><path class="cls-13" d="M98.54 51.56v.42l-.64-.37v-.42l.64.37z"/></g><g class="cls-26"><path class="cls-3" d="m104.01 45.77-5.54 3.22-.64-.37 5.54-3.22.64.37z"/><path class="cls-27" d="M104.01 45.77v.42l-5.54 3.22v-.42l5.54-3.22z"/><path class="cls-13" d="M98.47 48.99v.42l-.64-.37v-.42l.64.37z"/></g><g class="cls-26"><path class="cls-3" d="m104.08 43.2-5.54 3.22-.64-.37 5.54-3.22.64.37z"/><path class="cls-27" d="M104.08 43.2v.42l-5.54 3.22v-.42l5.54-3.22z"/><path class="cls-13" d="M98.54 46.42v.42l-.64-.37v-.42l.64.37z"/></g><g class="cls-26"><path class="cls-3" d="m104.3 40.63-5.54 3.22-.64-.37 5.54-3.22.64.37z"/><path class="cls-27" d="M104.3 40.63v.43l-5.54 3.21v-.42l5.54-3.22z"/><path class="cls-13" d="M98.76 43.85v.42l-.64-.37v-.42l.64.37z"/></g><g class="cls-26"><path class="cls-3" d="m104.37 38.06-5.53 3.22-.64-.37 5.53-3.21.64.36z"/><path class="cls-27" d="M104.37 38.06v.43l-5.53 3.21v-.42l5.53-3.22z"/><path class="cls-13" d="M98.84 41.28v.42l-.64-.36v-.43l.64.37z"/></g><g class="cls-26"><path class="cls-3" d="m104.3 35.5-5.54 3.21-.64-.37 5.54-3.21.64.37z"/><path class="cls-27" d="M104.3 35.5v.42l-5.54 3.22v-.43l5.54-3.21z"/><path class="cls-13" d="M98.76 38.71v.43l-.64-.37v-.43l.64.37z"/></g><g class="cls-26"><path class="cls-3" d="m104.45 32.93-5.54 3.21-.64-.36 5.54-3.22.64.37z"/><path class="cls-27" d="M104.45 32.93v.42l-5.54 3.22v-.43l5.54-3.21z"/><path class="cls-13" d="M98.91 36.14v.43l-.64-.37v-.42l.64.36z"/></g><g class="cls-26"><path class="cls-3" d="m104.45 30.36-5.54 3.22-.64-.37 5.54-3.22.64.37z"/><path class="cls-27" d="M104.45 30.36v.42L98.91 34v-.42l5.54-3.22z"/><path class="cls-13" d="M98.91 33.58V34l-.64-.37v-.42l.64.37z"/></g><g class="cls-26"><path class="cls-3" d="m104.37 27.79-5.53 3.22-.64-.37 5.53-3.22.64.37z"/><path class="cls-27" d="M104.37 27.79v.42l-5.54 3.22.01-.42 5.53-3.22z"/><path class="cls-13" d="m98.84 31.01-.01.42-.63-.37v-.42l.64.37z"/></g><g class="cls-26"><path class="cls-13" d="m98.47 31.21-.05 20.86-.67-.38.06-20.86.66.38z"/><path class="cls-27" d="m98.47 31.21.55-.32-.06 20.86-.54.32.05-20.86z"/><path class="cls-3" d="m97.81 30.83.55-.32.66.38-.55.32-.66-.38z"/></g><g class="cls-26"><path class="cls-13" d="m75.97 71.16-.02 6.47-.63-.37.02-6.46.63.36z"/><path class="cls-27" d="m75.97 71.16.69-.4-.01 6.46-.7.41.02-6.47z"/><path class="cls-3" d="m75.34 70.8.7-.4.62.36-.69.4-.63-.36z"/></g><g class="cls-26"><path class="cls-3" d="m75.98 77.24-5.27 3.06-.61-.35 5.27-3.06.61.35z"/><path class="cls-32" d="M75.98 77.24v.4l-5.27 3.07v-.41l5.27-3.06z"/><path class="cls-13" d="M70.71 80.3v.41l-.61-.36v-.4l.61.35z"/></g><g class="cls-26"><path class="cls-3" d="m76.05 75.22-5.27 3.06-.6-.35 5.26-3.06.61.35z"/><path class="cls-32" d="M76.05 75.22v.4l-5.27 3.06v-.4l5.27-3.06z"/><path class="cls-13" d="M70.78 78.28v.4l-.61-.35.01-.4.6.35z"/></g><g class="cls-26"><path class="cls-3" d="m75.98 73.2-5.27 3.06-.6-.35 5.26-3.06.61.35z"/><path class="cls-32" d="M75.98 73.2v.4l-5.27 3.07v-.41l5.27-3.06z"/><path class="cls-13" d="M70.71 76.26v.41l-.61-.36.01-.4.6.35z"/></g><g class="cls-26"><path class="cls-32" d="m75.98 71.18-5.27 3.07-.6-.35 5.26-3.07.61.35z"/><path class="cls-27" d="M75.98 71.18v.41l-5.27 3.06v-.4l5.27-3.07z"/><path class="cls-13" d="M70.71 74.25v.4l-.61-.35.01-.4.6.35z"/></g><g class="cls-26"><path class="cls-13" d="m70.49 74.39-.02 6.46-.63-.36.02-6.46.63.36z"/><path class="cls-27" d="m70.49 74.39.52-.3-.02 6.46-.52.3.02-6.46z"/><path class="cls-3" d="m69.86 74.03.52-.3.63.36-.52.3-.63-.36z"/></g><path class="cls-14" d="m35.51 64.24-2.95-.04v1.08c-.01.18.11.36.39.5.55.28 1.49.3 2.09.03.3-.13.46-.31.47-.49v-1.08Z"/><path class="cls-24" d="m35.38 61.55-2.54-.03-.27 2.67c-.01.18.11.36.39.5.55.28 1.49.3 2.09.03.3-.13.46-.31.47-.49l-.14-2.68Z"/><path class="cls-18" d="M35.04 61.12c-.48-.24-1.28-.26-1.8-.03s-.55.61-.07.86c.48.24 1.28.26 1.8.03s.55-.61.07-.86Z"/><path class="cls-35" d="M35.06 63.73c-.51-.26-1.38-.28-1.94-.03s-.59.66-.08.93c.51.26 1.38.28 1.94.03s.59-.66.08-.92Z"/><path class="cls-35" d="M33.66 62.73c-.13.36-.19.93-.05 1.26.14.33.76.24.89-.12s.09-.54-.05-.87c-.14-.33-.66-.63-.79-.27Z"/><path class="cls-18" d="M34.16 63.03c-.11.37-.11.88.01 1.14.12.27.3.19.41-.18.11-.37.11-.88-.01-1.14-.12-.27-.3-.19-.41.18Z"/><path class="cls-14" d="m17.67 53.56-2.95-.04v1.08c-.01.18.11.36.39.5.55.28 1.49.3 2.09.03.3-.13.46-.31.47-.49v-1.08Z"/><path class="cls-24" d="M17.54 50.88 15 50.85l-.27 2.67c-.01.18.11.36.39.5.55.28 1.49.3 2.09.03.3-.13.46-.31.47-.49l-.14-2.68Z"/><path class="cls-18" d="M17.2 50.45c-.48-.24-1.28-.26-1.8-.03s-.55.61-.07.86c.48.24 1.28.26 1.8.03s.55-.61.07-.86Z"/><path class="cls-35" d="M17.21 53.06c-.51-.26-1.38-.28-1.94-.03s-.59.66-.08.93c.51.26 1.38.28 1.94.03s.59-.66.08-.92Z"/><path class="cls-35" d="M15.82 52.05c-.13.36-.19.93-.05 1.26.14.33.76.24.89-.12s.09-.54-.05-.87c-.14-.33-.66-.63-.79-.27Z"/><path class="cls-18" d="M16.32 52.36c-.11.37-.11.88.01 1.14.12.27.3.19.41-.18.11-.37.11-.88-.01-1.14-.12-.27-.3-.19-.41.18Z"/></g></svg>