<?xml version="1.0" encoding="UTF-8"?>
<svg id="Layer_2" data-name="Layer 2" xmlns="http://www.w3.org/2000/svg" xmlns:xlink="http://www.w3.org/1999/xlink" viewBox="0 0 94.13 78.01">
  <defs>
    <style>
      .cls-1 {
        fill: #89abd6;
      }

      .cls-2 {
        fill: #eeebeb;
      }

      .cls-3 {
        fill: url(#_名称未設定グラデーション_215-2);
      }

      .cls-4 {
        fill: url(#_名称未設定グラデーション_377-2);
      }

      .cls-5 {
        fill: url(#_名称未設定グラデーション_296-2);
      }

      .cls-6 {
        fill: #3c4457;
      }

      .cls-7 {
        fill: url(#_名称未設定グラデーション_215);
      }

      .cls-8 {
        fill: url(#_名称未設定グラデーション_281);
      }

      .cls-9 {
        fill: url(#_名称未設定グラデーション_377);
      }

      .cls-10 {
        fill: url(#_名称未設定グラデーション_111);
      }

      .cls-11 {
        fill: url(#_名称未設定グラデーション_296);
      }

      .cls-12 {
        fill: #819aba;
      }

      .cls-13 {
        fill: #3867b7;
      }

      .cls-14 {
        fill: #706763;
      }

      .cls-15 {
        fill: #ded3c9;
      }

      .cls-16 {
        fill: #adadad;
      }

      .cls-17 {
        fill: #756a66;
      }
    </style>
    <linearGradient id="_名称未設定グラデーション_377" data-name="名称未設定グラデーション 377" x1="18.55" y1="3.75" x2="-.7" y2="37.08" gradientUnits="userSpaceOnUse">
      <stop offset="0" stop-color="#6d859e"/>
      <stop offset=".24" stop-color="#698199"/>
      <stop offset=".52" stop-color="#60758b"/>
      <stop offset=".82" stop-color="#516274"/>
      <stop offset="1" stop-color="#455463"/>
    </linearGradient>
    <linearGradient id="_名称未設定グラデーション_215" data-name="名称未設定グラデーション 215" x1="27.75" y1="5.61" x2="8.47" y2="31.03" gradientUnits="userSpaceOnUse">
      <stop offset="0" stop-color="#8cafd1"/>
      <stop offset="1" stop-color="#728db8"/>
    </linearGradient>
    <linearGradient id="_名称未設定グラデーション_281" data-name="名称未設定グラデーション 281" x1="53.89" y1="25.1" x2="36.72" y2="55.19" gradientUnits="userSpaceOnUse">
      <stop offset="0" stop-color="#99b7d4"/>
      <stop offset=".73" stop-color="#495975"/>
      <stop offset=".81" stop-color="#4f5c78"/>
      <stop offset="1" stop-color="#525e7a"/>
    </linearGradient>
    <linearGradient id="_名称未設定グラデーション_296" data-name="名称未設定グラデーション 296" x1="31.23" y1="35.68" x2="65.37" y2="35.68" gradientUnits="userSpaceOnUse">
      <stop offset="0" stop-color="#414b61"/>
      <stop offset=".33" stop-color="#424c63"/>
      <stop offset=".48" stop-color="#48536a"/>
      <stop offset=".6" stop-color="#525f77"/>
      <stop offset=".7" stop-color="#5f708a"/>
      <stop offset=".79" stop-color="#7186a1"/>
      <stop offset=".87" stop-color="#88a1bf"/>
      <stop offset=".95" stop-color="#a1c1e1"/>
      <stop offset="1" stop-color="#b8dcff"/>
    </linearGradient>
    <linearGradient id="_名称未設定グラデーション_377-2" data-name="名称未設定グラデーション 377" x1="85.32" y1="42.14" x2="66.08" y2="75.47" xlink:href="#_名称未設定グラデーション_377"/>
    <linearGradient id="_名称未設定グラデーション_215-2" data-name="名称未設定グラデーション 215" x1="90.74" y1="49" x2="71.46" y2="74.41" xlink:href="#_名称未設定グラデーション_215"/>
    <linearGradient id="_名称未設定グラデーション_111" data-name="名称未設定グラデーション 111" x1="2151.3" y1="-418.23" x2="2168.69" y2="-418.23" gradientTransform="translate(2208.02 446.29) rotate(-180) scale(1 -1)" gradientUnits="userSpaceOnUse">
      <stop offset="0" stop-color="#7596b5"/>
      <stop offset="1" stop-color="#4b6ea3"/>
    </linearGradient>
    <linearGradient id="_名称未設定グラデーション_296-2" data-name="名称未設定グラデーション 296" x1="39.37" y1="24.36" x2="57.13" y2="24.36" xlink:href="#_名称未設定グラデーション_296"/>
  </defs>
  <g id="base">
    <g>
      <path class="cls-9" d="M21.82,6.32c-2.32-1.29-5.49-1.07-8.99.95C5.74,11.35,0,21.31,0,29.49c0,4.14,1.47,7.04,3.84,8.35l1.69.97L23.51,7.29l-1.69-.97Z"/>
      <path id="Cylinder_face" data-name="Cylinder face" class="cls-7" d="M1.69,30.46c0-8.18,5.74-18.13,12.83-22.23,7.09-4.09,12.83-.77,12.83,7.41s-5.74,18.13-12.83,22.23c-7.09,4.09-12.83.77-12.83-7.41Z"/>
      <path class="cls-8" d="M86.22,50.71l-20.85-12.01v-7.31l-7.9,2.77L21.43,13.42c-1.5-.84-3.56-.7-5.83.61-4.6,2.66-8.33,9.11-8.33,14.42,0,2.69.95,4.57,2.49,5.42l21.52,12.4c.24,2.32,1.88,4.6,4.95,6.37,3.07,1.77,7.03,2.69,11.06,2.83l27.27,15.69,11.67-20.46Z"/>
      <path class="cls-12" d="M18.62,12.91c-1.49.31-4.8,1.4-7.77,5.56l21.35,12.33,6.61-6.23-20.2-11.66Z"/>
      <path class="cls-11" d="M31.23,29.95v1.51c-.04,2.55,1.63,5.11,5,7.06,6.67,3.85,17.48,3.85,24.14,0,3.29-1.9,4.96-4.39,5-6.88v-1.51l-34.14-.18Z"/>
      <path id="Cylinder_face-2" data-name="Cylinder face" class="cls-1" d="M60.83,36.14c6.38-4.31,5.94-10.53-.98-13.9-6.92-3.37-17.7-2.61-24.08,1.7-6.38,4.31-5.94,10.53.98,13.9,6.92,3.37,17.7,2.61,24.08-1.7Z"/>
      <path class="cls-12" d="M64.7,39.52c-1.49.31-5.15,1.49-7.21,5.88l14.88,8.59,6.61-6.23-14.27-8.24Z"/>
      <path class="cls-4" d="M88.6,44.71c-2.32-1.29-5.49-1.08-8.99.95-7.09,4.09-12.83,14.04-12.83,22.23,0,4.14,1.47,7.04,3.84,8.35l1.69.97,17.98-31.53-1.69-.97Z"/>
      <path id="Cylinder_face-3" data-name="Cylinder face" class="cls-3" d="M68.47,68.85c0-8.18,5.74-18.13,12.83-22.23,7.09-4.09,12.83-.77,12.83,7.41s-5.74,18.13-12.83,22.23c-7.09,4.09-12.83.77-12.83-7.41Z"/>
      <path class="cls-6" d="M81.3,52.65c-4.21,2.43-7.62,8.34-7.62,13.19s3.41,6.83,7.62,4.4c4.21-2.43,7.62-8.34,7.62-13.19s-3.41-6.83-7.62-4.4Z"/>
      <path class="cls-6" d="M91.46,54.37c.54-.31.97-.06.97.55,0,.61-.43,1.35-.96,1.66-.53.31-.96.06-.97-.55,0-.61.43-1.36.96-1.66ZM87.89,65.06c-.38.65-.37,1.35,0,1.56.19.11.43.08.68-.07.25-.14.49-.39.68-.72.38-.65.37-1.35,0-1.56-.19-.11-.43-.08-.68.07-.25.14-.49.39-.68.72ZM89.09,49.39c.38-.65.37-1.35,0-1.57-.19-.11-.43-.08-.68.07-.25.14-.49.39-.68.72-.37.65-.37,1.35,0,1.57.19.11.44.07.68-.07.25-.14.49-.39.68-.72ZM80.45,73.64c0,.61.43.86.96.55.54-.31.96-1.05.96-1.66,0-.61-.43-.86-.97-.55-.53.31-.96,1.05-.96,1.66ZM82.15,49.25c0-.61-.43-.86-.97-.55-.54.31-.96,1.06-.96,1.67,0,.61.43.86.97.55.53-.31.96-1.05.96-1.66ZM73.51,73.5c-.38.65-.37,1.35,0,1.57.19.11.44.07.68-.07.25-.14.49-.39.68-.72.37-.65.37-1.35,0-1.57-.19-.11-.44-.07-.68.07s-.49.39-.68.72ZM74.71,57.82c.37-.65.37-1.35,0-1.57-.19-.11-.44-.07-.68.07-.25.14-.49.39-.68.72-.38.65-.37,1.35,0,1.57.19.11.43.08.68-.07.25-.14.49-.39.68-.72ZM70.17,67.97c0,.61.43.86.97.55.53-.31.96-1.05.96-1.66,0-.61-.43-.86-.96-.55-.54.31-.96,1.06-.96,1.67Z"/>
      <g>
        <g id="Axonometric_Cylinder" data-name="Axonometric Cylinder">
          <path id="Cylinder_face-4" data-name="Cylinder face" class="cls-13" d="M42.46,25.21c3.2,1.85,8.39,1.85,11.6,0s3.2-4.85,0-6.69-8.39-1.85-11.6,0-3.2,4.85,0,6.69Z"/>
          <path id="Cylinder_body" data-name="Cylinder body" class="cls-10" d="M40.06,21.82v7.69c-.02,1.23.78,2.46,2.4,3.39,3.2,1.85,8.39,1.85,11.6,0,1.58-.91,2.38-2.11,2.4-3.3v-7.69c-.02,1.2-.82,2.39-2.4,3.3-3.2,1.85-8.39,1.85-11.6,0-1.62-.94-2.42-2.16-2.4-3.39Z"/>
        </g>
        <g id="Axonometric_Cylinder-2" data-name="Axonometric Cylinder">
          <path class="cls-5" d="M57.13,22.34c-.02,1.3-.89,2.59-2.6,3.58-3.47,2-9.09,2-12.56,0-1.75-1.01-2.62-2.34-2.6-3.67v-.95s17.76.09,17.76.09v.95Z"/>
          <path id="Cylinder_face-5" data-name="Cylinder face" class="cls-1" d="M41.98,24.97c3.47,2,9.09,2,12.56,0s3.47-5.25,0-7.25c-3.47-2-9.09-2-12.56,0-3.47,2-3.47,5.25,0,7.25Z"/>
        </g>
      </g>
      <g id="Axonometric_Cylinder-3" data-name="Axonometric Cylinder">
        <path id="Cylinder_face-6" data-name="Cylinder face" class="cls-15" d="M47.19,10.76c-.6-.35-.6-.91,0-1.26.6-.35,1.58-.35,2.18,0,.6.35.6.91,0,1.26-.6.35-1.58.35-2.18,0Z"/>
        <path id="Cylinder_body-2" data-name="Cylinder body" class="cls-2" d="M49.83,10.12v11.39c0,.23-.15.46-.45.64-.6.35-1.58.35-2.18,0-.3-.17-.45-.4-.45-.62v-11.39c0,.23.15.45.45.62.6.35,1.58.35,2.18,0,.3-.18.46-.41.45-.64Z"/>
      </g>
      <g>
        <path class="cls-14" d="M59.81,4.5c-4.9-3.63-14.11-4.32-20.52-1.53-2.13.92-3.78,2.16-4.82,3.57-.7.94-1.12,1.96-1.25,3.02-.26,2.25.88,4.43,3.19,6.14,4.9,3.63,14.11,4.32,20.52,1.53,3.55-1.54,5.76-3.94,6.06-6.58.26-2.25-.88-4.43-3.19-6.14ZM60.23,12.54c-.76,1.02-1.99,1.95-3.57,2.7l-5.79-4.29c.15-.22.27-.46.3-.71.02-.14-.05-.27-.07-.41l7.98-3.47c1.46,1.22,2.21,2.64,2.04,4.06-.08.73-.39,1.44-.89,2.12ZM39.04,15.06l7.49-3.25c.76.29,1.68.34,2.53.16l5.5,4.07c-5.06,1.62-11.35,1.22-15.52-.98ZM39.56,4.94l5.79,4.29c-.16.22-.26.46-.29.72-.02.14.05.27.07.41l-7.98,3.47c-1.46-1.22-2.21-2.64-2.04-4.06.21-1.83,1.83-3.57,4.45-4.82ZM57.18,5.12l-7.49,3.25c-.76-.29-1.68-.34-2.53-.17l-5.5-4.07c5.06-1.62,11.34-1.21,15.52.99Z"/>
        <path class="cls-16" d="M59.81,3.24c-4.9-3.63-14.11-4.32-20.52-1.53-2.13.92-3.78,2.16-4.82,3.57-.7.94-1.12,1.96-1.25,3.02-.26,2.25.88,4.43,3.19,6.14,4.9,3.63,14.11,4.32,20.52,1.53,3.55-1.54,5.76-3.94,6.06-6.58.26-2.25-.88-4.43-3.19-6.14ZM60.23,11.29c-.76,1.02-1.99,1.95-3.57,2.7l-5.79-4.29c.15-.22.27-.46.3-.71.02-.14-.05-.27-.07-.41l7.98-3.47c1.46,1.22,2.21,2.64,2.04,4.06-.08.73-.39,1.44-.89,2.12ZM39.04,13.81l7.49-3.25c.76.29,1.68.34,2.53.16l5.5,4.07c-5.06,1.62-11.35,1.22-15.52-.98ZM39.56,3.68l5.79,4.29c-.16.22-.26.46-.29.72-.02.14.05.27.07.41l-7.98,3.47c-1.46-1.22-2.21-2.64-2.04-4.06.21-1.83,1.83-3.57,4.45-4.82ZM57.18,3.87l-7.49,3.25c-.76-.29-1.68-.34-2.53-.17l-5.5-4.07c5.06-1.62,11.34-1.21,15.52.99Z"/>
      </g>
      <g>
        <path class="cls-17" d="M46.55,8.7v.39c0,.23.15.45.45.62.6.35,1.58.35,2.18,0,.3-.18.46-.41.45-.64v-.39l-3.08.02Z"/>
        <path id="Cylinder_face-7" data-name="Cylinder face" class="cls-2" d="M47.02,9.16c-.6-.35-.6-.91,0-1.26.6-.35,1.58-.35,2.18,0,.6.35.6.91,0,1.26-.6.35-1.58.35-2.18,0Z"/>
      </g>
    </g>
  </g>
</svg>