<?xml version="1.0" encoding="UTF-8"?>
<svg id="Layer_2" data-name="Layer 2" xmlns="http://www.w3.org/2000/svg" viewBox="0 0 62.08 108.76">
  <defs>
    <style>
      .cls-1 {
        fill: #9aa8a8;
      }

      .cls-2 {
        fill: #b5cfe3;
        opacity: .43;
      }

      .cls-3 {
        fill: #aba49e;
      }

      .cls-4 {
        fill: #9a938d;
      }

      .cls-5 {
        fill: #aec3d4;
        opacity: .63;
      }

      .cls-6 {
        fill: #f2f2f2;
      }

      .cls-7 {
        opacity: .69;
      }

      .cls-7, .cls-8 {
        fill: #a7bed4;
      }

      .cls-8 {
        opacity: .66;
      }
    </style>
  </defs>
  <g id="base">
    <g>
      <path class="cls-6" d="M.21,1.76l-.21,73.02,58.84,33.97.21-73.02L.21,1.76ZM54.88,99.49L6.01,71.28l.17-61.02,48.87,28.21-.17,61.02Z"/>
      <polygon class="cls-1" points="6.18 10.26 3.88 8.93 3.7 72.43 54.87 101.97 54.88 99.49 6.01 71.28 6.18 10.26"/>
      <polygon class="cls-4" points="59.05 35.73 62.08 33.97 61.87 107 58.84 108.76 59.05 35.73"/>
      <polygon class="cls-3" points=".21 1.76 3.24 0 62.08 33.97 59.05 35.73 .21 1.76"/>
      <polygon class="cls-1" points="32.41 25.47 32.24 88.06 28.94 86.15 29.11 23.57 32.41 25.47"/>
      <g>
        <polygon class="cls-2" points="6.18 10.43 3.88 9.1 3.78 44.1 30.99 24.76 6.18 10.43"/>
        <polygon class="cls-8" points="30.99 24.76 3.78 44.1 3.75 54.18 38.8 29.26 30.99 24.76"/>
        <polygon class="cls-2" points="38.8 29.26 3.75 54.18 3.73 60.92 44.02 32.28 38.8 29.26"/>
        <polygon class="cls-2" points="55.05 38.64 47.56 34.32 3.72 65.48 3.7 72.6 18.1 80.92 55 54.69 55.05 38.64"/>
        <polygon class="cls-7" points="44.02 32.28 3.73 60.92 3.72 65.48 47.56 34.32 44.02 32.28"/>
        <polygon class="cls-5" points="18.1 80.92 54.87 102.15 54.88 99.66 55 54.69 18.1 80.92"/>
      </g>
      <polygon class="cls-6" points="30.52 23.18 30.33 89.07 27.02 87.17 27.21 21.27 30.52 23.18"/>
    </g>
  </g>
</svg>