<svg width="167" height="63" viewBox="0 0 167 63" fill="none" xmlns="http://www.w3.org/2000/svg">
<g filter="url(#filter0_d_2167_2962)">
<mask id="path-1-inside-1_2167_2962" fill="white">
<path fill-rule="evenodd" clip-rule="evenodd" d="M51.0664 46.8237C46.0807 51.8717 39.1557 55 31.5 55C16.3122 55 4 42.6878 4 27.5C4 12.3122 16.3122 0 31.5 0C38.7399 0 45.3264 2.79778 50.2373 7.37114C51.0987 7.12933 52.0071 7 52.9458 7H152.946C158.469 7 162.946 11.4772 162.946 17V37C162.946 42.5229 158.469 47 152.946 47H52.9458C52.3034 47 51.6751 46.9394 51.0664 46.8237Z"/>
</mask>
<path fill-rule="evenodd" clip-rule="evenodd" d="M51.0664 46.8237C46.0807 51.8717 39.1557 55 31.5 55C16.3122 55 4 42.6878 4 27.5C4 12.3122 16.3122 0 31.5 0C38.7399 0 45.3264 2.79778 50.2373 7.37114C51.0987 7.12933 52.0071 7 52.9458 7H152.946C158.469 7 162.946 11.4772 162.946 17V37C162.946 42.5229 158.469 47 152.946 47H52.9458C52.3034 47 51.6751 46.9394 51.0664 46.8237Z" fill="white"/>
<path d="M51.0664 46.8237L51.4401 44.8589L50.3927 44.6597L49.6435 45.4183L51.0664 46.8237ZM50.2373 7.37114L48.8742 8.83475L49.6963 9.60031L50.7778 9.29671L50.2373 7.37114ZM49.6435 45.4183C45.018 50.1015 38.5994 53 31.5 53V57C39.712 57 47.1433 53.6419 52.4894 48.2291L49.6435 45.4183ZM31.5 53C17.4167 53 6 41.5833 6 27.5H2C2 43.7924 15.2076 57 31.5 57V53ZM6 27.5C6 13.4167 17.4167 2 31.5 2V-2C15.2076 -2 2 11.2076 2 27.5H6ZM31.5 2C38.2144 2 44.3189 4.59245 48.8742 8.83475L51.6003 5.90753C46.334 1.0031 39.2655 -2 31.5 -2V2ZM50.7778 9.29671C51.465 9.10381 52.1916 9 52.9458 9V5C51.8226 5 50.7324 5.15485 49.6967 5.44557L50.7778 9.29671ZM52.9458 9H152.946V5H52.9458V9ZM152.946 9C157.364 9 160.946 12.5817 160.946 17H164.946C164.946 10.3726 159.573 5 152.946 5V9ZM160.946 17V37H164.946V17H160.946ZM160.946 37C160.946 41.4183 157.364 45 152.946 45V49C159.573 49 164.946 43.6274 164.946 37H160.946ZM152.946 45H52.9458V49H152.946V45ZM52.9458 45C52.4294 45 51.9262 44.9513 51.4401 44.8589L50.6928 48.7885C51.4241 48.9275 52.1774 49 52.9458 49V45Z" fill="#2F3B53" mask="url(#path-1-inside-1_2167_2962)"/>
<path d="M79.23 32.005C79.23 30.775 79.23 25.705 79.23 23.89C79.23 23.38 79.185 22.615 79.11 22.165H81.345C81.27 22.615 81.21 23.38 81.21 23.89C81.21 25.69 81.21 29.815 81.21 31.48C81.21 32.425 81.48 32.74 83.115 32.74C84.69 32.74 86.37 32.545 87.855 32.245L87.78 34.285C86.55 34.465 84.75 34.6 83.13 34.6C79.725 34.6 79.23 33.79 79.23 32.005ZM88.665 25.42C88.53 25.63 88.32 25.975 88.185 26.23C87.525 27.49 86.16 29.545 85.08 30.61L83.43 29.635C84.42 28.75 85.395 27.37 85.815 26.59C84.9 26.77 77.97 28.15 76.065 28.57L75.705 26.605C77.745 26.365 84.795 24.985 86.16 24.655C86.58 24.55 86.955 24.445 87.225 24.295L88.665 25.42ZM94.26 22.255C96.24 22.495 100.56 23.38 102.45 24.04L101.685 25.9C99.93 25.255 95.685 24.31 93.57 24.04L94.26 22.255ZM93.585 26.29C95.73 26.65 99.54 27.475 101.415 28.12L100.68 29.995C98.97 29.335 95.115 28.465 92.88 28.105L93.585 26.29ZM92.805 30.595C95.385 30.985 99.99 32.065 102.06 32.83L101.235 34.705C99.21 33.88 94.455 32.845 92.055 32.47L92.805 30.595ZM111.87 23.89C111.87 23.395 111.81 22.615 111.675 22.135H114.045C113.97 22.615 113.925 23.44 113.925 23.905C113.925 24.745 113.925 25.87 113.925 26.875C113.925 30.13 113.085 32.8 109.65 34.855L107.775 33.475C110.94 32.02 111.87 29.665 111.87 26.875C111.87 25.87 111.87 24.73 111.87 23.89ZM106.29 25.435C106.755 25.495 107.37 25.54 107.97 25.54C108.825 25.54 116.385 25.54 117.3 25.54C117.99 25.54 118.635 25.495 118.95 25.45V27.505C118.635 27.475 117.885 27.445 117.285 27.445C116.385 27.445 108.825 27.445 108.015 27.445C107.37 27.445 106.77 27.475 106.29 27.52V25.435ZM121.365 27.055C121.92 27.1 123 27.16 123.78 27.16C125.55 27.16 130.5 27.16 131.835 27.16C132.54 27.16 133.2 27.085 133.605 27.055V29.425C133.245 29.41 132.48 29.335 131.85 29.335C130.485 29.335 125.55 29.335 123.78 29.335C122.94 29.335 121.935 29.38 121.365 29.425V27.055Z" fill="#2F3B53"/>
<g clip-path="url(#clip0_2167_2962)">
<path d="M38.7489 31.4985H22.5158V31.7392C22.5158 35.2643 22.5158 38.7867 22.5158 42.3118C22.5158 42.3982 22.5158 42.4845 22.508 42.5709C22.4792 42.8588 22.262 43.042 21.9636 43.0315C21.6758 43.021 21.4795 42.8352 21.4612 42.5473C21.4559 42.4688 21.4586 42.3877 21.4586 42.3066C21.4586 38.7894 21.4586 35.2721 21.4586 31.7523V31.4906C21.3748 31.4906 21.312 31.4906 21.2466 31.4906C20.4275 31.4906 19.611 31.4906 18.7919 31.4906C18.3208 31.4906 18.1429 31.3153 18.1429 30.8468C18.1429 29.8314 18.1429 28.8161 18.1429 27.8033C18.1429 27.3767 18.3339 27.1857 18.7631 27.1857C20.6578 27.1857 22.5525 27.1857 24.4472 27.1857H24.6879C24.6932 27.1098 24.6984 27.047 24.6984 26.9815C24.701 26.4529 24.6722 25.9217 24.7141 25.3957C24.8816 23.3754 25.8525 21.8366 27.5614 20.7584C27.8361 20.5857 28.1319 20.4496 28.4223 20.2952C27.2787 19.5101 26.614 18.4371 26.5277 17.037C26.4544 15.8437 26.8522 14.8074 27.687 13.9568C29.3697 12.248 32.1228 12.3003 33.6929 14.0432C35.2919 15.8201 35.1768 18.7459 32.8581 20.303C32.9131 20.3292 32.9602 20.3527 33.0073 20.3763C35.1532 21.3943 36.3675 23.0692 36.5664 25.448C36.6083 25.9505 36.5899 26.4555 36.5978 26.9606C36.5978 27.026 36.5978 27.0941 36.5978 27.1726H40.4762C40.4788 27.1124 40.4866 27.0548 40.4866 26.9946C40.4866 25.9243 40.4866 24.8539 40.4892 23.7836C40.4892 23.6606 40.4526 23.5821 40.3532 23.5088C39.8114 23.1058 39.2723 22.6949 38.7254 22.2788C38.2779 22.6374 37.765 22.7577 37.2049 22.7263C36.1477 22.6635 35.3783 21.9412 35.2553 20.8866C35.1192 19.7142 35.8232 18.7093 36.9354 18.5261C38.2648 18.3063 39.1834 19.0626 39.4241 20.0466C39.5236 20.46 39.5236 20.8761 39.3953 21.2844C39.3587 21.3969 39.3875 21.4466 39.4738 21.5121C40.0784 21.9674 40.675 22.4306 41.2822 22.8834C41.4706 23.0247 41.557 23.1974 41.557 23.4329C41.5517 24.6079 41.557 25.783 41.557 26.958C41.557 27.0234 41.557 27.0915 41.557 27.1804C41.871 27.1804 42.1693 27.1804 42.4703 27.1804C42.9518 27.1804 43.1429 27.3715 43.1429 27.8478C43.1429 28.8553 43.1429 29.8655 43.1429 30.873C43.1429 31.2865 42.9492 31.4828 42.5331 31.4854C41.7035 31.4854 40.8713 31.4854 40.0417 31.4854C39.9763 31.4854 39.9083 31.4854 39.8193 31.4854V31.7157C39.8193 35.2591 39.8193 38.7998 39.8193 42.3432C39.8193 42.4165 39.8219 42.4924 39.8141 42.5657C39.7853 42.83 39.5916 43.0105 39.3221 43.0262C39.0368 43.042 38.8248 42.8902 38.7699 42.618C38.7516 42.529 38.7516 42.4348 38.7516 42.3432C38.7516 38.8129 38.7516 35.2826 38.7516 31.7523V31.4958L38.7489 31.4985ZM35.5039 27.1778C35.5117 27.1621 35.5248 27.1464 35.5248 27.1307C35.5117 26.4974 35.5536 25.8589 35.4751 25.2334C35.148 22.6164 32.8921 20.7845 30.2778 20.9756C28.2575 21.1221 26.5407 22.5091 25.9572 24.4509C25.6902 25.3381 25.7844 26.2409 25.7792 27.1412C25.7792 27.1517 25.7923 27.1595 25.8028 27.1778H35.5039ZM19.2106 30.415H42.0542V28.256H19.2106V30.415ZM30.6337 19.8895C32.2693 19.9131 33.6877 18.5496 33.7191 16.9219C33.7531 15.2182 32.4002 13.7946 30.7227 13.7684C28.9562 13.7423 27.6294 15.1397 27.5928 16.6837C27.5509 18.4842 28.8725 19.866 30.6337 19.8922V19.8895ZM36.3073 20.6014C36.3073 21.2792 36.7051 21.6769 37.3803 21.6769C38.024 21.6769 38.4271 21.2713 38.4244 20.6301C38.4244 19.9654 38.0188 19.5598 37.3593 19.5624C36.7103 19.5676 36.3073 19.968 36.3073 20.604V20.6014Z" fill="#2F3B53"/>
</g>
</g>
<defs>
<filter id="filter0_d_2167_2962" x="0" y="0" width="166.946" height="63" filterUnits="userSpaceOnUse" color-interpolation-filters="sRGB">
<feFlood flood-opacity="0" result="BackgroundImageFix"/>
<feColorMatrix in="SourceAlpha" type="matrix" values="0 0 0 0 0 0 0 0 0 0 0 0 0 0 0 0 0 0 127 0" result="hardAlpha"/>
<feOffset dy="4"/>
<feGaussianBlur stdDeviation="2"/>
<feComposite in2="hardAlpha" operator="out"/>
<feColorMatrix type="matrix" values="0 0 0 0 0 0 0 0 0 0 0 0 0 0 0 0 0 0 0.25 0"/>
<feBlend mode="normal" in2="BackgroundImageFix" result="effect1_dropShadow_2167_2962"/>
<feBlend mode="normal" in="SourceGraphic" in2="effect1_dropShadow_2167_2962" result="shape"/>
</filter>
<clipPath id="clip0_2167_2962">
<rect width="30" height="30" fill="white" transform="translate(16 12)"/>
</clipPath>
</defs>
</svg>
