<svg width="190" height="63" viewBox="0 0 190 63" fill="none" xmlns="http://www.w3.org/2000/svg">
<g filter="url(#filter0_d_2167_2943)">
<mask id="path-1-inside-1_2167_2943" fill="white">
<path fill-rule="evenodd" clip-rule="evenodd" d="M50.891 46.9997C45.9188 51.9443 39.0663 55 31.5 55C16.3122 55 4 42.6878 4 27.5C4 12.3122 16.3122 0 31.5 0C38.5715 0 45.0195 2.66908 49.8917 7.05476C50.2381 7.01847 50.5898 6.99987 50.9458 6.99987H175.946C181.469 6.99987 185.946 11.477 185.946 16.9999V36.9999C185.946 42.5227 181.469 46.9999 175.946 46.9999H50.9458C50.9275 46.9999 50.9093 46.9998 50.891 46.9997Z"/>
</mask>
<path fill-rule="evenodd" clip-rule="evenodd" d="M50.891 46.9997C45.9188 51.9443 39.0663 55 31.5 55C16.3122 55 4 42.6878 4 27.5C4 12.3122 16.3122 0 31.5 0C38.5715 0 45.0195 2.66908 49.8917 7.05476C50.2381 7.01847 50.5898 6.99987 50.9458 6.99987H175.946C181.469 6.99987 185.946 11.477 185.946 16.9999V36.9999C185.946 42.5227 181.469 46.9999 175.946 46.9999H50.9458C50.9275 46.9999 50.9093 46.9998 50.891 46.9997Z" fill="white"/>
<path d="M50.891 46.9997L50.9019 44.9997L50.0703 44.9952L49.4807 45.5816L50.891 46.9997ZM49.8917 7.05476L48.5537 8.54124L49.2151 9.13659L50.1001 9.04387L49.8917 7.05476ZM49.4807 45.5816C44.868 50.1687 38.5166 53 31.5 53V57C39.616 57 46.9697 53.7199 52.3013 48.4179L49.4807 45.5816ZM31.5 53C17.4167 53 6 41.5833 6 27.5H2C2 43.7924 15.2076 57 31.5 57V53ZM6 27.5C6 13.4167 17.4167 2 31.5 2V-2C15.2076 -2 2 11.2076 2 27.5H6ZM31.5 2C38.0584 2 44.0344 4.47328 48.5537 8.54124L51.2298 5.56828C46.0046 0.864874 39.0845 -2 31.5 -2V2ZM50.1001 9.04387C50.3774 9.01482 50.6595 8.99987 50.9458 8.99987V4.99987C50.5201 4.99987 50.0988 5.02212 49.6833 5.06564L50.1001 9.04387ZM50.9458 8.99987H175.946V4.99987H50.9458V8.99987ZM175.946 8.99987C180.364 8.99987 183.946 12.5816 183.946 16.9999H187.946C187.946 10.3724 182.573 4.99987 175.946 4.99987V8.99987ZM183.946 16.9999V36.9999H187.946V16.9999H183.946ZM183.946 36.9999C183.946 41.4181 180.364 44.9999 175.946 44.9999V48.9999C182.573 48.9999 187.946 43.6273 187.946 36.9999H183.946ZM175.946 44.9999H50.9458V48.9999H175.946V44.9999ZM50.9458 44.9999C50.9311 44.9999 50.9165 44.9998 50.9019 44.9997L50.8801 48.9997C50.902 48.9998 50.9239 48.9999 50.9458 48.9999V44.9999Z" fill="#2F3B53" mask="url(#path-1-inside-1_2167_2943)"/>
<path d="M77.465 21.775H80.315V23.395H77.465V21.775ZM76.325 31.105C77.045 30.61 78.14 29.8 79.19 28.96L79.895 30.37C79.025 31.12 78.05 31.93 77.195 32.575L76.325 31.105ZM77.375 25.045L78.65 24.55C79.1 25.435 79.475 26.605 79.61 27.385L78.245 27.94C78.155 27.145 77.78 25.945 77.375 25.045ZM80.855 30.775C81.53 30.31 82.535 29.545 83.525 28.75L84.23 30.16C83.435 30.865 82.52 31.615 81.725 32.23L80.855 30.775ZM81.32 25.03L82.61 24.505C83.06 25.36 83.465 26.485 83.6 27.235L82.22 27.805C82.1 27.055 81.74 25.885 81.32 25.03ZM79.505 21.775H81.125V33.415C81.125 34.255 80.975 34.75 80.45 35.02C79.925 35.305 79.175 35.35 78.08 35.35C78.02 34.9 77.765 34.12 77.54 33.685C78.245 33.73 78.98 33.715 79.22 33.7C79.43 33.7 79.505 33.625 79.505 33.4V21.775ZM81.455 21.775H84.395V23.395H81.455V21.775ZM83.465 21.775H85.115V33.385C85.115 34.225 84.965 34.72 84.455 35.005C83.945 35.29 83.21 35.35 82.145 35.35C82.1 34.87 81.845 34.075 81.605 33.64C82.265 33.67 82.94 33.655 83.18 33.655C83.39 33.655 83.465 33.58 83.465 33.37V21.775ZM71.66 24.19H77.255V25.765H71.66V24.19ZM71.87 26.95H77.06V28.51H71.87V26.95ZM71.375 30.175C72.86 29.965 75.065 29.575 77.15 29.215L77.27 30.76C75.335 31.15 73.28 31.525 71.705 31.81L71.375 30.175ZM71.9 21.805L73.34 21.34C73.745 22.12 74.12 23.125 74.255 23.8L72.74 24.325C72.635 23.65 72.29 22.585 71.9 21.805ZM75.74 21.25L77.435 21.745C77.03 22.66 76.625 23.635 76.28 24.28L74.93 23.83C75.215 23.125 75.575 22.03 75.74 21.25ZM73.655 24.595H75.41V29.08C75.41 31.36 74.93 33.895 72.725 35.335C72.47 34.96 71.93 34.345 71.54 34.03C73.46 32.965 73.655 30.805 73.655 29.08V24.595ZM93.26 21.7H94.97V23.53C94.97 24.94 94.655 26.68 93.08 27.76C92.825 27.43 92.105 26.83 91.745 26.605C93.11 25.705 93.26 24.505 93.26 23.485V21.7ZM96.635 21.7H98.33V25.06C98.33 25.48 98.345 25.525 98.51 25.525C98.585 25.525 98.81 25.525 98.9 25.525C99.08 25.525 99.14 25.33 99.17 24.025C99.485 24.28 100.19 24.55 100.64 24.655C100.49 26.53 100.07 27.055 99.08 27.055C98.84 27.055 98.435 27.055 98.195 27.055C96.995 27.055 96.635 26.59 96.635 25.09V21.7ZM94.685 29.35C95.705 31.48 97.85 33.1 100.67 33.79C100.265 34.15 99.74 34.885 99.5 35.335C96.5 34.45 94.385 32.545 93.095 29.86L94.685 29.35ZM98.045 27.73H98.375L98.69 27.67L99.86 28.09C98.825 32.11 96.23 34.27 92.72 35.335C92.54 34.885 92.09 34.135 91.76 33.76C94.88 32.995 97.265 31.045 98.045 28V27.73ZM92.54 27.73H98.75V29.35H92.54V27.73ZM93.95 21.7H97.55V23.275H93.95V21.7ZM87.17 25.87H91.805V27.22H87.17V25.87ZM87.215 21.73H91.775V23.095H87.215V21.73ZM87.17 27.91H91.805V29.275H87.17V27.91ZM86.435 23.755H92.345V25.18H86.435V23.755ZM87.995 29.995H91.79V34.555H87.995V33.13H90.245V31.42H87.995V29.995ZM87.125 29.995H88.64V35.155H87.125V29.995ZM107.54 26.305H115.67V28.09H107.54V26.305ZM110.705 21.325H112.535V35.35H110.705V21.325ZM102.17 25.87H107.015V27.22H102.17V25.87ZM102.26 21.73H107.045V23.095H102.26V21.73ZM102.17 27.91H107.015V29.275H102.17V27.91ZM101.435 23.755H107.615V25.18H101.435V23.755ZM102.995 29.995H106.97V34.555H102.995V33.13H105.395V31.42H102.995V29.995ZM102.125 29.995H103.685V35.155H102.125V29.995ZM124.865 23.725C124.655 25.255 124.355 27.01 123.83 28.78C122.93 31.81 121.64 33.67 120.005 33.67C118.325 33.67 116.945 31.825 116.945 29.29C116.945 25.84 119.96 22.87 123.845 22.87C127.55 22.87 129.905 25.45 129.905 28.735C129.905 31.885 127.97 34.12 124.19 34.705L123.05 32.935C123.635 32.86 124.055 32.785 124.46 32.695C126.365 32.23 127.865 30.865 127.865 28.66C127.865 26.305 126.395 24.625 123.8 24.625C120.62 24.625 118.88 27.22 118.88 29.11C118.88 30.625 119.48 31.36 120.05 31.36C120.695 31.36 121.265 30.4 121.895 28.375C122.33 26.965 122.66 25.24 122.81 23.665L124.865 23.725ZM137.63 27.22H139.445V30.19C139.445 31 139.28 31.45 138.665 31.705C138.065 31.945 137.27 31.96 136.19 31.96C136.115 31.465 135.86 30.775 135.635 30.325C136.31 30.355 137.12 30.355 137.345 30.355C137.555 30.355 137.63 30.31 137.63 30.13V27.22ZM134.495 27.565L136.37 28.15C135.605 29.485 134.375 30.865 133.325 31.705C132.935 31.375 132.155 30.82 131.69 30.55C132.785 29.845 133.865 28.69 134.495 27.565ZM140.945 28.42L142.415 27.505C143.48 28.42 144.8 29.755 145.385 30.715L143.795 31.735C143.27 30.805 142.01 29.41 140.945 28.42ZM141.14 29.695L143 30.22C141.545 33.685 138.56 34.885 133.76 35.485C133.61 34.915 133.25 34.18 132.89 33.73C137.21 33.4 139.91 32.515 141.14 29.695ZM131.735 25.69H145.28V27.4H131.735V25.69ZM138.71 22.69H143.81V24.31H138.71V22.69ZM137.615 21.265H139.475V26.635H137.615V21.265ZM133.775 22.285H135.605V26.35H133.775V22.285ZM149.195 22.66C149.6 22.69 150.125 22.72 150.44 22.72C151.31 22.72 152.9 22.66 153.59 22.6C153.965 22.57 154.355 22.48 154.625 22.375L155.81 23.32C155.615 23.545 155.435 23.74 155.315 23.935C154.805 24.79 153.995 26.725 153.32 28.285C152.72 29.665 152 31.45 151.385 32.395C150.785 33.31 150.08 33.715 149.045 33.715C147.74 33.715 146.75 32.815 146.75 31.285C146.75 28.885 149.045 27.04 152.255 27.04C155.75 27.04 158.81 28.9 160.385 29.98L159.515 32.065C157.67 30.43 155.03 28.72 151.94 28.72C149.75 28.72 148.49 29.905 148.49 31C148.49 31.495 148.775 31.75 149.135 31.75C149.435 31.75 149.63 31.615 149.915 31.24C150.41 30.505 150.95 29.125 151.49 27.94C152.015 26.755 152.63 25.285 153.08 24.355C152.48 24.37 151.175 24.415 150.5 24.46C150.185 24.475 149.66 24.535 149.27 24.58L149.195 22.66ZM159.065 26.2C158.855 30.46 158.015 33.22 154.43 35.08L152.825 33.775C156.53 32.185 156.98 29.38 157.115 27.625C157.145 27.04 157.16 26.44 157.1 25.975L159.065 26.2Z" fill="#2F3B53"/>
<g clip-path="url(#clip0_2167_2943)">
<path d="M30.8911 39.8114C26.7438 39.8114 22.5934 39.8114 18.4461 39.8114C17.7358 39.8114 17.1816 39.3844 17.0319 38.7249C17.0064 38.6166 17.0064 38.5019 17.0064 38.3904C17.0064 32.2159 17.0096 26.0445 17 19.8731C17 19.2295 17.5256 18.5286 18.2932 18.5031C19.0035 18.4808 19.7139 18.4968 20.4242 18.4872C20.5261 18.4872 20.6376 18.4585 20.7236 18.4107C23.6095 16.8432 26.4922 15.2693 29.378 13.6986C29.4832 13.6412 29.5246 13.5871 29.515 13.4564C29.4609 12.7236 30.0247 12.0864 30.7796 12.0068C31.4772 11.9335 32.1556 12.4624 32.2607 13.1601C32.2735 13.243 32.3021 13.3354 32.283 13.4118C32.2416 13.5871 32.334 13.6476 32.4678 13.7209C35.3314 15.2757 38.1918 16.84 41.0522 18.3948C41.1541 18.449 41.2815 18.4808 41.3993 18.484C42.0491 18.4936 42.7021 18.484 43.3551 18.4904C44.0845 18.4968 44.6324 18.9301 44.7726 19.6119C44.7949 19.7202 44.7949 19.8349 44.7949 19.9464C44.7949 26.0859 44.7917 32.2254 44.8012 38.3681C44.8012 39.1391 44.1897 39.8146 43.3392 39.8146C39.1919 39.805 35.0415 39.8114 30.8942 39.8114H30.8911ZM20.7077 22.2021V36.0901H41.084V22.2021H20.7077ZM43.2086 19.4271H18.6213C18.6213 19.4271 18.599 19.4558 18.5863 19.4717C18.6341 19.5035 18.6882 19.5322 18.7296 19.5736C19.2488 20.0898 19.768 20.6027 20.2809 21.1252C20.3828 21.2272 20.4815 21.2718 20.628 21.2718C27.3809 21.2686 34.1337 21.2654 40.8897 21.275C41.2369 21.275 41.4822 21.189 41.7211 20.9341C42.1925 20.4243 42.6958 19.9464 43.2118 19.4303L43.2086 19.4271ZM43.2054 38.8747C43.1831 38.8428 43.1704 38.8269 43.1576 38.8141C42.5843 38.2407 42.0109 37.6672 41.4312 37.1001C41.3866 37.0555 41.3006 37.0331 41.2337 37.0331C34.3471 37.0331 27.4605 37.0331 20.5707 37.0331C20.4911 37.0331 20.3923 37.0746 20.335 37.1287C19.7776 37.6735 19.2297 38.2279 18.6786 38.7791C18.6532 38.8046 18.6309 38.8364 18.6022 38.8747H43.2054ZM22.5424 18.4745H39.2525C39.1665 18.4267 39.1187 18.4012 39.0741 18.3757C36.7042 17.0822 34.3376 15.7918 31.9709 14.4951C31.8594 14.4346 31.7925 14.4409 31.6906 14.5174C31.2351 14.8647 30.5598 14.8647 30.1075 14.5174C30.0087 14.4409 29.9387 14.4346 29.8272 14.4951C27.967 15.5146 26.1036 16.531 24.2402 17.5473C23.6891 17.8468 23.1381 18.1495 22.5424 18.4745ZM43.8711 20.093C43.8297 20.128 43.8106 20.1408 43.7979 20.1535C43.2309 20.7206 42.6639 21.2845 42.1001 21.8548C42.0523 21.9026 42.0268 21.995 42.0268 22.0651C42.0237 26.79 42.0237 31.5117 42.0268 36.2366C42.0268 36.3163 42.0651 36.4151 42.1224 36.4724C42.6671 37.0236 43.215 37.5684 43.766 38.1132C43.7947 38.1419 43.8265 38.161 43.8711 38.1992V20.093ZM17.9237 38.1992C17.962 38.1738 17.9747 38.1674 17.9874 38.1546C18.5576 37.5875 19.131 37.0204 19.6979 36.4469C19.7425 36.4023 19.768 36.3163 19.768 36.2494C19.7712 31.5149 19.7712 26.7805 19.768 22.0428C19.768 21.9727 19.733 21.8867 19.6852 21.8357C19.1373 21.2814 18.5863 20.7302 18.032 20.1822C18.0034 20.1535 17.9715 20.1344 17.9237 20.0961V38.1992ZM30.8974 13.8547C31.1523 13.8547 31.3593 13.6508 31.3625 13.4023C31.3625 13.1474 31.1523 12.9276 30.8974 12.9307C30.649 12.9307 30.4356 13.1378 30.4356 13.3863C30.4356 13.6476 30.6362 13.8547 30.8974 13.8547Z" fill="#2F3B53"/>
<path d="M20.7076 22.2012H41.084V36.0891H20.7076V22.2012ZM30.891 35.1684C33.7896 35.1684 36.6914 35.1652 39.5901 35.1715C39.9882 35.1715 40.1762 34.9422 40.1762 34.5853C40.1698 30.9596 40.173 27.3339 40.173 23.7082C40.173 23.2972 39.9978 23.1219 39.5901 23.1219C33.796 23.1219 28.002 23.1219 22.2079 23.1219C21.8002 23.1219 21.6282 23.294 21.6282 23.7082C21.6282 27.3275 21.6282 30.95 21.625 34.5694C21.625 34.9326 21.7938 35.1747 22.2238 35.1715C25.1129 35.162 28.002 35.1652 30.891 35.1652V35.1684Z" fill="white"/>
<path d="M43.2086 19.427C42.6894 19.9463 42.1862 20.4211 41.7179 20.9308C41.4822 21.1889 41.2337 21.2749 40.8866 21.2717C34.1337 21.2622 27.3809 21.2622 20.6249 21.2685C20.4784 21.2685 20.3796 21.2271 20.2777 21.122C19.7649 20.5995 19.2457 20.0865 18.7265 19.5704C18.6851 19.529 18.6309 19.5035 18.5831 19.4684C18.5959 19.4525 18.6054 19.4398 18.6182 19.4238H43.2086V19.427Z" fill="white"/>
<path d="M43.2054 38.8742H18.599C18.6309 38.836 18.65 38.8041 18.6754 38.7786C19.2265 38.2274 19.7776 37.6762 20.3318 37.1282C20.3891 37.0741 20.4879 37.0327 20.5675 37.0327C27.4541 37.0295 34.3407 37.0295 41.2305 37.0327C41.2974 37.0327 41.3834 37.055 41.428 37.0996C42.0077 37.6667 42.5811 38.2434 43.1544 38.8137C43.1672 38.8264 43.1767 38.8423 43.2022 38.8742H43.2054Z" fill="white"/>
<path d="M22.5425 18.4743C23.1381 18.1493 23.6892 17.8466 24.2402 17.5471C26.1036 16.5308 27.967 15.5144 29.8272 14.4949C29.9387 14.4344 30.0056 14.4407 30.1076 14.5172C30.5599 14.8645 31.2351 14.8613 31.6906 14.5172C31.7894 14.4407 31.8563 14.4344 31.9709 14.4949C34.3376 15.7916 36.7075 17.082 39.0742 18.3755C39.1187 18.401 39.1665 18.4265 39.2525 18.4743H22.5425Z" fill="white"/>
<path d="M43.8711 20.0928V38.1991C43.8265 38.164 43.7915 38.1417 43.766 38.113C43.2181 37.5682 42.667 37.0234 42.1224 36.4722C42.0682 36.4149 42.0268 36.3161 42.0268 36.2364C42.0236 31.5115 42.0236 26.7898 42.0268 22.0649C42.0268 21.9948 42.0523 21.9024 42.1001 21.8547C42.6607 21.2844 43.2308 20.7204 43.7978 20.1533C43.8138 20.1374 43.8297 20.1278 43.8711 20.0928Z" fill="white"/>
<path d="M17.9237 38.1985V20.0986C17.9715 20.1369 18.0033 20.1592 18.032 20.1847C18.5831 20.7358 19.1373 21.2838 19.6852 21.8382C19.733 21.8892 19.768 21.9752 19.768 22.0453C19.7712 26.7798 19.7712 31.5142 19.768 36.2519C19.768 36.3188 19.7425 36.4016 19.6979 36.4494C19.1309 37.0229 18.5576 37.59 17.9874 38.1571C17.9779 38.1667 17.9619 38.1762 17.9237 38.2017V38.1985Z" fill="white"/>
<path d="M30.8975 13.8536C30.6363 13.8536 30.4324 13.6465 30.4356 13.3853C30.4356 13.1368 30.649 12.9297 30.8975 12.9297C31.1523 12.9297 31.3657 13.1463 31.3625 13.4012C31.3625 13.6497 31.1523 13.8536 30.8975 13.8536Z" fill="white"/>
<path d="M30.8911 35.1682C28.002 35.1682 25.1129 35.1651 22.2239 35.1746C21.7907 35.1746 21.6219 34.9357 21.625 34.5724C21.6314 30.9531 21.6282 27.3306 21.6282 23.7112C21.6282 23.297 21.8002 23.125 22.208 23.125C28.002 23.125 33.796 23.125 39.5901 23.125C39.9978 23.125 40.173 23.3002 40.173 23.7112C40.173 27.3369 40.173 30.9627 40.1762 34.5884C40.1762 34.942 39.9883 35.1746 39.5901 35.1746C36.6915 35.1651 33.7897 35.1714 30.8911 35.1714V35.1682ZM32.7194 30.8384C33.2832 30.2777 33.8088 29.7552 34.3344 29.2295C35.0415 28.5222 36.0194 28.519 36.7265 29.2263C37.5197 30.0196 38.3128 30.8129 39.1059 31.6031C39.141 31.6381 39.1824 31.6732 39.2302 31.7178V24.0617H22.5615V30.8002C22.6157 30.7524 22.6539 30.7173 22.6921 30.6823C23.9408 29.4334 25.1894 28.1812 26.4412 26.9355C26.5654 26.8113 26.6992 26.6934 26.8521 26.6073C27.521 26.2282 28.2823 26.3461 28.8461 26.9068C30.1043 28.1621 31.3593 29.4206 32.6175 30.6791C32.6621 30.7237 32.6908 30.7842 32.7258 30.8384H32.7194ZM33.4138 31.4629C33.4457 31.4947 33.468 31.5234 33.4934 31.5521C33.6686 31.7305 33.8534 31.9025 34.019 32.0905C34.1847 32.2753 34.1719 32.5493 34.0063 32.715C33.8311 32.8934 33.5858 32.9062 33.3851 32.7468C33.3342 32.7086 33.2896 32.6608 33.245 32.6162C31.5632 30.9372 29.8845 29.2581 28.2027 27.5759C27.8364 27.2095 27.4701 27.2127 27.1006 27.5791C25.7978 28.8822 24.495 30.1821 23.1922 31.4852C22.982 31.6955 22.6889 31.8771 22.587 32.1319C22.4787 32.3932 22.5551 32.7309 22.5551 33.0336C22.5551 33.4318 22.5551 33.8333 22.5551 34.2411H39.2461C39.2461 33.8556 39.2461 33.4828 39.2461 33.1101C39.2461 33.0686 39.2142 33.0208 39.1856 32.989C38.1312 31.9312 37.0737 30.8703 36.013 29.8189C35.7295 29.5385 35.3409 29.5512 35.0511 29.8284C34.8918 29.9814 34.7421 30.1375 34.586 30.2904C34.1974 30.6791 33.8088 31.0678 33.417 31.4597L33.4138 31.4629Z" fill="#2F3B53"/>
<path d="M32.7193 30.8392C32.6843 30.785 32.6556 30.7245 32.611 30.6799C31.356 29.4214 30.0978 28.1629 28.8396 26.9076C28.279 26.3469 27.5177 26.229 26.8456 26.6081C26.6959 26.6942 26.559 26.8152 26.4347 26.9363C25.1829 28.1821 23.9343 29.4342 22.6857 30.6831C22.6506 30.7181 22.6092 30.7532 22.5551 30.801V24.0625H39.2237V31.7186C39.1727 31.674 39.1345 31.6389 39.0995 31.6039C38.3063 30.8105 37.5132 30.0204 36.7201 29.2271C36.0161 28.523 35.035 28.5261 34.3279 29.2303C33.8023 29.756 33.2768 30.2785 32.713 30.8392H32.7193ZM31.3656 26.366C31.3719 27.1593 31.9899 27.7615 32.7894 27.7551C33.522 27.7488 34.1559 27.102 34.1432 26.3692C34.1304 25.5918 33.5093 24.9705 32.7448 24.9737C31.9835 24.9769 31.3592 25.6045 31.3656 26.3628V26.366Z" fill="white"/>
<path d="M33.4138 31.4636C33.8056 31.0718 34.1942 30.6831 34.5828 30.2944C34.7389 30.1382 34.8918 29.9821 35.0478 29.8324C35.3345 29.5552 35.7263 29.5425 36.0098 29.8228C37.0705 30.8742 38.128 31.9352 39.1823 32.9929C39.2142 33.0248 39.2429 33.0726 39.2429 33.114C39.246 33.4868 39.2429 33.8595 39.2429 34.245H22.5551C22.5551 33.8372 22.5551 33.4358 22.5551 33.0375C22.5551 32.7349 22.4819 32.3971 22.587 32.1359C22.6921 31.881 22.9819 31.6994 23.1922 31.4891C24.495 30.186 25.7977 28.8861 27.1005 27.583C27.4668 27.2166 27.8363 27.2135 28.2026 27.5798C29.8845 29.2589 31.5631 30.9379 33.245 32.6202C33.2896 32.6648 33.3341 32.7126 33.3851 32.7508C33.589 32.9101 33.8342 32.8942 34.0062 32.7189C34.1719 32.5501 34.1846 32.2761 34.019 32.0945C33.8502 31.9065 33.6686 31.7344 33.4934 31.556C33.4679 31.5305 33.4424 31.5019 33.4138 31.4668V31.4636Z" fill="white"/>
<path d="M31.3658 26.3657C31.3594 25.6074 31.9837 24.9798 32.745 24.9766C33.5095 24.9734 34.1306 25.5947 34.1433 26.3721C34.1561 27.1017 33.519 27.7516 32.7896 27.758C31.9901 27.7644 31.3721 27.1622 31.3658 26.3689V26.3657ZM32.7577 25.9037C32.5061 25.9037 32.2959 26.1044 32.2895 26.3529C32.2863 26.6174 32.487 26.8277 32.745 26.8309C32.9903 26.834 33.2101 26.6269 33.2164 26.3816C33.2228 26.1299 33.0094 25.9069 32.7577 25.9037Z" fill="#2F3B53"/>
<path d="M32.7576 25.9043C33.0092 25.9043 33.2226 26.1305 33.2163 26.3822C33.2099 26.6276 32.9901 26.8347 32.7448 26.8315C32.4868 26.8283 32.2862 26.6148 32.2893 26.3536C32.2925 26.1051 32.5059 25.9011 32.7576 25.9043Z" fill="white"/>
</g>
</g>
<defs>
<filter id="filter0_d_2167_2943" x="0" y="0" width="189.946" height="63" filterUnits="userSpaceOnUse" color-interpolation-filters="sRGB">
<feFlood flood-opacity="0" result="BackgroundImageFix"/>
<feColorMatrix in="SourceAlpha" type="matrix" values="0 0 0 0 0 0 0 0 0 0 0 0 0 0 0 0 0 0 127 0" result="hardAlpha"/>
<feOffset dy="4"/>
<feGaussianBlur stdDeviation="2"/>
<feComposite in2="hardAlpha" operator="out"/>
<feColorMatrix type="matrix" values="0 0 0 0 0 0 0 0 0 0 0 0 0 0 0 0 0 0 0.25 0"/>
<feBlend mode="normal" in2="BackgroundImageFix" result="effect1_dropShadow_2167_2943"/>
<feBlend mode="normal" in="SourceGraphic" in2="effect1_dropShadow_2167_2943" result="shape"/>
</filter>
<clipPath id="clip0_2167_2943">
<rect width="27.8012" height="27.8141" fill="white" transform="translate(17 12)"/>
</clipPath>
</defs>
</svg>
