<svg width="166" height="63" viewBox="0 0 166 63" fill="none" xmlns="http://www.w3.org/2000/svg">
<g filter="url(#filter0_d_2167_2924)">
<mask id="path-1-inside-1_2167_2924" fill="white">
<path fill-rule="evenodd" clip-rule="evenodd" d="M50.9408 46.9501C45.9646 51.9239 39.0915 55 31.5 55C16.3122 55 4 42.6878 4 27.5C4 12.3122 16.3122 0 31.5 0C38.64 0 45.1444 2.72106 50.0329 7.18276C50.6521 7.06282 51.2916 7 51.9458 7H151.946C157.469 7 161.946 11.4772 161.946 17V37C161.946 42.5229 157.469 47 151.946 47H51.9458C51.6066 47 51.2713 46.9831 50.9408 46.9501Z"/>
</mask>
<path fill-rule="evenodd" clip-rule="evenodd" d="M50.9408 46.9501C45.9646 51.9239 39.0915 55 31.5 55C16.3122 55 4 42.6878 4 27.5C4 12.3122 16.3122 0 31.5 0C38.64 0 45.1444 2.72106 50.0329 7.18276C50.6521 7.06282 51.2916 7 51.9458 7H151.946C157.469 7 161.946 11.4772 161.946 17V37C161.946 42.5229 157.469 47 151.946 47H51.9458C51.6066 47 51.2713 46.9831 50.9408 46.9501Z" fill="white"/>
<path d="M50.9408 46.9501L51.1394 44.96L50.1968 44.8659L49.5269 45.5356L50.9408 46.9501ZM50.0329 7.18276L48.6847 8.65998L49.4268 9.33734L50.4133 9.14626L50.0329 7.18276ZM49.5269 45.5356C44.9104 50.1498 38.54 53 31.5 53V57C39.6431 57 47.0188 53.698 52.3546 48.3647L49.5269 45.5356ZM31.5 53C17.4167 53 6 41.5833 6 27.5H2C2 43.7924 15.2076 57 31.5 57V53ZM6 27.5C6 13.4167 17.4167 2 31.5 2V-2C15.2076 -2 2 11.2076 2 27.5H6ZM31.5 2C38.1219 2 44.1502 4.52142 48.6847 8.65998L51.3812 5.70553C46.1387 0.920708 39.1581 -2 31.5 -2V2ZM50.4133 9.14626C50.9078 9.05047 51.4199 9 51.9458 9V5C51.1633 5 50.3964 5.07517 49.6526 5.21926L50.4133 9.14626ZM51.9458 9H151.946V5H51.9458V9ZM151.946 9C156.364 9 159.946 12.5817 159.946 17H163.946C163.946 10.3726 158.573 5 151.946 5V9ZM159.946 17V37H163.946V17H159.946ZM159.946 37C159.946 41.4183 156.364 45 151.946 45V49C158.573 49 163.946 43.6274 163.946 37H159.946ZM151.946 45H51.9458V49H151.946V45ZM51.9458 45C51.673 45 51.404 44.9864 51.1394 44.96L50.7421 48.9402C51.1386 48.9798 51.5401 49 51.9458 49V45Z" fill="#2F3B53" mask="url(#path-1-inside-1_2167_2924)"/>
<path d="M78.525 21.265H80.355V33.64C80.355 34.525 80.13 34.885 79.56 35.14C78.975 35.365 78.165 35.395 76.89 35.395C76.8 34.975 76.515 34.345 76.29 33.985C77.01 34.015 77.895 34 78.15 34C78.435 33.985 78.525 33.895 78.525 33.64V21.265ZM72.9 22.24H86.1V23.665H72.9V22.24ZM76.155 25.405V26.125H82.785V25.405H76.155ZM74.445 24.265H84.63V27.265H74.445V24.265ZM74.07 27.925H84.885V33.79H83.055V29.155H74.07V27.925ZM72.555 29.785H86.445V31.15H72.555V29.785ZM73.95 31.855H84.03V33.16H73.95V31.855ZM87.84 30.445H101.22V31.915H87.84V30.445ZM87.87 23.71H101.16V25.195H87.87V23.71ZM88.485 26.395H100.59V27.805H88.485V26.395ZM89.235 28.465H99.885V29.77H89.235V28.465ZM93.585 27.115H95.37V35.35H93.585V27.115ZM92.28 21.25H93.96V24.415H92.28V21.25ZM95.055 21.25H96.765V24.31H95.055V21.25ZM93.255 31.105L94.665 31.735C93.24 33.295 90.84 34.57 88.53 35.17C88.29 34.735 87.765 34.045 87.375 33.67C89.64 33.235 92.025 32.245 93.255 31.105ZM95.73 31.06C96.945 32.245 99.285 33.175 101.625 33.565C101.22 33.94 100.68 34.69 100.41 35.185C98.04 34.585 95.745 33.31 94.335 31.615L95.73 31.06ZM98.505 21.37L100.395 21.82C99.915 22.645 99.405 23.455 99.015 24.01L97.56 23.56C97.905 22.945 98.295 22.03 98.505 21.37ZM96.525 24.595L98.43 25.03C98.025 25.75 97.635 26.41 97.32 26.89L95.79 26.455C96.06 25.915 96.375 25.15 96.525 24.595ZM88.95 21.85L90.495 21.325C90.93 21.97 91.425 22.87 91.635 23.455L90 24.04C89.835 23.455 89.355 22.54 88.95 21.85ZM90.855 25.21L92.595 24.94C92.85 25.36 93.135 25.945 93.255 26.35L91.425 26.665C91.335 26.275 91.08 25.645 90.855 25.21ZM102.93 27.7H107.805V29.26H102.93V27.7ZM104.07 25.21H107.88V26.71H104.07V25.21ZM104.16 28.615H105.75V35.32H104.16V28.615ZM107.01 27.7H108.57V31.87C108.57 32.545 108.48 32.995 108.045 33.25C107.61 33.505 107.07 33.52 106.32 33.52C106.29 33.055 106.125 32.425 105.93 32.005C106.335 32.02 106.71 32.02 106.845 32.005C106.98 32.005 107.01 31.96 107.01 31.84V27.7ZM108.705 21.85H116.37V23.365H108.705V21.85ZM110.865 27.865V28.825H114.21V27.865H110.865ZM110.865 30.055V31.015H114.21V30.055H110.865ZM110.865 25.69V26.635H114.21V25.69H110.865ZM109.215 24.37H115.935V32.335H109.215V24.37ZM111.63 22.675L113.685 22.9C113.4 23.845 113.085 24.79 112.83 25.435L111.27 25.15C111.42 24.43 111.585 23.41 111.63 22.675ZM110.685 32.35L112.155 33.31C111.33 34.105 109.905 34.945 108.735 35.395C108.45 35.065 107.925 34.525 107.535 34.225C108.705 33.805 110.025 32.995 110.685 32.35ZM112.86 33.355L114.195 32.455C115.035 32.995 116.175 33.82 116.76 34.39L115.35 35.395C114.825 34.84 113.715 33.955 112.86 33.355ZM105.015 21.265H106.005V21.61H106.53V22.09C105.9 23.41 104.88 25.225 103.14 26.83C102.945 26.425 102.48 25.735 102.15 25.465C103.56 24.235 104.505 22.6 105.015 21.265ZM105.15 21.265H106.44C107.43 22.06 108.735 23.26 109.335 24.115L108.225 25.705C107.67 24.835 106.44 23.38 105.48 22.63H105.15V21.265ZM117.525 24.85H121.695V26.545H117.525V24.85ZM118.875 21.475H120.54V31.525H118.875V21.475ZM117.39 31.75C118.44 31.285 120.045 30.475 121.575 29.665L122.1 31.255C120.765 32.05 119.295 32.89 118.065 33.55L117.39 31.75ZM121.92 23.335H131.385V24.955H121.92V23.335ZM121.455 32.05C122.775 31.81 124.755 31.36 126.66 30.925L126.825 32.425C125.115 32.89 123.3 33.37 121.875 33.73L121.455 32.05ZM126.705 21.28H128.415C128.31 27.31 129.135 33.655 130.125 33.655C130.32 33.655 130.455 33.115 130.485 31.78C130.83 32.185 131.34 32.56 131.7 32.755C131.46 34.765 131.025 35.35 129.885 35.35C127.275 35.35 126.735 28 126.705 21.28ZM128.7 22.135L129.705 21.265C130.29 21.685 131.025 22.3 131.37 22.735L130.305 23.71C129.975 23.26 129.285 22.6 128.7 22.135ZM129.57 25.945L131.175 26.245C130.23 30.25 128.49 33.355 125.835 35.26C125.58 34.96 124.905 34.375 124.545 34.12C127.185 32.455 128.79 29.605 129.57 25.945ZM123.675 27.34V29.17H124.83V27.34H123.675ZM122.355 25.96H126.225V30.565H122.355V25.96Z" fill="#2F3B53"/>
<g clip-path="url(#clip0_2167_2924)">
<path d="M34.1865 18.847C34.2375 18.1751 34.3749 17.5387 34.6343 16.9377C35.5566 14.8111 37.1551 13.5028 39.4408 13.0925C42.2364 12.5914 45.0897 14.1259 46.227 16.6916C46.7059 17.7715 46.901 18.8958 46.7525 20.0644C46.533 21.7786 45.7304 23.1801 44.3781 24.2556C44.2162 24.3842 44.1541 24.5084 44.1541 24.7168C44.1608 28.4777 44.1564 32.2387 44.163 35.9996C44.163 36.3877 44.01 36.636 43.662 36.8068C41.0925 38.0818 38.5274 39.3636 35.9645 40.6497C35.683 40.7917 35.4236 40.7894 35.142 40.6497C32.6834 39.419 30.2203 38.1927 27.7616 36.962C27.6574 36.9088 27.5776 36.9043 27.469 36.9576C24.9903 38.1994 22.5073 39.4301 20.0309 40.6764C19.5476 40.9203 19 40.6475 19 40.0444C19.0089 33.4738 19.0067 26.9011 19.0022 20.3306C19.0022 20.0046 19.1419 19.7873 19.4301 19.6431C22.0262 18.3503 24.6201 17.0553 27.214 15.7558C27.4911 15.6183 27.7505 15.6294 28.0232 15.7647C30.0096 16.7626 32.0005 17.756 33.9892 18.7495C34.049 18.7805 34.1111 18.8093 34.1843 18.8448L34.1865 18.847Z" fill="#2F3B53"/>
<path d="M26.9436 17.3971C26.9436 17.4548 26.9436 17.5124 26.9436 17.5701C26.9436 23.5641 26.9436 29.5603 26.9458 35.5542C26.9458 35.6873 26.9125 35.7605 26.7884 35.8226C24.6977 36.8626 22.6093 37.907 20.5209 38.9515C20.4655 38.9803 20.4078 39.0069 20.3502 39.0357C20.3147 38.9714 20.3302 38.9116 20.3302 38.8561C20.3302 32.8555 20.3302 26.8571 20.3258 20.8565C20.3258 20.719 20.3679 20.6547 20.4899 20.5926C22.5805 19.5526 24.6667 18.5059 26.7551 17.4637C26.8105 17.437 26.8593 17.3905 26.9413 17.3971H26.9436Z" fill="#FEFEFE"/>
<path d="M34.887 39.0232C34.8094 39.0298 34.7629 38.9877 34.7119 38.9633C32.6146 37.9144 30.5173 36.8655 28.4178 35.8188C28.3047 35.7634 28.2582 35.7013 28.2582 35.5683C28.2648 29.5632 28.267 23.5581 28.2693 17.5531C28.2693 17.4304 28.324 17.3964 28.4333 17.4511C30.3222 18.3957 32.2089 19.3404 34.0978 20.2829C34.1931 20.3294 34.2374 20.3871 34.2574 20.4957C34.3682 21.0856 34.5633 21.6489 34.8427 22.1811C34.8782 22.2498 34.9025 22.3141 34.8915 22.3917C34.8826 22.4605 34.887 22.5314 34.887 22.6002C34.887 28.0132 34.887 33.4239 34.887 38.8369V39.0232Z" fill="#FEFEFE"/>
<path d="M36.2173 39.0408V23.9971C36.4146 24.1523 36.5986 24.3031 36.7893 24.445C37.1617 24.7244 37.5652 24.9528 37.9931 25.1347C38.0862 25.1746 38.1483 25.2322 38.1993 25.3187C38.7513 26.2434 39.3233 27.157 39.8554 28.0951C40.1414 28.5984 40.8043 28.5984 41.0925 28.0906C41.6157 27.1681 42.1766 26.2656 42.7242 25.3564C42.7486 25.3143 42.7597 25.2566 42.8328 25.23V25.3919C42.8328 28.7847 42.8328 32.1775 42.8328 35.5703C42.8328 35.6701 42.8328 35.7433 42.7176 35.801C40.5848 36.8632 38.4543 37.9298 36.3215 38.9964C36.2927 39.0097 36.2639 39.0208 36.2151 39.043L36.2173 39.0408Z" fill="#FEFEFE"/>
<path d="M40.4739 26.5272C40.4007 26.4052 40.3386 26.3076 40.2788 26.2078C39.913 25.6002 39.5472 24.9926 39.1858 24.3828C39.0772 24.1988 38.9264 24.0812 38.7313 24.0014C36.838 23.2341 35.7339 21.8371 35.5033 19.8081C35.2174 17.2889 36.9289 14.9561 39.4075 14.4261C42.0945 13.8518 44.7106 15.5083 45.3468 18.1893C45.8457 20.2848 44.9079 22.4935 43.0611 23.5912C42.7995 23.7464 42.5268 23.8816 42.243 23.9881C42.0147 24.0724 41.8573 24.2165 41.7353 24.4249C41.3274 25.119 40.9084 25.8065 40.4761 26.5249L40.4739 26.5272Z" fill="#FEFEFE"/>
<path d="M36.9754 19.2853C36.9443 17.427 38.5117 15.857 40.4295 15.8238C42.356 15.7905 43.9456 17.345 43.9634 19.3075C43.9811 21.1924 42.4824 22.7513 40.609 22.8045C38.5517 22.8622 37.0086 21.341 36.9731 19.2853H36.9754Z" fill="#2F3B53"/>
<path d="M40.474 17.1426C41.6667 17.1426 42.6511 18.136 42.6467 19.3335C42.6422 20.5243 41.6512 21.4956 40.4429 21.4911C39.2635 21.4889 38.2925 20.4933 38.2991 19.2936C38.3035 18.1183 39.2901 17.1426 40.4762 17.1448L40.474 17.1426Z" fill="#FEFEFE"/>
</g>
</g>
<defs>
<filter id="filter0_d_2167_2924" x="0" y="0" width="165.946" height="63" filterUnits="userSpaceOnUse" color-interpolation-filters="sRGB">
<feFlood flood-opacity="0" result="BackgroundImageFix"/>
<feColorMatrix in="SourceAlpha" type="matrix" values="0 0 0 0 0 0 0 0 0 0 0 0 0 0 0 0 0 0 127 0" result="hardAlpha"/>
<feOffset dy="4"/>
<feGaussianBlur stdDeviation="2"/>
<feComposite in2="hardAlpha" operator="out"/>
<feColorMatrix type="matrix" values="0 0 0 0 0 0 0 0 0 0 0 0 0 0 0 0 0 0 0.25 0"/>
<feBlend mode="normal" in2="BackgroundImageFix" result="effect1_dropShadow_2167_2924"/>
<feBlend mode="normal" in="SourceGraphic" in2="effect1_dropShadow_2167_2924" result="shape"/>
</filter>
<clipPath id="clip0_2167_2924">
<rect width="27.8012" height="27.7679" fill="white" transform="translate(19 13)"/>
</clipPath>
</defs>
</svg>
