<svg width="268" height="132" viewBox="0 0 268 132" fill="none" xmlns="http://www.w3.org/2000/svg">
<g filter="url(#filter0_d_2703_2947)">
<mask id="path-1-inside-1_2703_2947" fill="white">
<path d="M4 10C4 4.47715 8.47715 0 14 0H254C259.523 0 264 4.47715 264 10V114C264 119.523 259.523 124 254 124H14C8.47716 124 4 119.523 4 114V10Z"/>
</mask>
<path d="M4 10C4 4.47715 8.47715 0 14 0H254C259.523 0 264 4.47715 264 10V114C264 119.523 259.523 124 254 124H14C8.47716 124 4 119.523 4 114V10Z" fill="white"/>
<path d="M14 2H254V-2H14V2ZM262 10V114H266V10H262ZM254 122H14V126H254V122ZM6 114V10H2V114H6ZM14 122C9.58173 122 6 118.418 6 114H2C2 120.627 7.37259 126 14 126V122ZM262 114C262 118.418 258.418 122 254 122V126C260.627 126 266 120.627 266 114H262ZM254 2C258.418 2 262 5.58172 262 10H266C266 3.37258 260.627 -2 254 -2V2ZM14 -2C7.37258 -2 2 3.37258 2 10H6C6 5.58172 9.58172 2 14 2V-2Z" fill="#3E5686" mask="url(#path-1-inside-1_2703_2947)"/>
<path d="M70.585 23.305V34.84C70.585 35.68 70.435 36.19 69.925 36.46C69.415 36.745 68.695 36.79 67.645 36.79C67.585 36.325 67.33 35.545 67.09 35.095C67.75 35.14 68.425 35.125 68.665 35.125C68.875 35.125 68.95 35.05 68.95 34.825V32.29C68.365 32.785 67.765 33.28 67.225 33.7L66.61 32.68V34.885C66.61 35.725 66.46 36.19 65.95 36.475C65.425 36.76 64.69 36.79 63.58 36.79C63.52 36.34 63.265 35.59 63.055 35.14C63.745 35.185 64.495 35.185 64.735 35.17C64.93 35.17 65.005 35.095 65.005 34.855V32.185C64.255 32.83 63.43 33.49 62.725 34.045L61.84 32.59L62.185 32.35C61.705 32.44 61.24 32.545 60.76 32.635C60.49 34.24 59.785 35.785 58.255 36.79C58.015 36.415 57.46 35.8 57.1 35.485C58.15 34.9 58.675 33.97 58.945 32.965L57.25 33.28L56.935 31.66C57.565 31.57 58.33 31.45 59.17 31.315C59.185 31.045 59.185 30.79 59.185 30.55V30.01H57.4V28.45H59.185V27.265H57.22V25.705H58.27C58.135 25.045 57.805 24.07 57.445 23.335L58.855 22.87C59.275 23.635 59.65 24.64 59.8 25.315L58.645 25.705H61.555L60.445 25.36C60.745 24.64 61.105 23.56 61.255 22.795L62.95 23.26C62.56 24.16 62.17 25.075 61.84 25.705H62.77V27.265H60.925V28.45H62.575V30.01H60.925V30.55C60.925 30.7 60.925 30.85 60.925 31.015L62.665 30.7L62.755 31.93C63.355 31.495 64.03 30.97 64.705 30.445L65.005 31.045V28.93L63.76 29.425C63.655 28.66 63.295 27.445 62.89 26.56L64.15 26.05C64.51 26.77 64.825 27.67 65.005 28.39V24.91H62.98V23.305H66.61V32.08C67.255 31.615 68.08 30.97 68.95 30.28V28.795L67.72 29.29C67.6 28.555 67.225 27.385 66.82 26.545L68.095 26.005C68.44 26.68 68.755 27.505 68.95 28.18V24.91H66.94V23.305H70.585ZM77.29 23.26V24.61H72.76V23.26H77.29ZM77.86 25.27V26.68H71.995V25.27H77.86ZM77.32 29.41V30.745H72.7V29.41H77.32ZM83.05 30.835H80.185C80.545 31.585 81.04 32.26 81.64 32.86C82.225 32.275 82.69 31.6 83.05 30.835ZM75.76 34.615V32.89H74.17V34.615H75.76ZM84.175 29.155L85.345 29.59C84.865 31.405 84.07 32.83 83.035 33.955C83.92 34.525 84.97 34.96 86.125 35.245C85.735 35.62 85.225 36.325 84.97 36.79C83.71 36.415 82.615 35.86 81.67 35.155C80.665 35.86 79.51 36.4 78.235 36.79C78.055 36.355 77.635 35.65 77.305 35.245V36.01H74.17V36.595H72.655V31.48H77.305V35.215C78.43 34.93 79.45 34.51 80.335 33.925C79.645 33.175 79.075 32.305 78.61 31.33L80.14 30.835H78.055V29.23H78.565C78.31 28.93 77.68 28.39 77.32 28.15V28.72H72.7V27.355H77.32V28.075C78.61 27.19 78.775 26.005 78.775 25V23.215H83.8V26.575C83.8 26.995 83.83 27.04 83.995 27.04H84.37C84.565 27.04 84.625 26.845 84.64 25.54C84.97 25.795 85.66 26.05 86.095 26.17C85.945 28.03 85.555 28.555 84.55 28.555H83.68C82.48 28.555 82.135 28.09 82.135 26.605V24.79H80.455V25.045C80.455 26.455 80.155 28.165 78.595 29.23H83.875L84.175 29.155ZM92.56 23.26V24.61H87.805V23.26H92.56ZM93.13 25.27V26.68H86.995V25.27H93.13ZM90.925 32.89H89.215V34.615H90.925V32.89ZM92.485 31.48V36.01H89.215V36.595H87.67V31.48H92.485ZM87.715 30.745V29.41H92.53V30.745H87.715ZM87.715 28.72V27.355H92.53V28.72H87.715ZM101.14 27.805V29.575H98.005V36.805H96.205V29.575H93.07V27.805H96.205V22.855H98.005V27.805H101.14ZM112.885 22.855C113.275 23.425 113.77 24.295 114.04 24.835L113.485 25.06L114.445 25.69C114.295 25.975 114.19 26.41 114.115 26.725C113.755 28.195 113.11 30.52 111.85 32.185C110.5 33.985 108.505 35.47 105.82 36.34L104.185 34.54C107.155 33.85 108.85 32.545 110.065 31.015C111.055 29.77 111.625 28.075 111.82 26.785H104.845C104.155 26.785 103.45 26.815 103.06 26.845V24.73C103.495 24.79 104.35 24.85 104.845 24.85H111.79C111.97 24.85 112.225 24.85 112.495 24.82C112.24 24.325 111.94 23.8 111.655 23.365L112.885 22.855ZM114.985 22.48C115.36 23.02 115.9 23.935 116.185 24.46L114.94 25C114.61 24.385 114.145 23.53 113.74 22.975L114.985 22.48ZM119.845 23.995C120.265 24.055 120.895 24.07 121.405 24.07H127.18C127.645 24.07 128.38 24.055 128.8 23.995V25.93C128.395 25.9 127.69 25.885 127.15 25.885H121.405C120.925 25.885 120.28 25.9 119.845 25.93V23.995ZM130.06 28.345C129.955 28.54 129.835 28.81 129.775 28.975C129.325 30.43 128.68 31.885 127.555 33.13C126.04 34.81 124.12 35.83 122.2 36.37L120.715 34.675C122.965 34.21 124.765 33.22 125.905 32.05C126.715 31.225 127.18 30.295 127.45 29.455H120.205C119.845 29.455 119.095 29.47 118.465 29.53V27.58C119.095 27.625 119.74 27.67 120.205 27.67H127.63C128.11 27.67 128.515 27.61 128.725 27.52L130.06 28.345ZM135.115 24.1C136.165 24.805 138.115 26.365 138.985 27.28L137.455 28.84C136.675 28 134.8 26.365 133.705 25.6L135.115 24.1ZM133.24 34.09C135.58 33.76 137.53 32.995 138.985 32.125C141.55 30.61 143.5 28.315 144.445 26.29L145.615 28.405C144.475 30.43 142.48 32.5 140.065 33.955C138.55 34.87 136.615 35.71 134.5 36.07L133.24 34.09ZM156.73 24.34C157.15 24.97 157.75 25.93 158.095 26.605L156.79 27.19C156.355 26.245 156.025 25.645 155.47 24.865L156.73 24.34ZM158.695 23.515C159.13 24.115 159.76 25.06 160.105 25.735L158.845 26.35C158.365 25.405 158.005 24.85 157.45 24.1L158.695 23.515ZM150.745 34.285V25.66C150.745 25.12 150.7 24.385 150.595 23.845H152.935C152.875 24.37 152.8 25.03 152.8 25.66V27.85C154.795 28.45 157.69 29.515 159.07 30.19L158.23 32.275C156.67 31.45 154.42 30.58 152.8 30.04V34.285C152.8 34.705 152.875 35.755 152.95 36.37H150.595C150.685 35.785 150.745 34.87 150.745 34.285ZM169.825 24.19C169.63 24.64 169.405 25.195 169.18 25.855C168.7 27.325 167.485 31.135 166.735 33.145C168.565 32.965 170.695 32.725 172.21 32.545C171.685 31.465 171.13 30.46 170.635 29.8L172.51 29.035C173.575 30.655 175.105 33.595 175.795 35.275L173.77 36.175C173.575 35.665 173.335 35.05 173.05 34.405C170.62 34.69 166.075 35.17 164.185 35.365C163.81 35.41 163.255 35.485 162.775 35.545L162.43 33.355C162.94 33.355 163.585 33.355 164.08 33.34C164.2 33.34 164.35 33.325 164.485 33.325C165.355 31.105 166.645 26.995 167.08 25.435C167.29 24.67 167.38 24.205 167.44 23.695L169.825 24.19ZM177.88 28.555C178.42 28.6 179.515 28.645 180.295 28.645H188.35C189.055 28.645 189.715 28.585 190.105 28.555V30.91C189.745 30.895 188.98 30.835 188.35 30.835H180.295C179.44 30.835 178.435 30.865 177.88 30.91V28.555ZM202.57 23.35C202.945 23.905 203.485 24.85 203.77 25.405L202.555 25.915C202.255 25.3 201.79 24.415 201.385 23.83L202.57 23.35ZM204.34 22.675C204.745 23.23 205.3 24.19 205.555 24.715L204.37 25.225C204.055 24.595 203.575 23.725 203.155 23.155L204.34 22.675ZM196.105 23.995C196.03 24.445 195.985 25.135 195.985 25.555V28.39C197.755 27.955 199.84 27.295 201.175 26.725C201.715 26.515 202.225 26.275 202.81 25.915L203.62 27.82C203.035 28.06 202.36 28.345 201.865 28.525C200.35 29.125 197.935 29.875 195.985 30.355V33.13C195.985 33.775 196.285 33.94 196.96 34.075C197.41 34.135 198.025 34.165 198.7 34.165C200.26 34.165 202.69 33.97 203.92 33.64V35.83C202.51 36.04 200.23 36.145 198.58 36.145C197.605 36.145 196.705 36.085 196.06 35.98C194.755 35.74 194.005 35.02 194.005 33.73V25.555C194.005 25.225 193.96 24.445 193.885 23.995H196.105ZM207.88 28.555C208.42 28.6 209.515 28.645 210.295 28.645H218.35C219.055 28.645 219.715 28.585 220.105 28.555V30.91C219.745 30.895 218.98 30.835 218.35 30.835H210.295C209.44 30.835 208.435 30.865 207.88 30.91V28.555ZM43.6 44.72H48.58V46.34H45.385V54.305H43.6V44.72ZM63.085 45.305V56.84C63.085 57.68 62.935 58.19 62.425 58.46C61.915 58.745 61.195 58.79 60.145 58.79C60.085 58.325 59.83 57.545 59.59 57.095C60.25 57.14 60.925 57.125 61.165 57.125C61.375 57.125 61.45 57.05 61.45 56.825V54.29C60.865 54.785 60.265 55.28 59.725 55.7L59.11 54.68V56.885C59.11 57.725 58.96 58.19 58.45 58.475C57.925 58.76 57.19 58.79 56.08 58.79C56.02 58.34 55.765 57.59 55.555 57.14C56.245 57.185 56.995 57.185 57.235 57.17C57.43 57.17 57.505 57.095 57.505 56.855V54.185C56.755 54.83 55.93 55.49 55.225 56.045L54.34 54.59L54.685 54.35C54.205 54.44 53.74 54.545 53.26 54.635C52.99 56.24 52.285 57.785 50.755 58.79C50.515 58.415 49.96 57.8 49.6 57.485C50.65 56.9 51.175 55.97 51.445 54.965L49.75 55.28L49.435 53.66C50.065 53.57 50.83 53.45 51.67 53.315C51.685 53.045 51.685 52.79 51.685 52.55V52.01H49.9V50.45H51.685V49.265H49.72V47.705H50.77C50.635 47.045 50.305 46.07 49.945 45.335L51.355 44.87C51.775 45.635 52.15 46.64 52.3 47.315L51.145 47.705H54.055L52.945 47.36C53.245 46.64 53.605 45.56 53.755 44.795L55.45 45.26C55.06 46.16 54.67 47.075 54.34 47.705H55.27V49.265H53.425V50.45H55.075V52.01H53.425V52.55C53.425 52.7 53.425 52.85 53.425 53.015L55.165 52.7L55.255 53.93C55.855 53.495 56.53 52.97 57.205 52.445L57.505 53.045V50.93L56.26 51.425C56.155 50.66 55.795 49.445 55.39 48.56L56.65 48.05C57.01 48.77 57.325 49.67 57.505 50.39V46.91H55.48V45.305H59.11V54.08C59.755 53.615 60.58 52.97 61.45 52.28V50.795L60.22 51.29C60.1 50.555 59.725 49.385 59.32 48.545L60.595 48.005C60.94 48.68 61.255 49.505 61.45 50.18V46.91H59.44V45.305H63.085ZM75.67 45.575C75.625 45.905 75.61 46.265 75.595 46.595C75.595 46.91 75.595 47.69 75.595 48.515C76.435 48.455 77.23 48.365 77.845 48.245L77.83 50.195C77.23 50.27 76.45 50.33 75.61 50.375C75.61 50.63 75.61 50.855 75.61 51.005C75.61 54.545 75.34 56.72 72.34 58.625L70.615 57.26C71.185 57.005 71.935 56.525 72.355 56.06C73.51 54.86 73.75 53.525 73.75 50.99C73.75 50.84 73.75 50.66 73.75 50.45C73.18 50.465 72.625 50.48 72.07 50.48C71.425 50.48 70.495 50.435 69.76 50.405V48.5C70.495 48.605 71.23 48.665 72.025 48.665C72.565 48.665 73.15 48.65 73.72 48.635C73.705 47.795 73.69 47.015 73.66 46.61C73.63 46.235 73.555 45.815 73.495 45.575H75.67ZM68.215 45.83C68.08 46.19 67.93 46.73 67.855 47.045C67.48 48.71 66.955 51.86 67.36 53.72C67.555 53.255 67.825 52.535 68.08 51.98L69.01 52.58C68.575 53.87 68.17 55.385 67.99 56.24C67.93 56.465 67.9 56.795 67.9 56.975C67.9 57.125 67.915 57.38 67.93 57.59L66.265 57.755C65.935 56.855 65.41 54.755 65.41 52.895C65.41 50.435 65.71 48.125 65.89 46.91C65.965 46.49 65.98 45.98 65.995 45.605L68.215 45.83ZM80.065 47.18C80.665 47.165 81.25 47.135 81.55 47.105C82.795 47 85.27 46.775 88.015 46.535C89.56 46.415 91.21 46.31 92.26 46.28L92.275 48.2C91.465 48.215 90.175 48.215 89.38 48.395C87.565 48.875 86.215 50.825 86.215 52.61C86.215 55.07 88.525 55.97 91.06 56.105L90.355 58.16C87.22 57.95 84.25 56.255 84.25 53.015C84.25 50.855 85.465 49.145 86.47 48.38C85.06 48.53 82 48.86 80.26 49.235L80.065 47.18ZM103.15 45.395C103.225 45.86 103.33 46.52 103.42 47.315C106.135 47.42 107.86 49.235 107.86 51.605C107.86 54.185 106.225 56.135 103.015 56.135C102.925 56.135 102.82 56.135 102.73 56.12C102.28 57.08 101.62 57.95 100.675 58.655L98.875 57.59C99.76 57.08 100.39 56.405 100.825 55.625C99.925 55.175 99.145 54.455 98.68 53.48L99.76 52.13C100.195 52.97 100.72 53.63 101.485 53.99C101.74 53.03 101.815 52.025 101.815 51.08C101.815 50.42 101.785 49.745 101.755 49.1C99.385 49.715 98.035 51.935 97.735 53.54C97.675 53.81 97.66 54.02 97.675 54.275C97.675 54.53 97.75 55.325 97.84 55.745L96.13 55.97C95.815 54.905 95.62 53.285 95.62 51.8C95.62 50.18 95.875 48.26 95.98 47.375C96.01 47.06 96.025 46.715 96.01 46.49L98.05 46.655C97.945 46.97 97.84 47.3 97.78 47.555C97.585 48.335 97.345 49.73 97.375 50.72C98.35 49.025 99.88 47.915 101.605 47.495C101.545 47.12 101.5 46.775 101.44 46.49C101.365 46.13 101.275 45.68 101.185 45.44L103.15 45.395ZM103.645 51.095C103.645 52.16 103.57 53.24 103.345 54.29C105.04 54.155 105.97 53.135 105.97 51.635C105.97 50.3 105.25 49.145 103.57 48.965C103.615 49.655 103.645 50.375 103.645 51.095ZM120.67 45.575C120.625 45.905 120.61 46.265 120.595 46.595C120.595 46.91 120.595 47.69 120.595 48.515C121.435 48.455 122.23 48.365 122.845 48.245L122.83 50.195C122.23 50.27 121.45 50.33 120.61 50.375C120.61 50.63 120.61 50.855 120.61 51.005C120.61 54.545 120.34 56.72 117.34 58.625L115.615 57.26C116.185 57.005 116.935 56.525 117.355 56.06C118.51 54.86 118.75 53.525 118.75 50.99C118.75 50.84 118.75 50.66 118.75 50.45C118.18 50.465 117.625 50.48 117.07 50.48C116.425 50.48 115.495 50.435 114.76 50.405V48.5C115.495 48.605 116.23 48.665 117.025 48.665C117.565 48.665 118.15 48.65 118.72 48.635C118.705 47.795 118.69 47.015 118.66 46.61C118.63 46.235 118.555 45.815 118.495 45.575H120.67ZM113.215 45.83C113.08 46.19 112.93 46.73 112.855 47.045C112.48 48.71 111.955 51.86 112.36 53.72C112.555 53.255 112.825 52.535 113.08 51.98L114.01 52.58C113.575 53.87 113.17 55.385 112.99 56.24C112.93 56.465 112.9 56.795 112.9 56.975C112.9 57.125 112.915 57.38 112.93 57.59L111.265 57.755C110.935 56.855 110.41 54.755 110.41 52.895C110.41 50.435 110.71 48.125 110.89 46.91C110.965 46.49 110.98 45.98 110.995 45.605L113.215 45.83ZM143.38 47.915L142.075 49.07C141.64 48.38 140.635 47.405 139.75 46.745L140.98 45.725C141.85 46.325 142.9 47.24 143.38 47.915ZM143.05 49.265L143.53 50.69C142.495 51.335 141.325 52.04 140.38 52.565L139.495 51.095C140.395 50.69 141.73 49.97 143.05 49.265ZM145.225 49.91V50.93H147.685V49.91H145.225ZM147.685 48.635V47.645H145.225V48.635H147.685ZM153.175 54.83H148.84C150.085 55.79 151.855 56.6 153.55 57.05C153.175 57.41 152.635 58.115 152.365 58.55C150.61 57.965 148.765 56.9 147.385 55.64V58.775H145.585V55.595C144.235 56.93 142.405 58.025 140.65 58.67C140.365 58.205 139.825 57.53 139.45 57.17C141.13 56.705 142.87 55.835 144.115 54.83H139.84V53.285H145.585V52.295H143.575V46.28H145.345C145.48 45.785 145.6 45.215 145.66 44.795L147.64 45.005C147.475 45.455 147.295 45.89 147.145 46.28H149.425V47.78C150.145 47.165 151.045 46.235 151.585 45.53L153.115 46.445C152.32 47.315 151.36 48.2 150.595 48.8L149.425 48.02V49.88L150.085 49.13C151.195 49.67 152.755 50.57 153.52 51.185L152.425 52.52C151.78 51.95 150.505 51.125 149.425 50.525V52.295H147.385V53.285H153.175V54.83ZM159.565 45.605C159.475 46.235 159.4 47 159.37 47.6C159.31 49.22 159.19 52.58 159.19 54.44C159.19 55.955 160.09 56.45 161.26 56.45C163.735 56.45 165.31 55.025 166.39 53.39L167.755 55.04C166.795 56.48 164.665 58.49 161.245 58.49C158.785 58.49 157.195 57.41 157.195 54.845C157.195 52.835 157.345 48.89 157.345 47.6C157.345 46.895 157.285 46.175 157.15 45.575L159.565 45.605ZM176.605 46.85C176.485 46.505 176.32 45.965 176.125 45.47L178.15 45.23C178.3 46.025 178.525 46.835 178.78 47.585C179.86 47.42 180.91 47.18 181.855 46.895L182.095 48.785C181.33 49.01 180.37 49.19 179.425 49.325C179.86 50.3 180.385 51.23 180.76 51.77C181.015 52.145 181.3 52.475 181.57 52.775L180.64 54.125C179.8 53.96 177.91 53.765 176.65 53.66L176.8 52.07C177.535 52.13 178.525 52.22 178.99 52.25C178.54 51.53 178 50.54 177.58 49.535C175.795 49.67 173.74 49.685 171.175 49.475L171.145 47.555C173.395 47.825 175.315 47.87 176.905 47.765C176.785 47.42 176.695 47.105 176.605 46.85ZM174.145 52.67C173.665 53.375 173.41 54.035 173.41 54.695C173.41 55.955 174.535 56.495 176.59 56.495C178.225 56.495 179.545 56.345 180.61 56.135L180.505 58.025C179.65 58.19 178.3 58.385 176.47 58.385C173.41 58.37 171.475 57.185 171.475 55.025C171.475 54.11 171.76 53.255 172.27 52.235L174.145 52.67ZM188.95 45.545C189.52 47.105 190.225 48.545 190.825 49.7C192.055 48.98 193.36 48.335 194.065 47.93C194.635 47.6 195.07 47.345 195.46 47.015L196.495 48.755C196.045 49.025 195.565 49.28 195.01 49.565C194.08 50.03 192.19 50.9 190.825 51.785C189.58 52.61 188.74 53.465 188.74 54.515C188.74 55.595 189.775 56.165 191.86 56.165C193.405 56.165 195.43 55.94 196.765 55.61L196.735 57.77C195.46 57.995 193.87 58.145 191.92 58.145C188.935 58.145 186.67 57.32 186.67 54.74C186.67 53.09 187.72 51.845 189.16 50.78C188.47 49.505 187.75 47.9 187.075 46.31L188.95 45.545ZM203.575 54.59L205.465 55.325C204.34 56.615 202.69 57.965 201.25 58.82C200.86 58.43 200.2 57.86 199.78 57.575C201.19 56.825 202.78 55.595 203.575 54.59ZM207.535 55.43L209.17 54.545C210.445 55.46 212.305 56.855 213.25 57.77L211.48 58.82C210.655 57.905 208.87 56.45 207.535 55.43ZM204.775 49.4V52.28H208.225V49.4H204.775ZM210.085 52.28H213.355V54.02H199.69V52.28H202.915V49.4H200.215V47.675H202.915V44.9H204.775V47.675H208.225V44.9H210.085V47.675H212.89V49.4H210.085V52.28ZM220.72 47.015C222.565 47.27 225.55 47.195 227.17 47V48.935C225.325 49.1 222.61 49.115 220.72 48.935V47.015ZM221.92 53.42C221.8 53.915 221.74 54.275 221.74 54.68C221.74 55.34 222.31 55.745 223.84 55.745C225.175 55.745 226.285 55.625 227.605 55.355L227.635 57.38C226.66 57.56 225.46 57.665 223.765 57.665C221.185 57.665 219.94 56.75 219.94 55.205C219.94 54.62 220.03 54.02 220.195 53.255L221.92 53.42ZM218.41 46.01C218.29 46.325 218.095 47.075 218.035 47.345C217.84 48.35 217.315 51.35 217.315 52.85C217.315 53.135 217.33 53.525 217.375 53.825C217.6 53.315 217.84 52.79 218.05 52.295L218.98 53.03C218.56 54.275 218.065 55.91 217.9 56.705C217.855 56.93 217.825 57.26 217.825 57.41C217.825 57.575 217.84 57.815 217.855 58.025L216.115 58.145C215.815 57.11 215.53 55.28 215.53 53.24C215.53 50.99 215.995 48.455 216.16 47.3C216.205 46.88 216.295 46.31 216.31 45.83L218.41 46.01ZM234.4 58.88H229.42V57.26H232.615V49.295H234.4V58.88Z" fill="#2F3B53"/>
<g filter="url(#filter1_d_2703_2947)">
<rect x="26.5" y="77.5" width="225" height="30" rx="15" fill="white"/>
<rect x="27.5" y="78.5" width="223" height="28" rx="14" stroke="#2F3B53" stroke-width="2"/>
<path d="M98.816 96.82V97.534C99.614 97.478 100.44 97.408 101.252 97.338C102.344 95.826 102.68 93.824 102.778 91.318H101.504V90.226H98.816V90.772H101.294V95.098H98.816V95.644H101.35V96.82H98.816ZM96.212 94.062H97.304V93.432H96.212V94.062ZM99.908 93.432H98.816V94.062H99.908V93.432ZM98.816 92.438H99.908V91.822H98.816V92.438ZM96.212 91.822V92.438H97.304V91.822H96.212ZM104.402 89.792H107.244C107.244 89.792 107.23 90.338 107.23 90.534C107.104 96.26 106.992 98.29 106.544 98.934C106.222 99.396 105.9 99.536 105.438 99.634C105.018 99.718 104.374 99.704 103.702 99.69C103.674 99.228 103.492 98.556 103.212 98.094C103.828 98.15 104.36 98.164 104.626 98.164C104.836 98.164 104.976 98.108 105.102 97.926C105.396 97.548 105.536 95.84 105.62 91.318H104.36C104.178 95.07 103.534 97.954 101.182 99.816C100.972 99.48 100.566 99.018 100.202 98.71C98.186 98.92 96.17 99.13 94.658 99.256L94.462 97.856C95.246 97.8 96.226 97.73 97.304 97.66V96.82H94.84V95.644H97.304V95.098H94.896V90.772H97.304V90.226H94.546V89.022H97.304V88.462C96.492 88.518 95.694 88.56 94.938 88.574C94.882 88.238 94.728 87.72 94.574 87.398C96.646 87.286 99.068 87.048 100.608 86.712L101.336 87.958C100.594 88.112 99.726 88.238 98.816 88.336V89.022H101.504V89.792H102.82C102.834 88.868 102.834 87.902 102.834 86.866H104.43C104.43 87.888 104.43 88.868 104.402 89.792ZM119.242 97.324V89.96H120.852V99.704H119.242V98.892H110.786V99.718H109.162V89.96H110.786V97.324H119.242ZM116.89 92.69V91.514H115.672V92.69H116.89ZM116.89 95.14V93.95H115.672V95.14H116.89ZM113.026 93.95V95.14H114.244V93.95H113.026ZM113.026 91.514V92.69H114.244V91.514H113.026ZM108.742 87.482H121.272V89.036H115.784V90.156H118.332V96.498H111.668V90.156H114.118V89.036H108.742V87.482ZM128.804 87.272C128.734 87.622 128.636 88.084 128.454 88.672C129.784 88.602 131.184 88.476 132.416 88.266L132.402 89.89C131.072 90.086 129.35 90.198 127.838 90.24C127.6 90.758 127.32 91.262 127.04 91.668C127.404 91.5 128.16 91.388 128.622 91.388C129.476 91.388 130.176 91.752 130.484 92.466C131.212 92.13 131.8 91.892 132.374 91.64C132.92 91.402 133.41 91.178 133.928 90.912L134.628 92.536C134.18 92.662 133.438 92.942 132.962 93.124C132.332 93.376 131.534 93.684 130.68 94.076C130.694 94.86 130.722 95.896 130.736 96.54H129.056C129.098 96.12 129.112 95.448 129.126 94.832C128.076 95.434 127.516 95.98 127.516 96.68C127.516 97.45 128.174 97.66 129.546 97.66C130.736 97.66 132.29 97.506 133.522 97.268L133.466 99.074C132.542 99.2 130.82 99.312 129.504 99.312C127.306 99.312 125.682 98.78 125.682 96.974C125.682 95.182 127.362 94.062 128.958 93.236C128.748 92.886 128.37 92.76 127.978 92.76C127.194 92.76 126.326 93.208 125.794 93.726C125.374 94.146 124.968 94.65 124.492 95.266L122.994 94.146C124.464 92.788 125.458 91.542 126.088 90.282C126.018 90.282 125.962 90.282 125.906 90.282C125.332 90.282 124.31 90.254 123.54 90.198V88.56C124.254 88.672 125.29 88.728 126.004 88.728C126.214 88.728 126.452 88.728 126.676 88.728C126.83 88.168 126.928 87.622 126.956 87.118L128.804 87.272ZM140.074 92.97V93.838H145.926V92.97H140.074ZM140.074 90.744V91.612H145.926V90.744H140.074ZM140.074 88.532V89.4H145.926V88.532H140.074ZM145.954 98.024H147.41C147.886 98.024 147.97 97.786 148.04 96.162C148.39 96.428 149.132 96.708 149.566 96.82C149.384 99.032 148.95 99.606 147.564 99.606H145.716C144.05 99.606 143.658 99.102 143.658 97.534V95.294H141.964C141.67 97.52 140.844 98.99 137.386 99.774C137.232 99.326 136.784 98.64 136.462 98.29C139.332 97.758 139.934 96.82 140.172 95.294H138.464V87.076H147.62V95.294H145.338V97.52C145.338 97.968 145.422 98.024 145.954 98.024ZM155.46 96.848C155.46 97.366 156.034 97.716 156.874 97.716C157.168 97.716 157.434 97.702 157.686 97.674C157.602 96.764 157.084 96.176 156.328 96.176C155.796 96.176 155.46 96.498 155.46 96.848ZM153.08 87.832C153.472 87.888 153.962 87.902 154.354 87.902C155.096 87.902 158.092 87.846 158.89 87.776C159.464 87.72 159.786 87.678 159.954 87.622L160.864 88.868C160.542 89.078 160.206 89.274 159.884 89.512C159.128 90.044 157.658 91.276 156.776 91.976C157.238 91.864 157.658 91.822 158.106 91.822C160.486 91.822 162.292 93.306 162.292 95.35C162.292 97.562 160.612 99.312 157.224 99.312C155.278 99.312 153.808 98.416 153.808 97.016C153.808 95.882 154.83 94.832 156.314 94.832C158.05 94.832 159.1 95.896 159.296 97.226C160.066 96.82 160.458 96.176 160.458 95.322C160.458 94.062 159.198 93.208 157.546 93.208C155.404 93.208 154.004 94.342 152.506 96.05L151.232 94.734C152.226 93.936 153.92 92.508 154.746 91.822C155.53 91.178 156.986 90.002 157.672 89.4C156.958 89.414 155.026 89.498 154.284 89.54C153.906 89.568 153.458 89.61 153.136 89.652L153.08 87.832Z" fill="#2F3B53"/>
<line y1="-1" x2="12.9271" y2="-1" transform="matrix(0.742325 -0.67004 0.693804 0.720164 174 97.5)" stroke="#2F3B53" stroke-width="2"/>
<line x1="175.471" y1="87.7695" x2="184" y2="87.7695" stroke="#2F3B53" stroke-width="2"/>
<line x1="183" y1="95.7549" x2="183" y2="87.4996" stroke="#2F3B53" stroke-width="2"/>
</g>
</g>
<defs>
<filter id="filter0_d_2703_2947" x="0" y="0" width="268" height="132" filterUnits="userSpaceOnUse" color-interpolation-filters="sRGB">
<feFlood flood-opacity="0" result="BackgroundImageFix"/>
<feColorMatrix in="SourceAlpha" type="matrix" values="0 0 0 0 0 0 0 0 0 0 0 0 0 0 0 0 0 0 127 0" result="hardAlpha"/>
<feOffset dy="4"/>
<feGaussianBlur stdDeviation="2"/>
<feComposite in2="hardAlpha" operator="out"/>
<feColorMatrix type="matrix" values="0 0 0 0 0 0 0 0 0 0 0 0 0 0 0 0 0 0 0.25 0"/>
<feBlend mode="normal" in2="BackgroundImageFix" result="effect1_dropShadow_2703_2947"/>
<feBlend mode="normal" in="SourceGraphic" in2="effect1_dropShadow_2703_2947" result="shape"/>
</filter>
<filter id="filter1_d_2703_2947" x="26.5" y="77.5" width="226.5" height="34.5" filterUnits="userSpaceOnUse" color-interpolation-filters="sRGB">
<feFlood flood-opacity="0" result="BackgroundImageFix"/>
<feColorMatrix in="SourceAlpha" type="matrix" values="0 0 0 0 0 0 0 0 0 0 0 0 0 0 0 0 0 0 127 0" result="hardAlpha"/>
<feOffset dx="1" dy="4"/>
<feGaussianBlur stdDeviation="0.25"/>
<feComposite in2="hardAlpha" operator="out"/>
<feColorMatrix type="matrix" values="0 0 0 0 0.184314 0 0 0 0 0.231373 0 0 0 0 0.32549 0 0 0 0.15 0"/>
<feBlend mode="normal" in2="BackgroundImageFix" result="effect1_dropShadow_2703_2947"/>
<feBlend mode="normal" in="SourceGraphic" in2="effect1_dropShadow_2703_2947" result="shape"/>
</filter>
</defs>
</svg>
