<svg width="208" height="63" viewBox="0 0 208 63" fill="none" xmlns="http://www.w3.org/2000/svg">
<g filter="url(#filter0_d_2167_2981)">
<mask id="path-1-inside-1_2167_2981" fill="white">
<path fill-rule="evenodd" clip-rule="evenodd" d="M51.2644 46.6212C46.2648 51.7879 39.2575 55 31.5 55C16.3122 55 4 42.6878 4 27.5C4 12.3122 16.3122 0 31.5 0C38.8738 0 45.5698 2.90219 50.5079 7.62664C51.5951 7.22147 52.7717 7 54 7H194C199.523 7 204 11.4772 204 17V37C204 42.5229 199.523 47 194 47H54C53.0515 47 52.1338 46.8679 51.2644 46.6212Z"/>
</mask>
<path fill-rule="evenodd" clip-rule="evenodd" d="M51.2644 46.6212C46.2648 51.7879 39.2575 55 31.5 55C16.3122 55 4 42.6878 4 27.5C4 12.3122 16.3122 0 31.5 0C38.8738 0 45.5698 2.90219 50.5079 7.62664C51.5951 7.22147 52.7717 7 54 7H194C199.523 7 204 11.4772 204 17V37C204 42.5229 199.523 47 194 47H54C53.0515 47 52.1338 46.8679 51.2644 46.6212Z" fill="white"/>
<path d="M51.2644 46.6212L51.8104 44.6972L50.6592 44.3705L49.8271 45.2304L51.2644 46.6212ZM50.5079 7.62664L49.1254 9.07178L50.0314 9.93864L51.2064 9.50071L50.5079 7.62664ZM49.8271 45.2304C45.1887 50.0239 38.6936 53 31.5 53V57C39.8213 57 47.3408 53.552 52.7016 48.012L49.8271 45.2304ZM31.5 53C17.4167 53 6 41.5833 6 27.5H2C2 43.7924 15.2076 57 31.5 57V53ZM6 27.5C6 13.4167 17.4167 2 31.5 2V-2C15.2076 -2 2 11.2076 2 27.5H6ZM31.5 2C38.3384 2 44.5445 4.68915 49.1254 9.07178L51.8905 6.1815C46.5951 1.11524 39.4092 -2 31.5 -2V2ZM51.2064 9.50071C52.0735 9.17756 53.0137 9 54 9V5C52.5296 5 51.1167 5.26537 49.8095 5.75258L51.2064 9.50071ZM54 9H194V5H54V9ZM194 9C198.418 9 202 12.5817 202 17H206C206 10.3726 200.627 5 194 5V9ZM202 17V37H206V17H202ZM202 37C202 41.4183 198.418 45 194 45V49C200.627 49 206 43.6274 206 37H202ZM194 45H54V49H194V45ZM54 45C53.2379 45 52.504 44.894 51.8104 44.6972L50.7184 48.5452C51.7637 48.8419 52.865 49 54 49V45Z" fill="#2F3B53" mask="url(#path-1-inside-1_2167_2981)"/>
<path d="M73.465 21.775H76.315V23.395H73.465V21.775ZM72.325 31.105C73.045 30.61 74.14 29.8 75.19 28.96L75.895 30.37C75.025 31.12 74.05 31.93 73.195 32.575L72.325 31.105ZM73.375 25.045L74.65 24.55C75.1 25.435 75.475 26.605 75.61 27.385L74.245 27.94C74.155 27.145 73.78 25.945 73.375 25.045ZM76.855 30.775C77.53 30.31 78.535 29.545 79.525 28.75L80.23 30.16C79.435 30.865 78.52 31.615 77.725 32.23L76.855 30.775ZM77.32 25.03L78.61 24.505C79.06 25.36 79.465 26.485 79.6 27.235L78.22 27.805C78.1 27.055 77.74 25.885 77.32 25.03ZM75.505 21.775H77.125V33.415C77.125 34.255 76.975 34.75 76.45 35.02C75.925 35.305 75.175 35.35 74.08 35.35C74.02 34.9 73.765 34.12 73.54 33.685C74.245 33.73 74.98 33.715 75.22 33.7C75.43 33.7 75.505 33.625 75.505 33.4V21.775ZM77.455 21.775H80.395V23.395H77.455V21.775ZM79.465 21.775H81.115V33.385C81.115 34.225 80.965 34.72 80.455 35.005C79.945 35.29 79.21 35.35 78.145 35.35C78.1 34.87 77.845 34.075 77.605 33.64C78.265 33.67 78.94 33.655 79.18 33.655C79.39 33.655 79.465 33.58 79.465 33.37V21.775ZM67.66 24.19H73.255V25.765H67.66V24.19ZM67.87 26.95H73.06V28.51H67.87V26.95ZM67.375 30.175C68.86 29.965 71.065 29.575 73.15 29.215L73.27 30.76C71.335 31.15 69.28 31.525 67.705 31.81L67.375 30.175ZM67.9 21.805L69.34 21.34C69.745 22.12 70.12 23.125 70.255 23.8L68.74 24.325C68.635 23.65 68.29 22.585 67.9 21.805ZM71.74 21.25L73.435 21.745C73.03 22.66 72.625 23.635 72.28 24.28L70.93 23.83C71.215 23.125 71.575 22.03 71.74 21.25ZM69.655 24.595H71.41V29.08C71.41 31.36 70.93 33.895 68.725 35.335C68.47 34.96 67.93 34.345 67.54 34.03C69.46 32.965 69.655 30.805 69.655 29.08V24.595ZM89.26 21.7H90.97V23.53C90.97 24.94 90.655 26.68 89.08 27.76C88.825 27.43 88.105 26.83 87.745 26.605C89.11 25.705 89.26 24.505 89.26 23.485V21.7ZM92.635 21.7H94.33V25.06C94.33 25.48 94.345 25.525 94.51 25.525C94.585 25.525 94.81 25.525 94.9 25.525C95.08 25.525 95.14 25.33 95.17 24.025C95.485 24.28 96.19 24.55 96.64 24.655C96.49 26.53 96.07 27.055 95.08 27.055C94.84 27.055 94.435 27.055 94.195 27.055C92.995 27.055 92.635 26.59 92.635 25.09V21.7ZM90.685 29.35C91.705 31.48 93.85 33.1 96.67 33.79C96.265 34.15 95.74 34.885 95.5 35.335C92.5 34.45 90.385 32.545 89.095 29.86L90.685 29.35ZM94.045 27.73H94.375L94.69 27.67L95.86 28.09C94.825 32.11 92.23 34.27 88.72 35.335C88.54 34.885 88.09 34.135 87.76 33.76C90.88 32.995 93.265 31.045 94.045 28V27.73ZM88.54 27.73H94.75V29.35H88.54V27.73ZM89.95 21.7H93.55V23.275H89.95V21.7ZM83.17 25.87H87.805V27.22H83.17V25.87ZM83.215 21.73H87.775V23.095H83.215V21.73ZM83.17 27.91H87.805V29.275H83.17V27.91ZM82.435 23.755H88.345V25.18H82.435V23.755ZM83.995 29.995H87.79V34.555H83.995V33.13H86.245V31.42H83.995V29.995ZM83.125 29.995H84.64V35.155H83.125V29.995ZM103.54 26.305H111.67V28.09H103.54V26.305ZM106.705 21.325H108.535V35.35H106.705V21.325ZM98.17 25.87H103.015V27.22H98.17V25.87ZM98.26 21.73H103.045V23.095H98.26V21.73ZM98.17 27.91H103.015V29.275H98.17V27.91ZM97.435 23.755H103.615V25.18H97.435V23.755ZM98.995 29.995H102.97V34.555H98.995V33.13H101.395V31.42H98.995V29.995ZM98.125 29.995H99.685V35.155H98.125V29.995ZM120.865 23.725C120.655 25.255 120.355 27.01 119.83 28.78C118.93 31.81 117.64 33.67 116.005 33.67C114.325 33.67 112.945 31.825 112.945 29.29C112.945 25.84 115.96 22.87 119.845 22.87C123.55 22.87 125.905 25.45 125.905 28.735C125.905 31.885 123.97 34.12 120.19 34.705L119.05 32.935C119.635 32.86 120.055 32.785 120.46 32.695C122.365 32.23 123.865 30.865 123.865 28.66C123.865 26.305 122.395 24.625 119.8 24.625C116.62 24.625 114.88 27.22 114.88 29.11C114.88 30.625 115.48 31.36 116.05 31.36C116.695 31.36 117.265 30.4 117.895 28.375C118.33 26.965 118.66 25.24 118.81 23.665L120.865 23.725ZM130.255 23.11C131.365 23.23 132.76 23.29 134.35 23.29C135.82 23.29 137.545 23.2 138.685 23.08V25.075C137.635 25.165 135.79 25.255 134.35 25.255C132.79 25.255 131.485 25.18 130.255 25.09V23.11ZM131.515 29.455C131.38 29.995 131.26 30.475 131.26 30.985C131.26 31.93 132.19 32.635 134.35 32.635C136.36 32.635 138.28 32.41 139.615 32.035L139.63 34.15C138.31 34.45 136.51 34.645 134.41 34.645C130.99 34.645 129.25 33.505 129.25 31.435C129.25 30.58 129.445 29.845 129.55 29.275L131.515 29.455ZM156.625 33.22C155.92 33.865 155.02 34.345 153.79 34.345C152.665 34.345 151.915 33.535 151.915 32.08C151.915 30.445 152.455 28.255 152.455 26.875C152.455 26.14 152.08 25.78 151.435 25.78C150.04 25.78 147.805 27.985 146.605 29.515L146.59 27.205C147.505 26.245 150.01 23.995 151.99 23.995C153.61 23.995 154.345 24.955 154.345 26.215C154.345 27.76 153.85 29.965 153.85 31.525C153.85 31.915 154.06 32.185 154.435 32.185C154.99 32.185 155.695 31.795 156.37 31.12L156.625 33.22ZM146.26 26.08C145.585 26.155 144.16 26.335 143.17 26.485L142.975 24.55C143.395 24.565 143.74 24.565 144.28 24.535C145.225 24.49 147.145 24.205 147.82 23.98L148.42 24.76C148.165 25.105 147.7 25.84 147.445 26.23L146.575 29.05C145.915 30.01 144.58 32.02 143.785 33.115L142.615 31.465C143.56 30.295 145.36 27.925 146.11 26.74L146.14 26.35L146.26 26.08ZM146.08 23.185C146.08 22.765 146.095 22.315 146.005 21.85L148.195 21.91C147.94 23.11 147.445 27.04 147.445 29.725C147.445 30.94 147.445 32.215 147.535 33.61C147.55 33.88 147.61 34.435 147.64 34.765H145.585C145.615 34.42 145.63 33.895 145.63 33.655C145.645 32.2 145.66 31.195 145.705 29.32C145.75 27.985 146.08 23.785 146.08 23.185ZM163.915 22.165C163.825 22.555 163.735 23.035 163.645 23.41C163.51 24.085 163.315 25.015 163.165 25.78C162.67 27.895 161.455 32.17 159.895 34.705L157.93 33.925C159.715 31.525 160.84 27.565 161.26 25.675C161.545 24.325 161.71 23.05 161.695 21.925L163.915 22.165ZM169.09 23.56C170.005 24.865 171.265 27.715 171.73 29.155L169.825 30.04C169.435 28.36 168.37 25.66 167.29 24.325L169.09 23.56ZM157.84 25.24C158.38 25.27 158.89 25.255 159.445 25.24C160.645 25.21 163.48 24.88 164.605 24.88C166.18 24.88 167.305 25.585 167.305 27.76C167.305 29.53 167.095 31.96 166.465 33.25C165.955 34.3 165.13 34.63 164.005 34.63C163.42 34.63 162.715 34.54 162.19 34.42L161.875 32.44C162.46 32.605 163.315 32.755 163.705 32.755C164.215 32.755 164.59 32.605 164.83 32.11C165.25 31.27 165.445 29.44 165.445 27.97C165.445 26.77 164.92 26.59 163.99 26.59C163.09 26.59 160.51 26.92 159.685 27.025C159.25 27.085 158.47 27.19 158.02 27.265L157.84 25.24ZM176.995 21.925C178.42 22.375 181.69 22.96 183.01 23.095L182.56 24.94C181.03 24.73 177.7 24.04 176.53 23.74L176.995 21.925ZM177.1 24.94C176.89 25.78 176.635 27.595 176.53 28.465C177.88 27.475 179.38 27.025 180.955 27.025C183.58 27.025 185.11 28.645 185.11 30.46C185.11 33.205 182.935 35.305 176.71 34.765L176.125 32.8C180.64 33.43 183.01 32.335 183.01 30.415C183.01 29.44 182.095 28.735 180.775 28.735C179.08 28.735 177.565 29.365 176.62 30.505C176.35 30.82 176.185 31.06 176.065 31.36L174.325 30.94C174.625 29.47 174.985 26.53 175.075 24.67L177.1 24.94Z" fill="#2F3B53"/>
<g clip-path="url(#clip0_2167_2981)">
<path d="M42.8499 22.597H38.9099C41.2425 25.6516 42.0143 29.0446 41.0476 32.775C40.3512 35.4597 38.8124 37.5965 36.5493 39.1912C32.1126 42.3179 26.0627 41.8817 22.1494 38.1513C19.9908 36.0936 18.7826 33.5648 18.5784 30.5835C18.3753 27.6057 19.255 24.9548 21.1142 22.5854H20.9099C19.3327 22.5854 17.7544 22.5877 16.1772 22.5854C15.272 22.5842 14.6012 22.1759 14.2032 21.3628C13.5521 20.031 14.5467 18.4095 16.0252 18.3792C16.5672 18.3687 17.108 18.3734 17.65 18.3769C17.9726 18.3792 18.2198 18.6305 18.2244 18.948C18.2291 19.2609 17.9807 19.5133 17.6534 19.5168C17.1544 19.5215 16.6542 19.5133 16.1552 19.5203C15.3962 19.5296 14.9297 20.245 15.2546 20.9034C15.4391 21.2768 15.7571 21.4419 16.1645 21.4419C17.8995 21.4419 19.6356 21.4419 21.3706 21.4419C21.612 21.4419 21.8546 21.4454 22.096 21.4396C22.1528 21.4384 22.2248 21.421 22.2643 21.3838C23.0488 20.6556 23.9261 20.0635 24.8766 19.5785C24.8894 19.5715 24.901 19.561 24.9544 19.5203C24.8615 19.5203 24.8093 19.5203 24.7582 19.5203C23.8008 19.5203 22.8445 19.5226 21.8871 19.5192C21.518 19.518 21.2755 19.2458 21.3091 18.8852C21.337 18.5921 21.5772 18.3781 21.8917 18.3781C22.8851 18.3757 23.8797 18.3781 24.8731 18.3781C30.8047 18.3792 36.7362 18.3815 42.6688 18.3827C42.7211 18.3827 42.7721 18.3827 42.8487 18.3827C42.8487 18.3048 42.8464 18.2385 42.8487 18.1733C42.8592 17.8849 42.8302 17.5871 42.8882 17.3079C43.14 16.0959 44.5454 15.5968 45.5214 16.3762C46.3605 17.045 47.1787 17.7406 48.0062 18.4246C48.3346 18.6956 48.6653 18.9655 48.9903 19.24C49.7795 19.9077 49.7818 21.093 48.9868 21.7548C47.8425 22.7075 46.6947 23.6555 45.5412 24.5977C44.5663 25.3933 43.1389 24.8955 42.8859 23.6753C42.8545 23.5275 42.8545 23.3717 42.8499 23.2193C42.8441 23.0204 42.8487 22.8203 42.8487 22.5993L42.8499 22.597ZM33.3404 22.1038C33.3799 22.1247 33.4193 22.148 33.4611 22.1666C34.306 22.5516 35.0766 23.0506 35.7393 23.7009C37.9292 25.8539 38.7845 28.4618 38.2077 31.4757C37.754 33.8486 36.4356 35.6853 34.3803 36.9532C32.2286 38.2816 29.9099 38.5596 27.5029 37.8221C25.3524 37.1626 23.7254 35.8051 22.6403 33.8312C21.641 32.0119 21.3637 30.0671 21.7977 28.0384C22.1969 26.175 23.1393 24.6221 24.5993 23.3973C26.1068 22.1329 27.8476 21.4431 29.817 21.4326C33.1037 21.4152 36.3903 21.4373 39.677 21.4419C40.8967 21.4443 42.1164 21.4443 43.3373 21.4477C43.7748 21.4489 44 21.6757 44.0011 22.1108C44.0023 22.4958 44.0046 22.8796 44.0011 23.2647C43.9988 23.4868 44.0557 23.6718 44.2681 23.7765C44.4886 23.8846 44.6777 23.83 44.8623 23.6764C45.6062 23.0564 46.3547 22.4434 47.1021 21.8269C47.4793 21.5152 47.8599 21.2081 48.2325 20.8906C48.5121 20.6521 48.5063 20.3287 48.2301 20.0903C48.1942 20.0589 48.1582 20.0286 48.121 19.9984C47.4154 19.4156 46.7087 18.8329 46.0031 18.2501C45.6131 17.9291 45.2243 17.6069 44.8332 17.287C44.665 17.1486 44.477 17.1055 44.2762 17.2044C44.0754 17.3021 43.9953 17.4696 44 17.6941C44.0069 18.0791 44.0023 18.463 44.0023 18.848C44.0023 19.3168 43.7853 19.532 43.3153 19.5308C38.9087 19.5203 34.5021 19.511 30.0956 19.4994C29.2832 19.4971 28.4778 19.5727 27.6874 19.7599C25.7482 20.2194 24.0538 21.1337 22.6693 22.5737C20.2356 25.1025 19.2724 28.1234 19.8585 31.585C20.347 34.4686 21.8511 36.7438 24.2731 38.3758C26.5675 39.9217 29.1045 40.4347 31.8224 39.9508C34.2166 39.5251 36.2093 38.3595 37.8027 36.5217C40.3977 33.5287 41.0197 29.297 39.4379 25.676C39.0514 24.7908 38.4955 24.0673 37.7133 23.5101C36.4077 22.5795 34.9222 22.2027 33.3416 22.105L33.3404 22.1038ZM22.7598 29.7588C22.725 33.7544 25.9652 37.0602 30.0016 37.0579C33.9729 37.0544 37.2352 33.8195 37.234 29.8414C37.2329 25.7376 33.9381 22.5667 29.9946 22.5667C26.0198 22.5667 22.754 25.8179 22.7598 29.76V29.7588Z" fill="#2F3B53"/>
<path d="M19.7725 18.4023C20.0986 18.4023 20.3458 18.6536 20.3435 18.9839C20.3412 19.2957 20.0801 19.5516 19.7679 19.5481C19.4569 19.5446 19.2027 19.2841 19.2039 18.9711C19.205 18.6548 19.4569 18.4035 19.7737 18.4035L19.7725 18.4023Z" fill="#2F3B53"/>
<path d="M33.3404 22.1049C34.921 22.2027 36.4065 22.5795 37.7121 23.5101C38.4943 24.0673 39.0491 24.7908 39.4367 25.676C41.0197 29.297 40.3964 33.5287 37.8015 36.5217C36.2081 38.3595 34.2143 39.525 31.8212 39.9508C29.1032 40.4347 26.5663 39.9229 24.2719 38.3758C21.8499 36.7438 20.3458 34.4674 19.8572 31.585C19.2712 28.1233 20.2344 25.1025 22.6681 22.5737C24.0537 21.1337 25.7481 20.2194 27.6862 19.7599C28.4766 19.5727 29.282 19.497 30.0943 19.4994C34.5009 19.511 38.9075 19.5203 43.314 19.5308C43.7841 19.5308 44.0011 19.3167 44.0011 18.848C44.0011 18.463 44.0069 18.0791 43.9988 17.6941C43.9941 17.4707 44.0754 17.3032 44.275 17.2044C44.4757 17.1067 44.6637 17.1497 44.832 17.287C45.2231 17.6068 45.6119 17.9291 46.0018 18.2501C46.7075 18.8329 47.4142 19.4156 48.1198 19.9984C48.1558 20.0286 48.1929 20.0589 48.2289 20.0903C48.5051 20.3287 48.5109 20.6521 48.2312 20.8906C47.8587 21.2081 47.4781 21.5152 47.1009 21.8269C46.3535 22.4434 45.6049 23.0564 44.861 23.6764C44.6765 23.83 44.4873 23.8846 44.2668 23.7765C44.0545 23.6729 43.9964 23.4868 43.9999 23.2647C44.0046 22.8796 44.0022 22.4958 43.9999 22.1108C43.9988 21.6757 43.7736 21.4489 43.3361 21.4477C42.1164 21.4442 40.8966 21.4442 39.6758 21.4419C36.3891 21.4373 33.1025 21.4152 29.8158 21.4326C27.8464 21.4431 26.1056 22.1329 24.598 23.3973C23.1381 24.6221 22.1946 26.175 21.7965 28.0384C21.3625 30.0671 21.6398 32.0131 22.6391 33.8312C23.7242 35.8051 25.3512 37.1637 27.5017 37.8221C29.9087 38.5596 32.2274 38.2816 34.3791 36.9532C36.4332 35.6853 37.7516 33.8486 38.2065 31.4757C38.7833 28.4618 37.928 25.8539 35.738 23.7009C35.0754 23.0495 34.3048 22.5504 33.4599 22.1666C33.4193 22.148 33.3798 22.1247 33.3392 22.1038L33.3404 22.1049Z" fill="white"/>
<path d="M22.7598 29.7596C22.754 25.8176 26.0198 22.5664 29.9946 22.5664C33.9381 22.5664 37.2329 25.7373 37.234 29.8411C37.2352 33.8192 33.9741 37.0552 30.0016 37.0576C25.9652 37.0611 22.725 33.7541 22.7598 29.7585V29.7596ZM29.9052 23.8645C29.8228 24.0576 29.7439 24.2228 29.6789 24.395C29.2646 25.4907 29.2101 26.6318 29.2542 27.7845C29.2588 27.8927 29.2344 27.9392 29.1323 27.9799C27.9892 28.4313 27.4785 29.7015 27.9903 30.8193C28.031 30.9066 28.0182 30.9577 27.959 31.0252C27.7014 31.3172 27.4426 31.608 27.1954 31.9081C26.9203 32.2431 26.6894 32.6072 26.5745 33.0317C26.5432 33.1469 26.5315 33.2679 26.5049 33.4202C26.6801 33.3551 26.8159 33.3121 26.9447 33.2562C27.677 32.9398 28.3141 32.4815 28.8956 31.9418C28.9652 31.8778 29.0197 31.8581 29.1149 31.8999C29.5072 32.0709 29.9157 32.1035 30.3335 32.0151C31.2271 31.8278 31.9141 31.081 32.0116 30.1889C32.1137 29.2583 31.6286 28.3999 30.771 28.0137C30.6584 27.9625 30.6259 27.9055 30.6201 27.7822C30.576 26.9366 30.5354 26.0897 30.4623 25.2464C30.4182 24.7497 30.258 24.281 29.9052 23.8645Z" fill="white"/>
<path d="M29.9053 23.8643C30.2592 24.2818 30.4194 24.7495 30.4623 25.2461C30.5366 26.0895 30.5761 26.9363 30.6202 27.7819C30.6271 27.9041 30.6584 27.9622 30.771 28.0134C31.6287 28.3996 32.1138 29.2569 32.0116 30.1886C31.913 31.0808 31.2271 31.8275 30.3335 32.0148C29.9157 32.1032 29.5072 32.0706 29.1149 31.8997C29.0198 31.8578 28.9664 31.8776 28.8956 31.9415C28.313 32.4801 27.6759 32.9396 26.9447 33.2559C26.8159 33.3118 26.6813 33.3548 26.5049 33.42C26.5316 33.2676 26.5432 33.1466 26.5745 33.0314C26.6906 32.6069 26.9204 32.2428 27.1954 31.9078C27.4426 31.6077 27.7014 31.3169 27.959 31.0249C28.0182 30.9575 28.0298 30.9063 27.9904 30.819C27.4774 29.7024 27.9881 28.431 29.1323 27.9797C29.2345 27.9401 29.2588 27.8936 29.2542 27.7842C29.2101 26.6315 29.2646 25.4892 29.679 24.3947C29.7439 24.2237 29.8229 24.0573 29.9053 23.8643ZM29.8937 30.9098C30.4263 30.9133 30.8743 30.4829 30.879 29.9652C30.8836 29.4139 30.4507 28.9684 29.9111 28.9672C29.3807 28.9661 28.9327 29.4046 28.9339 29.9234C28.935 30.4701 29.3586 30.9063 29.8937 30.9098Z" fill="#2F3B53"/>
<path d="M29.8936 30.9094C29.3586 30.9059 28.935 30.4697 28.9338 29.923C28.9327 29.4042 29.3806 28.9645 29.911 28.9668C30.4518 28.968 30.8835 29.4135 30.8789 29.9648C30.8754 30.4836 30.4263 30.914 29.8936 30.9094Z" fill="white"/>
</g>
</g>
<defs>
<filter id="filter0_d_2167_2981" x="0" y="0" width="208" height="63" filterUnits="userSpaceOnUse" color-interpolation-filters="sRGB">
<feFlood flood-opacity="0" result="BackgroundImageFix"/>
<feColorMatrix in="SourceAlpha" type="matrix" values="0 0 0 0 0 0 0 0 0 0 0 0 0 0 0 0 0 0 127 0" result="hardAlpha"/>
<feOffset dy="4"/>
<feGaussianBlur stdDeviation="2"/>
<feComposite in2="hardAlpha" operator="out"/>
<feColorMatrix type="matrix" values="0 0 0 0 0 0 0 0 0 0 0 0 0 0 0 0 0 0 0.25 0"/>
<feBlend mode="normal" in2="BackgroundImageFix" result="effect1_dropShadow_2167_2981"/>
<feBlend mode="normal" in="SourceGraphic" in2="effect1_dropShadow_2167_2981" result="shape"/>
</filter>
<clipPath id="clip0_2167_2981">
<rect width="35.5856" height="25.2729" fill="white" transform="translate(14 16)"/>
</clipPath>
</defs>
</svg>
