<svg width="56" height="64" viewBox="0 0 56 64" fill="none" xmlns="http://www.w3.org/2000/svg">
<g clip-path="url(#clip0_2275_2324)">
<path d="M22.8882 11.2114H11.1233C5.90084 11.2114 1.66724 15.3642 1.66724 20.4868V32.027C1.66724 37.1497 5.90084 41.3024 11.1233 41.3024H22.8882C28.1106 41.3024 32.3442 37.1497 32.3442 32.027V20.4868C32.3442 15.3642 28.1106 11.2114 22.8882 11.2114Z" stroke="#2F3B53" stroke-width="2" stroke-miterlimit="10" stroke-dasharray="3.02 3.02"/>
<path d="M45.4485 1.0542H33.6836C28.4611 1.0542 24.2275 5.20693 24.2275 10.3296V21.8698C24.2275 26.9924 28.4611 31.1452 33.6836 31.1452H45.4485C50.6709 31.1452 54.9045 26.9924 54.9045 21.8698V10.3296C54.9045 5.20693 50.6709 1.0542 45.4485 1.0542Z" stroke="#2F3B53" stroke-width="2" stroke-miterlimit="10"/>
<path d="M29.2092 52.5583C29.138 51.2083 28.3071 50.5172 27.7631 49.7074C24.0632 44.2085 20.3038 38.7473 16.6116 33.2432C15.4929 31.5755 15.4201 29.9892 17.2541 28.6366C19.1646 27.2284 20.8205 27.6763 22.119 29.368C23.7658 31.5124 25.2063 33.8146 26.7289 36.0531C27.3429 36.9558 27.7862 38.1413 29.1232 36.6906C29.6644 36.1025 30.6461 35.892 31.4891 36.2023C32.4957 36.572 33.1692 36.4189 33.8874 35.5705C34.4887 34.8601 35.5023 34.5218 36.4421 34.803C37.5535 35.1358 38.2146 34.8558 39.1202 34.115C40.8412 32.7048 42.7152 33.0912 43.9812 34.8867C46.2946 38.1626 48.6553 41.4357 50.6071 44.9245C53.0984 49.3747 51.7453 54.9134 47.9347 58.2952C42.1708 63.4111 35.9573 65.0787 28.7151 61.2871C26.4077 60.0791 23.8701 59.3201 21.4851 58.2483C18.8322 57.0561 18.6456 54.9071 20.9376 53.144C22.3469 52.0598 23.9036 51.6601 25.6608 51.967C26.8103 52.1679 27.9644 52.3524 29.2087 52.5608L29.2092 52.5583ZM24.4031 41.6543C26.4516 44.6659 28.4989 47.6759 30.5474 50.6875C31.1997 51.6467 31.7659 52.6635 30.953 53.7549C30.2026 54.7601 29.1126 54.393 28.1064 54.2184C27.0925 54.0422 26.0856 53.8303 25.0687 53.6761C23.8972 53.4989 22.864 53.8347 21.9413 54.5603C20.9432 55.343 20.8691 56.1335 22.1193 56.6175C26.471 58.2976 30.5971 60.6344 35.2157 61.5372C40.6276 62.5951 48.699 57.172 49.8476 51.8499C50.2267 50.0946 50.2822 48.2718 49.5129 46.6499C47.6659 42.7583 44.8846 39.4336 42.4886 35.878C41.9565 35.0891 41.1304 34.8695 40.2867 35.4247C39.5827 35.8887 39.4148 36.5511 39.7462 37.3678C40.0296 38.0678 40.9531 38.9676 39.7234 39.4593C38.8854 39.7955 38.554 38.7416 38.1203 38.1731C37.4466 37.2947 36.8843 36.0957 35.4892 36.6802C34.0473 37.2849 34.3871 38.3643 34.9993 39.4522C35.2974 39.9828 35.3254 40.5741 34.6545 40.8429C34.1389 41.0502 33.798 40.6281 33.5156 40.2557C33.1782 39.8091 32.8773 39.3337 32.5399 38.8871C31.9139 38.059 31.1144 37.5754 30.1365 38.1803C29.1541 38.7884 29.2193 39.6454 29.7964 40.5861C30.2396 41.3102 31.3174 42.2688 30.0982 42.9044C29.0207 43.465 28.6167 42.0869 28.1267 41.383C25.8349 38.0861 23.6109 34.7438 21.3283 31.4406C20.6153 30.4089 19.9229 28.811 18.331 29.953C16.7797 31.0656 18.0538 32.2701 18.7442 33.3081C20.6057 36.1075 22.5154 38.8724 24.4047 41.6532L24.4031 41.6543Z" fill="#2F3B53"/>
</g>
<defs>
<clipPath id="clip0_2275_2324">
<rect width="55" height="63" fill="white" transform="translate(0.785889 0.189941)"/>
</clipPath>
</defs>
</svg>
