<svg width="81" height="80" viewBox="0 0 81 80" fill="none" xmlns="http://www.w3.org/2000/svg">
<g clip-path="url(#clip0_1981_2873)">
<path d="M52.012 0.0247377C58.4325 0.0247377 64.8494 -0.0248967 71.2699 0.038919C77.0303 0.0920987 80.2282 3.25806 80.2635 9.10074C80.3376 20.6868 80.3023 32.2729 80.267 43.859C80.2635 45.1814 80.7682 47.2058 78.7457 47.2696C76.3597 47.344 76.9244 45.1424 76.9209 43.703C76.875 32.5459 76.9138 21.3888 76.8856 10.2317C76.8715 4.67973 75.6184 3.4176 70.0768 3.40697C57.9524 3.38215 45.8245 3.37506 33.7 3.41051C28.5856 3.42469 27.1772 4.90663 27.1243 10.1041C27.096 12.8233 27.0713 15.5426 27.1349 18.2583C27.1913 20.5876 26.0618 23.6649 30.3186 23.5798C30.9716 23.5656 31.4446 24.4661 31.2505 25.2567C31.0704 25.9942 30.4704 26.6146 29.7468 26.5614C26.8631 26.3487 27.0925 28.2525 27.1066 30.1635C27.1454 35.5984 27.2055 41.0369 27.089 46.4683C27.0219 49.6485 27.8337 52.1019 31.1057 53.1903C32.2282 53.5661 33.4671 54.0518 32.747 55.5479C32.1399 56.81 30.9257 56.6328 29.7539 56.2357C26.1077 55.0019 23.9087 52.428 23.8734 48.6416C23.7358 35.0524 23.7005 21.4632 23.8734 7.87761C23.9334 3.1517 27.4596 0.120461 32.3235 0.0531002C38.8851 -0.0355326 45.4468 0.0318283 52.0085 0.028283L52.012 0.0247377Z" fill="#020202"/>
<path d="M3.97331 68.6195C3.92389 69.9703 4.09685 71.5799 2.36731 71.6508C0.281273 71.7359 0.500112 69.9419 0.514231 68.5664C0.52835 67.2156 0.20362 65.3472 2.29319 65.4252C4.33334 65.4997 3.84271 67.3751 3.97331 68.6231V68.6195Z" fill="#1F1F1F"/>
<path d="M5.56147 27.3733C4.53787 28.8198 4.55905 31.0782 2.57184 31.7199C1.43529 32.085 0.641111 31.0037 0.821124 29.9224C1.12115 28.1214 1.59412 26.2034 3.82134 25.8098C4.792 25.6397 5.31793 26.37 5.56147 27.3733Z" fill="#161616"/>
<path d="M3.95902 55.1722C3.8496 56.4982 4.18492 58.3985 2.15889 58.3169C0.203449 58.2354 0.556417 56.3457 0.52112 54.9843C0.489353 53.7045 0.436408 52.063 2.09182 52.0027C4.10727 51.9283 3.8849 53.7435 3.95902 55.1758V55.1722Z" fill="#171717"/>
<path d="M22.0982 79.9892C20.7604 79.8934 18.9391 80.3402 18.8367 78.3193C18.752 76.5928 20.3439 76.5538 21.6181 76.5857C23.0829 76.6247 25.1337 76.1744 25.0878 78.4718C25.056 80.0991 23.3653 79.9679 22.0982 79.9892Z" fill="#181818"/>
<path d="M35.2285 80.0001C33.9507 79.8654 32.0694 80.3156 32.1612 78.1636C32.2353 76.4406 33.8766 76.5576 35.1402 76.5859C36.5027 76.6178 38.3522 76.3094 38.2711 78.4224C38.204 80.1844 36.5415 79.9256 35.2285 80.0001Z" fill="#1A1A1A"/>
<path d="M14.7634 26.7105C13.5033 26.6006 11.682 26.9445 11.7561 24.8173C11.8196 22.9666 13.4998 23.2786 14.714 23.2857C16.0552 23.2928 17.926 22.8993 17.8271 25.0867C17.7495 26.8346 16.1435 26.6715 14.7634 26.7069V26.7105Z" fill="#101010"/>
<path d="M41.3878 23.2466C42.6761 23.3919 44.5539 22.9523 44.4127 25.1291C44.2997 26.838 42.6902 26.721 41.416 26.6997C40.0112 26.6784 38.2181 26.8451 38.3275 24.7817C38.4228 23.0232 40.1065 23.3459 41.3878 23.2466Z" fill="#111111"/>
<path d="M3.96269 41.8242C3.86033 43.2104 4.13211 45.0576 2.03196 44.9051C0.337718 44.781 0.493023 43.1112 0.52126 41.849C0.553028 40.477 0.260065 38.6086 2.40963 38.7717C4.12153 38.8993 3.88504 40.5621 3.96269 41.8207V41.8242Z" fill="#1A1A1A"/>
<path d="M8.90756 79.9787C7.61217 79.8156 5.85439 80.0957 5.67438 78.1528C5.49437 76.1852 7.08978 76.405 8.34281 76.5362C9.65232 76.6709 11.5125 76.171 11.6854 78.1954C11.8442 80.0389 10.2347 79.9113 8.90403 79.9787H8.90756Z" fill="#141414"/>
<path d="M54.4723 30.3232C52.9898 29.4368 51.7086 28.1321 51.2426 26.3099C50.9885 25.3136 51.9274 24.6826 52.8451 24.8634C54.8888 25.2711 55.9336 26.792 56.2371 28.7455C56.3924 29.7417 55.6971 30.2877 54.4758 30.3196L54.4723 30.3232Z" fill="#0F0F0F"/>
<path d="M49.9914 64.7334C49.8956 62.8796 48.7763 61.9305 48.0435 60.8185C43.0597 53.2673 37.9957 45.7676 33.0223 38.2093C31.5154 35.919 31.4174 33.7407 33.8878 31.8832C36.4612 29.9494 38.6918 30.5645 40.4409 32.8877C42.6592 35.8324 44.5995 38.9939 46.6504 42.0679C47.4775 43.3076 48.0746 44.9355 49.8756 42.9433C50.6045 42.1357 51.9269 41.8466 53.0625 42.2728C54.4184 42.7804 55.3256 42.5702 56.2929 41.4052C57.103 40.4296 58.4683 39.9651 59.7341 40.3513C61.2313 40.8082 62.1217 40.4237 63.3416 39.4064C65.6597 37.4699 68.184 38.0005 69.8895 40.4662C73.0056 44.9648 76.1855 49.4595 78.8145 54.2505C82.1703 60.3616 80.3477 67.9676 75.2148 72.6116C67.4508 79.637 59.0811 81.927 49.3258 76.7203C46.2178 75.0614 42.7997 74.019 39.587 72.5471C36.0136 70.91 35.7622 67.9589 38.8496 65.5377C40.7479 64.0488 42.8448 63.5 45.2118 63.9215C46.7601 64.1973 48.3147 64.4507 49.9907 64.7369L49.9914 64.7334ZM43.5176 49.7596C46.2769 53.8953 49.0347 58.0288 51.7939 62.1645C52.6727 63.4816 53.4353 64.8779 52.3404 66.3766C51.3296 67.7571 49.8613 67.253 48.506 67.0132C47.1402 66.7713 45.784 66.4802 44.4142 66.2685C42.8361 66.0251 41.4444 66.4863 40.2016 67.4827C38.8571 68.5576 38.7572 69.643 40.4413 70.3077C46.3031 72.6149 51.861 75.8239 58.0821 77.0637C65.372 78.5164 76.2443 71.0692 77.7914 63.7606C78.3022 61.3502 78.3768 58.8471 77.3406 56.6198C74.8527 51.2757 71.1063 46.7102 67.8788 41.8275C67.1621 40.7441 66.0493 40.4425 64.9129 41.2049C63.9646 41.8422 63.7384 42.7518 64.1848 43.8732C64.5666 44.8345 65.8106 46.0702 64.1541 46.7454C63.0254 47.2071 62.5789 45.7598 61.9947 44.9791C61.0873 43.7729 60.3298 42.1263 58.4506 42.929C56.5083 43.7594 56.966 45.2417 57.7908 46.7357C58.1923 47.4642 58.23 48.2763 57.3263 48.6455C56.6318 48.93 56.1726 48.3504 55.7922 47.839C55.3377 47.2258 54.9324 46.573 54.4779 45.9597C53.6347 44.8225 52.5577 44.1583 51.2405 44.9891C49.9171 45.8241 50.005 47.001 50.7824 48.2928C51.3794 49.2871 52.8312 50.6036 51.1889 51.4763C49.7375 52.2462 49.1933 50.3538 48.5333 49.3871C45.4462 44.8596 42.4504 40.2699 39.3758 35.7339C38.4154 34.317 37.4827 32.1228 35.3384 33.691C33.2488 35.2189 34.9651 36.8729 35.895 38.2983C38.4024 42.1426 40.9749 45.9394 43.5197 49.7582L43.5176 49.7596Z" fill="#202020"/>
</g>
<defs>
<clipPath id="clip0_1981_2873">
<rect width="80" height="80" fill="white" transform="translate(0.5)"/>
</clipPath>
</defs>
</svg>
