<svg width="41" height="41" viewBox="0 0 41 41" fill="none" xmlns="http://www.w3.org/2000/svg">
<path d="M0.00164246 19.5456C0.00164246 19.4942 0.00164246 19.4427 0.00164246 19.3913C0.035313 19.1992 0.045989 19.0055 0.0336705 18.811C0.144537 17.2695 0.412258 15.7569 0.867221 14.2756C2.48341 9.01931 6.30295 4.58119 11.3199 2.12583C13.0724 1.26746 14.9119 0.666281 16.8385 0.321487C17.8528 0.139847 18.8768 0.0417933 19.9067 0.00803717C19.9395 0.00723345 19.9715 0.00321487 20.0044 0C20.346 0 20.6877 0 21.0293 0C21.5721 0.0305412 22.1158 0.0562602 22.657 0.110913C23.8658 0.232274 25.055 0.457315 26.2211 0.788446C32.8895 2.68281 38.1421 7.76149 40.1525 14.2587C40.5023 15.3904 40.7487 16.5437 40.8842 17.7195C40.9409 18.2106 40.9869 18.7025 41 19.1968C41 19.2868 41 19.376 41 19.466C41 19.8783 41 20.2906 41 20.7029C41 20.793 41 20.8822 41 20.9722C40.9023 23.4235 40.3471 25.7728 39.3567 28.024C38.3228 30.3749 36.8774 32.4565 35.028 34.2649C32.7433 36.4984 30.0686 38.1219 27.0046 39.1281C25.7325 39.5453 24.43 39.829 23.1004 39.9986C23.075 40.0018 23.0495 39.9986 23.0257 39.9986C22.9855 39.9262 23.0027 39.8539 23.0027 39.7856C23.0019 35.341 23.0019 30.8965 23.0019 26.4519C23.0019 26.4069 23.0043 26.3619 23.0019 26.3169C22.997 26.243 23.0306 26.2116 23.1062 26.2156C23.1587 26.2188 23.2113 26.2156 23.2639 26.2156C24.9375 26.2156 26.6112 26.2156 28.284 26.2156C28.3235 26.2156 28.3629 26.2156 28.4023 26.2156C28.5485 26.2132 28.5518 26.2132 28.5789 26.0734C28.6364 25.7776 28.6897 25.4802 28.7448 25.1837C28.9476 24.0986 29.1504 23.0136 29.3541 21.9294C29.4633 21.3491 29.5742 20.7696 29.6834 20.1894C29.6892 20.1588 29.6966 20.1275 29.6777 20.0945C29.6046 20.0632 29.5249 20.0793 29.4469 20.0793C27.3799 20.0785 25.312 20.0793 23.245 20.0785C22.9731 20.0785 23.0027 20.1066 23.0027 19.843C23.0019 19.1301 22.997 18.4172 23.0043 17.7043C23.0101 17.0999 23.0709 16.4995 23.2368 15.9144C23.4199 15.269 23.7352 14.7008 24.2781 14.2732C24.7109 13.9316 25.2135 13.7355 25.7481 13.6109C26.3188 13.4775 26.9011 13.4365 27.485 13.4229C28.1806 13.4068 28.8753 13.4414 29.5709 13.4623C29.6949 13.4663 29.8197 13.4815 29.9438 13.4928C30.0111 13.4992 30.0415 13.4719 30.039 13.406C30.0374 13.361 30.039 13.316 30.039 13.271C30.039 11.5623 30.039 9.85437 30.039 8.14567C30.039 8.11995 30.0366 8.09423 30.039 8.06851C30.0513 7.96885 30.0127 7.92143 29.9068 7.89732C29.5808 7.82418 29.2523 7.76551 28.9221 7.71488C28.0796 7.58709 27.2312 7.50109 26.3804 7.45447C25.6134 7.41268 24.8455 7.42474 24.0793 7.48582C22.845 7.58307 21.637 7.79927 20.484 8.2598C18.4826 9.05869 17.1194 10.4644 16.3524 12.4335C16.0263 13.271 15.8276 14.139 15.7077 15.0255C15.5894 15.8991 15.55 16.7768 15.5533 17.6569C15.5558 18.389 15.5533 19.1212 15.5533 19.8534C15.5533 19.8984 15.5517 19.9434 15.5533 19.9884C15.5558 20.0551 15.5205 20.0793 15.4564 20.0776C15.4038 20.076 15.3513 20.0776 15.2987 20.0776C14.0652 20.0776 12.8309 20.0776 11.5974 20.0776C11.5514 20.0776 11.5046 20.0825 11.4595 20.0768C11.3511 20.064 11.3207 20.1162 11.3289 20.2111C11.333 20.2553 11.3289 20.3011 11.3289 20.3461C11.3289 22.2147 11.3289 24.0842 11.3289 25.9528C11.3289 25.985 11.3289 26.0171 11.3289 26.0493C11.3314 26.2132 11.3314 26.2148 11.503 26.2148C12.7562 26.2148 14.0102 26.2148 15.2634 26.2148C15.3094 26.2148 15.3554 26.2148 15.4014 26.2148C15.4999 26.217 15.5503 26.2673 15.5525 26.3659C15.5525 26.3981 15.5525 26.4302 15.5525 26.4624C15.5525 30.7462 15.5525 35.03 15.5525 39.3146C15.5525 39.3894 15.5681 39.4673 15.5352 39.5453C15.3932 39.5396 15.2642 39.4906 15.1328 39.4553C8.47265 37.675 3.19049 32.7691 1.02243 26.3507C0.599499 25.0985 0.309604 23.8165 0.149464 22.5065C0.102654 22.1239 0.0747321 21.7397 0.0344917 21.3572C0.045989 21.1627 0.0344917 20.969 0.00328492 20.7769C0.00246369 20.7126 0.000821232 20.6491 0 20.5848C0.000821232 20.5068 0.00164246 20.4297 0.00246369 20.3517C0.00246369 20.1725 0.000821232 19.9933 0 19.8148C0 19.7248 0.00082123 19.6356 0.00164246 19.5456Z" fill="#0866FE"/>
</svg>
