<svg width="39" height="39" viewBox="0 0 39 39" fill="none" xmlns="http://www.w3.org/2000/svg">
<path d="M19.5 3.51319C24.7068 3.51319 25.3235 3.53269 27.3799 3.62661C29.2814 3.71335 30.3138 4.03067 31.0009 4.29792C31.9115 4.65191 32.5608 5.07391 33.2432 5.7563C33.9255 6.43869 34.3484 7.08816 34.7016 7.99863C34.9689 8.6857 35.2862 9.71817 35.3729 11.6196C35.4667 13.676 35.4863 14.2925 35.4863 19.4995C35.4863 24.7065 35.4668 25.3229 35.3729 27.3793C35.2862 29.2807 34.9689 30.3132 34.7016 31.0003C34.3476 31.9109 33.9256 32.5602 33.2432 33.2426C32.5608 33.9248 31.9114 34.3478 31.0009 34.701C30.3138 34.9682 29.2814 35.2856 27.3799 35.3723C25.3237 35.4661 24.707 35.4857 19.5 35.4857C14.293 35.4857 13.6766 35.4662 11.6202 35.3723C9.7188 35.2856 8.68632 34.9682 7.99926 34.701C7.08863 34.3468 6.43931 33.9248 5.75692 33.2426C5.07469 32.5602 4.65175 31.9107 4.29854 31.0003C4.03114 30.3132 3.71397 29.2807 3.62723 27.3793C3.53347 25.3231 3.51381 24.7064 3.51381 19.4995C3.51381 14.2927 3.53331 13.6761 3.62723 11.6196C3.71397 9.71817 4.0313 8.6857 4.29854 7.99863C4.65253 7.088 5.07454 6.43869 5.75692 5.7563C6.43931 5.07407 7.08878 4.65113 7.99926 4.29792C8.68632 4.03067 9.7188 3.71335 11.6202 3.62661C13.6765 3.53363 14.2932 3.51319 19.5 3.51319ZM19.5 0C14.2041 0 13.5398 0.0226216 11.46 0.117164C9.38416 0.211706 7.96712 0.541667 6.72684 1.02374C5.44428 1.52235 4.3572 2.18913 3.27309 3.27309C2.18913 4.3572 1.52172 5.44428 1.02374 6.72684C0.541511 7.96727 0.211706 9.38494 0.117164 11.46C0.0226216 13.5398 0 14.2041 0 19.5C0 24.7959 0.0226216 25.4602 0.117164 27.54C0.211706 29.6158 0.541667 31.0329 1.02374 32.2732C1.52235 33.5557 2.18913 34.6428 3.27309 35.7269C4.3572 36.811 5.44506 37.4777 6.72684 37.9763C7.96727 38.4585 9.38494 38.7883 11.46 38.8828C13.5398 38.9774 14.2041 39 19.5 39C24.7959 39 25.4602 38.9774 27.54 38.8828C29.6158 38.7883 31.0329 38.4583 32.2732 37.9763C33.5557 37.4775 34.6428 36.8109 35.7269 35.7269C36.811 34.6428 37.4777 33.5549 37.9763 32.2732C38.4585 31.0329 38.7883 29.6151 38.8828 27.54C38.9774 25.4602 39 24.7959 39 19.5C39 14.2041 38.9774 13.5398 38.8828 11.46C38.7883 9.38416 38.4583 7.96712 37.9763 6.72684C37.4775 5.44428 36.8109 4.3572 35.7269 3.27309C34.6428 2.18913 33.5549 1.52235 32.2732 1.02374C31.0329 0.541511 29.6151 0.211706 27.54 0.117164C25.4602 0.0226216 24.7959 0 19.5 0ZM19.5 9.48665C13.9696 9.48665 9.48665 13.9696 9.48665 19.5C9.48665 25.0304 13.9696 29.5135 19.5 29.5135C25.0304 29.5135 29.5135 25.0304 29.5135 19.5C29.5135 13.9696 25.0304 9.48665 19.5 9.48665ZM19.5 26.0005C15.9104 26.0005 12.9997 23.0907 12.9997 19.5002C12.9997 15.9096 15.9104 12.9998 19.5 12.9998C23.0896 12.9998 26.0003 15.9096 26.0003 19.5002C26.0003 23.0907 23.0896 26.0005 19.5 26.0005ZM29.9088 6.75118C28.6161 6.75118 27.5688 7.79847 27.5688 9.09117C27.5688 10.3839 28.6161 11.4313 29.9088 11.4313C31.2015 11.4313 32.249 10.3839 32.249 9.09117C32.249 7.79847 31.2017 6.75118 29.9088 6.75118Z" fill="#747D91"/>
</svg>
