<svg width="39" height="40" viewBox="0 0 39 40" fill="none" xmlns="http://www.w3.org/2000/svg">
<g clip-path="url(#clip0_1122_121)">
<path d="M27.375 39.9998C27.3724 39.9782 27.3712 39.958 27.3687 39.9365C27.4179 39.9036 27.4723 39.9124 27.5266 39.9124C31.2458 39.9162 34.9649 39.9124 38.6854 39.9137C38.7776 39.9137 38.8699 39.9061 38.9621 39.9074C38.995 39.9301 39.0089 39.9593 38.9962 39.9998H27.3762H27.375Z" fill="#101010"/>
<path d="M34.309 0.00504028C35.4059 0.00504028 36.5029 0.00504028 37.601 0.00504028C37.6453 0.00504028 37.6996 -0.0190058 37.7312 0.0379454C36.8706 1.03902 36.0113 2.03883 35.1507 3.03991C32.9745 5.5736 30.7996 8.10856 28.6248 10.6423C26.8593 12.6988 25.0952 14.7554 23.3297 16.812C23.3259 16.8158 23.3222 16.8196 23.3184 16.8246C23.2034 16.9563 23.2211 16.9347 23.3019 17.0537C23.5332 17.3891 23.7619 17.7257 23.9919 18.0624C27.7503 23.5436 31.5073 29.0248 35.2657 34.5048C36.4624 36.2513 37.6604 37.9978 38.8585 39.7443C38.8951 39.7975 38.928 39.8532 38.9621 39.9089C38.9558 39.9443 38.9368 39.9671 38.8964 39.9671C38.8534 39.9671 38.8092 39.9671 38.7662 39.9671C35.047 39.9671 31.3279 39.9671 27.6075 39.9671C27.5266 39.9671 27.4444 39.9759 27.3686 39.9367C27.1235 39.5849 26.877 39.2356 26.6357 38.8825C23.7291 34.644 20.8225 30.4043 17.9159 26.1646C17.5659 25.6546 17.2171 25.1433 16.867 24.6333C16.8342 24.5839 16.7988 24.5371 16.7571 24.4763C16.7204 24.5168 16.6876 24.551 16.6585 24.5852C14.1235 27.5391 11.5871 30.4917 9.0521 33.4455C7.21969 35.5793 5.38855 37.7131 3.55614 39.8468C3.52075 39.8873 3.48284 39.9253 3.44493 39.9658C2.36191 39.9658 1.28016 39.9671 0.197142 39.9658C0.147857 39.9658 0.0834062 39.9886 0.0669777 39.9076C0.351317 39.5722 0.634393 39.2368 0.919996 38.9027C5.45679 33.6164 9.99358 28.3313 14.5316 23.045C14.73 22.8146 14.9285 22.5843 15.1256 22.3527C15.2431 22.2147 15.2406 22.2603 15.1395 22.1135C14.6125 21.3428 14.0843 20.5733 13.556 19.8025C9.83056 14.3694 6.10382 8.93499 2.37708 3.49931C1.58598 2.3451 0.792359 1.19089 0 0.0366798C0.00884612 0.0126338 0.0265383 0.00504028 0.0505492 0.00504028C0.0998347 0.00504028 0.147857 0.00504028 0.197142 0.00504028C3.93905 0.00504028 7.68096 0.00504028 11.4229 0.00504028C11.4873 0.00504028 11.553 0.00757145 11.6175 0.00883703C12.7346 1.63891 13.8505 3.26898 14.9676 4.89905C17.1741 8.11869 19.3806 11.3371 21.5883 14.5554C21.6186 14.5997 21.6515 14.6428 21.6945 14.7035C25.904 9.79812 30.1059 4.90158 34.309 0.00504028Z" fill="#747D91"/>
<path d="M34.3129 37.522H34.1158C32.478 37.522 30.8389 37.5207 29.2012 37.5245C29.0748 37.5245 28.999 37.4878 28.9244 37.3828C23.5283 29.6425 18.1296 21.9034 12.7322 14.1644C10.0948 10.3841 7.45866 6.60378 4.82125 2.82349C4.7745 2.75768 4.73027 2.6906 4.68604 2.62606C4.71636 2.57417 4.75933 2.59442 4.79219 2.59442C6.4679 2.59442 8.14487 2.59442 9.82057 2.58936C9.94316 2.58936 9.9937 2.64884 10.0493 2.72984C12.0422 5.58879 14.0364 8.44774 16.0305 11.3067C22.0775 19.9759 28.1257 28.6452 34.1727 37.3144C34.2156 37.3752 34.2548 37.4372 34.3104 37.522H34.3129Z" fill="white"/>
</g>
<defs>
<clipPath id="clip0_1122_121">
<rect width="39" height="40" fill="white"/>
</clipPath>
</defs>
</svg>
