<svg width="42" height="30" viewBox="0 0 42 30" fill="none" xmlns="http://www.w3.org/2000/svg">
<g clip-path="url(#clip0_1122_129)">
<path d="M41.1253 4.68485C40.6413 2.83984 39.2203 1.38993 37.4121 0.896049C34.1345 0 21 0 21 0C21 0 7.86549 0 4.59137 0.896049C2.78317 1.38993 1.3622 2.83984 0.878169 4.68485C0 8.02563 0 15 0 15C0 15 0 21.9744 0.878169 25.3151C1.3622 27.1602 2.78317 28.6101 4.59137 29.104C7.86549 30 21 30 21 30C21 30 34.1345 30 37.4086 29.104C39.2168 28.6101 40.6378 27.1602 41.1218 25.3151C42 21.9744 42 15 42 15C42 15 42 8.02563 41.1218 4.68485H41.1253Z" fill="#FF0000"/>
<path d="M16.7993 21.4274L27.7142 14.9998L16.7993 8.57227V21.4274Z" fill="white"/>
</g>
<defs>
<clipPath id="clip0_1122_129">
<rect width="42" height="30" fill="white"/>
</clipPath>
</defs>
</svg>
