<?xml version="1.0" encoding="UTF-8"?>
<svg id="Layer_2" data-name="Layer 2" xmlns="http://www.w3.org/2000/svg" xmlns:xlink="http://www.w3.org/1999/xlink" viewBox="0 0 70 75">
  <defs>
    <style>
      .cls-1 {
        fill: none;
      }

      .cls-2 {
        fill: #c4494d;
        stroke: #c4494d;
        stroke-miterlimit: 10;
        stroke-width: .34px;
      }

      .cls-3 {
        fill: #3e5686;
      }

      .cls-4 {
        clip-path: url(#clippath-1);
      }

      .cls-5 {
        clip-path: url(#clippath);
      }
    </style>
    <clipPath id="clippath">
      <rect class="cls-1" width="70" height="75"/>
    </clipPath>
    <clipPath id="clippath-1">
      <rect class="cls-1" y="8.28" width="70" height="58.45"/>
    </clipPath>
  </defs>
  <g id="Layer_1-2" data-name="Layer 1">
    <g class="cls-5">
      <g class="cls-4">
        <g>
          <path class="cls-2" d="M1.33,56.78v-16.72h.25v16.72s-.25,0-.25,0Z"/>
          <path class="cls-2" d="M1.39,56.67l14.5-8.36.13.22L1.52,56.89l-.13-.22h0Z"/>
          <path class="cls-2" d="M15.83,48.42v-16.72h.25v16.72h-.25Z"/>
          <path class="cls-2" d="M1.39,39.95l14.5-8.36.13.22L1.52,40.17l-.13-.22h0ZM1.39,56.89l.13-.22,14.5,8.36-.13.22S1.39,56.89,1.39,56.89Z"/>
          <path class="cls-2" d="M15.89,65.03l14.5-8.36.13.22-14.5,8.36-.13-.22Z"/>
          <path class="cls-2" d="M15.89,48.53l.13-.22,14.5,8.36-.13.22-14.5-8.36h0Z"/>
          <path class="cls-2" d="M1.39,40.17l.13-.22,14.5,8.36-.13.22L1.39,40.17Z"/>
          <path class="cls-2" d="M15.89,48.31l14.5-8.36.13.22-14.5,8.36-.13-.22h0Z"/>
          <path class="cls-2" d="M15.89,31.81l.13-.22,14.5,8.36-.13.22-14.5-8.36h0Z"/>
          <path class="cls-2" d="M30.32,56.78v-16.72h.25v16.72h-.25ZM1.33,56.78v-16.72h.25v16.72s-.25,0-.25,0Z"/>
          <path class="cls-2" d="M1.39,56.67l14.5-8.36.13.22L1.52,56.89l-.13-.22h0Z"/>
          <path class="cls-2" d="M15.83,48.42v-16.72h.25v16.72h-.25Z"/>
          <path class="cls-2" d="M1.39,39.95l14.5-8.36.13.22L1.52,40.17l-.13-.22h0ZM1.39,56.89l.13-.22,14.5,8.36-.13.22S1.39,56.89,1.39,56.89Z"/>
          <path class="cls-2" d="M15.89,65.03l14.5-8.36.13.22-14.5,8.36-.13-.22Z"/>
          <path class="cls-2" d="M15.89,48.53l.13-.22,14.5,8.36-.13.22-14.5-8.36h0Z"/>
          <path class="cls-2" d="M1.39,40.17l.13-.22,14.5,8.36-.13.22L1.39,40.17Z"/>
          <path class="cls-2" d="M15.89,48.31l14.5-8.36.13.22-14.5,8.36-.13-.22h0Z"/>
          <path class="cls-2" d="M15.89,31.81l.13-.22,14.5,8.36-.13.22-14.5-8.36h0Z"/>
          <path class="cls-2" d="M30.32,56.78v-16.72h.25v16.72h-.25ZM20.38,45.8v-16.72h.25v16.72h-.25Z"/>
          <path class="cls-2" d="M20.44,45.69l14.5-8.36.13.22-14.5,8.36-.13-.22h0Z"/>
          <path class="cls-2" d="M34.87,37.44v-16.72h.25v16.72h-.25Z"/>
          <path class="cls-2" d="M20.44,28.97l14.5-8.36.13.22-14.5,8.36-.13-.22h0ZM20.44,45.91l.12-.22,14.5,8.36-.13.22-14.5-8.36h0Z"/>
          <path class="cls-2" d="M34.94,54.05l14.5-8.36.12.22-14.5,8.36-.13-.22h0Z"/>
          <path class="cls-2" d="M34.94,37.55l.13-.22,14.5,8.36-.12.22-14.5-8.36h0Z"/>
          <path class="cls-2" d="M20.44,29.19l.12-.22,14.5,8.36-.13.22-14.5-8.36h0Z"/>
          <path class="cls-2" d="M34.94,37.33l14.5-8.36.12.22-14.5,8.36s-.13-.22-.13-.22Z"/>
          <path class="cls-2" d="M34.94,20.83l.13-.22,14.5,8.36-.12.22-14.5-8.36h0Z"/>
          <path class="cls-2" d="M49.37,45.8v-16.72h.25v16.72h-.25ZM20.38,45.8v-16.72h.25v16.72h-.25Z"/>
          <path class="cls-2" d="M20.44,45.69l14.5-8.36.13.22-14.5,8.36-.13-.22h0Z"/>
          <path class="cls-2" d="M34.87,37.44v-16.72h.25v16.72h-.25Z"/>
          <path class="cls-2" d="M20.44,28.97l14.5-8.36.13.22-14.5,8.36-.13-.22h0ZM20.44,45.91l.12-.22,14.5,8.36-.13.22-14.5-8.36h0Z"/>
          <path class="cls-2" d="M34.94,54.05l14.5-8.36.12.22-14.5,8.36-.13-.22h0Z"/>
          <path class="cls-2" d="M34.94,37.55l.13-.22,14.5,8.36-.12.22-14.5-8.36h0Z"/>
          <path class="cls-2" d="M20.44,29.19l.12-.22,14.5,8.36-.13.22-14.5-8.36h0Z"/>
          <path class="cls-2" d="M34.94,37.33l14.5-8.36.12.22-14.5,8.36s-.13-.22-.13-.22Z"/>
          <path class="cls-2" d="M34.94,20.83l.13-.22,14.5,8.36-.12.22-14.5-8.36h0Z"/>
          <path class="cls-2" d="M49.37,45.8v-16.72h.25v16.72h-.25ZM39.43,34.81v-16.72h.25v16.72h-.25Z"/>
          <path class="cls-2" d="M39.49,34.7l14.5-8.36.13.22-14.5,8.36-.13-.22Z"/>
          <path class="cls-2" d="M53.92,26.45V9.73h.25v16.72h-.25Z"/>
          <path class="cls-2" d="M39.49,17.98l14.5-8.36.12.22-14.5,8.36s-.13-.22-.13-.22ZM39.49,34.92l.13-.22,14.5,8.36-.12.22s-14.5-8.36-14.5-8.36Z"/>
          <path class="cls-2" d="M53.99,43.06l14.5-8.36.13.22-14.5,8.36-.13-.22h0Z"/>
          <path class="cls-2" d="M53.99,26.56l.13-.22,14.5,8.36-.13.22-14.5-8.36h0Z"/>
          <path class="cls-2" d="M39.49,18.2l.13-.22,14.5,8.36-.12.22-14.5-8.36h0Z"/>
          <path class="cls-2" d="M53.99,26.34l14.5-8.36.13.22-14.5,8.36s-.12-.22-.12-.22Z"/>
          <path class="cls-2" d="M53.99,9.84l.12-.22,14.5,8.36-.13.22s-14.5-8.36-14.5-8.36Z"/>
          <path class="cls-2" d="M68.42,34.81v-16.72h.25v16.72h-.25ZM39.43,34.81v-16.72h.25v16.72h-.25Z"/>
          <path class="cls-2" d="M39.49,34.7l14.5-8.36.13.22-14.5,8.36-.13-.22Z"/>
          <path class="cls-2" d="M53.92,26.45V9.73h.25v16.72h-.25Z"/>
          <path class="cls-2" d="M39.49,17.98l14.5-8.36.12.22-14.5,8.36s-.13-.22-.13-.22ZM39.49,34.92l.13-.22,14.5,8.36-.12.22s-14.5-8.36-14.5-8.36Z"/>
          <path class="cls-2" d="M53.99,43.06l14.5-8.36.13.22-14.5,8.36-.13-.22h0Z"/>
          <path class="cls-2" d="M53.99,26.56l.13-.22,14.5,8.36-.13.22-14.5-8.36h0Z"/>
          <path class="cls-2" d="M39.49,18.2l.13-.22,14.5,8.36-.12.22-14.5-8.36h0Z"/>
          <path class="cls-2" d="M53.99,26.34l14.5-8.36.13.22-14.5,8.36s-.12-.22-.12-.22Z"/>
          <path class="cls-2" d="M53.99,9.84l.12-.22,14.5,8.36-.13.22s-14.5-8.36-14.5-8.36Z"/>
          <path class="cls-2" d="M68.42,34.81v-16.72h.25v16.72h-.25Z"/>
          <path class="cls-3" d="M31.18,55.53l-14.5-8.36-.04-.02-.07-.03s-.05-.02-.07-.03l-.06-.03s-.05-.02-.07-.02c-.02,0-.04-.01-.06-.02-.03,0-.05-.01-.08-.02-.02,0-.04,0-.06-.01h-.08s-.04-.01-.06-.01c-.02,0-.05,0-.07,0s-.05,0-.08,0c-.02,0-.04,0-.06,0-.03,0-.06,0-.08.01-.02,0-.04,0-.06,0-.03,0-.06.01-.08.02-.02,0-.04.01-.06.02-.05.01-.1.03-.14.05-.02,0-.04.02-.06.03-.03.01-.05.03-.08.04l-.03.02-12.32,7.1v-13.37l13.77-7.94c.69-.4.93-1.29.53-1.98-.4-.69-1.29-.93-1.98-.53L.73,38.81l-.03.02-.08.05s-.04.02-.05.04l-.06.04s-.04.03-.06.05c-.04.03-.07.07-.1.1l-.04.04-.05.06-.04.05-.04.06s-.02.04-.03.06c0,.02-.02.04-.03.06-.01.02-.02.05-.03.07,0,.02-.01.04-.02.06,0,.03-.02.05-.02.08v.06s-.03.05-.03.07c0,.02,0,.05,0,.07,0,.02,0,.04,0,.06,0,.03,0,.06,0,.09C0,40.04,0,40.05,0,40.06v16.72c0,.8.65,1.45,1.46,1.45.25,0,.5-.07.72-.19l13.77-7.94,11.59,6.69-12.32,7.1c-.7.4-.94,1.28-.54,1.98.26.45.74.73,1.27.73.25,0,.5-.06.73-.2l14.5-8.36c.69-.4.94-1.28.54-1.98-.13-.22-.31-.41-.54-.54h0s0,0,0,0Z"/>
          <path class="cls-3" d="M31.18,55.53l-14.5-8.36-.04-.02-.07-.03s-.05-.02-.07-.03l-.06-.03s-.05-.02-.07-.02c-.02,0-.04-.01-.06-.02-.03,0-.05-.01-.08-.02-.02,0-.04,0-.06-.01h-.08s-.04-.01-.06-.01c-.02,0-.05,0-.07,0s-.05,0-.08,0c-.02,0-.04,0-.06,0-.03,0-.06,0-.08.01-.02,0-.04,0-.06,0-.03,0-.06.01-.08.02-.02,0-.04.01-.06.02-.05.01-.1.03-.14.05-.02,0-.04.02-.06.03-.03.01-.05.03-.08.04l-.03.02-12.32,7.1v-13.37l13.77-7.94c.69-.4.93-1.29.53-1.98-.4-.69-1.29-.93-1.98-.53L.73,38.81l-.03.02-.08.05s-.04.02-.05.04l-.06.04s-.04.03-.06.05c-.04.03-.07.07-.1.1l-.04.04-.05.06-.04.05-.04.06s-.02.04-.03.06c0,.02-.02.04-.03.06-.01.02-.02.05-.03.07,0,.02-.01.04-.02.06,0,.03-.02.05-.02.08v.06s-.03.05-.03.07c0,.02,0,.05,0,.07,0,.02,0,.04,0,.06,0,.03,0,.06,0,.09C0,40.04,0,40.05,0,40.06v16.72c0,.8.65,1.45,1.46,1.45.25,0,.5-.07.72-.19l13.77-7.94,11.59,6.69-12.32,7.1c-.7.4-.94,1.28-.54,1.98.26.45.74.73,1.27.73.25,0,.5-.06.73-.2l14.5-8.36c.69-.4.94-1.28.54-1.98-.13-.22-.31-.41-.54-.54h0s0,0,0,0Z"/>
          <path class="cls-3" d="M50.23,44.54l-13.77-7.94v-15.88c0-.8-.65-1.45-1.45-1.45s-1.45.65-1.45,1.45h0v15.91l-11.59,6.68v-14.23c0-.8-.65-1.45-1.45-1.45s-1.45.65-1.45,1.45v16.72s0,.03,0,.04c0,.24.06.49.19.71.18.31.45.52.76.63l14.27,8.23c.7.4,1.58.16,1.99-.53.4-.69.16-1.58-.53-1.98,0,0,0,0,0,0l-12.29-7.09,11.59-6.69,13.75,7.93c.69.4,1.58.17,1.98-.52,0,0,0,0,0-.01.4-.69.16-1.58-.53-1.98,0,0,0,0,0,0h0s0,0,0,0Z"/>
          <path class="cls-3" d="M50.23,44.54l-13.77-7.94v-15.88c0-.8-.65-1.45-1.45-1.45s-1.45.65-1.45,1.45h0v15.91l-11.59,6.68v-14.23c0-.8-.65-1.45-1.45-1.45s-1.45.65-1.45,1.45v16.72s0,.03,0,.04c0,.24.06.49.19.71.18.31.45.52.76.63l14.27,8.23c.7.4,1.58.16,1.99-.53.4-.69.16-1.58-.53-1.98,0,0,0,0,0,0l-12.29-7.09,11.59-6.69,13.75,7.93c.69.4,1.58.17,1.98-.52,0,0,0,0,0-.01.4-.69.16-1.58-.53-1.98,0,0,0,0,0,0h0s0,0,0,0Z"/>
          <path class="cls-3" d="M70,18.09v-.04s0-.06,0-.08c0-.02,0-.05,0-.07v-.07s-.03-.08-.03-.08v-.06s-.03-.05-.04-.08l-.02-.05-.03-.08s-.02-.04-.03-.06c-.01-.02-.02-.04-.03-.06-.01-.02-.03-.04-.04-.06l-.04-.05s-.03-.04-.05-.07c-.01-.02-.02-.03-.04-.04-.03-.04-.06-.07-.1-.1l-.06-.05s-.04-.03-.06-.04c-.02-.01-.03-.03-.06-.04-.02-.02-.05-.03-.07-.05-.01,0-.02-.01-.03-.02l-14.5-8.36s-.02-.01-.03-.02l-.03-.02-.04-.02s-.05-.02-.07-.03c0,0-.01,0-.02,0-.01,0-.02-.01-.03-.01-.03,0-.05-.02-.08-.03,0,0-.01,0-.02,0,0,0-.02,0-.03,0-.03,0-.06-.02-.1-.02h0s-.09-.02-.13-.02h-.12s-.06,0-.06,0c-.03,0-.07,0-.1,0h-.02s-.02,0-.03,0h-.08s-.02.02-.03.02c-.01,0-.02,0-.03,0l-.08.02s-.02,0-.03.01c-.01,0-.02,0-.03.01-.03,0-.05.02-.08.03,0,0-.02,0-.03.01h-.02s-.06.04-.09.06c0,0-.01,0-.02,0h-.01s-14.5,8.37-14.5,8.37c-.01,0-.02.01-.03.02-.02.02-.05.03-.08.05-.02.01-.04.03-.05.04-.02.01-.04.03-.06.04l-.06.05s-.03.03-.04.04c-.02.02-.04.04-.06.06l-.04.04-.05.07-.03.05s-.03.04-.04.07l-.03.06s-.02.04-.03.06c-.01.02-.02.05-.03.07l-.02.06-.02.07s-.01.05-.02.07c0,.02-.01.05-.01.07,0,.02,0,.05-.01.08,0,.05-.01.1-.01.16v16.79s0,.07,0,.1v.02s0,.02,0,.03v.08s.01.02.02.03c0,.01,0,.02,0,.03,0,.03.01.05.02.08,0,.01,0,.02,0,.03v.03s.04.08.04.08v.03s.02.01.02.02c.01.03.03.06.04.09v.02s.02.01.02.01c.04.06.08.12.12.18h0s.06.08.1.11h.01s.02.03.02.03c.03.03.06.06.1.09,0,0,0,0,0,0h0s.1.08.16.12l14.5,8.36h0s.08.04.12.06c.02,0,.03.02.05.03.02,0,.03,0,.05.02.16.06.33.09.49.09h0c.16,0,.33-.03.48-.09.02,0,.04-.01.06-.02.02,0,.03-.02.05-.02.04-.02.09-.04.12-.06h0l14.49-8.35h0s0,0,0,0c.01,0,.02,0,.03-.02.03-.02.07-.04.1-.06h.01s.02-.02.03-.03c.04-.03.07-.06.11-.09,0,0,0,0,0,0,.05-.05.1-.1.14-.15v-.02s.02-.02.02-.02c.03-.04.06-.08.08-.12h0s0-.02,0-.02h0s.03-.07.05-.1c0,0,0,0,0-.01,0,0,0,0,0,0,.01-.03.03-.07.04-.11,0,0,0,0,0-.01h0s.02-.07.03-.11c0,0,0-.02,0-.02,0,0,0,0,0-.01,0-.03.01-.06.02-.1,0,0,0-.02,0-.03,0,0,0-.01,0-.02v-.09s.01-.04.01-.04v-16.79h0ZM55.5,12.24l11.59,6.68v13.37l-11.59-6.68s0-13.37,0-13.37ZM41,18.93l11.59-6.68v13.37l-11.59,6.69v-13.37ZM54.05,41.49l-11.59-6.68,11.59-6.68,11.59,6.68s-11.59,6.68-11.59,6.68Z"/>
          <path class="cls-3" d="M70,18.09v-.04s0-.06,0-.08c0-.02,0-.05,0-.07v-.07s-.03-.08-.03-.08v-.06s-.03-.05-.04-.08l-.02-.05-.03-.08s-.02-.04-.03-.06c-.01-.02-.02-.04-.03-.06-.01-.02-.03-.04-.04-.06l-.04-.05s-.03-.04-.05-.07c-.01-.02-.02-.03-.04-.04-.03-.04-.06-.07-.1-.1l-.06-.05s-.04-.03-.06-.04c-.02-.01-.03-.03-.06-.04-.02-.02-.05-.03-.07-.05-.01,0-.02-.01-.03-.02l-14.5-8.36s-.02-.01-.03-.02l-.03-.02-.04-.02s-.05-.02-.07-.03c0,0-.01,0-.02,0-.01,0-.02-.01-.03-.01-.03,0-.05-.02-.08-.03,0,0-.01,0-.02,0,0,0-.02,0-.03,0-.03,0-.06-.02-.1-.02h0s-.09-.02-.13-.02h-.12s-.06,0-.06,0c-.03,0-.07,0-.1,0h-.02s-.02,0-.03,0h-.08s-.02.02-.03.02c-.01,0-.02,0-.03,0l-.08.02s-.02,0-.03.01c-.01,0-.02,0-.03.01-.03,0-.05.02-.08.03,0,0-.02,0-.03.01h-.02s-.06.04-.09.06c0,0-.01,0-.02,0h-.01s-14.5,8.37-14.5,8.37c-.01,0-.02.01-.03.02-.02.02-.05.03-.08.05-.02.01-.04.03-.05.04-.02.01-.04.03-.06.04l-.06.05s-.03.03-.04.04c-.02.02-.04.04-.06.06l-.04.04-.05.07-.03.05s-.03.04-.04.07l-.03.06s-.02.04-.03.06c-.01.02-.02.05-.03.07l-.02.06-.02.07s-.01.05-.02.07c0,.02-.01.05-.01.07,0,.02,0,.05-.01.08,0,.05-.01.1-.01.16v16.79s0,.07,0,.1v.02s0,.02,0,.03v.08s.01.02.02.03c0,.01,0,.02,0,.03,0,.03.01.05.02.08,0,.01,0,.02,0,.03v.03s.04.08.04.08v.03s.02.01.02.02c.01.03.03.06.04.09v.02s.02.01.02.01c.04.06.08.12.12.18h0s.06.08.1.11h.01s.02.03.02.03c.03.03.06.06.1.09,0,0,0,0,0,0h0s.1.08.16.12l14.5,8.36h0s.08.04.12.06c.02,0,.03.02.05.03.02,0,.03,0,.05.02.16.06.33.09.49.09h0c.16,0,.33-.03.48-.09.02,0,.04-.01.06-.02.02,0,.03-.02.05-.02.04-.02.09-.04.12-.06h0l14.49-8.35h0s0,0,0,0c.01,0,.02,0,.03-.02.03-.02.07-.04.1-.06h.01s.02-.02.03-.03c.04-.03.07-.06.11-.09,0,0,0,0,0,0,.05-.05.1-.1.14-.15v-.02s.02-.02.02-.02c.03-.04.06-.08.08-.12h0s0-.02,0-.02h0s.03-.07.05-.1c0,0,0,0,0-.01,0,0,0,0,0,0,.01-.03.03-.07.04-.11,0,0,0,0,0-.01h0s.02-.07.03-.11c0,0,0-.02,0-.02,0,0,0,0,0-.01,0-.03.01-.06.02-.1,0,0,0-.02,0-.03,0,0,0-.01,0-.02v-.09s.01-.04.01-.04v-16.79h0ZM55.5,12.24l11.59,6.68v13.37l-11.59-6.68s0-13.37,0-13.37ZM41,18.93l11.59-6.68v13.37l-11.59,6.69v-13.37ZM54.05,41.49l-11.59-6.68,11.59-6.68,11.59,6.68s-11.59,6.68-11.59,6.68ZM31.52,65.07c.12.23.26.4.4.52.14.11.31.17.48.17.16,0,.31-.04.44-.14.11-.08.18-.21.18-.35,0-.07,0-.13-.03-.19-.02-.06-.05-.12-.1-.17-.05-.06-.11-.12-.17-.18-.08-.07-.15-.14-.23-.2-.22-.19-.44-.37-.66-.56-.18-.15-.34-.31-.49-.49-.12-.14-.23-.3-.31-.47-.07-.16-.11-.32-.11-.49,0-.19.04-.36.11-.52.08-.16.18-.3.31-.42s.29-.21.47-.28c.18-.07.36-.1.56-.1.34,0,.62.08.86.24.24.16.47.36.68.61l-.73.62c-.12-.14-.26-.26-.41-.37-.12-.08-.27-.13-.41-.13-.12,0-.23.03-.33.1-.08.06-.13.16-.13.26,0,.06.01.12.04.17.04.07.09.13.14.19.07.07.15.15.27.24.11.09.25.2.42.33.18.15.35.28.5.41.15.13.28.26.39.4.11.14.19.28.25.44.06.15.09.33.09.53,0,.22-.04.42-.12.61-.08.18-.19.34-.33.47-.15.14-.32.24-.51.31-.2.07-.42.11-.66.11-.39,0-.72-.09-1-.28-.28-.19-.51-.47-.71-.86l.85-.51s0,0,0,0ZM34.78,66.59v-5.27h1.01v1.98h1.79v-1.98h1.01v5.27h-1.01v-2.31h-1.79v2.31h-1.02ZM39.42,63.95c0-.39.08-.76.22-1.09.15-.34.35-.63.6-.88.52-.51,1.22-.8,1.95-.8.38,0,.71.07,1.05.21.33.14.63.33.88.58.25.25.46.54.61.88.15.34.23.71.23,1.11s-.07.75-.22,1.08c-.28.66-.8,1.18-1.46,1.45-.34.14-.7.21-1.07.21-.74,0-1.46-.28-1.98-.81-.25-.25-.45-.55-.59-.88-.14-.34-.22-.71-.22-1.08h0ZM40.44,63.97c0,.27.05.51.14.73.09.22.22.41.38.56.16.16.35.28.56.36.43.17.92.17,1.35-.01.21-.09.39-.22.55-.38.15-.16.28-.35.37-.57.09-.22.14-.45.14-.7,0-.47-.17-.93-.49-1.27-.16-.17-.34-.3-.56-.4-.22-.1-.46-.15-.7-.15-.46,0-.9.18-1.23.5-.16.16-.28.35-.38.57-.09.22-.14.47-.14.75,0,0,0,0,0,0ZM47.7,64.2v.9h-1.84v-.9h1.84ZM49.1,65.07c.12.23.26.4.4.52.14.11.31.17.48.17.16,0,.31-.04.44-.14.11-.08.18-.21.18-.35,0-.07,0-.13-.03-.19-.02-.06-.05-.12-.1-.17-.05-.06-.11-.12-.17-.18-.08-.07-.15-.14-.23-.2-.22-.19-.44-.37-.66-.56-.18-.15-.34-.31-.49-.49-.12-.14-.23-.3-.31-.47-.07-.16-.11-.32-.11-.5,0-.19.04-.36.12-.52.08-.16.18-.3.31-.42s.29-.21.47-.28c.18-.07.37-.1.56-.1.34,0,.62.08.86.24.24.16.47.36.68.61l-.73.62c-.12-.14-.26-.26-.41-.37-.12-.08-.27-.13-.41-.13-.12,0-.23.03-.33.1-.08.06-.13.16-.13.26,0,.06.01.12.04.17.04.07.09.13.14.19.07.07.15.15.27.24.11.09.25.2.42.33.18.15.35.29.5.41.15.13.28.26.39.4.11.14.19.28.25.44.06.15.09.33.09.53,0,.22-.04.42-.12.61-.08.18-.19.34-.33.47-.15.14-.32.24-.51.31-.2.07-.42.11-.66.11-.39,0-.72-.09-1-.28-.28-.19-.51-.47-.71-.86l.85-.51h0s0,0,0,0ZM52.36,66.59v-5.27h2.9v.98h-1.89v.96h1.89v.95h-1.89v1.39h1.89v.98h-2.9ZM56.2,66.59v-5.27h1.01v2.06l1.53-2.06h1.14l-1.85,2.47,2.01,2.81h-1.15l-1.68-2.36v2.36h-1.01ZM60.52,66.59v-5.27h1.01v2.06l1.53-2.06h1.14l-1.85,2.47,2.01,2.81h-1.15l-1.68-2.36v2.36h-1.02ZM64.83,66.59v-5.27h2.9v.98h-1.89v.96h1.89v.95h-1.89v1.39h1.89v.98h-2.9ZM68.68,61.32h1.01v5.27h-1.01s0-5.27,0-5.27Z"/>
        </g>
      </g>
    </g>
  </g>
</svg>