<svg width="176" height="76" fill="none" xmlns="http://www.w3.org/2000/svg"><g clip-path="url(#a)"><g clip-path="url(#b)"><path d="M1.828 57.283V40.56h.253v16.723h-.253Z" fill="#C4494D" stroke="#C4494D" stroke-width=".34" stroke-miterlimit="10"/><path d="m1.89 57.173 14.499-8.36.127.218-14.498 8.361-.127-.219Z" fill="#C4494D" stroke="#C4494D" stroke-width=".34" stroke-miterlimit="10"/><path d="M16.325 48.92V32.2h.254v16.72h-.254Z" fill="#C4494D" stroke="#C4494D" stroke-width=".34" stroke-miterlimit="10"/><path d="M1.89 40.452 16.39 32.09l.127.217L2.018 40.67l-.127-.217ZM1.89 57.392l.128-.22 14.498 8.362-.126.218-14.5-8.36Z" fill="#C4494D" stroke="#C4494D" stroke-width=".34" stroke-miterlimit="10"/><path d="m16.39 65.534 14.498-8.361.126.219-14.498 8.36-.126-.218Z" fill="#C4494D" stroke="#C4494D" stroke-width=".34" stroke-miterlimit="10"/><path d="m16.389 49.031.127-.218 14.498 8.36-.126.219-14.5-8.36Z" fill="#C4494D" stroke="#C4494D" stroke-width=".34" stroke-miterlimit="10"/><path d="m1.89 40.669.128-.218 14.498 8.36-.127.22L1.89 40.669Z" fill="#C4494D" stroke="#C4494D" stroke-width=".34" stroke-miterlimit="10"/><path d="m16.389 48.812 14.499-8.36.126.217-14.498 8.362-.127-.22Z" fill="#C4494D" stroke="#C4494D" stroke-width=".34" stroke-miterlimit="10"/><path d="m16.389 32.308.127-.217 14.498 8.36-.126.218-14.5-8.36Z" fill="#C4494D" stroke="#C4494D" stroke-width=".34" stroke-miterlimit="10"/><path d="M30.823 57.283V40.56h.253v16.723h-.253ZM1.828 57.283V40.56h.253v16.723h-.253Z" fill="#C4494D" stroke="#C4494D" stroke-width=".34" stroke-miterlimit="10"/><path d="m1.89 57.173 14.499-8.36.127.218-14.498 8.361-.127-.219Z" fill="#C4494D" stroke="#C4494D" stroke-width=".34" stroke-miterlimit="10"/><path d="M16.325 48.92V32.2h.254v16.72h-.254Z" fill="#C4494D" stroke="#C4494D" stroke-width=".34" stroke-miterlimit="10"/><path d="M1.89 40.452 16.39 32.09l.127.217L2.018 40.67l-.127-.217ZM1.89 57.392l.128-.22 14.498 8.362-.126.218-14.5-8.36Z" fill="#C4494D" stroke="#C4494D" stroke-width=".34" stroke-miterlimit="10"/><path d="m16.39 65.534 14.498-8.361.126.219-14.498 8.36-.126-.218Z" fill="#C4494D" stroke="#C4494D" stroke-width=".34" stroke-miterlimit="10"/><path d="m16.389 49.031.127-.218 14.498 8.36-.126.219-14.5-8.36Z" fill="#C4494D" stroke="#C4494D" stroke-width=".34" stroke-miterlimit="10"/><path d="m1.89 40.669.128-.218 14.498 8.36-.127.22L1.89 40.669Z" fill="#C4494D" stroke="#C4494D" stroke-width=".34" stroke-miterlimit="10"/><path d="m16.389 48.812 14.499-8.36.126.217-14.498 8.362-.127-.22Z" fill="#C4494D" stroke="#C4494D" stroke-width=".34" stroke-miterlimit="10"/><path d="m16.389 32.308.127-.217 14.498 8.36-.126.218-14.5-8.36Z" fill="#C4494D" stroke="#C4494D" stroke-width=".34" stroke-miterlimit="10"/><path d="M30.823 57.283V40.56h.253v16.723h-.253ZM20.876 46.299V29.576h.254V46.3h-.254Z" fill="#C4494D" stroke="#C4494D" stroke-width=".34" stroke-miterlimit="10"/><path d="m20.94 46.188 14.498-8.359.127.218-14.5 8.36-.126-.219Z" fill="#C4494D" stroke="#C4494D" stroke-width=".34" stroke-miterlimit="10"/><path d="M35.374 37.938V21.217h.252v16.721h-.252Z" fill="#C4494D" stroke="#C4494D" stroke-width=".34" stroke-miterlimit="10"/><path d="m20.94 29.467 14.498-8.36.127.218-14.5 8.361-.126-.219ZM20.94 46.407l.125-.218 14.5 8.36-.127.219-14.499-8.36Z" fill="#C4494D" stroke="#C4494D" stroke-width=".34" stroke-miterlimit="10"/><path d="m35.438 54.55 14.498-8.361.125.218-14.497 8.361-.126-.219Z" fill="#C4494D" stroke="#C4494D" stroke-width=".34" stroke-miterlimit="10"/><path d="m35.437 38.047.128-.218 14.496 8.36-.125.218-14.5-8.36Z" fill="#C4494D" stroke="#C4494D" stroke-width=".34" stroke-miterlimit="10"/><path d="m20.94 29.686.125-.22 14.5 8.363-.128.217-14.498-8.36Z" fill="#C4494D" stroke="#C4494D" stroke-width=".34" stroke-miterlimit="10"/><path d="m35.438 37.829 14.498-8.362.125.219-14.496 8.36-.127-.217Z" fill="#C4494D" stroke="#C4494D" stroke-width=".34" stroke-miterlimit="10"/><path d="m35.438 21.325.127-.219 14.496 8.361-.125.219-14.498-8.36Z" fill="#C4494D" stroke="#C4494D" stroke-width=".34" stroke-miterlimit="10"/><path d="M49.873 46.299V29.576h.251V46.3h-.251ZM20.876 46.299V29.576h.254V46.3h-.254Z" fill="#C4494D" stroke="#C4494D" stroke-width=".34" stroke-miterlimit="10"/><path d="m20.94 46.188 14.498-8.359.127.218-14.5 8.36-.126-.219Z" fill="#C4494D" stroke="#C4494D" stroke-width=".34" stroke-miterlimit="10"/><path d="M35.374 37.938V21.217h.252v16.721h-.252Z" fill="#C4494D" stroke="#C4494D" stroke-width=".34" stroke-miterlimit="10"/><path d="m20.94 29.467 14.498-8.36.127.218-14.5 8.361-.126-.219ZM20.94 46.407l.125-.218 14.5 8.36-.127.219-14.499-8.36Z" fill="#C4494D" stroke="#C4494D" stroke-width=".34" stroke-miterlimit="10"/><path d="m35.438 54.55 14.498-8.361.125.218-14.497 8.361-.126-.219Z" fill="#C4494D" stroke="#C4494D" stroke-width=".34" stroke-miterlimit="10"/><path d="m35.437 38.047.128-.218 14.496 8.36-.125.218-14.5-8.36Z" fill="#C4494D" stroke="#C4494D" stroke-width=".34" stroke-miterlimit="10"/><path d="m20.94 29.686.125-.22 14.5 8.363-.128.217-14.498-8.36Z" fill="#C4494D" stroke="#C4494D" stroke-width=".34" stroke-miterlimit="10"/><path d="m35.438 37.829 14.498-8.362.125.219-14.496 8.36-.127-.217Z" fill="#C4494D" stroke="#C4494D" stroke-width=".34" stroke-miterlimit="10"/><path d="m35.438 21.325.127-.219 14.496 8.361-.125.219-14.498-8.36Z" fill="#C4494D" stroke="#C4494D" stroke-width=".34" stroke-miterlimit="10"/><path d="M49.873 46.299V29.576h.251V46.3h-.251ZM39.926 35.311V18.59h.25V35.31h-.25Z" fill="#C4494D" stroke="#C4494D" stroke-width=".34" stroke-miterlimit="10"/><path d="m39.987 35.202 14.498-8.361.127.219-14.497 8.359-.128-.217Z" fill="#C4494D" stroke="#C4494D" stroke-width=".34" stroke-miterlimit="10"/><path d="M54.422 26.95V10.229h.254v16.72h-.254Z" fill="#C4494D" stroke="#C4494D" stroke-width=".34" stroke-miterlimit="10"/><path d="m39.989 18.48 14.498-8.36.124.218L40.115 18.7l-.126-.22ZM39.989 35.42l.126-.218 14.496 8.36-.124.22-14.498-8.362Z" fill="#C4494D" stroke="#C4494D" stroke-width=".34" stroke-miterlimit="10"/><path d="m54.485 43.56 14.5-8.36.126.22-14.5 8.361-.126-.22Z" fill="#C4494D" stroke="#C4494D" stroke-width=".34" stroke-miterlimit="10"/><path d="m54.485 27.059.127-.22L69.11 35.2l-.127.22-14.499-8.361Z" fill="#C4494D" stroke="#C4494D" stroke-width=".34" stroke-miterlimit="10"/><path d="m39.989 18.7.126-.22 14.496 8.36-.124.219-14.498-8.36Z" fill="#C4494D" stroke="#C4494D" stroke-width=".34" stroke-miterlimit="10"/><path d="m54.487 26.84 14.497-8.36.127.22-14.5 8.359-.124-.219Z" fill="#C4494D" stroke="#C4494D" stroke-width=".34" stroke-miterlimit="10"/><path d="m54.487 10.338.124-.218 14.5 8.36-.127.22-14.497-8.362Z" fill="#C4494D" stroke="#C4494D" stroke-width=".34" stroke-miterlimit="10"/><path d="M68.92 35.311V18.59h.254V35.31h-.254ZM39.926 35.311V18.59h.25V35.31h-.25Z" fill="#C4494D" stroke="#C4494D" stroke-width=".34" stroke-miterlimit="10"/><path d="m39.987 35.202 14.498-8.361.127.219-14.497 8.359-.128-.217Z" fill="#C4494D" stroke="#C4494D" stroke-width=".34" stroke-miterlimit="10"/><path d="M54.422 26.95V10.229h.254v16.72h-.254Z" fill="#C4494D" stroke="#C4494D" stroke-width=".34" stroke-miterlimit="10"/><path d="m39.989 18.48 14.498-8.36.124.218L40.115 18.7l-.126-.22ZM39.989 35.42l.126-.218 14.496 8.36-.124.22-14.498-8.362Z" fill="#C4494D" stroke="#C4494D" stroke-width=".34" stroke-miterlimit="10"/><path d="m54.485 43.56 14.5-8.36.126.22-14.5 8.361-.126-.22Z" fill="#C4494D" stroke="#C4494D" stroke-width=".34" stroke-miterlimit="10"/><path d="m54.485 27.059.127-.22L69.11 35.2l-.127.22-14.499-8.361Z" fill="#C4494D" stroke="#C4494D" stroke-width=".34" stroke-miterlimit="10"/><path d="m39.989 18.7.126-.22 14.496 8.36-.124.219-14.498-8.36Z" fill="#C4494D" stroke="#C4494D" stroke-width=".34" stroke-miterlimit="10"/><path d="m54.487 26.84 14.497-8.36.127.22-14.5 8.359-.124-.219Z" fill="#C4494D" stroke="#C4494D" stroke-width=".34" stroke-miterlimit="10"/><path d="m54.487 10.338.124-.218 14.5 8.36-.127.22-14.497-8.362Z" fill="#C4494D" stroke="#C4494D" stroke-width=".34" stroke-miterlimit="10"/><path d="M68.92 35.311V18.59h.254V35.31h-.254Z" fill="#C4494D" stroke="#C4494D" stroke-width=".34" stroke-miterlimit="10"/><path d="M31.676 56.026 17.18 47.665l-.042-.022-.07-.035c-.021-.01-.045-.018-.067-.027l-.063-.025a.568.568 0 0 0-.074-.024.53.53 0 0 0-.059-.017c-.026-.007-.053-.012-.08-.017-.02-.005-.038-.009-.058-.011l-.079-.01a.553.553 0 0 0-.064-.004c-.023-.003-.047-.003-.071-.003-.025 0-.051 0-.075.003a.475.475 0 0 0-.061.004c-.026.003-.055.006-.081.011-.02 0-.038.005-.056.01a.895.895 0 0 0-.083.017c-.019.004-.038.011-.057.017a1.363 1.363 0 0 0-.143.05c-.019.008-.04.016-.059.026a.875.875 0 0 0-.08.04l-.034.017-12.318 7.103V41.399l13.77-7.94a1.451 1.451 0 1 0-1.452-2.516L1.227 39.305l-.03.02-.076.05a.535.535 0 0 0-.053.039l-.058.045c-.019.016-.038.035-.057.053a1.219 1.219 0 0 0-.1.103l-.038.045-.046.064-.036.05-.038.065c-.013.02-.022.04-.033.06a.84.84 0 0 1-.03.061c-.011.022-.02.047-.03.07a.42.42 0 0 1-.021.058c-.01.026-.017.05-.025.075l-.015.063a1.11 1.11 0 0 0-.015.072c-.005.024-.008.049-.01.073-.005.02-.006.042-.01.063a1.043 1.043 0 0 0-.003.092c0 .012-.003.024-.003.035v16.722a1.454 1.454 0 0 0 2.18 1.257l13.772-7.942 11.59 6.685-12.317 7.103a1.451 1.451 0 0 0 .728 2.71c.247 0 .497-.063.726-.197l14.497-8.36a1.448 1.448 0 0 0 0-2.514v.002Z" fill="#3E5686"/><path d="M31.676 56.026 17.18 47.665l-.042-.022-.07-.035c-.021-.01-.045-.018-.067-.027l-.063-.025a.568.568 0 0 0-.074-.024.53.53 0 0 0-.059-.017c-.026-.007-.053-.012-.08-.017-.02-.005-.038-.009-.058-.011l-.079-.01a.553.553 0 0 0-.064-.004c-.023-.003-.047-.003-.071-.003-.025 0-.051 0-.075.003a.475.475 0 0 0-.061.004c-.026.003-.055.006-.081.011-.02 0-.038.005-.056.01a.895.895 0 0 0-.083.017c-.019.004-.038.011-.057.017a1.363 1.363 0 0 0-.143.05c-.019.008-.04.016-.059.026a.875.875 0 0 0-.08.04l-.034.017-12.318 7.103V41.399l13.77-7.94a1.451 1.451 0 1 0-1.452-2.516L1.227 39.305l-.03.02-.076.05a.535.535 0 0 0-.053.039l-.058.045c-.019.016-.038.035-.057.053a1.219 1.219 0 0 0-.1.103l-.038.045-.046.064-.036.05-.038.065c-.013.02-.022.04-.033.06a.84.84 0 0 1-.03.061c-.011.022-.02.047-.03.07a.42.42 0 0 1-.021.058c-.01.026-.017.05-.025.075l-.015.063a1.11 1.11 0 0 0-.015.072c-.005.024-.008.049-.01.073-.005.02-.006.042-.01.063a1.043 1.043 0 0 0-.003.092c0 .012-.003.024-.003.035v16.722a1.454 1.454 0 0 0 2.18 1.257l13.772-7.942 11.59 6.685-12.317 7.103a1.451 1.451 0 0 0 .728 2.71c.247 0 .497-.063.726-.197l14.497-8.36a1.448 1.448 0 0 0 0-2.514v.002Z" fill="#3E5686"/><path d="m50.726 45.04-13.772-7.941V21.215a1.453 1.453 0 0 0-2.908 0v15.912l-11.59 6.683V29.575c0-.8-.651-1.45-1.454-1.45-.802 0-1.454.65-1.454 1.45v16.723c0 .014 0 .026.003.04 0 .243.063.489.194.714.178.306.45.523.758.635l14.27 8.23a1.456 1.456 0 0 0 1.987-.53 1.45 1.45 0 0 0-.533-1.983l-12.291-7.09 11.587-6.686 13.75 7.929a1.447 1.447 0 0 0 1.985-.533 1.45 1.45 0 0 0-.532-1.982v-.003Z" fill="#3E5686"/><path d="m50.726 45.04-13.772-7.941V21.215a1.453 1.453 0 0 0-2.908 0v15.912l-11.59 6.683V29.575c0-.8-.651-1.45-1.454-1.45-.802 0-1.454.65-1.454 1.45v16.723c0 .014 0 .026.003.04 0 .243.063.489.194.714.178.306.45.523.758.635l14.27 8.23a1.456 1.456 0 0 0 1.987-.53 1.45 1.45 0 0 0-.533-1.983l-12.291-7.09 11.587-6.686 13.75 7.929a1.447 1.447 0 0 0 1.985-.533 1.45 1.45 0 0 0-.532-1.982v-.003Z" fill="#3E5686"/><path d="M70.5 18.588v-.04c0-.028 0-.056-.004-.085a.37.37 0 0 0-.008-.068l-.01-.07-.018-.077-.015-.058a1.007 1.007 0 0 0-.024-.079l-.02-.053-.031-.075c-.01-.02-.02-.038-.028-.057-.01-.022-.024-.042-.034-.062-.012-.022-.026-.043-.038-.063l-.035-.052c-.016-.023-.033-.043-.048-.065a.29.29 0 0 0-.038-.043.803.803 0 0 0-.099-.104l-.059-.054c-.018-.016-.037-.03-.055-.044-.018-.013-.034-.027-.055-.04-.023-.017-.047-.032-.072-.047-.013-.006-.022-.015-.034-.021l-14.5-8.36c-.01-.006-.022-.01-.031-.016l-.033-.02-.039-.02c-.023-.01-.046-.021-.07-.03-.008-.002-.013-.006-.021-.009-.011-.004-.024-.01-.035-.013a.979.979 0 0 0-.083-.026c-.006 0-.011-.004-.016-.004a.082.082 0 0 0-.026-.007c-.032-.008-.064-.016-.097-.022h-.01a1.605 1.605 0 0 0-.128-.02h-.025l-.093-.006h-.057c-.034 0-.066.003-.098.006l-.024.001c-.01 0-.022.004-.031.004l-.084.014c-.01.003-.02.003-.03.004a.144.144 0 0 1-.033.008l-.077.02c-.01.004-.022.006-.031.01a.249.249 0 0 0-.03.01c-.027.009-.053.02-.079.03-.008.005-.019.008-.029.012l-.02.01a.532.532 0 0 0-.092.047c-.005.004-.012.005-.018.008l-.012.007-14.498 8.359a.447.447 0 0 0-.032.022c-.024.016-.05.031-.075.049a.734.734 0 0 0-.052.04.456.456 0 0 0-.055.044l-.059.054c-.015.012-.029.027-.042.042a.783.783 0 0 0-.057.062l-.037.043-.048.067-.035.05c-.013.022-.025.044-.039.065l-.034.059c-.011.02-.02.04-.029.06a.65.65 0 0 0-.03.072l-.022.058-.023.072c-.006.022-.013.045-.017.065a.782.782 0 0 0-.015.071c-.005.024-.008.052-.012.076a.869.869 0 0 0-.011.155v16.789c0 .034.003.067.005.101v.023c0 .01.005.02.006.03l.012.084c0 .01.003.02.006.03.001.011.005.02.008.033a.43.43 0 0 0 .02.075.303.303 0 0 1 .01.034l.01.028.029.08.012.028c.004.006.007.015.01.021.013.032.028.059.045.09l.01.02.009.015a1.578 1.578 0 0 0 .123.178v.003c.03.04.063.075.098.112l.012.012.023.02c.03.03.065.059.098.086.004.001.004.004.007.005l.008.007c.05.04.105.076.162.11l14.498 8.36h.004c.038.024.082.043.123.062.018.008.034.018.052.025.017.007.035.01.052.017.162.059.33.09.495.09h.005c.161 0 .325-.03.48-.086.023-.008.045-.013.065-.021.017-.007.032-.017.048-.023.043-.02.087-.038.125-.063h.004l14.486-8.352.005-.003.007-.006c.01-.004.018-.01.025-.016.033-.02.066-.04.097-.063l.014-.01a.151.151 0 0 0 .025-.02c.038-.028.074-.06.108-.092 0 0 .003 0 .003-.003.049-.046.097-.096.14-.15l.012-.017.012-.018c.03-.04.058-.08.082-.122l.007-.01.007-.009.006-.012a.8.8 0 0 0 .046-.091c0-.004.005-.007.006-.011 0-.003 0-.004.003-.007.015-.035.03-.07.043-.109.002-.004.005-.01.005-.013l.002-.006c.013-.034.022-.068.032-.102 0-.008.004-.016.005-.021 0-.006.003-.01.003-.014.008-.03.014-.063.02-.095 0-.008.005-.018.005-.029 0-.006 0-.013.003-.02l.01-.087.002-.037V18.59l.004-.002Zm-14.496-5.844 11.59 6.684v13.368l-11.59-6.685V12.744Zm-14.5 6.684 11.592-6.684V26.11l-11.592 6.686V19.428Zm13.044 22.566-11.59-6.683 11.59-6.685 11.592 6.685-11.592 6.683Z" fill="#3E5686"/><path d="M70.5 18.588v-.04c0-.028 0-.056-.004-.085a.37.37 0 0 0-.008-.068l-.01-.07-.018-.077-.015-.058a1.007 1.007 0 0 0-.024-.079l-.02-.053-.031-.075c-.01-.02-.02-.038-.028-.057-.01-.022-.024-.042-.034-.062-.012-.022-.026-.043-.038-.063l-.035-.052c-.016-.023-.033-.043-.048-.065a.29.29 0 0 0-.038-.043.803.803 0 0 0-.099-.104l-.059-.054c-.018-.016-.037-.03-.055-.044-.018-.013-.034-.027-.055-.04-.023-.017-.047-.032-.072-.047-.013-.006-.022-.015-.034-.021l-14.5-8.36c-.01-.006-.022-.01-.031-.016l-.033-.02-.039-.02c-.023-.01-.046-.021-.07-.03-.008-.002-.013-.006-.021-.009-.011-.004-.024-.01-.035-.013a.979.979 0 0 0-.083-.026c-.006 0-.011-.004-.016-.004a.082.082 0 0 0-.026-.007c-.032-.008-.064-.016-.097-.022h-.01a1.605 1.605 0 0 0-.128-.02h-.025l-.093-.006h-.057c-.034 0-.066.003-.098.006l-.024.001c-.01 0-.022.004-.031.004l-.084.014c-.01.003-.02.003-.03.004a.144.144 0 0 1-.033.008l-.077.02c-.01.004-.022.006-.031.01a.249.249 0 0 0-.03.01c-.027.009-.053.02-.079.03-.008.005-.019.008-.029.012l-.02.01a.532.532 0 0 0-.092.047c-.005.004-.012.005-.018.008l-.012.007-14.498 8.359a.447.447 0 0 0-.032.022c-.024.016-.05.031-.075.049a.734.734 0 0 0-.052.04.456.456 0 0 0-.055.044l-.059.054c-.015.012-.029.027-.042.042a.783.783 0 0 0-.057.062l-.037.043-.048.067-.035.05c-.013.022-.025.044-.039.065l-.034.059c-.011.02-.02.04-.029.06a.65.65 0 0 0-.03.072l-.022.058-.023.072c-.006.022-.013.045-.017.065a.782.782 0 0 0-.015.071c-.005.024-.008.052-.012.076a.869.869 0 0 0-.011.155v16.789c0 .034.003.067.005.101v.023c0 .01.005.02.006.03l.012.084c0 .01.003.02.006.03.001.011.005.02.008.033a.43.43 0 0 0 .02.075.303.303 0 0 1 .01.034l.01.028.029.08.012.028c.004.006.007.015.01.021.013.032.028.059.045.09l.01.02.009.015a1.578 1.578 0 0 0 .123.178v.003c.03.04.063.075.098.112l.012.012.023.02c.03.03.065.059.098.086.004.001.004.004.007.005l.008.007c.05.04.105.076.162.11l14.498 8.36h.004c.038.024.082.043.123.062.018.008.034.018.052.025.017.007.035.01.052.017.162.059.33.09.495.09h.005c.161 0 .325-.03.48-.086.023-.008.045-.013.065-.021.017-.007.032-.017.048-.023.043-.02.087-.038.125-.063h.004l14.486-8.352.005-.003.007-.006c.01-.004.018-.01.025-.016.033-.02.066-.04.097-.063l.014-.01a.151.151 0 0 0 .025-.02c.038-.028.074-.06.108-.092 0 0 .003 0 .003-.003.049-.046.097-.096.14-.15l.012-.017.012-.018c.03-.04.058-.08.082-.122l.007-.01.007-.009.006-.012a.8.8 0 0 0 .046-.091c0-.004.005-.007.006-.011 0-.003 0-.004.003-.007.015-.035.03-.07.043-.109.002-.004.005-.01.005-.013l.002-.006c.013-.034.022-.068.032-.102 0-.008.004-.016.005-.021 0-.006.003-.01.003-.014.008-.03.014-.063.02-.095 0-.008.005-.018.005-.029 0-.006 0-.013.003-.02l.01-.087.002-.037V18.59l.004-.002Zm-14.496-5.844 11.59 6.684v13.368l-11.59-6.685V12.744Zm-14.5 6.684 11.592-6.684V26.11l-11.592 6.686V19.428Zm13.044 22.566-11.59-6.683 11.59-6.685 11.592 6.685-11.592 6.683ZM32.023 65.572c.124.23.257.402.4.518a.744.744 0 0 0 .482.172.668.668 0 0 0 .438-.142.435.435 0 0 0 .178-.349.599.599 0 0 0-.029-.194.591.591 0 0 0-.096-.168 1.603 1.603 0 0 0-.166-.177 6.207 6.207 0 0 0-.233-.201 44.696 44.696 0 0 1-.662-.562 4.598 4.598 0 0 1-.493-.488 2.047 2.047 0 0 1-.307-.466 1.162 1.162 0 0 1-.107-.495c0-.186.038-.36.115-.52.077-.163.181-.303.314-.423s.29-.214.467-.283c.178-.068.364-.104.562-.104.336 0 .623.08.863.238.24.16.465.362.677.607l-.734.617a2.142 2.142 0 0 0-.407-.367.739.739 0 0 0-.414-.132.499.499 0 0 0-.327.103.325.325 0 0 0-.126.264c0 .058.014.115.041.169a.834.834 0 0 0 .142.187c.067.07.155.152.266.242.11.091.25.203.418.335.183.146.35.285.5.414.152.13.28.264.389.4.108.137.192.283.252.436.06.154.09.33.09.525 0 .22-.04.421-.119.606-.08.184-.19.342-.333.473a1.518 1.518 0 0 1-.514.309c-.2.073-.421.11-.663.11-.39 0-.722-.094-1-.283-.277-.187-.512-.475-.71-.861l.852-.508-.006-.002ZM35.282 67.09v-5.27h1.015v1.982h1.792V61.82h1.015v5.27H38.09v-2.305h-1.792v2.306h-1.015ZM39.917 64.449c0-.392.075-.755.223-1.09.148-.337.348-.627.599-.875a2.795 2.795 0 0 1 1.949-.797c.376 0 .714.07 1.048.21.333.14.627.333.882.58.253.248.456.541.607.881.151.34.226.711.226 1.112 0 .401-.07.748-.215 1.082a2.696 2.696 0 0 1-1.46 1.451 2.74 2.74 0 0 1-1.073.213 2.755 2.755 0 0 1-1.982-.807 2.752 2.752 0 0 1-.588-.881 2.745 2.745 0 0 1-.216-1.08Zm1.022.021c0 .27.047.513.142.73.093.218.22.406.38.562.161.156.348.277.56.363a1.787 1.787 0 0 0 1.351-.013c.21-.093.392-.22.549-.381.155-.162.278-.351.37-.569.092-.217.137-.451.137-.701a1.84 1.84 0 0 0-.493-1.27c-.157-.166-.34-.299-.556-.397a1.67 1.67 0 0 0-.7-.147 1.73 1.73 0 0 0-1.228.503c-.158.16-.283.35-.375.573-.092.223-.137.47-.137.745v.002ZM48.204 64.697v.896h-1.836v-.896h1.836ZM49.597 65.572c.124.23.257.402.4.518a.744.744 0 0 0 .482.172.668.668 0 0 0 .438-.142.435.435 0 0 0 .178-.349.562.562 0 0 0-.03-.194.589.589 0 0 0-.096-.168 1.592 1.592 0 0 0-.166-.177 6.138 6.138 0 0 0-.233-.201 45.171 45.171 0 0 1-.663-.562 4.598 4.598 0 0 1-.492-.488 2.047 2.047 0 0 1-.307-.466A1.162 1.162 0 0 1 49 63.02c0-.186.038-.36.115-.52.077-.163.181-.303.314-.423s.29-.214.466-.283c.179-.068.365-.104.563-.104.336 0 .622.08.862.238.24.16.465.362.678.607l-.734.617a2.142 2.142 0 0 0-.407-.367.739.739 0 0 0-.414-.132.499.499 0 0 0-.327.103.325.325 0 0 0-.126.264c0 .058.014.115.041.169a.834.834 0 0 0 .141.187c.068.07.155.152.267.242.11.091.25.203.418.335.182.146.35.285.5.414.151.13.28.264.389.4.108.137.191.283.252.436.059.154.089.33.089.525 0 .22-.04.421-.118.606-.08.184-.19.342-.333.473a1.517 1.517 0 0 1-.515.309c-.2.073-.42.11-.662.11-.39 0-.723-.094-1-.283-.277-.187-.513-.475-.71-.861l.852-.508-.005-.002ZM52.856 67.09v-5.27h2.903v.976h-1.888v.962h1.888v.954h-1.888v1.395h1.888v.984h-2.903ZM56.7 67.09v-5.27h1.015v2.056l1.533-2.056h1.142l-1.852 2.466 2.007 2.805h-1.148l-1.682-2.364v2.364H56.7ZM61.016 67.09v-5.27h1.015v2.056l1.534-2.056h1.14l-1.851 2.466 2.007 2.805h-1.148l-1.682-2.364v2.364h-1.015ZM65.334 67.09v-5.27h2.903v.976H66.35v.962h1.888v.954H66.35v1.395h1.888v.984h-2.903ZM69.183 61.82h1.015v5.27h-1.015v-5.27Z" fill="#3E5686"/></g></g><g clip-path="url(#c)"><path d="M153.21 62.801c.091-.043.195-.056.279-.129.163.207.226.452.372.707v-.345h2.775v.937c-.185.094-.395.025-.604.05v-.489h-1.582v.206l.052.052c.074 0 .164.008.251-.002.091-.01.162.073.27.027-.018.205.019.39-.03.584-.036.143-.049.295-.086.441a2.48 2.48 0 0 1-.202.507c-.103.209-.274.358-.415.533h-.038c-.181-.1-.38-.177-.508-.387.407-.395.67-.848.647-1.423-.203-.097-.465.061-.602-.163-.071-.021-.129.005-.186-.011-.109-.041-.193-.194-.342-.078-.051.072-.035.157-.035.237-.002.518 0 1.036-.003 1.554 0 .098.022.208-.09.271h-.54c-.045-.051-.039-.112-.039-.174v-1.871l-.808.076c.014-.105-.055-.19-.042-.29.014-.093-.086-.17-.016-.278h.259c.156-.153.276-.325.411-.484l-.703-.69c.079-.191.207-.357.299-.544h.082l.147.158c.194-.259.345-.531.508-.803.062-.027.109.028.163.048.116.046.214.13.345.146.018.042.014.075-.016.117-.123.17-.239.346-.36.518-.087.124-.176.246-.261.364.028.082.09.142.169.21.232-.258.422-.548.626-.845.152.048.273.187.466.203.009-.112 0-.223.005-.34h1.016l.068-.067v-.277h.606v.273c.012.012.016.018.021.02a.03.03 0 0 0 .016.007h1.122v.528h-1.146v.345h.956v.527h-2.495v-.52h.908v-.343h-1.062c-.234.276-.474.57-.704.87-.062.188-.233.3-.343.477a.852.852 0 0 0 .408-.05c.019-.122-.097-.2-.085-.305.004-.067.067-.056.097-.084h-.001Z" fill="#0068B6"/><path d="M104.012 63.561h-.717c-.032.052-.012.109-.015.164-.004.055-.001.112-.001.174h2.075v.488l-.049.048h-1.559c.179.136.671.403.816.457.294.111.585.23.879.344a2.694 2.694 0 0 1-.414.457 7.305 7.305 0 0 1-1.743-.94v1.026l-.059.058h-.594v-.992c-.03-.044-.066-.025-.09-.03a5.804 5.804 0 0 1-.818.496c-.274.144-.558.263-.851.384-.123-.13-.213-.291-.371-.387v-.114c.077.02.154-.018.211-.045.333-.157.687-.264 1.009-.445.145-.082.288-.169.434-.249-.001-.002-.002-.008-.005-.01-.004-.005-.01-.01-.015-.01h-1.51v-.529h1.99v-.343h-.718v-2.052h.597c.093-.156.13-.332.214-.5.11.019.216-.011.33.034.089.034.202.007.309.007.037.167-.059.3-.098.456h.763c.038.085.017.174.017.261.002.535.003 1.071 0 1.606 0 .062.016.126-.018.185l.001.001Z" fill="#E95413"/><path d="M139.82 65.88c-.045-.052-.039-.113-.039-.174v-.987c0-.042.016-.087-.025-.143-.127.419-.248.829-.497 1.2-.123-.191-.292-.332-.448-.492.034-.124.09-.24.143-.358.073-.162.131-.328.172-.5.068-.284.092-.573.124-.862.04-.345.01-.687.029-1.029a.152.152 0 0 1 .064-.04c.255-.043.513-.018.768-.02a68.12 68.12 0 0 1 1.213 0c.094 0 .194-.011.287.074.004.504.004 1.02 0 1.53-.076.053-.148.032-.216.032-.461.002-.923 0-1.385.001-.067 0-.145-.022-.189.058-.002.047.015.1-.037.134l.055.055h1.889c.005.005.011.008.015.013.003.004.006.01.006.017v1.245c-.075.06-.155.057-.236.057-.366-.002-.732 0-1.11 0-.008.064.007.136-.042.19h-.54l-.001-.001Z" fill="#0068B6"/><path d="M153.133 65.88c.045-.052.039-.113.039-.175v-1.933c.095-.08.21-.055.327-.06l.069.143c.108.058.184-.052.281-.07.037.063-.002.129.031.192h.585c.027.047.032.083-.006.123-.033.035-.011.084-.014.127a1.77 1.77 0 0 1-.376.985 1.187 1.187 0 0 1-.289.272c.047.114.159.14.237.204.077.065.189.089.235.191h-1.119Z" fill="#FEFEFE"/><path d="M100.5 63.105c.148-.075.291-.16.444-.224.161-.069.3-.172.448-.26.052-.03.105-.056.166-.093l.218.435c-.005.075-.049.099-.082.123-.258.19-.513.384-.789.547-.028.017-.075.003-.114.003-.091-.167-.175-.34-.291-.493v-.038Z" fill="#E95414"/><path d="M141.016 37.26a.453.453 0 0 0-.197.036c-.124.054-.256.09-.384.138-.177.067-.35.144-.529.205-.263.09-.524.19-.785.287-.155.057-.31.117-.467.171-.146.05-.292.099-.435.154-.211.08-.416.174-.637.226-.021-.089.051-.123.105-.163.94-.705 1.882-1.409 2.824-2.111.718-.534 1.422-1.085 2.147-1.61.041-.03.086-.056.11-.119-.444-.757-.906-1.513-1.198-2.391-2.63.696-5.195 1.475-7.767 2.182-.027.167.034.276.075.387.416 1.14.901 2.248 1.525 3.293.186.31.382.615.582.917.043.064.113.13.053.222-.125-.005-.233.057-.345.097-.19.068-.377.14-.567.208-.241.085-.479.176-.718.265-.166.063-.329.134-.499.188-.125.04-.247.087-.369.132-.234.087-.472.162-.702.254-.242.096-.491.177-.732.277-.153.063-.31.12-.466.175-.128.047-.259.087-.387.135-.183.067-.365.139-.548.207-.239.09-.478.178-.717.266-.156.057-.312.112-.468.17-.206.075-.414.146-.617.228-.313.127-.645.206-.947.361-.144.001-.254.107-.393.122-.006 0-.009.02-.014.032-.038.072-.018.149-.018.224-.002 4.585-.001 9.17-.002 13.756 0 .075.012.152-.011.226-.05.045-.111.027-.166.027h-9.973c-.057 0-.116.014-.17-.018V45.99l-.511.191c-.178.067-.353.14-.534.197-.126.039-.248.087-.369.133-.15.056-.3.116-.45.17-.15.053-.305.103-.452.163-.285.117-.58.212-.866.323-.259.1-.525.192-.788.284-.246.086-.492.175-.733.275-.153.064-.31.12-.466.176-.128.046-.259.087-.387.134-.177.067-.351.145-.53.206-.264.091-.526.187-.786.289-.171.067-.352.11-.523.178-.209.084-.423.156-.632.24-.275.11-.553.218-.832.313-.371.126-.74.263-1.107.397-.35.128-.699.264-1.048.397a21.27 21.27 0 0 1-.906.323 9.468 9.468 0 0 0-.733.275c-.153.065-.31.118-.467.175-.128.046-.258.087-.386.136-.178.066-.351.143-.531.205-.264.091-.523.192-.786.287-.14.05-.277.106-.418.154-.208.07-.41.157-.619.224-.091.028-.169.09-.268.097-.043.004-.055-.021-.056-.057-.002-.064-.001-.127-.001-.19V11.518c0-.08-.013-.163.011-.242.051-.047.112-.028.166-.028h9.974c.057 0 .116-.014.169.018v26.67c.093.035.16-.027.23-.05.187-.06.367-.136.55-.205.239-.09.479-.178.718-.266l.469-.17.617-.228c.312-.116.62-.238.934-.347.375-.132.751-.266 1.123-.404.249-.092.512-.159.744-.296.17-.016.311-.118.481-.16V11.265c.06-.034.126-.018.189-.018h9.915c.064 0 .127-.007.191.01.049.078.026.162.026.242.001 6.758 0 13.515.004 20.272 0 .067-.066.167.055.208.13-.024.249-.083.37-.128.172-.063.345-.126.516-.193.205-.08.413-.148.617-.23.313-.126.635-.232.95-.352.259-.099.525-.19.788-.282.245-.087.492-.172.732-.275.152-.066.31-.118.466-.174.129-.047.263-.081.385-.139.108-.05.228-.068.334-.124.041-.021.075-.035.09-.08.124.034.108.148.117.231.023.227.038.455.066.68.08.66.201 1.314.36 1.96.014.056.021.114.072.151.215-.016 7.579-2.07 7.742-2.204-.114-.848-.265-1.708-.215-2.585a1.37 1.37 0 0 0-.465-.074c-.637-.016-1.263-.142-1.899-.162-.058-.002-.137.006-.144-.087a.815.815 0 0 0 .424-.09c.15-.07.307-.127.466-.173.125-.038.248-.087.369-.131.172-.064.344-.126.515-.193.205-.079.413-.146.614-.233.038-.016.112.026.12-.053.049-.095.146-.094.231-.115.141.018.261-.053.384-.097.19-.067.377-.14.567-.208.118-.042.239-.078.351-.128.238-.107.488-.182.73-.28.167-.069.345-.125.519-.184.202-.069.406-.134.603-.215.378-.157.765-.29 1.147-.434.259-.098.524-.189.786-.283.25-.09.501-.182.748-.28.137-.056.278-.104.418-.154.246-.086.491-.175.735-.267.276-.105.552-.217.832-.311.371-.126.726-.293 1.108-.388.232-.135.498-.19.742-.297.199-.087.417-.136.615-.233.025-.013.063-.002.095-.002.036.066.019.137.019.205v9.775c0 .069.017.14-.019.205-.042.006-.081-.003-.125.024-.07.041-.153.061-.231.09l-.716.266-.517.19c-.139.05-.278.1-.417.153-.166.062-.329.135-.499.187-.125.038-.237.115-.373.12-.227.13-.483.199-.726.286-.301.109-.601.222-.904.325-.25.086-.5.18-.748.28-.147.06-.297.117-.449.169-.264.09-.522.192-.783.288-.156.057-.31.12-.468.168-.125.04-.239.107-.369.132-.016.003-.028.025-.041.038.008.023.043.029.037.06-.094.05-.121-.04-.17-.08-.189-.16-.308-.389-.53-.538-.217.118-.401.275-.593.419-.534.404-1.078.795-1.599 1.217a.467.467 0 0 1-.351.121l-.003-.002Z" fill="#C69F62"/><path d="M144.219 52.16c-.036-.396-.153-.758-.478-1.019a1.422 1.422 0 0 0-.496-.239c-.289-.086-.582-.084-.874-.066a1.828 1.828 0 0 0-.321.055c-.189.046-.356.135-.524.22a1.162 1.162 0 0 0-.363.323 1.077 1.077 0 0 0-.189.396c-.031.117-.034.23-.034.346v4.203h-2.74c-.032-.053-.018-.112-.018-.167v-9.67c0-.049-.011-.1.012-.146.03-.04.071-.03.108-.031h2.527c.038 0 .077-.006.111.018v3.841c.051-.034.1-.039.134-.076.253-.272.604-.39.919-.564.252-.055.486-.166.745-.204.24-.035.478-.079.721-.072a.292.292 0 0 0 .123-.027.293.293 0 0 1 .206-.005c.124.054.249.019.372.034.078.01.157-.023.238.032.061.04.163-.03.232.043.217-.002.413.082.61.155.24.09.476.196.677.36.067.053.142.096.206.156.262.246.458.532.61.854.068.147.107.299.15.452.063.22.058.447.086.67.034.263.022.523.028.784.007.26.002.519.002.779v2.783h-2.74c-.036-.066-.018-.136-.019-.205-.001-1.27 0-2.54-.002-3.81 0-.067.019-.139-.019-.204Z" fill="#000"/><path d="M147.656 46.805c-.128-.056-.284-.03-.408-.119-.154.03-.28-.082-.431-.08-.073 0-.145-.056-.219-.07-.137-.025-.257-.099-.395-.115-.133-.016-.253-.072-.375-.117-.197-.07-.407-.104-.593-.194-.121-.057-.251-.075-.368-.134a3.299 3.299 0 0 0-.345-.142c-.155-.058-.298-.145-.466-.18-.093-.019-.176-.095-.268-.139-.038-.018-.067-.053-.116-.045a.08.08 0 0 1-.083-.032c-.035-.045-.09-.064-.14-.08-.211-.066-.38-.224-.601-.269-.04-.057-.109-.076-.164-.112-.131-.085-.293-.122-.399-.259.105-.216.255-.41.377-.62.054-.092.121-.178.166-.274.033-.07.105-.106.128-.193.021-.076.103-.143.146-.224.039-.073.086-.143.13-.213l.293-.469c.179-.282.36-.563.538-.845.092-.145.181-.293.272-.44.113-.181.225-.364.342-.543.141-.216.253-.45.422-.645-.001-.125.118-.178.165-.275.045-.096.107-.185.163-.275l.452-.727c.094-.152.188-.304.284-.454.108-.171.224-.338.323-.514.028-.05.063-.09.102-.134h.153c.029.021.061.052.099.071.153.08.318.134.462.23.047.03.101.035.152.05.076.022.139.069.209.1.065.03.136.041.202.071.14.064.286.122.436.154.148.031.284.092.431.126.165.039.338.072.504.159 0 .09-.061.18-.039.278-.074.153-.01.338-.114.485.003.098-.02.192-.035.288a1.97 1.97 0 0 1-.073.313.308.308 0 0 0-.007.148c.013.058-.043.082-.045.136-.004.09-.037.176-.037.269-.001.083-.027.167-.042.249a3.954 3.954 0 0 1-.091.399c-.025.086-.013.177-.054.262-.029.06.022.137-.025.2-.041.054.013.132-.03.176-.056.055.015.144-.065.184.027.192-.092.364-.08.558.004.074-.023.156-.042.23-.046.18-.066.364-.113.541-.061.232-.051.476-.15.698.006.184-.08.353-.083.538-.002.147-.058.293-.083.44-.018.11-.038.224-.069.332-.067.23-.046.477-.152.698.022.155-.063.294-.075.444-.004.052-.033.075-.077.104l.001.001Z" fill="#CB1274"/><path d="M136.039 39.085c.018-.055-.023-.099-.045-.133-.124-.198-.26-.389-.391-.582a.795.795 0 0 1-.066-.106c-.088-.182-.221-.337-.304-.522-.012-.026-.033-.048-.046-.076a3.228 3.228 0 0 0-.192-.34c-.046-.07-.055-.158-.104-.222a.929.929 0 0 1-.121-.217c-.044-.105-.103-.2-.156-.298a1.814 1.814 0 0 1-.127-.309c-.061-.19-.201-.35-.222-.555-.118-.16-.137-.363-.234-.531-.045-.08-.062-.165-.089-.249-.058-.172-.153-.332-.179-.516-.074-.052-.018-.13-.05-.202.082-.012.155-.008.222-.044.11-.06.236-.087.357-.112.161-.032.32-.061.466-.132.073-.035.152-.034.226-.059.107-.036.219-.05.326-.097.103-.045.216-.066.326-.096.167-.045.349-.04.497-.148.164-.014.314-.079.472-.113.049-.011.091-.032.137-.044.192-.05.389-.085.571-.156.175-.07.364-.086.533-.153.258-.103.536-.126.794-.223.185-.07.38-.107.57-.158.124-.034.244-.09.372-.122.274-.067.541-.154.815-.22.188-.046.392-.062.561-.178.039-.028.098-.017.143-.023.163-.018.31-.119.483-.095.114.135.15.306.204.466.073.214.166.416.295.602.036.052.041.123.071.18.097.176.199.35.299.524.032.056.069.11.094.17.074.182.195.331.328.48-.019.09-.116.101-.174.15-.124.105-.265.19-.399.285-.225.158-.444.327-.655.502-.241.2-.523.348-.745.573-.128.046-.194.177-.332.221-.08.025-.139.117-.216.17-.269.19-.514.413-.795.589-.111.145-.283.219-.424.329-.118.092-.253.172-.362.273-.124.114-.278.18-.401.294-.109.104-.252.173-.364.274-.136.121-.316.189-.426.34-.105.07-.204.151-.316.211-.115.063-.208.152-.303.234-.187.16-.397.291-.582.453-.029.026-.062.005-.09.014-.099-.09-.12-.242-.251-.305l-.001.002Z" fill="#CA942C"/><path d="M148.85 46.973c-.01-.105.03-.212.054-.313.021-.086.028-.175.055-.262.024-.077.035-.167.053-.247.036-.168.013-.349.103-.507.01-.02.008-.05.004-.074-.021-.126.062-.239.039-.364.096-.116.078-.253.077-.387.083-.082-.007-.21.077-.292-.026-.107.025-.208.045-.305.044-.206.072-.414.117-.617.043-.195.049-.403.144-.585-.023-.113.049-.216.039-.326a.6.6 0 0 1 .062-.298c.038-.083-.012-.166.043-.25a.533.533 0 0 0 .056-.244c.007-.095.018-.196.041-.286.024-.091-.002-.197.069-.275-.019-.18.121-.336.077-.52.064-.161.031-.346.116-.503-.023-.168.065-.318.086-.48.021-.169.026-.346.105-.505-.022-.107.053-.2.04-.317.157-.036.305.062.46.031.158-.031.31.037.466.037h.482c.15 0 .298-.006.448-.032.156-.026.33.027.478-.015.152-.043.314.02.45-.068.054.025.074.062.073.12-.002.243.093.47.125.708.002.016.03.034.026.045-.029.103.047.19.04.289-.007.118.058.225.063.333.006.18.108.335.096.516-.006.081.029.165.042.249.012.071.03.149.054.223.03.095.037.2.05.301.01.084.037.166.051.248.015.085-.003.187.038.247.054.08-.018.182.069.24-.009.166.05.323.083.48.04.187.043.38.109.562.022.063-.029.138.027.198-.007.172.083.325.094.495.01.16.036.325.09.475.034.094-.022.202.06.28-.005.177.092.34.077.519.051.064.01.16.045.207.056.075-.002.16.055.227.05.058-.024.152.054.206-.026.107.059.202.037.306-.014.068.049.11.044.175-.004.051-.014.105.025.16.026.038.005.108.005.162-.065.02-.121.048-.193.053-.238.016-.48.014-.706.108-.017.007-.038.004-.056.003-.229-.02-.45.067-.679.038-.423.081-.85.027-1.276.036-.424.01-.848.002-1.273.003-.195 0-.386-.066-.582-.038-.105-.059-.22-.038-.331-.037-.059 0-.094-.053-.158-.043-.051.009-.106.013-.162-.026-.038-.027-.111-.01-.169-.007-.081.003-.161.002-.234-.056h.001Z" fill="#E06814"/><path d="M141.209 26.922c-.014.052-.047.085-.101.074-.054-.01-.089.023-.13.04-.06.018-.096-.049-.158-.04-.056.009-.116-.002-.173.003-.083.009-.157-.018-.236-.037-.076-.02-.16.02-.237-.036-.029-.022-.087-.006-.132-.003-.286.017-.566-.067-.852-.039-.106-.05-.225-.017-.33-.043-.162-.039-.329-.005-.486-.038-.252-.053-.506-.052-.758-.08-.189-.02-.376-.021-.564-.028-.081-.003-.149-.053-.235-.042-.077.01-.159.017-.236-.031-.032-.02-.089-.009-.133-.002-.165.021-.321-.06-.485-.04-.111-.067-.234-.03-.351-.037-.239-.012-.476-.06-.717-.039-.105-.058-.225-.014-.329-.043-.15-.041-.299-.033-.448-.03-.066.001-.109-.055-.178-.044-.051.008-.116.027-.159-.033-.004-.006-.023-.002-.036-.002-.129 0-.258-.004-.386.002-.12.005-.228-.074-.346-.036l-.055-.055c-.031-.092.021-.17.033-.253.011-.083-.033-.175.038-.25-.026-.107.053-.201.04-.308-.004-.035.014-.068.025-.102a.803.803 0 0 0 .056-.265c0-.1.041-.198.058-.297.027-.17.063-.338.129-.5.019-.048-.024-.113.035-.155-.009-.124.059-.23.08-.347.02-.119.09-.223.106-.336.036-.243.136-.467.213-.694.097-.288.2-.575.317-.858.089-.216.217-.42.254-.656.1-.129.124-.292.205-.435h.12c.058.077.166.097.256.14.093.048.182.116.293.127.061.097.179.095.268.144.094.052.183.114.283.152.095.037.184.083.273.132.092.052.194.09.289.137.091.044.183.084.277.122.099.04.204.068.292.132a.57.57 0 0 0 .294.13l.092.111c.113-.018.174.09.281.072l.095.112c.129.002.207.087.309.099.084.108.22.118.334.17.015.008.036 0 .05.018.092.107.225.134.351.174a.102.102 0 0 1 .032.015c.183.136.417.18.601.318.025.019.068.043.113.05a.48.48 0 0 1 .225.102c.054.044.11.069.176.087.073.02.144.058.207.102a.498.498 0 0 0 .177.089.598.598 0 0 1 .207.1.52.52 0 0 0 .194.091.611.611 0 0 1 .204.11.33.33 0 0 0 .161.076c.018.002.034.002.052.015.182.138.417.18.599.32.049.038.122.046.182.07.039.016.088.018.104.072.01.04-.017.075-.027.113-.065.233-.205.44-.257.673-.042.187-.156.348-.173.539-.088.058.01.176-.077.234.006.105-.074.187-.08.292-.004.1-.059.197-.067.291-.01.129-.067.252-.046.383l-.002.001Z" fill="#0E6FAC"/><path d="M158.981 11.605h.104c.108.106.262.127.396.191.133.064.269.126.4.194.127.066.256.124.384.188.133.065.248.166.417.194.075.089.184.152.311.184.006.001.016-.003.019 0 .102.118.265.147.379.247.023.02.039.045.072.058.171.064.299.203.464.273.131.057.23.152.342.227.125.084.269.144.374.256.013.015.025.035.041.04.085.02.162.05.185.146.112.014.168.116.262.158.038.017.057.048.085.072.179.15.357.3.551.431.054.037.089.1.131.151.006.008 0 .025 0 .052-.094.06-.124.19-.245.246-.067.03-.083.114-.111.18-.012.004-.027.003-.034.011-.082.093-.176.174-.262.263-.041.042-.066.095-.13.12-.038.014-.085.052-.094.087-.01.042-.059.065-.048.12-.12.019-.12.166-.215.203-.115.046-.134.169-.226.233-.082.057-.102.181-.217.21-.01.127-.155.136-.208.234-.049.089-.144.149-.205.239-.062.093-.159.164-.241.245l-.233.23v.07c-.028.048-.081.057-.118.087-.035.03-.048.09-.085.113-.091.056-.151.136-.214.216-.065.082-.172.129-.204.24-.136.022-.13.207-.268.226-.035.104-.148.15-.19.245-.018.038-.047.057-.07.086-.031.039-.095.053-.114.084a.765.765 0 0 1-.087.115c-.075.082-.164.15-.221.25-.052.09-.155.141-.21.238-.025.042-.092.075-.141.109-.044.03-.025.117-.105.108-.075.124-.196.21-.281.323-.034.045-.057.081-.11.105a.208.208 0 0 0-.089.095c-.038.077-.103.133-.154.2a.94.94 0 0 1-.187.17c-.072.053-.099.155-.197.209h-.084c-.708-.565-1.477-1.013-2.276-1.406.007-.132.059-.234.098-.337.114-.301.257-.593.361-.897.112-.328.252-.645.369-.97.042-.116.102-.228.131-.344.019-.079.11-.114.092-.215-.012-.065.043-.143.071-.214.028-.07.066-.138.09-.21.064-.195.135-.39.224-.573.115-.235.169-.488.279-.722.053-.111.103-.226.135-.343.012-.047.026-.102.048-.132.104-.137.122-.306.183-.458.028-.07.063-.14.089-.211.049-.138.078-.288.153-.411.066-.11.086-.232.142-.343a1.5 1.5 0 0 0 .134-.343c.039-.18.187-.322.181-.516.088-.088.065-.23.175-.324l.002-.003Z" fill="#CDA10E"/><path d="M138.604 15.255h.077c.043.09.119.143.197.204.073.058.124.151.196.22.068.065.088.178.202.199.032.11.13.166.207.237.075.069.103.175.19.226.088.051.083.179.199.208.099.025.089.175.209.201.029.048.025.133.115.149-.006.089.12.063.131.153.008.06.087.097.15.125.03.013.027.061.044.074.1.08.14.214.245.278.105.064.135.203.264.234.01.002.018.015.024.025.034.056.063.115.102.167.033.045.082.08.122.117.202.183.351.413.557.59.083.07.108.194.228.23.014.003.033.03.031.041-.017.088.076.105.111.157.022.032.08.042.088.1.003.02.031.04.052.053.138.085.222.218.311.345.026.035.065.06.094.095.025.029.098.009.08.078.236.238.445.5.697.722.016.015.043.018.065.028.022.035-.009.085.04.118.046.032.083.079.124.12.147.146.303.283.42.469-.004.015.022.057-.01.073-.117.055-.144.21-.281.24-.027.123-.176.156-.21.277-.007.026-.039.048-.064.068-.128.103-.212.246-.321.365-.073.081-.123.19-.193.28-.05.064-.094.133-.16.186-.04.032-.047.099-.076.13-.106.112-.162.254-.25.377-.048.066-.105.117-.153.183-.46-.227-.909-.46-1.368-.668-.194-.089-.368-.22-.579-.27-.066-.016-.094-.076-.153-.097a3.449 3.449 0 0 1-.481-.23c-.084-.046-.179-.06-.258-.127-.063-.053-.147-.106-.245-.1-.281-.206-.614-.316-.917-.48-.297-.162-.601-.31-.913-.442-.192-.08-.355-.22-.566-.26-.177-.147-.401-.21-.599-.32-.118-.066-.254-.103-.37-.171-.159-.095-.355-.122-.489-.26-.094.014-.154-.061-.235-.085a.325.325 0 0 1-.18-.143c.112-.154.195-.33.291-.5.096-.17.229-.32.325-.535.103-.099.166-.274.279-.416.132-.166.247-.344.379-.511.157-.2.316-.401.466-.607.079-.109.156-.217.246-.318.119-.132.25-.253.34-.408.012-.021.037-.035.053-.054.324-.374.687-.71 1.037-1.059l.083-.081Z" fill="#52AA34"/><path d="M166.364 40.062v.147c-.092.094-.21.188-.266.329-.007.018-.017.03-.04.029-.038-.002-.047.04-.073.054-.064.034-.018.121-.082.158-.044.025-.094.033-.119.099a.256.256 0 0 1-.176.153c-.026.052-.031.126-.084.152-.057.03-.075.086-.118.122-.093.077-.168.175-.261.248-.063.05-.101.113-.157.165-.055.051-.124.084-.166.155-.024.042-.061.093-.129.102-.023.002-.053.04-.058.065a.125.125 0 0 1-.067.086c-.071.039-.133.08-.162.16a.098.098 0 0 1-.053.053c-.092.026-.134.114-.204.153-.085.05-.134.131-.212.182-.11.071-.19.176-.292.257-.107.085-.218.166-.319.26-.056.053-.123.1-.183.151h-.078c-.009.062-.051.116-.097.13-.11.033-.165.136-.27.176-.098.036-.154.137-.245.194-.054.034-.146 0-.16.076-.013.07-.079.064-.111.104-.003.004-.011.002-.034.005-.079-.045-.089-.166-.179-.206-.003-.043 0-.075-.028-.11-.136-.175-.246-.367-.36-.556a15.724 15.724 0 0 0-.421-.663c-.07-.104-.125-.217-.19-.323-.099-.164-.234-.304-.313-.48-.009-.02-.031-.033-.042-.058-.096-.218-.26-.397-.37-.609-.082-.158-.194-.3-.282-.455-.043-.075-.084-.148-.152-.204-.001-.126-.103-.201-.164-.293-.073-.11-.106-.249-.21-.304-.039-.16-.169-.234-.215-.36-.042-.117-.147-.198-.193-.32-.045-.12-.131-.226-.2-.336-.067-.106-.137-.21-.205-.316-.07-.11-.142-.22-.207-.333-.062-.109-.136-.209-.199-.317a6.256 6.256 0 0 0-.208-.335l-.21-.329c.342-.294.721-.551 1.045-.873.325-.323.662-.636.948-1.009.153.075.289.177.412.307l.07.004c.054.004.023.06.055.086.035.027.078.032.112.06.061.05.069.042.099.099a1.6 1.6 0 0 1 .435.32l.09.01c.017.026.008.063.041.08.048.024.09.056.145.07.051.012.044.089.085.108.216.1.377.27.561.41.019.016.037.044.057.046.091.005.114.11.195.126.098.02.137.114.224.155.075.035.125.123.179.18h.087c.025.015.01.045.02.052.246.151.462.34.689.515.012.01.038.001.057.001.044.015.011.073.056.09.05.017.091.054.146.067.053.012.04.09.086.109.192.077.322.236.489.348.055.036.108.083.168.106.056.02.081.05.089.104.071.032.144.06.201.12.054.057.133.086.189.146.058.062.15.091.2.164.044.064.139.045.182.127.033.063.14.06.192.125.05.062.144.076.187.149.044.074.141.073.191.126.058.061.131.093.195.14.063.048.111.112.187.152.068.035.108.118.195.123l.005-.001Z" fill="#EEB61A"/><path d="M141.016 37.26c.069-.02.12-.073.199-.08.047-.004.097-.04.139-.078.218-.197.464-.36.693-.542.192-.153.391-.297.586-.444.158-.117.292-.276.489-.34.068-.128.231-.148.308-.265.033-.05.101-.038.139-.096.107.136.237.222.323.358.083.129.237.204.309.348h.057c.045.051.081.104.151.136.073.033.107.118.175.171.24.185.472.38.704.577.052.044.134.03.172.112.024.052.11.07.149.13-.003.032.016.083-.029.096-.083.026-.003.164-.119.16-.045.19-.22.308-.281.494-.022.07-.099.12-.138.188-.039.067-.057.147-.125.194-.045.031-.034.094-.08.12.032.09-.084.118-.083.195-.087.017-.085.1-.121.156-.05.075-.074.165-.148.226-.034.029-.05.08-.073.122-.032.057-.048.124-.107.165-.048.034-.087.098-.08.135.017.09-.096.103-.084.178-.102.02-.116.12-.141.186-.039.101-.119.167-.168.255-.049.089-.079.19-.166.256-.015.011-.022.026-.028.046-.066.196-.221.338-.313.518-.08.155-.174.3-.285.435-.034.04-.012.11-.057.147-.099.084-.141.208-.216.308a1.118 1.118 0 0 0-.153.26c-.025.065-.097.11-.127.173-.034.072-.091.128-.123.197-.035.075-.129.12-.113.224-.113.08-.158.21-.229.321-.148.23-.282.468-.425.7-.094.151-.193.3-.286.442-.107-.01-.151-.104-.239-.117-.192-.181-.442-.284-.635-.468-.081-.077-.185-.14-.282-.198-.096-.058-.17-.138-.259-.202-.109-.078-.211-.177-.321-.255-.163-.116-.279-.281-.452-.386-.091-.055-.157-.148-.234-.225-.08-.078-.175-.143-.252-.22-.076-.077-.167-.136-.237-.22-.068-.082-.152-.153-.229-.229-.082-.08-.16-.165-.247-.241-.095-.084-.147-.199-.242-.283-.088-.078-.163-.17-.24-.26-.102-.117-.194-.245-.309-.35-.061-.056-.095-.125-.137-.19.109-.083.208-.162.31-.236.172-.126.334-.262.519-.37.09-.053.154-.14.244-.199.2-.128.391-.272.575-.42.172-.138.358-.258.532-.394.26-.203.516-.41.786-.6.2-.14.399-.287.589-.445.113-.095.231-.195.368-.263.04-.02.087-.055.097-.11v-.002Z" fill="#EA9D1A"/><path d="M138.469 27.91c-.003.038.024.038.05.038.09 0 .181.005.27 0 .177-.011.346.067.524.039.098.062.211.015.311.041.149.039.304.007.445.042.165.04.326.028.487.027.079 0 .137.055.216.044.075-.01.153-.002.221-.002.087.05.082.138.056.189-.049.098-.03.194-.032.29-.007.288.065.57.037.858.073.113-.001.256.077.368.003.004.001.013 0 .018-.024.157.03.306.046.458.017.176.032.358.109.524-.052.107-.173.12-.262.137-.218.045-.423.132-.637.18-.135.031-.271.063-.402.105-.132.042-.265.074-.398.107a1.416 1.416 0 0 0-.304.103c-.125.063-.275.084-.413.113-.138.028-.264.077-.394.121-.109.037-.226.039-.336.071-.045.014-.095.019-.136.044-.104.065-.227.082-.34.107a6.166 6.166 0 0 0-.552.157c-.182.058-.375.082-.552.155-.185.075-.383.1-.575.143-.148.033-.284.095-.43.13-.113.028-.232.044-.345.092-.1.042-.218.067-.326.098-.153.043-.314.06-.463.137-.129.067-.286.084-.432.115-.159.035-.309.092-.461.144-.046.015-.087.005-.129.014-.085-.097-.056-.227-.099-.337-.019-.048-.016-.102-.037-.155-.041-.11-.055-.23-.082-.347-.044-.198-.064-.401-.108-.6-.022-.104-.071-.211-.046-.325-.069-.112-.009-.244-.054-.358-.046-.117.006-.239-.027-.35a1.136 1.136 0 0 1-.032-.384c.003-.055-.049-.083-.044-.136.003-.04.022-.089-.018-.124-.003-.003-.012 0-.018 0 .021-.212-.053-.417-.042-.63.012-.22.003-.442.003-.663v-.853c0-.064-.024-.144.006-.186.049-.068.021-.132.038-.215.101 0 .208-.004.315.002.098.005.202-.03.292.037.146-.028.281.05.427.04.265-.022.526.063.792.036.085.048.18.04.272.037.088-.002.161.055.255.042a.81.81 0 0 1 .287 0c.187.045.375.032.563.033.069 0 .119.06.196.042.057-.013.123-.015.178.033.013.013.05.005.075.002.215-.027.429.017.637.047.17.024.34.003.504.033.175.032.353.01.523.042.106.02.209.02.313.03h.001Z" fill="#3C7536"/><path d="m157.595 46.224-.08.079h-.155l-.081.08c-.115-.032-.22.068-.339.033-.031.028-.064.08-.085.075-.071-.016-.113.042-.178.046-.162.01-.317.066-.472.111-.017.005-.029.024-.04.033-.105.023-.217-.031-.317.037-.042-.03-.064-.07-.053-.126.011-.051-.056-.082-.038-.136.023-.072-.046-.124-.04-.194.005-.059.016-.122-.035-.176-.013-.014-.001-.05-.002-.074-.001-.073.009-.146-.038-.213-.075-.104-.024-.234-.071-.35a.493.493 0 0 1-.048-.267c.016-.085-.059-.16-.038-.251.015-.066-.033-.127-.046-.191-.013-.065 0-.151-.035-.19-.055-.061-.008-.133-.054-.19-.043-.057.005-.14-.02-.2-.061-.146-.009-.313-.102-.453-.024-.036-.018-.1-.009-.146.012-.057-.043-.083-.046-.137-.004-.089-.035-.176-.037-.27-.001-.082-.027-.166-.04-.25-.029-.186-.083-.369-.133-.552-.006-.023-.013-.045-.016-.069-.012-.066.024-.136-.021-.2-.045-.066.018-.158-.031-.213-.051-.058.017-.145-.063-.185.01-.172-.055-.334-.084-.5-.027-.156-.004-.328-.096-.471a.074.074 0 0 1-.012-.052c.015-.088-.021-.168-.039-.25a2.885 2.885 0 0 1-.076-.54c-.001-.033-.023-.056-.031-.081a2.418 2.418 0 0 1-.084-.365c-.025-.192-.091-.379-.079-.576.002-.032-.05-.042-.034-.092.126-.06.254-.124.41-.137.09-.008.181-.059.27-.09.057-.02.133.018.173-.046.038-.062.099-.04.153-.05.054-.009.07-.093.142-.074.122-.09.303-.053.405-.184.058.01.101-.036.155-.044.018-.002.04 0 .053-.01.104-.083.235-.114.35-.178.134-.076.272-.148.418-.225.04.05.105.098.124.16.026.079.087.129.123.197.035.069.087.129.119.199.035.075.098.125.147.18.008.035-.005.064.017.095.175.248.34.503.489.769.089.161.198.312.305.464.036.05.069.097.081.157.091.002.058.089.093.13.028.032.026.08.068.105.05.03.067.086.095.132.029.05.034.12.084.153.045.03.021.118.105.11.019-.001.011.032.016.049.035.095.066.193.148.262.063.054.058.14.115.204.048.053.078.13.128.192.048.059.054.147.112.2.125.12.152.303.286.417.039.182.217.285.272.458.023.076.087.117.134.172.003.038.003.069.026.105.076.114.174.214.232.34.06.13.176.227.217.366.017.059.095.07.101.125.007.065.031.12.077.159.048.042.068.102.109.145.061.063.054.16.125.216-.016.065.086.02.078.079-.006.04.022.067.034.1.028.077.069.14.127.195.035.034.079.06.071.124-.007.055.077.063.076.12-.037.095-.152.103-.206.179-.214.062-.383.21-.592.29-.175.066-.335.18-.507.261-.092.044-.184.083-.276.123-.098.041-.189.098-.291.135-.099.036-.203.07-.288.144-.037.033-.1.033-.15.054a5.439 5.439 0 0 1-.822.291c-.035.009-.058.04-.097.047-.033.007-.047.07-.086.064-.091-.013-.162.074-.25.035v.002Z" fill="#8F1C31"/><path d="M167.906 19.31c.096.204.24.381.314.594-.03.06-.095.081-.148.097-.06.018-.084.08-.159.087a.488.488 0 0 0-.255.117c-.092.081-.204.1-.309.141-.011.004-.03-.003-.037.004-.148.137-.36.16-.519.28a.307.307 0 0 1-.079.041c-.251.096-.477.24-.716.36-.059.03-.124.047-.184.067-.133.044-.243.126-.369.178-.137.058-.264.139-.4.198-.131.058-.251.138-.383.188-.156.06-.291.162-.448.218-.092.033-.17.087-.253.133-.084.047-.17.09-.255.13-.078.037-.15.091-.243.11-.089.02-.172.084-.251.131-.075.046-.172.043-.226.104-.066.073-.179.057-.233.14-.092-.015-.15.069-.237.08-.075.01-.127.084-.203.112-.206.076-.386.206-.598.276-.066.022-.128.086-.202.114-.162.063-.307.157-.462.232-.038.019-.072.012-.128.033-.011.004.025.057-.031.063-.002 0-.017.003-.026-.004-.103-.075-.145-.194-.203-.296-.111-.192-.266-.354-.356-.558-.139-.101-.207-.259-.31-.387-.154-.191-.32-.372-.471-.566-.096-.124-.225-.223-.332-.327-.009-.068.043-.085.071-.116.166-.18.341-.354.497-.541.118-.142.283-.246.362-.42.13-.049.182-.176.273-.263.227-.22.426-.464.647-.69.171-.175.348-.347.504-.534.097-.116.218-.21.302-.332.13-.192.337-.315.454-.517.01-.015.027-.027.041-.04.064-.07.153-.108.206-.197.047-.08.14-.131.199-.206.153-.192.345-.35.501-.538.092-.11.19-.215.293-.315.176-.171.33-.362.498-.541.119-.127.252-.246.356-.386.1-.132.221-.239.331-.358h.08l.626.617c.044.043.073.1.113.142.072.078.108.19.225.23.063.022.06.104.108.146.041.036.086.069.107.127.023.064.084.102.151.124v.08c.059.04.092.117.177.135.052.11.122.213.201.313.097.123.215.229.282.377.041.092.152.143.197.243.022.047.051.092.083.148.062.02.118.06.103.15.077.075.137.158.198.243.097.137.162.294.268.422.04.048.074.093.095.15a.644.644 0 0 0 .166.256l-.003.002Z" fill="#25903A"/><path d="M150.894 18.257c-.058 0-.116.004-.173 0a.919.919 0 0 0-.377.067c-.034.012-.074.01-.112.01-.131-.003-.255.064-.389.038-.057.057-.131.045-.196.035-.069-.01-.113.048-.177.042-.045-.004-.09 0-.137 0l-.07.064c-.15.031-.291.046-.422.091-.124.044-.275-.001-.369.12-.132-.165-.127-.166-.206-.43a1.301 1.301 0 0 0-.096-.226c-.125-.234-.201-.488-.304-.731-.071-.167-.151-.332-.204-.504-.041-.132-.071-.263-.157-.373-.012-.17-.101-.314-.164-.465-.064-.157-.093-.329-.19-.473-.081-.12-.092-.265-.151-.394-.083-.18-.146-.371-.216-.558l-.212-.559c-.045-.121-.118-.232-.121-.37 0-.042-.088-.07-.071-.14-.092-.121-.109-.272-.167-.407-.056-.129-.121-.256-.161-.39-.051-.168-.161-.313-.181-.497-.011-.097-.086-.19-.127-.288-.031-.073-.032-.162-.069-.216-.055-.077-.061-.172-.119-.237-.047-.055-.002-.118-.047-.173-.032-.04-.078-.097-.05-.165.127-.062.286-.05.394-.16.106.008.199-.075.314-.038l.063-.08c.082-.013.157.026.211-.04.171-.034.337-.077.497-.149.071-.03.166.034.233-.042.167.037.307-.082.469-.078.058 0 .126-.02.174-.042.135-.06.272-.06.414-.076.092-.01.194-.012.281-.06.026-.014.049-.011.072-.01.176.012.336-.07.508-.077.076-.067.17-.043.254-.035.203.019.404-.019.6-.05.216-.033.427-.026.64-.024.098 0 .178-.052.274-.044.089.007.179.001.269.001.031.047.018.099.018.149v7.807c0 .043.002.088-.005.125-.078.066-.173.004-.245.053Z" fill="#11325E"/><path d="M168.746 20.959c.044.086.072.178.137.25.018.018.031.035.032.063.006.122.07.226.118.332.069.155.118.32.194.472.09.18.113.383.212.56.061.107.056.236.119.35.058.105.101.232.118.348.019.126.057.245.09.365.031.119.077.236.106.355.024.104.045.207.077.31.031.101.067.207.078.31.01.103.069.201.044.306-.014.057.036.086.042.136.027.233.086.461.121.693.015.103.027.205.031.308a.25.25 0 0 0 .02.087c.036.084.029.094-.029.174-.183.037-.365.037-.544.059-.137.016-.277.004-.408.034-.169.038-.342.006-.504.04-.17.034-.338.021-.506.033a.918.918 0 0 0-.232.045c-.089.031-.172.027-.257.028-.195.003-.386.067-.582.04-.111.067-.235.04-.35.033-.11-.007-.206.045-.312.043-.11-.002-.226-.024-.326.006-.087.027-.185.002-.263.06a.052.052 0 0 1-.034.009c-.165-.02-.324.036-.486.035-.253-.001-.501.07-.756.042-.151.066-.31.032-.467.036-.093.003-.176.065-.272.04-.049.064-.117.037-.178.036-.201 0-.398.066-.601.039-.131.067-.272.04-.408.034-.116-.006-.217.054-.332.044-.109-.01-.218-.002-.34-.002-.036-.16-.082-.32-.092-.488a1.005 1.005 0 0 0-.082-.365c-.034-.073-.02-.151-.065-.222-.035-.056-.036-.137-.048-.208a1.933 1.933 0 0 0-.119-.369 5.624 5.624 0 0 1-.134-.38c-.041-.126-.119-.231-.151-.36-.01-.039.014-.105-.055-.131.082-.086.154-.178.288-.176.047-.09.179-.056.228-.146.109-.015.203-.078.293-.127.099-.056.218-.076.301-.157.047-.045.12-.015.165-.075a.183.183 0 0 1 .143-.066c.07.002.095-.108.18-.075.068-.063.141-.117.24-.118.047-.091.181-.054.228-.147.105-.01.193-.07.277-.119.125-.072.271-.096.385-.189.07-.056.168-.056.243-.11.17-.122.391-.152.551-.294.161-.035.289-.147.44-.192.102-.032.173-.104.273-.134.198-.062.358-.212.568-.254.179-.156.412-.216.614-.33.195-.111.405-.199.607-.299.16-.08.314-.171.478-.238.134-.054.258-.123.386-.186.116-.057.245-.093.351-.17.055-.04.105-.027.158-.027l-.003-.001Z" fill="#B81A29"/><path d="M147.356 19.09c-.068.109-.188.082-.262.15a.646.646 0 0 1-.273.129.697.697 0 0 0-.246.145c-.076.064-.171.091-.253.136-.086.047-.156.143-.273.13-.043.094-.132.123-.22.153-.072.086-.194.115-.26.207-.031.044-.104-.024-.12.06-.009.052-.083.059-.124.095a.451.451 0 0 1-.118.08c-.05.02-.08.056-.12.083-.017.011-.049.002-.09.002-.169-.231-.406-.416-.595-.642-.164-.198-.365-.368-.496-.594-.145-.042-.185-.19-.282-.28-.236-.22-.444-.466-.663-.7-.172-.185-.37-.347-.519-.547-.143-.19-.352-.32-.469-.529-.089-.018-.097-.114-.159-.162-.056-.043-.09-.114-.139-.168-.056-.061-.124-.112-.175-.176-.168-.214-.381-.387-.556-.592-.106-.124-.232-.23-.329-.358-.162-.212-.367-.38-.547-.573-.067-.072-.123-.152-.19-.223-.07-.075-.156-.136-.214-.218a1.552 1.552 0 0 0-.164-.194c.111-.172.279-.266.422-.383.136-.111.28-.215.423-.318.246-.178.499-.346.742-.527.237-.176.501-.311.749-.47a8.19 8.19 0 0 1 .636-.364c.174-.09.353-.174.516-.287a.234.234 0 0 1 .112-.051.38.38 0 0 0 .196-.083c.086-.059.178-.099.273-.135.116-.045.223-.115.337-.16.116-.047.235-.085.348-.138.051-.024.095-.014.149-.016.016.15.098.276.147.415.052.149.11.297.175.44.052.115.081.234.123.35.041.11.082.223.148.318.034.05.041.106.049.15.014.088.083.141.105.226.077.3.225.578.33.871.076.215.174.423.253.637.037.1.068.2.105.3a.308.308 0 0 0 .031.063c.095.138.125.303.189.454.061.146.114.296.175.442.074.179.123.368.212.54.055.106.08.22.127.328.045.102.075.21.119.313.099.238.189.48.279.721.071.192.17.374.225.574.035.128.105.247.162.376h-.001Z" fill="#104981"/><path d="M170.381 30.191c.007.199-.036.394-.047.592-.011.197-.047.397-.076.595-.025.168-.025.347-.108.505.03.181-.07.342-.086.519a.904.904 0 0 1-.064.294c-.046.107-.059.23-.08.346-.006.03-.03.039-.049.07-.107.027-.204-.037-.308-.058-.153-.03-.291-.107-.448-.129-.148-.02-.29-.075-.432-.117-.177-.053-.356-.101-.531-.16-.084-.027-.172-.036-.254-.084-.066-.038-.164-.038-.247-.047-.053-.006-.09-.036-.137-.046-.105-.024-.2-.084-.301-.106-.106-.023-.212-.06-.317-.069-.121-.01-.22-.065-.331-.09-.11-.026-.216-.081-.324-.098a2.652 2.652 0 0 1-.401-.104c-.132-.043-.268-.067-.399-.107-.176-.055-.359-.092-.529-.162-.038-.015-.07-.018-.106-.023-.037-.005-.069-.003-.107-.024-.125-.07-.272-.087-.409-.126-.179-.05-.363-.084-.529-.164a.249.249 0 0 0-.142-.027c-.056.008-.088-.035-.138-.044a1.574 1.574 0 0 1-.428-.128c-.079-.04-.166-.006-.248-.053-.128-.073-.285-.077-.423-.141-.09-.042-.202-.04-.325-.06l-.096-.108c.066-.183.034-.394.118-.587.019-.043.009-.1.003-.15-.005-.053.055-.081.041-.136-.023-.088.054-.16.041-.25a.74.74 0 0 1 0-.266c.077-.392.01-.788.042-1.194.21.013.416-.072.631-.037.087.015.152-.044.235-.042.078.001.163.028.236-.034.014-.013.05-.005.075-.001.203.027.403-.021.6-.047.164-.023.328-.004.486-.035.15-.029.3-.015.447-.039.085-.014.169-.038.255-.03.085.01.151-.051.235-.042.089.01.18.006.27 0 .079-.004.15-.048.235-.038.071.007.151.026.216-.035.006-.006.025-.002.037 0 .248.027.49-.062.737-.036.084.008.15-.047.234-.044.071.003.154.038.217-.032.009-.01.038-.004.057-.001.209.025.416-.019.619-.046.163-.022.328-.006.486-.035.163-.03.331-.003.484-.043.129-.032.258-.005.382-.049.129-.046.27.01.397-.023.112-.028.221-.031.332-.033.1-.04.2-.007.313-.019.027.136.004.263.016.385.046.466.039.931.014 1.397-.013.239 0 .478-.032.716-.009.062-.001.126-.04.182l.001-.002Z" fill="#D9341C"/><path d="M161.634 32.023c.116-.029.22.01.326.04.264.076.526.16.795.22.18.04.356.1.534.15.017.005.03.02.057.038.134-.025.255.061.391.089.087.018.178.034.26.069.085.036.176.04.259.071.084.033.172.052.257.08.227.072.463.116.689.194.124.042.254.067.38.105.235.072.471.134.708.197.124.033.25.077.376.114.166.05.333.094.498.145.2.06.405.102.603.172.15.053.307.106.466.127.116.016.213.076.327.098.317.063.615.2.936.248.038.006.045.044.073.052.005.049.002.086-.035.122-.059.059-.037.146-.067.22-.138.342-.229.702-.397 1.034.033.084-.074.11-.077.177-.002.066-.061.11-.068.16-.008.069-.071.12-.048.192-.107.093-.126.226-.165.35a.442.442 0 0 1-.082.157.445.445 0 0 0-.105.205.486.486 0 0 1-.113.198.291.291 0 0 0-.061.109c-.032.152-.138.261-.207.391-.082.157-.201.294-.248.468-.023.083-.115.116-.145.204-.025.072-.047.172-.147.202-.079.188-.203.35-.314.517-.066.1-.097.226-.208.293-.115-.086-.228-.18-.352-.259-.056-.036-.09-.104-.159-.115-.078-.012-.094-.096-.164-.117-.076-.023-.107-.105-.17-.145-.223-.139-.415-.318-.634-.463a3.79 3.79 0 0 1-.384-.279c-.125-.108-.262-.198-.398-.29-.091-.063-.176-.136-.262-.204l-.246-.197c-.063-.051-.141-.093-.213-.133-.105-.057-.161-.172-.278-.207-.223-.212-.488-.373-.733-.556-.207-.155-.396-.342-.637-.45-.112-.126-.257-.21-.391-.31-.121-.092-.241-.183-.371-.262-.09-.054-.161-.133-.243-.199-.181-.145-.378-.269-.563-.408-.111-.084-.211-.183-.338-.249-.01-.005-.015-.054-.046-.074.32-.46.558-.963.816-1.455.045-.085.047-.18.084-.27.051-.124.129-.237.161-.372.01-.04.021-.08.023-.122.001-.038.037-.048.051-.072h-.001Z" fill="#1A9AC9"/><path d="M152.323 10.123c.132-.009.254.056.389.042.133-.014.28-.035.402.005.151.05.312-.014.454.066.03.016.076.006.115 0 .177-.02.347.064.524.04.078.052.182.009.25.044.084.045.161.028.238.027.051 0 .068.066.119.043.062-.029.099.043.158.039a.788.788 0 0 1 .173 0c.119.02.233.063.353.081.05.008.104.034.159.03.053-.005.09.03.137.043.25.064.516.065.752.184.151-.013.275.111.418.076a.41.41 0 0 0 .173.08c.088.014.187.029.255.078.084.061.192-.01.261.071.085-.005.136.073.219.085a.266.266 0 0 1-.028.17c-.089.193-.148.396-.234.59-.071.16-.113.333-.194.49a.5.5 0 0 0-.074.235c0 .043-.029.066-.042.098l-.386.945c.033.092-.113.122-.077.215-.095.089-.068.224-.13.328a1.144 1.144 0 0 0-.124.31c-.071.273-.197.528-.294.793a6.804 6.804 0 0 1-.181.438c-.089.197-.158.404-.235.607-.055.148-.126.292-.157.45-.009.048-.058.083-.079.137-.124.305-.222.619-.359.918-.043.093-.091.19-.107.3-.014.105-.102.198-.129.307-.018.069-.065.13-.056.205l-.111.057c-.166-.068-.342-.105-.515-.154-.138-.038-.282-.054-.416-.11-.026-.01-.038-.03-.04-.031-.106-.026-.194.016-.28-.036-.073-.043-.177.024-.248-.049-.134.027-.256-.061-.39-.038-.095.017-.187-.025-.271-.047-.107-.028-.21-.02-.314-.03-.073-.024-.122-.066-.115-.15.003-.038 0-.076 0-.114v-7.63c0-.081-.018-.166.038-.239l-.001.002Z" fill="#D41321"/><path d="M134.263 54.06c-.028.107.022.207.045.306.023.093.088.179.157.26.178.207.346.255.543.312.117.034.233.034.351.035.148 0 .296-.009.444.002.178.013.345-.078.534-.03.028.034.008.086.009.133.002.374 0 .747.002 1.121 0 .04-.024.092.062.125a7.931 7.931 0 0 1-.517.1c-.176.03-.356 0-.524.038-.247.055-.492.021-.737.03-.251.009-.505.025-.752-.005a4.167 4.167 0 0 1-.73-.14 5.032 5.032 0 0 1-.658-.27c-.056-.026-.098-.069-.15-.1a1.127 1.127 0 0 1-.216-.17 1.78 1.78 0 0 1-.295-.373c-.063-.107-.098-.227-.162-.332-.044-.071-.038-.15-.062-.222-.075-.235-.086-.48-.085-.727.006-1.101.002-2.204.002-3.319h-1.346v-1.408h1.344V48.19l.041-.041 2.661-.523v1.796h2.278v1.37c-.08.037-.165.017-.247.017-.598.002-1.196 0-1.795.001-.063 0-.127-.013-.185.01-.041.032-.031.073-.031.11v3.02c0 .038-.006.076.019.11Z" fill="#000"/><path d="M121.685 64.471v.248c.156.177.18.176.329.258.074.04.163.002.224.067.195-.004.384.06.582.04.121-.012.245-.014.365.001.1.013.179-.05.274-.042.09.007.195.03.267-.005.117-.057.247.005.36-.066.035-.022.101-.014.139.054v.572c-.144.051-.303.033-.453.061-.247.046-.492.023-.737.03-.244.007-.489-.003-.733.004-.09.003-.162-.061-.254-.042-.08.017-.155-.031-.231-.048a1.782 1.782 0 0 1-.237-.075.772.772 0 0 1-.206-.105c-.187-.144-.36-.295-.391-.554-.01-.075-.034-.153-.032-.232.004-.201.068-.383.18-.553.15-.227.373-.364.594-.508.216-.14.463-.218.688-.334-.022-.06-.094-.052-.131-.098h-.305a.926.926 0 0 0-.352.08c-.286.114-.535.29-.75.507-.24.243-.521.443-.747.699-.046.053-.135.045-.172.119v-.817c.507-.413.912-.906 1.272-1.458h-1.121v-.605h1.43c.116-.157.147-.343.225-.498h.729l-.182.479c.033.028.08.01.122.01l1.639.001c.056 0 .118-.016.157.06v.494a.132.132 0 0 1-.116.055c-.135-.004-.27-.001-.405-.001h-1.734c-.076.16-.179.3-.289.447.06.009.108 0 .171-.018.144-.041.291-.092.447-.087.141.005.273.055.408.084.094.02.279.217.347.343.433-.078.866-.19 1.322-.204v.643c-.38.018-.758.097-1.138.167.067.163.011.34.055.513.042.166.009.352.009.545h-.655c0-.15-.008-.288.002-.426.009-.137-.026-.266-.054-.411-.2-.003-.351.13-.52.207a.752.752 0 0 0-.392.4Z" fill="#0090DA"/><path d="M168.559 61.325c.005.012.008.018.008.023v.497c-.513.33-1.052.646-1.59.99.091-.01.173.036.258-.028.029-.021.087-.006.132-.006.141 0 .283-.008.424.001.342.023.673.107.949.309.224.164.391.384.447.67.052.272.045.445.002.691-.02.121-.062.228-.119.333-.095.17-.198.326-.37.438-.116.076-.22.167-.35.226-.186.084-.375.149-.578.186-.163.03-.326.06-.49.07-.167.01-.336.016-.501-.001a3.446 3.446 0 0 1-.76-.163 1.445 1.445 0 0 1-.434-.25.646.646 0 0 1-.26-.556c.004-.072 0-.142.022-.217.093-.303.327-.436.605-.521.203-.061.414-.046.621-.034a.881.881 0 0 1 .251.04c.073.029.154.013.225.065.063.047.155.057.231.09.071.03.137.07.206.104.066.032.1.093.154.134v.611c.043.026.075.02.121-.005.109-.06.233-.086.335-.166.193-.15.377-.301.392-.568.09-.152.008-.291-.042-.427a.622.622 0 0 0-.327-.335 1.865 1.865 0 0 0-.551-.165c-.19-.028-.377-.016-.564-.025-.098-.005-.19.06-.293.036-.102-.023-.191.044-.293.043-.085 0-.17.051-.258.069-.094.02-.176.08-.276.078-.215.139-.461.222-.68.357-.142.087-.275.191-.429.254-.011-.006-.016-.008-.021-.013-.004-.004-.01-.01-.01-.014v-.627c.054-.126.212-.12.285-.219.254-.123.48-.291.726-.428.141-.078.277-.17.413-.26.206-.133.421-.252.629-.382.132-.083.258-.173.403-.235.022-.01.04-.027.048-.068h-1.999v-.602h3.308Z" fill="#0068B6"/><path d="M117.632 64.86v.62a.3.3 0 0 1-.224.057c-.09-.015-.162.051-.254.044-.076-.007-.166-.042-.235.032-.006.007-.025.003-.038.002-.241-.028-.477.04-.717.038-.244-.003-.488 0-.732-.001-.079-.001-.15-.061-.235-.037-.084.023-.155-.049-.235-.037-.085.013-.15-.046-.235-.046-.069 0-.146-.044-.217-.072-.291-.114-.539-.288-.695-.563-.067-.119-.09-.256-.115-.39-.015-.079.008-.165-.005-.245-.015-.086.024-.16.047-.23.066-.208.171-.403.356-.537.154-.113.317-.208.513-.248.112-.023.227-.042.336-.071a1.71 1.71 0 0 1 .583-.026c.319.027.643.052.943.183.008.004.022-.006.051-.017l-.398-.783h-2.539v-.64h2.229l-.266-.622c-.006-.015.003-.035.004-.06h.759l.28.679h1.496v.602h-1.204c-.056.06.002.078.015.107.216.482.458.953.693 1.427.013.026.051.04.037.084 0 0-.002.006-.006.01-.003.005-.009.011-.013.011h-.763c-.182-.118-.361-.228-.565-.28-.169-.045-.336-.1-.518-.105-.115-.003-.231-.04-.351-.034-.105.006-.208.007-.313.033-.093.023-.184.055-.276.079-.156.04-.259.144-.352.255a.205.205 0 0 0-.046.152c.012.1.003.201.003.297.144.252.378.356.644.397.072.012.132.062.215.046.07-.014.148-.017.217.032.021.015.062.002.094.002.142 0 .284-.005.424.002.261.011.515-.068.775-.04.093-.05.194-.041.293-.037.101.005.191-.041.292-.047.075-.004.152-.037.248-.024Z" fill="#E95413"/><path d="M126.122 64.283v-.552l.014-.012c.005-.003.01-.006.016-.006h1.16v-1.097h-.992v-.61h.996V61.1h.658v.898h1.196c.003-.28 0-.569.002-.862h.651V62h.999v.61h-.988v1.103h1.228v.571c-.047.03-.1.018-.15.018h-4.639c-.05 0-.103.012-.15-.018h-.001Z" fill="#0090DA"/><path d="M146.77 65.69v-.65c.194.034.376-.026.563-.043.211-.02.419-.09.626-.156.304-.097.553-.275.744-.516.108-.137.179-.304.225-.477.039-.152.083-.303.077-.462a7.241 7.241 0 0 1 0-.361c.004-.208-.05-.41-.132-.592a.853.853 0 0 0-.518-.485c-.09-.03-.175-.01-.261-.02-.159-.018-.298.04-.435.111a.271.271 0 0 0-.06.04 2.276 2.276 0 0 0-.614.832 4.274 4.274 0 0 0-.258.788c-.03.142-.075.279-.078.426 0 .037-.03.075-.048.117h-.605c0-.478.008-.958-.003-1.437-.01-.477.081-.95.032-1.438h.705c-.013.082.01.16-.034.249-.032.066-.003.162-.007.244-.004.115.021.234-.035.346-.012.025-.021.075.018.103.019-.001.044.007.052-.016.074-.2.21-.366.347-.52.207-.234.471-.387.789-.458.197-.043.391-.042.583-.024a.99.99 0 0 1 .382.094c.131.07.25.146.361.243.261.229.392.528.504.84.026.074-.017.163.049.228-.012.212.063.417.041.63-.012.116-.052.225-.045.346.006.111-.049.222-.065.33-.016.116-.055.222-.091.327a1.586 1.586 0 0 1-.29.488c-.131.158-.277.318-.461.413-.193.1-.384.216-.599.27-.2.05-.397.117-.607.115-.127.082-.276.024-.415.068-.128.04-.279.008-.435.008l-.002-.002Z" fill="#0068B6"/><path d="M110.863 63.03h.706c-.007.15.036.297-.027.45-.031.074-.024.166-.039.25-.065.38-.207.755-.432 1.097a1.845 1.845 0 0 1-.855.694c-.17.07-.356.106-.542.14-.222.04-.441.03-.66.025a1.818 1.818 0 0 1-.75-.184 1.205 1.205 0 0 1-.662-.773 1.563 1.563 0 0 1-.079-.462c.003-.943.001-1.886.001-2.829v-.152h.694v.165c0 .905-.005 1.81.003 2.716a.775.775 0 0 0 .461.726c.15.074.304.12.473.114.103-.004.206-.003.309 0a.873.873 0 0 0 .353-.08c.267-.11.391-.207.592-.426.107-.116.159-.263.241-.395-.016-.096.071-.159.084-.252.01-.077.01-.169.07-.236-.026-.113.062-.214.038-.326-.019-.09.078-.157.021-.262Z" fill="#E95413"/><path d="M161.584 62.161v-.913h.69v.904h.729v.648h-.725c0 .062-.004.117 0 .173.022.276-.041.546-.048.82-.004.186-.042.381-.119.556-.075.166-.147.343-.263.48-.238.282-.508.536-.887.633-.085.075-.2.08-.3.109-.139.04-.281.088-.429.08a.135.135 0 0 0-.098.035c-.034-.03-.059-.058-.057-.111.006-.17.002-.342.002-.517.232-.07.47-.124.69-.24.346-.183.594-.437.7-.816.039-.14.094-.275.077-.425.086-.25.01-.508.049-.776h-1.777c-.019-.211-.002-.422-.01-.64h1.778-.002ZM139.319 62.535h-.039c-.099-.021-.111.118-.228.08-.099-.137-.183-.322-.302-.5.169-.116.323-.207.47-.308.149-.102.271-.245.415-.352.154-.114.226-.296.415-.398h.798c.256.331.832.799 1.129.91v-.492h.614v3.031h-.607v-2.38c-.044-.012-.06-.012-.082.027-.069.118-.151.23-.228.343-.134.026-.21-.075-.304-.135-.112-.07-.204-.168-.313-.246-.049.06-.02.135-.068.204-.344.057-.691.035-1.036.015-.06-.047-.046-.129-.103-.175-.189.111-.339.272-.53.375h-.001Z" fill="#0068B6"/><path d="M143.061 61.17h.643c.024.04.013.077.013.113 0 1.267 0 2.533.002 3.8 0 .116-.042.224-.056.338-.014.114-.095.19-.18.246a.523.523 0 0 1-.285.098h-.748c-.085-.172-.091-.372-.153-.57.211.027.415-.072.622-.034.118-.086.146-.196.146-.328-.003-1.216-.002-2.432-.002-3.663h-.002Z" fill="#0068B6"/><path d="M133.667 65.646h-.673c.003-.367-.061-.725-.044-1.088.012-.272.008-.545 0-.817-.013-.451.07-.9.04-1.352.062-.175.012-.36.044-.535a2.58 2.58 0 0 0 .032-.48c0-.053.055-.078.055-.127h.684c-.021.07.024.139-.036.198-.01.01-.007.035-.008.054-.003.141.018.285-.039.421.025.288-.027.573-.046.858-.053.78-.015 1.561-.032 2.34-.004.174.085.34.022.528h.001ZM135.316 63.188c-.093.1-.181.184-.252.285-.231.33-.325.53-.298.904a.266.266 0 0 0 .068.142.718.718 0 0 0 .45.252c.061.012.109.056.177.047.063-.01.129.005.192-.004.09-.013.163.044.254.046.103 0 .192-.05.293-.045.096.005.195.016.288-.002.169-.033.337-.061.508-.074.052-.003.092-.073.158-.024v.656a3.43 3.43 0 0 1-.283.06c-.099.018-.199.013-.294.033-.34.073-.684.029-1.025.03-.181 0-.365-.04-.541-.084-.084-.022-.173-.033-.255-.083-.074-.046-.173-.051-.235-.126-.185-.016-.245-.18-.328-.298a.645.645 0 0 1-.122-.424 1.349 1.349 0 0 0 0-.246c-.024-.194.05-.37.122-.539.079-.186.178-.365.313-.507h.81v.001Z" fill="#0090DA"/><path d="m159.333 61.25.051.05c-.002.015 0 .038-.011.047-.044.035-.028.081-.026.122.012.306-.069.609-.04.916-.07.207-.036.42-.037.63-.005.57.003 1.14-.005 1.71-.002.119.047.227.043.344-.005.115-.001.228-.001.342v.106c-.034.041-.065.062-.117.06-.174-.005-.348-.002-.52-.002-.023-.029-.062-.045-.058-.092.03-.357-.044-.71-.039-1.067.006-.437.001-.874.001-1.31 0-.121-.032-.254.009-.358.048-.121.017-.233.027-.349.011-.12-.02-.246.008-.36.042-.166.021-.333.036-.498.009-.095.063-.185.025-.292h.655-.001Z" fill="#0068B6"/><path d="M111.343 11.264h-10.285c-.036.044-.017.096-.017.144 0 13.453 0 26.906.002 40.36 0 .053-.049.125.036.164-.004.049-.034.04-.072.03V11.24c.038-.032.091-.013.139-.013 3.343-.001 6.688-.001 10.031.002.054 0 .127-.048.166.035Z" fill="#FEFEFE"/><path d="M155.255 63.793h.574v1.341c.031.026.052.048.045.091h.182c.02-.02.049-.054.09-.1v-.537c.095-.007.166.051.243.064.085.013.161.058.258.049-.016.34.044.675-.095.995l-.192.097c-.34.07-.678.08-1.01-.03a.796.796 0 0 1-.097-.417c.005-.512.002-1.025.002-1.553Z" fill="#0068B6"/><path d="M137.039 61.59v.626c-.072.057-.152.054-.233.054h-2.484l-.053-.053v-.626h2.771l-.001-.001Z" fill="#0191DA"/><path d="M127.588 31.977c-.004.05-.034.04-.076.029V11.264h-10.304c-.005-.025.01-.037.03-.037.045-.003.09 0 .135 0h10.176v20.55c0 .058-.002.115 0 .172 0 .02.013.034.037.03l.002-.002Z" fill="#FCFCFC"/><path d="M130.965 65.34c-.173.163-.287.361-.485.511a5.785 5.785 0 0 1-1.586-1.012c.153-.145.335-.24.495-.364.124.011.195.117.285.182.152.11.31.21.473.303.113.065.226.132.345.187.145.067.297.122.473.193ZM127.702 64.463c.173.139.365.227.519.387a5.993 5.993 0 0 1-1.571.991c-.175-.14-.312-.323-.469-.51a5.795 5.795 0 0 0 1.522-.868h-.001Z" fill="#0091DA"/><path d="M117.208 56.416h10.294c.022-.064.009-.133.009-.2l.001-13.813c0-.057-.002-.114 0-.171 0-.02.013-.034.037-.03v14.234c-.043.037-.096.018-.144.018-3.343.002-6.688.002-10.031-.001-.054 0-.127.047-.166-.036Z" fill="#FCFCFC"/><path d="M104.012 63.561V61.51c.064.006.037.056.037.087.003.36.002.721.002 1.082v.218c.078-.077.129-.152.2-.19.082-.043.132-.111.203-.166.04-.008.074.002.116.028.188.108.377.214.547.35.104.085.227.145.321.243l-.41.4h-.103a4.89 4.89 0 0 0-.867-.608c-.017.091-.005.184-.007.274-.002.095 0 .19 0 .285 0 .026 0 .052-.039.05Z" fill="#E95414"/><path d="M139.319 62.535v-.053a5.83 5.83 0 0 0 .576-.448c.069.034.035.084.04.122.006.044.002.089.002.142h1.037v-.292c.105.058.185.125.266.194.132.113.271.224.433.297-.043.052-.039.112-.039.174V64.132h-1.657c-.056 0-.111 0-.156.038v-.07c.292-.012.585-.004.877-.005.294-.002.589 0 .89 0v-1.558h-2.269v-.002Z" fill="#F7FAFC"/><path d="M152.114 65.516c-.2-.063-.333-.179-.488-.252.126-.381.237-.757.284-1.162l.054-.048c.127.079.297.045.442.122-.05.438-.149.856-.246 1.275-.005.022-.028.041-.045.065h-.001Z" fill="#0168B7"/><path d="m104.631 62.286-.556-.27c.103-.164.258-.267.37-.408.107-.133.192-.285.318-.406.199.072.37.19.566.29-.175.304-.437.533-.698.794Z" fill="#E95414"/><path d="M152.323 10.123v8.072c.008.044.084 0 .076.062h-.134c-.03-.174-.042-7.39-.014-8.12.019-.025.048-.008.072-.013Z" fill="#FCFCFC"/><path d="M101.788 61.982c-.213.076-.353.257-.57.292-.038-.103-.14-.149-.19-.232-.053-.088-.126-.154-.195-.224-.071-.073-.146-.144-.218-.214-.005-.055.034-.073.073-.097.113-.07.231-.134.336-.226h.117c.205.227.464.415.647.7Z" fill="#E95414"/><path d="M140.939 46.382h-2.718c-.005.004-.01.007-.014.012a.026.026 0 0 0-.007.016v9.968c-.025.004-.037-.01-.038-.03-.002-.057 0-.114 0-.17V46.36c.045-.034.098-.016.146-.016a565.77 565.77 0 0 1 2.506 0c.041 0 .103-.037.126.037h-.001ZM151.589 33.346V23.16l.014-.032c.023.001.025.017.025.036v10.152c-.001.02-.014.035-.037.03h-.002ZM150.894 18.257c-.004-.025.011-.037.031-.038.063-.002.127 0 .2 0v-8.096c.025-.004.037.01.038.03.002.038 0 .075 0 .114v7.99h-.27.001ZM134.263 54.06c-.024.003-.037-.01-.037-.03-.002-.051 0-.102 0-.153v-3.086h2.277c-.008.064-.058.036-.089.037-.463.002-.925.002-1.388.002h-.762v3.23h-.001ZM126.122 64.283h4.939c.004.024-.01.036-.03.037-.045.002-.09 0-.135 0-1.536 0-3.072 0-4.608-.002-.054 0-.127.048-.165-.036h-.001ZM170.381 30.191c-.021-.212.053-.417.041-.63a3.63 3.63 0 0 1 .005-.625c.014-.115.05-.234.027-.346-.068-.348-.012-.698-.041-1.06h-.302c-.004-.023.011-.036.03-.036.102-.002.204 0 .322 0-.039.274.048.535.036.802a5.937 5.937 0 0 0 0 .55c.017.432-.083.86-.031 1.287-.04.02-.048.061-.087.059ZM153.21 62.801c.007.062-.069.019-.079.067.039.126.152.232.16.38-.21.012-.403.08-.621.037.073-.095.159-.177.233-.265.073-.087.131-.19.23-.256.003.057.048.032.077.037ZM144.219 52.159c.025-.004.037.01.038.03.002.057 0 .113 0 .17v4.018c-.025.005-.037-.01-.038-.03-.002-.057 0-.113 0-.17v-4.018Z" fill="#FCFCFC"/><path d="M102.51 63.099v-.32l.049-.049h.825v.37h-.875l.001-.001ZM103.388 62.342h-.874v-.328l.052-.046h.822v.374Z" fill="#FDFAF8"/><path d="M141.051 62.928v.209h-1.181v-.214c.023-.019.041-.049.088-.048.333.003.666.003.999 0 .049 0 .065.032.094.053Z" fill="#F4F8FB"/><path d="M141.051 63.499v.208h-1.188V63.5l.053-.053h1.058c.04 0 .05.035.078.052h-.001Z" fill="#F5F8FB"/><path d="M141.171 64.796v.353c-.252.016-.505.003-.765.008v-.362c.144-.026.604-.026.765 0Z" fill="#FCFDFD"/><path d="M153.944 65.028c-.134.067-.273.062-.387.13-.039-.012-.079-.039-.074-.073.011-.09-.068-.161-.041-.25-.088-.059.008-.176-.077-.235.022-.154-.076-.3-.026-.475l.395-.115c.06.296.091.581.197.849.023.056.005.111.014.169h-.001Z" fill="#0168B7"/><path d="M167.61 65.065c-.283.074-.554.052-.824.055-.112.002-.43-.08-.577-.136-.1-.038-.149-.13-.226-.182v-.156c.082-.097.181-.132.31-.138.386-.017.706.138 1.013.339.101.066.198.14.304.218Z" fill="#FDFEFE"/><path d="M129.167 62.617v1.09h-1.181s-.003-.002-.005-.008a.034.034 0 0 1-.006-.016v-1.067h1.193-.001Z" fill="#FEFEFE"/><path d="M140.465 61.426c.036.04.087.076.107.125.063.146.227.209.298.351-.14.031-.582.035-.814.01-.002-.005-.006-.014-.004-.016.13-.156.251-.32.413-.47Z" fill="#F3F8FB"/></g><defs><clipPath id="a"><path fill="#fff" transform="translate(.5 .5)" d="M0 0h70v75H0z"/></clipPath><clipPath id="b"><path fill="#fff" transform="translate(.5 8.777)" d="M0 0h70v58.446H0z"/></clipPath><clipPath id="c"><path fill="#fff" transform="translate(100.5 10.121)" d="M0 0h70v55.759H0z"/></clipPath></defs></svg>