<svg width="290" height="181" viewBox="0 0 290 181" fill="none" xmlns="http://www.w3.org/2000/svg">
<mask id="path-1-inside-1_2484_2326" fill="white">
<path fill-rule="evenodd" clip-rule="evenodd" d="M20 0C8.95431 0 0 8.95431 0 20V117C0 128.046 8.9543 137 20 137H150.4L148.333 180.218L198.429 137H270C281.046 137 290 128.046 290 117V20C290 8.9543 281.046 0 270 0H20Z"/>
</mask>
<path fill-rule="evenodd" clip-rule="evenodd" d="M20 0C8.95431 0 0 8.95431 0 20V117C0 128.046 8.9543 137 20 137H150.4L148.333 180.218L198.429 137H270C281.046 137 290 128.046 290 117V20C290 8.9543 281.046 0 270 0H20Z" fill="white"/>
<path d="M150.4 137L152.398 137.096L152.498 135H150.4V137ZM148.333 180.218L146.335 180.122L146.113 184.775L149.64 181.732L148.333 180.218ZM198.429 137V135H197.685L197.122 135.486L198.429 137ZM2 20C2 10.0589 10.0589 2 20 2V-2C7.84974 -2 -2 7.84974 -2 20H2ZM2 117V20H-2V117H2ZM20 135C10.0589 135 2 126.941 2 117H-2C-2 129.15 7.84973 139 20 139V135ZM150.4 135H20V139H150.4V135ZM150.331 180.313L152.398 137.096L148.403 136.904L146.335 180.122L150.331 180.313ZM197.122 135.486L147.027 178.703L149.64 181.732L199.735 138.514L197.122 135.486ZM270 135H198.429V139H270V135ZM288 117C288 126.941 279.941 135 270 135V139C282.15 139 292 129.15 292 117H288ZM288 20V117H292V20H288ZM270 2C279.941 2 288 10.0589 288 20H292C292 7.84974 282.15 -2 270 -2V2ZM20 2H270V-2H20V2Z" fill="#2F3B53" mask="url(#path-1-inside-1_2484_2326)"/>
<path d="M56.1346 45.26H64.8546V47.08H56.1346V45.26ZM56.0546 51.88H64.7946V53.7H56.0546V51.88ZM55.7146 48.82H65.3146V50.66H55.7146V48.82ZM57.0546 47.18L58.8946 46.82C59.1746 47.4 59.4546 48.2 59.5346 48.7L57.6146 49.1C57.5346 48.6 57.2946 47.78 57.0546 47.18ZM48.8946 50.82H50.8146V54.8H48.8946V50.82ZM59.2946 49.72H61.4946V55.8H59.2946V49.72ZM47.7146 44.74H49.7746V47.82C49.7746 50.06 49.4346 53.34 47.9146 55.48C47.6346 55.02 46.7946 54.12 46.3946 53.82C47.5946 52.04 47.7146 49.6 47.7146 47.8V44.74ZM61.7546 46.82L63.8146 47.1C63.4946 47.86 63.2746 48.52 63.0546 49.04L61.2146 48.76C61.3946 48.18 61.6546 47.38 61.7546 46.82ZM48.7946 44.74H55.2546V49.52H48.7946V47.72H53.0946V46.52H48.7946V44.74ZM48.8946 50.52H55.3546V55.28H48.8946V53.54H53.2746V52.26H48.8946V50.52ZM47.1146 60.16H65.1346V62.24H47.1146V60.16ZM48.9746 56.64H63.4746V58.66H48.9746V56.64ZM54.7946 55.58H57.2746V61.4H54.7946V55.58ZM59.2946 44.26H61.4946V46.6H59.2946V44.26ZM75.1546 45.36C75.0346 45.88 74.9146 46.52 74.8146 47.02C74.6146 47.92 74.3746 49.16 74.1546 50.18C73.4946 53 71.8946 58.7 69.7946 62.08L67.1746 61.04C69.5546 57.84 71.0546 52.56 71.6146 50.04C71.9946 48.24 72.2146 46.54 72.1946 45.04L75.1546 45.36ZM82.0546 47.36C83.2746 49.1 84.9546 52.82 85.5746 54.72L83.0346 55.9C82.5146 53.68 81.0946 50.16 79.6546 48.38L82.0546 47.36ZM67.0546 49.46C67.7746 49.5 68.4546 49.48 69.1946 49.46C70.7946 49.42 74.5946 48.98 76.0746 48.98C78.1946 48.98 79.6946 49.92 79.6946 52.82C79.6946 55.18 79.3946 58.42 78.5546 60.14C77.8946 61.54 76.7746 61.98 75.2746 61.98C74.4946 61.98 73.5546 61.86 72.8746 61.7L72.4346 59.06C73.2146 59.28 74.3546 59.48 74.8746 59.48C75.5546 59.48 76.0746 59.28 76.3746 58.62C76.9346 57.5 77.1946 55.06 77.1946 53.1C77.1946 51.5 76.5146 51.26 75.2546 51.26C74.0746 51.26 70.6146 51.7 69.5146 51.84C68.9346 51.92 67.8946 52.06 67.2946 52.16L67.0546 49.46ZM81.6946 44.6C82.1946 45.32 82.8946 46.6 83.2746 47.34L81.6746 48.02C81.2546 47.2 80.6346 46.02 80.0946 45.24L81.6946 44.6ZM84.0546 43.68C84.5746 44.44 85.3146 45.72 85.6746 46.42L84.0746 47.1C83.6746 46.26 83.0146 45.1 82.4746 44.34L84.0546 43.68ZM93.4746 45.12H104.615V47.36H93.4746V45.12ZM92.6146 49.72H105.435V51.94H92.6146V49.72ZM95.8946 53.94H102.795V56.1H95.8946V53.94ZM96.7946 46.4H99.3146C98.6746 49.92 97.7146 54.34 96.9546 57.08L94.4946 56.78C95.2946 54.04 96.2546 49.74 96.7946 46.4ZM101.855 53.94H104.315C104.315 53.94 104.275 54.6 104.235 54.92C103.915 59.28 103.515 61.16 102.815 61.92C102.255 62.52 101.655 62.68 100.775 62.76C100.075 62.84 98.8346 62.82 97.5546 62.78C97.4946 62.08 97.1746 61.12 96.7346 60.48C97.9746 60.58 99.2746 60.6 99.8346 60.6C100.235 60.6 100.495 60.56 100.755 60.38C101.255 59.94 101.595 58.18 101.835 54.28L101.855 53.94ZM87.8346 45.86L89.1346 44.1C90.4146 44.6 92.0946 45.46 92.8946 46.18L91.4946 48.14C90.7346 47.4 89.1146 46.44 87.8346 45.86ZM86.6346 51.28L87.8946 49.48C89.1746 49.96 90.8746 50.82 91.7146 51.5L90.3546 53.48C89.5946 52.78 87.9346 51.84 86.6346 51.28ZM87.3346 60.98C88.3546 59.46 89.7946 56.98 90.9546 54.66L92.7546 56.22C91.7546 58.32 90.5346 60.62 89.3946 62.54L87.3346 60.98ZM125.575 59.96C124.635 60.82 123.435 61.46 121.795 61.46C120.295 61.46 119.295 60.38 119.295 58.44C119.295 56.26 120.015 53.34 120.015 51.5C120.015 50.52 119.515 50.04 118.655 50.04C116.795 50.04 113.815 52.98 112.215 55.02L112.195 51.94C113.415 50.66 116.755 47.66 119.395 47.66C121.555 47.66 122.535 48.94 122.535 50.62C122.535 52.68 121.875 55.62 121.875 57.7C121.875 58.22 122.155 58.58 122.655 58.58C123.395 58.58 124.335 58.06 125.235 57.16L125.575 59.96ZM111.755 50.44C110.855 50.54 108.955 50.78 107.635 50.98L107.375 48.4C107.935 48.42 108.395 48.42 109.115 48.38C110.375 48.32 112.935 47.94 113.835 47.64L114.635 48.68C114.295 49.14 113.675 50.12 113.335 50.64L112.175 54.4C111.295 55.68 109.515 58.36 108.455 59.82L106.895 57.62C108.155 56.06 110.555 52.9 111.555 51.32L111.595 50.8L111.755 50.44ZM111.515 46.58C111.515 46.02 111.535 45.42 111.415 44.8L114.335 44.88C113.995 46.48 113.335 51.72 113.335 55.3C113.335 56.92 113.335 58.62 113.455 60.48C113.475 60.84 113.555 61.58 113.595 62.02H110.855C110.895 61.56 110.915 60.86 110.915 60.54C110.935 58.6 110.955 57.26 111.015 54.76C111.075 52.98 111.515 47.38 111.515 46.58ZM126.889 47.26C127.669 47.24 128.469 47.2 128.849 47.16C130.529 47 133.809 46.72 137.489 46.4C139.549 46.22 141.729 46.1 143.149 46.04L143.169 48.62C142.089 48.62 140.369 48.64 139.289 48.88C136.889 49.52 135.069 52.12 135.069 54.48C135.069 57.78 138.149 58.96 141.529 59.14L140.609 61.88C136.409 61.62 132.449 59.36 132.449 55.02C132.449 52.14 134.069 49.88 135.429 48.86C133.549 49.06 129.469 49.48 127.149 50L126.889 47.26ZM148.144 46.66C151.064 47 153.504 47.04 155.624 46.88C157.444 46.76 159.084 46.44 160.744 45.92L161.064 48.2C159.624 48.6 157.884 48.94 156.144 49.06C154.084 49.22 151.324 49.24 148.284 48.94L148.144 46.66ZM147.784 50.84C151.384 51.2 154.624 51.14 157.024 50.9C159.184 50.72 160.684 50.32 161.844 49.98L162.244 52.34C161.044 52.64 159.564 52.92 157.944 53.1C155.424 53.38 151.524 53.44 147.924 53.2L147.784 50.84ZM154.464 47.22C154.264 46.48 154.024 45.74 153.744 44.96L156.424 44.66C156.664 46.58 157.164 48.34 157.684 49.88C158.164 51.28 159.144 53.34 160.064 54.74C160.344 55.14 160.604 55.44 160.964 55.78L159.764 57.62C158.644 57.38 156.464 57.14 155.004 56.98L155.204 55.06C156.044 55.14 157.144 55.24 157.724 55.3C156.664 53.52 155.924 51.78 155.424 50.32C154.924 48.9 154.724 48.18 154.464 47.22ZM151.624 55.5C151.144 56.16 150.724 56.84 150.724 57.7C150.724 59.18 152.124 59.78 154.784 59.78C156.664 59.78 158.364 59.64 159.804 59.36L159.664 61.9C158.264 62.12 156.424 62.26 154.784 62.26C150.804 62.26 148.324 61.08 148.264 58.24C148.244 56.94 148.664 55.96 149.144 55.02L151.624 55.5ZM174.324 45.04C174.184 45.6 174.004 46.5 173.904 46.94C173.624 48.3 173.124 50.74 172.584 52.78C171.864 55.58 170.524 59.66 169.424 62.04L166.644 61.1C167.824 59.08 169.344 54.9 170.104 52.1C170.604 50.22 171.064 48.02 171.204 46.84C171.304 46.1 171.324 45.28 171.264 44.8L174.324 45.04ZM169.224 48.04C171.664 48.04 174.484 47.66 177.084 47.04V49.54C174.604 50.12 171.464 50.46 169.204 50.46C168.224 50.46 167.484 50.42 166.784 50.38L166.704 47.88C167.744 48 168.404 48.04 169.224 48.04ZM175.504 51.1C176.624 50.98 178.064 50.9 179.364 50.9C180.504 50.9 181.704 50.96 182.864 51.08L182.824 53.48C181.804 53.36 180.584 53.22 179.384 53.22C178.004 53.22 176.764 53.28 175.504 53.44V51.1ZM176.584 56.12C176.444 56.7 176.324 57.34 176.324 57.78C176.324 58.66 176.904 59.32 179.064 59.32C180.404 59.32 181.784 59.18 183.204 58.92L183.104 61.46C181.984 61.62 180.644 61.74 179.044 61.74C175.664 61.74 173.864 60.6 173.864 58.58C173.864 57.64 174.044 56.68 174.204 55.9L176.584 56.12ZM194.084 45.22C193.964 45.74 193.844 46.38 193.724 46.88C193.544 47.78 193.284 49.02 193.084 50.04C192.424 52.86 190.804 58.56 188.724 61.94L186.104 60.9C188.484 57.7 189.984 52.42 190.544 49.9C190.924 48.1 191.144 46.4 191.124 44.9L194.084 45.22ZM200.984 47.08C202.204 48.82 203.884 52.62 204.504 54.54L201.964 55.72C201.444 53.48 200.024 49.88 198.584 48.1L200.984 47.08ZM185.984 49.32C186.704 49.36 187.384 49.34 188.124 49.32C189.724 49.28 193.504 48.84 195.004 48.84C197.104 48.84 198.604 49.78 198.604 52.68C198.604 55.04 198.324 58.28 197.484 60C196.804 61.4 195.704 61.84 194.204 61.84C193.424 61.84 192.484 61.72 191.784 61.56L191.364 58.92C192.144 59.14 193.284 59.34 193.804 59.34C194.484 59.34 194.984 59.14 195.304 58.48C195.864 57.36 196.124 54.92 196.124 52.96C196.124 51.36 195.424 51.12 194.184 51.12C192.984 51.12 189.544 51.56 188.444 51.7C187.864 51.78 186.824 51.92 186.224 52.02L185.984 49.32ZM211.524 44.9C213.424 45.5 217.784 46.28 219.544 46.46L218.944 48.92C216.904 48.64 212.464 47.72 210.904 47.32L211.524 44.9ZM211.664 48.92C211.384 50.04 211.044 52.46 210.904 53.62C212.704 52.3 214.704 51.7 216.804 51.7C220.304 51.7 222.344 53.86 222.344 56.28C222.344 59.94 219.444 62.74 211.144 62.02L210.364 59.4C216.384 60.24 219.544 58.78 219.544 56.22C219.544 54.92 218.324 53.98 216.564 53.98C214.304 53.98 212.284 54.82 211.024 56.34C210.664 56.76 210.444 57.08 210.284 57.48L207.964 56.92C208.364 54.96 208.844 51.04 208.964 48.56L211.664 48.92ZM229.964 62.38C228.744 60.9 227.044 59.18 225.644 57.98L227.744 56.18C229.164 57.34 231.084 59.3 232.104 60.54L229.964 62.38ZM48.7491 75.66C51.6691 76 54.1091 76.04 56.2291 75.88C58.0491 75.76 59.6891 75.44 61.3491 74.92L61.6691 77.2C60.2291 77.6 58.4891 77.94 56.7491 78.06C54.6891 78.22 51.9291 78.24 48.8891 77.94L48.7491 75.66ZM48.3891 79.84C51.9891 80.2 55.2291 80.14 57.6291 79.9C59.7891 79.72 61.2891 79.32 62.4491 78.98L62.8491 81.34C61.6491 81.64 60.1691 81.92 58.5491 82.1C56.0291 82.38 52.1291 82.44 48.5291 82.2L48.3891 79.84ZM55.0691 76.22C54.8691 75.48 54.6291 74.74 54.3491 73.96L57.0291 73.66C57.2691 75.58 57.7691 77.34 58.2891 78.88C58.7691 80.28 59.7491 82.34 60.6691 83.74C60.9491 84.14 61.2091 84.44 61.5691 84.78L60.3691 86.62C59.2491 86.38 57.0691 86.14 55.6091 85.98L55.8091 84.06C56.6491 84.14 57.7491 84.24 58.3291 84.3C57.2691 82.52 56.5291 80.78 56.0291 79.32C55.5291 77.9 55.3291 77.18 55.0691 76.22ZM52.2291 84.5C51.7491 85.16 51.3291 85.84 51.3291 86.7C51.3291 88.18 52.7291 88.78 55.3891 88.78C57.2691 88.78 58.9691 88.64 60.4091 88.36L60.2691 90.9C58.8691 91.12 57.0291 91.26 55.3891 91.26C51.4091 91.26 48.9291 90.08 48.8691 87.24C48.8491 85.94 49.2691 84.96 49.7491 84.02L52.2291 84.5ZM84.9691 88.96C84.0291 89.82 82.8291 90.46 81.1891 90.46C79.6891 90.46 78.6891 89.38 78.6891 87.44C78.6891 85.26 79.4091 82.34 79.4091 80.5C79.4091 79.52 78.9091 79.04 78.0491 79.04C76.1891 79.04 73.2091 81.98 71.6091 84.02L71.5891 80.94C72.8091 79.66 76.1491 76.66 78.7891 76.66C80.9491 76.66 81.9291 77.94 81.9291 79.62C81.9291 81.68 81.2691 84.62 81.2691 86.7C81.2691 87.22 81.5491 87.58 82.0491 87.58C82.7891 87.58 83.7291 87.06 84.6291 86.16L84.9691 88.96ZM71.1491 79.44C70.2491 79.54 68.3491 79.78 67.0291 79.98L66.7691 77.4C67.3291 77.42 67.7891 77.42 68.5091 77.38C69.7691 77.32 72.3291 76.94 73.2291 76.64L74.0291 77.68C73.6891 78.14 73.0691 79.12 72.7291 79.64L71.5691 83.4C70.6891 84.68 68.9091 87.36 67.8491 88.82L66.2891 86.62C67.5491 85.06 69.9491 81.9 70.9491 80.32L70.9891 79.8L71.1491 79.44ZM70.9091 75.58C70.9091 75.02 70.9291 74.42 70.8091 73.8L73.7291 73.88C73.3891 75.48 72.7291 80.72 72.7291 84.3C72.7291 85.92 72.7291 87.62 72.8491 89.48C72.8691 89.84 72.9491 90.58 72.9891 91.02H70.2491C70.2891 90.56 70.3091 89.86 70.3091 89.54C70.3291 87.6 70.3491 86.26 70.4091 83.76C70.4691 81.98 70.9091 76.38 70.9091 75.58ZM90.6491 75.72C90.5091 76.42 90.4091 77.6 90.4091 78.16C90.4091 79.46 90.4091 80.94 90.5291 82.4C90.8091 85.28 91.4091 87.26 92.6691 87.26C93.6291 87.26 94.4091 84.9 94.7891 83.32L96.8091 85.74C95.4691 89.24 94.2291 90.44 92.6291 90.44C90.4091 90.44 88.5091 88.48 87.9491 83.12C87.7491 81.28 87.7291 78.92 87.7291 77.7C87.7291 77.16 87.7091 76.3 87.5691 75.68L90.6491 75.72ZM100.649 76.16C102.549 78.46 104.089 83.46 104.309 86.52L101.669 87.56C101.369 84.32 100.289 79.48 98.1091 77L100.649 76.16ZM114.409 76.02C116.869 76.36 120.869 76.26 123.009 76V78.58C120.569 78.82 116.929 78.82 114.429 78.58L114.409 76.02ZM116.009 84.56C115.849 85.24 115.769 85.72 115.769 86.24C115.769 87.14 116.549 87.68 118.589 87.68C120.369 87.68 121.849 87.52 123.589 87.14L123.649 89.84C122.349 90.1 120.729 90.24 118.469 90.24C115.029 90.24 113.369 89 113.369 86.96C113.369 86.16 113.489 85.38 113.729 84.36L116.009 84.56ZM111.329 74.68C111.189 75.1 110.929 76.12 110.849 76.48C110.569 77.8 109.869 81.8 109.869 83.8C109.869 84.2 109.889 84.7 109.949 85.1C110.249 84.42 110.569 83.74 110.869 83.06L112.109 84.04C111.529 85.72 110.869 87.88 110.669 88.94C110.609 89.24 110.549 89.68 110.549 89.88C110.569 90.1 110.569 90.44 110.589 90.72L108.289 90.86C107.889 89.5 107.509 87.06 107.509 84.34C107.509 81.32 108.109 77.96 108.329 76.4C108.409 75.86 108.509 75.1 108.529 74.46L111.329 74.68ZM132.889 74.14C132.769 74.98 132.669 76.02 132.629 76.82C132.529 78.98 132.389 83.44 132.389 85.92C132.389 87.94 133.589 88.6 135.149 88.6C138.449 88.6 140.529 86.7 141.989 84.52L143.809 86.74C142.509 88.66 139.669 91.32 135.109 91.32C131.829 91.32 129.729 89.88 129.729 86.46C129.729 83.78 129.909 78.54 129.909 76.82C129.909 75.86 129.829 74.9 129.669 74.12L132.889 74.14ZM147.109 76.9C147.969 77 149.049 77.04 149.769 77.04C152.249 77.04 154.949 76.62 156.889 76L156.949 78.32C155.229 78.8 152.349 79.32 149.789 79.3C148.989 79.3 148.149 79.28 147.289 79.24L147.109 76.9ZM154.889 73.9C154.629 74.96 154.149 76.92 153.609 78.62C152.689 81.5 150.889 85.22 149.189 87.58L146.769 86.34C148.569 84.14 150.369 80.64 151.149 78.48C151.629 77.04 152.069 75.18 152.129 73.64L154.889 73.9ZM159.589 80.14C159.529 80.98 159.549 81.82 159.569 82.7C159.609 83.88 159.789 86.86 159.789 87.98C159.789 89.84 158.789 91.3 155.929 91.3C153.449 91.3 151.489 90.18 151.489 87.98C151.489 86.04 153.129 84.52 155.909 84.52C159.409 84.52 162.169 86.28 163.829 87.78L162.509 89.94C161.069 88.6 158.789 86.54 155.769 86.54C154.609 86.54 153.849 87.04 153.849 87.74C153.849 88.48 154.489 89 155.589 89C156.949 89 157.389 88.24 157.389 87.12C157.389 85.92 157.169 82.24 157.069 80.14H159.589ZM163.029 81.2C161.869 80.26 159.589 78.96 158.209 78.34L159.509 76.38C160.949 77 163.409 78.34 164.449 79.08L163.029 81.2ZM170.649 75.72C170.509 76.42 170.409 77.6 170.409 78.16C170.409 79.46 170.409 80.94 170.529 82.4C170.809 85.28 171.409 87.26 172.669 87.26C173.629 87.26 174.409 84.9 174.789 83.32L176.809 85.74C175.469 89.24 174.229 90.44 172.629 90.44C170.409 90.44 168.509 88.48 167.949 83.12C167.749 81.28 167.729 78.92 167.729 77.7C167.729 77.16 167.709 76.3 167.569 75.68L170.649 75.72ZM180.649 76.16C182.549 78.46 184.089 83.46 184.309 86.52L181.669 87.56C181.369 84.32 180.289 79.48 178.109 77L180.649 76.16ZM202.129 78.34C201.509 78.7 200.869 79.06 200.129 79.42C198.889 80.04 196.389 81.22 194.549 82.4C192.889 83.48 191.769 84.64 191.769 86.02C191.769 87.46 193.169 88.24 195.949 88.24C197.989 88.24 200.689 87.92 202.469 87.5L202.449 90.38C200.729 90.66 198.629 90.88 196.029 90.88C192.029 90.88 189.009 89.76 189.009 86.32C189.009 83.78 190.869 82 193.249 80.44C195.149 79.18 197.669 77.94 198.889 77.24C199.649 76.8 200.209 76.46 200.729 76.04L202.129 78.34ZM192.069 74.06C193.029 76.72 194.289 79.12 195.229 80.8L192.949 82.12C191.849 80.3 190.649 77.68 189.549 75.1L192.069 74.06ZM210.649 75.72C210.509 76.42 210.409 77.6 210.409 78.16C210.409 79.46 210.409 80.94 210.529 82.4C210.809 85.28 211.409 87.26 212.669 87.26C213.629 87.26 214.409 84.9 214.789 83.32L216.809 85.74C215.469 89.24 214.229 90.44 212.629 90.44C210.409 90.44 208.509 88.48 207.949 83.12C207.749 81.28 207.729 78.92 207.729 77.7C207.729 77.16 207.709 76.3 207.569 75.68L210.649 75.72ZM220.649 76.16C222.549 78.46 224.089 83.46 224.309 86.52L221.669 87.56C221.369 84.32 220.289 79.48 218.109 77L220.649 76.16ZM234.429 84.86L233.909 78.02L233.809 75.04H237.109L237.009 78.02L236.489 84.86H234.429ZM235.469 90.2C234.429 90.2 233.689 89.46 233.689 88.42C233.689 87.38 234.449 86.66 235.469 86.66C236.469 86.66 237.229 87.38 237.229 88.42C237.229 89.46 236.469 90.2 235.469 90.2Z" fill="#2F3B53"/>
</svg>
