<svg width="290" height="181" viewBox="0 0 290 181" fill="none" xmlns="http://www.w3.org/2000/svg">
<mask id="path-1-inside-1_2484_2332" fill="white">
<path fill-rule="evenodd" clip-rule="evenodd" d="M20 0C8.95431 0 0 8.95431 0 20V117C0 128.046 8.9543 137 20 137H150.4L148.333 180.218L198.429 137H270C281.046 137 290 128.046 290 117V20C290 8.9543 281.046 0 270 0H20Z"/>
</mask>
<path fill-rule="evenodd" clip-rule="evenodd" d="M20 0C8.95431 0 0 8.95431 0 20V117C0 128.046 8.9543 137 20 137H150.4L148.333 180.218L198.429 137H270C281.046 137 290 128.046 290 117V20C290 8.9543 281.046 0 270 0H20Z" fill="white"/>
<path d="M150.4 137L152.398 137.096L152.498 135H150.4V137ZM148.333 180.218L146.335 180.122L146.113 184.775L149.64 181.732L148.333 180.218ZM198.429 137V135H197.685L197.122 135.486L198.429 137ZM2 20C2 10.0589 10.0589 2 20 2V-2C7.84974 -2 -2 7.84974 -2 20H2ZM2 117V20H-2V117H2ZM20 135C10.0589 135 2 126.941 2 117H-2C-2 129.15 7.84973 139 20 139V135ZM150.4 135H20V139H150.4V135ZM150.331 180.313L152.398 137.096L148.403 136.904L146.335 180.122L150.331 180.313ZM197.122 135.486L147.027 178.703L149.64 181.732L199.735 138.514L197.122 135.486ZM270 135H198.429V139H270V135ZM288 117C288 126.941 279.941 135 270 135V139C282.15 139 292 129.15 292 117H288ZM288 20V117H292V20H288ZM270 2C279.941 2 288 10.0589 288 20H292C292 7.84974 282.15 -2 270 -2V2ZM20 2H270V-2H20V2Z" fill="#2F3B53" mask="url(#path-1-inside-1_2484_2332)"/>
<path d="M75.5291 46.26H84.2491V48.08H75.5291V46.26ZM75.4491 52.88H84.1891V54.7H75.4491V52.88ZM75.1091 49.82H84.7091V51.66H75.1091V49.82ZM76.4491 48.18L78.2891 47.82C78.5691 48.4 78.8491 49.2 78.9291 49.7L77.0091 50.1C76.9291 49.6 76.6891 48.78 76.4491 48.18ZM68.2891 51.82H70.2091V55.8H68.2891V51.82ZM78.6891 50.72H80.8891V56.8H78.6891V50.72ZM67.1091 45.74H69.1691V48.82C69.1691 51.06 68.8291 54.34 67.3091 56.48C67.0291 56.02 66.1891 55.12 65.7891 54.82C66.9891 53.04 67.1091 50.6 67.1091 48.8V45.74ZM81.1491 47.82L83.2091 48.1C82.8891 48.86 82.6691 49.52 82.4491 50.04L80.6091 49.76C80.7891 49.18 81.0491 48.38 81.1491 47.82ZM68.1891 45.74H74.6491V50.52H68.1891V48.72H72.4891V47.52H68.1891V45.74ZM68.2891 51.52H74.7491V56.28H68.2891V54.54H72.6691V53.26H68.2891V51.52ZM66.5091 61.16H84.5291V63.24H66.5091V61.16ZM68.3691 57.64H82.8691V59.66H68.3691V57.64ZM74.1891 56.58H76.6691V62.4H74.1891V56.58ZM78.6891 45.26H80.8891V47.6H78.6891V45.26ZM94.5491 46.36C94.4291 46.88 94.3091 47.52 94.2091 48.02C94.0091 48.92 93.7691 50.16 93.5491 51.18C92.8891 54 91.2891 59.7 89.1891 63.08L86.5691 62.04C88.9491 58.84 90.4491 53.56 91.0091 51.04C91.3891 49.24 91.6091 47.54 91.5891 46.04L94.5491 46.36ZM101.449 48.36C102.669 50.1 104.349 53.82 104.969 55.72L102.429 56.9C101.909 54.68 100.489 51.16 99.0491 49.38L101.449 48.36ZM86.4491 50.46C87.1691 50.5 87.8491 50.48 88.5891 50.46C90.1891 50.42 93.9891 49.98 95.4691 49.98C97.5891 49.98 99.0891 50.92 99.0891 53.82C99.0891 56.18 98.7891 59.42 97.9491 61.14C97.2891 62.54 96.1691 62.98 94.6691 62.98C93.8891 62.98 92.9491 62.86 92.2691 62.7L91.8291 60.06C92.6091 60.28 93.7491 60.48 94.2691 60.48C94.9491 60.48 95.4691 60.28 95.7691 59.62C96.3291 58.5 96.5891 56.06 96.5891 54.1C96.5891 52.5 95.9091 52.26 94.6491 52.26C93.4691 52.26 90.0091 52.7 88.9091 52.84C88.3291 52.92 87.2891 53.06 86.6891 53.16L86.4491 50.46ZM101.089 45.6C101.589 46.32 102.289 47.6 102.669 48.34L101.069 49.02C100.649 48.2 100.029 47.02 99.4891 46.24L101.089 45.6ZM103.449 44.68C103.969 45.44 104.709 46.72 105.069 47.42L103.469 48.1C103.069 47.26 102.409 46.1 101.869 45.34L103.449 44.68ZM118.049 46.98H120.289V58.3H118.049V46.98ZM121.889 45.42H124.189V61.02C124.189 62.3 123.929 62.94 123.209 63.34C122.469 63.74 121.349 63.8 119.749 63.8C119.649 63.14 119.329 62.1 119.009 61.42C120.069 61.46 121.089 61.46 121.429 61.46C121.769 61.44 121.889 61.34 121.889 61.02V45.42ZM107.489 45.72H114.749V47.7H107.489V45.72ZM107.989 48.68H114.629V50.54H107.989V48.68ZM106.349 51.52H117.389V53.54H106.349V51.52ZM105.849 59.82C107.229 59.1 109.369 57.84 111.349 56.62L111.989 58.4C110.309 59.58 108.469 60.86 106.969 61.84L105.849 59.82ZM111.449 57.82L112.769 56.28C114.429 57.3 116.649 58.82 117.729 59.88L116.289 61.64C115.289 60.54 113.109 58.92 111.449 57.82ZM106.489 54.92L108.109 53.76C108.969 54.54 109.849 55.6 110.269 56.36L108.569 57.66C108.169 56.88 107.289 55.74 106.489 54.92ZM115.189 53.74L117.169 54.88C116.189 56.24 115.049 57.8 114.129 58.8L112.529 57.8C113.409 56.74 114.549 55.04 115.189 53.74ZM110.789 52.52H112.989V61.5C112.989 62.56 112.809 63.14 112.129 63.46C111.429 63.78 110.469 63.82 109.129 63.82C109.049 63.22 108.789 62.34 108.509 61.74C109.309 61.78 110.189 61.78 110.449 61.78C110.709 61.76 110.789 61.7 110.789 61.46V52.52ZM113.689 45.72H113.909L114.269 45.64L115.869 45.72C115.849 47.86 115.709 50.46 115.569 52.52L113.389 52.4C113.569 50.3 113.669 47.46 113.689 45.98V45.72ZM134.549 46.36C134.429 46.88 134.309 47.52 134.209 48.02C134.009 48.92 133.769 50.16 133.549 51.18C132.889 54 131.289 59.7 129.189 63.08L126.569 62.04C128.949 58.84 130.449 53.56 131.009 51.04C131.389 49.24 131.609 47.54 131.589 46.04L134.549 46.36ZM141.449 48.36C142.669 50.1 144.349 53.82 144.969 55.72L142.429 56.9C141.909 54.68 140.489 51.16 139.049 49.38L141.449 48.36ZM126.449 50.46C127.169 50.5 127.849 50.48 128.589 50.46C130.189 50.42 133.989 49.98 135.469 49.98C137.589 49.98 139.089 50.92 139.089 53.82C139.089 56.18 138.789 59.42 137.949 61.14C137.289 62.54 136.169 62.98 134.669 62.98C133.889 62.98 132.949 62.86 132.269 62.7L131.829 60.06C132.609 60.28 133.749 60.48 134.269 60.48C134.949 60.48 135.469 60.28 135.769 59.62C136.329 58.5 136.589 56.06 136.589 54.1C136.589 52.5 135.909 52.26 134.649 52.26C133.469 52.26 130.009 52.7 128.909 52.84C128.329 52.92 127.289 53.06 126.689 53.16L126.449 50.46ZM141.089 45.6C141.589 46.32 142.289 47.6 142.669 48.34L141.069 49.02C140.649 48.2 140.029 47.02 139.489 46.24L141.089 45.6ZM143.449 44.68C143.969 45.44 144.709 46.72 145.069 47.42L143.469 48.1C143.069 47.26 142.409 46.1 141.869 45.34L143.449 44.68ZM164.969 60.96C164.029 61.82 162.829 62.46 161.189 62.46C159.689 62.46 158.689 61.38 158.689 59.44C158.689 57.26 159.409 54.34 159.409 52.5C159.409 51.52 158.909 51.04 158.049 51.04C156.189 51.04 153.209 53.98 151.609 56.02L151.589 52.94C152.809 51.66 156.149 48.66 158.789 48.66C160.949 48.66 161.929 49.94 161.929 51.62C161.929 53.68 161.269 56.62 161.269 58.7C161.269 59.22 161.549 59.58 162.049 59.58C162.789 59.58 163.729 59.06 164.629 58.16L164.969 60.96ZM151.149 51.44C150.249 51.54 148.349 51.78 147.029 51.98L146.769 49.4C147.329 49.42 147.789 49.42 148.509 49.38C149.769 49.32 152.329 48.94 153.229 48.64L154.029 49.68C153.689 50.14 153.069 51.12 152.729 51.64L151.569 55.4C150.689 56.68 148.909 59.36 147.849 60.82L146.289 58.62C147.549 57.06 149.949 53.9 150.949 52.32L150.989 51.8L151.149 51.44ZM150.909 47.58C150.909 47.02 150.929 46.42 150.809 45.8L153.729 45.88C153.389 47.48 152.729 52.72 152.729 56.3C152.729 57.92 152.729 59.62 152.849 61.48C152.869 61.84 152.949 62.58 152.989 63.02H150.249C150.289 62.56 150.309 61.86 150.309 61.54C150.329 59.6 150.349 58.26 150.409 55.76C150.469 53.98 150.909 48.38 150.909 47.58ZM174.589 61.14H181.209V62.96H174.589V61.14ZM175.589 50.44H181.829V52.2H175.589V50.44ZM172.909 57.52H182.869V63.78H180.509V59.32H175.169V63.78H172.909V57.52ZM175.629 51.88C177.609 53.66 181.549 55.24 185.169 55.94C184.689 56.42 184.049 57.32 183.729 57.88C180.109 57 176.149 55.12 173.729 52.88L175.629 51.88ZM181.369 50.44H181.809L182.189 50.34L183.709 51.26C181.429 54.86 176.649 57.1 172.109 58.2C171.869 57.64 171.349 56.74 170.929 56.28C175.129 55.48 179.689 53.42 181.369 50.78V50.44ZM166.409 61.92C167.509 60.86 169.109 59.08 170.449 57.4L171.869 59.14C170.729 60.68 169.389 62.34 168.129 63.78L166.409 61.92ZM167.329 50.82L168.689 49.2C169.729 49.74 171.329 50.6 172.149 51.16L170.729 52.96C169.969 52.4 168.389 51.44 167.329 50.82ZM166.069 54.78L167.449 53.14C168.529 53.68 170.109 54.58 170.889 55.18L169.449 56.98C168.709 56.38 167.169 55.4 166.069 54.78ZM175.369 49.08L177.669 49.56C176.369 51.5 174.729 53.38 172.589 55.04C172.209 54.58 171.449 53.9 170.929 53.6C172.929 52.28 174.469 50.5 175.369 49.08ZM170.749 45.02H173.109V49.56H170.749V45.02ZM177.689 45.02H180.049V49.56H177.689V45.02ZM166.569 46.14H184.369V48.24H166.569V46.14ZM194.509 46.06C194.309 46.78 194.189 47.46 194.029 48.1C193.709 49.7 193.109 52.64 192.509 54.5C194.129 53.62 195.689 53.26 197.489 53.26C200.709 53.26 202.869 54.96 202.869 57.54C202.869 62.02 198.529 63.66 192.049 62.96L191.349 60.38C195.749 61.08 200.169 60.56 200.169 57.6C200.169 56.42 199.129 55.4 197.169 55.4C194.869 55.4 192.829 56.24 191.649 57.76C191.429 58.04 191.269 58.28 191.089 58.62L188.729 57.8C190.209 54.88 191.329 50.02 191.589 47.96C191.689 47.12 191.709 46.6 191.669 45.94L194.509 46.06ZM187.529 48.4C188.829 48.62 190.429 48.78 191.669 48.78C194.229 48.78 198.029 48.48 201.309 47.78L201.369 50.18C198.829 50.6 194.589 51.08 191.689 51.08C190.169 51.08 188.729 51 187.549 50.88L187.529 48.4ZM206.889 48.26C207.669 48.24 208.469 48.2 208.849 48.16C210.529 48 213.809 47.72 217.489 47.4C219.549 47.22 221.729 47.1 223.149 47.04L223.169 49.62C222.089 49.62 220.369 49.64 219.289 49.88C216.889 50.52 215.069 53.12 215.069 55.48C215.069 58.78 218.149 59.96 221.529 60.14L220.609 62.88C216.409 62.62 212.449 60.36 212.449 56.02C212.449 53.14 214.069 50.88 215.429 49.86C213.549 50.06 209.469 50.48 207.149 51L206.889 48.26ZM28.7491 76.66C31.6691 77 34.1091 77.04 36.2291 76.88C38.0491 76.76 39.6891 76.44 41.3491 75.92L41.6691 78.2C40.2291 78.6 38.4891 78.94 36.7491 79.06C34.6891 79.22 31.9291 79.24 28.8891 78.94L28.7491 76.66ZM28.3891 80.84C31.9891 81.2 35.2291 81.14 37.6291 80.9C39.7891 80.72 41.2891 80.32 42.4491 79.98L42.8491 82.34C41.6491 82.64 40.1691 82.92 38.5491 83.1C36.0291 83.38 32.1291 83.44 28.5291 83.2L28.3891 80.84ZM35.0691 77.22C34.8691 76.48 34.6291 75.74 34.3491 74.96L37.0291 74.66C37.2691 76.58 37.7691 78.34 38.2891 79.88C38.7691 81.28 39.7491 83.34 40.6691 84.74C40.9491 85.14 41.2091 85.44 41.5691 85.78L40.3691 87.62C39.2491 87.38 37.0691 87.14 35.6091 86.98L35.8091 85.06C36.6491 85.14 37.7491 85.24 38.3291 85.3C37.2691 83.52 36.5291 81.78 36.0291 80.32C35.5291 78.9 35.3291 78.18 35.0691 77.22ZM32.2291 85.5C31.7491 86.16 31.3291 86.84 31.3291 87.7C31.3291 89.18 32.7291 89.78 35.3891 89.78C37.2691 89.78 38.9691 89.64 40.4091 89.36L40.2691 91.9C38.8691 92.12 37.0291 92.26 35.3891 92.26C31.4091 92.26 28.9291 91.08 28.8691 88.24C28.8491 86.94 29.2691 85.96 29.7491 85.02L32.2291 85.5ZM54.5091 75.06C54.3091 75.78 54.1891 76.46 54.0291 77.1C53.7091 78.7 53.1091 81.64 52.5091 83.5C54.1291 82.62 55.6891 82.26 57.4891 82.26C60.7091 82.26 62.8691 83.96 62.8691 86.54C62.8691 91.02 58.5291 92.66 52.0491 91.96L51.3491 89.38C55.7491 90.08 60.1691 89.56 60.1691 86.6C60.1691 85.42 59.1291 84.4 57.1691 84.4C54.8691 84.4 52.8291 85.24 51.6491 86.76C51.4291 87.04 51.2691 87.28 51.0891 87.62L48.7291 86.8C50.2091 83.88 51.3291 79.02 51.5891 76.96C51.6891 76.12 51.7091 75.6 51.6691 74.94L54.5091 75.06ZM47.5291 77.4C48.8291 77.62 50.4291 77.78 51.6691 77.78C54.2291 77.78 58.0291 77.48 61.3091 76.78L61.3691 79.18C58.8291 79.6 54.5891 80.08 51.6891 80.08C50.1691 80.08 48.7291 80 47.5491 79.88L47.5291 77.4ZM75.4691 80.98C74.8891 80.36 74.0291 79.6 73.2891 79.08L75.0691 77.78C75.6491 78.16 76.7891 79.14 77.2691 79.68L75.4691 80.98ZM71.3891 79.34C71.5891 79.72 71.8491 80.24 71.9891 80.52C72.5691 81.62 73.6091 83.8 74.1891 85.2C74.9491 86.96 76.1091 90.4 76.6691 92.18L74.1491 92.8C73.6691 90.78 72.7091 88.02 71.9691 86.18C71.3491 84.66 70.4691 82.74 69.8491 81.7C69.6291 81.32 69.2691 80.74 68.8891 80.3L71.3891 79.34ZM67.3291 84.12C68.0891 83.92 68.8491 83.68 69.1091 83.58C72.0691 82.42 76.0091 80.4 78.4291 80.4C81.3491 80.4 82.6491 82.22 82.6491 83.96C82.6491 86.44 81.2891 87.98 78.2891 87.98C77.4291 87.98 76.3691 87.7 75.7891 87.48L75.8491 85.16C76.5691 85.5 77.4691 85.7 78.1091 85.7C79.5091 85.7 80.1891 85.02 80.1891 83.98C80.1891 83.3 79.5891 82.64 78.3291 82.64C75.7691 82.64 69.9891 85.86 68.4691 86.54L67.3291 84.12ZM88.3091 82.54C88.9091 82.44 89.8291 82.2 90.4291 82C91.8091 81.6 95.1891 80.44 97.6091 80.44C100.789 80.44 102.909 82.32 102.909 85.36C102.909 88.96 99.7091 91.44 93.3691 91.82L92.3091 89.36C96.8691 89.24 100.249 88.02 100.249 85.3C100.249 83.82 99.1291 82.76 97.3691 82.76C95.0491 82.76 91.0691 84.42 89.3491 85.14L88.3091 82.54ZM114.929 75.04C114.789 75.6 114.609 76.5 114.509 76.94C114.229 78.3 113.729 80.74 113.189 82.78C112.469 85.58 111.129 89.66 110.029 92.04L107.249 91.1C108.429 89.08 109.949 84.9 110.709 82.1C111.209 80.22 111.669 78.02 111.809 76.84C111.909 76.1 111.929 75.28 111.869 74.8L114.929 75.04ZM109.829 78.04C112.269 78.04 115.089 77.66 117.689 77.04V79.54C115.209 80.12 112.069 80.46 109.809 80.46C108.829 80.46 108.089 80.42 107.389 80.38L107.309 77.88C108.349 78 109.009 78.04 109.829 78.04ZM116.109 81.1C117.229 80.98 118.669 80.9 119.969 80.9C121.109 80.9 122.309 80.96 123.469 81.08L123.429 83.48C122.409 83.36 121.189 83.22 119.989 83.22C118.609 83.22 117.369 83.28 116.109 83.44V81.1ZM117.189 86.12C117.049 86.7 116.929 87.34 116.929 87.78C116.929 88.66 117.509 89.32 119.669 89.32C121.009 89.32 122.389 89.18 123.809 88.92L123.709 91.46C122.589 91.62 121.249 91.74 119.649 91.74C116.269 91.74 114.469 90.6 114.469 88.58C114.469 87.64 114.649 86.68 114.809 85.9L117.189 86.12ZM130.569 92.38C129.349 90.9 127.649 89.18 126.249 87.98L128.349 86.18C129.769 87.34 131.689 89.3 132.709 90.54L130.569 92.38ZM148.689 89.68H164.609V91.9H148.689V89.68ZM146.589 75.66H164.389V77.86H146.589V75.66ZM147.509 79.58H149.869V92.84H147.509V79.58ZM153.769 83.22V84.24H159.929V83.22H153.769ZM153.769 85.82V86.84H159.929V85.82H153.769ZM153.769 80.64V81.64H159.929V80.64H153.769ZM151.489 78.96H162.309V88.54H151.489V78.96ZM154.529 73.94L157.349 74.04C157.069 76.18 156.649 78.4 156.309 79.86L153.929 79.7C154.209 78.12 154.469 75.72 154.529 73.94ZM175.589 76.82C175.449 76.36 175.209 75.64 174.969 74.98L177.669 74.66C177.969 76.2 178.449 77.78 178.929 79.06C179.549 80.74 180.489 82.46 181.149 83.38C181.489 83.88 181.849 84.3 182.209 84.72L180.989 86.5C179.869 86.28 177.329 86.02 175.649 85.88L175.849 83.76C176.829 83.86 178.149 83.96 178.769 84.02C178.049 82.84 177.169 81.16 176.549 79.5C176.109 78.4 175.829 77.48 175.589 76.82ZM168.309 77.76C172.049 78.2 175.089 78.18 177.489 77.92C179.269 77.7 181.029 77.36 182.609 76.88L182.909 79.38C181.589 79.76 179.869 80.06 178.269 80.24C175.609 80.56 172.449 80.64 168.349 80.3L168.309 77.76ZM172.329 84.56C171.669 85.52 171.349 86.4 171.349 87.26C171.349 88.96 172.849 89.66 175.589 89.68C177.769 89.68 179.529 89.46 180.929 89.18L180.789 91.72C179.649 91.92 177.849 92.18 175.429 92.18C171.329 92.18 168.769 90.6 168.769 87.7C168.769 86.48 169.149 85.34 169.829 83.98L172.329 84.56ZM187.109 77.9C187.969 78 189.049 78.04 189.769 78.04C192.249 78.04 194.949 77.62 196.889 77L196.949 79.32C195.229 79.8 192.349 80.32 189.789 80.3C188.989 80.3 188.149 80.28 187.289 80.24L187.109 77.9ZM194.889 74.9C194.629 75.96 194.149 77.92 193.609 79.62C192.689 82.5 190.889 86.22 189.189 88.58L186.769 87.34C188.569 85.14 190.369 81.64 191.149 79.48C191.629 78.04 192.069 76.18 192.129 74.64L194.889 74.9ZM199.589 81.14C199.529 81.98 199.549 82.82 199.569 83.7C199.609 84.88 199.789 87.86 199.789 88.98C199.789 90.84 198.789 92.3 195.929 92.3C193.449 92.3 191.489 91.18 191.489 88.98C191.489 87.04 193.129 85.52 195.909 85.52C199.409 85.52 202.169 87.28 203.829 88.78L202.509 90.94C201.069 89.6 198.789 87.54 195.769 87.54C194.609 87.54 193.849 88.04 193.849 88.74C193.849 89.48 194.489 90 195.589 90C196.949 90 197.389 89.24 197.389 88.12C197.389 86.92 197.169 83.24 197.069 81.14H199.589ZM203.029 82.2C201.869 81.26 199.589 79.96 198.209 79.34L199.509 77.38C200.949 78 203.409 79.34 204.449 80.08L203.029 82.2ZM210.649 76.72C210.509 77.42 210.409 78.6 210.409 79.16C210.409 80.46 210.409 81.94 210.529 83.4C210.809 86.28 211.409 88.26 212.669 88.26C213.629 88.26 214.409 85.9 214.789 84.32L216.809 86.74C215.469 90.24 214.229 91.44 212.629 91.44C210.409 91.44 208.509 89.48 207.949 84.12C207.749 82.28 207.729 79.92 207.729 78.7C207.729 78.16 207.709 77.3 207.569 76.68L210.649 76.72ZM220.649 77.16C222.549 79.46 224.089 84.46 224.309 87.52L221.669 88.56C221.369 85.32 220.289 80.48 218.109 78L220.649 77.16ZM242.129 79.34C241.509 79.7 240.869 80.06 240.129 80.42C238.889 81.04 236.389 82.22 234.549 83.4C232.889 84.48 231.769 85.64 231.769 87.02C231.769 88.46 233.169 89.24 235.949 89.24C237.989 89.24 240.689 88.92 242.469 88.5L242.449 91.38C240.729 91.66 238.629 91.88 236.029 91.88C232.029 91.88 229.009 90.76 229.009 87.32C229.009 84.78 230.869 83 233.249 81.44C235.149 80.18 237.669 78.94 238.889 78.24C239.649 77.8 240.209 77.46 240.729 77.04L242.129 79.34ZM232.069 75.06C233.029 77.72 234.289 80.12 235.229 81.8L232.949 83.12C231.849 81.3 230.649 78.68 229.549 76.1L232.069 75.06ZM254.429 85.86L253.909 79.02L253.809 76.04H257.109L257.009 79.02L256.489 85.86H254.429ZM255.469 91.2C254.429 91.2 253.689 90.46 253.689 89.42C253.689 88.38 254.449 87.66 255.469 87.66C256.469 87.66 257.229 88.38 257.229 89.42C257.229 90.46 256.469 91.2 255.469 91.2Z" fill="#2F3B53"/>
</svg>
