<svg width="290" height="181" viewBox="0 0 290 181" fill="none" xmlns="http://www.w3.org/2000/svg">
<mask id="path-1-inside-1_2077_2417" fill="white">
<path fill-rule="evenodd" clip-rule="evenodd" d="M20 0C8.95431 0 0 8.95431 0 20V117C0 128.046 8.9543 137 20 137H150.4L148.333 180.218L198.429 137H270C281.046 137 290 128.046 290 117V20C290 8.9543 281.046 0 270 0H20Z"/>
</mask>
<path fill-rule="evenodd" clip-rule="evenodd" d="M20 0C8.95431 0 0 8.95431 0 20V117C0 128.046 8.9543 137 20 137H150.4L148.333 180.218L198.429 137H270C281.046 137 290 128.046 290 117V20C290 8.9543 281.046 0 270 0H20Z" fill="white"/>
<path d="M150.4 137L152.398 137.096L152.498 135H150.4V137ZM148.333 180.218L146.335 180.122L146.113 184.775L149.64 181.732L148.333 180.218ZM198.429 137V135H197.685L197.122 135.486L198.429 137ZM2 20C2 10.0589 10.0589 2 20 2V-2C7.84974 -2 -2 7.84974 -2 20H2ZM2 117V20H-2V117H2ZM20 135C10.0589 135 2 126.941 2 117H-2C-2 129.15 7.84973 139 20 139V135ZM150.4 135H20V139H150.4V135ZM150.331 180.313L152.398 137.096L148.403 136.904L146.335 180.122L150.331 180.313ZM197.122 135.486L147.027 178.703L149.64 181.732L199.735 138.514L197.122 135.486ZM270 135H198.429V139H270V135ZM288 117C288 126.941 279.941 135 270 135V139C282.15 139 292 129.15 292 117H288ZM288 20V117H292V20H288ZM270 2C279.941 2 288 10.0589 288 20H292C292 7.84974 282.15 -2 270 -2V2ZM20 2H270V-2H20V2Z" fill="#2F3B53" mask="url(#path-1-inside-1_2077_2417)"/>
<path d="M23.3286 54.82C26.6686 54.72 31.8286 54.54 36.5286 54.32L36.4686 56.32C31.9086 56.56 26.9686 56.76 23.6486 56.9L23.3286 54.82ZM26.7486 58.48H29.0886V61.08C29.0886 61.64 29.2286 61.7 30.0886 61.7C30.4686 61.7 32.1086 61.7 32.5886 61.7C33.3086 61.7 33.4486 61.46 33.5286 59.8C33.9886 60.14 34.9686 60.5 35.5886 60.62C35.3286 63.08 34.6886 63.72 32.8286 63.72C32.3086 63.72 30.2886 63.72 29.7886 63.72C27.3286 63.72 26.7486 63.08 26.7486 61.12V58.48ZM28.4286 51.48L30.9086 52.08C30.0286 53.52 28.9686 55 28.1486 56L26.1886 55.4C26.9686 54.32 27.9086 52.68 28.4286 51.48ZM34.8086 58.96L36.8086 57.96C38.1286 59.26 39.5886 61.08 40.1886 62.38L38.0286 63.5C37.4886 62.24 36.1086 60.34 34.8086 58.96ZM24.0486 58.06L26.1286 58.8C25.5486 60.62 24.6686 62.42 23.1086 63.6L21.2086 62.14C22.5886 61.2 23.5486 59.66 24.0486 58.06ZM28.4086 57.6L30.0686 56.42C31.2286 57.16 32.6486 58.26 33.3086 59.1L31.5486 60.38C30.9086 59.56 29.5486 58.38 28.4086 57.6ZM32.7686 53.44L34.6886 52.44C36.1886 53.64 38.1286 55.36 39.0486 56.6L36.9886 57.7C36.1486 56.5 34.3086 54.7 32.7686 53.44ZM29.5686 45.04H32.0286V47.46H29.5686V45.04ZM27.4286 47.8H29.9086C29.4086 50.66 28.1886 52.36 23.2286 53.26C23.0486 52.72 22.5086 51.88 22.0686 51.44C26.2686 50.84 27.0686 49.72 27.4286 47.8ZM31.2686 47.84H33.6486V49.86C33.6486 50.32 33.7486 50.4 34.2286 50.4C34.4486 50.4 35.3286 50.4 35.5886 50.4C36.0086 50.4 36.0886 50.2 36.1686 49.1C36.6086 49.4 37.5286 49.72 38.1286 49.84C37.9286 51.7 37.3486 52.22 35.8686 52.22C35.4286 52.22 34.2486 52.22 33.8486 52.22C31.7486 52.22 31.2686 51.66 31.2686 49.88V47.84ZM22.0086 46.52H39.5886V50.06H37.1886V48.42H24.2886V50.24H22.0086V46.52ZM49.8486 46.36C49.7286 46.88 49.6086 47.52 49.5086 48.02C49.3086 48.92 49.0686 50.16 48.8486 51.18C48.1886 54 46.5886 59.7 44.4886 63.08L41.8686 62.04C44.2486 58.84 45.7486 53.56 46.3086 51.04C46.6886 49.24 46.9086 47.54 46.8886 46.04L49.8486 46.36ZM56.7486 48.36C57.9686 50.1 59.6486 53.82 60.2686 55.72L57.7286 56.9C57.2086 54.68 55.7886 51.16 54.3486 49.38L56.7486 48.36ZM41.7486 50.46C42.4686 50.5 43.1486 50.48 43.8886 50.46C45.4886 50.42 49.2886 49.98 50.7686 49.98C52.8886 49.98 54.3886 50.92 54.3886 53.82C54.3886 56.18 54.0886 59.42 53.2486 61.14C52.5886 62.54 51.4686 62.98 49.9686 62.98C49.1886 62.98 48.2486 62.86 47.5686 62.7L47.1286 60.06C47.9086 60.28 49.0486 60.48 49.5686 60.48C50.2486 60.48 50.7686 60.28 51.0686 59.62C51.6286 58.5 51.8886 56.06 51.8886 54.1C51.8886 52.5 51.2086 52.26 49.9486 52.26C48.7686 52.26 45.3086 52.7 44.2086 52.84C43.6286 52.92 42.5886 53.06 41.9886 53.16L41.7486 50.46ZM56.3886 45.6C56.8886 46.32 57.5886 47.6 57.9686 48.34L56.3686 49.02C55.9486 48.2 55.3286 47.02 54.7886 46.24L56.3886 45.6ZM58.7486 44.68C59.2686 45.44 60.0086 46.72 60.3686 47.42L58.7686 48.1C58.3686 47.26 57.7086 46.1 57.1686 45.34L58.7486 44.68ZM61.6486 48.44H79.9086V50.78H61.6486V48.44ZM65.0886 60.58H76.3286V62.86H65.0886V60.58ZM69.4486 45.02H72.0886V55.68H69.4486V45.02ZM63.6886 54.36H77.8686V63.7H75.2486V56.66H66.1686V63.78H63.6886V54.36ZM95.4486 47.6C94.8086 48.06 94.1486 48.58 93.6886 48.96C92.3886 50 89.7486 52.04 88.4086 53.2C87.3486 54.1 87.3686 54.34 88.4486 55.28C89.9486 56.54 93.7486 59.52 95.7886 61.5L93.4686 63.66C92.9086 63.02 92.3086 62.4 91.7086 61.8C90.5086 60.54 87.5686 58.02 85.7286 56.48C83.7486 54.78 83.9086 53.7 85.9086 52.04C87.4686 50.76 90.2286 48.54 91.5686 47.22C92.1486 46.66 92.7886 46 93.1086 45.52L95.4486 47.6ZM101.583 48.26C102.363 48.24 103.163 48.2 103.543 48.16C105.223 48 108.503 47.72 112.183 47.4C114.243 47.22 116.423 47.1 117.843 47.04L117.863 49.62C116.783 49.62 115.063 49.64 113.983 49.88C111.583 50.52 109.763 53.12 109.763 55.48C109.763 58.78 112.843 59.96 116.223 60.14L115.303 62.88C111.103 62.62 107.143 60.36 107.143 56.02C107.143 53.14 108.763 50.88 110.123 49.86C108.243 50.06 104.163 50.48 101.843 51L101.583 48.26ZM130.683 54.54V55.68H136.183V54.54H130.683ZM130.683 51.84V53H136.183V51.84H130.683ZM128.503 50.22H138.463V57.32H128.503V50.22ZM129.683 46L131.763 46.58C131.163 47.96 130.223 49.52 129.403 50.46C128.983 50.14 128.063 49.62 127.543 49.38C128.363 48.5 129.203 47.2 129.683 46ZM134.983 46.7L136.783 45.88C137.783 46.94 138.863 48.38 139.323 49.42L137.403 50.34C137.003 49.34 135.963 47.82 134.983 46.7ZM129.183 57.98L131.263 58.52C130.603 60.14 129.463 61.76 128.363 62.78C127.943 62.4 127.063 61.8 126.563 61.52C127.663 60.64 128.643 59.32 129.183 57.98ZM135.323 58.7L137.183 57.86C138.183 59.02 139.283 60.58 139.703 61.68L137.703 62.6C137.323 61.54 136.303 59.9 135.323 58.7ZM132.303 56.82H134.523V61.58C134.523 62.58 134.383 63.16 133.683 63.48C133.043 63.8 132.143 63.82 130.963 63.82C130.883 63.2 130.623 62.36 130.363 61.76C131.043 61.8 131.803 61.78 132.023 61.78C132.243 61.78 132.303 61.74 132.303 61.54V56.82ZM132.303 45.02H134.523V51.46H132.303V45.02ZM121.583 45.88H126.183V48.02H123.683V63.82H121.583V45.88ZM125.783 45.88H126.163L126.503 45.8L128.063 46.68C127.543 48.38 126.903 50.38 126.323 51.94C127.543 53.52 127.783 54.94 127.783 56.12C127.783 57.42 127.523 58.28 126.883 58.76C126.563 59 126.183 59.14 125.743 59.2C125.383 59.26 124.903 59.26 124.443 59.26C124.443 58.68 124.243 57.78 123.923 57.18C124.263 57.22 124.543 57.24 124.783 57.2C125.003 57.2 125.183 57.16 125.343 57.06C125.583 56.88 125.683 56.42 125.683 55.86C125.683 54.9 125.443 53.58 124.283 52.18C124.863 50.42 125.483 47.8 125.783 46.56V45.88ZM147.403 57.22H152.883V58.94H147.403V57.22ZM147.263 54.26H154.003V61.94H147.263V60.18H151.763V56.02H147.263V54.26ZM146.283 54.26H148.443V62.96H146.283V54.26ZM142.923 48.56H147.943V50.18H142.923V48.56ZM152.203 48.56H157.263V50.18H152.203V48.56ZM156.283 45.78H158.703V60.96C158.703 62.26 158.443 62.96 157.643 63.36C156.843 63.76 155.683 63.8 153.963 63.8C153.863 63.12 153.503 62 153.183 61.36C154.223 61.42 155.443 61.4 155.803 61.4C156.163 61.4 156.283 61.28 156.283 60.94V45.78ZM143.123 45.78H149.443V53.04H143.123V51.32H147.203V47.52H143.123V45.78ZM157.563 45.78V47.52H153.083V51.38H157.563V53.1H150.803V45.78H157.563ZM141.743 45.78H144.123V63.8H141.743V45.78ZM164.003 45.82H175.963V48.06H164.003V45.82ZM162.843 45.82H165.123V52.82C165.123 56.16 164.803 60.92 162.583 63.86C162.183 63.46 161.163 62.82 160.623 62.56C162.663 59.86 162.843 55.84 162.843 52.82V45.82ZM174.983 45.82H177.343C177.243 53.72 177.243 61.22 178.203 61.22C178.363 61.22 178.503 59.98 178.523 58.38C178.923 59.04 179.463 59.84 179.883 60.26C179.663 62.7 179.203 63.82 177.943 63.82C174.783 63.82 175.003 55.34 174.983 45.82ZM168.903 50.52H170.983V61.02H168.903V50.52ZM167.643 54V56.2H172.303V54H167.643ZM165.803 52.18H174.243V58.02H165.803V52.18ZM173.143 48.36L174.723 50.08C172.243 50.72 168.803 51.04 165.903 51.14C165.843 50.64 165.563 49.84 165.323 49.36C168.103 49.2 171.263 48.88 173.143 48.36ZM164.903 60.32C167.183 60.22 170.643 60 173.943 59.78V61.74C170.783 62.02 167.463 62.28 165.063 62.46L164.903 60.32ZM171.823 58.62L173.643 58.06C174.463 59.44 175.263 61.28 175.523 62.52L173.563 63.16C173.343 61.96 172.603 60.06 171.823 58.62ZM189.243 46.36C189.123 46.88 189.003 47.52 188.903 48.02C188.703 48.92 188.463 50.16 188.243 51.18C187.583 54 185.983 59.7 183.883 63.08L181.263 62.04C183.643 58.84 185.143 53.56 185.703 51.04C186.083 49.24 186.303 47.54 186.283 46.04L189.243 46.36ZM196.143 48.36C197.363 50.1 199.043 53.82 199.663 55.72L197.123 56.9C196.603 54.68 195.183 51.16 193.743 49.38L196.143 48.36ZM181.143 50.46C181.863 50.5 182.543 50.48 183.283 50.46C184.883 50.42 188.683 49.98 190.163 49.98C192.283 49.98 193.783 50.92 193.783 53.82C193.783 56.18 193.483 59.42 192.643 61.14C191.983 62.54 190.863 62.98 189.363 62.98C188.583 62.98 187.643 62.86 186.963 62.7L186.523 60.06C187.303 60.28 188.443 60.48 188.963 60.48C189.643 60.48 190.163 60.28 190.463 59.62C191.023 58.5 191.283 56.06 191.283 54.1C191.283 52.5 190.603 52.26 189.343 52.26C188.163 52.26 184.703 52.7 183.603 52.84C183.023 52.92 181.983 53.06 181.383 53.16L181.143 50.46ZM195.783 45.6C196.283 46.32 196.983 47.6 197.363 48.34L195.763 49.02C195.343 48.2 194.723 47.02 194.183 46.24L195.783 45.6ZM198.143 44.68C198.663 45.44 199.403 46.72 199.763 47.42L198.163 48.1C197.763 47.26 197.103 46.1 196.563 45.34L198.143 44.68ZM206.163 48.68H208.423V55.7H206.163V48.68ZM211.803 48.68H214.103V55.7H211.803V48.68ZM203.343 49.66H217.003V51.34H203.343V49.66ZM203.603 52.26H216.723V53.86H203.603V52.26ZM201.343 54.76H219.063V56.64H201.343V54.76ZM206.363 55.54L208.383 56.36C206.963 58.46 204.603 60.32 202.183 61.3C201.843 60.74 201.123 59.88 200.603 59.42C202.883 58.68 205.203 57.16 206.363 55.54ZM213.783 55.4C215.003 56.94 217.363 58.44 219.603 59.22C219.063 59.66 218.363 60.54 217.983 61.12C215.683 60.12 213.283 58.2 211.843 56.2L213.783 55.4ZM207.523 58.62L208.503 57.14C210.023 57.4 212.063 58 213.163 58.54L212.103 60.16C211.083 59.64 209.063 58.96 207.523 58.62ZM205.083 61.66L206.123 59.88C209.203 60.2 212.983 61.06 215.283 61.86L214.263 63.78C212.063 62.92 208.203 62.02 205.083 61.66ZM208.863 45.02H211.343V47.76H208.863V45.02ZM201.503 46.34H218.803V50.4H216.343V48.32H203.843V50.4H201.503V46.34ZM225.343 47.72C225.203 48.42 225.103 49.6 225.103 50.16C225.103 51.46 225.103 52.94 225.223 54.4C225.503 57.28 226.103 59.26 227.363 59.26C228.323 59.26 229.103 56.9 229.483 55.32L231.503 57.74C230.163 61.24 228.923 62.44 227.323 62.44C225.103 62.44 223.203 60.48 222.643 55.12C222.443 53.28 222.423 50.92 222.423 49.7C222.423 49.16 222.403 48.3 222.263 47.68L225.343 47.72ZM235.343 48.16C237.243 50.46 238.783 55.46 239.003 58.52L236.363 59.56C236.063 56.32 234.983 51.48 232.803 49L235.343 48.16ZM251.153 45.98C251.073 46.56 251.013 47.54 250.973 48.32C250.953 49.28 250.973 50.42 250.973 51.56C250.973 53.78 251.353 58.08 251.353 59.76C251.353 61.54 250.433 63.22 247.093 63.22C244.213 63.22 241.873 62.28 241.873 59.58C241.873 57.48 243.673 55.84 247.333 55.84C251.513 55.84 255.253 57.94 257.293 59.82L255.753 62.22C253.773 60.22 250.593 58.06 246.973 58.06C245.413 58.06 244.473 58.58 244.473 59.46C244.473 60.42 245.473 60.8 246.873 60.8C248.153 60.8 248.633 60.22 248.633 58.9C248.633 57.5 248.393 53.46 248.393 51.56C248.393 50.36 248.373 49.18 248.353 48.32C248.333 47.32 248.273 46.46 248.153 45.98H251.153ZM249.633 49.8C250.813 49.8 254.313 49.72 256.553 49.48L256.653 51.86C254.393 52.06 250.873 52.16 249.633 52.16V49.8ZM264.873 63.38C263.653 61.9 261.953 60.18 260.553 58.98L262.653 57.18C264.073 58.34 265.993 60.3 267.013 61.54L264.873 63.38ZM92.1706 80.64H99.6306V82.86H92.1706V80.64ZM81.3306 76H90.3306V77.96H81.3306V76ZM81.1306 83.96H90.3106V85.98H81.1306V83.96ZM81.0706 80.46H90.4906V82.44H81.0706V80.46ZM95.4106 81.6H97.7306V92.7H95.4106V81.6ZM84.6706 74.18H87.0106V76.88H84.6706V74.18ZM84.6706 82.32H87.0106V92.78H84.6706V82.32ZM91.0906 75.6L93.8906 76.38C93.8706 76.58 93.7306 76.68 93.3706 76.74V82.62C93.3706 85.6 92.9906 90.02 90.2706 92.84C89.9706 92.32 89.0906 91.5 88.5506 91.2C90.8706 88.74 91.0906 85.32 91.0906 82.58V75.6ZM97.6306 74.22L99.5506 75.96C97.5106 76.88 94.7906 77.56 92.4506 78C92.3306 77.48 91.9906 76.64 91.7106 76.18C93.8506 75.7 96.2106 74.98 97.6306 74.22ZM86.8306 86.06C87.4506 86.44 89.3706 87.94 89.8506 88.34L88.4706 90.06C87.8106 89.26 86.2906 87.76 85.5506 87.1L86.8306 86.06ZM82.3306 78.26L84.1706 77.82C84.5306 78.54 84.8106 79.52 84.9106 80.18L82.9506 80.7C82.9106 80.04 82.6506 79.02 82.3306 78.26ZM87.3106 77.78L89.4306 78.18C89.0506 79.1 88.7106 79.96 88.4106 80.58L86.5106 80.18C86.7906 79.5 87.1306 78.48 87.3106 77.78ZM84.6906 85.14L86.3906 85.76C85.4106 87.96 83.7506 90.26 82.1506 91.56C81.7706 91.04 81.0706 90.24 80.5706 89.86C82.1506 88.84 83.8106 86.9 84.6906 85.14ZM107.691 75.14C107.571 75.98 107.471 77.02 107.431 77.82C107.331 79.98 107.191 84.44 107.191 86.92C107.191 88.94 108.391 89.6 109.951 89.6C113.251 89.6 115.331 87.7 116.791 85.52L118.611 87.74C117.311 89.66 114.471 92.32 109.911 92.32C106.631 92.32 104.531 90.88 104.531 87.46C104.531 84.78 104.711 79.54 104.711 77.82C104.711 76.86 104.631 75.9 104.471 75.12L107.691 75.14ZM134.951 76.6C134.311 77.06 133.651 77.58 133.191 77.96C131.891 79 129.251 81.04 127.911 82.2C126.851 83.1 126.871 83.34 127.951 84.28C129.451 85.54 133.251 88.52 135.291 90.5L132.971 92.66C132.411 92.02 131.811 91.4 131.211 90.8C130.011 89.54 127.071 87.02 125.231 85.48C123.251 83.78 123.411 82.7 125.411 81.04C126.971 79.76 129.731 77.54 131.071 76.22C131.651 75.66 132.291 75 132.611 74.52L134.951 76.6ZM147.691 75.14C147.571 75.98 147.471 77.02 147.431 77.82C147.331 79.98 147.191 84.44 147.191 86.92C147.191 88.94 148.391 89.6 149.951 89.6C153.251 89.6 155.331 87.7 156.791 85.52L158.611 87.74C157.311 89.66 154.471 92.32 149.911 92.32C146.631 92.32 144.531 90.88 144.531 87.46C144.531 84.78 144.711 79.54 144.711 77.82C144.711 76.86 144.631 75.9 144.471 75.12L147.691 75.14ZM171.651 74.98C171.571 75.56 171.511 76.54 171.471 77.32C171.451 78.28 171.471 79.42 171.471 80.56C171.471 82.78 171.851 87.08 171.851 88.76C171.851 90.54 170.931 92.22 167.591 92.22C164.711 92.22 162.371 91.28 162.371 88.58C162.371 86.48 164.171 84.84 167.831 84.84C172.011 84.84 175.751 86.94 177.791 88.82L176.251 91.22C174.271 89.22 171.091 87.06 167.471 87.06C165.911 87.06 164.971 87.58 164.971 88.46C164.971 89.42 165.971 89.8 167.371 89.8C168.651 89.8 169.131 89.22 169.131 87.9C169.131 86.5 168.891 82.46 168.891 80.56C168.891 79.36 168.871 78.18 168.851 77.32C168.831 76.32 168.771 75.46 168.651 74.98H171.651ZM170.131 78.8C171.311 78.8 174.811 78.72 177.051 78.48L177.151 80.86C174.891 81.06 171.371 81.16 170.131 81.16V78.8ZM193.951 84.46C193.951 83.14 192.931 82.08 191.051 82.08C188.851 82.08 186.851 82.74 185.851 83.04C185.271 83.22 184.471 83.52 183.911 83.76L183.151 80.88C183.831 80.84 184.671 80.68 185.331 80.54C186.791 80.22 189.031 79.64 191.391 79.64C194.551 79.64 196.771 81.44 196.771 84.56C196.771 88.86 192.791 91.5 187.231 92.28L185.811 89.78C190.771 89.22 193.951 87.6 193.951 84.46ZM186.091 74.86C188.431 75.36 192.971 75.76 195.071 75.76L194.691 78.22C192.351 78.06 188.011 77.66 185.711 77.26L186.091 74.86ZM209.231 85.86L208.711 79.02L208.611 76.04H211.911L211.811 79.02L211.291 85.86H209.231ZM210.271 91.2C209.231 91.2 208.491 90.46 208.491 89.42C208.491 88.38 209.251 87.66 210.271 87.66C211.271 87.66 212.031 88.38 212.031 89.42C212.031 90.46 211.271 91.2 210.271 91.2Z" fill="#2F3B53"/>
</svg>
