<svg width="317" height="189" viewBox="0 0 317 189" fill="none" xmlns="http://www.w3.org/2000/svg">
<g filter="url(#filter0_d_1981_2989)">
<mask id="path-1-inside-1_1981_2989" fill="white">
<path fill-rule="evenodd" clip-rule="evenodd" d="M24 0C12.9543 0 4 8.95431 4 20V117C4 128.046 12.9543 137 24 137H164.254L162.051 180.218L215.429 137H293C304.046 137 313 128.046 313 117V20C313 8.9543 304.046 0 293 0H24Z"/>
</mask>
<path fill-rule="evenodd" clip-rule="evenodd" d="M24 0C12.9543 0 4 8.95431 4 20V117C4 128.046 12.9543 137 24 137H164.254L162.051 180.218L215.429 137H293C304.046 137 313 128.046 313 117V20C313 8.9543 304.046 0 293 0H24Z" fill="white"/>
<path d="M164.254 137L166.251 137.102L166.359 135H164.254V137ZM162.051 180.218L160.054 180.116L159.826 184.593L163.31 181.772L162.051 180.218ZM215.429 137V135H214.721L214.171 135.446L215.429 137ZM6 20C6 10.0589 14.0589 2 24 2V-2C11.8497 -2 2 7.84974 2 20H6ZM6 117V20H2V117H6ZM24 135C14.0589 135 6 126.941 6 117H2C2 129.15 11.8497 139 24 139V135ZM164.254 135H24V139H164.254V135ZM164.049 180.32L166.251 137.102L162.257 136.898L160.054 180.116L164.049 180.32ZM214.171 135.446L160.793 178.663L163.31 181.772L216.688 138.554L214.171 135.446ZM293 135H215.429V139H293V135ZM311 117C311 126.941 302.941 135 293 135V139C305.15 139 315 129.15 315 117H311ZM311 20V117H315V20H311ZM293 2C302.941 2 311 10.0589 311 20H315C315 7.84973 305.15 -2 293 -2V2ZM24 2H293V-2H24V2Z" fill="#2F3B53" mask="url(#path-1-inside-1_1981_2989)"/>
</g>
<path d="M65.3691 56.875C66.1691 56.95 66.8941 56.975 67.7441 56.975C68.8191 56.975 73.4941 56.75 75.0191 56.575C75.8441 56.5 76.4191 56.375 76.7691 56.275L78.7441 58.575C78.2191 58.9 77.2691 59.525 76.7691 59.95C74.9691 61.375 72.5191 63.425 70.8191 64.775C74.1691 64.425 78.3191 64.175 81.3441 64.175L81.3691 67.125C78.9691 66.975 76.4441 66.975 74.9191 67.175C72.6441 67.5 70.7191 69.125 70.7191 71.175C70.7191 73.15 72.2691 73.925 74.5191 74.175C75.9191 74.325 77.3941 74.3 78.3191 74.225L77.6691 77.525C71.2441 77.8 67.5191 75.85 67.5191 71.7C67.5191 70.15 68.4191 68.6 69.3441 67.75C67.0441 67.925 64.2691 68.3 61.7441 68.75L61.4691 65.725C62.7941 65.575 64.5441 65.375 65.8441 65.225C68.0691 63.75 71.3441 60.925 72.8941 59.525C71.8691 59.6 68.7691 59.75 67.7441 59.85C67.1441 59.9 66.2941 60 65.5191 60.075L65.3691 56.875ZM108.619 74.7C107.444 75.775 105.944 76.575 103.894 76.575C102.019 76.575 100.769 75.225 100.769 72.8C100.769 70.075 101.669 66.425 101.669 64.125C101.669 62.9 101.044 62.3 99.9691 62.3C97.6441 62.3 93.9191 65.975 91.9191 68.525L91.8941 64.675C93.4191 63.075 97.5941 59.325 100.894 59.325C103.594 59.325 104.819 60.925 104.819 63.025C104.819 65.6 103.994 69.275 103.994 71.875C103.994 72.525 104.344 72.975 104.969 72.975C105.894 72.975 107.069 72.325 108.194 71.2L108.619 74.7ZM91.3441 62.8C90.2191 62.925 87.8441 63.225 86.1941 63.475L85.8691 60.25C86.5691 60.275 87.1441 60.275 88.0441 60.225C89.6191 60.15 92.8191 59.675 93.9441 59.3L94.9441 60.6C94.5191 61.175 93.7441 62.4 93.3191 63.05L91.8691 67.75C90.7691 69.35 88.5441 72.7 87.2191 74.525L85.2691 71.775C86.8441 69.825 89.8441 65.875 91.0941 63.9L91.1441 63.25L91.3441 62.8ZM91.0441 57.975C91.0441 57.275 91.0691 56.525 90.9191 55.75L94.5691 55.85C94.1441 57.85 93.3191 64.4 93.3191 68.875C93.3191 70.9 93.3191 73.025 93.4691 75.35C93.4941 75.8 93.5941 76.725 93.6441 77.275H90.2191C90.2691 76.7 90.2941 75.825 90.2941 75.425C90.3191 73 90.3441 71.325 90.4191 68.2C90.4941 65.975 91.0441 58.975 91.0441 57.975ZM124.569 58.35C125.269 59.4 126.369 61.2 126.944 62.35L124.694 63.325C123.944 61.75 123.319 60.55 122.394 59.25L124.569 58.35ZM127.919 56.975C128.669 57.975 129.794 59.75 130.369 60.875L128.194 61.925C127.394 60.35 126.694 59.2 125.769 57.95L127.919 56.975ZM118.119 56.325C117.969 57.4 117.844 58.675 117.794 59.675C117.694 62.35 117.494 67.95 117.494 71.05C117.494 73.575 118.994 74.4 120.944 74.4C125.069 74.4 127.694 72.025 129.494 69.3L131.769 72.075C130.144 74.45 126.619 77.8 120.919 77.8C116.819 77.8 114.169 76 114.169 71.725C114.169 68.375 114.419 61.8 114.419 59.675C114.419 58.475 114.319 57.275 114.094 56.3L118.119 56.325ZM146.744 63.475C146.019 62.7 144.944 61.75 144.019 61.1L146.244 59.475C146.969 59.95 148.394 61.175 148.994 61.85L146.744 63.475ZM141.644 61.425C141.894 61.9 142.219 62.55 142.394 62.9C143.119 64.275 144.419 67 145.144 68.75C146.094 70.95 147.544 75.25 148.244 77.475L145.094 78.25C144.494 75.725 143.294 72.275 142.369 69.975C141.594 68.075 140.494 65.675 139.719 64.375C139.444 63.9 138.994 63.175 138.519 62.625L141.644 61.425ZM136.569 67.4C137.519 67.15 138.469 66.85 138.794 66.725C142.494 65.275 147.419 62.75 150.444 62.75C154.094 62.75 155.719 65.025 155.719 67.2C155.719 70.3 154.019 72.225 150.269 72.225C149.194 72.225 147.869 71.875 147.144 71.6L147.219 68.7C148.119 69.125 149.244 69.375 150.044 69.375C151.794 69.375 152.644 68.525 152.644 67.225C152.644 66.375 151.894 65.55 150.319 65.55C147.119 65.55 139.894 69.575 137.994 70.425L136.569 67.4ZM161.294 59.625C162.369 59.75 163.719 59.8 164.619 59.8C167.719 59.8 171.094 59.275 173.519 58.5L173.594 61.4C171.444 62 167.844 62.65 164.644 62.625C163.644 62.625 162.594 62.6 161.519 62.55L161.294 59.625ZM171.019 55.875C170.694 57.2 170.094 59.65 169.419 61.775C168.269 65.375 166.019 70.025 163.894 72.975L160.869 71.425C163.119 68.675 165.369 64.3 166.344 61.6C166.944 59.8 167.494 57.475 167.569 55.55L171.019 55.875ZM176.894 63.675C176.819 64.725 176.844 65.775 176.869 66.875C176.919 68.35 177.144 72.075 177.144 73.475C177.144 75.8 175.894 77.625 172.319 77.625C169.219 77.625 166.769 76.225 166.769 73.475C166.769 71.05 168.819 69.15 172.294 69.15C176.669 69.15 180.119 71.35 182.194 73.225L180.544 75.925C178.744 74.25 175.894 71.675 172.119 71.675C170.669 71.675 169.719 72.3 169.719 73.175C169.719 74.1 170.519 74.75 171.894 74.75C173.594 74.75 174.144 73.8 174.144 72.4C174.144 70.9 173.869 66.3 173.744 63.675H176.894ZM181.194 65C179.744 63.825 176.894 62.2 175.169 61.425L176.794 58.975C178.594 59.75 181.669 61.425 182.969 62.35L181.194 65ZM190.719 58.15C190.544 59.025 190.419 60.5 190.419 61.2C190.419 62.825 190.419 64.675 190.569 66.5C190.919 70.1 191.669 72.575 193.244 72.575C194.444 72.575 195.419 69.625 195.894 67.65L198.419 70.675C196.744 75.05 195.194 76.55 193.194 76.55C190.419 76.55 188.044 74.1 187.344 67.4C187.094 65.1 187.069 62.15 187.069 60.625C187.069 59.95 187.044 58.875 186.869 58.1L190.719 58.15ZM203.219 58.7C205.594 61.575 207.519 67.825 207.794 71.65L204.494 72.95C204.119 68.9 202.769 62.85 200.044 59.75L203.219 58.7ZM222.981 55.975C222.881 56.7 222.806 57.925 222.756 58.9C222.731 60.1 222.756 61.525 222.756 62.95C222.756 65.725 223.231 71.1 223.231 73.2C223.231 75.425 222.081 77.525 217.906 77.525C214.306 77.525 211.381 76.35 211.381 72.975C211.381 70.35 213.631 68.3 218.206 68.3C223.431 68.3 228.106 70.925 230.656 73.275L228.731 76.275C226.256 73.775 222.281 71.075 217.756 71.075C215.806 71.075 214.631 71.725 214.631 72.825C214.631 74.025 215.881 74.5 217.631 74.5C219.231 74.5 219.831 73.775 219.831 72.125C219.831 70.375 219.531 65.325 219.531 62.95C219.531 61.45 219.506 59.975 219.481 58.9C219.456 57.65 219.381 56.575 219.231 55.975H222.981ZM221.081 60.75C222.556 60.75 226.931 60.65 229.731 60.35L229.856 63.325C227.031 63.575 222.631 63.7 221.081 63.7V60.75ZM244.956 69.575L244.306 61.025L244.181 57.3H248.306L248.181 61.025L247.531 69.575H244.956ZM246.256 76.25C244.956 76.25 244.031 75.325 244.031 74.025C244.031 72.725 244.981 71.825 246.256 71.825C247.506 71.825 248.456 72.725 248.456 74.025C248.456 75.325 247.506 76.25 246.256 76.25Z" fill="#2F3B53"/>
<defs>
<filter id="filter0_d_1981_2989" x="0" y="0" width="317" height="188.218" filterUnits="userSpaceOnUse" color-interpolation-filters="sRGB">
<feFlood flood-opacity="0" result="BackgroundImageFix"/>
<feColorMatrix in="SourceAlpha" type="matrix" values="0 0 0 0 0 0 0 0 0 0 0 0 0 0 0 0 0 0 127 0" result="hardAlpha"/>
<feOffset dy="4"/>
<feGaussianBlur stdDeviation="2"/>
<feComposite in2="hardAlpha" operator="out"/>
<feColorMatrix type="matrix" values="0 0 0 0 0 0 0 0 0 0 0 0 0 0 0 0 0 0 0.25 0"/>
<feBlend mode="normal" in2="BackgroundImageFix" result="effect1_dropShadow_1981_2989"/>
<feBlend mode="normal" in="SourceGraphic" in2="effect1_dropShadow_1981_2989" result="shape"/>
</filter>
</defs>
</svg>
