<svg width="290" height="181" viewBox="0 0 290 181" fill="none" xmlns="http://www.w3.org/2000/svg">
<mask id="path-1-inside-1_2484_2318" fill="white">
<path fill-rule="evenodd" clip-rule="evenodd" d="M20 0C8.95431 0 0 8.95431 0 20V117C0 128.046 8.9543 137 20 137H150.4L148.333 180.218L198.429 137H270C281.046 137 290 128.046 290 117V20C290 8.9543 281.046 0 270 0H20Z"/>
</mask>
<path fill-rule="evenodd" clip-rule="evenodd" d="M20 0C8.95431 0 0 8.95431 0 20V117C0 128.046 8.9543 137 20 137H150.4L148.333 180.218L198.429 137H270C281.046 137 290 128.046 290 117V20C290 8.9543 281.046 0 270 0H20Z" fill="white"/>
<path d="M150.4 137L152.398 137.096L152.498 135H150.4V137ZM148.333 180.218L146.335 180.122L146.113 184.775L149.64 181.732L148.333 180.218ZM198.429 137V135H197.685L197.122 135.486L198.429 137ZM2 20C2 10.0589 10.0589 2 20 2V-2C7.84974 -2 -2 7.84974 -2 20H2ZM2 117V20H-2V117H2ZM20 135C10.0589 135 2 126.941 2 117H-2C-2 129.15 7.84973 139 20 139V135ZM150.4 135H20V139H150.4V135ZM150.331 180.313L152.398 137.096L148.403 136.904L146.335 180.122L150.331 180.313ZM197.122 135.486L147.027 178.703L149.64 181.732L199.735 138.514L197.122 135.486ZM270 135H198.429V139H270V135ZM288 117C288 126.941 279.941 135 270 135V139C282.15 139 292 129.15 292 117H288ZM288 20V117H292V20H288ZM270 2C279.941 2 288 10.0589 288 20H292C292 7.84974 282.15 -2 270 -2V2ZM20 2H270V-2H20V2Z" fill="#2F3B53" mask="url(#path-1-inside-1_2484_2318)"/>
<path d="M67.7321 52H73.2921V54.3H67.7321V52ZM66.5721 52H68.9521V60.34C68.9521 61.18 69.0721 61.3 69.8521 61.3C70.1921 61.3 71.6721 61.3 72.0921 61.3C72.8521 61.3 72.9921 60.82 73.0921 58.14C73.6121 58.54 74.6321 58.96 75.2721 59.12C75.0121 62.52 74.3921 63.54 72.2921 63.54C71.8121 63.54 69.9521 63.54 69.4921 63.54C67.2721 63.54 66.5721 62.84 66.5721 60.36V52ZM66.4921 45.94H74.4921V55.54H72.1721V48.24H66.4921V45.94ZM56.9721 49.48H65.3721V63.4H63.4721V51.46H58.8121V63.68H56.9721V49.48ZM57.9721 57.52H64.3721V59.18H57.9721V57.52ZM57.9721 60.56H64.3721V62.42H57.9721V60.56ZM56.6121 45.74H65.7721V47.86H56.6121V45.74ZM59.2921 46.22H60.8721V51.04H59.2921V46.22ZM61.6721 46.22H63.2721V51.04H61.6721V46.22ZM59.6921 51.02H60.7921V53.04C60.7921 54.18 60.5921 55.66 59.6521 56.7C59.4721 56.48 59.0321 56.08 58.7721 55.94C59.5921 55.06 59.6921 53.96 59.6921 53.02V51.02ZM61.4721 51.02H62.5921V54.7C62.5921 54.96 62.6121 55 62.7521 55C62.8121 55 63.0321 55 63.0921 55C63.2921 55 63.3321 54.98 63.3721 54.92C63.5921 55.12 64.0521 55.28 64.3921 55.38C64.2521 55.94 63.9121 56.16 63.2921 56.16C63.1321 56.16 62.7721 56.16 62.6121 56.16C61.7321 56.16 61.4721 55.9 61.4721 54.72V51.02ZM81.6721 61.52H91.4321V63.28H81.6721V61.52ZM84.5321 49.22H86.8521V51.62H84.5321V49.22ZM77.1521 50.6H94.5521V54.58H92.2121V52.4H79.4121V54.58H77.1521V50.6ZM81.5921 53.24H91.3921V57.72H81.5921V56H88.9921V54.96H81.5921V53.24ZM81.6921 58.62H92.9121V63.82H90.5121V60.38H81.6921V58.62ZM80.2721 53.24H82.5521V63.84H80.2721V53.24ZM79.1721 46.42H85.4721V48.3H79.1721V46.42ZM87.2721 46.42H95.0321V48.3H87.2721V46.42ZM79.2521 44.86L81.4921 45.46C80.7121 47.26 79.4321 49.08 78.2521 50.22C77.7921 49.86 76.8321 49.22 76.2921 48.94C77.4921 47.94 78.6321 46.38 79.2521 44.86ZM87.3921 44.86L89.6721 45.42C88.9521 47.14 87.7121 48.8 86.5121 49.84C86.0321 49.48 85.0121 48.96 84.4121 48.7C85.6921 47.78 86.8121 46.32 87.3921 44.86ZM79.9121 47.88L81.9521 47.34C82.4521 48.02 83.0121 48.98 83.2521 49.62L81.0921 50.24C80.9121 49.62 80.3921 48.6 79.9121 47.88ZM88.8521 47.94L90.9521 47.38C91.5321 48.04 92.2321 49 92.5521 49.64L90.3321 50.26C90.0721 49.66 89.4121 48.64 88.8521 47.94ZM104.992 46.22C104.872 46.74 104.752 47.38 104.632 47.88C104.452 48.78 104.192 50.02 103.992 51.04C103.332 53.86 101.712 59.56 99.6321 62.94L97.0121 61.9C99.3921 58.7 100.892 53.42 101.452 50.9C101.832 49.1 102.052 47.4 102.032 45.9L104.992 46.22ZM111.892 48.08C113.112 49.82 114.792 53.62 115.412 55.54L112.872 56.72C112.352 54.48 110.932 50.88 109.492 49.1L111.892 48.08ZM96.8921 50.32C97.6121 50.36 98.2921 50.34 99.0321 50.32C100.632 50.28 104.412 49.84 105.912 49.84C108.012 49.84 109.512 50.78 109.512 53.68C109.512 56.04 109.232 59.28 108.392 61C107.712 62.4 106.612 62.84 105.112 62.84C104.332 62.84 103.392 62.72 102.692 62.56L102.272 59.92C103.052 60.14 104.192 60.34 104.712 60.34C105.392 60.34 105.892 60.14 106.212 59.48C106.772 58.36 107.032 55.92 107.032 53.96C107.032 52.36 106.332 52.12 105.092 52.12C103.892 52.12 100.452 52.56 99.3521 52.7C98.7721 52.78 97.7321 52.92 97.1321 53.02L96.8921 50.32ZM122.432 45.9C124.332 46.5 128.692 47.28 130.452 47.46L129.852 49.92C127.812 49.64 123.372 48.72 121.812 48.32L122.432 45.9ZM122.572 49.92C122.292 51.04 121.952 53.46 121.812 54.62C123.612 53.3 125.612 52.7 127.712 52.7C131.212 52.7 133.252 54.86 133.252 57.28C133.252 60.94 130.352 63.74 122.052 63.02L121.272 60.4C127.292 61.24 130.452 59.78 130.452 57.22C130.452 55.92 129.232 54.98 127.472 54.98C125.212 54.98 123.192 55.82 121.932 57.34C121.572 57.76 121.352 58.08 121.192 58.48L118.872 57.92C119.272 55.96 119.752 52.04 119.872 49.56L122.572 49.92ZM136.792 49.92H142.372V52.34H136.792V49.92ZM144.572 45.04H147.112V60.7C147.112 62.14 146.812 62.86 145.972 63.3C145.112 63.72 143.792 63.82 141.972 63.82C141.872 63.08 141.392 61.86 141.012 61.14C142.332 61.2 143.592 61.2 144.032 61.2C144.432 61.18 144.572 61.06 144.572 60.68V45.04ZM141.552 49.92H142.052L142.472 49.84L144.132 50.44C143.212 55.9 141.012 59.98 138.152 62.08C137.732 61.52 136.752 60.54 136.172 60.18C138.912 58.34 140.872 54.86 141.552 50.44V49.92ZM146.972 47.96C148.252 53.26 150.872 57.98 155.352 60.12C154.752 60.62 153.912 61.62 153.512 62.36C148.872 59.74 146.492 54.54 145.072 48.36L146.972 47.96ZM152.572 48.14L154.832 49.72C153.132 51.52 150.992 53.54 149.312 54.8L147.592 53.44C149.212 52.1 151.332 49.92 152.572 48.14ZM164.852 46.36C164.732 46.88 164.612 47.52 164.512 48.02C164.312 48.92 164.072 50.16 163.852 51.18C163.192 54 161.592 59.7 159.492 63.08L156.872 62.04C159.252 58.84 160.752 53.56 161.312 51.04C161.692 49.24 161.912 47.54 161.892 46.04L164.852 46.36ZM171.752 48.36C172.972 50.1 174.652 53.82 175.272 55.72L172.732 56.9C172.212 54.68 170.792 51.16 169.352 49.38L171.752 48.36ZM156.752 50.46C157.472 50.5 158.152 50.48 158.892 50.46C160.492 50.42 164.292 49.98 165.772 49.98C167.892 49.98 169.392 50.92 169.392 53.82C169.392 56.18 169.092 59.42 168.252 61.14C167.592 62.54 166.472 62.98 164.972 62.98C164.192 62.98 163.252 62.86 162.572 62.7L162.132 60.06C162.912 60.28 164.052 60.48 164.572 60.48C165.252 60.48 165.772 60.28 166.072 59.62C166.632 58.5 166.892 56.06 166.892 54.1C166.892 52.5 166.212 52.26 164.952 52.26C163.772 52.26 160.312 52.7 159.212 52.84C158.632 52.92 157.592 53.06 156.992 53.16L156.752 50.46ZM171.392 45.6C171.892 46.32 172.592 47.6 172.972 48.34L171.372 49.02C170.952 48.2 170.332 47.02 169.792 46.24L171.392 45.6ZM173.752 44.68C174.272 45.44 175.012 46.72 175.372 47.42L173.772 48.1C173.372 47.26 172.712 46.1 172.172 45.34L173.752 44.68ZM176.992 46.86L178.412 45.12C179.432 45.68 180.972 46.52 181.752 47.06L180.292 49.02C179.572 48.42 178.052 47.5 176.992 46.86ZM176.372 52.3L177.732 50.58C178.792 51.1 180.412 51.94 181.212 52.46L179.792 54.42C179.052 53.84 177.452 52.92 176.372 52.3ZM185.672 58.06L186.632 56.96C187.192 57.28 187.972 57.82 188.372 58.12L187.412 59.36C187.012 59 186.232 58.44 185.672 58.06ZM185.572 60.62L186.572 59.58C187.152 59.98 187.952 60.58 188.332 60.94L187.312 62.12C186.932 61.72 186.152 61.08 185.572 60.62ZM190.052 57.98L190.952 56.92C191.532 57.26 192.312 57.78 192.712 58.12L191.812 59.3C191.412 58.94 190.632 58.36 190.052 57.98ZM189.872 60.46L190.832 59.4C191.392 59.78 192.152 60.32 192.552 60.66L191.572 61.84C191.192 61.46 190.432 60.86 189.872 60.46ZM176.452 62.36C177.232 60.76 178.312 58.2 179.092 55.82L181.052 57.08C180.352 59.26 179.472 61.6 178.652 63.58L176.452 62.36ZM183.812 54.76H193.292V56.52H185.712V63.76H183.812V54.76ZM183.272 45.7H194.332V50.8H183.272V48.88H192.032V47.64H183.272V45.7ZM182.012 45.7H184.212V51.42C184.212 54.94 183.912 60.3 181.852 63.72C181.452 63.34 180.492 62.7 179.952 62.48C181.852 59.32 182.012 54.68 182.012 51.42V45.7ZM192.672 54.76H194.672V61.98C194.672 62.82 194.512 63.24 193.992 63.52C193.452 63.78 192.672 63.78 191.652 63.78C191.592 63.3 191.352 62.64 191.132 62.2C191.692 62.22 192.252 62.22 192.412 62.22C192.612 62.22 192.672 62.16 192.672 61.96V54.76ZM183.452 51.84H194.812V53.72H183.452V51.84ZM188.212 52.66H190.152V63.72H188.212V52.66ZM215.272 60.96C214.332 61.82 213.132 62.46 211.492 62.46C209.992 62.46 208.992 61.38 208.992 59.44C208.992 57.26 209.712 54.34 209.712 52.5C209.712 51.52 209.212 51.04 208.352 51.04C206.492 51.04 203.512 53.98 201.912 56.02L201.892 52.94C203.112 51.66 206.452 48.66 209.092 48.66C211.252 48.66 212.232 49.94 212.232 51.62C212.232 53.68 211.572 56.62 211.572 58.7C211.572 59.22 211.852 59.58 212.352 59.58C213.092 59.58 214.032 59.06 214.932 58.16L215.272 60.96ZM201.452 51.44C200.552 51.54 198.652 51.78 197.332 51.98L197.072 49.4C197.632 49.42 198.092 49.42 198.812 49.38C200.072 49.32 202.632 48.94 203.532 48.64L204.332 49.68C203.992 50.14 203.372 51.12 203.032 51.64L201.872 55.4C200.992 56.68 199.212 59.36 198.152 60.82L196.592 58.62C197.852 57.06 200.252 53.9 201.252 52.32L201.292 51.8L201.452 51.44ZM201.212 47.58C201.212 47.02 201.232 46.42 201.112 45.8L204.032 45.88C203.692 47.48 203.032 52.72 203.032 56.3C203.032 57.92 203.032 59.62 203.152 61.48C203.172 61.84 203.252 62.58 203.292 63.02H200.552C200.592 62.56 200.612 61.86 200.612 61.54C200.632 59.6 200.652 58.26 200.712 55.76C200.772 53.98 201.212 48.38 201.212 47.58ZM216.587 48.26C217.367 48.24 218.167 48.2 218.547 48.16C220.227 48 223.507 47.72 227.187 47.4C229.247 47.22 231.427 47.1 232.847 47.04L232.867 49.62C231.787 49.62 230.067 49.64 228.987 49.88C226.587 50.52 224.767 53.12 224.767 55.48C224.767 58.78 227.847 59.96 231.227 60.14L230.307 62.88C226.107 62.62 222.147 60.36 222.147 56.02C222.147 53.14 223.767 50.88 225.127 49.86C223.247 50.06 219.167 50.48 216.847 51L216.587 48.26ZM48.7493 76.66C51.6693 77 54.1093 77.04 56.2293 76.88C58.0493 76.76 59.6893 76.44 61.3493 75.92L61.6693 78.2C60.2293 78.6 58.4893 78.94 56.7493 79.06C54.6893 79.22 51.9293 79.24 48.8893 78.94L48.7493 76.66ZM48.3893 80.84C51.9893 81.2 55.2293 81.14 57.6293 80.9C59.7893 80.72 61.2893 80.32 62.4493 79.98L62.8493 82.34C61.6493 82.64 60.1693 82.92 58.5493 83.1C56.0293 83.38 52.1293 83.44 48.5293 83.2L48.3893 80.84ZM55.0693 77.22C54.8693 76.48 54.6293 75.74 54.3493 74.96L57.0293 74.66C57.2693 76.58 57.7693 78.34 58.2893 79.88C58.7693 81.28 59.7493 83.34 60.6693 84.74C60.9493 85.14 61.2093 85.44 61.5693 85.78L60.3693 87.62C59.2493 87.38 57.0693 87.14 55.6093 86.98L55.8093 85.06C56.6493 85.14 57.7493 85.24 58.3293 85.3C57.2693 83.52 56.5293 81.78 56.0293 80.32C55.5293 78.9 55.3293 78.18 55.0693 77.22ZM52.2293 85.5C51.7493 86.16 51.3293 86.84 51.3293 87.7C51.3293 89.18 52.7293 89.78 55.3893 89.78C57.2693 89.78 58.9693 89.64 60.4093 89.36L60.2693 91.9C58.8693 92.12 57.0293 92.26 55.3893 92.26C51.4093 92.26 48.9293 91.08 48.8693 88.24C48.8493 86.94 49.2693 85.96 49.7493 85.02L52.2293 85.5ZM74.5093 75.06C74.3093 75.78 74.1893 76.46 74.0293 77.1C73.7093 78.7 73.1093 81.64 72.5093 83.5C74.1293 82.62 75.6893 82.26 77.4893 82.26C80.7093 82.26 82.8693 83.96 82.8693 86.54C82.8693 91.02 78.5293 92.66 72.0493 91.96L71.3493 89.38C75.7493 90.08 80.1693 89.56 80.1693 86.6C80.1693 85.42 79.1293 84.4 77.1693 84.4C74.8693 84.4 72.8293 85.24 71.6493 86.76C71.4293 87.04 71.2693 87.28 71.0893 87.62L68.7293 86.8C70.2093 83.88 71.3293 79.02 71.5893 76.96C71.6893 76.12 71.7093 75.6 71.6693 74.94L74.5093 75.06ZM67.5293 77.4C68.8293 77.62 70.4293 77.78 71.6693 77.78C74.2293 77.78 78.0293 77.48 81.3093 76.78L81.3693 79.18C78.8293 79.6 74.5893 80.08 71.6893 80.08C70.1693 80.08 68.7293 80 67.5493 79.88L67.5293 77.4ZM95.4693 80.98C94.8893 80.36 94.0293 79.6 93.2893 79.08L95.0693 77.78C95.6493 78.16 96.7893 79.14 97.2693 79.68L95.4693 80.98ZM91.3893 79.34C91.5893 79.72 91.8493 80.24 91.9893 80.52C92.5693 81.62 93.6093 83.8 94.1893 85.2C94.9493 86.96 96.1093 90.4 96.6693 92.18L94.1493 92.8C93.6693 90.78 92.7093 88.02 91.9693 86.18C91.3493 84.66 90.4693 82.74 89.8493 81.7C89.6293 81.32 89.2693 80.74 88.8893 80.3L91.3893 79.34ZM87.3293 84.12C88.0893 83.92 88.8493 83.68 89.1093 83.58C92.0693 82.42 96.0093 80.4 98.4293 80.4C101.349 80.4 102.649 82.22 102.649 83.96C102.649 86.44 101.289 87.98 98.2893 87.98C97.4293 87.98 96.3693 87.7 95.7893 87.48L95.8493 85.16C96.5693 85.5 97.4693 85.7 98.1093 85.7C99.5093 85.7 100.189 85.02 100.189 83.98C100.189 83.3 99.5893 82.64 98.3293 82.64C95.7693 82.64 89.9893 85.86 88.4693 86.54L87.3293 84.12ZM108.309 82.54C108.909 82.44 109.829 82.2 110.429 82C111.809 81.6 115.189 80.44 117.609 80.44C120.789 80.44 122.909 82.32 122.909 85.36C122.909 88.96 119.709 91.44 113.369 91.82L112.309 89.36C116.869 89.24 120.249 88.02 120.249 85.3C120.249 83.82 119.129 82.76 117.369 82.76C115.049 82.76 111.069 84.42 109.349 85.14L108.309 82.54ZM134.929 75.04C134.789 75.6 134.609 76.5 134.509 76.94C134.229 78.3 133.729 80.74 133.189 82.78C132.469 85.58 131.129 89.66 130.029 92.04L127.249 91.1C128.429 89.08 129.949 84.9 130.709 82.1C131.209 80.22 131.669 78.02 131.809 76.84C131.909 76.1 131.929 75.28 131.869 74.8L134.929 75.04ZM129.829 78.04C132.269 78.04 135.089 77.66 137.689 77.04V79.54C135.209 80.12 132.069 80.46 129.809 80.46C128.829 80.46 128.089 80.42 127.389 80.38L127.309 77.88C128.349 78 129.009 78.04 129.829 78.04ZM136.109 81.1C137.229 80.98 138.669 80.9 139.969 80.9C141.109 80.9 142.309 80.96 143.469 81.08L143.429 83.48C142.409 83.36 141.189 83.22 139.989 83.22C138.609 83.22 137.369 83.28 136.109 83.44V81.1ZM137.189 86.12C137.049 86.7 136.929 87.34 136.929 87.78C136.929 88.66 137.509 89.32 139.669 89.32C141.009 89.32 142.389 89.18 143.809 88.92L143.709 91.46C142.589 91.62 141.249 91.74 139.649 91.74C136.269 91.74 134.469 90.6 134.469 88.58C134.469 87.64 134.649 86.68 134.809 85.9L137.189 86.12ZM150.569 92.38C149.349 90.9 147.649 89.18 146.249 87.98L148.349 86.18C149.769 87.34 151.689 89.3 152.709 90.54L150.569 92.38ZM166.589 79.4H184.389V81.88H166.589V79.4ZM176.849 80.4C178.049 84.98 180.589 88.78 184.829 90.46C184.229 91 183.429 92.04 183.029 92.74C178.449 90.6 175.949 86.46 174.429 80.96L176.849 80.4ZM174.089 74.02H176.729C176.629 80.12 176.589 88.6 168.009 92.74C167.629 92.08 166.889 91.22 166.189 90.7C174.389 87.04 174.029 79.44 174.089 74.02ZM186.609 75.74H204.389V77.96H186.609V75.74ZM194.209 74.02H196.689V76.66H194.209V74.02ZM196.889 76.64H199.229V81.56C199.229 82.6 199.069 83.16 198.349 83.5C197.669 83.84 196.749 83.86 195.549 83.86C195.449 83.22 195.169 82.36 194.889 81.74C195.589 81.76 196.349 81.76 196.589 81.76C196.829 81.76 196.889 81.72 196.889 81.5V76.64ZM192.829 76.34H195.069V77.92C195.069 80.02 194.729 82.74 191.769 84.6C191.409 84.1 190.569 83.32 190.029 82.96C192.549 81.48 192.829 79.44 192.829 77.86V76.34ZM199.789 79.62L201.649 78.54C202.789 79.66 204.189 81.24 204.829 82.32L202.829 83.52C202.269 82.44 200.929 80.8 199.789 79.62ZM189.169 78.62L191.409 79.22C190.569 80.8 189.249 82.42 187.849 83.38C187.429 82.96 186.669 82.32 186.189 82C187.469 81.2 188.629 79.82 189.169 78.62ZM192.489 85.84C194.529 88.84 198.889 90.24 204.989 90.54C204.489 91.1 203.889 92.12 203.589 92.8C197.169 92.26 192.969 90.46 190.349 86.52L192.489 85.84ZM192.989 83.16L195.489 83.64C193.869 85.96 191.589 87.8 188.129 89.2C187.809 88.64 187.129 87.78 186.629 87.42C189.829 86.36 191.909 84.78 192.989 83.16ZM192.949 84.62H200.029V86.52H191.269L192.949 84.62ZM199.369 84.62H199.889L200.289 84.54L201.849 85.58C199.269 90.22 193.509 92.12 187.169 92.84C186.969 92.26 186.449 91.2 186.029 90.7C192.169 90.22 197.449 88.66 199.369 85V84.62ZM214.329 75.28C214.189 75.82 213.989 76.72 213.889 77.16C213.609 78.52 213.129 80.98 212.589 83C211.869 85.8 210.529 89.9 209.429 92.26L206.629 91.32C207.829 89.32 209.349 85.12 210.089 82.32C210.609 80.44 211.069 78.26 211.209 77.06C211.309 76.32 211.329 75.5 211.269 75.04L214.329 75.28ZM209.229 78.26C211.669 78.26 214.489 77.9 217.089 77.28V79.78C214.609 80.36 211.469 80.68 209.209 80.68C208.229 80.68 207.489 80.64 206.789 80.6L206.709 78.12C207.749 78.24 208.409 78.26 209.229 78.26ZM215.509 81.34C216.629 81.22 218.049 81.12 219.369 81.12C220.509 81.12 221.709 81.18 222.869 81.3L222.829 83.7C221.809 83.58 220.589 83.46 219.389 83.46C217.989 83.46 216.769 83.52 215.509 83.68V81.34ZM216.589 86.36C216.449 86.92 216.329 87.58 216.329 88.02C216.329 88.9 216.909 89.56 219.069 89.56C220.389 89.56 221.789 89.4 223.209 89.14L223.109 91.7C221.989 91.84 220.649 92 219.049 92C215.669 92 213.869 90.82 213.869 88.8C213.869 87.88 214.029 86.92 214.209 86.12L216.589 86.36ZM220.729 75.86C221.249 76.58 221.949 77.86 222.329 78.6L220.729 79.28C220.309 78.46 219.689 77.28 219.149 76.5L220.729 75.86ZM223.109 74.94C223.629 75.7 224.369 76.96 224.729 77.68L223.129 78.36C222.729 77.52 222.069 76.36 221.529 75.6L223.109 74.94ZM234.429 85.86L233.909 79.02L233.809 76.04H237.109L237.009 79.02L236.489 85.86H234.429ZM235.469 91.2C234.429 91.2 233.689 90.46 233.689 89.42C233.689 88.38 234.449 87.66 235.469 87.66C236.469 87.66 237.229 88.38 237.229 89.42C237.229 90.46 236.469 91.2 235.469 91.2Z" fill="#2F3B53"/>
</svg>
