<svg width="278" height="189" viewBox="0 0 278 189" fill="none" xmlns="http://www.w3.org/2000/svg">
<g filter="url(#filter0_d_1981_2989)">
<mask id="path-1-inside-1_1981_2989" fill="white">
<path fill-rule="evenodd" clip-rule="evenodd" d="M24 0C12.9543 0 4 8.95431 4 20V117C4 128.046 12.9543 137 24 137H144.028L142.103 180.218L188.744 137H254C265.046 137 274 128.046 274 117V20C274 8.9543 265.046 0 254 0H24Z"/>
</mask>
<path fill-rule="evenodd" clip-rule="evenodd" d="M24 0C12.9543 0 4 8.95431 4 20V117C4 128.046 12.9543 137 24 137H144.028L142.103 180.218L188.744 137H254C265.046 137 274 128.046 274 117V20C274 8.9543 265.046 0 254 0H24Z" fill="white"/>
<path d="M144.028 137L146.026 137.089L146.119 135H144.028V137ZM142.103 180.218L140.105 180.129L139.888 184.997L143.462 181.685L142.103 180.218ZM188.744 137V135H187.96L187.385 135.533L188.744 137ZM6 20C6 10.0589 14.0589 2 24 2V-2C11.8497 -2 2 7.84974 2 20H6ZM6 117V20H2V117H6ZM24 135C14.0589 135 6 126.941 6 117H2C2 129.15 11.8497 139 24 139V135ZM144.028 135H24V139H144.028V135ZM144.101 180.307L146.026 137.089L142.03 136.911L140.105 180.129L144.101 180.307ZM187.385 135.533L140.744 178.751L143.462 181.685L190.103 138.467L187.385 135.533ZM254 135H188.744V139H254V135ZM272 117C272 126.941 263.941 135 254 135V139C266.15 139 276 129.15 276 117H272ZM272 20V117H276V20H272ZM254 2C263.941 2 272 10.0589 272 20H276C276 7.84973 266.15 -2 254 -2V2ZM24 2H254V-2H24V2Z" fill="#2F3B53" mask="url(#path-1-inside-1_1981_2989)"/>
</g>
<path d="M64.5323 58.7C65.1723 58.76 65.7523 58.78 66.4323 58.78C67.2923 58.78 71.0323 58.6 72.2523 58.46C72.9123 58.4 73.3723 58.3 73.6523 58.22L75.2323 60.06C74.8123 60.32 74.0523 60.82 73.6523 61.16C72.2123 62.3 70.2523 63.94 68.8923 65.02C71.5723 64.74 74.8923 64.54 77.3123 64.54L77.3323 66.9C75.4123 66.78 73.3923 66.78 72.1723 66.94C70.3523 67.2 68.8123 68.5 68.8123 70.14C68.8123 71.72 70.0523 72.34 71.8523 72.54C72.9723 72.66 74.1523 72.64 74.8923 72.58L74.3723 75.22C69.2323 75.44 66.2523 73.88 66.2523 70.56C66.2523 69.32 66.9723 68.08 67.7123 67.4C65.8723 67.54 63.6523 67.84 61.6323 68.2L61.4123 65.78C62.4723 65.66 63.8723 65.5 64.9123 65.38C66.6923 64.2 69.3123 61.94 70.5523 60.82C69.7323 60.88 67.2523 61 66.4323 61.08C65.9523 61.12 65.2723 61.2 64.6523 61.26L64.5323 58.7ZM99.1323 72.96C98.1923 73.82 96.9923 74.46 95.3523 74.46C93.8523 74.46 92.8523 73.38 92.8523 71.44C92.8523 69.26 93.5723 66.34 93.5723 64.5C93.5723 63.52 93.0723 63.04 92.2123 63.04C90.3523 63.04 87.3723 65.98 85.7723 68.02L85.7523 64.94C86.9723 63.66 90.3123 60.66 92.9523 60.66C95.1123 60.66 96.0923 61.94 96.0923 63.62C96.0923 65.68 95.4323 68.62 95.4323 70.7C95.4323 71.22 95.7123 71.58 96.2123 71.58C96.9523 71.58 97.8923 71.06 98.7923 70.16L99.1323 72.96ZM85.3123 63.44C84.4123 63.54 82.5123 63.78 81.1923 63.98L80.9323 61.4C81.4923 61.42 81.9523 61.42 82.6723 61.38C83.9323 61.32 86.4923 60.94 87.3923 60.64L88.1923 61.68C87.8523 62.14 87.2323 63.12 86.8923 63.64L85.7323 67.4C84.8523 68.68 83.0723 71.36 82.0123 72.82L80.4523 70.62C81.7123 69.06 84.1123 65.9 85.1123 64.32L85.1523 63.8L85.3123 63.44ZM85.0723 59.58C85.0723 59.02 85.0923 58.42 84.9723 57.8L87.8923 57.88C87.5523 59.48 86.8923 64.72 86.8923 68.3C86.8923 69.92 86.8923 71.62 87.0123 73.48C87.0323 73.84 87.1123 74.58 87.1523 75.02H84.4123C84.4523 74.56 84.4723 73.86 84.4723 73.54C84.4923 71.6 84.5123 70.26 84.5723 67.76C84.6323 65.98 85.0723 60.38 85.0723 59.58ZM111.892 59.88C112.452 60.72 113.332 62.16 113.792 63.08L111.992 63.86C111.392 62.6 110.892 61.64 110.152 60.6L111.892 59.88ZM114.572 58.78C115.172 59.58 116.072 61 116.532 61.9L114.792 62.74C114.152 61.48 113.592 60.56 112.852 59.56L114.572 58.78ZM106.732 58.26C106.612 59.12 106.512 60.14 106.472 60.94C106.392 63.08 106.232 67.56 106.232 70.04C106.232 72.06 107.432 72.72 108.992 72.72C112.292 72.72 114.392 70.82 115.832 68.64L117.652 70.86C116.352 72.76 113.532 75.44 108.972 75.44C105.692 75.44 103.572 74 103.572 70.58C103.572 67.9 103.772 62.64 103.772 60.94C103.772 59.98 103.692 59.02 103.512 58.24L106.732 58.26ZM129.632 63.98C129.052 63.36 128.192 62.6 127.452 62.08L129.232 60.78C129.812 61.16 130.952 62.14 131.432 62.68L129.632 63.98ZM125.552 62.34C125.752 62.72 126.012 63.24 126.152 63.52C126.732 64.62 127.772 66.8 128.352 68.2C129.112 69.96 130.272 73.4 130.832 75.18L128.312 75.8C127.832 73.78 126.872 71.02 126.132 69.18C125.512 67.66 124.632 65.74 124.012 64.7C123.792 64.32 123.432 63.74 123.052 63.3L125.552 62.34ZM121.492 67.12C122.252 66.92 123.012 66.68 123.272 66.58C126.232 65.42 130.172 63.4 132.592 63.4C135.512 63.4 136.812 65.22 136.812 66.96C136.812 69.44 135.452 70.98 132.452 70.98C131.592 70.98 130.532 70.7 129.952 70.48L130.012 68.16C130.732 68.5 131.632 68.7 132.272 68.7C133.672 68.7 134.352 68.02 134.352 66.98C134.352 66.3 133.752 65.64 132.492 65.64C129.932 65.64 124.152 68.86 122.632 69.54L121.492 67.12ZM141.272 60.9C142.132 61 143.212 61.04 143.932 61.04C146.412 61.04 149.112 60.62 151.052 60L151.112 62.32C149.392 62.8 146.512 63.32 143.952 63.3C143.152 63.3 142.312 63.28 141.452 63.24L141.272 60.9ZM149.052 57.9C148.792 58.96 148.312 60.92 147.772 62.62C146.852 65.5 145.052 69.22 143.352 71.58L140.932 70.34C142.732 68.14 144.532 64.64 145.312 62.48C145.792 61.04 146.232 59.18 146.292 57.64L149.052 57.9ZM153.752 64.14C153.692 64.98 153.712 65.82 153.732 66.7C153.772 67.88 153.952 70.86 153.952 71.98C153.952 73.84 152.952 75.3 150.092 75.3C147.612 75.3 145.652 74.18 145.652 71.98C145.652 70.04 147.292 68.52 150.072 68.52C153.572 68.52 156.332 70.28 157.992 71.78L156.672 73.94C155.232 72.6 152.952 70.54 149.932 70.54C148.772 70.54 148.012 71.04 148.012 71.74C148.012 72.48 148.652 73 149.752 73C151.112 73 151.552 72.24 151.552 71.12C151.552 69.92 151.332 66.24 151.232 64.14H153.752ZM157.192 65.2C156.032 64.26 153.752 62.96 152.372 62.34L153.672 60.38C155.112 61 157.572 62.34 158.612 63.08L157.192 65.2ZM164.812 59.72C164.672 60.42 164.572 61.6 164.572 62.16C164.572 63.46 164.572 64.94 164.692 66.4C164.972 69.28 165.572 71.26 166.832 71.26C167.792 71.26 168.572 68.9 168.952 67.32L170.972 69.74C169.632 73.24 168.392 74.44 166.792 74.44C164.572 74.44 162.672 72.48 162.112 67.12C161.912 65.28 161.892 62.92 161.892 61.7C161.892 61.16 161.872 60.3 161.732 59.68L164.812 59.72ZM174.812 60.16C176.712 62.46 178.252 67.46 178.472 70.52L175.832 71.56C175.532 68.32 174.452 63.48 172.272 61L174.812 60.16ZM190.622 57.98C190.542 58.56 190.482 59.54 190.442 60.32C190.422 61.28 190.442 62.42 190.442 63.56C190.442 65.78 190.822 70.08 190.822 71.76C190.822 73.54 189.902 75.22 186.562 75.22C183.682 75.22 181.342 74.28 181.342 71.58C181.342 69.48 183.142 67.84 186.802 67.84C190.982 67.84 194.722 69.94 196.762 71.82L195.222 74.22C193.242 72.22 190.062 70.06 186.442 70.06C184.882 70.06 183.942 70.58 183.942 71.46C183.942 72.42 184.942 72.8 186.342 72.8C187.622 72.8 188.102 72.22 188.102 70.9C188.102 69.5 187.862 65.46 187.862 63.56C187.862 62.36 187.842 61.18 187.822 60.32C187.802 59.32 187.742 58.46 187.622 57.98H190.622ZM189.102 61.8C190.282 61.8 193.782 61.72 196.022 61.48L196.122 63.86C193.862 64.06 190.342 64.16 189.102 64.16V61.8ZM208.202 68.86L207.682 62.02L207.582 59.04H210.882L210.782 62.02L210.262 68.86H208.202ZM209.242 74.2C208.202 74.2 207.462 73.46 207.462 72.42C207.462 71.38 208.222 70.66 209.242 70.66C210.242 70.66 211.002 71.38 211.002 72.42C211.002 73.46 210.242 74.2 209.242 74.2Z" fill="#2F3B53"/>
<defs>
<filter id="filter0_d_1981_2989" x="0" y="0" width="278" height="188.218" filterUnits="userSpaceOnUse" color-interpolation-filters="sRGB">
<feFlood flood-opacity="0" result="BackgroundImageFix"/>
<feColorMatrix in="SourceAlpha" type="matrix" values="0 0 0 0 0 0 0 0 0 0 0 0 0 0 0 0 0 0 127 0" result="hardAlpha"/>
<feOffset dy="4"/>
<feGaussianBlur stdDeviation="2"/>
<feComposite in2="hardAlpha" operator="out"/>
<feColorMatrix type="matrix" values="0 0 0 0 0 0 0 0 0 0 0 0 0 0 0 0 0 0 0.25 0"/>
<feBlend mode="normal" in2="BackgroundImageFix" result="effect1_dropShadow_1981_2989"/>
<feBlend mode="normal" in="SourceGraphic" in2="effect1_dropShadow_1981_2989" result="shape"/>
</filter>
</defs>
</svg>
