<?xml version="1.0" encoding="UTF-8"?>
<svg id="Layer_2" data-name="Layer 2" xmlns="http://www.w3.org/2000/svg" viewBox="0 0 6.65 6.65">
  <defs>
    <style>
      .cls-1 {
        fill: #bb0921;
      }

      .cls-2 {
        fill: #da1934;
      }

      .cls-3 {
        fill: #fff;
        opacity: .5;
      }
    </style>
  </defs>
  <g id="_6_stadium" data-name="6_stadium">
    <g>
      <path class="cls-1" d="M6.65,3.33c0,1.84-1.49,3.33-3.33,3.33S0,5.16,0,3.33,1.49,0,3.33,0s3.33,1.49,3.33,3.33Z"/>
      <path class="cls-2" d="M3.33,0C1.49,0,0,1.49,0,3.33c0,.41.08.81.22,1.17.61.66,1.47,1.07,2.44,1.07,1.84,0,3.33-1.49,3.33-3.33,0-.41-.08-.81-.22-1.17-.61-.66-1.47-1.07-2.44-1.07Z"/>
      <path class="cls-3" d="M2.96,1.5c.11.26-.11.61-.5.78-.39.17-.8.1-.91-.16-.11-.26.11-.61.5-.78.39-.17.8-.1.91.16Z"/>
    </g>
  </g>
</svg>