<svg width="45" height="46" viewBox="0 0 45 46" fill="none" xmlns="http://www.w3.org/2000/svg">
<g clip-path="url(#clip0_1225_3241)">
<path d="M22.3 43.7953C33.7875 43.7953 43.1 34.4828 43.1 22.9953C43.1 11.5078 33.7875 2.19531 22.3 2.19531C10.8125 2.19531 1.5 11.5078 1.5 22.9953C1.5 34.4828 10.8125 43.7953 22.3 43.7953Z" fill="white" stroke="#2F3B53" stroke-width="3" stroke-miterlimit="10"/>
<path d="M11.39 15.7344H8.89001V18.2344H11.39V15.7344Z" fill="#2F3B53" stroke="#2F3B53" stroke-miterlimit="10"/>
<path d="M35.62 15.7461H14.4V18.2461H35.62V15.7461Z" fill="#2F3B53" stroke="#2F3B53" stroke-miterlimit="10"/>
<path d="M11.49 21.7461H8.98999V24.2461H11.49V21.7461Z" fill="#2F3B53" stroke="#2F3B53" stroke-miterlimit="10"/>
<path d="M35.72 21.7461H14.5V24.2461H35.72V21.7461Z" fill="#2F3B53" stroke="#2F3B53" stroke-miterlimit="10"/>
<path d="M11.49 27.7559H8.98999V30.2559H11.49V27.7559Z" fill="#2F3B53" stroke="#2F3B53" stroke-miterlimit="10"/>
<path d="M35.72 27.7559H14.5V30.2559H35.72V27.7559Z" fill="#2F3B53" stroke="#2F3B53" stroke-miterlimit="10"/>
</g>
<defs>
<clipPath id="clip0_1225_3241">
<rect width="44.61" height="44.61" fill="white" transform="translate(0 0.695312)"/>
</clipPath>
</defs>
</svg>
