<svg xmlns="http://www.w3.org/2000/svg" xmlns:xlink="http://www.w3.org/1999/xlink" viewBox="0 0 342.81 232.68"><defs><linearGradient id="linear-gradient" x1="-1927.6" y1="96.91" x2="-1900.52" y2="96.91" gradientTransform="matrix(-1 0 0 1 -1682.09 0)" gradientUnits="userSpaceOnUse"><stop offset="0" stop-color="#282d30"/><stop offset="1" stop-color="#24292b"/></linearGradient><linearGradient id="linear-gradient-2" x1="-1927.6" y1="73.94" y2="73.94" xlink:href="#linear-gradient"/><linearGradient id="_名称未設定グラデーション_82" data-name="名称未設定グラデーション 82" x1="259.32" y1="79.99" x2="252.34" y2="85.2" gradientUnits="userSpaceOnUse"><stop offset="0" stop-color="#515b61"/><stop offset=".43" stop-color="#66747a"/><stop offset="1" stop-color="#809299"/></linearGradient><linearGradient id="linear-gradient-3" x1="249.25" y1="81.47" x2="260.83" y2="81.47" xlink:href="#linear-gradient"/><linearGradient id="_名称未設定グラデーション_82-2" data-name="名称未設定グラデーション 82" x1="284.88" y1="65.61" x2="277.9" y2="70.83" xlink:href="#_名称未設定グラデーション_82"/><linearGradient id="linear-gradient-4" x1="274.81" y1="67.09" x2="286.39" y2="67.09" xlink:href="#linear-gradient"/><linearGradient id="_名称未設定グラデーション_82-3" data-name="名称未設定グラデーション 82" x1="298.11" y1="57.76" x2="291.13" y2="62.98" xlink:href="#_名称未設定グラデーション_82"/><linearGradient id="linear-gradient-5" x1="288.04" y1="59.24" x2="299.62" y2="59.24" xlink:href="#linear-gradient"/><linearGradient id="_名称未設定グラデーション_82-4" data-name="名称未設定グラデーション 82" x1="311.34" y1="49.92" x2="304.36" y2="55.13" xlink:href="#_名称未設定グラデーション_82"/><linearGradient id="linear-gradient-6" x1="301.27" y1="51.39" x2="312.85" y2="51.39" xlink:href="#linear-gradient"/><linearGradient id="_名称未設定グラデーション_82-5" data-name="名称未設定グラデーション 82" x1="338.02" y1="34.89" x2="331.05" y2="40.11" xlink:href="#_名称未設定グラデーション_82"/><linearGradient id="linear-gradient-7" x1="327.95" y1="36.37" x2="339.53" y2="36.37" xlink:href="#linear-gradient"/><linearGradient id="_名称未設定グラデーション_82-6" data-name="名称未設定グラデーション 82" x1="274.43" y1="75" x2="267.79" y2="82.57" xlink:href="#_名称未設定グラデーション_82"/><linearGradient id="linear-gradient-8" x1="-1950.34" y1="793.93" x2="-1945.69" y2="846.46" gradientTransform="matrix(-.99593 .575 .00382 1.00239 -1682.09 412.21)" xlink:href="#linear-gradient"/><linearGradient id="linear-gradient-9" x1="-1950.36" y1="67.33" x2="-1951.07" y2="89.86" gradientTransform="matrix(-1 0 0 1 -1682.09 0)" gradientUnits="userSpaceOnUse"><stop offset="0" stop-color="#859a9e"/><stop offset="1" stop-color="#71858a"/></linearGradient><linearGradient id="linear-gradient-10" x1="262.92" y1="74.78" x2="268.4" y2="74.78" xlink:href="#linear-gradient"/><linearGradient id="linear-gradient-11" x1="268.91" y1="71.41" x2="274.02" y2="71.41" xlink:href="#linear-gradient"/><linearGradient id="_名称未設定グラデーション_82-7" data-name="名称未設定グラデーション 82" x1="326.67" y1="44.73" x2="320.03" y2="52.3" xlink:href="#_名称未設定グラデーション_82"/><linearGradient id="linear-gradient-12" x1="-2002.59" y1="793.82" x2="-1997.93" y2="846.36" gradientTransform="matrix(-.99593 .575 .00382 1.00239 -1682.09 412.21)" xlink:href="#linear-gradient"/><linearGradient id="linear-gradient-13" x1="-2002.6" y1="37.06" x2="-2003.31" y2="59.59" xlink:href="#linear-gradient-9"/><linearGradient id="linear-gradient-14" x1="315.17" y1="44.51" x2="320.64" y2="44.51" xlink:href="#linear-gradient"/><linearGradient id="linear-gradient-15" x1="321.16" y1="41.14" x2="326.26" y2="41.14" xlink:href="#linear-gradient"/><linearGradient id="linear-gradient-16" x1="-1826.26" y1="155.25" x2="-1799.18" y2="155.25" xlink:href="#linear-gradient"/><linearGradient id="linear-gradient-17" x1="-1826.26" y1="132.28" x2="-1799.18" y2="132.28" xlink:href="#linear-gradient"/><linearGradient id="_名称未設定グラデーション_82-8" data-name="名称未設定グラデーション 82" x1="157.98" y1="138.33" x2="151" y2="143.54" xlink:href="#_名称未設定グラデーション_82"/><linearGradient id="linear-gradient-18" x1="147.91" y1="139.81" x2="159.49" y2="139.81" xlink:href="#linear-gradient"/><linearGradient id="_名称未設定グラデーション_82-9" data-name="名称未設定グラデーション 82" x1="183.55" y1="123.95" x2="176.57" y2="129.17" xlink:href="#_名称未設定グラデーション_82"/><linearGradient id="linear-gradient-19" x1="173.48" y1="125.43" x2="185.05" y2="125.43" xlink:href="#linear-gradient"/><linearGradient id="_名称未設定グラデーション_82-10" data-name="名称未設定グラデーション 82" x1="196.77" y1="116.1" x2="189.8" y2="121.32" xlink:href="#_名称未設定グラデーション_82"/><linearGradient id="linear-gradient-20" x1="186.7" y1="117.58" x2="198.28" y2="117.58" xlink:href="#linear-gradient"/><linearGradient id="_名称未設定グラデーション_82-11" data-name="名称未設定グラデーション 82" x1="210" y1="108.26" x2="203.02" y2="113.47" xlink:href="#_名称未設定グラデーション_82"/><linearGradient id="linear-gradient-21" x1="199.93" y1="109.73" x2="211.51" y2="109.73" xlink:href="#linear-gradient"/><linearGradient id="_名称未設定グラデーション_82-12" data-name="名称未設定グラデーション 82" x1="236.69" y1="93.23" x2="229.71" y2="98.45" xlink:href="#_名称未設定グラデーション_82"/><linearGradient id="linear-gradient-22" x1="226.62" y1="94.71" x2="238.19" y2="94.71" xlink:href="#linear-gradient"/><linearGradient id="_名称未設定グラデーション_82-13" data-name="名称未設定グラデーション 82" x1="173.09" y1="133.34" x2="166.45" y2="140.91" xlink:href="#_名称未設定グラデーション_82"/><linearGradient id="linear-gradient-23" x1="-1849.01" y1="793.75" x2="-1844.35" y2="846.29" gradientTransform="matrix(-.99593 .575 .00382 1.00239 -1682.09 412.21)" xlink:href="#linear-gradient"/><linearGradient id="linear-gradient-24" x1="-1849.02" y1="125.67" x2="-1849.73" y2="148.2" xlink:href="#linear-gradient-9"/><linearGradient id="linear-gradient-25" x1="161.59" y1="133.12" x2="167.06" y2="133.12" xlink:href="#linear-gradient"/><linearGradient id="linear-gradient-26" x1="167.58" y1="129.75" x2="172.68" y2="129.75" xlink:href="#linear-gradient"/><linearGradient id="_名称未設定グラデーション_82-14" data-name="名称未設定グラデーション 82" x1="225.33" y1="103.07" x2="218.69" y2="110.64" xlink:href="#_名称未設定グラデーション_82"/><linearGradient id="linear-gradient-27" x1="-1901.25" y1="793.65" x2="-1896.59" y2="846.19" gradientTransform="matrix(-.99593 .575 .00382 1.00239 -1682.09 412.21)" xlink:href="#linear-gradient"/><linearGradient id="linear-gradient-28" x1="-1901.26" y1="95.4" x2="-1901.97" y2="117.93" xlink:href="#linear-gradient-9"/><linearGradient id="linear-gradient-29" x1="213.83" y1="102.85" x2="219.3" y2="102.85" xlink:href="#linear-gradient"/><linearGradient id="linear-gradient-30" x1="219.82" y1="99.48" x2="224.92" y2="99.48" xlink:href="#linear-gradient"/><linearGradient id="linear-gradient-31" x1="47.32" y1="198.19" x2="58.89" y2="198.19" xlink:href="#linear-gradient"/><linearGradient id="_名称未設定グラデーション_82-15" data-name="名称未設定グラデーション 82" x1="56.63" y1="196.71" x2="49.65" y2="201.93" xlink:href="#_名称未設定グラデーション_82"/><linearGradient id="linear-gradient-32" x1="46.56" y1="198.19" x2="58.14" y2="198.19" xlink:href="#linear-gradient"/><linearGradient id="_名称未設定グラデーション_82-16" data-name="名称未設定グラデーション 82" x1="84.54" y1="180.65" x2="77.57" y2="185.87" xlink:href="#_名称未設定グラデーション_82"/><linearGradient id="linear-gradient-33" x1="74.47" y1="182.13" x2="86.05" y2="182.13" xlink:href="#linear-gradient"/><linearGradient id="_名称未設定グラデーション_82-17" data-name="名称未設定グラデーション 82" x1="97.58" y1="172.92" x2="90.6" y2="178.13" xlink:href="#_名称未設定グラデーション_82"/><linearGradient id="linear-gradient-34" x1="87.51" y1="174.39" x2="99.08" y2="174.39" xlink:href="#linear-gradient"/><linearGradient id="_名称未設定グラデーション_82-18" data-name="名称未設定グラデーション 82" x1="110.69" y1="165.35" x2="103.72" y2="170.56" xlink:href="#_名称未設定グラデーション_82"/><linearGradient id="linear-gradient-35" x1="100.62" y1="166.83" x2="112.2" y2="166.83" xlink:href="#linear-gradient"/><linearGradient id="_名称未設定グラデーション_82-19" data-name="名称未設定グラデーション 82" x1="136.26" y1="150.97" x2="129.28" y2="156.18" xlink:href="#_名称未設定グラデーション_82"/><linearGradient id="linear-gradient-36" x1="126.19" y1="152.45" x2="137.76" y2="152.45" xlink:href="#linear-gradient"/><linearGradient id="_名称未設定グラデーション_82-20" data-name="名称未設定グラデーション 82" x1="-1726.64" y1="206.49" x2="-1715.06" y2="206.49" gradientTransform="matrix(-1 0 0 1 -1682.09 0)" xlink:href="#_名称未設定グラデーション_82"/><linearGradient id="linear-gradient-37" x1="-1726.64" y1="206.18" x2="-1715.06" y2="206.18" xlink:href="#linear-gradient"/><linearGradient id="linear-gradient-38" x1="-1725.96" y1="206.18" x2="-1714.39" y2="206.18" xlink:href="#linear-gradient"/><linearGradient id="linear-gradient-39" x1="-1694.98" y1="213.92" x2="-1704.46" y2="187.29" xlink:href="#linear-gradient"/><linearGradient id="linear-gradient-40" x1="-1694.98" y1="213.92" x2="-1704.46" y2="187.29" xlink:href="#linear-gradient"/><linearGradient id="_名称未設定グラデーション_55" data-name="名称未設定グラデーション 55" x1="-1693.7" y1="221.42" x2="-1703.18" y2="194.79" gradientTransform="matrix(-1 0 0 1 -1682.09 0)" gradientUnits="userSpaceOnUse"><stop offset="0" stop-color="#2d373a"/><stop offset=".39" stop-color="#3e494f"/><stop offset="1" stop-color="#56646e"/></linearGradient><linearGradient id="_名称未設定グラデーション_82-21" data-name="名称未設定グラデーション 82" x1="72.74" y1="191.13" x2="66.1" y2="198.7" xlink:href="#_名称未設定グラデーション_82"/><linearGradient id="linear-gradient-41" x1="-1748.66" y1="793.61" x2="-1744" y2="846.15" gradientTransform="matrix(-.99593 .575 .00382 1.00239 -1682.09 412.21)" xlink:href="#linear-gradient"/><linearGradient id="linear-gradient-42" x1="-1748.67" y1="183.46" x2="-1749.38" y2="205.99" xlink:href="#linear-gradient-9"/><linearGradient id="linear-gradient-43" x1="61.24" y1="190.91" x2="66.71" y2="190.91" xlink:href="#linear-gradient"/><linearGradient id="linear-gradient-44" x1="67.23" y1="187.54" x2="72.33" y2="187.54" xlink:href="#linear-gradient"/><linearGradient id="_名称未設定グラデーション_82-22" data-name="名称未設定グラデーション 82" x1="125.8" y1="160.36" x2="119.16" y2="167.93" xlink:href="#_名称未設定グラデーション_82"/><linearGradient id="linear-gradient-45" x1="-1801.72" y1="793.47" x2="-1797.06" y2="846.01" gradientTransform="matrix(-.99593 .575 .00382 1.00239 -1682.09 412.21)" xlink:href="#linear-gradient"/><linearGradient id="linear-gradient-46" x1="-1801.73" y1="152.69" x2="-1802.44" y2="175.22" xlink:href="#linear-gradient-9"/><linearGradient id="linear-gradient-47" x1="114.3" y1="160.14" x2="119.77" y2="160.14" xlink:href="#linear-gradient"/><linearGradient id="linear-gradient-48" x1="120.29" y1="156.77" x2="125.39" y2="156.77" xlink:href="#linear-gradient"/><clipPath id="clippath"><path d="M4.83 209.28c-.61-.35-.93-1.05-.82-1.74l4.07-24.23s.15-1.19 1.38-1.21c2.04-.03 5.47 1.26 9.16 3.39 6.06 3.5 10.79 8.02 11.7 11.05.14.47.14.96.06 1.45l-3.74 21.36a1.69 1.69 0 0 1-2.52 1.17l-19.3-11.25Z" style="fill:url(#linear-gradient-40)"/></clipPath><style>.cls-9{fill:#404344}.cls-18{fill:#99a6ad}.cls-19{fill:#778c90;mix-blend-mode:multiply;opacity:.3}.cls-21{fill:#c9ced6}.cls-38{fill:#fff}.cls-40{fill:#f39800}.cls-41{fill:#5f39c4}.cls-42{fill:#f8b62d}.cls-82{fill:#acbdbf}.cls-83{fill:#ff1f7e}.cls-84{fill:#c8d9e3}.cls-85{fill:#fff100}.cls-88{fill:#22ac38}.cls-89{fill:#196dff}</style></defs><g style="isolation:isolate"><g id="Layer_2" data-name="Layer 2"><g id="train"><path class="cls-9" d="m246.05 103.74 95.3-55.39v4.74l-95.3 55.39v-4.74z"/><path class="cls-82" d="m220.73 89.12.04-31.27c.01-4.24 6.7-2.5 13.38 1.35 6.68 3.86 13.36 9.84 13.35 14.08l-.04 31.27-1.41-.81v4.74l-23.94-13.82.02-4.73-1.41-.81Z"/><path class="cls-19" d="m220.73 89.12 25.28-15.49 1.49 3.91-.04 27.01-1.41-.81v4.74l-23.94-13.82.03-4.73-1.41-.81z"/><path style="fill:url(#linear-gradient)" d="m218.43 90.18 27.08-15.74v29.23l-27.08 15.71v-29.2z"/><path d="m218.43 59.88 3.07-1.78c2-1.16 6.77.44 11.53 3.19 6.25 3.61 12.49 9.19 12.48 13.16l-27.08 15.74v-30.3Z" style="fill:url(#linear-gradient-2)"/><path class="cls-84" d="m247.47 96.46-.01 8.09 95.3-55.39.01-7.48-95.3 54.78z"/><path class="cls-38" d="M342.81 17.9 247.5 73.28l-.03 23.18 95.3-54.78.04-23.78z"/><path d="m260.89 72.06-.06.03V83.9c0 .39-.31.88-.7 1.1l-10.12 5.84v.33c0 .39.31.52.7.3l10.18-5.88c.39-.22.7-.72.7-1.1V72.36c0-.39-.31-.52-.7-.3Z" style="fill:url(#_名称未設定グラデーション_82)"/><path d="M260.83 83.9V72.09l-10.12 5.84c-.39.22-.7.72-.7 1.1v11.81L260.13 85c.39-.22.7-.72.7-1.1Z" style="fill:url(#linear-gradient-3)"/><path d="m286.45 57.68-.06.03v11.81c0 .39-.31.88-.7 1.1l-10.12 5.84v.33c0 .39.31.52.7.3l10.18-5.88c.39-.22.7-.72.7-1.1V57.98c0-.39-.31-.52-.7-.3Z" style="fill:url(#_名称未設定グラデーション_82-2)"/><path d="M286.39 69.52V57.71l-10.12 5.84c-.39.22-.7.72-.7 1.1v11.81l10.12-5.84c.39-.22.7-.72.7-1.1Z" style="fill:url(#linear-gradient-4)"/><path d="m299.68 49.83-.06.03v11.81c0 .39-.31.88-.7 1.1l-10.12 5.84v.33c0 .39.31.52.7.3l10.18-5.88c.39-.22.7-.72.7-1.1V50.13c0-.39-.31-.52-.7-.3Z" style="fill:url(#_名称未設定グラデーション_82-3)"/><path d="M299.62 61.67V49.86L289.5 55.7c-.39.22-.7.72-.7 1.1v11.81l10.12-5.84c.39-.22.7-.72.7-1.1Z" style="fill:url(#linear-gradient-5)"/><path d="m312.91 41.98-.06.03v11.81c0 .39-.31.88-.7 1.1l-10.12 5.84v.33c0 .39.31.52.7.3l10.18-5.88c.39-.22.7-.72.7-1.1V42.28c0-.39-.31-.52-.7-.3Z" style="fill:url(#_名称未設定グラデーション_82-4)"/><path d="M312.85 53.82V42.01l-10.12 5.84c-.39.22-.7.72-.7 1.1v11.81l10.12-5.84c.39-.22.7-.72.7-1.1Z" style="fill:url(#linear-gradient-6)"/><path d="m339.59 26.96-.06.03V38.8c0 .39-.31.88-.7 1.1l-10.12 5.84v.33c0 .39.31.52.7.3l10.18-5.88c.39-.22.7-.72.7-1.1V27.26c0-.39-.31-.52-.7-.3Z" style="fill:url(#_名称未設定グラデーション_82-5)"/><path d="M339.53 38.8V26.99l-10.12 5.84c-.39.22-.7.72-.7 1.1v11.81l10.12-5.84c.39-.22.7-.72.7-1.1Z" style="fill:url(#linear-gradient-7)"/><path d="M273.88 64.84v20.15c0 .39-.31.88-.7 1.1L263 91.97s-.07.03-.11.04c0 .39.31.52.7.3l10.18-5.88c.39-.22.7-.72.7-1.1V65.18c0-.35-.26-.47-.59-.34Z" style="fill:url(#_名称未設定グラデーション_82-6)"/><path d="M273.18 86.09c.39-.22.7-.72.7-1.1V64.84s-.07.02-.11.04l-10.18 5.88c-.39.22-.7.72-.7 1.1v20.15c.04-.02.07-.02.11-.04l10.18-5.88Z" style="fill:url(#linear-gradient-8)"/><path class="cls-18" d="M273.88 64.84s-.07.02-.11.04l-10.18 5.88c-.39.22-.7.72-.7 1.1v4.8l10.99-6.27v-5.55ZM262.89 92.01c.04-.02.07-.02.11-.04l10.18-5.88c.39-.22.7-.72.7-1.1v-3.92l-10.99 6.27v4.67Z"/><path class="cls-38" d="M262.89 76.66v10.68l10.99-6.27V70.39l-10.99 6.27z"/><path d="m268.49 67.92.39-.21v20.97c-.18.08-.36.15-.54.22V67.99c.05-.02.1-.04.15-.07Z" style="fill:url(#linear-gradient-9)"/><path d="m268.37 68 .03 10.41-5.45 3.14-.03-9.5c0-.56.3-1.08.79-1.36l4.66-2.69Z" style="fill:url(#linear-gradient-10)"/><path style="fill:url(#linear-gradient-11)" d="m273.99 64.81.03 10.26-5.08 2.93-.03-10.26 5.08-2.93z"/><path d="M326.12 34.57v20.15c0 .39-.31.88-.7 1.1l-10.18 5.88s-.07.03-.11.04c0 .39.31.52.7.3l10.18-5.88c.39-.22.7-.72.7-1.1V34.91c0-.35-.26-.47-.59-.34Z" style="fill:url(#_名称未設定グラデーション_82-7)"/><path d="M325.43 55.82c.39-.22.7-.72.7-1.1V34.57s-.07.02-.11.04l-10.18 5.88c-.39.22-.7.72-.7 1.1v20.15c.04-.02.07-.02.11-.04l10.18-5.88Z" style="fill:url(#linear-gradient-12)"/><path class="cls-18" d="M326.12 34.57s-.07.02-.11.04l-10.18 5.88c-.39.22-.7.72-.7 1.1v4.8l10.99-6.27v-5.55ZM315.14 61.74c.04-.02.07-.02.11-.04l10.18-5.88c.39-.22.7-.72.7-1.1V50.8l-10.99 6.27v4.67Z"/><path class="cls-38" d="M315.14 46.39v10.68l10.98-6.27V40.12l-10.98 6.27z"/><path d="m320.74 37.65.39-.21v20.97c-.18.08-.36.15-.54.22V37.72c.05-.02.1-.04.15-.07Z" style="fill:url(#linear-gradient-13)"/><path d="m320.61 37.73.03 10.41-5.45 3.14-.03-9.5c0-.56.3-1.08.79-1.36l4.66-2.69Z" style="fill:url(#linear-gradient-14)"/><path style="fill:url(#linear-gradient-15)" d="m326.23 34.54.03 10.26-5.07 2.93-.03-10.26 5.07-2.93z"/><path class="cls-40" d="M323.3.91c-.16-.05-.3-.1-.46-.15l-95.33 55.38c.17.06.34.11.52.17 1.23.44 2.55 1.02 3.89 1.7l95.33-55.38c-1.37-.69-2.7-1.28-3.95-1.72Z"/><path class="cls-85" d="M329.46 3.82c-.74-.43-1.48-.82-2.21-1.19l-95.32 55.38c.74.37 1.48.77 2.23 1.2 1.26.73 2.52 1.53 3.73 2.39l95.32-55.39a48.45 48.45 0 0 0-3.75-2.4Z"/><path class="cls-83" d="m317.12.4-95.3 55.39c1.17-.68 3.24-.46 5.7.35L322.85.76c-2.47-.82-4.55-1.04-5.73-.36Z"/><path class="cls-89" d="M338.48 10.56c-.36-.36-.74-.71-1.13-1.06l-95.32 55.38c.25.22.5.45.73.67 1.15 1.09 2.14 2.2 2.92 3.28L341 13.45c-.69-.95-1.54-1.93-2.52-2.89Z"/><path class="cls-41" d="M245.68 68.83c1.14 1.58 1.83 3.1 1.82 4.46l95.3-55.39c0-1.35-.67-2.87-1.8-4.45l-95.32 55.38Z"/><path class="cls-88" d="m333.21 6.21-95.32 55.38c1.47 1.04 2.88 2.14 4.14 3.28l95.32-55.38c-1.26-1.14-2.67-2.24-4.14-3.28Z"/><path class="cls-9" d="m144.71 162.08 95.31-55.39-.01 4.74-95.3 55.39v-4.74z"/><path class="cls-82" d="m119.39 147.46.04-31.27c.01-4.24 6.7-2.5 13.38 1.35 6.68 3.86 13.36 9.84 13.35 14.08l-.04 31.27-1.41-.81v4.74L120.77 153l.02-4.73-1.41-.81Z"/><path class="cls-19" d="m119.39 147.46 25.28-15.49 1.49 3.91-.04 27.01-1.41-.81v4.74L120.78 153l.02-4.73-1.41-.81z"/><path style="fill:url(#linear-gradient-16)" d="m117.09 148.52 27.08-15.74v29.23l-27.08 15.71v-29.2z"/><path d="m117.09 118.22 3.07-1.78c2-1.16 6.77.44 11.53 3.19 6.25 3.61 12.49 9.19 12.48 13.16l-27.08 15.74v-30.3Z" style="fill:url(#linear-gradient-17)"/><path class="cls-84" d="m146.13 154.8-.01 8.09 95.31-55.39.01-7.48-95.31 54.78z"/><path class="cls-38" d="m241.47 76.24-95.31 55.38-.03 23.18 95.31-54.78.03-23.78z"/><path d="m159.55 130.4-.06.03v11.81c0 .39-.31.88-.7 1.1l-10.12 5.84v.33c0 .39.31.52.7.3l10.18-5.88c.39-.22.7-.72.7-1.1V130.7c0-.39-.31-.52-.7-.3Z" style="fill:url(#_名称未設定グラデーション_82-8)"/><path d="M159.49 142.24v-11.81l-10.12 5.84c-.39.22-.7.72-.7 1.1v11.81l10.12-5.84c.39-.22.7-.72.7-1.1Z" style="fill:url(#linear-gradient-18)"/><path d="m185.11 116.02-.06.03v11.81c0 .39-.31.88-.7 1.1l-10.12 5.84v.33c0 .39.31.52.7.3l10.18-5.88c.39-.22.7-.72.7-1.1v-12.13c0-.39-.31-.52-.7-.3Z" style="fill:url(#_名称未設定グラデーション_82-9)"/><path d="M185.05 127.86v-11.81l-10.12 5.84c-.39.22-.7.72-.7 1.1v11.81l10.12-5.84c.39-.22.7-.72.7-1.1Z" style="fill:url(#linear-gradient-19)"/><path d="m198.34 108.17-.06.03v11.81c0 .39-.31.88-.7 1.1l-10.12 5.84v.33c0 .39.31.52.7.3l10.18-5.88c.39-.22.7-.72.7-1.1v-12.13c0-.39-.31-.52-.7-.3Z" style="fill:url(#_名称未設定グラデーション_82-10)"/><path d="M198.28 120.01V108.2l-10.12 5.84c-.39.22-.7.72-.7 1.1v11.81l10.12-5.84c.39-.22.7-.72.7-1.1Z" style="fill:url(#linear-gradient-20)"/><path d="m211.57 100.32-.06.03v11.81c0 .39-.31.88-.7 1.1l-10.12 5.84v.33c0 .39.31.52.7.3l10.18-5.88c.39-.22.7-.72.7-1.1v-12.13c0-.39-.31-.52-.7-.3Z" style="fill:url(#_名称未設定グラデーション_82-11)"/><path d="M211.51 112.16v-11.81l-10.12 5.84c-.39.22-.7.72-.7 1.1v11.81l10.12-5.84c.39-.22.7-.72.7-1.1Z" style="fill:url(#linear-gradient-21)"/><path d="m238.25 85.3-.06.03v11.81c0 .39-.31.88-.7 1.1l-10.12 5.84v.33c0 .39.31.52.7.3l10.18-5.88c.39-.22.7-.72.7-1.1V85.6c0-.39-.31-.52-.7-.3Z" style="fill:url(#_名称未設定グラデーション_82-12)"/><path d="M238.19 97.14V85.33l-10.12 5.84c-.39.22-.7.72-.7 1.1v11.81l10.12-5.84c.39-.22.7-.72.7-1.1Z" style="fill:url(#linear-gradient-22)"/><path d="M172.54 123.18v20.15c0 .39-.31.88-.7 1.1l-10.18 5.88s-.07.03-.11.04c0 .39.31.52.7.3l10.18-5.88c.39-.22.7-.72.7-1.1v-20.15c0-.35-.26-.47-.59-.34Z" style="fill:url(#_名称未設定グラデーション_82-13)"/><path d="M171.84 144.43c.39-.22.7-.72.7-1.1v-20.15s-.07.02-.11.04l-10.18 5.88c-.39.22-.7.72-.7 1.1v20.15c.04-.02.07-.02.11-.04l10.18-5.88Z" style="fill:url(#linear-gradient-23)"/><path class="cls-18" d="M172.54 123.18s-.07.02-.11.04l-10.18 5.88c-.39.22-.7.72-.7 1.1v4.8l10.99-6.27v-5.55ZM161.55 150.35c.04-.02.07-.02.11-.04l10.18-5.88c.39-.22.7-.72.7-1.1v-3.92l-10.99 6.27v4.67Z"/><path class="cls-38" d="M161.55 135v10.68l10.99-6.27v-10.68L161.55 135z"/><path d="m167.15 126.26.39-.21v20.97c-.18.08-.36.15-.54.22v-20.91c.05-.02.1-.04.15-.07Z" style="fill:url(#linear-gradient-24)"/><path d="m167.03 126.34.03 10.41-5.45 3.14-.03-9.5c0-.56.3-1.08.79-1.36l4.66-2.69Z" style="fill:url(#linear-gradient-25)"/><path style="fill:url(#linear-gradient-26)" d="m172.65 123.15.03 10.26-5.07 2.93-.03-10.26 5.07-2.93z"/><path d="M224.79 92.91v20.15c0 .39-.31.88-.7 1.1l-10.18 5.88s-.07.03-.11.04c0 .39.31.52.7.3l10.18-5.88c.39-.22.7-.72.7-1.1V93.25c0-.35-.26-.47-.59-.34Z" style="fill:url(#_名称未設定グラデーション_82-14)"/><path d="M224.09 114.16c.39-.22.7-.72.7-1.1V92.91s-.07.02-.11.04l-10.18 5.88c-.39.22-.7.72-.7 1.1v20.15c.04-.02.07-.02.11-.04l10.18-5.88Z" style="fill:url(#linear-gradient-27)"/><path class="cls-18" d="M224.79 92.91s-.07.02-.11.04l-10.18 5.88c-.39.22-.7.72-.7 1.1v4.8l10.99-6.27v-5.55ZM213.8 120.08c.04-.02.07-.02.11-.04l10.18-5.88c.39-.22.7-.72.7-1.1v-3.92l-10.99 6.27v4.67Z"/><path class="cls-38" d="M213.8 104.73v10.68l10.99-6.27V98.46l-10.99 6.27z"/><path d="m219.4 95.99.39-.21v20.97c-.18.08-.36.15-.54.22V96.06c.05-.02.1-.04.15-.07Z" style="fill:url(#linear-gradient-28)"/><path d="m219.27 96.07.03 10.41-5.45 3.14-.03-9.5c0-.56.3-1.08.79-1.36l4.66-2.69Z" style="fill:url(#linear-gradient-29)"/><path style="fill:url(#linear-gradient-30)" d="m224.89 92.88.03 10.26-5.07 2.93-.03-10.26 5.07-2.93z"/><path class="cls-83" d="m215.78 58.75-95.3 55.39c1.2-.69 3.33-.45 5.86.4l95.33-55.38c-2.55-.86-4.69-1.11-5.89-.41Z"/><path class="cls-40" d="M221.96 59.25c-.1-.04-.2-.06-.3-.1l-95.33 55.38c.12.04.24.07.36.12 1.27.45 2.63 1.06 4.03 1.76l95.32-55.38c-1.41-.72-2.8-1.33-4.08-1.79Z"/><path class="cls-85" d="M228.12 62.16c-.7-.4-1.39-.77-2.08-1.12l-95.32 55.38c.69.35 1.39.72 2.09 1.13 1.3.75 2.59 1.58 3.84 2.47l95.32-55.38c-1.25-.89-2.56-1.72-3.86-2.48Z"/><path class="cls-89" d="M237.14 68.9c-.33-.33-.68-.65-1.03-.97l-95.32 55.38.64.58c1.18 1.13 2.2 2.27 2.99 3.39l95.32-55.38c-.7-.99-1.58-2-2.59-3Z"/><path class="cls-88" d="m231.98 64.63-95.32 55.38c1.47 1.04 2.87 2.15 4.13 3.29l95.32-55.38c-1.25-1.14-2.66-2.25-4.13-3.29Z"/><path class="cls-41" d="M144.41 127.27c1.09 1.54 1.76 3.03 1.75 4.35l95.3-55.39c0-1.32-.65-2.8-1.74-4.34l-95.32 55.38Z"/><path class="cls-9" d="m31.47 227.69 106.87-62.11v4.74L31.46 232.43l.01-4.74z"/><path style="fill:#646768" d="m8.16 218.97 23.31 13.46v-4.56L8.16 214.41v4.56z"/><path class="cls-38" d="m32.92 197.24-2.62 14.17-2.19 11.81 111.65-65.02.01-10.55.02-12.52-106.87 62.11z"/><path class="cls-21" d="m28.11 223.22-1.66 8.99 113.3-65.81.01-8.2-111.65 65.02z"/><path d="M.78 218.7c-.57-.33-.87-.98-.76-1.62l6.24-35.56c.74-4.09 6.63-2.22 13.31 1.64 6.68 3.86 13.36 9.84 13.35 14.08l-5.97 34.14a1.566 1.566 0 0 1-2.32 1.09L.78 218.7Z" style="fill:#c7d8e8"/><path d="M58.14 200.62v-11.81l-10.12 5.84c-.39.22-.7.72-.7 1.1v11.81l10.12-5.84c.39-.22.7-.72.7-1.1Z" style="fill:url(#linear-gradient-31)"/><path d="m58.19 188.78-.06.03v11.81c0 .39-.31.88-.7 1.1l-10.12 5.84v.33c0 .39.31.52.7.3l10.18-5.88c.39-.22.7-.72.7-1.1v-12.13c0-.39-.31-.52-.7-.3Z" style="fill:url(#_名称未設定グラデーション_82-15)"/><path d="M58.14 200.62v-11.81l-10.12 5.84c-.39.22-.7.72-.7 1.1v11.81l10.12-5.84c.39-.22.7-.72.7-1.1Z" style="fill:url(#linear-gradient-32)"/><path d="m86.11 172.72-.06.03v11.81c0 .39-.31.88-.7 1.1l-10.12 5.84v.33c0 .39.31.52.7.3l10.18-5.88c.39-.22.7-.72.7-1.1v-12.13c0-.39-.31-.52-.7-.3Z" style="fill:url(#_名称未設定グラデーション_82-16)"/><path d="M86.05 184.56v-11.81l-10.12 5.84c-.39.22-.7.72-.7 1.1v11.81l10.12-5.84c.39-.22.7-.72.7-1.1Z" style="fill:url(#linear-gradient-33)"/><path d="m99.14 164.98-.06.03v11.81c0 .39-.31.88-.7 1.1l-10.12 5.84v.33c0 .39.31.52.7.3l10.18-5.88c.39-.22.7-.72.7-1.1v-12.13c0-.39-.31-.52-.7-.3Z" style="fill:url(#_名称未設定グラデーション_82-17)"/><path d="M99.08 176.82v-11.81l-10.12 5.84c-.39.22-.7.72-.7 1.1v11.81l10.12-5.84c.39-.22.7-.72.7-1.1Z" style="fill:url(#linear-gradient-34)"/><path d="m112.26 157.42-.06.03v11.81c0 .39-.31.88-.7 1.1l-10.12 5.84v.33c0 .39.31.52.7.3l10.18-5.88c.39-.22.7-.72.7-1.1v-12.13c0-.39-.31-.52-.7-.3Z" style="fill:url(#_名称未設定グラデーション_82-18)"/><path d="M112.2 169.26v-11.81l-10.12 5.84c-.39.22-.7.72-.7 1.1v11.81l10.12-5.84c.39-.22.7-.72.7-1.1Z" style="fill:url(#linear-gradient-35)"/><path d="m137.82 143.04-.06.03v11.81c0 .39-.31.88-.7 1.1l-10.12 5.84v.33c0 .39.31.52.7.3l10.18-5.88c.39-.22.7-.72.7-1.1v-12.13c0-.39-.31-.52-.7-.3Z" style="fill:url(#_名称未設定グラデーション_82-19)"/><path d="M137.76 154.88v-11.81l-10.12 5.84c-.39.22-.7.72-.7 1.1v11.81l10.12-5.84c.39-.22.7-.72.7-1.1Z" style="fill:url(#linear-gradient-36)"/><path d="M43.87 196.77v11.85c0 .39-.31.88-.7 1.1l-10.15 5.86-.05.31c0 .39.31.52.7.3l10.18-5.88c.39-.22.7-.72.7-1.1v-12.13c0-.38-.3-.51-.67-.31Z" style="fill:url(#_名称未設定グラデーション_82-20)"/><path d="M43.87 208.62v-11.85h-.03l-6.51 3.76a4.776 4.776 0 0 0-2.33 3.35l-1.98 11.7 10.15-5.86c.39-.22.7-.72.7-1.1Z" style="fill:url(#linear-gradient-37)"/><path d="M43.87 208.62v-11.85h-.03l-6.51 3.76a4.776 4.776 0 0 0-2.33 3.35l-1.98 11.7 10.15-5.86c.39-.22.7-.72.7-1.1Z" style="fill:url(#linear-gradient-38)"/><path d="M4.83 209.28c-.61-.35-.93-1.05-.82-1.74l4.07-24.23s.15-1.19 1.38-1.21c2.04-.03 5.47 1.26 9.16 3.39 6.06 3.5 10.79 8.02 11.7 11.05.14.47.14.96.06 1.45l-3.74 21.36a1.69 1.69 0 0 1-2.52 1.17l-19.3-11.25Z" style="fill:url(#linear-gradient-39)"/><g style="clip-path:url(#clippath)"><path style="fill:#d2dbdc;opacity:.2" d="m-2.17 210.48 26.8 15.47 5.64-3.26-26.8-15.47-5.64 3.26z"/></g><path class="cls-38" d="M8.09 183.31s.15-1.19 1.38-1.21c2.04-.03 5.47 1.26 9.16 3.39 6.06 3.5 10.79 8.02 11.7 11.05.14.47.14.96.06 1.45l-.28 1.58-22.57-13.03.54-3.24Z"/><path class="cls-42" d="M10.9 185.13c0 .77.54 1.71 1.21 2.09s1.21.07 1.21-.7-.54-1.71-1.21-2.09-1.21-.07-1.21.7ZM24.15 192.97c0 .77.54 1.71 1.21 2.09.67.39 1.21.07 1.21-.7s-.54-1.71-1.21-2.09-1.21-.07-1.21.7Z"/><path d="M3.55 216.78c-.61-.35-.93-1.05-.82-1.74l4.07-24.23s.15-1.19 1.38-1.21c2.04-.03 5.47 1.26 9.16 3.39 6.06 3.5 10.79 8.02 11.7 11.05.14.47.14.96.06 1.45l-3.74 21.36a1.69 1.69 0 0 1-2.52 1.17l-19.3-11.25Z" style="fill:url(#_名称未設定グラデーション_55)"/><path d="m17.56 219.4-.44 2.5c-.02.14.04.27.16.34l5.09 2.96c.2.12.45 0 .49-.23l.44-2.5a.33.33 0 0 0-.16-.34l-5.09-2.96c-.2-.12-.45 0-.49.23Z" style="fill:#f7f8f8"/><path class="cls-38" d="m4.68 211.66 5.09 2.96c.12.07.18.21.16.34l-.44 2.5c-.04.23-.29.35-.49.23l-5.09-2.96a.338.338 0 0 1-.16-.34l.44-2.5c.04-.23.29-.35.49-.23Z"/><path class="cls-21" d="m3.98 208.06 22.37 12.53s-.59 1.01-1.77.76c-1.18-.25-20.6-11.27-20.6-11.27s-.84-.92 0-2.02Z"/><path d="M72.2 180.98v20.15c0 .39-.31.88-.7 1.1l-10.18 5.88s-.07.03-.11.04c0 .39.31.52.7.3l10.18-5.88c.39-.22.7-.72.7-1.1v-20.15c0-.35-.26-.47-.59-.34Z" style="fill:url(#_名称未設定グラデーション_82-21)"/><path d="M71.5 202.23c.39-.22.7-.72.7-1.1v-20.15s-.07.02-.11.04l-10.18 5.88c-.39.22-.7.72-.7 1.1v20.15c.04-.02.07-.02.11-.04l10.18-5.88Z" style="fill:url(#linear-gradient-41)"/><path class="cls-18" d="M72.2 180.98s-.07.02-.11.04l-10.18 5.88c-.39.22-.7.72-.7 1.1v4.8l10.99-6.27v-5.55ZM61.21 208.14c.04-.02.07-.02.11-.04l10.18-5.88c.39-.22.7-.72.7-1.1v-3.92l-10.99 6.27v4.67Z"/><path class="cls-38" d="M61.21 192.8v10.68l10.99-6.27v-10.68l-10.99 6.27z"/><path d="m66.81 184.05.39-.21v20.97c-.18.08-.36.15-.54.22v-20.91c.05-.02.1-.04.15-.07Z" style="fill:url(#linear-gradient-42)"/><path d="m66.68 184.14.03 10.41-5.45 3.14-.03-9.5c0-.56.3-1.08.79-1.36l4.66-2.69Z" style="fill:url(#linear-gradient-43)"/><path style="fill:url(#linear-gradient-44)" d="m72.3 180.95.03 10.26-5.07 2.93-.03-10.26 5.07-2.93z"/><path d="M125.25 150.2v20.15c0 .39-.31.88-.7 1.1l-10.18 5.88s-.07.03-.11.04c0 .39.31.52.7.3l10.18-5.88c.39-.22.7-.72.7-1.1v-20.15c0-.35-.26-.47-.59-.34Z" style="fill:url(#_名称未設定グラデーション_82-22)"/><path d="M124.55 171.45c.39-.22.7-.72.7-1.1V150.2s-.07.02-.11.04l-10.18 5.88c-.39.22-.7.72-.7 1.1v20.15c.04-.02.07-.02.11-.04l10.18-5.88Z" style="fill:url(#linear-gradient-45)"/><path class="cls-18" d="M125.25 150.2s-.07.02-.11.04l-10.18 5.88c-.39.22-.7.72-.7 1.1v4.8l10.99-6.27v-5.55ZM114.26 177.37c.04-.02.07-.02.11-.04l10.18-5.88c.39-.22.7-.72.7-1.1v-3.92l-10.99 6.27v4.67Z"/><path class="cls-38" d="M114.26 162.02v10.68l10.99-6.27v-10.68l-10.99 6.27z"/><path d="m119.87 153.28.39-.21v20.97c-.18.08-.36.15-.54.22v-20.91c.05-.02.1-.04.15-.07Z" style="fill:url(#linear-gradient-46)"/><path d="m119.74 153.36.03 10.41-5.45 3.14-.03-9.5c0-.56.3-1.08.79-1.36l4.66-2.69Z" style="fill:url(#linear-gradient-47)"/><path style="fill:url(#linear-gradient-48)" d="m125.36 150.17.03 10.26-5.07 2.93-.03-10.26 5.07-2.93z"/><path class="cls-40" d="M123.59 119.55c-1.15-.56-2.27-1.04-3.33-1.41l-106.89 62.1c.27.09.54.19.82.3 1.07.42 2.2.94 3.35 1.52.05.03.11.06.16.09l106.89-62.1c-.34-.17-.67-.35-1-.51Z"/><path class="cls-83" d="M120.24 118.13c-2.65-.93-4.89-1.21-6.13-.49L7.39 179.65s0 .01 0 0c1.27-.61 3.43-.31 5.98.58l106.89-62.1s-.02 0-.03-.01Z"/><path class="cls-85" d="M126.44 121.05c-.62-.36-1.24-.69-1.85-1L17.7 182.15c.62.32 1.24.65 1.87 1.01a46.9 46.9 0 0 1 4.03 2.61l106.89-62.1c-1.31-.94-2.68-1.82-4.05-2.62Z"/><path class="cls-89" d="M138.07 130.83c-.81-1.16-1.87-2.34-3.1-3.51-.12-.12-.26-.23-.39-.35L27.7 189.07c.31.28.62.56.91.85 1.06 1.05 1.97 2.11 2.68 3.15l106.88-62.09s-.06-.1-.1-.14Z"/><path class="cls-88" d="M131.9 124.71c-.46-.35-.93-.7-1.4-1.04l-106.89 62.1c.73.52 1.45 1.05 2.13 1.61.69.56 1.34 1.12 1.97 1.7l106.88-62.1c-.84-.77-1.74-1.53-2.69-2.27Z"/><path class="cls-41" d="M138.17 130.97 31.29 193.06s.02.03.03.04c1 1.46 1.6 2.88 1.6 4.14l106.87-62.11c0-1.26-.61-2.69-1.62-4.16Z"/></g></g></g></svg>