<?xml version="1.0" encoding="UTF-8"?>
<svg id="Layer_2" data-name="Layer 2" xmlns="http://www.w3.org/2000/svg" xmlns:xlink="http://www.w3.org/1999/xlink" viewBox="0 0 112.74 93.1">
  <defs>
    <style>
      .cls-1 {
        fill: none;
      }

      .cls-2 {
        fill: #194c78;
      }

      .cls-3 {
        fill: #1e609e;
      }

      .cls-4 {
        fill: #006a9a;
      }

      .cls-5 {
        fill: #0465b0;
      }

      .cls-6 {
        fill: #09f;
      }

      .cls-7 {
        fill: #1783c2;
      }

      .cls-8 {
        fill: #006695;
      }

      .cls-9 {
        isolation: isolate;
      }

      .cls-10 {
        fill: #00567d;
      }

      .cls-11 {
        clip-path: url(#clippath-1);
      }

      .cls-12 {
        fill: #006390;
      }

      .cls-13 {
        fill: #005379;
      }

      .cls-14 {
        fill: #2890c1;
      }

      .cls-15 {
        clip-path: url(#clippath);
      }
    </style>
    <clipPath id="clippath">
      <path class="cls-1" d="M87.42,8.29l3.52,2.05c6.97,4.05,11.21,12.2,11.25,23.78l-3.52-2.05c-.03-11.58-4.28-19.73-11.25-23.78Z"/>
    </clipPath>
    <clipPath id="clippath-1">
      <path class="cls-5" d="M90.83,3.22l3.52,2.05C85.34.03,72.2,1.02,57.61,9.45l-3.52-2.05c14.59-8.42,27.73-9.42,36.74-4.18Z"/>
    </clipPath>
  </defs>
  <g id="layer3">
    <g>
      <g class="cls-9">
        <polygon class="cls-7" points="112.74 30.1 8.54 90.65 0 85.73 104.21 25.17 112.74 30.1"/>
        <polygon class="cls-6" points="112.74 30.1 112.73 32.55 8.53 93.1 8.54 90.65 112.74 30.1"/>
        <polygon class="cls-10" points="8.54 90.65 8.53 93.1 0 88.17 0 85.73 8.54 90.65"/>
      </g>
      <g class="cls-9">
        <polygon class="cls-6" points="24.04 44.08 24.13 77.97 22.71 78.79 22.61 44.9 24.04 44.08"/>
        <polygon class="cls-2" points="22.71 78.79 21.3 77.98 21.2 44.08 22.61 44.9 22.71 78.79"/>
        <polygon class="cls-14" points="22.61 44.9 21.2 44.08 22.63 43.26 24.04 44.08 22.61 44.9"/>
      </g>
      <g class="cls-9">
        <polygon class="cls-6" points="31.32 38.09 31.42 73.79 29.91 74.66 29.81 38.97 31.32 38.09"/>
        <polygon class="cls-2" points="29.91 74.66 28.5 73.84 28.4 38.15 29.81 38.97 29.91 74.66"/>
        <polygon class="cls-14" points="29.81 38.97 28.4 38.15 29.91 37.27 31.32 38.09 29.81 38.97"/>
      </g>
      <g class="cls-9">
        <polygon class="cls-6" points="88.1 6.95 88.19 40.84 86.78 41.66 86.68 7.77 88.1 6.95"/>
        <polygon class="cls-2" points="86.78 41.66 85.37 40.84 85.27 6.95 86.68 7.77 86.78 41.66"/>
        <polygon class="cls-14" points="86.68 7.77 85.27 6.95 86.69 6.13 88.1 6.95 86.68 7.77"/>
      </g>
      <g class="cls-9">
        <polygon class="cls-6" points="95.06 8.18 95.15 37.29 93.73 38.11 93.65 8.99 95.06 8.18"/>
        <polygon class="cls-2" points="93.73 38.11 92.32 37.29 92.24 8.17 93.65 8.99 93.73 38.11"/>
        <polygon class="cls-14" points="93.65 8.99 92.24 8.17 93.65 7.36 95.06 8.18 93.65 8.99"/>
      </g>
      <g class="cls-9">
        <polygon class="cls-6" points="38.37 27.62 38.49 69.51 37.07 70.32 36.95 28.44 38.37 27.62"/>
        <polygon class="cls-2" points="37.07 70.32 35.66 69.5 35.54 27.62 36.95 28.44 37.07 70.32"/>
        <polygon class="cls-14" points="36.95 28.44 35.54 27.62 36.96 26.8 38.37 27.62 36.95 28.44"/>
      </g>
      <g class="cls-9">
        <polygon class="cls-6" points="73.74 6.87 73.86 48.76 72.44 49.58 72.32 7.69 73.74 6.87"/>
        <polygon class="cls-2" points="72.44 49.58 71.03 48.76 70.91 6.87 72.32 7.69 72.44 49.58"/>
        <polygon class="cls-14" points="72.32 7.69 70.91 6.87 72.33 6.05 73.74 6.87 72.32 7.69"/>
      </g>
      <g class="cls-9">
        <polygon class="cls-6" points="80.99 6.78 81.1 44.81 79.67 45.64 79.56 7.6 80.99 6.78"/>
        <polygon class="cls-2" points="79.67 45.64 78.26 44.82 78.16 6.78 79.56 7.6 79.67 45.64"/>
        <polygon class="cls-14" points="79.56 7.6 78.16 6.78 79.58 5.96 80.99 6.78 79.56 7.6"/>
      </g>
      <g class="cls-9">
        <polygon class="cls-6" points="45.61 19.96 45.74 65.43 44.32 66.25 44.19 20.78 45.61 19.96"/>
        <polygon class="cls-2" points="44.32 66.25 42.91 65.43 42.78 19.96 44.19 20.78 44.32 66.25"/>
        <polygon class="cls-14" points="44.19 20.78 42.78 19.96 44.2 19.14 45.61 19.96 44.19 20.78"/>
      </g>
      <g class="cls-9">
        <polygon class="cls-6" points="52.57 15.44 52.7 60.92 51.28 61.73 51.15 16.26 52.57 15.44"/>
        <polygon class="cls-2" points="51.28 61.73 49.87 60.91 49.74 15.44 51.15 16.26 51.28 61.73"/>
        <polygon class="cls-14" points="51.15 16.26 49.74 15.44 51.16 14.63 52.57 15.44 51.15 16.26"/>
      </g>
      <g class="cls-9">
        <polygon class="cls-6" points="59.53 11.54 59.65 57 58.24 57.82 58.11 12.36 59.53 11.54"/>
        <polygon class="cls-2" points="58.24 57.82 56.83 57 56.7 11.54 58.11 12.36 58.24 57.82"/>
        <polygon class="cls-14" points="58.11 12.36 56.7 11.54 58.12 10.72 59.53 11.54 58.11 12.36"/>
      </g>
      <g class="cls-9">
        <polygon class="cls-6" points="66.49 7.72 66.61 53.19 65.2 54.01 65.07 8.54 66.49 7.72"/>
        <polygon class="cls-2" points="65.2 54.01 63.79 53.19 63.66 7.72 65.07 8.54 65.2 54.01"/>
        <polygon class="cls-14" points="65.07 8.54 63.66 7.72 65.08 6.9 66.49 7.72 65.07 8.54"/>
      </g>
      <g class="cls-9">
        <g class="cls-9">
          <g class="cls-15">
            <g class="cls-9">
              <path class="cls-13" d="M102.19,34.11l-3.52-2.05c-.03-11.58-4.28-19.73-11.25-23.78l3.52,2.05c6.97,4.05,11.21,12.2,11.25,23.78"/>
            </g>
          </g>
        </g>
        <g class="cls-9">
          <path class="cls-5" d="M90.83,3.22l3.52,2.05C85.34.03,72.2,1.02,57.61,9.45l-3.52-2.05c14.59-8.42,27.73-9.42,36.74-4.18Z"/>
          <g class="cls-11">
            <g class="cls-9">
              <path class="cls-4" d="M89.24,3.09l-3.52-2.05c.87.25,1.71.55,2.52.89l3.52,2.05c-.81-.34-1.65-.64-2.52-.89"/>
              <path class="cls-8" d="M91.76,3.98l-3.52-2.05c.81.34,1.59.72,2.35,1.15l3.52,2.05c-.75-.42-1.54-.81-2.35-1.15"/>
              <path class="cls-12" d="M94.1,5.12l-3.52-2.05c.08.05.17.1.25.14l3.52,2.05c-.08-.05-.17-.1-.25-.14"/>
            </g>
          </g>
        </g>
        <path class="cls-6" d="M57.61,9.45c27.02-15.6,49.07-5.72,49.14,22.04l-4.56,2.63C102.12,8.94,82.13-.02,57.62,14.13S13.24,60.26,13.31,85.43l-4.56,2.63c-.08-27.75,21.84-63.02,48.85-78.62Z"/>
        <g class="cls-9">
          <path class="cls-3" d="M8.75,88.06l-3.52-2.05c-.08-27.75,21.84-63.02,48.85-78.62l3.52,2.05C30.59,25.04,8.68,60.31,8.75,88.06Z"/>
        </g>
      </g>
    </g>
  </g>
</svg>