<?xml version="1.0" encoding="UTF-8"?>
<svg id="Layer_2" data-name="Layer 2" xmlns="http://www.w3.org/2000/svg" viewBox="0 0 92.4 62.6">
  <defs>
    <style>
      .cls-1 {
        fill: #898783;
      }

      .cls-2 {
        fill: #c5c2bd;
      }

      .cls-3 {
        isolation: isolate;
      }

      .cls-4 {
        fill: #888683;
      }

      .cls-5 {
        fill: #dcd8d3;
      }

      .cls-6 {
        fill: #dbd8d3;
      }
    </style>
  </defs>
  <g id="layer3">
    <g>
      <g>
        <g class="cls-3">
          <polygon class="cls-5" points="49.57 26.25 48.87 26.65 48.16 26.25 48.86 25.84 49.57 26.25"/>
          <polygon class="cls-2" points="49.57 26.25 49.54 36.03 48.84 36.44 48.87 26.65 49.57 26.25"/>
          <polygon class="cls-1" points="48.87 26.65 48.84 36.44 48.13 36.03 48.16 26.25 48.87 26.65"/>
        </g>
        <g class="cls-3">
          <polygon class="cls-5" points="54.63 23.32 53.92 23.74 53.21 23.33 53.92 22.91 54.63 23.32"/>
          <polygon class="cls-2" points="54.63 23.32 54.6 33.1 53.89 33.52 53.92 23.74 54.63 23.32"/>
          <polygon class="cls-1" points="53.92 23.74 53.89 33.52 53.18 33.11 53.21 23.33 53.92 23.74"/>
        </g>
        <g class="cls-3">
          <polygon class="cls-5" points="59.7 20.4 58.99 20.81 58.27 20.4 58.98 19.99 59.7 20.4"/>
          <polygon class="cls-2" points="59.7 20.4 59.67 30.18 58.96 30.59 58.99 20.81 59.7 20.4"/>
          <polygon class="cls-1" points="58.99 20.81 58.96 30.59 58.24 30.18 58.27 20.4 58.99 20.81"/>
        </g>
        <g class="cls-3">
          <polygon class="cls-5" points="64.76 17.47 64.05 17.89 63.34 17.48 64.05 17.06 64.76 17.47"/>
          <polygon class="cls-2" points="64.76 17.47 64.73 27.25 64.02 27.67 64.05 17.89 64.76 17.47"/>
          <polygon class="cls-1" points="64.05 17.89 64.02 27.67 63.31 27.26 63.34 17.48 64.05 17.89"/>
        </g>
        <g class="cls-3">
          <polygon class="cls-5" points="69.81 14.55 69.1 14.96 68.39 14.55 69.1 14.14 69.81 14.55"/>
          <polygon class="cls-2" points="69.81 14.55 69.79 24.33 69.08 24.74 69.1 14.96 69.81 14.55"/>
          <polygon class="cls-1" points="69.1 14.96 69.08 24.74 68.37 24.33 68.39 14.55 69.1 14.96"/>
        </g>
        <g class="cls-3">
          <polygon class="cls-5" points="74.87 11.62 74.16 12.04 73.45 11.63 74.16 11.21 74.87 11.62"/>
          <polygon class="cls-2" points="74.87 11.62 74.84 21.4 74.13 21.82 74.16 12.04 74.87 11.62"/>
          <polygon class="cls-1" points="74.16 12.04 74.13 21.82 73.42 21.41 73.45 11.63 74.16 12.04"/>
        </g>
        <g class="cls-3">
          <polygon class="cls-5" points="79.94 8.7 79.23 9.11 78.51 8.7 79.22 8.29 79.94 8.7"/>
          <polygon class="cls-2" points="79.94 8.7 79.91 18.48 79.2 18.89 79.23 9.11 79.94 8.7"/>
          <polygon class="cls-1" points="79.23 9.11 79.2 18.89 78.48 18.48 78.51 8.7 79.23 9.11"/>
        </g>
        <g class="cls-3">
          <polygon class="cls-5" points="85 5.77 84.29 6.19 83.58 5.78 84.29 5.36 85 5.77"/>
          <polygon class="cls-2" points="85 5.77 84.97 15.55 84.26 15.97 84.29 6.19 85 5.77"/>
          <polygon class="cls-1" points="84.29 6.19 84.26 15.97 83.55 15.56 83.58 5.78 84.29 6.19"/>
        </g>
        <g class="cls-3">
          <polygon class="cls-5" points="90.05 2.85 89.34 3.26 88.64 2.85 89.35 2.44 90.05 2.85"/>
          <polygon class="cls-2" points="90.05 2.85 90.03 12.63 89.32 13.04 89.34 3.26 90.05 2.85"/>
          <polygon class="cls-1" points="89.34 3.26 89.32 13.04 88.61 12.63 88.64 2.85 89.34 3.26"/>
        </g>
        <g class="cls-3">
          <polygon class="cls-2" points="92.4 .49 92.4 1.7 46.12 28.42 46.12 27.21 92.4 .49"/>
          <polygon class="cls-4" points="46.12 28.42 45.27 27.93 45.27 26.72 46.12 27.21 46.12 28.42"/>
          <polygon class="cls-6" points="46.12 27.21 45.27 26.72 91.55 0 92.4 .49 46.12 27.21"/>
        </g>
      </g>
      <g>
        <g class="cls-3">
          <polygon class="cls-5" points="4.3 52.41 3.59 52.82 2.89 52.41 3.59 52 4.3 52.41"/>
          <polygon class="cls-2" points="4.3 52.41 4.27 62.19 3.57 62.6 3.59 52.82 4.3 52.41"/>
          <polygon class="cls-1" points="3.59 52.82 3.57 62.6 2.86 62.19 2.89 52.41 3.59 52.82"/>
        </g>
        <g class="cls-3">
          <polygon class="cls-5" points="9.36 49.49 8.65 49.9 7.94 49.49 8.65 49.08 9.36 49.49"/>
          <polygon class="cls-2" points="9.36 49.49 9.33 59.27 8.62 59.68 8.65 49.9 9.36 49.49"/>
          <polygon class="cls-1" points="8.65 49.9 8.62 59.68 7.91 59.27 7.94 49.49 8.65 49.9"/>
        </g>
        <g class="cls-3">
          <polygon class="cls-5" points="14.43 46.56 13.72 46.98 13 46.56 13.71 46.15 14.43 46.56"/>
          <polygon class="cls-2" points="14.43 46.56 14.4 56.35 13.69 56.76 13.72 46.98 14.43 46.56"/>
          <polygon class="cls-1" points="13.72 46.98 13.69 56.76 12.97 56.35 13 46.56 13.72 46.98"/>
        </g>
        <g class="cls-3">
          <polygon class="cls-5" points="19.48 43.64 18.77 44.05 18.07 43.64 18.78 43.23 19.48 43.64"/>
          <polygon class="cls-2" points="19.48 43.64 19.46 53.42 18.75 53.83 18.77 44.05 19.48 43.64"/>
          <polygon class="cls-1" points="18.77 44.05 18.75 53.83 18.04 53.42 18.07 43.64 18.77 44.05"/>
        </g>
        <g class="cls-3">
          <polygon class="cls-5" points="24.54 40.71 23.83 41.13 23.12 40.72 23.83 40.3 24.54 40.71"/>
          <polygon class="cls-2" points="24.54 40.71 24.52 50.49 23.8 50.91 23.83 41.13 24.54 40.71"/>
          <polygon class="cls-1" points="23.83 41.13 23.8 50.91 23.1 50.5 23.12 40.72 23.83 41.13"/>
        </g>
        <g class="cls-3">
          <polygon class="cls-5" points="29.6 37.79 28.89 38.2 28.18 37.79 28.89 37.38 29.6 37.79"/>
          <polygon class="cls-2" points="29.6 37.79 29.57 47.57 28.86 47.98 28.89 38.2 29.6 37.79"/>
          <polygon class="cls-1" points="28.89 38.2 28.86 47.98 28.15 47.57 28.18 37.79 28.89 38.2"/>
        </g>
        <g class="cls-3">
          <polygon class="cls-5" points="34.67 34.86 33.96 35.28 33.24 34.86 33.95 34.45 34.67 34.86"/>
          <polygon class="cls-2" points="34.67 34.86 34.64 44.65 33.93 45.06 33.96 35.28 34.67 34.86"/>
          <polygon class="cls-1" points="33.96 35.28 33.93 45.06 33.21 44.65 33.24 34.86 33.96 35.28"/>
        </g>
        <g class="cls-3">
          <polygon class="cls-5" points="39.73 31.94 39.02 32.35 38.31 31.94 39.02 31.53 39.73 31.94"/>
          <polygon class="cls-2" points="39.73 31.94 39.7 41.72 38.99 42.13 39.02 32.35 39.73 31.94"/>
          <polygon class="cls-1" points="39.02 32.35 38.99 42.13 38.28 41.72 38.31 31.94 39.02 32.35"/>
        </g>
        <g class="cls-3">
          <polygon class="cls-5" points="44.78 29.01 44.07 29.43 43.36 29.02 44.08 28.6 44.78 29.01"/>
          <polygon class="cls-2" points="44.78 29.01 44.76 38.79 44.05 39.21 44.07 29.43 44.78 29.01"/>
          <polygon class="cls-1" points="44.07 29.43 44.05 39.21 43.34 38.8 43.36 29.02 44.07 29.43"/>
        </g>
        <g class="cls-3">
          <polygon class="cls-2" points="47.13 26.66 47.13 27.87 .85 54.59 .85 53.38 47.13 26.66"/>
          <polygon class="cls-4" points=".85 54.59 0 54.1 0 52.89 .85 53.38 .85 54.59"/>
          <polygon class="cls-6" points=".85 53.38 0 52.89 46.28 26.16 47.13 26.66 .85 53.38"/>
        </g>
      </g>
    </g>
  </g>
</svg>