<svg width="426" height="292" viewBox="0 0 426 292" fill="none" xmlns="http://www.w3.org/2000/svg">
<g clip-path="url(#clip0_1261_1792)">
<path d="M20.79 256.6H47.58V259.72H20.79V256.6ZM32.28 254.2H35.94V267.67H32.28V254.2ZM31.17 257.95L34.11 259.24C31.38 262.78 26.82 265.84 22.38 267.43C21.84 266.53 20.76 265.15 19.98 264.43C24.3 263.2 28.86 260.71 31.17 257.95ZM37.02 258.04C39.39 260.65 43.98 263.02 48.36 264.19C47.58 264.88 46.47 266.29 45.96 267.19C41.52 265.69 36.9 262.75 34.05 259.42L37.02 258.04ZM31.62 249.82V251.86H36.54V249.82H31.62ZM31.62 245.26V247.27H36.54V245.26H31.62ZM28.29 242.5H40.05V254.62H28.29V242.5ZM32.43 239.5L36.48 239.95C35.85 241.57 35.22 243.1 34.71 244.15L31.53 243.58C31.89 242.35 32.28 240.73 32.43 239.5ZM20.58 243.46L23.04 241.39C24.81 242.62 26.94 244.42 27.9 245.83L25.26 248.14C24.39 246.73 22.35 244.78 20.58 243.46ZM39.27 250.63L41.37 248.23C43.59 249.34 46.74 251.11 48.3 252.37L46.08 255.07C44.64 253.78 41.58 251.86 39.27 250.63ZM44.34 241L47.46 242.86C45.87 244.6 43.92 246.4 42.39 247.6L39.72 245.83C41.19 244.6 43.2 242.56 44.34 241ZM20.04 252.22C21.87 251.35 24.57 249.91 27.21 248.5L28.2 251.38C26.1 252.67 23.76 254.08 21.84 255.19L20.04 252.22ZM60.3 241.21C60.12 242.47 59.97 244.03 59.91 245.23C59.76 248.47 59.55 255.16 59.55 258.88C59.55 261.91 61.35 262.9 63.69 262.9C68.64 262.9 71.76 260.05 73.95 256.78L76.68 260.11C74.73 262.99 70.47 266.98 63.63 266.98C58.71 266.98 55.56 264.82 55.56 259.69C55.56 255.67 55.83 247.81 55.83 245.23C55.83 243.79 55.71 242.35 55.47 241.18L60.3 241.21ZM85.56 242.32C86.37 242.38 87.42 242.44 88.05 242.44C89.79 242.44 92.97 242.32 94.35 242.2C95.1 242.14 95.88 241.96 96.42 241.75L98.79 243.64C98.4 244.09 98.04 244.48 97.8 244.87C96.78 246.58 95.16 250.45 93.81 253.57C92.61 256.33 91.17 259.9 89.94 261.79C88.74 263.62 87.33 264.43 85.26 264.43C82.65 264.43 80.67 262.63 80.67 259.57C80.67 254.77 85.26 251.08 91.68 251.08C98.67 251.08 104.79 254.8 107.94 256.96L106.2 261.13C102.51 257.86 97.23 254.44 91.05 254.44C86.67 254.44 84.15 256.81 84.15 259C84.15 259.99 84.72 260.5 85.44 260.5C86.04 260.5 86.43 260.23 87 259.48C87.99 258.01 89.07 255.25 90.15 252.88C91.2 250.51 92.43 247.57 93.33 245.71C92.13 245.74 89.52 245.83 88.17 245.92C87.54 245.95 86.49 246.07 85.71 246.16L85.56 242.32ZM105.3 249.4C104.88 257.92 103.2 263.44 96.03 267.16L92.82 264.55C100.23 261.37 101.13 255.76 101.4 252.25C101.46 251.08 101.49 249.88 101.37 248.95L105.3 249.4ZM111.63 245.35C112.92 245.5 114.54 245.56 115.62 245.56C119.34 245.56 123.39 244.93 126.3 244L126.39 247.48C123.81 248.2 119.49 248.98 115.65 248.95C114.45 248.95 113.19 248.92 111.9 248.86L111.63 245.35ZM123.3 240.85C122.91 242.44 122.19 245.38 121.38 247.93C120 252.25 117.3 257.83 114.75 261.37L111.12 259.51C113.82 256.21 116.52 250.96 117.69 247.72C118.41 245.56 119.07 242.77 119.16 240.46L123.3 240.85ZM130.35 250.21C130.26 251.47 130.29 252.73 130.32 254.05C130.38 255.82 130.65 260.29 130.65 261.97C130.65 264.76 129.15 266.95 124.86 266.95C121.14 266.95 118.2 265.27 118.2 261.97C118.2 259.06 120.66 256.78 124.83 256.78C130.08 256.78 134.22 259.42 136.71 261.67L134.73 264.91C132.57 262.9 129.15 259.81 124.62 259.81C122.88 259.81 121.74 260.56 121.74 261.61C121.74 262.72 122.7 263.5 124.35 263.5C126.39 263.5 127.05 262.36 127.05 260.68C127.05 258.88 126.72 253.36 126.57 250.21H130.35ZM135.51 251.8C133.77 250.39 130.35 248.44 128.28 247.51L130.23 244.57C132.39 245.5 136.08 247.51 137.64 248.62L135.51 251.8ZM152.79 241.54C152.61 242.32 152.43 243.28 152.28 244.03C151.98 245.38 151.62 247.24 151.29 248.77C150.3 253 147.9 261.55 144.75 266.62L140.82 265.06C144.39 260.26 146.64 252.34 147.48 248.56C148.05 245.86 148.38 243.31 148.35 241.06L152.79 241.54ZM163.14 244.54C164.97 247.15 167.49 252.73 168.42 255.58L164.61 257.35C163.83 254.02 161.7 248.74 159.54 246.07L163.14 244.54ZM140.64 247.69C141.72 247.75 142.74 247.72 143.85 247.69C146.25 247.63 151.95 246.97 154.17 246.97C157.35 246.97 159.6 248.38 159.6 252.73C159.6 256.27 159.15 261.13 157.89 263.71C156.9 265.81 155.22 266.47 152.97 266.47C151.8 266.47 150.39 266.29 149.37 266.05L148.71 262.09C149.88 262.42 151.59 262.72 152.37 262.72C153.39 262.72 154.17 262.42 154.62 261.43C155.46 259.75 155.85 256.09 155.85 253.15C155.85 250.75 154.83 250.39 152.94 250.39C151.17 250.39 145.98 251.05 144.33 251.26C143.46 251.38 141.9 251.59 141 251.74L140.64 247.69ZM162.6 240.4C163.35 241.48 164.4 243.4 164.97 244.51L162.57 245.53C161.94 244.3 161.01 242.53 160.2 241.36L162.6 240.4ZM166.14 239.02C166.92 240.16 168.03 242.08 168.57 243.13L166.17 244.15C165.57 242.89 164.58 241.15 163.77 240.01L166.14 239.02ZM179.16 240.85C182.01 241.75 188.55 242.92 191.19 243.19L190.29 246.88C187.23 246.46 180.57 245.08 178.23 244.48L179.16 240.85ZM179.37 246.88C178.95 248.56 178.44 252.19 178.23 253.93C180.93 251.95 183.93 251.05 187.08 251.05C192.33 251.05 195.39 254.29 195.39 257.92C195.39 263.41 191.04 267.61 178.59 266.53L177.42 262.6C186.45 263.86 191.19 261.67 191.19 257.83C191.19 255.88 189.36 254.47 186.72 254.47C183.33 254.47 180.3 255.73 178.41 258.01C177.87 258.64 177.54 259.12 177.3 259.72L173.82 258.88C174.42 255.94 175.14 250.06 175.32 246.34L179.37 246.88ZM206.82 267.07C204.99 264.85 202.44 262.27 200.34 260.47L203.49 257.77C205.62 259.51 208.5 262.45 210.03 264.31L206.82 267.07ZM230.52 243.97H257.82V247.24H230.52V243.97ZM234.06 254.2H241.86V256.84H234.06V254.2ZM234.06 258.79H241.86V261.46H234.06V258.79ZM246.63 249.61H249.96V261.91H246.63V249.61ZM240.6 249.31H244.08V264.16C244.08 265.69 243.78 266.53 242.76 267.04C241.77 267.58 240.39 267.61 238.53 267.61C238.35 266.71 237.84 265.39 237.39 264.55C238.5 264.61 239.73 264.61 240.09 264.58C240.48 264.58 240.6 264.46 240.6 264.1V249.31ZM252.66 248.8H256.2V263.77C256.2 265.51 255.87 266.44 254.67 266.98C253.53 267.52 251.91 267.64 249.69 267.61C249.51 266.65 248.94 265.12 248.43 264.19C249.96 264.28 251.52 264.28 252.03 264.25C252.51 264.25 252.66 264.13 252.66 263.71V248.8ZM234.66 240.7L238.08 239.5C239.16 240.67 240.36 242.26 240.87 243.4L237.24 244.69C236.82 243.61 235.71 241.9 234.66 240.7ZM250.05 239.44L253.98 240.61C252.75 242.53 251.43 244.45 250.38 245.77L247.14 244.66C248.16 243.25 249.39 241.06 250.05 239.44ZM232.17 249.31H241.62V252.31H235.56V267.52H232.17V249.31ZM260.28 256.09C261.18 255.37 261.9 254.68 262.8 253.75C264.21 252.31 266.49 249.22 268.38 247.06C270.48 244.66 272.4 244.45 274.59 246.58C276.66 248.56 279.03 251.65 280.8 253.6C282.72 255.7 285.3 258.37 288.15 260.92L285.03 264.52C282.9 262.48 280.35 259.6 278.43 257.35C276.57 255.16 274.32 252.28 272.94 250.69C271.86 249.55 271.29 249.7 270.42 250.78C269.22 252.31 267.12 255.28 265.83 256.99C265.14 257.95 264.45 259.03 263.91 259.81L260.28 256.09ZM297.12 251.23V262.27H293.67V254.56H290.31V251.23H297.12ZM297.12 260.86C298.26 262.84 300.39 263.71 303.48 263.83C307.08 264.01 314.19 263.92 318.36 263.59C317.97 264.4 317.4 266.05 317.25 267.1C313.5 267.28 307.11 267.34 303.45 267.16C299.85 267.01 297.42 266.14 295.62 263.83C294.42 265 293.16 266.14 291.66 267.43L289.95 263.86C291.21 263.05 292.68 261.97 294 260.86H297.12ZM290.4 242.32L293.16 240.31C294.87 241.63 296.97 243.64 297.9 245.05L294.93 247.33C294.12 245.86 292.11 243.79 290.4 242.32ZM309.39 239.89L313.35 240.61C312.36 242.68 311.25 244.84 310.38 246.25L307.41 245.47C308.16 243.88 309 241.6 309.39 239.89ZM303.75 243.82H317.04V246.85H303.75V260.2H300.27V246.58L303 243.82H303.75ZM302.25 248.77H316.26V251.68H302.25V248.77ZM302.25 253.63H316.14V256.54H302.25V253.63ZM300.27 258.58H317.58V261.61H300.27V258.58ZM307.65 245.14H311.07V259.93H307.65V245.14ZM302.67 239.62L306.24 240.67C304.5 244.93 301.62 249.07 298.65 251.65C298.08 250.9 296.76 249.46 295.98 248.8C298.77 246.67 301.26 243.22 302.67 239.62ZM333.24 240.97C332.97 242.08 332.85 242.86 332.7 243.64C332.34 246.22 330.93 256.12 330.93 259.15C330.93 261.64 332.43 262.99 335.37 262.99C339.57 262.99 341.88 261.04 341.88 258.58C341.88 256.57 340.74 254.62 338.79 252.79L342.99 251.89C345 254.41 345.9 256.51 345.9 259.06C345.9 263.59 341.85 266.86 335.28 266.86C330.54 266.86 327.21 264.82 327.21 259.78C327.21 256.72 328.65 247.6 328.95 243.4C329.07 242.02 329.07 241.42 329.01 240.73L333.24 240.97ZM322.53 244.69C325.14 245.56 328.86 245.95 331.92 245.95C334.23 245.95 336.36 245.8 337.86 245.53L337.74 249.13C335.97 249.31 334.32 249.4 331.8 249.4C328.77 249.4 325.11 248.92 322.35 248.14L322.53 244.69ZM321.87 252.13C325.11 253.24 328.59 253.48 331.62 253.48C333.45 253.48 335.67 253.36 337.62 253.12L337.53 256.69C335.88 256.87 334.11 256.96 332.22 256.96C328.23 256.96 324.42 256.54 321.69 255.76L321.87 252.13ZM368.782 255.19C368.782 253.21 367.252 251.62 364.432 251.62C361.132 251.62 358.132 252.61 356.632 253.06C355.762 253.33 354.562 253.78 353.722 254.14L352.582 249.82C353.602 249.76 354.862 249.52 355.852 249.31C358.042 248.83 361.402 247.96 364.942 247.96C369.682 247.96 373.012 250.66 373.012 255.34C373.012 261.79 367.042 265.75 358.702 266.92L356.572 263.17C364.012 262.33 368.782 259.9 368.782 255.19ZM356.992 240.79C360.502 241.54 367.312 242.14 370.462 242.14L369.892 245.83C366.382 245.59 359.872 244.99 356.422 244.39L356.992 240.79ZM382.265 257.59C384.965 257.59 387.125 259.75 387.125 262.42C387.125 265.12 384.965 267.28 382.265 267.28C379.595 267.28 377.405 265.12 377.405 262.42C377.405 259.75 379.595 257.59 382.265 257.59ZM382.265 265.12C383.765 265.12 384.965 263.92 384.965 262.42C384.965 260.95 383.765 259.75 382.265 259.75C380.795 259.75 379.565 260.95 379.565 262.42C379.565 263.92 380.795 265.12 382.265 265.12Z" fill="#2F3B53"/>
<g filter="url(#filter0_d_1261_1792)">
<path d="M23.9429 80L13.9329 28.2H24.5029L28.5629 53.47C29.4029 58.93 30.1729 64.46 31.0129 70.06H31.2929C32.3429 64.46 33.4629 58.93 34.5829 53.47L40.5329 28.2H49.4229L55.4429 53.47C56.5629 58.86 57.5429 64.46 58.7329 70.06H59.0829C59.7829 64.46 60.6229 58.93 61.3229 53.47L65.5229 28.2H75.3229L65.7329 80H52.7829L47.0429 54.38C46.1329 50.39 45.4329 46.33 44.8029 42.41H44.5229C43.8229 46.33 43.0529 50.39 42.2829 54.38L36.6129 80H23.9429ZM99.3356 80.98C88.3456 80.98 79.8056 73.42 79.8056 60.47C79.8056 47.73 88.7656 39.89 98.0056 39.89C108.856 39.89 114.386 47.73 114.386 58.58C114.386 60.54 114.176 62.36 113.966 63.34H89.7456C90.6556 69.78 94.8556 73.07 100.666 73.07C103.816 73.07 106.616 72.09 109.486 70.34L112.916 76.71C109.066 79.37 104.166 80.98 99.3356 80.98ZM89.6056 56.48H105.636C105.636 51.16 103.256 47.8 98.2156 47.8C94.0856 47.8 90.4456 50.74 89.6056 56.48ZM132.589 80.98C125.379 80.98 122.929 76.29 122.929 69.01V24.21H133.219V69.43C133.219 71.88 134.269 72.65 135.249 72.65C135.599 72.65 135.879 72.65 136.579 72.51L137.839 80.14C136.649 80.56 135.039 80.98 132.589 80.98ZM161.599 80.98C150.819 80.98 142.559 73.42 142.559 60.47C142.559 47.45 151.869 39.89 162.509 39.89C167.409 39.89 171.049 41.71 173.919 44.23L169.089 50.81C167.129 49.13 165.239 48.29 163.139 48.29C157.049 48.29 153.059 53.05 153.059 60.47C153.059 67.82 157.119 72.65 162.719 72.65C165.589 72.65 168.249 71.25 170.419 69.5L174.479 76.29C170.769 79.51 165.939 80.98 161.599 80.98ZM195.843 80.98C185.973 80.98 177.013 73.42 177.013 60.47C177.013 47.45 185.973 39.89 195.843 39.89C205.643 39.89 214.603 47.45 214.603 60.47C214.603 73.42 205.643 80.98 195.843 80.98ZM195.843 72.65C201.163 72.65 204.103 67.82 204.103 60.47C204.103 53.05 201.163 48.29 195.843 48.29C190.453 48.29 187.513 53.05 187.513 60.47C187.513 67.82 190.453 72.65 195.843 72.65ZM223.281 80V40.87H231.611L232.451 46.05H232.661C235.951 42.69 239.591 39.89 244.631 39.89C250.301 39.89 253.591 42.34 255.411 46.68C259.051 42.97 262.831 39.89 267.941 39.89C276.271 39.89 280.051 45.77 280.051 55.57V80H269.761V56.9C269.761 50.74 268.081 48.71 264.301 48.71C262.061 48.71 259.611 50.11 256.811 53.05V80H246.521V56.9C246.521 50.74 244.771 48.71 240.991 48.71C238.821 48.71 236.231 50.11 233.571 53.05V80H223.281ZM307.832 80.98C296.842 80.98 288.302 73.42 288.302 60.47C288.302 47.73 297.262 39.89 306.502 39.89C317.352 39.89 322.882 47.73 322.882 58.58C322.882 60.54 322.672 62.36 322.462 63.34H298.242C299.152 69.78 303.352 73.07 309.162 73.07C312.312 73.07 315.112 72.09 317.982 70.34L321.412 76.71C317.562 79.37 312.662 80.98 307.832 80.98ZM298.102 56.48H314.132C314.132 51.16 311.752 47.8 306.712 47.8C302.582 47.8 298.942 50.74 298.102 56.48ZM361.565 80.98C352.255 80.98 348.685 75.1 348.685 66.35V48.92H343.225V41.29L349.315 40.87L350.435 30.23H358.975V40.87H368.705V48.92H358.975V66.35C358.975 70.83 360.865 72.93 364.295 72.93C365.625 72.93 367.095 72.44 368.215 72.02L369.895 79.51C367.795 80.21 365.065 80.98 361.565 80.98ZM391.419 80.98C381.549 80.98 372.589 73.42 372.589 60.47C372.589 47.45 381.549 39.89 391.419 39.89C401.219 39.89 410.179 47.45 410.179 60.47C410.179 73.42 401.219 80.98 391.419 80.98ZM391.419 72.65C396.739 72.65 399.679 67.82 399.679 60.47C399.679 53.05 396.739 48.29 391.419 48.29C386.029 48.29 383.089 53.05 383.089 60.47C383.089 67.82 386.029 72.65 391.419 72.65ZM75.8019 181.98C68.8019 181.98 61.9419 179.32 56.9019 174.49L62.8519 167.35C66.4919 170.78 71.4619 173.02 76.0119 173.02C81.4019 173.02 84.2019 170.71 84.2019 167.14C84.2019 163.29 81.0519 162.03 76.4319 160.07L69.5019 157.13C64.3219 155.03 59.0019 150.76 59.0019 143.27C59.0019 134.8 66.4919 128.29 76.9219 128.29C82.9419 128.29 88.9619 130.67 93.1619 134.94L87.9819 141.45C84.6219 138.72 81.1919 137.18 76.9219 137.18C72.3719 137.18 69.5019 139.21 69.5019 142.57C69.5019 146.28 73.2119 147.68 77.6219 149.43L84.4119 152.23C90.6419 154.82 94.7719 158.88 94.7719 166.3C94.7719 174.77 87.7019 181.98 75.8019 181.98ZM104.014 181V129.2H114.374V149.64H133.974V129.2H144.264V181H133.974V158.6H114.374V181H104.014ZM177.572 181.98C163.782 181.98 154.402 171.76 154.402 154.89C154.402 138.02 163.782 128.29 177.572 128.29C191.292 128.29 200.672 138.09 200.672 154.89C200.672 171.76 191.292 181.98 177.572 181.98ZM177.572 173.02C185.272 173.02 190.172 165.95 190.172 154.89C190.172 143.83 185.272 137.18 177.572 137.18C169.802 137.18 164.972 143.83 164.972 154.89C164.972 165.95 169.802 173.02 177.572 173.02ZM247.789 181.98C234.699 181.98 224.129 172.6 224.129 155.31C224.129 138.23 235.049 128.29 248.209 128.29C254.789 128.29 260.039 131.37 263.399 134.87L257.939 141.52C255.279 138.93 252.339 137.18 248.349 137.18C240.579 137.18 234.699 143.9 234.699 154.96C234.699 166.3 239.949 173.02 248.209 173.02C252.619 173.02 256.119 170.92 258.849 167.91L264.309 174.42C260.039 179.39 254.509 181.98 247.789 181.98ZM272.656 181V129.2H283.016V181H272.656ZM306.052 181V137.81H291.422V129.2H331.042V137.81H316.412V181H306.052ZM346.553 181V162.1L330.943 129.2H341.933L347.113 141.87C348.653 145.72 350.053 149.36 351.593 153.35H351.873C353.483 149.36 355.023 145.72 356.563 141.87L361.673 129.2H372.453L356.843 162.1V181H346.553Z" fill="#2F3B53"/>
</g>
</g>
<defs>
<filter id="filter0_d_1261_1792" x="9.93286" y="24.21" width="404.246" height="165.77" filterUnits="userSpaceOnUse" color-interpolation-filters="sRGB">
<feFlood flood-opacity="0" result="BackgroundImageFix"/>
<feColorMatrix in="SourceAlpha" type="matrix" values="0 0 0 0 0 0 0 0 0 0 0 0 0 0 0 0 0 0 127 0" result="hardAlpha"/>
<feOffset dy="4"/>
<feGaussianBlur stdDeviation="2"/>
<feComposite in2="hardAlpha" operator="out"/>
<feColorMatrix type="matrix" values="0 0 0 0 0 0 0 0 0 0 0 0 0 0 0 0 0 0 0.25 0"/>
<feBlend mode="normal" in2="BackgroundImageFix" result="effect1_dropShadow_1261_1792"/>
<feBlend mode="normal" in="SourceGraphic" in2="effect1_dropShadow_1261_1792" result="shape"/>
</filter>
<clipPath id="clip0_1261_1792">
<rect width="426" height="292" fill="white"/>
</clipPath>
</defs>
</svg>
