<svg width="217" height="58" viewBox="0 0 217 58" fill="none" xmlns="http://www.w3.org/2000/svg">
<path d="M6.77859 23L3.91859 8.2H6.93859L8.09859 15.42C8.33859 16.98 8.55859 18.56 8.79859 20.16H8.87859C9.17859 18.56 9.49859 16.98 9.81859 15.42L11.5186 8.2H14.0586L15.7786 15.42C16.0986 16.96 16.3786 18.56 16.7186 20.16H16.8186C17.0186 18.56 17.2586 16.98 17.4586 15.42L18.6586 8.2H21.4586L18.7186 23H15.0186L13.3786 15.68C13.1186 14.54 12.9186 13.38 12.7386 12.26H12.6586C12.4586 13.38 12.2386 14.54 12.0186 15.68L10.3986 23H6.77859ZM28.3194 23.28C25.1794 23.28 22.7394 21.12 22.7394 17.42C22.7394 13.78 25.2994 11.54 27.9394 11.54C31.0394 11.54 32.6194 13.78 32.6194 16.88C32.6194 17.44 32.5594 17.96 32.4994 18.24H25.5794C25.8394 20.08 27.0394 21.02 28.6994 21.02C29.5994 21.02 30.3994 20.74 31.2194 20.24L32.1994 22.06C31.0994 22.82 29.6994 23.28 28.3194 23.28ZM25.5394 16.28H30.1194C30.1194 14.76 29.4394 13.8 27.9994 13.8C26.8194 13.8 25.7794 14.64 25.5394 16.28ZM37.8205 23.28C35.7605 23.28 35.0605 21.94 35.0605 19.86V7.06H38.0005V19.98C38.0005 20.68 38.3005 20.9 38.5805 20.9C38.6805 20.9 38.7605 20.9 38.9605 20.86L39.3205 23.04C38.9805 23.16 38.5205 23.28 37.8205 23.28ZM46.1091 23.28C43.0291 23.28 40.6691 21.12 40.6691 17.42C40.6691 13.7 43.3291 11.54 46.3691 11.54C47.7691 11.54 48.8091 12.06 49.6291 12.78L48.2491 14.66C47.6891 14.18 47.1491 13.94 46.5491 13.94C44.8091 13.94 43.6691 15.3 43.6691 17.42C43.6691 19.52 44.8291 20.9 46.4291 20.9C47.2491 20.9 48.0091 20.5 48.6291 20L49.7891 21.94C48.7291 22.86 47.3491 23.28 46.1091 23.28ZM55.8928 23.28C53.0728 23.28 50.5128 21.12 50.5128 17.42C50.5128 13.7 53.0728 11.54 55.8928 11.54C58.6928 11.54 61.2528 13.7 61.2528 17.42C61.2528 21.12 58.6928 23.28 55.8928 23.28ZM55.8928 20.9C57.4128 20.9 58.2528 19.52 58.2528 17.42C58.2528 15.3 57.4128 13.94 55.8928 13.94C54.3528 13.94 53.5128 15.3 53.5128 17.42C53.5128 19.52 54.3528 20.9 55.8928 20.9ZM63.7323 23V11.82H66.1123L66.3523 13.3H66.4123C67.3523 12.34 68.3923 11.54 69.8323 11.54C71.4523 11.54 72.3923 12.24 72.9123 13.48C73.9523 12.42 75.0323 11.54 76.4923 11.54C78.8723 11.54 79.9523 13.22 79.9523 16.02V23H77.0123V16.4C77.0123 14.64 76.5323 14.06 75.4523 14.06C74.8123 14.06 74.1123 14.46 73.3123 15.3V23H70.3723V16.4C70.3723 14.64 69.8723 14.06 68.7923 14.06C68.1723 14.06 67.4323 14.46 66.6723 15.3V23H63.7323ZM87.8897 23.28C84.7497 23.28 82.3097 21.12 82.3097 17.42C82.3097 13.78 84.8697 11.54 87.5097 11.54C90.6097 11.54 92.1897 13.78 92.1897 16.88C92.1897 17.44 92.1297 17.96 92.0697 18.24H85.1497C85.4097 20.08 86.6097 21.02 88.2697 21.02C89.1697 21.02 89.9697 20.74 90.7897 20.24L91.7697 22.06C90.6697 22.82 89.2697 23.28 87.8897 23.28ZM85.1097 16.28H89.6897C89.6897 14.76 89.0097 13.8 87.5697 13.8C86.3897 13.8 85.3497 14.64 85.1097 16.28ZM103.242 23.28C100.582 23.28 99.562 21.6 99.562 19.1V14.12H98.002V11.94L99.742 11.82L100.062 8.78H102.502V11.82H105.282V14.12H102.502V19.1C102.502 20.38 103.042 20.98 104.022 20.98C104.402 20.98 104.822 20.84 105.142 20.72L105.622 22.86C105.022 23.06 104.242 23.28 103.242 23.28ZM111.772 23.28C108.952 23.28 106.392 21.12 106.392 17.42C106.392 13.7 108.952 11.54 111.772 11.54C114.572 11.54 117.132 13.7 117.132 17.42C117.132 21.12 114.572 23.28 111.772 23.28ZM111.772 20.9C113.292 20.9 114.132 19.52 114.132 17.42C114.132 15.3 113.292 13.94 111.772 13.94C110.232 13.94 109.392 15.3 109.392 17.42C109.392 19.52 110.232 20.9 111.772 20.9ZM128.803 23.28C126.803 23.28 124.843 22.52 123.403 21.14L125.103 19.1C126.143 20.08 127.562 20.72 128.863 20.72C130.403 20.72 131.203 20.06 131.203 19.04C131.203 17.94 130.303 17.58 128.983 17.02L127.003 16.18C125.523 15.58 124.003 14.36 124.003 12.22C124.003 9.8 126.143 7.94 129.123 7.94C130.843 7.94 132.562 8.62 133.763 9.84L132.283 11.7C131.323 10.92 130.343 10.48 129.123 10.48C127.823 10.48 127.003 11.06 127.003 12.02C127.003 13.08 128.063 13.48 129.323 13.98L131.263 14.78C133.043 15.52 134.223 16.68 134.223 18.8C134.223 21.22 132.203 23.28 128.803 23.28ZM136.863 23V8.2H139.823V14.04H145.423V8.2H148.363V23H145.423V16.6H139.823V23H136.863ZM157.88 23.28C153.94 23.28 151.26 20.36 151.26 15.54C151.26 10.72 153.94 7.94 157.88 7.94C161.8 7.94 164.48 10.74 164.48 15.54C164.48 20.36 161.8 23.28 157.88 23.28ZM157.88 20.72C160.08 20.72 161.48 18.7 161.48 15.54C161.48 12.38 160.08 10.48 157.88 10.48C155.66 10.48 154.28 12.38 154.28 15.54C154.28 18.7 155.66 20.72 157.88 20.72ZM177.942 23.28C174.202 23.28 171.182 20.6 171.182 15.66C171.182 10.78 174.302 7.94 178.062 7.94C179.942 7.94 181.442 8.82 182.402 9.82L180.842 11.72C180.082 10.98 179.242 10.48 178.102 10.48C175.882 10.48 174.202 12.4 174.202 15.56C174.202 18.8 175.702 20.72 178.062 20.72C179.322 20.72 180.322 20.12 181.102 19.26L182.662 21.12C181.442 22.54 179.862 23.28 177.942 23.28ZM185.047 23V8.2H188.007V23H185.047ZM194.588 23V10.66H190.408V8.2H201.728V10.66H197.548V23H194.588ZM206.16 23V17.6L201.7 8.2H204.84L206.32 11.82C206.76 12.92 207.16 13.96 207.6 15.1H207.68C208.14 13.96 208.58 12.92 209.02 11.82L210.48 8.2H213.56L209.1 17.6V23H206.16Z" fill="#2F3B53"/>
<path d="M32.1991 41.7H42.8791V42.696H32.1991V41.7ZM36.9391 40.62H38.0911V45.996H36.9391V40.62ZM36.5071 42.108L37.4431 42.528C36.3511 43.968 34.4551 45.216 32.6911 45.864C32.5111 45.564 32.1751 45.132 31.9231 44.904C33.6631 44.388 35.5471 43.308 36.5071 42.108ZM38.5111 42.144C39.4711 43.308 41.3551 44.328 43.1551 44.82C42.9031 45.036 42.5551 45.48 42.3871 45.768C40.5871 45.168 38.6791 43.968 37.5631 42.588L38.5111 42.144ZM36.3151 38.844V39.888H38.7271V38.844H36.3151ZM36.3151 36.96V38.004H38.7271V36.96H36.3151ZM35.2591 36.084H39.8311V40.776H35.2591V36.084ZM37.0111 34.86L38.2711 35.028C38.0431 35.628 37.8151 36.216 37.6231 36.612L36.6271 36.42C36.7711 35.964 36.9391 35.328 37.0111 34.86ZM32.2471 36.264L33.0271 35.604C33.7591 36.108 34.6111 36.84 34.9951 37.404L34.1671 38.136C33.8071 37.572 32.9791 36.792 32.2471 36.264ZM39.7111 39.156L40.3711 38.4C41.2831 38.868 42.5191 39.588 43.1311 40.104L42.4231 40.956C41.8471 40.428 40.6471 39.66 39.7111 39.156ZM41.7751 35.472L42.7591 36.06C42.1231 36.756 41.3311 37.488 40.6951 37.992L39.8431 37.428C40.4671 36.924 41.3071 36.096 41.7751 35.472ZM31.9351 40.056C32.6671 39.696 33.7471 39.096 34.8151 38.508L35.1271 39.432C34.2511 39.96 33.2911 40.548 32.5111 40.992L31.9351 40.056ZM47.7751 35.58C47.7151 36.024 47.6671 36.528 47.6431 36.96C47.5951 38.292 47.4991 41.064 47.4991 42.72C47.4991 43.992 48.2791 44.424 49.3351 44.424C51.4351 44.424 52.6831 43.236 53.5471 41.964L54.4111 42.996C53.6071 44.148 51.9871 45.696 49.3111 45.696C47.4751 45.696 46.2511 44.916 46.2511 42.912C46.2511 41.208 46.3711 38.124 46.3711 36.96C46.3711 36.468 46.3351 35.976 46.2511 35.568L47.7751 35.58ZM58.1671 36.084C58.4791 36.108 58.8511 36.132 59.1031 36.132C59.7631 36.132 61.2031 36.06 61.7311 36.012C61.9951 36 62.2471 35.94 62.4271 35.868L63.1831 36.468C63.0511 36.624 62.9311 36.756 62.8351 36.912C62.4391 37.56 61.7911 39.108 61.2391 40.344C60.7591 41.424 60.1351 42.972 59.6311 43.716C59.1871 44.376 58.6711 44.652 57.9631 44.652C57.0031 44.652 56.2831 43.968 56.2831 42.876C56.2831 41.016 58.0471 39.6 60.5431 39.6C63.2791 39.6 65.6911 41.052 66.9751 41.952L66.4231 43.26C64.9831 42 62.8231 40.656 60.3511 40.656C58.4671 40.656 57.3871 41.7 57.3871 42.708C57.3871 43.176 57.6751 43.428 58.0111 43.428C58.2751 43.428 58.4551 43.32 58.6951 43.008C59.1511 42.384 59.6431 41.124 60.0871 40.14C60.5431 39.132 61.0591 37.92 61.4431 37.116C60.9631 37.14 59.6911 37.188 59.1391 37.224C58.8871 37.236 58.5151 37.272 58.2151 37.308L58.1671 36.084ZM65.8351 38.808C65.6671 42.216 64.9831 44.352 62.1511 45.792L61.1551 44.964C64.0351 43.74 64.4791 41.484 64.5991 39.864C64.6231 39.456 64.6351 39.012 64.5991 38.664L65.8351 38.808ZM68.6191 37.308C69.0991 37.368 69.6631 37.392 70.1431 37.392C71.5231 37.392 73.0831 37.188 74.3671 36.768L74.4031 37.884C73.2871 38.184 71.6431 38.472 70.1551 38.46C69.6871 38.46 69.1831 38.448 68.7031 38.424L68.6191 37.308ZM73.0591 35.424C72.9031 36.024 72.6271 37.176 72.3271 38.1C71.7631 39.828 70.6711 42.036 69.6631 43.416L68.5111 42.816C69.5791 41.532 70.6831 39.42 71.1631 38.052C71.4391 37.248 71.7031 36.168 71.7391 35.292L73.0591 35.424ZM75.8791 39.144C75.8431 39.636 75.8551 40.068 75.8671 40.536C75.8911 41.292 75.9991 43.092 75.9991 43.836C75.9991 44.868 75.3871 45.684 73.8031 45.684C72.4111 45.684 71.2951 45.096 71.2951 43.848C71.2951 42.708 72.3151 41.928 73.8031 41.928C75.8551 41.928 77.4391 42.948 78.4351 43.824L77.7991 44.844C76.8991 44.028 75.5311 42.876 73.7431 42.876C72.9391 42.876 72.4111 43.248 72.4111 43.74C72.4111 44.244 72.8311 44.592 73.6471 44.592C74.5711 44.592 74.8711 44.1 74.8711 43.44C74.8711 42.612 74.7391 40.44 74.6911 39.144H75.8791ZM78.1351 39.6C77.4631 39.048 76.1311 38.292 75.3271 37.92L75.9391 36.996C76.8031 37.368 78.2191 38.16 78.8071 38.604L78.1351 39.6ZM84.7831 35.652C84.7231 35.916 84.6631 36.228 84.6151 36.492C84.5191 36.972 84.3631 37.848 84.2071 38.532C83.8111 40.224 82.9111 43.404 81.5911 45.516L80.3551 45.024C81.7471 43.164 82.6831 39.972 83.0191 38.484C83.2351 37.476 83.3911 36.42 83.3791 35.508L84.7831 35.652ZM88.9111 36.96C89.6551 37.968 90.6871 40.164 91.0711 41.292L89.8831 41.844C89.5471 40.572 88.6471 38.472 87.7951 37.452L88.9111 36.96ZM80.2231 38.208C80.6311 38.232 80.9791 38.22 81.3871 38.208C82.3111 38.184 84.6871 37.92 85.5271 37.92C86.6911 37.92 87.5791 38.4 87.5791 40.068C87.5791 41.496 87.3871 43.416 86.8831 44.436C86.4991 45.252 85.8751 45.48 85.0351 45.48C84.5791 45.48 84.0031 45.396 83.6191 45.312L83.4151 44.052C83.8951 44.196 84.5551 44.304 84.8791 44.304C85.3111 44.304 85.6471 44.196 85.8631 43.728C86.2231 42.972 86.4031 41.46 86.4031 40.212C86.4031 39.168 85.9351 39 85.1791 39C84.4111 39 82.2391 39.264 81.5431 39.336C81.2311 39.384 80.6791 39.456 80.3431 39.504L80.2231 38.208ZM88.8991 35.256C89.1991 35.688 89.6311 36.432 89.8711 36.9L89.0791 37.248C88.8391 36.756 88.4431 36.036 88.1191 35.58L88.8991 35.256ZM90.2671 34.74C90.5791 35.196 91.0351 35.952 91.2511 36.384L90.4711 36.72C90.2191 36.216 89.8231 35.52 89.4871 35.064L90.2671 34.74ZM95.5471 35.484C96.6271 35.832 99.2071 36.312 100.263 36.42L99.9751 37.572C98.7991 37.416 96.1711 36.876 95.2471 36.636L95.5471 35.484ZM95.4271 37.776C95.2711 38.52 95.0551 40.164 94.9471 40.896C96.0751 39.984 97.3351 39.576 98.7031 39.576C100.647 39.576 101.871 40.764 101.871 42.192C101.871 44.352 100.047 45.9 95.3551 45.504L94.9951 44.268C98.7031 44.748 100.575 43.752 100.575 42.156C100.575 41.28 99.7471 40.644 98.6071 40.644C97.1191 40.644 95.8591 41.196 95.0551 42.168C94.8631 42.396 94.7431 42.588 94.6591 42.804L93.5551 42.528C93.7951 41.4 94.0831 38.952 94.1551 37.596L95.4271 37.776ZM106.719 45.744C105.963 44.82 104.931 43.788 104.091 43.08L105.075 42.228C105.939 42.924 107.055 44.052 107.739 44.868L106.719 45.744ZM116.127 36.72H126.939V37.764H116.127V36.72ZM117.447 40.68H120.699V41.544H117.447V40.68ZM117.447 42.564H120.699V43.428H117.447V42.564ZM122.667 38.844H123.723V43.764H122.667V38.844ZM120.303 38.724H121.395V44.82C121.395 45.336 121.287 45.624 120.927 45.792C120.567 45.96 120.027 45.972 119.247 45.972C119.187 45.684 119.019 45.264 118.875 44.988C119.403 45.012 119.931 45.012 120.087 45C120.255 45 120.303 44.952 120.303 44.796V38.724ZM125.091 38.496H126.207V44.7C126.207 45.3 126.087 45.6 125.667 45.78C125.259 45.948 124.635 45.984 123.723 45.972C123.663 45.672 123.483 45.192 123.315 44.892C123.999 44.916 124.635 44.916 124.839 44.904C125.031 44.904 125.091 44.856 125.091 44.688V38.496ZM117.903 35.244L118.971 34.86C119.415 35.352 119.919 36.036 120.135 36.492L118.995 36.9C118.815 36.456 118.347 35.748 117.903 35.244ZM124.071 34.824L125.295 35.208C124.827 35.964 124.287 36.768 123.855 37.308L122.835 36.948C123.267 36.384 123.783 35.484 124.071 34.824ZM116.847 38.724H120.639V39.684H117.915V45.948H116.847V38.724ZM128.103 41.592C128.427 41.34 128.703 41.088 129.039 40.74C129.639 40.116 130.611 38.808 131.331 37.956C132.099 37.08 132.783 36.972 133.611 37.8C134.379 38.556 135.315 39.768 136.059 40.572C136.803 41.388 137.919 42.564 139.023 43.548L138.051 44.676C137.163 43.836 136.107 42.636 135.315 41.724C134.547 40.836 133.635 39.684 133.083 39.06C132.603 38.544 132.375 38.616 131.991 39.096C131.463 39.756 130.539 41.016 129.975 41.736C129.711 42.084 129.435 42.48 129.243 42.756L128.103 41.592ZM142.587 39.588V43.908H141.495V40.644H140.043V39.588H142.587ZM142.587 43.452C143.103 44.304 144.075 44.688 145.407 44.736C146.787 44.796 149.595 44.76 151.143 44.652C151.011 44.916 150.831 45.432 150.783 45.768C149.367 45.828 146.799 45.852 145.407 45.792C143.883 45.732 142.851 45.348 142.107 44.4C141.603 44.904 141.075 45.384 140.475 45.912L139.911 44.796C140.427 44.436 141.051 43.944 141.603 43.452H142.587ZM140.127 35.82L140.991 35.184C141.711 35.724 142.551 36.54 142.923 37.116L141.987 37.836C141.651 37.236 140.835 36.396 140.127 35.82ZM147.747 35.004L148.983 35.244C148.611 36.048 148.179 36.912 147.831 37.476L146.895 37.224C147.207 36.6 147.567 35.676 147.747 35.004ZM145.143 36.684H150.651V37.656H145.143V43.2H144.051V37.548L144.903 36.684H145.143ZM144.663 38.7H150.339V39.624H144.663V38.7ZM144.663 40.68H150.303V41.616H144.663V40.68ZM144.051 42.72H150.855V43.68H144.051V42.72ZM147.015 37.116H148.095V43.128H147.015V37.116ZM145.059 34.908L146.187 35.232C145.491 36.936 144.351 38.556 143.163 39.576C142.983 39.348 142.563 38.904 142.311 38.7C143.451 37.8 144.471 36.396 145.059 34.908ZM156.987 35.496C156.891 35.868 156.855 36.144 156.807 36.432C156.651 37.632 156.099 41.448 156.099 42.708C156.099 43.8 156.735 44.436 158.019 44.436C159.783 44.436 160.839 43.644 160.839 42.516C160.839 41.712 160.395 40.872 159.555 40.128L160.887 39.84C161.703 40.8 162.087 41.64 162.087 42.66C162.087 44.46 160.479 45.636 157.995 45.636C156.255 45.636 154.935 44.88 154.935 42.9C154.935 41.64 155.499 38.028 155.631 36.36C155.667 35.88 155.667 35.652 155.643 35.412L156.987 35.496ZM152.955 37.044C153.975 37.38 155.439 37.536 156.567 37.536C157.491 37.536 158.331 37.476 158.991 37.368L158.955 38.508C158.211 38.58 157.527 38.616 156.543 38.616C155.415 38.616 153.963 38.436 152.883 38.136L152.955 37.044ZM152.667 40.02C153.891 40.44 155.283 40.548 156.435 40.548C157.227 40.548 158.079 40.512 158.895 40.404L158.871 41.544C158.127 41.616 157.407 41.652 156.615 41.652C155.187 41.652 153.699 41.496 152.607 41.172L152.667 40.02ZM171.624 41.04C171.624 40.128 170.892 39.444 169.704 39.444C168.348 39.444 167.16 39.84 166.5 40.032C166.14 40.14 165.732 40.296 165.42 40.428L165.048 39.048C165.42 39.024 165.864 38.94 166.248 38.856C167.1 38.664 168.456 38.292 169.848 38.292C171.636 38.292 172.932 39.3 172.932 41.088C172.932 43.68 170.58 45.192 167.376 45.66L166.692 44.496C169.632 44.148 171.624 43.068 171.624 41.04ZM166.728 35.484C168.084 35.784 170.736 36.024 171.948 36.036L171.768 37.2C170.4 37.104 167.904 36.864 166.536 36.624L166.728 35.484ZM176.777 42.06C177.821 42.06 178.661 42.9 178.661 43.932C178.661 44.976 177.821 45.816 176.777 45.816C175.757 45.816 174.905 44.976 174.905 43.932C174.905 42.9 175.757 42.06 176.777 42.06ZM176.777 45.096C177.425 45.096 177.941 44.58 177.941 43.932C177.941 43.296 177.425 42.78 176.777 42.78C176.153 42.78 175.625 43.296 175.625 43.932C175.625 44.58 176.153 45.096 176.777 45.096Z" fill="#2F3B53"/>
</svg>
