<svg width="242" height="155" viewBox="0 0 242 155" fill="none" xmlns="http://www.w3.org/2000/svg">
<path d="M12.9673 36L7.24734 6.4H13.2873L15.6073 20.84C16.0873 23.96 16.5273 27.12 17.0073 30.32H17.1673C17.7673 27.12 18.4073 23.96 19.0473 20.84L22.4473 6.4H27.5273L30.9673 20.84C31.6073 23.92 32.1673 27.12 32.8473 30.32H33.0473C33.4473 27.12 33.9273 23.96 34.3273 20.84L36.7273 6.4H42.3273L36.8473 36H29.4473L26.1673 21.36C25.6473 19.08 25.2473 16.76 24.8873 14.52H24.7273C24.3273 16.76 23.8873 19.08 23.4473 21.36L20.2073 36H12.9673ZM56.0489 36.56C49.7689 36.56 44.8889 32.24 44.8889 24.84C44.8889 17.56 50.0089 13.08 55.2889 13.08C61.4889 13.08 64.6489 17.56 64.6489 23.76C64.6489 24.88 64.5289 25.92 64.4089 26.48H50.5689C51.0889 30.16 53.4889 32.04 56.8089 32.04C58.6089 32.04 60.2089 31.48 61.8489 30.48L63.8089 34.12C61.6089 35.64 58.8089 36.56 56.0489 36.56ZM50.4889 22.56H59.6489C59.6489 19.52 58.2889 17.6 55.4089 17.6C53.0489 17.6 50.9689 19.28 50.4889 22.56ZM75.0511 36.56C70.9311 36.56 69.5311 33.88 69.5311 29.72V4.12H75.4111V29.96C75.4111 31.36 76.0111 31.8 76.5711 31.8C76.7711 31.8 76.9311 31.8 77.3311 31.72L78.0511 36.08C77.3711 36.32 76.4511 36.56 75.0511 36.56ZM91.6283 36.56C85.4683 36.56 80.7483 32.24 80.7483 24.84C80.7483 17.4 86.0683 13.08 92.1483 13.08C94.9483 13.08 97.0283 14.12 98.6683 15.56L95.9083 19.32C94.7883 18.36 93.7083 17.88 92.5083 17.88C89.0283 17.88 86.7483 20.6 86.7483 24.84C86.7483 29.04 89.0683 31.8 92.2683 31.8C93.9083 31.8 95.4283 31 96.6683 30L98.9883 33.88C96.8683 35.72 94.1083 36.56 91.6283 36.56ZM111.196 36.56C105.556 36.56 100.436 32.24 100.436 24.84C100.436 17.4 105.556 13.08 111.196 13.08C116.796 13.08 121.916 17.4 121.916 24.84C121.916 32.24 116.796 36.56 111.196 36.56ZM111.196 31.8C114.236 31.8 115.916 29.04 115.916 24.84C115.916 20.6 114.236 17.88 111.196 17.88C108.116 17.88 106.436 20.6 106.436 24.84C106.436 29.04 108.116 31.8 111.196 31.8ZM126.875 36V13.64H131.635L132.115 16.6H132.235C134.115 14.68 136.195 13.08 139.075 13.08C142.315 13.08 144.195 14.48 145.235 16.96C147.315 14.84 149.475 13.08 152.395 13.08C157.155 13.08 159.315 16.44 159.315 22.04V36H153.435V22.8C153.435 19.28 152.475 18.12 150.315 18.12C149.035 18.12 147.635 18.92 146.035 20.6V36H140.155V22.8C140.155 19.28 139.155 18.12 136.995 18.12C135.755 18.12 134.275 18.92 132.755 20.6V36H126.875ZM175.19 36.56C168.91 36.56 164.03 32.24 164.03 24.84C164.03 17.56 169.15 13.08 174.43 13.08C180.63 13.08 183.79 17.56 183.79 23.76C183.79 24.88 183.67 25.92 183.55 26.48H169.71C170.23 30.16 172.63 32.04 175.95 32.04C177.75 32.04 179.35 31.48 180.99 30.48L182.95 34.12C180.75 35.64 177.95 36.56 175.19 36.56ZM169.63 22.56H178.79C178.79 19.52 177.43 17.6 174.55 17.6C172.19 17.6 170.11 19.28 169.63 22.56ZM205.894 36.56C200.574 36.56 198.534 33.2 198.534 28.2V18.24H195.414V13.88L198.894 13.64L199.534 7.56H204.414V13.64H209.974V18.24H204.414V28.2C204.414 30.76 205.494 31.96 207.454 31.96C208.214 31.96 209.054 31.68 209.694 31.44L210.654 35.72C209.454 36.12 207.894 36.56 205.894 36.56ZM222.954 36.56C217.314 36.56 212.194 32.24 212.194 24.84C212.194 17.4 217.314 13.08 222.954 13.08C228.554 13.08 233.674 17.4 233.674 24.84C233.674 32.24 228.554 36.56 222.954 36.56ZM222.954 31.8C225.994 31.8 227.674 29.04 227.674 24.84C227.674 20.6 225.994 17.88 222.954 17.88C219.874 17.88 218.194 20.6 218.194 24.84C218.194 29.04 219.874 31.8 222.954 31.8ZM42.6011 94.56C38.6011 94.56 34.6811 93.04 31.8011 90.28L35.2011 86.2C37.2811 88.16 40.1211 89.44 42.7211 89.44C45.8011 89.44 47.4011 88.12 47.4011 86.08C47.4011 83.88 45.6011 83.16 42.9611 82.04L39.0011 80.36C36.0411 79.16 33.0011 76.72 33.0011 72.44C33.0011 67.6 37.2811 63.88 43.2411 63.88C46.6811 63.88 50.1211 65.24 52.5211 67.68L49.5611 71.4C47.6411 69.84 45.6811 68.96 43.2411 68.96C40.6411 68.96 39.0011 70.12 39.0011 72.04C39.0011 74.16 41.1211 74.96 43.6411 75.96L47.5211 77.56C51.0811 79.04 53.4411 81.36 53.4411 85.6C53.4411 90.44 49.4011 94.56 42.6011 94.56ZM58.722 94V64.4H64.642V76.08H75.842V64.4H81.722V94H75.842V81.2H64.642V94H58.722ZM100.755 94.56C92.8755 94.56 87.5155 88.72 87.5155 79.08C87.5155 69.44 92.8755 63.88 100.755 63.88C108.595 63.88 113.955 69.48 113.955 79.08C113.955 88.72 108.595 94.56 100.755 94.56ZM100.755 89.44C105.155 89.44 107.955 85.4 107.955 79.08C107.955 72.76 105.155 68.96 100.755 68.96C96.3155 68.96 93.5555 72.76 93.5555 79.08C93.5555 85.4 96.3155 89.44 100.755 89.44ZM140.879 94.56C133.399 94.56 127.359 89.2 127.359 79.32C127.359 69.56 133.599 63.88 141.119 63.88C144.879 63.88 147.879 65.64 149.799 67.64L146.679 71.44C145.159 69.96 143.479 68.96 141.199 68.96C136.759 68.96 133.399 72.8 133.399 79.12C133.399 85.6 136.399 89.44 141.119 89.44C143.639 89.44 145.639 88.24 147.199 86.52L150.319 90.24C147.879 93.08 144.719 94.56 140.879 94.56ZM155.089 94V64.4H161.009V94H155.089ZM174.172 94V69.32H165.812V64.4H188.452V69.32H180.092V94H174.172ZM197.316 94V83.2L188.396 64.4H194.676L197.636 71.64C198.516 73.84 199.316 75.92 200.196 78.2H200.356C201.276 75.92 202.156 73.84 203.036 71.64L205.956 64.4H212.116L203.196 83.2V94H197.316Z" fill="#2F3B53"/>
<path d="M5.78059 131.96H21.8546V133.832H5.78059V131.96ZM12.6746 130.52H14.8706V138.602H12.6746V130.52ZM12.0086 132.77L13.7726 133.544C12.1346 135.668 9.39859 137.504 6.73459 138.458C6.41059 137.918 5.76259 137.09 5.29459 136.658C7.88659 135.92 10.6226 134.426 12.0086 132.77ZM15.5186 132.824C16.9406 134.39 19.6946 135.812 22.3226 136.514C21.8546 136.928 21.1886 137.774 20.8826 138.314C18.2186 137.414 15.4466 135.65 13.7366 133.652L15.5186 132.824ZM12.2786 127.892V129.116H15.2306V127.892H12.2786ZM12.2786 125.156V126.362H15.2306V125.156H12.2786ZM10.2806 123.5H17.3366V130.772H10.2806V123.5ZM12.7646 121.7L15.1946 121.97C14.8166 122.942 14.4386 123.86 14.1326 124.49L12.2246 124.148C12.4406 123.41 12.6746 122.438 12.7646 121.7ZM5.65459 124.076L7.13059 122.834C8.19259 123.572 9.47059 124.652 10.0466 125.498L8.46259 126.884C7.94059 126.038 6.71659 124.868 5.65459 124.076ZM16.8686 128.378L18.1286 126.938C19.4606 127.604 21.3506 128.666 22.2866 129.422L20.9546 131.042C20.0906 130.268 18.2546 129.116 16.8686 128.378ZM19.9106 122.6L21.7826 123.716C20.8286 124.76 19.6586 125.84 18.7406 126.56L17.1386 125.498C18.0206 124.76 19.2266 123.536 19.9106 122.6ZM5.33059 129.332C6.42859 128.81 8.04859 127.946 9.63259 127.1L10.2266 128.828C8.96659 129.602 7.56259 130.448 6.41059 131.114L5.33059 129.332ZM29.4866 122.726C29.3786 123.482 29.2886 124.418 29.2526 125.138C29.1626 127.082 29.0366 131.096 29.0366 133.328C29.0366 135.146 30.1166 135.74 31.5206 135.74C34.4906 135.74 36.3626 134.03 37.6766 132.068L39.3146 134.066C38.1446 135.794 35.5886 138.188 31.4846 138.188C28.5326 138.188 26.6426 136.892 26.6426 133.814C26.6426 131.402 26.8046 126.686 26.8046 125.138C26.8046 124.274 26.7326 123.41 26.5886 122.708L29.4866 122.726ZM44.6426 123.392C45.1286 123.428 45.7586 123.464 46.1366 123.464C47.1806 123.464 49.0886 123.392 49.9166 123.32C50.3666 123.284 50.8346 123.176 51.1586 123.05L52.5806 124.184C52.3466 124.454 52.1306 124.688 51.9866 124.922C51.3746 125.948 50.4026 128.27 49.5926 130.142C48.8726 131.798 48.0086 133.94 47.2706 135.074C46.5506 136.172 45.7046 136.658 44.4626 136.658C42.8966 136.658 41.7086 135.578 41.7086 133.742C41.7086 130.862 44.4626 128.648 48.3146 128.648C52.5086 128.648 56.1806 130.88 58.0706 132.176L57.0266 134.678C54.8126 132.716 51.6446 130.664 47.9366 130.664C45.3086 130.664 43.7966 132.086 43.7966 133.4C43.7966 133.994 44.1386 134.3 44.5706 134.3C44.9306 134.3 45.1646 134.138 45.5066 133.688C46.1006 132.806 46.7486 131.15 47.3966 129.728C48.0266 128.306 48.7646 126.542 49.3046 125.426C48.5846 125.444 47.0186 125.498 46.2086 125.552C45.8306 125.57 45.2006 125.642 44.7326 125.696L44.6426 123.392ZM56.4866 127.64C56.2346 132.752 55.2266 136.064 50.9246 138.296L48.9986 136.73C53.4446 134.822 53.9846 131.456 54.1466 129.35C54.1826 128.648 54.2006 127.928 54.1286 127.37L56.4866 127.64ZM60.2846 125.21C61.0586 125.3 62.0306 125.336 62.6786 125.336C64.9106 125.336 67.3406 124.958 69.0866 124.4L69.1406 126.488C67.5926 126.92 65.0006 127.388 62.6966 127.37C61.9766 127.37 61.2206 127.352 60.4466 127.316L60.2846 125.21ZM67.2866 122.51C67.0526 123.464 66.6206 125.228 66.1346 126.758C65.3066 129.35 63.6866 132.698 62.1566 134.822L59.9786 133.706C61.5986 131.726 63.2186 128.576 63.9206 126.632C64.3526 125.336 64.7486 123.662 64.8026 122.276L67.2866 122.51ZM71.5166 128.126C71.4626 128.882 71.4806 129.638 71.4986 130.43C71.5346 131.492 71.6966 134.174 71.6966 135.182C71.6966 136.856 70.7966 138.17 68.2226 138.17C65.9906 138.17 64.2266 137.162 64.2266 135.182C64.2266 133.436 65.7026 132.068 68.2046 132.068C71.3546 132.068 73.8386 133.652 75.3326 135.002L74.1446 136.946C72.8486 135.74 70.7966 133.886 68.0786 133.886C67.0346 133.886 66.3506 134.336 66.3506 134.966C66.3506 135.632 66.9266 136.1 67.9166 136.1C69.1406 136.1 69.5366 135.416 69.5366 134.408C69.5366 133.328 69.3386 130.016 69.2486 128.126H71.5166ZM74.6126 129.08C73.5686 128.234 71.5166 127.064 70.2746 126.506L71.4446 124.742C72.7406 125.3 74.9546 126.506 75.8906 127.172L74.6126 129.08ZM84.9806 122.924C84.8726 123.392 84.7646 123.968 84.6746 124.418C84.4946 125.228 84.2786 126.344 84.0806 127.262C83.4866 129.8 82.0466 134.93 80.1566 137.972L77.7986 137.036C79.9406 134.156 81.2906 129.404 81.7946 127.136C82.1366 125.516 82.3346 123.986 82.3166 122.636L84.9806 122.924ZM91.1906 124.724C92.2886 126.29 93.8006 129.638 94.3586 131.348L92.0726 132.41C91.6046 130.412 90.3266 127.244 89.0306 125.642L91.1906 124.724ZM77.6906 126.614C78.3386 126.65 78.9506 126.632 79.6166 126.614C81.0566 126.578 84.4766 126.182 85.8086 126.182C87.7166 126.182 89.0666 127.028 89.0666 129.638C89.0666 131.762 88.7966 134.678 88.0406 136.226C87.4466 137.486 86.4386 137.882 85.0886 137.882C84.3866 137.882 83.5406 137.774 82.9286 137.63L82.5326 135.254C83.2346 135.452 84.2606 135.632 84.7286 135.632C85.3406 135.632 85.8086 135.452 86.0786 134.858C86.5826 133.85 86.8166 131.654 86.8166 129.89C86.8166 128.45 86.2046 128.234 85.0706 128.234C84.0086 128.234 80.8946 128.63 79.9046 128.756C79.3826 128.828 78.4466 128.954 77.9066 129.044L77.6906 126.614ZM90.8666 122.24C91.3166 122.888 91.9466 124.04 92.2886 124.706L90.8486 125.318C90.4706 124.58 89.9126 123.518 89.4266 122.816L90.8666 122.24ZM92.9906 121.412C93.4586 122.096 94.1246 123.248 94.4486 123.878L93.0086 124.49C92.6486 123.734 92.0546 122.69 91.5686 122.006L92.9906 121.412ZM100.803 122.51C102.513 123.05 106.437 123.752 108.021 123.914L107.481 126.128C105.645 125.876 101.649 125.048 100.245 124.688L100.803 122.51ZM100.929 126.128C100.677 127.136 100.371 129.314 100.245 130.358C101.865 129.17 103.665 128.63 105.555 128.63C108.705 128.63 110.541 130.574 110.541 132.752C110.541 136.046 107.931 138.566 100.461 137.918L99.7586 135.56C105.177 136.316 108.021 135.002 108.021 132.698C108.021 131.528 106.923 130.682 105.339 130.682C103.305 130.682 101.487 131.438 100.353 132.806C100.029 133.184 99.8306 133.472 99.6866 133.832L97.5986 133.328C97.9586 131.564 98.3906 128.036 98.4986 125.804L100.929 126.128ZM117.399 138.242C116.301 136.91 114.771 135.362 113.511 134.282L115.401 132.662C116.679 133.706 118.407 135.47 119.325 136.586L117.399 138.242ZM131.619 124.382H147.999V126.344H131.619V124.382ZM133.743 130.52H138.423V132.104H133.743V130.52ZM133.743 133.274H138.423V134.876H133.743V133.274ZM141.285 127.766H143.283V135.146H141.285V127.766ZM137.667 127.586H139.755V136.496C139.755 137.414 139.575 137.918 138.963 138.224C138.369 138.548 137.541 138.566 136.425 138.566C136.317 138.026 136.011 137.234 135.741 136.73C136.407 136.766 137.145 136.766 137.361 136.748C137.595 136.748 137.667 136.676 137.667 136.46V127.586ZM144.903 127.28H147.027V136.262C147.027 137.306 146.829 137.864 146.109 138.188C145.425 138.512 144.453 138.584 143.121 138.566C143.013 137.99 142.671 137.072 142.365 136.514C143.283 136.568 144.219 136.568 144.525 136.55C144.813 136.55 144.903 136.478 144.903 136.226V127.28ZM134.103 122.42L136.155 121.7C136.803 122.402 137.523 123.356 137.829 124.04L135.651 124.814C135.399 124.166 134.733 123.14 134.103 122.42ZM143.337 121.664L145.695 122.366C144.957 123.518 144.165 124.67 143.535 125.462L141.591 124.796C142.203 123.95 142.941 122.636 143.337 121.664ZM132.609 127.586H138.279V129.386H134.643V138.512H132.609V127.586ZM149.475 131.654C150.015 131.222 150.447 130.808 150.987 130.25C151.833 129.386 153.201 127.532 154.335 126.236C155.595 124.796 156.747 124.67 158.061 125.948C159.303 127.136 160.725 128.99 161.787 130.16C162.939 131.42 164.487 133.022 166.197 134.552L164.325 136.712C163.047 135.488 161.517 133.76 160.365 132.41C159.249 131.096 157.899 129.368 157.071 128.414C156.423 127.73 156.081 127.82 155.559 128.468C154.839 129.386 153.579 131.168 152.805 132.194C152.391 132.77 151.977 133.418 151.653 133.886L149.475 131.654ZM171.579 128.738V135.362H169.509V130.736H167.493V128.738H171.579ZM171.579 134.516C172.263 135.704 173.541 136.226 175.395 136.298C177.555 136.406 181.821 136.352 184.323 136.154C184.089 136.64 183.747 137.63 183.657 138.26C181.407 138.368 177.573 138.404 175.377 138.296C173.217 138.206 171.759 137.684 170.679 136.298C169.959 137 169.203 137.684 168.303 138.458L167.277 136.316C168.033 135.83 168.915 135.182 169.707 134.516H171.579ZM167.547 123.392L169.203 122.186C170.229 122.978 171.489 124.184 172.047 125.03L170.265 126.398C169.779 125.516 168.573 124.274 167.547 123.392ZM178.941 121.934L181.317 122.366C180.723 123.608 180.057 124.904 179.535 125.75L177.753 125.282C178.203 124.328 178.707 122.96 178.941 121.934ZM175.557 124.292H183.531V126.11H175.557V134.12H173.469V125.948L175.107 124.292H175.557ZM174.657 127.262H183.063V129.008H174.657V127.262ZM174.657 130.178H182.991V131.924H174.657V130.178ZM173.469 133.148H183.855V134.966H173.469V133.148ZM177.897 125.084H179.949V133.958H177.897V125.084ZM174.909 121.772L177.051 122.402C176.007 124.958 174.279 127.442 172.497 128.99C172.155 128.54 171.363 127.676 170.895 127.28C172.569 126.002 174.063 123.932 174.909 121.772ZM193.251 122.582C193.089 123.248 193.017 123.716 192.927 124.184C192.711 125.732 191.865 131.672 191.865 133.49C191.865 134.984 192.765 135.794 194.529 135.794C197.049 135.794 198.435 134.624 198.435 133.148C198.435 131.942 197.751 130.772 196.581 129.674L199.101 129.134C200.307 130.646 200.847 131.906 200.847 133.436C200.847 136.154 198.417 138.116 194.475 138.116C191.631 138.116 189.633 136.892 189.633 133.868C189.633 132.032 190.497 126.56 190.677 124.04C190.749 123.212 190.749 122.852 190.713 122.438L193.251 122.582ZM186.825 124.814C188.391 125.336 190.623 125.57 192.459 125.57C193.845 125.57 195.123 125.48 196.023 125.318L195.951 127.478C194.889 127.586 193.899 127.64 192.387 127.64C190.569 127.64 188.373 127.352 186.717 126.884L186.825 124.814ZM186.429 129.278C188.373 129.944 190.461 130.088 192.279 130.088C193.377 130.088 194.709 130.016 195.879 129.872L195.825 132.014C194.835 132.122 193.773 132.176 192.639 132.176C190.245 132.176 187.959 131.924 186.321 131.456L186.429 129.278ZM214.576 131.114C214.576 129.926 213.658 128.972 211.966 128.972C209.986 128.972 208.186 129.566 207.286 129.836C206.764 129.998 206.044 130.268 205.54 130.484L204.856 127.892C205.468 127.856 206.224 127.712 206.818 127.586C208.132 127.298 210.148 126.776 212.272 126.776C215.116 126.776 217.114 128.396 217.114 131.204C217.114 135.074 213.532 137.45 208.528 138.152L207.25 135.902C211.714 135.398 214.576 133.94 214.576 131.114ZM207.502 122.474C209.608 122.924 213.694 123.284 215.584 123.284L215.242 125.498C213.136 125.354 209.23 124.994 207.16 124.634L207.502 122.474ZM222.665 132.554C224.285 132.554 225.581 133.85 225.581 135.452C225.581 137.072 224.285 138.368 222.665 138.368C221.063 138.368 219.749 137.072 219.749 135.452C219.749 133.85 221.063 132.554 222.665 132.554ZM222.665 137.072C223.565 137.072 224.285 136.352 224.285 135.452C224.285 134.57 223.565 133.85 222.665 133.85C221.783 133.85 221.045 134.57 221.045 135.452C221.045 136.352 221.783 137.072 222.665 137.072Z" fill="#2F3B53"/>
</svg>
